<?xml version="1.0" standalone="no"?>
<!DOCTYPE svg PUBLIC "-//W3C//DTD SVG 1.1//EN" "http://www.w3.org/Graphics/SVG/1.1/DTD/svg11.dtd" >
<svg xmlns="http://www.w3.org/2000/svg" xmlns:xlink="http://www.w3.org/1999/xlink" version="1.1">
<metadata>
Created by FontForge 20170731 at Tue Jan 31 13:40:52 2017
 By Aleksey,,,
Copyright 2012 The Encode Project Authors (impallari@gmail.com), with Reserved Font Name "Encode Sans".
</metadata>
<defs>
<font id="EncodeSansExpanded-Medium" horiz-adv-x="1293" >
  <font-face 
    font-family="Encode Sans Expanded Medium"
    font-weight="500"
    font-stretch="expanded"
    units-per-em="2000"
    panose-1="0 0 6 5 0 0 0 0 0 0"
    ascent="1600"
    descent="-400"
    x-height="1088"
    cap-height="1480"
    bbox="-1066 -476 3016 2179"
    underline-thickness="50"
    underline-position="-150"
    unicode-range="U+000D-FB02"
  />
<missing-glyph horiz-adv-x="1028" 
d="M843 1616v-2056h-652v2056h652zM685 1478h-340v-68h134v-76h-136v-68h342v68h-136v76h136v68zM549 1213h-206v-214h342v70h-136v144zM479 1143v-74h-68v74h68zM685 944h-342v-68h136v-76h-136v-68h206v144h136v68zM685 820h-68v-135h-274v-70h342v205zM685 569h-206v-115
h70v48h68v-97h-206v164h-68v-232h342v232zM685 214h-342v-233h342v233zM617 146v-97h-206v97h206zM685 -66h-342v-68h144l-144 -96v-68h342v68h-210l144 96h66v68z" />
    <glyph glyph-name="fi" unicode="fi" horiz-adv-x="1405" 
d="M371.5 1519q121.5 117 345.5 117q88 0 167 -16v-176q-66 14 -139 14q-140 0 -206.5 -62.5t-66.5 -200.5v-107h377v-179h-377v-909h-222v909h-217v179h217v97q0 217 121.5 334zM1236.5 1510.5q36.5 -31.5 36.5 -90.5q0 -58 -36.5 -89t-107.5 -31t-107.5 31t-36.5 89
q0 59 36.5 90.5t107.5 31.5t107.5 -31.5zM1018 0v1088h222v-1088h-222z" />
    <glyph glyph-name="fl" unicode="fl" horiz-adv-x="1405" 
d="M371.5 1519q121.5 117 345.5 117q88 0 167 -16v-176q-66 14 -139 14q-140 0 -206.5 -62.5t-66.5 -200.5v-107h377v-179h-377v-909h-222v909h-217v179h217v97q0 217 121.5 334zM1018 1616h222v-1616h-222v1616z" />
    <glyph glyph-name="f_j" unicode="fj" horiz-adv-x="1405" 
d="M472 909v-909h-222v909h-217v179h217v97q0 217 121.5 334t345.5 117q88 0 167 -16v-176q-66 14 -139 14q-140 0 -206.5 -62.5t-66.5 -200.5v-107h377v-179h-377zM1017.5 1338q-36.5 31 -36.5 89q0 59 36.5 90.5t107.5 31.5t107.5 -31.5t36.5 -90.5q0 -58 -36.5 -89
t-107.5 -31t-107.5 31zM1018 1088h222v-908q0 -189 -62.5 -342.5t-204.5 -303.5l-141 96q98 119 142 247t44 294v917z" />
    <glyph glyph-name=".notdef" horiz-adv-x="1028" 
d="M843 1616v-2056h-652v2056h652zM685 1478h-340v-68h134v-76h-136v-68h342v68h-136v76h136v68zM549 1213h-206v-214h342v70h-136v144zM479 1143v-74h-68v74h68zM685 944h-342v-68h136v-76h-136v-68h206v144h136v68zM685 820h-68v-135h-274v-70h342v205zM685 569h-206v-115
h70v48h68v-97h-206v164h-68v-232h342v232zM685 214h-342v-233h342v233zM617 146v-97h-206v97h206zM685 -66h-342v-68h144l-144 -96v-68h342v68h-210l144 96h66v68z" />
    <glyph glyph-name=".null" horiz-adv-x="0" 
 />
    <glyph glyph-name="nonmarkingreturn" unicode="&#xd;" horiz-adv-x="562" 
 />
    <glyph glyph-name="NULL" horiz-adv-x="0" 
 />
    <glyph glyph-name="NULL" horiz-adv-x="0" 
 />
    <glyph glyph-name="space" unicode=" " horiz-adv-x="562" 
 />
    <glyph glyph-name="exclam" unicode="!" horiz-adv-x="587" 
d="M226 400l-49 531v549h233v-549l-47 -531h-137zM183.5 21q-40.5 35 -40.5 95t40 95.5t110 35.5t110.5 -36t40.5 -95t-40.5 -94.5t-110.5 -35.5q-69 0 -109.5 35z" />
    <glyph glyph-name="quotedbl" unicode="&#x22;" horiz-adv-x="890" 
d="M177 889l-43 727h220l-44 -727h-133zM580 889l-43 727h220l-44 -727h-133z" />
    <glyph glyph-name="numbersign" unicode="#" 
d="M1183 879h-212l-34 -278h246v-175h-268l-53 -426h-178l53 426h-258l-53 -426h-178l53 426h-191v175h213l34 278h-247v175h269l53 426h178l-53 -426h258l53 426h178l-53 -426h190v-175zM759 601l34 278h-258l-34 -278h258z" />
    <glyph glyph-name="dollar" unicode="$" horiz-adv-x="1241" 
d="M1043 135q-111 -109 -317 -141v-234h-210v221q-208 4 -401 64v185q101 -33 218.5 -50.5t213.5 -17.5q199 0 290.5 61.5t91.5 181.5q0 67 -29.5 110.5t-94.5 72.5t-178 51l-100 20q-230 45 -335 145t-105 267q0 170 108 277t321 138v234h210v-221q194 -3 357 -50v-184
q-86 25 -184 39t-192 14q-204 0 -299.5 -61t-95.5 -177q0 -66 26 -109.5t85 -72.5t162 -50l100 -19q168 -33 271.5 -88t150.5 -135t47 -190q0 -172 -111 -281z" />
    <glyph glyph-name="percent" unicode="%" horiz-adv-x="2112" 
d="M304.5 623.5q-87.5 50.5 -137 154.5t-49.5 258t48.5 257.5t136.5 154.5t205 51t205 -51t136.5 -154.5t48.5 -257.5t-49.5 -258t-137 -154.5t-203.5 -50.5t-203.5 50.5zM587 0l746 1480h192l-746 -1480h-192zM663.5 793q56.5 75 56.5 241q0 167 -56.5 243.5t-155.5 76.5
q-100 0 -156 -76t-56 -241q0 -166 56.5 -242.5t155.5 -76.5t155.5 75zM1399.5 32.5q-87.5 50.5 -136.5 154t-49 257.5t48.5 258t136.5 154.5t205 50.5t205 -50.5t136.5 -154.5t48.5 -258t-49.5 -257.5t-137 -154t-203.5 -50.5q-117 0 -204.5 50.5zM1759.5 202
q56.5 75 56.5 241t-57 243t-155 77q-99 0 -155.5 -76t-56.5 -241t56.5 -242t155.5 -77t155.5 75z" />
    <glyph glyph-name="ampersand" unicode="&#x26;" horiz-adv-x="1708" 
d="M1616 -20l-299 192q-85 -94 -222.5 -142t-323.5 -48q-208 0 -347.5 52.5t-207.5 147t-68 220.5q0 133 71.5 233.5t199.5 157.5q-56 66 -79.5 131t-23.5 140q0 208 152 321.5t456 113.5q156 0 291 -30v-185q-133 34 -280 34q-210 0 -302 -67t-92 -195q0 -60 21.5 -107.5
t75 -99t155.5 -121.5l463 -297q12 54 12 119q0 63 -12.5 132t-34.5 135h182q43 -128 43 -267q0 -120 -35 -219l297 -190zM1170 266l-469 300q-97 61 -172 122q-156 -92 -156 -263q0 -131 103 -207t318 -76q258 0 376 124z" />
    <glyph glyph-name="quotesingle" unicode="'" horiz-adv-x="487" 
d="M177 889l-43 727h220l-44 -727h-133z" />
    <glyph glyph-name="parenleft" unicode="(" horiz-adv-x="756" 
d="M233 23q-96 260 -96 565t96 565t300 463h247q-221 -228 -319 -478t-98 -550t98 -550t319 -478h-247q-204 203 -300 463z" />
    <glyph glyph-name="parenright" unicode=")" horiz-adv-x="756" 
d="M295 38q98 250 98 550t-98 550t-320 478h248q204 -203 300 -463t96 -565t-96 -565t-300 -463h-248q222 228 320 478z" />
    <glyph glyph-name="asterisk" unicode="*" horiz-adv-x="989" 
d="M579 1165l132 -140l104 -142l-122 -88l-103 141l-96 180l-95 -180l-104 -141l-121 88l104 142l132 140l-185 34l-195 63l46 142l194 -63l176 -85l-26 194v166h149v-166l-26 -194l176 85l193 63l47 -142l-195 -63z" />
    <glyph glyph-name="plus" unicode="+" horiz-adv-x="1142" 
d="M481 336v338h-321v172h321v338h180v-338h321v-172h-321v-338h-180z" />
    <glyph glyph-name="comma" unicode="," horiz-adv-x="547" 
d="M384 217q39 -45 39 -135q0 -108 -33 -213t-90 -192h-127q38 90 59.5 164t26.5 145q-63 5 -99.5 42t-36.5 97q0 63 39.5 100t107.5 37q75 0 114 -45z" />
    <glyph glyph-name="hyphen" unicode="-" horiz-adv-x="1009" 
d="M160 472v184h689v-184h-689z" />
    <glyph glyph-name="period" unicode="." horiz-adv-x="547" 
d="M163.5 23q-40.5 37 -40.5 101q0 63 40 100.5t110 37.5q71 0 111 -37.5t40 -100.5t-40.5 -100.5t-110.5 -37.5q-69 0 -109.5 37z" />
    <glyph glyph-name="slash" unicode="/" horiz-adv-x="788" 
d="M0 -240l565 1856h223l-565 -1856h-223z" />
    <glyph glyph-name="zero" unicode="0" horiz-adv-x="1443" 
d="M283.5 166.5q-156.5 185.5 -156.5 573.5q0 389 155.5 574t438.5 185q284 0 439.5 -185t155.5 -574q0 -388 -156.5 -573.5t-438.5 -185.5q-281 0 -437.5 185.5zM921.5 222q81.5 53 126.5 178.5t45 337.5q0 214 -45 340.5t-126.5 179.5t-199.5 53q-119 0 -200.5 -53
t-126 -178.5t-44.5 -337.5q0 -214 44.5 -340.5t126 -179.5t200.5 -53q118 0 199.5 53z" />
    <glyph glyph-name="one" unicode="1" horiz-adv-x="902" 
d="M557 1485h153v-1485h-227v1210l-448 -318v219z" />
    <glyph glyph-name="two" unicode="2" horiz-adv-x="1151" 
d="M1081 182v-182h-1012v119l480 537q120 135 168.5 226.5t48.5 179.5q0 132 -81 194t-254 62q-102 0 -199.5 -17t-180.5 -47v185q77 27 182.5 43.5t211.5 16.5q274 0 409.5 -102.5t135.5 -311.5q0 -85 -24.5 -162t-80.5 -161t-153 -190l-355 -390h704z" />
    <glyph glyph-name="three" unicode="3" horiz-adv-x="1162" 
d="M1002.5 648q83.5 -91 83.5 -236q0 -206 -149.5 -318.5t-457.5 -112.5q-108 0 -216 15.5t-203 44.5v170q100 -29 206 -45.5t204 -16.5q402 0 402 275q0 124 -87.5 187t-274.5 63h-242v169h147q202 0 300.5 62.5t98.5 189.5q0 113 -85 174.5t-250 61.5q-93 0 -189.5 -14.5
t-186.5 -43.5v169q85 27 188.5 42t206.5 15q174 0 293.5 -46t180.5 -133.5t61 -209.5q0 -125 -72 -213.5t-198 -127.5q156 -30 239.5 -121z" />
    <glyph glyph-name="four" unicode="4" horiz-adv-x="1351" 
d="M1308 513v-179h-223v-334h-207v334h-829v122l626 1024h224l-591 -967h570l24 467h183v-467h223z" />
    <glyph glyph-name="five" unicode="5" horiz-adv-x="1177" 
d="M830 805q149 -52 216 -143.5t67 -229.5q0 -220 -152 -335.5t-456 -115.5q-107 0 -215 16.5t-203 46.5v170q98 -29 204 -45.5t206 -16.5q204 0 303 69.5t99 206.5q0 88 -47.5 144t-161.5 88.5t-317 43.5l-226 12l55 764h847v-170h-646l-31 -437l63 -3q246 -13 395 -65z
" />
    <glyph glyph-name="six" unicode="6" horiz-adv-x="1327" 
d="M1119 753.5q136 -110.5 136 -329.5q0 -138 -63.5 -238t-180.5 -152.5t-277 -52.5q-285 0 -442 175t-157 533q0 399 182.5 604.5t535.5 205.5q194 0 326 -50v-173q-67 26 -150 39t-162 13q-254 0 -381 -140.5t-131 -420.5q74 45 177 71t206 26q245 0 381 -110.5z
M963 213.5q84 69.5 84 205.5q0 141 -90 211.5t-260 70.5q-86 0 -177.5 -23.5t-163.5 -68.5q9 -247 104.5 -356t273.5 -109q145 0 229 69.5z" />
    <glyph glyph-name="seven" unicode="7" horiz-adv-x="1087" 
d="M14 1480h1013v-119l-591 -1361h-234l577 1298h-765v182z" />
    <glyph glyph-name="eight" unicode="8" horiz-adv-x="1443" 
d="M1256 615.5q74 -89.5 74 -217.5q0 -124 -67 -218t-202 -146.5t-333 -52.5q-310 0 -463.5 102t-153.5 287q0 132 76 228t218 149q-127 60 -184.5 147t-57.5 205q0 122 64.5 212t192.5 139t313 49q173 0 295 -44.5t185.5 -128t63.5 -200.5q0 -123 -64.5 -215t-197.5 -148
q167 -58 241 -147.5zM465.5 1278.5q-86.5 -61.5 -86.5 -170.5q0 -77 37 -129.5t129 -91t257 -69.5l36 -7q126 53 182.5 123t56.5 169q0 115 -90 176t-261 61q-174 0 -260.5 -61.5zM1019 202.5q97 62.5 97 181.5q0 74 -39 124t-129 86.5t-248 65.5q-73 13 -135 30
q-120 -44 -180 -120t-60 -171q0 -127 102 -193t303 -66q192 0 289 62.5z" />
    <glyph glyph-name="nine" unicode="9" horiz-adv-x="1327" 
d="M1035 1324q157 -175 157 -533q0 -399 -182.5 -604.5t-535.5 -205.5q-194 0 -326 50v173q67 -26 150 -39t162 -13q254 0 381 140.5t131 420.5q-74 -45 -177 -71t-206 -26q-245 0 -381 110.5t-136 329.5q0 138 63.5 238t180.5 152.5t277 52.5q285 0 442 -175zM370 849.5
q90 -70.5 260 -70.5q86 0 177.5 23.5t163.5 68.5q-9 247 -104.5 356t-273.5 109q-145 0 -229 -69.5t-84 -205.5q0 -141 90 -211.5z" />
    <glyph glyph-name="colon" unicode=":" horiz-adv-x="547" 
d="M163.5 23q-40.5 37 -40.5 101q0 63 40 100.5t110 37.5q71 0 111 -37.5t40 -100.5t-40.5 -100.5t-110.5 -37.5q-69 0 -109.5 37zM163.5 862q-40.5 37 -40.5 101q0 63 40 100.5t110 37.5q71 0 111 -37.5t40 -100.5t-40.5 -100.5t-110.5 -37.5q-69 0 -109.5 37z" />
    <glyph glyph-name="semicolon" unicode=";" horiz-adv-x="547" 
d="M384 217q39 -45 39 -135q0 -108 -33 -213t-90 -192h-127q38 90 59.5 164t26.5 145q-63 5 -99.5 42t-36.5 97q0 63 39.5 100t107.5 37q75 0 114 -45zM163.5 862q-40.5 37 -40.5 101q0 63 40 100.5t110 37.5q71 0 111 -37.5t40 -100.5t-40.5 -100.5t-110.5 -37.5
q-69 0 -109.5 37z" />
    <glyph glyph-name="less" unicode="&#x3c;" horiz-adv-x="1142" 
d="M982 1186v-176l-641 -248l641 -252v-176l-822 327v198z" />
    <glyph glyph-name="equal" unicode="=" horiz-adv-x="1142" 
d="M160 883v171h822v-171h-822zM160 466v171h822v-171h-822z" />
    <glyph glyph-name="greater" unicode="&#x3e;" horiz-adv-x="1142" 
d="M160 1186l822 -327v-198l-822 -327v176l641 252l-641 248v176z" />
    <glyph glyph-name="question" unicode="?" horiz-adv-x="1040" 
d="M372 784q146 35 230 78.5t119.5 99t35.5 131.5q0 110 -85.5 170t-251.5 60q-93 0 -189 -14.5t-185 -43.5v177q85 27 188.5 42t205.5 15q261 0 398 -102.5t137 -290.5q0 -110 -43 -191t-132.5 -140.5t-234.5 -105.5l-17 -279h-137zM369.5 21.5q-40.5 35.5 -40.5 94.5
q0 60 40.5 95.5t110.5 35.5t110.5 -36t40.5 -95q0 -58 -40.5 -94t-110.5 -36t-110.5 35.5z" />
    <glyph glyph-name="at" unicode="@" horiz-adv-x="2219" 
d="M1655.5 1392q220.5 -106 333.5 -312t113 -504q0 -307 -114 -450.5t-312 -143.5q-107 0 -179 38.5t-106 110.5h-16q-51 -71 -145.5 -110t-205.5 -39q-120 0 -205 37t-129 105t-44 161q0 144 106.5 223t335.5 100l283 30v43q0 96 -32.5 150t-97.5 76t-172 22
q-74 0 -161.5 -14t-167.5 -42v167q80 27 175 42t186 15q168 0 274.5 -40t160 -133t53.5 -250v-390q0 -86 34 -122.5t102 -36.5q99 0 159.5 102.5t60.5 331.5q0 398 -205.5 594.5t-623.5 196.5q-417 0 -623.5 -204t-206.5 -624q0 -287 94.5 -471t288 -273.5t493.5 -89.5
q232 0 471 56v-149q-226 -55 -471 -55q-516 1 -780.5 246.5t-264.5 733.5q0 323 116 541.5t339 327.5t544 109q319 0 539.5 -106zM1238 167.5q78 29.5 133 83.5v259l-268 -29q-123 -14 -178.5 -55.5t-55.5 -121.5q0 -81 55 -123.5t159 -42.5q77 0 155 29.5z" />
    <glyph glyph-name="A" unicode="A" horiz-adv-x="1566" 
d="M1303 0l-176 453h-691l-176 -453h-224l587 1480h320l587 -1480h-227zM505 629h553l-276 710z" />
    <glyph glyph-name="B" unicode="B" horiz-adv-x="1412" 
d="M1257.5 646q77.5 -91 77.5 -234q0 -140 -70.5 -234t-230.5 -143t-424 -49q-210 0 -427 28v1431q234 51 482 51q327 0 477.5 -101t150.5 -303q0 -125 -67 -211t-196 -118q150 -26 227.5 -117zM405 1307v-465h326q180 0 264.5 58.5t84.5 183.5q0 88 -39.5 142.5t-125.5 80
t-228 25.5q-152 0 -282 -25zM940.5 181q101.5 30 143.5 88t42 151q0 133 -89 194t-282 61h-350v-508q112 -16 257 -16q177 0 278.5 30z" />
    <glyph glyph-name="C" unicode="C" horiz-adv-x="1356" 
d="M323.5 164.5q-206.5 183.5 -206.5 572.5q0 251 95 421.5t276 255.5t438 85q101 0 190 -11t179 -35v-187q-172 45 -355 45q-292 0 -438.5 -138t-146.5 -432q0 -302 144.5 -437t424.5 -135q98 0 187 13t184 43v-188q-179 -56 -384 -56q-381 0 -587.5 183.5z" />
    <glyph glyph-name="D" unicode="D" horiz-adv-x="1635" 
d="M183 15v1430q105 23 234.5 36t246.5 13q423 0 638.5 -188t215.5 -566q0 -385 -224 -568.5t-680 -183.5q-220 0 -431 27zM1134 311q152 138 152 431q0 290 -153 429.5t-464 139.5q-114 0 -260 -23v-1100q106 -15 256 -15q317 0 469 138z" />
    <glyph glyph-name="E" unicode="E" horiz-adv-x="1367" 
d="M407 176h861v-176h-1085v1480h1075v-176h-851v-457h748v-177h-748v-494z" />
    <glyph glyph-name="F" unicode="F" horiz-adv-x="1330" 
d="M1252 1300h-843v-470h738v-181h-738v-649h-226v1480h1069v-180z" />
    <glyph glyph-name="G" unicode="G" horiz-adv-x="1567" 
d="M1390 720v-700q-112 -18 -205.5 -26t-194.5 -8q-434 0 -653 188.5t-220 561.5q0 251 102 421.5t292.5 256t455.5 85.5q183 0 376 -46v-187q-184 45 -359 45q-306 -1 -468.5 -140.5t-162.5 -432.5q0 -565 626 -565q107 0 197 9v538h214z" />
    <glyph glyph-name="H" unicode="H" horiz-adv-x="1661" 
d="M183 0v1480h226v-623h843v623h226v-1480h-226v660h-843v-660h-226z" />
    <glyph glyph-name="I" unicode="I" horiz-adv-x="592" 
d="M183 0v1480h226v-1480h-226z" />
    <glyph glyph-name="J" unicode="J" horiz-adv-x="592" 
d="M-2 -249q98 119 142 247t44 294v1188h225v-1204q-6 -183 -67 -329.5t-201 -293.5z" />
    <glyph glyph-name="K" unicode="K" horiz-adv-x="1412" 
d="M1166 0l-521 660h-236v-660h-226v1480h226v-623h238l482 623h247l-555 -717l600 -763h-255z" />
    <glyph glyph-name="L" unicode="L" horiz-adv-x="1241" 
d="M183 0v1480h226v-1297h814v-183h-1040z" />
    <glyph glyph-name="M" unicode="M" horiz-adv-x="1988" 
d="M1531 1480h270v-1480h-213v1183l-495 -975h-199l-494 956v-1164h-213v1480h270l541 -1060z" />
    <glyph glyph-name="N" unicode="N" horiz-adv-x="1683" 
d="M1286 1480h214v-1480h-230l-873 1168v-1168h-214v1480h230l873 -1168v1168z" />
    <glyph glyph-name="O" unicode="O" horiz-adv-x="1696" 
d="M460.5 66q-164.5 85 -254 255t-89.5 419t90.5 419t254.5 255t386 85q224 0 388 -85t253.5 -255.5t89.5 -418.5t-90.5 -418t-254.5 -255.5t-386 -85.5q-223 0 -387.5 85zM1216 305.5q131 139.5 131 428.5q0 296 -131.5 438t-367.5 142q-235 0 -367 -139.5t-132 -428.5
q0 -298 131 -439t368 -141t368 139.5z" />
    <glyph glyph-name="P" unicode="P" horiz-adv-x="1397" 
d="M183 1452q115 22 223.5 33t229.5 11q333 0 499.5 -124.5t166.5 -387.5q0 -517 -678 -517q-88 0 -215 10v-477h-226v1452zM887 672.5q100 37.5 146.5 114t46.5 196.5q0 180 -105 263t-321 83q-131 0 -245 -20v-660q99 -14 216 -14q162 0 262 37.5z" />
    <glyph glyph-name="Q" unicode="Q" horiz-adv-x="1696" 
d="M1429 224q-150 -191 -441 -221q234 -59 569 -90l-32 -176q-542 61 -849.5 187t-433 321.5t-125.5 486.5q0 253 90 424.5t254.5 257t386.5 85.5q223 0 387 -84t254 -254t90 -421q0 -325 -150 -516zM479 306.5q130 -140.5 369 -140.5q237 0 368 139.5t131 428.5
q0 296 -131.5 438t-367.5 142q-235 0 -367 -139.5t-132 -428.5q0 -299 130 -439.5z" />
    <glyph glyph-name="R" unicode="R" horiz-adv-x="1475" 
d="M1163 0l-471 590q-18 -1 -55 -1q-99 0 -232 10v-599h-222v1445q227 51 469 51q329 0 488 -107.5t159 -342.5q0 -170 -95.5 -278t-282.5 -151l497 -617h-255zM405 769q68 -7 119.5 -10t121.5 -3q230 0 335 69.5t105 217.5q0 105 -43.5 168t-135 91t-240.5 28
q-75 0 -135 -6t-127 -18v-537z" />
    <glyph glyph-name="S" unicode="S" horiz-adv-x="1241" 
d="M115 48v184q102 -34 219.5 -52t220.5 -18q193 0 283.5 61.5t90.5 181.5q0 67 -29.5 110.5t-94.5 72.5t-178 51l-100 20q-230 45 -335 145t-105 267q0 204 154.5 316t454.5 112q210 0 387 -51v-185q-87 26 -186 40.5t-198 14.5q-387 0 -387 -238q0 -66 26 -109.5t85 -72.5
t162 -50l100 -19q168 -33 271.5 -88t150.5 -135t47 -190q0 -137 -71 -235t-206.5 -149t-324.5 -51q-234 0 -437 67z" />
    <glyph glyph-name="T" unicode="T" horiz-adv-x="1356" 
d="M565 0v1297h-544v183h1314v-183h-544v-1297h-226z" />
    <glyph glyph-name="U" unicode="U" horiz-adv-x="1628" 
d="M330.5 137.5q-155.5 156.5 -155.5 478.5v864h227v-885q0 -223 101 -325t313 -102t313 102t101 325v885h222v-864q0 -322 -154.5 -478.5t-481.5 -156.5q-330 0 -485.5 156.5z" />
    <glyph glyph-name="V" unicode="V" horiz-adv-x="1529" 
d="M1286 1480h226l-585 -1480h-325l-585 1480h242l512 -1311z" />
    <glyph glyph-name="W" unicode="W" horiz-adv-x="2456" 
d="M2177 1480h218l-469 -1480h-290l-406 1261l-410 -1261h-290l-471 1480h232l398 -1283l414 1283h259l412 -1291z" />
    <glyph glyph-name="X" unicode="X" horiz-adv-x="1455" 
d="M861 761l597 -761h-260l-475 606l-473 -606h-253l594 757l-570 723h260l447 -568l448 568h251z" />
    <glyph glyph-name="Y" unicode="Y" horiz-adv-x="1356" 
d="M1376 1480l-583 -832v-648h-227v647l-599 833h249l468 -650l459 650h233z" />
    <glyph glyph-name="Z" unicode="Z" horiz-adv-x="1344" 
d="M374 182h894v-182h-1193v123l882 1175h-869v182h1168v-123z" />
    <glyph glyph-name="bracketleft" unicode="[" horiz-adv-x="756" 
d="M203 -440v2056h586v-179h-364v-1698h356v-179h-578z" />
    <glyph glyph-name="backslash" unicode="\" horiz-adv-x="793" 
d="M568 -240l-568 1856h225l568 -1856h-225z" />
    <glyph glyph-name="bracketright" unicode="]" horiz-adv-x="756" 
d="M-25 -440v179h356v1698h-364v179h586v-2056h-578z" />
    <glyph glyph-name="asciicircum" unicode="^" 
d="M1210 740h-229l-334 560l-334 -560h-230l444 740h238z" />
    <glyph glyph-name="underscore" unicode="_" horiz-adv-x="1310" 
d="M96 -180v179h1118v-179h-1118z" />
    <glyph glyph-name="grave" unicode="`" horiz-adv-x="1200" 
d="M492 1247l-297 369h248l265 -369h-216z" />
    <glyph glyph-name="a" unicode="a" horiz-adv-x="1199" 
d="M832 1064.5q108 -40.5 162 -134.5t54 -256v-674h-186l-16 117h-12q-61 -64 -154 -99.5t-198 -35.5q-120 0 -205 37.5t-129 105.5t-44 160q0 145 108.5 224.5t345.5 100.5l272 27v52q0 96 -33 150t-99.5 76t-176.5 22q-76 0 -164.5 -13t-169.5 -39v166q80 26 177.5 40
t187.5 14q172 0 280 -40.5zM696 164.5q75 28.5 134 85.5v255l-255 -25q-133 -15 -190 -57.5t-57 -120.5q0 -79 53 -122.5t160 -43.5q80 0 155 28.5z" />
    <glyph glyph-name="b" unicode="b" horiz-adv-x="1330" 
d="M165 38v1578h222v-643h11q65 64 154 98t197 34q137 0 244.5 -57.5t170 -177.5t62.5 -302q0 -290 -160.5 -439t-475.5 -149q-231 0 -425 58zM906.5 250.5q97.5 97.5 97.5 299.5q0 197 -86 285t-238 88q-84 0 -160 -28.5t-133 -88.5v-624q99 -29 224 -29q198 0 295.5 97.5z
" />
    <glyph glyph-name="c" unicode="c" horiz-adv-x="1045" 
d="M251.5 122q-147.5 142 -147.5 420q0 279 155.5 421t454.5 142q149 0 274 -34v-177q-69 16 -129 24t-126 8q-205 0 -303.5 -92t-98.5 -289q0 -198 93.5 -292t277.5 -94q64 0 131 11.5t155 36.5v-177q-142 -50 -308 -50q-281 0 -428.5 142z" />
    <glyph glyph-name="d" unicode="d" horiz-adv-x="1330" 
d="M343.5 39.5q-111.5 57.5 -175.5 178t-64 303.5q0 286 158.5 435.5t456.5 149.5q104 0 224 -19v529h222v-1616h-187l-13 122h-12q-65 -66 -155 -103t-197 -37q-146 0 -257.5 57.5zM813 194.5q75 30.5 130 96.5v618q-99 24 -213 24q-205 0 -304.5 -97t-99.5 -298
q0 -374 328 -374q84 0 159 30.5z" />
    <glyph glyph-name="e" unicode="e" horiz-adv-x="1200" 
d="M1114 478h-789q6 -118 51 -190.5t135 -106.5t231 -34q140 0 310 43v-165q-177 -45 -341 -45q-304 0 -455.5 137.5t-151.5 424.5q0 180 61 306t176.5 191.5t278.5 65.5q240 0 367 -146.5t127 -422.5v-58zM403 873.5q-74 -84.5 -79 -261.5h581q-4 177 -76 261.5t-212 84.5
t-214 -84.5z" />
    <glyph glyph-name="f" unicode="f" horiz-adv-x="853" 
d="M540 1395.5q-68 -62.5 -68 -203.5v-104h377v-179h-377v-909h-222v909h-217v179h217v94q0 220 122.5 337t353.5 117q79 0 172 -13v-177q-73 12 -143 12q-147 0 -215 -62.5z" />
    <glyph glyph-name="g" unicode="g" horiz-adv-x="1330" 
d="M373.5 -446.5q-102.5 13.5 -194.5 41.5v177q201 -59 381 -59q137 0 220.5 33t123 104.5t39.5 190.5v82h-11q-65 -64 -154 -98t-197 -34q-136 0 -244 57.5t-170.5 176.5t-62.5 296q0 285 161 434.5t475 149.5q109 0 219.5 -15t205.5 -43v-966q0 -190 -64.5 -309.5
t-195 -175.5t-332.5 -56q-97 0 -199.5 13.5zM809.5 201.5q76.5 28.5 133.5 87.5v617q-101 26 -223 26q-196 0 -295 -97t-99 -295q0 -193 86.5 -280t237.5 -87q83 0 159.5 28.5z" />
    <glyph glyph-name="h" unicode="h" horiz-adv-x="1329" 
d="M165 1616h222v-644h11q75 65 171.5 99t202.5 34q188 0 297 -106.5t109 -329.5v-669h-222v658q0 138 -63.5 197t-184.5 59q-90 0 -174.5 -33.5t-146.5 -98.5v-782h-222v1616z" />
    <glyph glyph-name="i" unicode="i" horiz-adv-x="552" 
d="M165 0v1088h222v-1088h-222zM168.5 1331q-36.5 31 -36.5 89q0 59 36.5 90.5t107.5 31.5t107.5 -31.5t36.5 -90.5q0 -58 -36.5 -89t-107.5 -31t-107.5 31z" />
    <glyph glyph-name="j" unicode="j" horiz-adv-x="552" 
d="M-21 -370q98 119 142 247t44 294v917h222v-908q0 -189 -62.5 -342.5t-204.5 -303.5zM164.5 1338q-36.5 31 -36.5 89q0 59 36.5 90.5t107.5 31.5t107.5 -31.5t36.5 -90.5q0 -58 -36.5 -89t-107.5 -31t-107.5 31z" />
    <glyph glyph-name="k" unicode="k" horiz-adv-x="1227" 
d="M997 0l-395 466h-215v-466h-222v1616h222v-967h215l365 439h245l-430 -526l464 -562h-249z" />
    <glyph glyph-name="l" unicode="l" horiz-adv-x="552" 
d="M165 0v1616h222v-1616h-222z" />
    <glyph glyph-name="m" unicode="m" horiz-adv-x="1935" 
d="M1683 999q102 -106 102 -330v-669h-222v658q0 137 -56.5 197t-159.5 60q-75 0 -145 -29.5t-122 -92.5q9 -55 9 -122v-671h-218v658q0 138 -53.5 197.5t-155.5 59.5q-78 0 -150.5 -34t-124.5 -101v-780h-222v1088h184l14 -119h13q66 66 155 101t191 35q103 0 180.5 -38
t123.5 -117q83 81 180 118t195 37q180 0 282 -106z" />
    <glyph glyph-name="n" unicode="n" horiz-adv-x="1329" 
d="M165 1088h184l14 -119h13q77 65 177 100.5t209 35.5q195 0 305.5 -107t110.5 -334v-664h-222v655q0 139 -63 199.5t-185 60.5q-87 0 -172.5 -32.5t-148.5 -98.5v-784h-222v1088z" />
    <glyph glyph-name="o" unicode="o" horiz-adv-x="1305" 
d="M362.5 43q-123.5 63 -191 189t-67.5 312q0 184 66.5 309.5t189.5 188.5t293 63q260 0 404 -141.5t144 -419.5q0 -183 -68 -309.5t-191.5 -190.5t-288.5 -64q-167 0 -290.5 63zM979 543q0 201 -84 293.5t-242 92.5t-242.5 -92t-84.5 -292q0 -389 327 -389q326 0 326 387z
" />
    <glyph glyph-name="p" unicode="p" horiz-adv-x="1330" 
d="M165 1088h187l14 -123h11q65 66 155 103t197 37q145 0 256.5 -56t176 -177t64.5 -307q0 -286 -158 -435.5t-457 -149.5q-98 0 -224 18v-438h-222v1528zM904.5 251q99.5 97 99.5 298q0 374 -328 374q-84 0 -159 -31t-130 -97v-617q93 -24 213 -24q205 0 304.5 97z" />
    <glyph glyph-name="q" unicode="q" horiz-adv-x="1330" 
d="M943 112h-11q-65 -64 -154 -98t-197 -34q-137 0 -244.5 57.5t-170 177.5t-62.5 302q0 290 160.5 439t475.5 149q109 0 219.5 -15t205.5 -43v-1487h-222v552zM809.5 190.5q76.5 28.5 133.5 88.5v627q-101 26 -224 26q-196 0 -294.5 -97.5t-98.5 -299.5q0 -197 86 -285
t238 -88q83 0 159.5 28.5z" />
    <glyph glyph-name="r" unicode="r" horiz-adv-x="849" 
d="M165 1088h183l17 -139h13q59 71 152.5 111t195.5 40q58 0 109 -10v-199q-49 9 -120 9q-88 0 -179 -34t-149 -101v-765h-222v1088z" />
    <glyph glyph-name="s" unicode="s" horiz-adv-x="1074" 
d="M125 28v161q179 -50 373 -50q150 0 216 40.5t66 118.5q0 42 -15 69.5t-51 46t-99 28.5l-193 30q-168 27 -242.5 102t-74.5 201q0 153 126.5 241.5t386.5 88.5q82 0 163.5 -10.5t150.5 -30.5v-160q-152 42 -313 42q-165 0 -233 -43t-68 -119q0 -57 35 -92.5t125 -51.5
l193 -30q167 -26 245 -96t78 -203q0 -103 -55.5 -177t-167 -114t-274.5 -40q-205 0 -372 48z" />
    <glyph glyph-name="t" unicode="t" horiz-adv-x="885" 
d="M774 166q33 4 82 14v-176q-102 -24 -203 -24q-201 0 -306 98t-105 296v535h-217v179h217l38 392h184v-392h377v-179h-377v-494q0 -135 60 -194t185 -59q32 0 65 4z" />
    <glyph glyph-name="u" unicode="u" horiz-adv-x="1319" 
d="M262 87.5q-111 105.5 -111 329.5v671h222v-659q0 -137 62.5 -197t178.5 -60q87 0 171.5 33.5t146.5 98.5v784h222v-1088h-184l-14 116h-11q-77 -65 -174 -99.5t-202 -34.5q-196 0 -307 105.5z" />
    <glyph glyph-name="v" unicode="v" horiz-adv-x="1246" 
d="M1009 1088h219l-469 -1088h-273l-468 1088h236l378 -900z" />
    <glyph glyph-name="w" unicode="w" horiz-adv-x="1939" 
d="M1653 1088h208l-345 -1088h-258l-287 889l-289 -889h-257l-348 1088h218l271 -871l279 871h257l278 -865z" />
    <glyph glyph-name="x" unicode="x" horiz-adv-x="1197" 
d="M729 551l449 -551h-255l-326 402l-327 -402h-249l446 548l-437 540h255l317 -391l316 391h247z" />
    <glyph glyph-name="y" unicode="y" horiz-adv-x="1246" 
d="M1009 1088h219l-659 -1528h-220l191 440h-54l-468 1088h236l374 -909z" />
    <glyph glyph-name="z" unicode="z" horiz-adv-x="1099" 
d="M376 179h658v-179h-957v141l647 768h-634v179h931v-141z" />
    <glyph glyph-name="braceleft" unicode="{" horiz-adv-x="796" 
d="M423 713.5q-42 -63.5 -133 -87.5q91 -25 133 -88t42 -173v-421q0 -118 58.5 -169.5t180.5 -51.5h125v-171q-74 -12 -157 -12q-213 0 -321 99t-108 295v437q0 84 -41.5 124.5t-123.5 40.5h-45v179h45q165 0 165 166v361q0 196 108 295t321 99q83 0 157 -12v-171h-125
q-122 0 -180.5 -51.5t-58.5 -169.5v-346q0 -109 -42 -172.5z" />
    <glyph glyph-name="bar" unicode="|" horiz-adv-x="570" 
d="M183 -440v2056h204v-2056h-204z" />
    <glyph glyph-name="braceright" unicode="}" horiz-adv-x="796" 
d="M762 715v-179h-44q-82 0 -123.5 -40.5t-41.5 -124.5v-437q0 -196 -108 -295t-321 -99q-85 0 -157 12v171h125q122 0 180.5 51.5t58.5 169.5v421q0 110 42 173t133 88q-91 24 -133 87.5t-42 172.5v346q0 118 -58.5 169.5t-180.5 51.5h-125v171q72 12 157 12q213 0 321 -99
t108 -295v-361q0 -166 165 -166h44z" />
    <glyph glyph-name="asciitilde" unicode="~" horiz-adv-x="1142" 
d="M663 628.5q-45 15.5 -114 47.5q-55 27 -92.5 40.5t-74.5 13.5q-64 0 -118 -26.5t-104 -82.5v184q82 94 222 94q52 0 98 -16t113 -47q57 -27 94 -40.5t74 -13.5q64 0 117 26.5t104 82.5v-183q-83 -95 -222 -95q-52 0 -97 15.5z" />
    <glyph glyph-name="uni00A0" unicode="&#xa0;" horiz-adv-x="562" 
 />
    <glyph glyph-name="exclamdown" unicode="&#xa1;" horiz-adv-x="587" 
d="M403 1064.5q41 -37.5 41 -100.5t-40 -100.5t-111 -37.5q-70 0 -110 37.5t-40 100.5q0 64 40.5 101t109.5 37t110 -37.5zM226 672h137l47 -523v-529h-233v529z" />
    <glyph glyph-name="cent" unicode="&#xa2;" horiz-adv-x="1058" 
d="M428 834.5q-97 -91.5 -97 -289.5t93.5 -292t277.5 -94q64 0 131 11.5t155 36.5v-177q-106 -38 -233 -47v-223h-195v227q-224 29 -340 168.5t-116 386.5q0 240 115.5 379t340.5 173v234h195v-224q115 -3 233 -33v-177q-71 16 -131 24t-125 8q-207 0 -304 -91.5z" />
    <glyph glyph-name="sterling" unicode="&#xa3;" horiz-adv-x="1469" 
d="M1375 175v-175h-1291v175h237v493h-237v164h237v169q0 252 155 375t465 123q209 0 382 -50v-184q-85 25 -183 39t-192 14q-144 0 -233.5 -30t-132.5 -97t-43 -180v-179h569v-164h-569v-493h836z" />
    <glyph glyph-name="currency" unicode="&#xa4;" 
d="M1039 455l117 -113l-111 -111l-114 116l-82 100q-87 -59 -202 -59q-116 0 -203 59l-82 -100l-113 -116l-111 111l116 113l103 84q-54 85 -54 201q0 115 54 200l-103 85l-118 113l112 111l113 -116l84 -102q85 59 202 59q115 0 202 -59l84 102l113 116l111 -111l-118 -113
l-103 -85q54 -85 54 -200t-53 -201zM757 540q48 27 74.5 78t26.5 122q0 66 -25 117.5t-72 80.5t-112 29q-97 0 -155.5 -60.5t-58.5 -166.5q0 -70 26.5 -121.5t74.5 -78.5t111 -27q62 0 110 27z" />
    <glyph glyph-name="yen" unicode="&#xa5;" horiz-adv-x="1384" 
d="M1393 1480l-503 -714h253v-136h-336v-212h336v-136h-336v-282h-227v282h-336v136h336v212h-336v136h251l-512 714h249l466 -650l461 650h234z" />
    <glyph glyph-name="brokenbar" unicode="&#xa6;" horiz-adv-x="570" 
d="M183 836v780h204v-780h-204zM183 -440v780h204v-780h-204z" />
    <glyph glyph-name="section" unicode="&#xa7;" horiz-adv-x="1205" 
d="M1029 308q0 -155 -125.5 -241.5t-378.5 -86.5q-194 0 -357 45v155q91 -25 177 -35.5t181 -10.5q162 0 230 40.5t68 118.5q0 63 -37 97t-129 50l-220 37q-151 26 -227 99.5t-76 197.5q0 129 107 213q-74 71 -74 183q0 152 126 239.5t395 87.5q158 0 298 -35v-154
q-75 19 -142.5 27.5t-140.5 8.5q-182 0 -256.5 -43.5t-74.5 -118.5q0 -58 36.5 -94.5t124.5 -52.5l229 -37q156 -26 231.5 -96t75.5 -194q0 -131 -112 -218q71 -68 71 -182zM721 589q59 -11 103 -25q57 51 57 123q0 67 -40.5 105.5t-140.5 55.5l-220 38q-49 8 -100 25
q-56 -55 -56 -124q0 -61 39.5 -102t136.5 -59z" />
    <glyph glyph-name="dieresis" unicode="&#xa8;" horiz-adv-x="1200" 
d="M246 1333q-33 31 -33 87t33 88t96 32t96 -32t33 -88t-33 -87t-96 -31t-96 31zM762 1333q-33 31 -33 87t33 88t96 32t96 -32t33 -88t-33 -87t-96 -31t-96 31z" />
    <glyph glyph-name="copyright" unicode="&#xa9;" horiz-adv-x="1727" 
d="M472 73q-169 95 -262 267.5t-93 399.5t93 399.5t262 267.5t391 95t391.5 -95t262.5 -267.5t93 -399.5t-93 -399.5t-262.5 -267.5t-391.5 -95t-391 95zM1191 180.5q140 78.5 215.5 222.5t75.5 337t-75.5 337t-215.5 222.5t-328 78.5t-327.5 -78.5t-215 -222.5t-75.5 -337
t75.5 -337t215 -222.5t327.5 -78.5t328 78.5zM695 371q-92 47 -142 139t-50 223q0 130 51 222t147.5 140.5t230.5 48.5q104 0 192 -26v-137q-94 23 -180 23q-280 0 -280 -268q0 -135 68.5 -203.5t193.5 -68.5q93 0 198 35v-138q-90 -37 -213 -37q-124 0 -216 47z" />
    <glyph glyph-name="ordfeminine" unicode="&#xaa;" horiz-adv-x="1012" 
d="M706 1462q94 -34 140.5 -112t46.5 -212v-528h-174l-16 94h-10q-51 -51 -130 -80.5t-166 -29.5q-156 0 -237.5 66.5t-81.5 179.5q0 118 89 181.5t283 78.5l237 21v45q0 68 -26 107t-82 55.5t-150 16.5q-65 0 -139 -10.5t-142 -31.5v150q70 22 152.5 32.5t160.5 10.5
q151 0 245 -34zM580 753q59 21 107 61v199l-207 -18q-105 -10 -150.5 -43t-45.5 -92q0 -61 43 -94.5t132 -33.5q62 0 121 21z" />
    <glyph glyph-name="guillemotleft" unicode="&#xab;" horiz-adv-x="1251" 
d="M431 136l-314 428l314 428h236l-314 -428l314 -428h-236zM938 136l-314 428l314 428h236l-314 -428l314 -428h-236z" />
    <glyph glyph-name="logicalnot" unicode="&#xac;" horiz-adv-x="1426" 
d="M1096 199v475h-936v172h1116v-647h-180z" />
    <glyph glyph-name="uni00AD" unicode="&#xad;" horiz-adv-x="1009" 
d="M160 472v184h689v-184h-689z" />
    <glyph glyph-name="registered" unicode="&#xae;" horiz-adv-x="1530" 
d="M1082.5 1420q138.5 -78 215.5 -218t77 -320t-77 -319.5t-215.5 -217t-317.5 -77.5t-317.5 77.5t-215.5 217t-77 319.5t77 320t215.5 218t317.5 78t317.5 -78zM1030 432.5q114 63.5 176 179.5t62 270q0 155 -62 271.5t-176 180t-265 63.5t-265 -63.5t-176 -180t-62 -271.5
q0 -154 62 -270t176 -179.5t265 -63.5t265 63.5zM877 826l155 -226h-117l-145 210h-17h-94l-3 -210h-105v592h202q125 0 188.5 -49t63.5 -143q0 -134 -128 -174zM771 900q67 0 99 24t32 76q0 103 -131 103h-112v-203h112z" />
    <glyph glyph-name="macron" unicode="&#xaf;" horiz-adv-x="1200" 
d="M245 1355v134h710v-134h-710z" />
    <glyph glyph-name="degree" unicode="&#xb0;" horiz-adv-x="1044" 
d="M333.5 816q-83.5 47 -131 130.5t-47.5 187.5t47.5 187t131 130t188.5 47t188.5 -47t131 -130t47.5 -187t-47.5 -187.5t-131 -130.5t-188.5 -47t-188.5 47zM638 933q51 28 79.5 80t28.5 121t-29 120.5t-79.5 79.5t-115.5 28t-116 -28t-79.5 -79.5t-28.5 -120.5t28.5 -121
t79.5 -80t116 -28t116 28z" />
    <glyph glyph-name="plusminus" unicode="&#xb1;" horiz-adv-x="1142" 
d="M481 353v315h-321v171h321v315h180v-315h321v-171h-321v-315h-180zM160 0v171h822v-171h-822z" />
    <glyph glyph-name="uni00B2" unicode="&#xb2;" horiz-adv-x="881" 
d="M810 8v-144h-725v93l335 359q83 89 116.5 146.5t33.5 111.5q0 82 -55.5 121.5t-174.5 39.5q-71 0 -140 -12t-127 -32v146q57 19 131.5 29.5t155.5 10.5q196 0 293 -70t97 -213q0 -83 -41.5 -159.5t-140.5 -181.5l-233 -245h475z" />
    <glyph glyph-name="uni00B3" unicode="&#xb3;" horiz-adv-x="881" 
d="M740 302q57 -61 57 -159q0 -139 -106 -215.5t-326 -76.5q-162 0 -298 40v135q70 -21 145.5 -32t144.5 -11q270 0 270 171q0 78 -57.5 117.5t-180.5 39.5h-184v131h123q258 0 258 156q0 70 -57.5 109t-170.5 39q-65 0 -134 -10.5t-130 -31.5v135q57 17 132.5 27.5
t147.5 10.5q190 0 288 -69.5t98 -197.5q0 -82 -49 -141t-133 -85q105 -21 162 -82z" />
    <glyph glyph-name="acute" unicode="&#xb4;" horiz-adv-x="1200" 
d="M492 1247l265 369h248l-297 -369h-216z" />
    <glyph glyph-name="uni00B5" unicode="&#xb5;" horiz-adv-x="1319" 
d="M1154 1088v-1088h-184l-14 116h-11q-70 -65 -158.5 -99.5t-184.5 -34.5q-143 0 -229 70v-492h-222v1527h222v-658q0 -137 62.5 -197t178.5 -60q87 0 171.5 33.5t146.5 98.5v784h222z" />
    <glyph glyph-name="paragraph" unicode="&#xb6;" horiz-adv-x="1397" 
d="M746 477q-80 -10 -151 -10q-255 0 -377.5 131t-122.5 386q0 263 123.5 387.5t370.5 124.5q165 0 323 -16v-1480h-166v477zM1049 0v1480h166v-1480h-166z" />
    <glyph glyph-name="periodcentered" unicode="&#xb7;" horiz-adv-x="547" 
d="M163.5 458q-40.5 37 -40.5 101q0 63 40 100.5t110 37.5q71 0 111 -37.5t40 -100.5t-41 -100.5t-110 -37.5t-109.5 37z" />
    <glyph glyph-name="cedilla" unicode="&#xb8;" horiz-adv-x="1200" 
d="M792 -148q44 -42 44 -112q0 -78 -60 -120.5t-170 -42.5q-52 0 -103 9.5t-89 27.5v94q42 -20 90.5 -29.5t93.5 -9.5q58 0 87 19t29 61q0 41 -29 60t-88 19h-47v192h113v-116q85 -10 129 -52z" />
    <glyph glyph-name="uni00B9" unicode="&#xb9;" horiz-adv-x="881" 
d="M579 8h244v-144h-684v144h258v658l-258 -173v162l317 213h123v-860z" />
    <glyph glyph-name="ordmasculine" unicode="&#xba;" horiz-adv-x="1113" 
d="M304 646q-106 52 -163.5 154t-57.5 248q0 145 57.5 245.5t163.5 151.5t252 51t252.5 -51t164 -151.5t57.5 -245.5q0 -146 -57.5 -248t-164 -154t-252.5 -52t-252 52zM753 828q70 72 70 220q0 147 -70 217t-197 70q-126 0 -195.5 -70t-69.5 -217q0 -148 70 -220t195 -72
q127 0 197 72z" />
    <glyph glyph-name="guillemotright" unicode="&#xbb;" horiz-adv-x="1251" 
d="M77 136l314 428l-314 428h236l314 -428l-314 -428h-236zM584 136l314 428l-314 428h236l314 -428l-314 -428h-236z" />
    <glyph glyph-name="onequarter" unicode="&#xbc;" horiz-adv-x="2123" 
d="M579 760h244v-144h-684v144h258v658l-258 -173v162l317 213h123v-860zM532 -136l870 1752h189l-871 -1752h-188zM2101 222v-141h-146v-217h-163v217h-523v97l376 686h170l-351 -642h328l27 304h136v-304h146z" />
    <glyph glyph-name="onehalf" unicode="&#xbd;" horiz-adv-x="2123" 
d="M579 760h244v-144h-684v144h258v658l-258 -173v162l317 213h123v-860zM532 -136l870 1752h189l-871 -1752h-188zM2052 8v-144h-725v93l335 359q83 89 116.5 146.5t33.5 111.5q0 82 -55.5 121.5t-174.5 39.5q-71 0 -140 -12t-127 -32v146q57 19 131.5 29.5t155.5 10.5
q196 0 293 -70t97 -213q0 -83 -41.5 -159.5t-140.5 -181.5l-233 -245h475z" />
    <glyph glyph-name="threequarters" unicode="&#xbe;" horiz-adv-x="2123" 
d="M740 1054q57 -61 57 -159q0 -139 -106 -215.5t-326 -76.5q-162 0 -298 40v135q70 -21 145.5 -32t144.5 -11q270 0 270 171q0 78 -57.5 117.5t-180.5 39.5h-184v131h123q258 0 258 156q0 70 -57.5 109t-170.5 39q-65 0 -134 -10.5t-130 -31.5v135q57 17 132.5 27.5
t147.5 10.5q190 0 288 -69.5t98 -197.5q0 -82 -49 -141t-133 -85q105 -21 162 -82zM532 -136l870 1752h189l-871 -1752h-188zM2101 222v-141h-146v-217h-163v217h-523v97l376 686h170l-351 -642h328l27 304h136v-304h146z" />
    <glyph glyph-name="questiondown" unicode="&#xbf;" horiz-adv-x="1040" 
d="M670.5 1066.5q40.5 -35.5 40.5 -94.5q0 -60 -40.5 -95.5t-110.5 -35.5t-110.5 36t-40.5 95q0 58 40.5 94t110.5 36t110.5 -35.5zM668 304q-145 -35 -229.5 -78.5t-120 -98t-35.5 -128.5q0 -105 86 -164t251 -59q93 0 189 14.5t185 43.5v-178q-84 -26 -188 -41t-206 -15
q-173 0 -293 46t-181 132.5t-61 207.5q0 108 43 188.5t133 140t234 104.5l17 279h137z" />
    <glyph glyph-name="Agrave" unicode="&#xc0;" horiz-adv-x="1566" 
d="M1303 0l-176 453h-691l-176 -453h-224l587 1480h320l587 -1480h-227zM505 629h553l-276 710zM679 1604l-250 289h243l215 -289h-208z" />
    <glyph glyph-name="Aacute" unicode="&#xc1;" horiz-adv-x="1566" 
d="M1303 0l-176 453h-691l-176 -453h-224l587 1480h320l587 -1480h-227zM505 629h553l-276 710zM678 1604l215 289h242l-250 -289h-207z" />
    <glyph glyph-name="Acircumflex" unicode="&#xc2;" horiz-adv-x="1566" 
d="M1303 0l-176 453h-691l-176 -453h-224l587 1480h320l587 -1480h-227zM505 629h553l-276 710zM1184 1604h-198l-203 199l-203 -199h-198l303 289h196z" />
    <glyph glyph-name="Atilde" unicode="&#xc3;" horiz-adv-x="1566" 
d="M1303 0l-176 453h-691l-176 -453h-224l587 1480h320l587 -1480h-227zM505 629h553l-276 710zM868 1664q-42 10 -101 29q-53 18 -89 26.5t-74 8.5q-61 0 -107.5 -16.5t-91.5 -51.5v132q38 34 87 50t116 16q48 0 90 -10t101 -29q53 -18 89 -26.5t74 -8.5q61 0 107.5 16
t91.5 52v-132q-38 -34 -86.5 -50t-116.5 -16q-48 0 -90 10z" />
    <glyph glyph-name="Adieresis" unicode="&#xc4;" horiz-adv-x="1566" 
d="M1303 0l-176 453h-691l-176 -453h-224l587 1480h320l587 -1480h-227zM505 629h553l-276 710zM414.5 1671.5q-32.5 28.5 -32.5 79.5t32.5 80t94.5 29t94.5 -29t32.5 -80t-32.5 -79.5t-94.5 -28.5t-94.5 28.5zM962.5 1671.5q-32.5 28.5 -32.5 79.5t32.5 80t94.5 29
t94.5 -29t32.5 -80t-32.5 -79.5t-94.5 -28.5t-94.5 28.5z" />
    <glyph glyph-name="Aring" unicode="&#xc5;" horiz-adv-x="1566" 
d="M1303 0l-176 453h-691l-176 -453h-224l587 1480h320l587 -1480h-227zM505 629h553l-276 710zM680 1621.5q-46 25.5 -72 70.5t-26 102q0 56 26 101.5t72 71t103 25.5t103 -25.5t72 -71t26 -101.5q0 -57 -26 -102t-72 -70.5t-103 -25.5t-103 25.5zM862.5 1711.5
q30.5 30.5 30.5 82.5q0 51 -30.5 81.5t-79.5 30.5t-79.5 -30.5t-30.5 -81.5q0 -52 30.5 -82.5t79.5 -30.5t79.5 30.5z" />
    <glyph glyph-name="AE" unicode="&#xc6;" horiz-adv-x="2127" 
d="M1269 176h758v-176h-971l-38 453h-579l-179 -453h-224l593 1480h1388v-176h-850l41 -457h707v-177h-691zM508 629h495l-57 675h-171z" />
    <glyph glyph-name="Ccedilla" unicode="&#xc7;" horiz-adv-x="1356" 
d="M501.5 1173q-146.5 -138 -146.5 -432q0 -302 144.5 -437t424.5 -135q98 0 187 13t184 43v-188q-179 -56 -384 -56q-31 0 -46 1v-78q94 -7 143.5 -49t49.5 -113q0 -80 -65 -122.5t-185 -42.5q-116 0 -212 37v94q102 -39 204 -39q68 0 102.5 19t34.5 60q0 42 -34.5 61
t-103.5 19h-47v162q-307 35 -471 218t-164 529q0 251 95 421.5t276 255.5t438 85q101 0 190 -11t179 -35v-187q-172 45 -355 45q-292 0 -438.5 -138z" />
    <glyph glyph-name="Egrave" unicode="&#xc8;" horiz-adv-x="1367" 
d="M407 176h861v-176h-1085v1480h1075v-176h-851v-457h748v-177h-748v-494zM638 1604l-250 289h243l215 -289h-208z" />
    <glyph glyph-name="Eacute" unicode="&#xc9;" horiz-adv-x="1367" 
d="M407 176h861v-176h-1085v1480h1075v-176h-851v-457h748v-177h-748v-494zM637 1604l215 289h242l-250 -289h-207z" />
    <glyph glyph-name="Ecircumflex" unicode="&#xca;" horiz-adv-x="1367" 
d="M407 176h861v-176h-1085v1480h1075v-176h-851v-457h748v-177h-748v-494zM1143 1604h-198l-203 199l-203 -199h-198l303 289h196z" />
    <glyph glyph-name="Edieresis" unicode="&#xcb;" horiz-adv-x="1367" 
d="M407 176h861v-176h-1085v1480h1075v-176h-851v-457h748v-177h-748v-494zM373.5 1671.5q-32.5 28.5 -32.5 79.5t32.5 80t94.5 29t94.5 -29t32.5 -80t-32.5 -79.5t-94.5 -28.5t-94.5 28.5zM921.5 1671.5q-32.5 28.5 -32.5 79.5t32.5 80t94.5 29t94.5 -29t32.5 -80
t-32.5 -79.5t-94.5 -28.5t-94.5 28.5z" />
    <glyph glyph-name="Igrave" unicode="&#xcc;" horiz-adv-x="592" 
d="M183 0v1480h226v-1480h-226zM192 1604l-250 289h243l215 -289h-208z" />
    <glyph glyph-name="Iacute" unicode="&#xcd;" horiz-adv-x="592" 
d="M183 0v1480h226v-1480h-226zM191 1604l215 289h242l-250 -289h-207z" />
    <glyph glyph-name="Icircumflex" unicode="&#xce;" horiz-adv-x="592" 
d="M183 0v1480h226v-1480h-226zM697 1604h-198l-203 199l-203 -199h-198l303 289h196z" />
    <glyph glyph-name="Idieresis" unicode="&#xcf;" horiz-adv-x="592" 
d="M183 0v1480h226v-1480h-226zM-72.5 1671.5q-32.5 28.5 -32.5 79.5t32.5 80t94.5 29t94.5 -29t32.5 -80t-32.5 -79.5t-94.5 -28.5t-94.5 28.5zM475.5 1671.5q-32.5 28.5 -32.5 79.5t32.5 80t94.5 29t94.5 -29t32.5 -80t-32.5 -79.5t-94.5 -28.5t-94.5 28.5z" />
    <glyph glyph-name="Eth" unicode="&#xd0;" horiz-adv-x="1635" 
d="M1302.5 1306q215.5 -188 215.5 -566q0 -385 -224 -568.5t-680 -183.5q-220 0 -431 27v674h-174v146h174v610q105 23 234.5 36t246.5 13q423 0 638.5 -188zM1134 311q152 138 152 431q0 290 -153 429.5t-464 139.5q-114 0 -260 -23v-453h369v-146h-369v-501
q106 -15 256 -15q317 0 469 138z" />
    <glyph glyph-name="Ntilde" unicode="&#xd1;" horiz-adv-x="1683" 
d="M1286 1480h214v-1480h-230l-873 1168v-1168h-214v1480h230l873 -1168v1168zM927 1664q-42 10 -101 29q-53 18 -89 26.5t-74 8.5q-61 0 -107.5 -16.5t-91.5 -51.5v132q38 34 87 50t116 16q48 0 90 -10t101 -29q53 -18 89 -26.5t74 -8.5q61 0 107.5 16t91.5 52v-132
q-38 -34 -86.5 -50t-116.5 -16q-48 0 -90 10z" />
    <glyph glyph-name="Ograve" unicode="&#xd2;" horiz-adv-x="1696" 
d="M460.5 66q-164.5 85 -254 255t-89.5 419t90.5 419t254.5 255t386 85q224 0 388 -85t253.5 -255.5t89.5 -418.5t-90.5 -418t-254.5 -255.5t-386 -85.5q-223 0 -387.5 85zM1216 305.5q131 139.5 131 428.5q0 296 -131.5 438t-367.5 142q-235 0 -367 -139.5t-132 -428.5
q0 -298 131 -439t368 -141t368 139.5zM744 1604l-250 289h243l215 -289h-208z" />
    <glyph glyph-name="Oacute" unicode="&#xd3;" horiz-adv-x="1696" 
d="M460.5 66q-164.5 85 -254 255t-89.5 419t90.5 419t254.5 255t386 85q224 0 388 -85t253.5 -255.5t89.5 -418.5t-90.5 -418t-254.5 -255.5t-386 -85.5q-223 0 -387.5 85zM1216 305.5q131 139.5 131 428.5q0 296 -131.5 438t-367.5 142q-235 0 -367 -139.5t-132 -428.5
q0 -298 131 -439t368 -141t368 139.5zM743 1604l215 289h242l-250 -289h-207z" />
    <glyph glyph-name="Ocircumflex" unicode="&#xd4;" horiz-adv-x="1696" 
d="M460.5 66q-164.5 85 -254 255t-89.5 419t90.5 419t254.5 255t386 85q224 0 388 -85t253.5 -255.5t89.5 -418.5t-90.5 -418t-254.5 -255.5t-386 -85.5q-223 0 -387.5 85zM1216 305.5q131 139.5 131 428.5q0 296 -131.5 438t-367.5 142q-235 0 -367 -139.5t-132 -428.5
q0 -298 131 -439t368 -141t368 139.5zM1249 1604h-198l-203 199l-203 -199h-198l303 289h196z" />
    <glyph glyph-name="Otilde" unicode="&#xd5;" horiz-adv-x="1696" 
d="M460.5 66q-164.5 85 -254 255t-89.5 419t90.5 419t254.5 255t386 85q224 0 388 -85t253.5 -255.5t89.5 -418.5t-90.5 -418t-254.5 -255.5t-386 -85.5q-223 0 -387.5 85zM1216 305.5q131 139.5 131 428.5q0 296 -131.5 438t-367.5 142q-235 0 -367 -139.5t-132 -428.5
q0 -298 131 -439t368 -141t368 139.5zM933 1664q-42 10 -101 29q-53 18 -89 26.5t-74 8.5q-61 0 -107.5 -16.5t-91.5 -51.5v132q38 34 87 50t116 16q48 0 90 -10t101 -29q53 -18 89 -26.5t74 -8.5q61 0 107.5 16t91.5 52v-132q-38 -34 -86.5 -50t-116.5 -16q-48 0 -90 10z
" />
    <glyph glyph-name="Odieresis" unicode="&#xd6;" horiz-adv-x="1696" 
d="M460.5 66q-164.5 85 -254 255t-89.5 419t90.5 419t254.5 255t386 85q224 0 388 -85t253.5 -255.5t89.5 -418.5t-90.5 -418t-254.5 -255.5t-386 -85.5q-223 0 -387.5 85zM1216 305.5q131 139.5 131 428.5q0 296 -131.5 438t-367.5 142q-235 0 -367 -139.5t-132 -428.5
q0 -298 131 -439t368 -141t368 139.5zM479.5 1671.5q-32.5 28.5 -32.5 79.5t32.5 80t94.5 29t94.5 -29t32.5 -80t-32.5 -79.5t-94.5 -28.5t-94.5 28.5zM1027.5 1671.5q-32.5 28.5 -32.5 79.5t32.5 80t94.5 29t94.5 -29t32.5 -80t-32.5 -79.5t-94.5 -28.5t-94.5 28.5z" />
    <glyph glyph-name="multiply" unicode="&#xd7;" horiz-adv-x="1052" 
d="M241 354l-121 121l286 285l-286 285l121 121l285 -286l286 286l120 -121l-286 -285l286 -285l-120 -121l-286 286z" />
    <glyph glyph-name="Oslash" unicode="&#xd8;" horiz-adv-x="1696" 
d="M1535 1048.5q44 -135.5 44 -308.5q0 -248 -90.5 -418t-254.5 -255.5t-386 -85.5q-284 0 -466 133l-130 -148l-95 84l132 150q-172 197 -172 540q0 249 90.5 419t254.5 255t386 85q139 0 257 -34t208 -100l131 149l95 -84l-132 -150q84 -96 128 -231.5zM436 367l741 843
q-125 104 -329 104q-235 0 -367 -139.5t-132 -428.5q0 -238 87 -379zM1216 305.5q131 139.5 131 428.5q0 237 -87 378l-741 -843q122 -103 329 -103q237 0 368 139.5z" />
    <glyph glyph-name="Ugrave" unicode="&#xd9;" horiz-adv-x="1628" 
d="M330.5 137.5q-155.5 156.5 -155.5 478.5v864h227v-885q0 -223 101 -325t313 -102t313 102t101 325v885h222v-864q0 -322 -154.5 -478.5t-481.5 -156.5q-330 0 -485.5 156.5zM712 1604l-250 289h243l215 -289h-208z" />
    <glyph glyph-name="Uacute" unicode="&#xda;" horiz-adv-x="1628" 
d="M330.5 137.5q-155.5 156.5 -155.5 478.5v864h227v-885q0 -223 101 -325t313 -102t313 102t101 325v885h222v-864q0 -322 -154.5 -478.5t-481.5 -156.5q-330 0 -485.5 156.5zM711 1604l215 289h242l-250 -289h-207z" />
    <glyph glyph-name="Ucircumflex" unicode="&#xdb;" horiz-adv-x="1628" 
d="M330.5 137.5q-155.5 156.5 -155.5 478.5v864h227v-885q0 -223 101 -325t313 -102t313 102t101 325v885h222v-864q0 -322 -154.5 -478.5t-481.5 -156.5q-330 0 -485.5 156.5zM1217 1604h-198l-203 199l-203 -199h-198l303 289h196z" />
    <glyph glyph-name="Udieresis" unicode="&#xdc;" horiz-adv-x="1628" 
d="M330.5 137.5q-155.5 156.5 -155.5 478.5v864h227v-885q0 -223 101 -325t313 -102t313 102t101 325v885h222v-864q0 -322 -154.5 -478.5t-481.5 -156.5q-330 0 -485.5 156.5zM447.5 1671.5q-32.5 28.5 -32.5 79.5t32.5 80t94.5 29t94.5 -29t32.5 -80t-32.5 -79.5
t-94.5 -28.5t-94.5 28.5zM995.5 1671.5q-32.5 28.5 -32.5 79.5t32.5 80t94.5 29t94.5 -29t32.5 -80t-32.5 -79.5t-94.5 -28.5t-94.5 28.5z" />
    <glyph glyph-name="Yacute" unicode="&#xdd;" horiz-adv-x="1356" 
d="M1376 1480l-583 -832v-648h-227v647l-599 833h249l468 -650l459 650h233zM572 1604l215 289h242l-250 -289h-207z" />
    <glyph glyph-name="Thorn" unicode="&#xde;" horiz-adv-x="1407" 
d="M183 1481h226v-224q119 17 231 17q331 0 496.5 -124.5t165.5 -387.5q0 -255 -166.5 -385.5t-510.5 -130.5q-102 0 -216 9v-255h-226v1481zM887 450.5q100 37.5 146.5 114t46.5 196.5q0 180 -105 263t-321 83q-131 0 -245 -20v-661q103 -13 216 -13q162 0 262 37.5z" />
    <glyph glyph-name="germandbls" unicode="&#xdf;" horiz-adv-x="1639" 
d="M1482.5 513.5q77.5 -69.5 77.5 -202.5q0 -156 -129 -243.5t-383 -87.5q-92 0 -184 11t-173 34v161q172 -47 357 -47q161 0 229.5 40t68.5 119q0 42 -15 69.5t-51 46t-99 28.5l-193 30q-168 27 -242.5 101.5t-74.5 199.5q0 152 124 239t369 87q20 0 66 -2q4 32 4 69
q0 162 -97 238.5t-266 76.5q-199 0 -299 -101.5t-100 -314.5v-1065h-222v903h-217v185h217q7 267 164.5 407.5t441.5 140.5q163 0 284.5 -54.5t189.5 -166t68 -278.5q0 -95 -28 -202q-95 11 -172 11q-174 0 -244 -43t-70 -119q0 -56 36 -92t124 -52l193 -30
q168 -27 245.5 -96.5z" />
    <glyph glyph-name="agrave" unicode="&#xe0;" horiz-adv-x="1199" 
d="M832 1064.5q108 -40.5 162 -134.5t54 -256v-674h-186l-16 117h-12q-61 -64 -154 -99.5t-198 -35.5q-120 0 -205 37.5t-129 105.5t-44 160q0 145 108.5 224.5t345.5 100.5l272 27v52q0 96 -33 150t-99.5 76t-176.5 22q-76 0 -164.5 -13t-169.5 -39v166q80 26 177.5 40
t187.5 14q172 0 280 -40.5zM696 164.5q75 28.5 134 85.5v255l-255 -25q-133 -15 -190 -57.5t-57 -120.5q0 -79 53 -122.5t160 -43.5q80 0 155 28.5zM488 1247l-297 369h248l265 -369h-216z" />
    <glyph glyph-name="aacute" unicode="&#xe1;" horiz-adv-x="1199" 
d="M832 1064.5q108 -40.5 162 -134.5t54 -256v-674h-186l-16 117h-12q-61 -64 -154 -99.5t-198 -35.5q-120 0 -205 37.5t-129 105.5t-44 160q0 145 108.5 224.5t345.5 100.5l272 27v52q0 96 -33 150t-99.5 76t-176.5 22q-76 0 -164.5 -13t-169.5 -39v166q80 26 177.5 40
t187.5 14q172 0 280 -40.5zM696 164.5q75 28.5 134 85.5v255l-255 -25q-133 -15 -190 -57.5t-57 -120.5q0 -79 53 -122.5t160 -43.5q80 0 155 28.5zM488 1247l265 369h248l-297 -369h-216z" />
    <glyph glyph-name="acircumflex" unicode="&#xe2;" horiz-adv-x="1199" 
d="M832 1064.5q108 -40.5 162 -134.5t54 -256v-674h-186l-16 117h-12q-61 -64 -154 -99.5t-198 -35.5q-120 0 -205 37.5t-129 105.5t-44 160q0 145 108.5 224.5t345.5 100.5l272 27v52q0 96 -33 150t-99.5 76t-176.5 22q-76 0 -164.5 -13t-169.5 -39v166q80 26 177.5 40
t187.5 14q172 0 280 -40.5zM696 164.5q75 28.5 134 85.5v255l-255 -25q-133 -15 -190 -57.5t-57 -120.5q0 -79 53 -122.5t160 -43.5q80 0 155 28.5zM959 1247h-178l-185 258l-185 -258h-178l271 369h184z" />
    <glyph glyph-name="atilde" unicode="&#xe3;" horiz-adv-x="1199" 
d="M832 1064.5q108 -40.5 162 -134.5t54 -256v-674h-186l-16 117h-12q-61 -64 -154 -99.5t-198 -35.5q-120 0 -205 37.5t-129 105.5t-44 160q0 145 108.5 224.5t345.5 100.5l272 27v52q0 96 -33 150t-99.5 76t-176.5 22q-76 0 -164.5 -13t-169.5 -39v166q80 26 177.5 40
t187.5 14q172 0 280 -40.5zM696 164.5q75 28.5 134 85.5v255l-255 -25q-133 -15 -190 -57.5t-57 -120.5q0 -79 53 -122.5t160 -43.5q80 0 155 28.5zM675 1337.5q-39 11.5 -95 33.5q-50 20 -83.5 29.5t-66.5 9.5q-55 0 -100 -18.5t-89 -59.5v143q37 36 84.5 53t109.5 17
q43 0 82 -11.5t95 -33.5q50 -20 83.5 -29.5t66.5 -9.5q55 0 100 18.5t89 59.5v-143q-37 -36 -84.5 -53t-109.5 -17q-43 0 -82 11.5z" />
    <glyph glyph-name="adieresis" unicode="&#xe4;" horiz-adv-x="1199" 
d="M832 1064.5q108 -40.5 162 -134.5t54 -256v-674h-186l-16 117h-12q-61 -64 -154 -99.5t-198 -35.5q-120 0 -205 37.5t-129 105.5t-44 160q0 145 108.5 224.5t345.5 100.5l272 27v52q0 96 -33 150t-99.5 76t-176.5 22q-76 0 -164.5 -13t-169.5 -39v166q80 26 177.5 40
t187.5 14q172 0 280 -40.5zM696 164.5q75 28.5 134 85.5v255l-255 -25q-133 -15 -190 -57.5t-57 -120.5q0 -79 53 -122.5t160 -43.5q80 0 155 28.5zM242 1333q-33 31 -33 87t33 88t96 32t96 -32t33 -88t-33 -87t-96 -31t-96 31zM758 1333q-33 31 -33 87t33 88t96 32t96 -32
t33 -88t-33 -87t-96 -31t-96 31z" />
    <glyph glyph-name="aring" unicode="&#xe5;" horiz-adv-x="1199" 
d="M832 1064.5q108 -40.5 162 -134.5t54 -256v-674h-186l-16 117h-12q-61 -64 -154 -99.5t-198 -35.5q-120 0 -205 37.5t-129 105.5t-44 160q0 145 108.5 224.5t345.5 100.5l272 27v52q0 96 -33 150t-99.5 76t-176.5 22q-76 0 -164.5 -13t-169.5 -39v166q80 26 177.5 40
t187.5 14q172 0 280 -40.5zM696 164.5q75 28.5 134 85.5v255l-255 -25q-133 -15 -190 -57.5t-57 -120.5q0 -79 53 -122.5t160 -43.5q80 0 155 28.5zM493 1267.5q-46 25.5 -72 71t-26 101.5q0 57 26 102t72 70.5t103 25.5t103 -25.5t72 -70.5t26 -102q0 -56 -26 -101.5
t-72 -71t-103 -25.5t-103 25.5zM675.5 1358.5q30.5 30.5 30.5 81.5q0 52 -30.5 82.5t-79.5 30.5t-79.5 -30.5t-30.5 -82.5q0 -51 30.5 -81.5t79.5 -30.5t79.5 30.5z" />
    <glyph glyph-name="ae" unicode="&#xe6;" horiz-adv-x="1915" 
d="M1829 478h-780q6 -118 50.5 -190.5t133 -106.5t227.5 -34q141 0 308 43v-165q-174 -45 -339 -45q-348 0 -492 185q-188 -183 -438 -183q-127 0 -216 37.5t-134 106t-45 161.5q0 152 116 238.5t359 86.5h251v77q0 96 -33 150t-99.5 76t-176.5 22q-76 0 -164.5 -13
t-169.5 -39v166q81 26 174.5 40t182.5 14q162 0 265.5 -39.5t155.5 -130.5q64 83 161 126.5t221 43.5q154 0 262 -65.5t164 -192.5t56 -308v-61zM1126 873.5q-73 -84.5 -78 -261.5h572q-4 176 -75 261t-208 85q-138 0 -211 -84.5zM871 285q-32 86 -39 195h-241
q-140 0 -201.5 -47.5t-61.5 -129.5q0 -80 54 -123.5t161 -43.5q190 0 328 149z" />
    <glyph glyph-name="ccedilla" unicode="&#xe7;" horiz-adv-x="1045" 
d="M429.5 834q-98.5 -92 -98.5 -289q0 -198 93.5 -292t277.5 -94q64 0 131 11.5t155 36.5v-177q-142 -50 -308 -50h-7v-76q85 -10 129 -52t44 -112q0 -78 -60 -120.5t-170 -42.5q-52 0 -103 9.5t-89 27.5v94q42 -20 90.5 -29.5t93.5 -9.5q58 0 87 19t29 61q0 41 -29 60
t-88 19h-47v159q-223 29 -339.5 169t-116.5 386q0 279 155.5 421t454.5 142q149 0 274 -34v-177q-69 16 -129 24t-126 8q-205 0 -303.5 -92z" />
    <glyph glyph-name="egrave" unicode="&#xe8;" horiz-adv-x="1200" 
d="M1114 478h-789q6 -118 51 -190.5t135 -106.5t231 -34q140 0 310 43v-165q-177 -45 -341 -45q-304 0 -455.5 137.5t-151.5 424.5q0 180 61 306t176.5 191.5t278.5 65.5q240 0 367 -146.5t127 -422.5v-58zM403 873.5q-74 -84.5 -79 -261.5h581q-4 177 -76 261.5t-212 84.5
t-214 -84.5zM513 1247l-297 369h248l265 -369h-216z" />
    <glyph glyph-name="eacute" unicode="&#xe9;" horiz-adv-x="1200" 
d="M1114 478h-789q6 -118 51 -190.5t135 -106.5t231 -34q140 0 310 43v-165q-177 -45 -341 -45q-304 0 -455.5 137.5t-151.5 424.5q0 180 61 306t176.5 191.5t278.5 65.5q240 0 367 -146.5t127 -422.5v-58zM403 873.5q-74 -84.5 -79 -261.5h581q-4 177 -76 261.5t-212 84.5
t-214 -84.5zM513 1247l265 369h248l-297 -369h-216z" />
    <glyph glyph-name="ecircumflex" unicode="&#xea;" horiz-adv-x="1200" 
d="M1114 478h-789q6 -118 51 -190.5t135 -106.5t231 -34q140 0 310 43v-165q-177 -45 -341 -45q-304 0 -455.5 137.5t-151.5 424.5q0 180 61 306t176.5 191.5t278.5 65.5q240 0 367 -146.5t127 -422.5v-58zM403 873.5q-74 -84.5 -79 -261.5h581q-4 177 -76 261.5t-212 84.5
t-214 -84.5zM984 1247h-178l-185 258l-185 -258h-178l271 369h184z" />
    <glyph glyph-name="edieresis" unicode="&#xeb;" horiz-adv-x="1200" 
d="M1114 478h-789q6 -118 51 -190.5t135 -106.5t231 -34q140 0 310 43v-165q-177 -45 -341 -45q-304 0 -455.5 137.5t-151.5 424.5q0 180 61 306t176.5 191.5t278.5 65.5q240 0 367 -146.5t127 -422.5v-58zM403 873.5q-74 -84.5 -79 -261.5h581q-4 177 -76 261.5t-212 84.5
t-214 -84.5zM267 1333q-33 31 -33 87t33 88t96 32t96 -32t33 -88t-33 -87t-96 -31t-96 31zM783 1333q-33 31 -33 87t33 88t96 32t96 -32t33 -88t-33 -87t-96 -31t-96 31z" />
    <glyph glyph-name="igrave" unicode="&#xec;" horiz-adv-x="552" 
d="M165 0v1088h222v-1088h-222zM168 1247l-297 369h248l265 -369h-216z" />
    <glyph glyph-name="iacute" unicode="&#xed;" horiz-adv-x="552" 
d="M165 0v1088h222v-1088h-222zM168 1247l265 369h248l-297 -369h-216z" />
    <glyph glyph-name="icircumflex" unicode="&#xee;" horiz-adv-x="552" 
d="M165 0v1088h222v-1088h-222zM639 1247h-178l-185 258l-185 -258h-178l271 369h184z" />
    <glyph glyph-name="idieresis" unicode="&#xef;" horiz-adv-x="552" 
d="M165 0v1088h222v-1088h-222zM-78 1333q-33 31 -33 87t33 88t96 32t96 -32t33 -88t-33 -87t-96 -31t-96 31zM438 1333q-33 31 -33 87t33 88t96 32t96 -32t33 -88t-33 -87t-96 -31t-96 31z" />
    <glyph glyph-name="eth" unicode="&#xf0;" horiz-adv-x="1305" 
d="M1133 961.5q69 -185.5 69 -367.5q0 -204 -66.5 -341t-189 -205t-292.5 -68q-169 0 -292.5 63t-190.5 189.5t-67 311.5q0 183 66 307.5t184.5 186t277.5 61.5q141 0 238 -58q-61 126 -149 235l-496 -77l-22 131l411 64q-124 123 -279 222h287q113 -75 219 -186l310 48
l21 -132l-230 -36q122 -163 191 -348.5zM894.5 251q84.5 95 84.5 292q0 201 -84 294t-242 93q-159 0 -243 -92.5t-84 -292.5q0 -202 84.5 -295.5t243.5 -93.5q156 0 240.5 95z" />
    <glyph glyph-name="ntilde" unicode="&#xf1;" horiz-adv-x="1329" 
d="M165 1088h184l14 -119h13q77 65 177 100.5t209 35.5q195 0 305.5 -107t110.5 -334v-664h-222v655q0 139 -63 199.5t-185 60.5q-87 0 -172.5 -32.5t-148.5 -98.5v-784h-222v1088zM751 1337.5q-39 11.5 -95 33.5q-50 20 -83.5 29.5t-66.5 9.5q-55 0 -100 -18.5t-89 -59.5
v143q37 36 84.5 53t109.5 17q43 0 82 -11.5t95 -33.5q50 -20 83.5 -29.5t66.5 -9.5q55 0 100 18.5t89 59.5v-143q-37 -36 -84.5 -53t-109.5 -17q-43 0 -82 11.5z" />
    <glyph glyph-name="ograve" unicode="&#xf2;" horiz-adv-x="1305" 
d="M362.5 43q-123.5 63 -191 189t-67.5 312q0 184 66.5 309.5t189.5 188.5t293 63q260 0 404 -141.5t144 -419.5q0 -183 -68 -309.5t-191.5 -190.5t-288.5 -64q-167 0 -290.5 63zM979 543q0 201 -84 293.5t-242 92.5t-242.5 -92t-84.5 -292q0 -389 327 -389q326 0 326 387z
M545 1247l-297 369h248l265 -369h-216z" />
    <glyph glyph-name="oacute" unicode="&#xf3;" horiz-adv-x="1305" 
d="M362.5 43q-123.5 63 -191 189t-67.5 312q0 184 66.5 309.5t189.5 188.5t293 63q260 0 404 -141.5t144 -419.5q0 -183 -68 -309.5t-191.5 -190.5t-288.5 -64q-167 0 -290.5 63zM979 543q0 201 -84 293.5t-242 92.5t-242.5 -92t-84.5 -292q0 -389 327 -389q326 0 326 387z
M545 1247l265 369h248l-297 -369h-216z" />
    <glyph glyph-name="ocircumflex" unicode="&#xf4;" horiz-adv-x="1305" 
d="M362.5 43q-123.5 63 -191 189t-67.5 312q0 184 66.5 309.5t189.5 188.5t293 63q260 0 404 -141.5t144 -419.5q0 -183 -68 -309.5t-191.5 -190.5t-288.5 -64q-167 0 -290.5 63zM979 543q0 201 -84 293.5t-242 92.5t-242.5 -92t-84.5 -292q0 -389 327 -389q326 0 326 387z
M1016 1247h-178l-185 258l-185 -258h-178l271 369h184z" />
    <glyph glyph-name="otilde" unicode="&#xf5;" horiz-adv-x="1305" 
d="M362.5 43q-123.5 63 -191 189t-67.5 312q0 184 66.5 309.5t189.5 188.5t293 63q260 0 404 -141.5t144 -419.5q0 -183 -68 -309.5t-191.5 -190.5t-288.5 -64q-167 0 -290.5 63zM979 543q0 201 -84 293.5t-242 92.5t-242.5 -92t-84.5 -292q0 -389 327 -389q326 0 326 387z
M732 1337.5q-39 11.5 -95 33.5q-50 20 -83.5 29.5t-66.5 9.5q-55 0 -100 -18.5t-89 -59.5v143q37 36 84.5 53t109.5 17q43 0 82 -11.5t95 -33.5q50 -20 83.5 -29.5t66.5 -9.5q55 0 100 18.5t89 59.5v-143q-37 -36 -84.5 -53t-109.5 -17q-43 0 -82 11.5z" />
    <glyph glyph-name="odieresis" unicode="&#xf6;" horiz-adv-x="1305" 
d="M362.5 43q-123.5 63 -191 189t-67.5 312q0 184 66.5 309.5t189.5 188.5t293 63q260 0 404 -141.5t144 -419.5q0 -183 -68 -309.5t-191.5 -190.5t-288.5 -64q-167 0 -290.5 63zM979 543q0 201 -84 293.5t-242 92.5t-242.5 -92t-84.5 -292q0 -389 327 -389q326 0 326 387z
M299 1333q-33 31 -33 87t33 88t96 32t96 -32t33 -88t-33 -87t-96 -31t-96 31zM815 1333q-33 31 -33 87t33 88t96 32t96 -32t33 -88t-33 -87t-96 -31t-96 31z" />
    <glyph glyph-name="divide" unicode="&#xf7;" horiz-adv-x="1142" 
d="M467.5 1048.5q-38.5 34.5 -38.5 94.5t38 95.5t104 35.5t104 -35.5t38 -95.5q0 -59 -38.5 -94t-103.5 -35t-103.5 34.5zM160 674v172h822v-172h-822zM467.5 281q-38.5 35 -38.5 95t38 95t104 35t104 -35.5t38 -94.5t-38.5 -94.5t-103.5 -35.5t-103.5 35z" />
    <glyph glyph-name="oslash" unicode="&#xf8;" horiz-adv-x="1305" 
d="M1201 544q0 -183 -68 -309.5t-191.5 -190.5t-288.5 -64q-184 0 -311 74l-78 -99l-91 75l76 96q-145 145 -145 418q0 184 66.5 309.5t189.5 188.5t293 63q185 0 311 -71l78 99l91 -75l-75 -95q143 -145 143 -419zM408.5 838q-84.5 -92 -84.5 -293q0 -165 58 -260l467 595
q-76 50 -196 50q-160 0 -244.5 -92zM981 543q0 166 -58 259l-467 -595q75 -52 197 -52q328 0 328 388z" />
    <glyph glyph-name="ugrave" unicode="&#xf9;" horiz-adv-x="1319" 
d="M262 87.5q-111 105.5 -111 329.5v671h222v-659q0 -137 62.5 -197t178.5 -60q87 0 171.5 33.5t146.5 98.5v784h222v-1088h-184l-14 116h-11q-77 -65 -174 -99.5t-202 -34.5q-196 0 -307 105.5zM544 1247l-297 369h248l265 -369h-216z" />
    <glyph glyph-name="uacute" unicode="&#xfa;" horiz-adv-x="1319" 
d="M262 87.5q-111 105.5 -111 329.5v671h222v-659q0 -137 62.5 -197t178.5 -60q87 0 171.5 33.5t146.5 98.5v784h222v-1088h-184l-14 116h-11q-77 -65 -174 -99.5t-202 -34.5q-196 0 -307 105.5zM544 1247l265 369h248l-297 -369h-216z" />
    <glyph glyph-name="ucircumflex" unicode="&#xfb;" horiz-adv-x="1319" 
d="M262 87.5q-111 105.5 -111 329.5v671h222v-659q0 -137 62.5 -197t178.5 -60q87 0 171.5 33.5t146.5 98.5v784h222v-1088h-184l-14 116h-11q-77 -65 -174 -99.5t-202 -34.5q-196 0 -307 105.5zM1015 1247h-178l-185 258l-185 -258h-178l271 369h184z" />
    <glyph glyph-name="udieresis" unicode="&#xfc;" horiz-adv-x="1319" 
d="M262 87.5q-111 105.5 -111 329.5v671h222v-659q0 -137 62.5 -197t178.5 -60q87 0 171.5 33.5t146.5 98.5v784h222v-1088h-184l-14 116h-11q-77 -65 -174 -99.5t-202 -34.5q-196 0 -307 105.5zM298 1333q-33 31 -33 87t33 88t96 32t96 -32t33 -88t-33 -87t-96 -31t-96 31z
M814 1333q-33 31 -33 87t33 88t96 32t96 -32t33 -88t-33 -87t-96 -31t-96 31z" />
    <glyph glyph-name="yacute" unicode="&#xfd;" horiz-adv-x="1246" 
d="M1009 1088h219l-659 -1528h-220l191 440h-54l-468 1088h236l374 -909zM516 1247l265 369h248l-297 -369h-216z" />
    <glyph glyph-name="thorn" unicode="&#xfe;" horiz-adv-x="1330" 
d="M165 1616h222v-645h11q65 65 153.5 99.5t194.5 34.5q138 0 246 -57.5t171 -178.5t63 -304q0 -286 -158 -435.5t-457 -149.5q-98 0 -224 18v-438h-222v2056zM904.5 251q99.5 97 99.5 298q0 197 -86.5 285.5t-238.5 88.5q-84 0 -160.5 -31t-131.5 -96v-618q93 -24 213 -24
q205 0 304.5 97z" />
    <glyph glyph-name="ydieresis" unicode="&#xff;" horiz-adv-x="1246" 
d="M1009 1088h219l-659 -1528h-220l191 440h-54l-468 1088h236l374 -909zM270 1333q-33 31 -33 87t33 88t96 32t96 -32t33 -88t-33 -87t-96 -31t-96 31zM786 1333q-33 31 -33 87t33 88t96 32t96 -32t33 -88t-33 -87t-96 -31t-96 31z" />
    <glyph glyph-name="Amacron" unicode="&#x100;" horiz-adv-x="1566" 
d="M1303 0l-176 453h-691l-176 -453h-224l587 1480h320l587 -1480h-227zM505 629h553l-276 710zM427 1682v134h712v-134h-712z" />
    <glyph glyph-name="amacron" unicode="&#x101;" horiz-adv-x="1199" 
d="M832 1064.5q108 -40.5 162 -134.5t54 -256v-674h-186l-16 117h-12q-61 -64 -154 -99.5t-198 -35.5q-120 0 -205 37.5t-129 105.5t-44 160q0 145 108.5 224.5t345.5 100.5l272 27v52q0 96 -33 150t-99.5 76t-176.5 22q-76 0 -164.5 -13t-169.5 -39v166q80 26 177.5 40
t187.5 14q172 0 280 -40.5zM696 164.5q75 28.5 134 85.5v255l-255 -25q-133 -15 -190 -57.5t-57 -120.5q0 -79 53 -122.5t160 -43.5q80 0 155 28.5zM241 1355v134h710v-134h-710z" />
    <glyph glyph-name="Abreve" unicode="&#x102;" horiz-adv-x="1566" 
d="M1303 0l-176 453h-691l-176 -453h-224l587 1480h320l587 -1480h-227zM505 629h553l-276 710zM510 1685q-96 73 -112 191h143q15 -70 72 -108.5t171 -38.5t170 38.5t71 108.5h143q-16 -119 -110.5 -191.5t-273.5 -72.5q-178 0 -274 73z" />
    <glyph glyph-name="abreve" unicode="&#x103;" horiz-adv-x="1199" 
d="M832 1064.5q108 -40.5 162 -134.5t54 -256v-674h-186l-16 117h-12q-61 -64 -154 -99.5t-198 -35.5q-120 0 -205 37.5t-129 105.5t-44 160q0 145 108.5 224.5t345.5 100.5l272 27v52q0 96 -33 150t-99.5 76t-176.5 22q-76 0 -164.5 -13t-169.5 -39v166q80 26 177.5 40
t187.5 14q172 0 280 -40.5zM696 164.5q75 28.5 134 85.5v255l-255 -25q-133 -15 -190 -57.5t-57 -120.5q0 -79 53 -122.5t160 -43.5q80 0 155 28.5zM404 1297.5q-80 41.5 -123 117t-48 176.5h141q18 -215 223 -215q203 0 221 215h141q-8 -155 -101 -245t-261 -90
q-113 0 -193 41.5z" />
    <glyph glyph-name="Aogonek" unicode="&#x104;" horiz-adv-x="1566" 
d="M1535 -319q39 8 93 27v-95q-95 -36 -194 -36q-129 0 -196.5 50.5t-67.5 140.5q0 68 38 126t125 106h-30l-176 453h-691l-176 -453h-224l587 1480h320l587 -1480q-125 -52 -175.5 -103t-50.5 -113q0 -53 39 -82t116 -29q37 0 76 8zM505 629h553l-276 710z" />
    <glyph glyph-name="aogonek" unicode="&#x105;" horiz-adv-x="1199" 
d="M1128 -290v-96q-82 -37 -176 -37q-117 0 -180.5 51.5t-63.5 139.5q0 143 154 233l-16 116h-12q-61 -64 -154 -99.5t-198 -35.5q-120 0 -205 37.5t-129 105.5t-44 160q0 145 108.5 224.5t345.5 100.5l272 27v52q0 96 -33 150t-99.5 76t-176.5 22q-76 0 -164.5 -13
t-169.5 -39v166q80 26 177.5 40t187.5 14q172 0 280 -40.5t162 -134.5t54 -256v-674q-112 -51 -159 -102t-47 -115q0 -51 35.5 -80.5t99.5 -29.5q74 0 151 37zM696 164.5q75 28.5 134 85.5v255l-255 -25q-133 -15 -190 -57.5t-57 -120.5q0 -79 53 -122.5t160 -43.5
q80 0 155 28.5z" />
    <glyph glyph-name="Cacute" unicode="&#x106;" horiz-adv-x="1356" 
d="M323.5 164.5q-206.5 183.5 -206.5 572.5q0 251 95 421.5t276 255.5t438 85q101 0 190 -11t179 -35v-187q-172 45 -355 45q-292 0 -438.5 -138t-146.5 -432q0 -302 144.5 -437t424.5 -135q98 0 187 13t184 43v-188q-179 -56 -384 -56q-381 0 -587.5 183.5zM702 1604
l215 289h242l-250 -289h-207z" />
    <glyph glyph-name="cacute" unicode="&#x107;" horiz-adv-x="1045" 
d="M251.5 122q-147.5 142 -147.5 420q0 279 155.5 421t454.5 142q149 0 274 -34v-177q-69 16 -129 24t-126 8q-205 0 -303.5 -92t-98.5 -289q0 -198 93.5 -292t277.5 -94q64 0 131 11.5t155 36.5v-177q-142 -50 -308 -50q-281 0 -428.5 142zM495 1247l265 369h248l-297 -369
h-216z" />
    <glyph glyph-name="Ccircumflex" unicode="&#x108;" horiz-adv-x="1356" 
d="M323.5 164.5q-206.5 183.5 -206.5 572.5q0 251 95 421.5t276 255.5t438 85q101 0 190 -11t179 -35v-187q-172 45 -355 45q-292 0 -438.5 -138t-146.5 -432q0 -302 144.5 -437t424.5 -135q98 0 187 13t184 43v-188q-179 -56 -384 -56q-381 0 -587.5 183.5zM1208 1604h-198
l-203 199l-203 -199h-198l303 289h196z" />
    <glyph glyph-name="ccircumflex" unicode="&#x109;" horiz-adv-x="1045" 
d="M251.5 122q-147.5 142 -147.5 420q0 279 155.5 421t454.5 142q149 0 274 -34v-177q-69 16 -129 24t-126 8q-205 0 -303.5 -92t-98.5 -289q0 -198 93.5 -292t277.5 -94q64 0 131 11.5t155 36.5v-177q-142 -50 -308 -50q-281 0 -428.5 142zM966 1247h-178l-185 258
l-185 -258h-178l271 369h184z" />
    <glyph glyph-name="Cdotaccent" unicode="&#x10a;" horiz-adv-x="1356" 
d="M323.5 164.5q-206.5 183.5 -206.5 572.5q0 251 95 421.5t276 255.5t438 85q101 0 190 -11t179 -35v-187q-172 45 -355 45q-292 0 -438.5 -138t-146.5 -432q0 -302 144.5 -437t424.5 -135q98 0 187 13t184 43v-188q-179 -56 -384 -56q-381 0 -587.5 183.5zM701 1672
q-36 29 -36 79q0 51 35.5 80t106.5 29t106.5 -29t35.5 -80q0 -50 -36 -79t-106 -29t-106 29z" />
    <glyph glyph-name="cdotaccent" unicode="&#x10b;" horiz-adv-x="1045" 
d="M251.5 122q-147.5 142 -147.5 420q0 279 155.5 421t454.5 142q149 0 274 -34v-177q-69 16 -129 24t-126 8q-205 0 -303.5 -92t-98.5 -289q0 -198 93.5 -292t277.5 -94q64 0 131 11.5t155 36.5v-177q-142 -50 -308 -50q-281 0 -428.5 142zM495.5 1331q-36.5 31 -36.5 89
q0 59 36.5 90.5t107.5 31.5t107.5 -31.5t36.5 -90.5q0 -58 -36.5 -89t-107.5 -31t-107.5 31z" />
    <glyph glyph-name="Ccaron" unicode="&#x10c;" horiz-adv-x="1356" 
d="M323.5 164.5q-206.5 183.5 -206.5 572.5q0 251 95 421.5t276 255.5t438 85q101 0 190 -11t179 -35v-187q-172 45 -355 45q-292 0 -438.5 -138t-146.5 -432q0 -302 144.5 -437t424.5 -135q98 0 187 13t184 43v-188q-179 -56 -384 -56q-381 0 -587.5 183.5zM1010 1893h198
l-303 -289h-196l-303 289h198l203 -198z" />
    <glyph glyph-name="ccaron" unicode="&#x10d;" horiz-adv-x="1045" 
d="M251.5 122q-147.5 142 -147.5 420q0 279 155.5 421t454.5 142q149 0 274 -34v-177q-69 16 -129 24t-126 8q-205 0 -303.5 -92t-98.5 -289q0 -198 93.5 -292t277.5 -94q64 0 131 11.5t155 36.5v-177q-142 -50 -308 -50q-281 0 -428.5 142zM793 1616h177l-275 -369h-184
l-275 369h177l190 -260z" />
    <glyph glyph-name="Dcaron" unicode="&#x10e;" horiz-adv-x="1635" 
d="M183 15v1430q105 23 234.5 36t246.5 13q423 0 638.5 -188t215.5 -566q0 -385 -224 -568.5t-680 -183.5q-220 0 -431 27zM1134 311q152 138 152 431q0 290 -153 429.5t-464 139.5q-114 0 -260 -23v-1100q106 -15 256 -15q317 0 469 138zM935 1893h198l-303 -289h-196
l-303 289h198l203 -198z" />
    <glyph glyph-name="dcaron" unicode="&#x10f;" horiz-adv-x="1330" 
d="M343.5 39.5q-111.5 57.5 -175.5 178t-64 303.5q0 286 158.5 435.5t456.5 149.5q104 0 224 -19v529h222v-1616h-187l-13 122h-12q-65 -66 -155 -103t-197 -37q-146 0 -257.5 57.5zM813 194.5q75 30.5 130 96.5v618q-99 24 -213 24q-205 0 -304.5 -97t-99.5 -298
q0 -374 328 -374q84 0 159 30.5zM1289 1616h153q0 -114 -14.5 -228t-42.5 -208h-121q25 181 25 436z" />
    <glyph glyph-name="Dcroat" unicode="&#x110;" horiz-adv-x="1635" 
d="M1302.5 1306q215.5 -188 215.5 -566q0 -385 -224 -568.5t-680 -183.5q-220 0 -431 27v674h-174v146h174v610q105 23 234.5 36t246.5 13q423 0 638.5 -188zM1134 311q152 138 152 431q0 290 -153 429.5t-464 139.5q-114 0 -260 -23v-453h369v-146h-369v-501
q106 -15 256 -15q317 0 469 138z" />
    <glyph glyph-name="dcroat" unicode="&#x111;" horiz-adv-x="1330" 
d="M1319 1287h-154v-1287h-187l-13 122h-12q-65 -66 -155 -103t-197 -37q-146 0 -257.5 57.5t-175.5 178t-64 303.5q0 286 158.5 435.5t456.5 149.5q104 0 224 -19v200h-426v138h426v191h222v-191h154v-138zM943 909q-99 24 -213 24q-205 0 -304.5 -97t-99.5 -298
q0 -374 328 -374q84 0 159 30.5t130 96.5v618z" />
    <glyph glyph-name="Emacron" unicode="&#x112;" horiz-adv-x="1367" 
d="M407 176h861v-176h-1085v1480h1075v-176h-851v-457h748v-177h-748v-494zM386 1682v134h712v-134h-712z" />
    <glyph glyph-name="emacron" unicode="&#x113;" horiz-adv-x="1200" 
d="M1114 478h-789q6 -118 51 -190.5t135 -106.5t231 -34q140 0 310 43v-165q-177 -45 -341 -45q-304 0 -455.5 137.5t-151.5 424.5q0 180 61 306t176.5 191.5t278.5 65.5q240 0 367 -146.5t127 -422.5v-58zM403 873.5q-74 -84.5 -79 -261.5h581q-4 177 -76 261.5t-212 84.5
t-214 -84.5zM266 1355v134h710v-134h-710z" />
    <glyph glyph-name="Ebreve" unicode="&#x114;" horiz-adv-x="1367" 
d="M407 176h861v-176h-1085v1480h1075v-176h-851v-457h748v-177h-748v-494zM469 1685q-96 73 -112 191h143q15 -70 72 -108.5t171 -38.5t170 38.5t71 108.5h143q-16 -119 -110.5 -191.5t-273.5 -72.5q-178 0 -274 73z" />
    <glyph glyph-name="ebreve" unicode="&#x115;" horiz-adv-x="1200" 
d="M1114 478h-789q6 -118 51 -190.5t135 -106.5t231 -34q140 0 310 43v-165q-177 -45 -341 -45q-304 0 -455.5 137.5t-151.5 424.5q0 180 61 306t176.5 191.5t278.5 65.5q240 0 367 -146.5t127 -422.5v-58zM403 873.5q-74 -84.5 -79 -261.5h581q-4 177 -76 261.5t-212 84.5
t-214 -84.5zM429 1297.5q-80 41.5 -123 117t-48 176.5h141q18 -215 223 -215q203 0 221 215h141q-8 -155 -101 -245t-261 -90q-113 0 -193 41.5z" />
    <glyph glyph-name="Edotaccent" unicode="&#x116;" horiz-adv-x="1367" 
d="M407 176h861v-176h-1085v1480h1075v-176h-851v-457h748v-177h-748v-494zM636 1672q-36 29 -36 79q0 51 35.5 80t106.5 29t106.5 -29t35.5 -80q0 -50 -36 -79t-106 -29t-106 29z" />
    <glyph glyph-name="edotaccent" unicode="&#x117;" horiz-adv-x="1200" 
d="M1114 478h-789q6 -118 51 -190.5t135 -106.5t231 -34q140 0 310 43v-165q-177 -45 -341 -45q-304 0 -455.5 137.5t-151.5 424.5q0 180 61 306t176.5 191.5t278.5 65.5q240 0 367 -146.5t127 -422.5v-58zM403 873.5q-74 -84.5 -79 -261.5h581q-4 177 -76 261.5t-212 84.5
t-214 -84.5zM513.5 1331q-36.5 31 -36.5 89q0 59 36.5 90.5t107.5 31.5t107.5 -31.5t36.5 -90.5q0 -58 -36.5 -89t-107.5 -31t-107.5 31z" />
    <glyph glyph-name="Eogonek" unicode="&#x118;" horiz-adv-x="1367" 
d="M1185 -319q39 8 93 27v-95q-95 -36 -194 -36q-129 0 -196.5 50.5t-67.5 140.5q0 68 38 126t125 106h-800v1480h1075v-176h-851v-457h748v-177h-748v-494h861v-176h-88q-125 -52 -175.5 -103t-50.5 -113q0 -53 39 -82t116 -29q37 0 76 8z" />
    <glyph glyph-name="eogonek" unicode="&#x119;" horiz-adv-x="1200" 
d="M1114 478h-789q6 -118 51 -190.5t135 -106.5t231 -34q140 0 310 43v-165q-286 -86 -286 -241q0 -51 35.5 -81t99.5 -30q74 0 151 37v-96q-82 -37 -176 -37q-117 0 -180.5 51.5t-63.5 139.5q0 63 31.5 117.5t94.5 95.5q-16 -1 -47 -1q-304 0 -455.5 137.5t-151.5 424.5
q0 180 61 306t176.5 191.5t278.5 65.5q240 0 367 -146.5t127 -422.5v-58zM402.5 870q-74.5 -85 -78.5 -262h581q-4 177 -76.5 262t-211.5 85q-140 0 -214.5 -85z" />
    <glyph glyph-name="Ecaron" unicode="&#x11a;" horiz-adv-x="1367" 
d="M407 176h861v-176h-1085v1480h1075v-176h-851v-457h748v-177h-748v-494zM945 1893h198l-303 -289h-196l-303 289h198l203 -198z" />
    <glyph glyph-name="ecaron" unicode="&#x11b;" horiz-adv-x="1200" 
d="M1114 478h-789q6 -118 51 -190.5t135 -106.5t231 -34q140 0 310 43v-165q-177 -45 -341 -45q-304 0 -455.5 137.5t-151.5 424.5q0 180 61 306t176.5 191.5t278.5 65.5q240 0 367 -146.5t127 -422.5v-58zM403 873.5q-74 -84.5 -79 -261.5h581q-4 177 -76 261.5t-212 84.5
t-214 -84.5zM811 1616h177l-275 -369h-184l-275 369h177l190 -260z" />
    <glyph glyph-name="Gcircumflex" unicode="&#x11c;" horiz-adv-x="1567" 
d="M1390 720v-700q-112 -18 -205.5 -26t-194.5 -8q-434 0 -653 188.5t-220 561.5q0 251 102 421.5t292.5 256t455.5 85.5q183 0 376 -46v-187q-184 45 -359 45q-306 -1 -468.5 -140.5t-162.5 -432.5q0 -565 626 -565q107 0 197 9v538h214zM1255 1604h-198l-203 199
l-203 -199h-198l303 289h196z" />
    <glyph glyph-name="gcircumflex" unicode="&#x11d;" horiz-adv-x="1330" 
d="M373.5 -446.5q-102.5 13.5 -194.5 41.5v177q201 -59 381 -59q137 0 220.5 33t123 104.5t39.5 190.5v82h-11q-65 -64 -154 -98t-197 -34q-136 0 -244 57.5t-170.5 176.5t-62.5 296q0 285 161 434.5t475 149.5q109 0 219.5 -15t205.5 -43v-966q0 -190 -64.5 -309.5
t-195 -175.5t-332.5 -56q-97 0 -199.5 13.5zM809.5 201.5q76.5 28.5 133.5 87.5v617q-101 26 -223 26q-196 0 -295 -97t-99 -295q0 -193 86.5 -280t237.5 -87q83 0 159.5 28.5zM1051 1247h-178l-185 258l-185 -258h-178l271 369h184z" />
    <glyph glyph-name="Gbreve" unicode="&#x11e;" horiz-adv-x="1567" 
d="M1390 720v-700q-112 -18 -205.5 -26t-194.5 -8q-434 0 -653 188.5t-220 561.5q0 251 102 421.5t292.5 256t455.5 85.5q183 0 376 -46v-187q-184 45 -359 45q-306 -1 -468.5 -140.5t-162.5 -432.5q0 -565 626 -565q107 0 197 9v538h214zM581 1685q-96 73 -112 191h143
q15 -70 72 -108.5t171 -38.5t170 38.5t71 108.5h143q-16 -119 -110.5 -191.5t-273.5 -72.5q-178 0 -274 73z" />
    <glyph glyph-name="gbreve" unicode="&#x11f;" horiz-adv-x="1330" 
d="M373.5 -446.5q-102.5 13.5 -194.5 41.5v177q201 -59 381 -59q137 0 220.5 33t123 104.5t39.5 190.5v82h-11q-65 -64 -154 -98t-197 -34q-136 0 -244 57.5t-170.5 176.5t-62.5 296q0 285 161 434.5t475 149.5q109 0 219.5 -15t205.5 -43v-966q0 -190 -64.5 -309.5
t-195 -175.5t-332.5 -56q-97 0 -199.5 13.5zM809.5 201.5q76.5 28.5 133.5 87.5v617q-101 26 -223 26q-196 0 -295 -97t-99 -295q0 -193 86.5 -280t237.5 -87q83 0 159.5 28.5zM496 1297.5q-80 41.5 -123 117t-48 176.5h141q18 -215 223 -215q203 0 221 215h141
q-8 -155 -101 -245t-261 -90q-113 0 -193 41.5z" />
    <glyph glyph-name="Gdotaccent" unicode="&#x120;" horiz-adv-x="1567" 
d="M1390 720v-700q-112 -18 -205.5 -26t-194.5 -8q-434 0 -653 188.5t-220 561.5q0 251 102 421.5t292.5 256t455.5 85.5q183 0 376 -46v-187q-184 45 -359 45q-306 -1 -468.5 -140.5t-162.5 -432.5q0 -565 626 -565q107 0 197 9v538h214zM748 1672q-36 29 -36 79
q0 51 35.5 80t106.5 29t106.5 -29t35.5 -80q0 -50 -36 -79t-106 -29t-106 29z" />
    <glyph glyph-name="gdotaccent" unicode="&#x121;" horiz-adv-x="1330" 
d="M373.5 -446.5q-102.5 13.5 -194.5 41.5v177q201 -59 381 -59q137 0 220.5 33t123 104.5t39.5 190.5v82h-11q-65 -64 -154 -98t-197 -34q-136 0 -244 57.5t-170.5 176.5t-62.5 296q0 285 161 434.5t475 149.5q109 0 219.5 -15t205.5 -43v-966q0 -190 -64.5 -309.5
t-195 -175.5t-332.5 -56q-97 0 -199.5 13.5zM809.5 201.5q76.5 28.5 133.5 87.5v617q-101 26 -223 26q-196 0 -295 -97t-99 -295q0 -193 86.5 -280t237.5 -87q83 0 159.5 28.5zM580.5 1331q-36.5 31 -36.5 89q0 59 36.5 90.5t107.5 31.5t107.5 -31.5t36.5 -90.5
q0 -58 -36.5 -89t-107.5 -31t-107.5 31z" />
    <glyph glyph-name="Gcommaaccent" unicode="&#x122;" horiz-adv-x="1567" 
d="M1390 720v-700q-112 -18 -205.5 -26t-194.5 -8q-434 0 -653 188.5t-220 561.5q0 251 102 421.5t292.5 256t455.5 85.5q183 0 376 -46v-187q-184 45 -359 45q-306 -1 -468.5 -140.5t-162.5 -432.5q0 -565 626 -565q107 0 197 9v538h214zM988 -275q0 -47 -17 -101.5
t-47 -99.5h-136q37 79 46 142q-58 3 -86 26.5t-28 63.5q0 43 33 67t99 24q136 0 136 -122z" />
    <glyph glyph-name="gcommaaccent" unicode="&#x123;" horiz-adv-x="1330" 
d="M373.5 -446.5q-102.5 13.5 -194.5 41.5v177q201 -59 381 -59q137 0 220.5 33t123 104.5t39.5 190.5v82h-11q-65 -64 -154 -98t-197 -34q-136 0 -244 57.5t-170.5 176.5t-62.5 296q0 285 161 434.5t475 149.5q109 0 219.5 -15t205.5 -43v-966q0 -190 -64.5 -309.5
t-195 -175.5t-332.5 -56q-97 0 -199.5 13.5zM809.5 201.5q76.5 28.5 133.5 87.5v617q-101 26 -223 26q-196 0 -295 -97t-99 -295q0 -193 86.5 -280t237.5 -87q83 0 159.5 28.5zM794 1456.5q28 -23.5 28 -63.5q0 -43 -33 -67t-99 -24q-136 0 -136 122q0 47 17 102t47 100h136
q-39 -84 -46 -143q58 -3 86 -26.5z" />
    <glyph glyph-name="Hcircumflex" unicode="&#x124;" horiz-adv-x="1661" 
d="M183 0v1480h226v-623h843v623h226v-1480h-226v660h-843v-660h-226zM1232 1604h-198l-203 199l-203 -199h-198l303 289h196z" />
    <glyph glyph-name="hcircumflex" unicode="&#x125;" horiz-adv-x="1329" 
d="M165 1616h222v-644h11q75 65 171.5 99t202.5 34q188 0 297 -106.5t109 -329.5v-669h-222v658q0 138 -63.5 197t-184.5 59q-90 0 -174.5 -33.5t-146.5 -98.5v-782h-222v1616zM1073 1700h-198l-203 199l-203 -199h-198l303 289h196z" />
    <glyph glyph-name="Hbar" unicode="&#x126;" horiz-adv-x="1661" 
d="M1653 1245v-146h-175v-1099h-226v660h-843v-660h-226v1099h-175v146h175v235h226v-235h843v235h226v-235h175zM1252 857v242h-843v-242h843z" />
    <glyph glyph-name="hbar" unicode="&#x127;" horiz-adv-x="1329" 
d="M1069 998.5q109 -106.5 109 -329.5v-669h-222v658q0 138 -63.5 197t-184.5 59q-90 0 -174.5 -33.5t-146.5 -98.5v-782h-222v1285h-155v138h155v193h222v-193h425v-138h-425v-313h11q75 65 171.5 99t202.5 34q188 0 297 -106.5z" />
    <glyph glyph-name="Itilde" unicode="&#x128;" horiz-adv-x="592" 
d="M183 0v1480h226v-1480h-226zM381 1664q-42 10 -101 29q-53 18 -89 26.5t-74 8.5q-61 0 -107.5 -16.5t-91.5 -51.5v132q38 34 87 50t116 16q48 0 90 -10t101 -29q53 -18 89 -26.5t74 -8.5q61 0 107.5 16t91.5 52v-132q-38 -34 -86.5 -50t-116.5 -16q-48 0 -90 10z" />
    <glyph glyph-name="itilde" unicode="&#x129;" horiz-adv-x="552" 
d="M165 0v1088h222v-1088h-222zM355 1337.5q-39 11.5 -95 33.5q-50 20 -83.5 29.5t-66.5 9.5q-55 0 -100 -18.5t-89 -59.5v143q37 36 84.5 53t109.5 17q43 0 82 -11.5t95 -33.5q50 -20 83.5 -29.5t66.5 -9.5q55 0 100 18.5t89 59.5v-143q-37 -36 -84.5 -53t-109.5 -17
q-43 0 -82 11.5z" />
    <glyph glyph-name="Imacron" unicode="&#x12a;" horiz-adv-x="592" 
d="M183 0v1480h226v-1480h-226zM-60 1682v134h712v-134h-712z" />
    <glyph glyph-name="imacron" unicode="&#x12b;" horiz-adv-x="552" 
d="M165 0v1088h222v-1088h-222zM-79 1355v134h710v-134h-710z" />
    <glyph glyph-name="Ibreve" unicode="&#x12c;" horiz-adv-x="592" 
d="M183 0v1480h226v-1480h-226zM23 1685q-96 73 -112 191h143q15 -70 72 -108.5t171 -38.5t170 38.5t71 108.5h143q-16 -119 -110.5 -191.5t-273.5 -72.5q-178 0 -274 73z" />
    <glyph glyph-name="ibreve" unicode="&#x12d;" horiz-adv-x="552" 
d="M165 0v1088h222v-1088h-222zM84 1297.5q-80 41.5 -123 117t-48 176.5h141q18 -215 223 -215q203 0 221 215h141q-8 -155 -101 -245t-261 -90q-113 0 -193 41.5z" />
    <glyph glyph-name="Iogonek" unicode="&#x12e;" horiz-adv-x="592" 
d="M414 -319q39 8 93 27v-95q-95 -36 -194 -36q-129 0 -196.5 50.5t-67.5 140.5q0 68 38 126t125 106h-29v1480h226v-1480q-125 -52 -175.5 -103t-50.5 -113q0 -53 39 -82t116 -29q37 0 76 8z" />
    <glyph glyph-name="iogonek" unicode="&#x12f;" horiz-adv-x="552" 
d="M168.5 1331q-36.5 31 -36.5 89q0 59 36.5 90.5t107.5 31.5t107.5 -31.5t36.5 -90.5q0 -58 -36.5 -89t-107.5 -31t-107.5 31zM467 -290v-96q-82 -37 -176 -37q-117 0 -180.5 51.5t-63.5 139.5q0 69 36.5 127t115.5 105h-34v1088h222v-1088q-112 -51 -159 -102t-47 -115
q0 -51 35.5 -80.5t99.5 -29.5q74 0 151 37z" />
    <glyph glyph-name="Idotaccent" unicode="&#x130;" horiz-adv-x="592" 
d="M183 0v1480h226v-1480h-226zM190 1672q-36 29 -36 79q0 51 35.5 80t106.5 29t106.5 -29t35.5 -80q0 -50 -36 -79t-106 -29t-106 29z" />
    <glyph glyph-name="dotlessi" unicode="&#x131;" horiz-adv-x="552" 
d="M165 0v1088h222v-1088h-222z" />
    <glyph glyph-name="Jcircumflex" unicode="&#x134;" horiz-adv-x="592" 
d="M-2 -249q98 119 142 247t44 294v1188h225v-1204q-6 -183 -67 -329.5t-201 -293.5zM698 1604h-198l-203 199l-203 -199h-198l303 289h196z" />
    <glyph glyph-name="jcircumflex" unicode="&#x135;" horiz-adv-x="552" 
d="M-21 -370q98 119 142 247t44 294v917h222v-908q0 -189 -62.5 -342.5t-204.5 -303.5zM635 1254h-178l-185 258l-185 -258h-178l271 369h184z" />
    <glyph glyph-name="Kcommaaccent" unicode="&#x136;" horiz-adv-x="1412" 
d="M1166 0l-521 660h-236v-660h-226v1480h226v-623h238l482 623h247l-555 -717l600 -763h-255zM864 -275q0 -47 -17 -101.5t-47 -99.5h-136q37 79 46 142q-58 3 -86 26.5t-28 63.5q0 43 33 67t99 24q136 0 136 -122z" />
    <glyph glyph-name="kcommaaccent" unicode="&#x137;" horiz-adv-x="1227" 
d="M997 0l-395 466h-215v-466h-222v1616h222v-967h215l365 439h245l-430 -526l464 -562h-249zM777 -275q0 -47 -17 -101.5t-47 -99.5h-136q37 79 46 142q-58 3 -86 26.5t-28 63.5q0 43 33 67t99 24q136 0 136 -122z" />
    <glyph glyph-name="kgreenlandic" unicode="&#x138;" horiz-adv-x="1227" 
d="M997 0l-395 466h-215v-466h-222v1088h222v-439h215l365 439h245l-430 -526l464 -562h-249z" />
    <glyph glyph-name="Lacute" unicode="&#x139;" horiz-adv-x="1241" 
d="M183 0v1480h226v-1297h814v-183h-1040zM191 1604l215 289h242l-250 -289h-207z" />
    <glyph glyph-name="lacute" unicode="&#x13a;" horiz-adv-x="552" 
d="M165 0v1616h222v-1616h-222zM171 1700l215 289h242l-250 -289h-207z" />
    <glyph glyph-name="Lcommaaccent" unicode="&#x13b;" horiz-adv-x="1241" 
d="M183 0v1480h226v-1297h814v-183h-1040zM837 -275q0 -47 -17 -101.5t-47 -99.5h-136q37 79 46 142q-58 3 -86 26.5t-28 63.5q0 43 33 67t99 24q136 0 136 -122z" />
    <glyph glyph-name="lcommaaccent" unicode="&#x13c;" horiz-adv-x="552" 
d="M165 0v1616h222v-1616h-222zM409 -275q0 -47 -17 -101.5t-47 -99.5h-136q37 79 46 142q-58 3 -86 26.5t-28 63.5q0 43 33 67t99 24q136 0 136 -122z" />
    <glyph glyph-name="Lcaron" unicode="&#x13d;" horiz-adv-x="1241" 
d="M183 0v1480h226v-1297h814v-183h-1040zM812 1354q5 112 5 262h153q0 -277 -55 -476h-121q13 102 18 214z" />
    <glyph glyph-name="lcaron" unicode="&#x13e;" horiz-adv-x="552" 
d="M165 0v1616h222v-1616h-222zM511 1616h153q0 -114 -14.5 -228t-42.5 -208h-121q25 181 25 436z" />
    <glyph glyph-name="Ldot" unicode="&#x13f;" horiz-adv-x="1241" 
d="M183 0v1480h226v-1297h814v-183h-1040zM793 744.5q-37 31.5 -37 89.5t37 89.5t108 31.5t107.5 -31.5t36.5 -89.5t-36.5 -89.5t-107.5 -31.5t-108 31.5z" />
    <glyph glyph-name="ldot" unicode="&#x140;" horiz-adv-x="726" 
d="M165 0v1616h222v-1616h-222zM520.5 703.5q-36.5 31.5 -36.5 89.5t36.5 89.5t107.5 31.5t108 -31.5t37 -89.5t-37 -89.5t-108 -31.5t-107.5 31.5z" />
    <glyph glyph-name="Lslash" unicode="&#x141;" horiz-adv-x="1241" 
d="M409 183h814v-183h-1040v645l-133 -83l-71 126l204 128v664h226v-522l308 193l70 -127l-378 -237v-604z" />
    <glyph glyph-name="lslash" unicode="&#x142;" horiz-adv-x="583" 
d="M590 814l-187 -115v-699h-222v563l-118 -72l-69 123l187 115v887h222v-751l118 72z" />
    <glyph glyph-name="Nacute" unicode="&#x143;" horiz-adv-x="1683" 
d="M1286 1480h214v-1480h-230l-873 1168v-1168h-214v1480h230l873 -1168v1168zM737 1604l215 289h242l-250 -289h-207z" />
    <glyph glyph-name="nacute" unicode="&#x144;" horiz-adv-x="1329" 
d="M165 1088h184l14 -119h13q77 65 177 100.5t209 35.5q195 0 305.5 -107t110.5 -334v-664h-222v655q0 139 -63 199.5t-185 60.5q-87 0 -172.5 -32.5t-148.5 -98.5v-784h-222v1088zM564 1247l265 369h248l-297 -369h-216z" />
    <glyph glyph-name="Ncommaaccent" unicode="&#x145;" horiz-adv-x="1683" 
d="M1286 1480h214v-1480h-230l-873 1168v-1168h-214v1480h230l873 -1168v1168zM976 -275q0 -47 -17 -101.5t-47 -99.5h-136q37 79 46 142q-58 3 -86 26.5t-28 63.5q0 43 33 67t99 24q136 0 136 -122z" />
    <glyph glyph-name="ncommaaccent" unicode="&#x146;" horiz-adv-x="1329" 
d="M165 1088h184l14 -119h13q77 65 177 100.5t209 35.5q195 0 305.5 -107t110.5 -334v-664h-222v655q0 139 -63 199.5t-185 60.5q-87 0 -172.5 -32.5t-148.5 -98.5v-784h-222v1088zM806 -275q0 -47 -17 -101.5t-47 -99.5h-136q37 79 46 142q-58 3 -86 26.5t-28 63.5
q0 43 33 67t99 24q136 0 136 -122z" />
    <glyph glyph-name="Ncaron" unicode="&#x147;" horiz-adv-x="1683" 
d="M1286 1480h214v-1480h-230l-873 1168v-1168h-214v1480h230l873 -1168v1168zM1045 1893h198l-303 -289h-196l-303 289h198l203 -198z" />
    <glyph glyph-name="ncaron" unicode="&#x148;" horiz-adv-x="1329" 
d="M165 1088h184l14 -119h13q77 65 177 100.5t209 35.5q195 0 305.5 -107t110.5 -334v-664h-222v655q0 139 -63 199.5t-185 60.5q-87 0 -172.5 -32.5t-148.5 -98.5v-784h-222v1088zM862 1616h177l-275 -369h-184l-275 369h177l190 -260z" />
    <glyph glyph-name="napostrophe" unicode="&#x149;" horiz-adv-x="1329" 
d="M165 1088h184l14 -119h13q77 65 177 100.5t209 35.5q195 0 305.5 -107t110.5 -334v-664h-222v655q0 139 -63 199.5t-185 60.5q-87 0 -172.5 -32.5t-148.5 -98.5v-784h-222v1088zM283 1504q0 -47 -17.5 -101.5t-47.5 -100.5h-135q38 81 45 143q-58 3 -86 26.5t-28 63.5
q0 42 33.5 66.5t98.5 24.5q137 0 137 -122z" />
    <glyph glyph-name="Eng" unicode="&#x14a;" horiz-adv-x="1683" 
d="M1500 1480v-1284q0 -201 -62 -356.5t-205 -305.5l-141 96q73 88 117 177.5t62 191.5l-874 1168v-1167h-214v1480h230l873 -1166v1166h214z" />
    <glyph glyph-name="eng" unicode="&#x14b;" horiz-adv-x="1329" 
d="M770 -370q98 119 142 247t44 294v487q0 138 -63.5 197.5t-184.5 59.5q-90 0 -174.5 -34t-146.5 -99v-782h-222v1088h184l14 -119h13q75 66 174.5 101t212.5 35q194 0 304.5 -106t110.5 -330v-513q-7 -184 -67.5 -329.5t-199.5 -292.5z" />
    <glyph glyph-name="Omacron" unicode="&#x14c;" horiz-adv-x="1696" 
d="M460.5 66q-164.5 85 -254 255t-89.5 419t90.5 419t254.5 255t386 85q224 0 388 -85t253.5 -255.5t89.5 -418.5t-90.5 -418t-254.5 -255.5t-386 -85.5q-223 0 -387.5 85zM1216 305.5q131 139.5 131 428.5q0 296 -131.5 438t-367.5 142q-235 0 -367 -139.5t-132 -428.5
q0 -298 131 -439t368 -141t368 139.5zM492 1682v134h712v-134h-712z" />
    <glyph glyph-name="omacron" unicode="&#x14d;" horiz-adv-x="1305" 
d="M362.5 43q-123.5 63 -191 189t-67.5 312q0 184 66.5 309.5t189.5 188.5t293 63q260 0 404 -141.5t144 -419.5q0 -183 -68 -309.5t-191.5 -190.5t-288.5 -64q-167 0 -290.5 63zM979 543q0 201 -84 293.5t-242 92.5t-242.5 -92t-84.5 -292q0 -389 327 -389q326 0 326 387z
M298 1355v134h710v-134h-710z" />
    <glyph glyph-name="Obreve" unicode="&#x14e;" horiz-adv-x="1696" 
d="M460.5 66q-164.5 85 -254 255t-89.5 419t90.5 419t254.5 255t386 85q224 0 388 -85t253.5 -255.5t89.5 -418.5t-90.5 -418t-254.5 -255.5t-386 -85.5q-223 0 -387.5 85zM1216 305.5q131 139.5 131 428.5q0 296 -131.5 438t-367.5 142q-235 0 -367 -139.5t-132 -428.5
q0 -298 131 -439t368 -141t368 139.5zM575 1685q-96 73 -112 191h143q15 -70 72 -108.5t171 -38.5t170 38.5t71 108.5h143q-16 -119 -110.5 -191.5t-273.5 -72.5q-178 0 -274 73z" />
    <glyph glyph-name="obreve" unicode="&#x14f;" horiz-adv-x="1305" 
d="M362.5 43q-123.5 63 -191 189t-67.5 312q0 184 66.5 309.5t189.5 188.5t293 63q260 0 404 -141.5t144 -419.5q0 -183 -68 -309.5t-191.5 -190.5t-288.5 -64q-167 0 -290.5 63zM979 543q0 201 -84 293.5t-242 92.5t-242.5 -92t-84.5 -292q0 -389 327 -389q326 0 326 387z
M461 1297.5q-80 41.5 -123 117t-48 176.5h141q18 -215 223 -215q203 0 221 215h141q-8 -155 -101 -245t-261 -90q-113 0 -193 41.5z" />
    <glyph glyph-name="Ohungarumlaut" unicode="&#x150;" horiz-adv-x="1696" 
d="M460.5 66q-164.5 85 -254 255t-89.5 419t90.5 419t254.5 255t386 85q224 0 388 -85t253.5 -255.5t89.5 -418.5t-90.5 -418t-254.5 -255.5t-386 -85.5q-223 0 -387.5 85zM1216 305.5q131 139.5 131 428.5q0 296 -131.5 438t-367.5 142q-235 0 -367 -139.5t-132 -428.5
q0 -298 131 -439t368 -141t368 139.5zM570 1604l161 289h180l-174 -289h-167zM959 1604l161 289h180l-174 -289h-167z" />
    <glyph glyph-name="ohungarumlaut" unicode="&#x151;" horiz-adv-x="1305" 
d="M362.5 43q-123.5 63 -191 189t-67.5 312q0 184 66.5 309.5t189.5 188.5t293 63q260 0 404 -141.5t144 -419.5q0 -183 -68 -309.5t-191.5 -190.5t-288.5 -64q-167 0 -290.5 63zM979 543q0 201 -84 293.5t-242 92.5t-242.5 -92t-84.5 -292q0 -389 327 -389q326 0 326 387z
M377 1247l175 369h178l-188 -369h-165zM764 1247l175 369h178l-188 -369h-165z" />
    <glyph glyph-name="OE" unicode="&#x152;" horiz-adv-x="2340" 
d="M2240 176v-176h-868q-55 0 -185 -6t-184 -6q-448 0 -667 183t-219 569q0 754 873 754q72 0 182 -7q20 -1 80.5 -4t107.5 -3h870v-176h-811v-457h709v-177h-709v-494h821zM1195 1298q-123 11 -244 11q-303 0 -453 -139.5t-150 -431.5q0 -289 150 -427t453 -138
q156 0 244 9v1116z" />
    <glyph glyph-name="oe" unicode="&#x153;" horiz-adv-x="2063" 
d="M1977 478h-780q6 -118 50.5 -190.5t133 -106.5t227.5 -34q140 0 307 43v-165q-174 -45 -338 -45q-184 0 -308.5 53.5t-192.5 161.5q-65 -106 -175 -160.5t-259 -54.5q-162 0 -283 63t-188 189.5t-67 311.5q0 183 66 309t187 189t285 63q157 0 268 -54.5t173 -162.5
q62 105 167.5 161t244.5 56q154 0 262 -65.5t164 -192.5t56 -308v-61zM1274 873.5q-73 -84.5 -78 -261.5h572q-4 177 -75.5 261.5t-208.5 84.5t-210 -84.5zM974 543q0 201 -83.5 293.5t-240.5 92.5q-324 0 -324 -384q0 -389 324 -389t324 387z" />
    <glyph glyph-name="Racute" unicode="&#x154;" horiz-adv-x="1475" 
d="M1163 0l-471 590q-18 -1 -55 -1q-99 0 -232 10v-599h-222v1445q227 51 469 51q329 0 488 -107.5t159 -342.5q0 -170 -95.5 -278t-282.5 -151l497 -617h-255zM405 769q68 -7 119.5 -10t121.5 -3q230 0 335 69.5t105 217.5q0 105 -43.5 168t-135 91t-240.5 28
q-75 0 -135 -6t-127 -18v-537zM619 1604l215 289h242l-250 -289h-207z" />
    <glyph glyph-name="racute" unicode="&#x155;" horiz-adv-x="849" 
d="M165 1088h183l17 -139h13q59 71 152.5 111t195.5 40q58 0 109 -10v-199q-49 9 -120 9q-88 0 -179 -34t-149 -101v-765h-222v1088zM392 1247l265 369h248l-297 -369h-216z" />
    <glyph glyph-name="Rcommaaccent" unicode="&#x156;" horiz-adv-x="1475" 
d="M1163 0l-471 590q-18 -1 -55 -1q-99 0 -232 10v-599h-222v1445q227 51 469 51q329 0 488 -107.5t159 -342.5q0 -170 -95.5 -278t-282.5 -151l497 -617h-255zM405 769q68 -7 119.5 -10t121.5 -3q230 0 335 69.5t105 217.5q0 105 -43.5 168t-135 91t-240.5 28
q-75 0 -135 -6t-127 -18v-537zM895 -275q0 -47 -17 -101.5t-47 -99.5h-136q37 79 46 142q-58 3 -86 26.5t-28 63.5q0 43 33 67t99 24q136 0 136 -122z" />
    <glyph glyph-name="rcommaaccent" unicode="&#x157;" horiz-adv-x="849" 
d="M165 1088h183l17 -139h13q59 71 152.5 111t195.5 40q58 0 109 -10v-199q-49 9 -120 9q-88 0 -179 -34t-149 -101v-765h-222v1088zM410 -275q0 -47 -17 -101.5t-47 -99.5h-136q37 79 46 142q-58 3 -86 26.5t-28 63.5q0 43 33 67t99 24q136 0 136 -122z" />
    <glyph glyph-name="Rcaron" unicode="&#x158;" horiz-adv-x="1475" 
d="M1163 0l-471 590q-18 -1 -55 -1q-99 0 -232 10v-599h-222v1445q227 51 469 51q329 0 488 -107.5t159 -342.5q0 -170 -95.5 -278t-282.5 -151l497 -617h-255zM405 769q68 -7 119.5 -10t121.5 -3q230 0 335 69.5t105 217.5q0 105 -43.5 168t-135 91t-240.5 28
q-75 0 -135 -6t-127 -18v-537zM927 1893h198l-303 -289h-196l-303 289h198l203 -198z" />
    <glyph glyph-name="rcaron" unicode="&#x159;" horiz-adv-x="849" 
d="M165 1088h183l17 -139h13q59 71 152.5 111t195.5 40q58 0 109 -10v-199q-49 9 -120 9q-88 0 -179 -34t-149 -101v-765h-222v1088zM690 1616h177l-275 -369h-184l-275 369h177l190 -260z" />
    <glyph glyph-name="Sacute" unicode="&#x15a;" horiz-adv-x="1241" 
d="M115 48v184q102 -34 219.5 -52t220.5 -18q193 0 283.5 61.5t90.5 181.5q0 67 -29.5 110.5t-94.5 72.5t-178 51l-100 20q-230 45 -335 145t-105 267q0 204 154.5 316t454.5 112q210 0 387 -51v-185q-87 26 -186 40.5t-198 14.5q-387 0 -387 -238q0 -66 26 -109.5t85 -72.5
t162 -50l100 -19q168 -33 271.5 -88t150.5 -135t47 -190q0 -137 -71 -235t-206.5 -149t-324.5 -51q-234 0 -437 67zM526 1604l215 289h242l-250 -289h-207z" />
    <glyph glyph-name="sacute" unicode="&#x15b;" horiz-adv-x="1074" 
d="M125 28v161q179 -50 373 -50q150 0 216 40.5t66 118.5q0 42 -15 69.5t-51 46t-99 28.5l-193 30q-168 27 -242.5 102t-74.5 201q0 153 126.5 241.5t386.5 88.5q82 0 163.5 -10.5t150.5 -30.5v-160q-152 42 -313 42q-165 0 -233 -43t-68 -119q0 -57 35 -92.5t125 -51.5
l193 -30q167 -26 245 -96t78 -203q0 -103 -55.5 -177t-167 -114t-274.5 -40q-205 0 -372 48zM437 1247l265 369h248l-297 -369h-216z" />
    <glyph glyph-name="Scircumflex" unicode="&#x15c;" horiz-adv-x="1241" 
d="M115 48v184q102 -34 219.5 -52t220.5 -18q193 0 283.5 61.5t90.5 181.5q0 67 -29.5 110.5t-94.5 72.5t-178 51l-100 20q-230 45 -335 145t-105 267q0 204 154.5 316t454.5 112q210 0 387 -51v-185q-87 26 -186 40.5t-198 14.5q-387 0 -387 -238q0 -66 26 -109.5t85 -72.5
t162 -50l100 -19q168 -33 271.5 -88t150.5 -135t47 -190q0 -137 -71 -235t-206.5 -149t-324.5 -51q-234 0 -437 67zM1032 1604h-198l-203 199l-203 -199h-198l303 289h196z" />
    <glyph glyph-name="scircumflex" unicode="&#x15d;" horiz-adv-x="1074" 
d="M125 28v161q179 -50 373 -50q150 0 216 40.5t66 118.5q0 42 -15 69.5t-51 46t-99 28.5l-193 30q-168 27 -242.5 102t-74.5 201q0 153 126.5 241.5t386.5 88.5q82 0 163.5 -10.5t150.5 -30.5v-160q-152 42 -313 42q-165 0 -233 -43t-68 -119q0 -57 35 -92.5t125 -51.5
l193 -30q167 -26 245 -96t78 -203q0 -103 -55.5 -177t-167 -114t-274.5 -40q-205 0 -372 48zM908 1247h-178l-185 258l-185 -258h-178l271 369h184z" />
    <glyph glyph-name="Scedilla" unicode="&#x15e;" horiz-adv-x="1241" 
d="M1029.5 122.5q-124.5 -111.5 -352.5 -135.5v-83q94 -7 143.5 -49t49.5 -113q0 -80 -65 -122.5t-185 -42.5q-116 0 -212 37v94q102 -39 204 -39q68 0 102.5 19t34.5 60q0 42 -34.5 61t-103.5 19h-47v153h-12q-234 0 -437 67v184q102 -34 219.5 -52t220.5 -18
q193 0 283.5 61.5t90.5 181.5q0 67 -29.5 110.5t-94.5 72.5t-178 51l-100 20q-230 45 -335 145t-105 267q0 204 154.5 316t454.5 112q210 0 387 -51v-185q-87 26 -186 40.5t-198 14.5q-387 0 -387 -238q0 -66 26 -109.5t85 -72.5t162 -50l100 -19q168 -33 271.5 -88
t150.5 -135t47 -190q0 -182 -124.5 -293.5z" />
    <glyph glyph-name="scedilla" unicode="&#x15f;" horiz-adv-x="1074" 
d="M896 89q-98 -85 -288 -104v-81q85 -10 129 -52t44 -112q0 -78 -60 -120.5t-170 -42.5q-52 0 -103 9.5t-89 27.5v94q42 -20 90.5 -29.5t93.5 -9.5q58 0 87 19t29 61q0 41 -29 60t-88 19h-47v152q-205 0 -370 48v161q179 -50 373 -50q150 0 216 40.5t66 118.5
q0 42 -15 69.5t-51 46t-99 28.5l-193 30q-168 27 -242.5 102t-74.5 201q0 153 126.5 241.5t386.5 88.5q82 0 163.5 -10.5t150.5 -30.5v-160q-152 42 -313 42q-165 0 -233 -43t-68 -119q0 -57 35 -92.5t125 -51.5l193 -30q167 -26 245 -96t78 -203q0 -137 -98 -222z" />
    <glyph glyph-name="Scaron" unicode="&#x160;" horiz-adv-x="1241" 
d="M115 48v184q102 -34 219.5 -52t220.5 -18q193 0 283.5 61.5t90.5 181.5q0 67 -29.5 110.5t-94.5 72.5t-178 51l-100 20q-230 45 -335 145t-105 267q0 204 154.5 316t454.5 112q210 0 387 -51v-185q-87 26 -186 40.5t-198 14.5q-387 0 -387 -238q0 -66 26 -109.5t85 -72.5
t162 -50l100 -19q168 -33 271.5 -88t150.5 -135t47 -190q0 -137 -71 -235t-206.5 -149t-324.5 -51q-234 0 -437 67zM834 1893h198l-303 -289h-196l-303 289h198l203 -198z" />
    <glyph glyph-name="scaron" unicode="&#x161;" horiz-adv-x="1074" 
d="M125 28v161q179 -50 373 -50q150 0 216 40.5t66 118.5q0 42 -15 69.5t-51 46t-99 28.5l-193 30q-168 27 -242.5 102t-74.5 201q0 153 126.5 241.5t386.5 88.5q82 0 163.5 -10.5t150.5 -30.5v-160q-152 42 -313 42q-165 0 -233 -43t-68 -119q0 -57 35 -92.5t125 -51.5
l193 -30q167 -26 245 -96t78 -203q0 -103 -55.5 -177t-167 -114t-274.5 -40q-205 0 -372 48zM735 1616h177l-275 -369h-184l-275 369h177l190 -260z" />
    <glyph glyph-name="uni0162" unicode="&#x162;" horiz-adv-x="1356" 
d="M724 0v-96q94 -7 143.5 -49t49.5 -113q0 -80 -65 -122.5t-185 -42.5q-116 0 -212 37v94q102 -39 204 -39q68 0 102.5 19t34.5 60q0 42 -34.5 61t-103.5 19h-47v172h-46v1297h-544v183h1314v-183h-544v-1297h-67z" />
    <glyph glyph-name="uni0163" unicode="&#x163;" horiz-adv-x="885" 
d="M612 -19v-77q85 -10 129 -52t44 -112q0 -78 -60 -120.5t-170 -42.5q-52 0 -103 9.5t-89 27.5v94q42 -20 90.5 -29.5t93.5 -9.5q58 0 87 19t29 61q0 41 -29 60t-88 19h-47v170q-257 66 -257 376v535h-217v179h217l38 392h184v-392h377v-179h-377v-494q0 -135 60 -194
t185 -59q32 0 65 4t82 14v-176q-102 -24 -203 -24q-28 0 -41 1z" />
    <glyph glyph-name="Tcaron" unicode="&#x164;" horiz-adv-x="1356" 
d="M565 0v1297h-544v183h1314v-183h-544v-1297h-226zM881 1893h198l-303 -289h-196l-303 289h198l203 -198z" />
    <glyph glyph-name="tcaron" unicode="&#x165;" horiz-adv-x="885" 
d="M774 166q33 4 82 14v-176q-102 -24 -203 -24q-201 0 -306 98t-105 296v535h-217v179h217l38 392h184v-392h377v-179h-377v-494q0 -135 60 -194t185 -59q32 0 65 4zM627 1616h153q0 -114 -14.5 -228t-42.5 -208h-121q25 181 25 436z" />
    <glyph glyph-name="Tbar" unicode="&#x166;" horiz-adv-x="1356" 
d="M1335 1297h-544v-463h358v-146h-358v-688h-226v688h-358v146h358v463h-544v183h1314v-183z" />
    <glyph glyph-name="tbar" unicode="&#x167;" horiz-adv-x="885" 
d="M774 166q33 4 82 14v-176q-102 -24 -203 -24q-201 0 -306 98t-105 296v178h-155v130h155v227h-217v179h217l38 392h184v-392h377v-179h-377v-227h319v-130h-319v-137q0 -135 60 -194t185 -59q32 0 65 4z" />
    <glyph glyph-name="Utilde" unicode="&#x168;" horiz-adv-x="1628" 
d="M330.5 137.5q-155.5 156.5 -155.5 478.5v864h227v-885q0 -223 101 -325t313 -102t313 102t101 325v885h222v-864q0 -322 -154.5 -478.5t-481.5 -156.5q-330 0 -485.5 156.5zM901 1664q-42 10 -101 29q-53 18 -89 26.5t-74 8.5q-61 0 -107.5 -16.5t-91.5 -51.5v132
q38 34 87 50t116 16q48 0 90 -10t101 -29q53 -18 89 -26.5t74 -8.5q61 0 107.5 16t91.5 52v-132q-38 -34 -86.5 -50t-116.5 -16q-48 0 -90 10z" />
    <glyph glyph-name="utilde" unicode="&#x169;" horiz-adv-x="1319" 
d="M262 87.5q-111 105.5 -111 329.5v671h222v-659q0 -137 62.5 -197t178.5 -60q87 0 171.5 33.5t146.5 98.5v784h222v-1088h-184l-14 116h-11q-77 -65 -174 -99.5t-202 -34.5q-196 0 -307 105.5zM731 1337.5q-39 11.5 -95 33.5q-50 20 -83.5 29.5t-66.5 9.5
q-55 0 -100 -18.5t-89 -59.5v143q37 36 84.5 53t109.5 17q43 0 82 -11.5t95 -33.5q50 -20 83.5 -29.5t66.5 -9.5q55 0 100 18.5t89 59.5v-143q-37 -36 -84.5 -53t-109.5 -17q-43 0 -82 11.5z" />
    <glyph glyph-name="Umacron" unicode="&#x16a;" horiz-adv-x="1628" 
d="M330.5 137.5q-155.5 156.5 -155.5 478.5v864h227v-885q0 -223 101 -325t313 -102t313 102t101 325v885h222v-864q0 -322 -154.5 -478.5t-481.5 -156.5q-330 0 -485.5 156.5zM460 1682v134h712v-134h-712z" />
    <glyph glyph-name="umacron" unicode="&#x16b;" horiz-adv-x="1319" 
d="M262 87.5q-111 105.5 -111 329.5v671h222v-659q0 -137 62.5 -197t178.5 -60q87 0 171.5 33.5t146.5 98.5v784h222v-1088h-184l-14 116h-11q-77 -65 -174 -99.5t-202 -34.5q-196 0 -307 105.5zM297 1355v134h710v-134h-710z" />
    <glyph glyph-name="Ubreve" unicode="&#x16c;" horiz-adv-x="1628" 
d="M330.5 137.5q-155.5 156.5 -155.5 478.5v864h227v-885q0 -223 101 -325t313 -102t313 102t101 325v885h222v-864q0 -322 -154.5 -478.5t-481.5 -156.5q-330 0 -485.5 156.5zM543 1685q-96 73 -112 191h143q15 -70 72 -108.5t171 -38.5t170 38.5t71 108.5h143
q-16 -119 -110.5 -191.5t-273.5 -72.5q-178 0 -274 73z" />
    <glyph glyph-name="ubreve" unicode="&#x16d;" horiz-adv-x="1319" 
d="M262 87.5q-111 105.5 -111 329.5v671h222v-659q0 -137 62.5 -197t178.5 -60q87 0 171.5 33.5t146.5 98.5v784h222v-1088h-184l-14 116h-11q-77 -65 -174 -99.5t-202 -34.5q-196 0 -307 105.5zM460 1297.5q-80 41.5 -123 117t-48 176.5h141q18 -215 223 -215
q203 0 221 215h141q-8 -155 -101 -245t-261 -90q-113 0 -193 41.5z" />
    <glyph glyph-name="Uring" unicode="&#x16e;" horiz-adv-x="1628" 
d="M330.5 137.5q-155.5 156.5 -155.5 478.5v864h227v-885q0 -223 101 -325t313 -102t313 102t101 325v885h222v-864q0 -322 -154.5 -478.5t-481.5 -156.5q-330 0 -485.5 156.5zM713 1621.5q-46 25.5 -72 70.5t-26 102q0 56 26 101.5t72 71t103 25.5t103 -25.5t72 -71
t26 -101.5q0 -57 -26 -102t-72 -70.5t-103 -25.5t-103 25.5zM895.5 1711.5q30.5 30.5 30.5 82.5q0 51 -30.5 81.5t-79.5 30.5t-79.5 -30.5t-30.5 -81.5q0 -52 30.5 -82.5t79.5 -30.5t79.5 30.5z" />
    <glyph glyph-name="uring" unicode="&#x16f;" horiz-adv-x="1319" 
d="M262 87.5q-111 105.5 -111 329.5v671h222v-659q0 -137 62.5 -197t178.5 -60q87 0 171.5 33.5t146.5 98.5v784h222v-1088h-184l-14 116h-11q-77 -65 -174 -99.5t-202 -34.5q-196 0 -307 105.5zM549 1267.5q-46 25.5 -72 71t-26 101.5q0 57 26 102t72 70.5t103 25.5
t103 -25.5t72 -70.5t26 -102q0 -56 -26 -101.5t-72 -71t-103 -25.5t-103 25.5zM731.5 1358.5q30.5 30.5 30.5 81.5q0 52 -30.5 82.5t-79.5 30.5t-79.5 -30.5t-30.5 -82.5q0 -51 30.5 -81.5t79.5 -30.5t79.5 30.5z" />
    <glyph glyph-name="Uhungarumlaut" unicode="&#x170;" horiz-adv-x="1628" 
d="M330.5 137.5q-155.5 156.5 -155.5 478.5v864h227v-885q0 -223 101 -325t313 -102t313 102t101 325v885h222v-864q0 -322 -154.5 -478.5t-481.5 -156.5q-330 0 -485.5 156.5zM538 1604l161 289h180l-174 -289h-167zM927 1604l161 289h180l-174 -289h-167z" />
    <glyph glyph-name="uhungarumlaut" unicode="&#x171;" horiz-adv-x="1319" 
d="M262 87.5q-111 105.5 -111 329.5v671h222v-659q0 -137 62.5 -197t178.5 -60q87 0 171.5 33.5t146.5 98.5v784h222v-1088h-184l-14 116h-11q-77 -65 -174 -99.5t-202 -34.5q-196 0 -307 105.5zM376 1247l175 369h178l-188 -369h-165zM763 1247l175 369h178l-188 -369h-165
z" />
    <glyph glyph-name="Uogonek" unicode="&#x172;" horiz-adv-x="1628" 
d="M1452 1480v-864q0 -253 -93 -402t-289 -203q-154 -42 -220.5 -97t-66.5 -125q0 -55 39 -84.5t116 -29.5q37 0 76 8.5t93 26.5v-95q-95 -36 -194 -36q-131 0 -197.5 51.5t-66.5 145.5q0 60 32 112.5t103 92.5q-313 7 -461 164t-148 471v864h227v-885q0 -223 101 -325
t313 -102t313 102t101 325v885h222z" />
    <glyph glyph-name="uogonek" unicode="&#x173;" horiz-adv-x="1319" 
d="M1234 -290v-96q-82 -37 -176 -37q-117 0 -180.5 51.5t-63.5 139.5q0 70 37.5 128.5t118.5 105.5l-14 114h-11q-77 -65 -174 -99.5t-202 -34.5q-196 0 -307 105.5t-111 329.5v671h222v-659q0 -137 62.5 -197t178.5 -60q87 0 171.5 33.5t146.5 98.5v784h222v-1088
q-112 -51 -159 -102t-47 -115q0 -51 35.5 -80.5t99.5 -29.5q74 0 151 37z" />
    <glyph glyph-name="Wcircumflex" unicode="&#x174;" horiz-adv-x="2456" 
d="M2177 1480h218l-469 -1480h-290l-406 1261l-410 -1261h-290l-471 1480h232l398 -1283l414 1283h259l412 -1291zM1630 1604h-198l-203 199l-203 -199h-198l303 289h196z" />
    <glyph glyph-name="wcircumflex" unicode="&#x175;" horiz-adv-x="1939" 
d="M1653 1088h208l-345 -1088h-258l-287 889l-289 -889h-257l-348 1088h218l271 -871l279 871h257l278 -865zM1334 1247h-178l-185 258l-185 -258h-178l271 369h184z" />
    <glyph glyph-name="Ycircumflex" unicode="&#x176;" horiz-adv-x="1356" 
d="M1376 1480l-583 -832v-648h-227v647l-599 833h249l468 -650l459 650h233zM1078 1604h-198l-203 199l-203 -199h-198l303 289h196z" />
    <glyph glyph-name="ycircumflex" unicode="&#x177;" horiz-adv-x="1246" 
d="M1009 1088h219l-659 -1528h-220l191 440h-54l-468 1088h236l374 -909zM987 1247h-178l-185 258l-185 -258h-178l271 369h184z" />
    <glyph glyph-name="Ydieresis" unicode="&#x178;" horiz-adv-x="1356" 
d="M1376 1480l-583 -832v-648h-227v647l-599 833h249l468 -650l459 650h233zM308.5 1671.5q-32.5 28.5 -32.5 79.5t32.5 80t94.5 29t94.5 -29t32.5 -80t-32.5 -79.5t-94.5 -28.5t-94.5 28.5zM856.5 1671.5q-32.5 28.5 -32.5 79.5t32.5 80t94.5 29t94.5 -29t32.5 -80
t-32.5 -79.5t-94.5 -28.5t-94.5 28.5z" />
    <glyph glyph-name="Zacute" unicode="&#x179;" horiz-adv-x="1344" 
d="M374 182h894v-182h-1193v123l882 1175h-869v182h1168v-123zM567 1604l215 289h242l-250 -289h-207z" />
    <glyph glyph-name="zacute" unicode="&#x17a;" horiz-adv-x="1099" 
d="M376 179h658v-179h-957v141l647 768h-634v179h931v-141zM448 1247l265 369h248l-297 -369h-216z" />
    <glyph glyph-name="Zdotaccent" unicode="&#x17b;" horiz-adv-x="1344" 
d="M374 182h894v-182h-1193v123l882 1175h-869v182h1168v-123zM566 1672q-36 29 -36 79q0 51 35.5 80t106.5 29t106.5 -29t35.5 -80q0 -50 -36 -79t-106 -29t-106 29z" />
    <glyph glyph-name="zdotaccent" unicode="&#x17c;" horiz-adv-x="1099" 
d="M376 179h658v-179h-957v141l647 768h-634v179h931v-141zM448.5 1331q-36.5 31 -36.5 89q0 59 36.5 90.5t107.5 31.5t107.5 -31.5t36.5 -90.5q0 -58 -36.5 -89t-107.5 -31t-107.5 31z" />
    <glyph glyph-name="Zcaron" unicode="&#x17d;" horiz-adv-x="1344" 
d="M374 182h894v-182h-1193v123l882 1175h-869v182h1168v-123zM875 1893h198l-303 -289h-196l-303 289h198l203 -198z" />
    <glyph glyph-name="zcaron" unicode="&#x17e;" horiz-adv-x="1099" 
d="M376 179h658v-179h-957v141l647 768h-634v179h931v-141zM746 1616h177l-275 -369h-184l-275 369h177l190 -260z" />
    <glyph glyph-name="uni018F" unicode="&#x18f;" horiz-adv-x="1684" 
d="M1337 1311.5q230 -187.5 230 -580.5q0 -248 -87.5 -416t-248 -251t-380.5 -83q-229 0 -395.5 83t-257.5 250t-91 414v88h1233q-25 263 -199 381.5t-489 118.5q-108 0 -226.5 -13t-223.5 -38v184q211 50 462 50q443 0 673 -187.5zM1199 274.5q126 117.5 143 375.5h-1002
q17 -257 147 -375t367 -118q219 0 345 117.5z" />
    <glyph glyph-name="florin" unicode="&#x192;" horiz-adv-x="853" 
d="M540 1399.5q-68 -58.5 -68 -187.5v-124h377v-181h-377v-934q0 -208 -123 -320.5t-351 -112.5q-85 0 -175 13v177q81 -12 146 -12q144 0 212.5 59t68.5 187v943h-217v181h217v115q0 209 122.5 321t351.5 112q86 0 174 -13v-177q-81 12 -146 12q-144 0 -212 -58.5z" />
    <glyph glyph-name="Ohorn" unicode="&#x1a0;" horiz-adv-x="1696" 
d="M1513 1111.5q66 -155.5 66 -371.5q0 -252 -89.5 -421.5t-253.5 -253.5t-388 -84q-223 0 -387.5 85t-254 255t-89.5 419t90.5 419t254.5 255t386 85q49 0 103.5 -5t67.5 -6q113 -13 192 -13q110 0 164.5 38.5t54.5 121.5q0 34 -4.5 65.5t-15.5 75.5h153q13 -39 18 -73
t5 -74q0 -118 -67.5 -186.5t-195.5 -82.5q124 -93 190 -248.5zM1216 305.5q131 139.5 131 428.5q0 296 -131.5 438t-367.5 142q-235 0 -367 -139.5t-132 -428.5q0 -298 131 -439t368 -141t368 139.5z" />
    <glyph glyph-name="ohorn" unicode="&#x1a1;" horiz-adv-x="1305" 
d="M1201 544q0 -183 -68 -309.5t-191.5 -190.5t-288.5 -64q-167 0 -290.5 63t-191 189t-67.5 312q0 184 67 309.5t191.5 188.5t297.5 63q47 0 138 -7q50 -5 81 -5q105 0 158 39t53 123q0 34 -4.5 65.5t-15.5 75.5h147q12 -40 17 -73.5t5 -73.5q0 -107 -53.5 -174t-153.5 -90
q169 -141 169 -441zM979 543q0 201 -84 293.5t-242 92.5t-242.5 -92t-84.5 -292q0 -389 327 -389q326 0 326 387z" />
    <glyph glyph-name="Uhorn" unicode="&#x1af;" horiz-adv-x="1628" 
d="M330.5 137.5q-155.5 156.5 -155.5 478.5v864h227v-885q0 -223 101 -325t313 -102t313 102t101 325v885h74q111 0 165 36.5t54 118.5q0 35 -5 66.5t-16 74.5h153q13 -38 18 -71.5t5 -75.5q0 -106 -58.5 -171t-167.5 -82v-760q0 -322 -154.5 -478.5t-481.5 -156.5
q-330 0 -485.5 156.5z" />
    <glyph glyph-name="uhorn" unicode="&#x1b0;" horiz-adv-x="1347" 
d="M1324.5 1064q-59.5 -69 -170.5 -88v-976h-184l-14 116h-11q-77 -65 -174 -99.5t-202 -34.5q-196 0 -307 105.5t-111 329.5v671h222v-659q0 -137 62.5 -197t178.5 -60q87 0 171.5 33.5t146.5 98.5v784h92q105 0 158.5 39t53.5 123q0 35 -5 66.5t-16 74.5h146
q13 -39 18 -73t5 -74q0 -111 -59.5 -180z" />
    <glyph glyph-name="uni01C4" unicode="&#x1c4;" horiz-adv-x="2921" 
d="M183 15v1430q105 23 234.5 36t246.5 13q423 0 638.5 -188t215.5 -566q0 -385 -224 -568.5t-680 -183.5q-220 0 -431 27zM1134 311q152 138 152 431q0 290 -153 429.5t-464 139.5q-114 0 -260 -23v-1100q106 -15 256 -15q317 0 469 138zM1951 182h894v-182h-1193v123
l882 1175h-869v182h1168v-123zM2452 1893h198l-303 -289h-196l-303 289h198l203 -198z" />
    <glyph glyph-name="uni01C5" unicode="&#x1c5;" horiz-adv-x="2734" 
d="M183 15v1430q105 23 234.5 36t246.5 13q423 0 638.5 -188t215.5 -566q0 -385 -224 -568.5t-680 -183.5q-220 0 -431 27zM1134 311q152 138 152 431q0 290 -153 429.5t-464 139.5q-114 0 -260 -23v-1100q106 -15 256 -15q317 0 469 138zM2011 179h658v-179h-957v141
l647 768h-634v179h931v-141zM2394 1573h198l-303 -289h-196l-303 289h198l203 -198z" />
    <glyph glyph-name="uni01C6" unicode="&#x1c6;" horiz-adv-x="2429" 
d="M343.5 39.5q-111.5 57.5 -175.5 178t-64 303.5q0 286 158.5 435.5t456.5 149.5q104 0 224 -19v529h222v-1616h-187l-13 122h-12q-65 -66 -155 -103t-197 -37q-146 0 -257.5 57.5zM813 194.5q75 30.5 130 96.5v618q-99 24 -213 24q-205 0 -304.5 -97t-99.5 -298
q0 -374 328 -374q84 0 159 30.5zM1706 179h658v-179h-957v141l647 768h-634v179h931v-141zM2076 1616h177l-275 -369h-184l-275 369h177l190 -260z" />
    <glyph glyph-name="uni01C7" unicode="&#x1c7;" horiz-adv-x="1833" 
d="M183 0v1480h226v-1297h814v-183h-1040zM1239 -249q98 119 142 247t44 294v1188h225v-1204q-6 -183 -67 -329.5t-201 -293.5z" />
    <glyph glyph-name="uni01C8" unicode="&#x1c8;" horiz-adv-x="1793" 
d="M183 0v1480h226v-1297h814v-183h-1040zM1220 -370q98 119 142 247t44 294v917h222v-908q0 -189 -62.5 -342.5t-204.5 -303.5zM1405.5 1338q-36.5 31 -36.5 89q0 59 36.5 90.5t107.5 31.5t107.5 -31.5t36.5 -90.5q0 -58 -36.5 -89t-107.5 -31t-107.5 31z" />
    <glyph glyph-name="uni01C9" unicode="&#x1c9;" horiz-adv-x="1104" 
d="M165 0v1616h222v-1616h-222zM531 -370q98 119 142 247t44 294v917h222v-908q0 -189 -62.5 -342.5t-204.5 -303.5zM716.5 1338q-36.5 31 -36.5 89q0 59 36.5 90.5t107.5 31.5t107.5 -31.5t36.5 -90.5q0 -58 -36.5 -89t-107.5 -31t-107.5 31z" />
    <glyph glyph-name="uni01CA" unicode="&#x1ca;" horiz-adv-x="2275" 
d="M1286 1480h214v-1480h-230l-873 1168v-1168h-214v1480h230l873 -1168v1168zM1681 -249q98 119 142 247t44 294v1188h225v-1204q-6 -183 -67 -329.5t-201 -293.5z" />
    <glyph glyph-name="uni01CB" unicode="&#x1cb;" horiz-adv-x="2235" 
d="M1286 1480h214v-1480h-230l-873 1168v-1168h-214v1480h230l873 -1168v1168zM1662 -370q98 119 142 247t44 294v917h222v-908q0 -189 -62.5 -342.5t-204.5 -303.5zM1847.5 1338q-36.5 31 -36.5 89q0 59 36.5 90.5t107.5 31.5t107.5 -31.5t36.5 -90.5q0 -58 -36.5 -89
t-107.5 -31t-107.5 31z" />
    <glyph glyph-name="uni01CC" unicode="&#x1cc;" horiz-adv-x="1881" 
d="M165 1088h184l14 -119h13q77 65 177 100.5t209 35.5q195 0 305.5 -107t110.5 -334v-664h-222v655q0 139 -63 199.5t-185 60.5q-87 0 -172.5 -32.5t-148.5 -98.5v-784h-222v1088zM1308 -370q98 119 142 247t44 294v917h222v-908q0 -189 -62.5 -342.5t-204.5 -303.5z
M1493.5 1338q-36.5 31 -36.5 89q0 59 36.5 90.5t107.5 31.5t107.5 -31.5t36.5 -90.5q0 -58 -36.5 -89t-107.5 -31t-107.5 31z" />
    <glyph glyph-name="Gcaron" unicode="&#x1e6;" horiz-adv-x="1567" 
d="M1390 720v-700q-112 -18 -205.5 -26t-194.5 -8q-434 0 -653 188.5t-220 561.5q0 251 102 421.5t292.5 256t455.5 85.5q183 0 376 -46v-187q-184 45 -359 45q-306 -1 -468.5 -140.5t-162.5 -432.5q0 -565 626 -565q107 0 197 9v538h214zM1057 1893h198l-303 -289h-196
l-303 289h198l203 -198z" />
    <glyph glyph-name="gcaron" unicode="&#x1e7;" horiz-adv-x="1330" 
d="M373.5 -446.5q-102.5 13.5 -194.5 41.5v177q201 -59 381 -59q137 0 220.5 33t123 104.5t39.5 190.5v82h-11q-65 -64 -154 -98t-197 -34q-136 0 -244 57.5t-170.5 176.5t-62.5 296q0 285 161 434.5t475 149.5q109 0 219.5 -15t205.5 -43v-966q0 -190 -64.5 -309.5
t-195 -175.5t-332.5 -56q-97 0 -199.5 13.5zM809.5 201.5q76.5 28.5 133.5 87.5v617q-101 26 -223 26q-196 0 -295 -97t-99 -295q0 -193 86.5 -280t237.5 -87q83 0 159.5 28.5zM878 1616h177l-275 -369h-184l-275 369h177l190 -260z" />
    <glyph glyph-name="uni01EA" unicode="&#x1ea;" horiz-adv-x="1696" 
d="M879.5 -89.5q-62.5 -57.5 -62.5 -126.5q0 -53 39.5 -82t116.5 -29q37 0 76 8.5t92 26.5v-95q-94 -36 -194 -36q-129 0 -197 51t-68 140q0 65 32.5 118t105.5 95q-217 6 -374.5 92.5t-243 254.5t-85.5 412q0 249 90.5 419t254.5 255t386 85q223 0 387 -84t254 -254
t90 -421q0 -208 -62 -357.5t-168.5 -239.5t-245.5 -128q-161 -47 -223.5 -104.5zM480 307q131 -141 368 -141t368 139.5t131 428.5q0 296 -131.5 438t-367.5 142q-235 0 -367 -139.5t-132 -428.5q0 -298 131 -439z" />
    <glyph glyph-name="uni01EB" unicode="&#x1eb;" horiz-adv-x="1305" 
d="M649.5 -91.5q-56.5 -56.5 -56.5 -123.5q0 -53 35.5 -82.5t99.5 -29.5q68 0 139 31l12 -91q-83 -36 -177 -36q-115 0 -179 51t-64 140q0 133 131 214q-150 12 -258.5 78.5t-168 188t-59.5 295.5q0 184 66.5 309.5t189.5 188.5t293 63q260 0 404 -141.5t144 -419.5
q0 -217 -92.5 -353t-259.5 -184q-143 -42 -199.5 -98.5zM653 156q326 0 326 387q0 201 -84 293.5t-242 92.5t-242.5 -92t-84.5 -292q0 -389 327 -389z" />
    <glyph glyph-name="uni01F1" unicode="&#x1f1;" horiz-adv-x="2921" 
d="M183 15v1430q105 23 234.5 36t246.5 13q423 0 638.5 -188t215.5 -566q0 -385 -224 -568.5t-680 -183.5q-220 0 -431 27zM1134 311q152 138 152 431q0 290 -153 429.5t-464 139.5q-114 0 -260 -23v-1100q106 -15 256 -15q317 0 469 138zM1951 182h894v-182h-1193v123
l882 1175h-869v182h1168v-123z" />
    <glyph glyph-name="uni01F2" unicode="&#x1f2;" horiz-adv-x="2734" 
d="M183 15v1430q105 23 234.5 36t246.5 13q423 0 638.5 -188t215.5 -566q0 -385 -224 -568.5t-680 -183.5q-220 0 -431 27zM1134 311q152 138 152 431q0 290 -153 429.5t-464 139.5q-114 0 -260 -23v-1100q106 -15 256 -15q317 0 469 138zM2011 179h658v-179h-957v141
l647 768h-634v179h931v-141z" />
    <glyph glyph-name="uni01F3" unicode="&#x1f3;" horiz-adv-x="2429" 
d="M343.5 39.5q-111.5 57.5 -175.5 178t-64 303.5q0 286 158.5 435.5t456.5 149.5q104 0 224 -19v529h222v-1616h-187l-13 122h-12q-65 -66 -155 -103t-197 -37q-146 0 -257.5 57.5zM813 194.5q75 30.5 130 96.5v618q-99 24 -213 24q-205 0 -304.5 -97t-99.5 -298
q0 -374 328 -374q84 0 159 30.5zM1706 179h658v-179h-957v141l647 768h-634v179h931v-141z" />
    <glyph glyph-name="uni01F4" unicode="&#x1f4;" horiz-adv-x="1567" 
d="M1390 720v-700q-112 -18 -205.5 -26t-194.5 -8q-434 0 -653 188.5t-220 561.5q0 251 102 421.5t292.5 256t455.5 85.5q183 0 376 -46v-187q-184 45 -359 45q-306 -1 -468.5 -140.5t-162.5 -432.5q0 -565 626 -565q107 0 197 9v538h214zM749 1604l215 289h242l-250 -289
h-207z" />
    <glyph glyph-name="uni01F5" unicode="&#x1f5;" horiz-adv-x="1330" 
d="M373.5 -446.5q-102.5 13.5 -194.5 41.5v177q201 -59 381 -59q137 0 220.5 33t123 104.5t39.5 190.5v82h-11q-65 -64 -154 -98t-197 -34q-136 0 -244 57.5t-170.5 176.5t-62.5 296q0 285 161 434.5t475 149.5q109 0 219.5 -15t205.5 -43v-966q0 -190 -64.5 -309.5
t-195 -175.5t-332.5 -56q-97 0 -199.5 13.5zM809.5 201.5q76.5 28.5 133.5 87.5v617q-101 26 -223 26q-196 0 -295 -97t-99 -295q0 -193 86.5 -280t237.5 -87q83 0 159.5 28.5zM580 1247l265 369h248l-297 -369h-216z" />
    <glyph glyph-name="Aringacute" unicode="&#x1fa;" horiz-adv-x="1566" 
d="M1303 0l-176 453h-691l-176 -453h-224l587 1480h320l587 -1480h-227zM505 629h553l-276 710zM951 1906q33 -49 33 -112q0 -57 -26 -102t-72 -70.5t-103 -25.5t-103 25.5t-72 70.5t-26 102q0 56 26 101.5t72 71t103 25.5q41 0 77 -14l117 129h164zM862.5 1711.5
q30.5 30.5 30.5 82.5q0 51 -30.5 81.5t-79.5 30.5t-79.5 -30.5t-30.5 -81.5q0 -52 30.5 -82.5t79.5 -30.5t79.5 30.5z" />
    <glyph glyph-name="aringacute" unicode="&#x1fb;" horiz-adv-x="1199" 
d="M832 1064.5q108 -40.5 162 -134.5t54 -256v-674h-186l-16 117h-12q-61 -64 -154 -99.5t-198 -35.5q-120 0 -205 37.5t-129 105.5t-44 160q0 145 108.5 224.5t345.5 100.5l272 27v52q0 96 -33 150t-99.5 76t-176.5 22q-76 0 -164.5 -13t-169.5 -39v166q80 26 177.5 40
t187.5 14q172 0 280 -40.5zM696 164.5q75 28.5 134 85.5v255l-255 -25q-133 -15 -190 -57.5t-57 -120.5q0 -79 53 -122.5t160 -43.5q80 0 155 28.5zM763 1554q34 -49 34 -114q0 -56 -26 -101.5t-72 -71t-103 -25.5t-103 25.5t-72 71t-26 101.5q0 57 26 102t72 70.5t103 25.5
q39 0 76 -13l130 155h164zM675.5 1358.5q30.5 30.5 30.5 81.5q0 52 -30.5 82.5t-79.5 30.5t-79.5 -30.5t-30.5 -82.5q0 -51 30.5 -81.5t79.5 -30.5t79.5 30.5z" />
    <glyph glyph-name="AEacute" unicode="&#x1fc;" horiz-adv-x="2127" 
d="M1269 176h758v-176h-971l-38 453h-579l-179 -453h-224l593 1480h1388v-176h-850l41 -457h707v-177h-691zM508 629h495l-57 675h-171zM944 1604l215 289h242l-250 -289h-207z" />
    <glyph glyph-name="aeacute" unicode="&#x1fd;" horiz-adv-x="1915" 
d="M1829 478h-780q6 -118 50.5 -190.5t133 -106.5t227.5 -34q141 0 308 43v-165q-174 -45 -339 -45q-348 0 -492 185q-188 -183 -438 -183q-127 0 -216 37.5t-134 106t-45 161.5q0 152 116 238.5t359 86.5h251v77q0 96 -33 150t-99.5 76t-176.5 22q-76 0 -164.5 -13
t-169.5 -39v166q81 26 174.5 40t182.5 14q162 0 265.5 -39.5t155.5 -130.5q64 83 161 126.5t221 43.5q154 0 262 -65.5t164 -192.5t56 -308v-61zM1126 873.5q-73 -84.5 -78 -261.5h572q-4 176 -75 261t-208 85q-138 0 -211 -84.5zM871 285q-32 86 -39 195h-241
q-140 0 -201.5 -47.5t-61.5 -129.5q0 -80 54 -123.5t161 -43.5q190 0 328 149zM836 1247l265 369h248l-297 -369h-216z" />
    <glyph glyph-name="Oslashacute" unicode="&#x1fe;" horiz-adv-x="1696" 
d="M1535 1048.5q44 -135.5 44 -308.5q0 -248 -90.5 -418t-254.5 -255.5t-386 -85.5q-284 0 -466 133l-130 -148l-95 84l132 150q-172 197 -172 540q0 249 90.5 419t254.5 255t386 85q139 0 257 -34t208 -100l131 149l95 -84l-132 -150q84 -96 128 -231.5zM436 367l741 843
q-125 104 -329 104q-235 0 -367 -139.5t-132 -428.5q0 -238 87 -379zM1216 305.5q131 139.5 131 428.5q0 237 -87 378l-741 -843q122 -103 329 -103q237 0 368 139.5zM736 1604l215 289h242l-250 -289h-207z" />
    <glyph glyph-name="oslashacute" unicode="&#x1ff;" horiz-adv-x="1305" 
d="M1201 544q0 -183 -68 -309.5t-191.5 -190.5t-288.5 -64q-184 0 -311 74l-78 -99l-91 75l76 96q-145 145 -145 418q0 184 66.5 309.5t189.5 188.5t293 63q185 0 311 -71l78 99l91 -75l-75 -95q143 -145 143 -419zM408.5 838q-84.5 -92 -84.5 -293q0 -165 58 -260l467 595
q-76 50 -196 50q-160 0 -244.5 -92zM981 543q0 166 -58 259l-467 -595q75 -52 197 -52q328 0 328 388zM536 1247l265 369h248l-297 -369h-216z" />
    <glyph glyph-name="uni0200" unicode="&#x200;" horiz-adv-x="1566" 
d="M1303 0l-176 453h-691l-176 -453h-224l587 1480h320l587 -1480h-227zM505 629h553l-276 710zM505 1604l-174 289h180l161 -289h-167zM894 1604l-174 289h180l161 -289h-167z" />
    <glyph glyph-name="uni0201" unicode="&#x201;" horiz-adv-x="1199" 
d="M832 1064.5q108 -40.5 162 -134.5t54 -256v-674h-186l-16 117h-12q-61 -64 -154 -99.5t-198 -35.5q-120 0 -205 37.5t-129 105.5t-44 160q0 145 108.5 224.5t345.5 100.5l272 27v52q0 96 -33 150t-99.5 76t-176.5 22q-76 0 -164.5 -13t-169.5 -39v166q80 26 177.5 40
t187.5 14q172 0 280 -40.5zM696 164.5q75 28.5 134 85.5v255l-255 -25q-133 -15 -190 -57.5t-57 -120.5q0 -79 53 -122.5t160 -43.5q80 0 155 28.5zM318 1247l-188 369h180l175 -369h-167zM707 1247l-188 369h180l175 -369h-167z" />
    <glyph glyph-name="uni0202" unicode="&#x202;" horiz-adv-x="1566" 
d="M1303 0l-176 453h-691l-176 -453h-224l587 1480h320l587 -1480h-227zM505 629h553l-276 710zM509 1813q95 73 273 73t274 -73t112 -192h-143q-15 70 -72 109t-171 39t-170 -38.5t-71 -109.5h-143q16 119 111 192z" />
    <glyph glyph-name="uni0203" unicode="&#x203;" horiz-adv-x="1199" 
d="M832 1064.5q108 -40.5 162 -134.5t54 -256v-674h-186l-16 117h-12q-61 -64 -154 -99.5t-198 -35.5q-120 0 -205 37.5t-129 105.5t-44 160q0 145 108.5 224.5t345.5 100.5l272 27v52q0 96 -33 150t-99.5 76t-176.5 22q-76 0 -164.5 -13t-169.5 -39v166q80 26 177.5 40
t187.5 14q172 0 280 -40.5zM696 164.5q75 28.5 134 85.5v255l-255 -25q-133 -15 -190 -57.5t-57 -120.5q0 -79 53 -122.5t160 -43.5q80 0 155 28.5zM333 1520q92 90 262 90q113 0 193 -41.5t123 -117t48 -176.5h-141q-9 101 -63.5 157.5t-159.5 56.5q-203 0 -221 -214h-141
q8 155 100 245z" />
    <glyph glyph-name="uni0204" unicode="&#x204;" horiz-adv-x="1367" 
d="M407 176h861v-176h-1085v1480h1075v-176h-851v-457h748v-177h-748v-494zM464 1604l-174 289h180l161 -289h-167zM853 1604l-174 289h180l161 -289h-167z" />
    <glyph glyph-name="uni0205" unicode="&#x205;" horiz-adv-x="1200" 
d="M1114 478h-789q6 -118 51 -190.5t135 -106.5t231 -34q140 0 310 43v-165q-177 -45 -341 -45q-304 0 -455.5 137.5t-151.5 424.5q0 180 61 306t176.5 191.5t278.5 65.5q240 0 367 -146.5t127 -422.5v-58zM403 873.5q-74 -84.5 -79 -261.5h581q-4 177 -76 261.5t-212 84.5
t-214 -84.5zM343 1247l-188 369h180l175 -369h-167zM732 1247l-188 369h180l175 -369h-167z" />
    <glyph glyph-name="uni0206" unicode="&#x206;" horiz-adv-x="1367" 
d="M407 176h861v-176h-1085v1480h1075v-176h-851v-457h748v-177h-748v-494zM468 1813q95 73 273 73t274 -73t112 -192h-143q-15 70 -72 109t-171 39t-170 -38.5t-71 -109.5h-143q16 119 111 192z" />
    <glyph glyph-name="uni0207" unicode="&#x207;" horiz-adv-x="1200" 
d="M1114 478h-789q6 -118 51 -190.5t135 -106.5t231 -34q140 0 310 43v-165q-177 -45 -341 -45q-304 0 -455.5 137.5t-151.5 424.5q0 180 61 306t176.5 191.5t278.5 65.5q240 0 367 -146.5t127 -422.5v-58zM403 873.5q-74 -84.5 -79 -261.5h581q-4 177 -76 261.5t-212 84.5
t-214 -84.5zM358 1520q92 90 262 90q113 0 193 -41.5t123 -117t48 -176.5h-141q-9 101 -63.5 157.5t-159.5 56.5q-203 0 -221 -214h-141q8 155 100 245z" />
    <glyph glyph-name="uni0208" unicode="&#x208;" horiz-adv-x="592" 
d="M183 0v1480h226v-1480h-226zM18 1604l-174 289h180l161 -289h-167zM407 1604l-174 289h180l161 -289h-167z" />
    <glyph glyph-name="uni0209" unicode="&#x209;" horiz-adv-x="552" 
d="M165 0v1088h222v-1088h-222zM-2 1247l-188 369h180l175 -369h-167zM387 1247l-188 369h180l175 -369h-167z" />
    <glyph glyph-name="uni020A" unicode="&#x20a;" horiz-adv-x="592" 
d="M183 0v1480h226v-1480h-226zM22 1813q95 73 273 73t274 -73t112 -192h-143q-15 70 -72 109t-171 39t-170 -38.5t-71 -109.5h-143q16 119 111 192z" />
    <glyph glyph-name="uni020B" unicode="&#x20b;" horiz-adv-x="552" 
d="M165 0v1088h222v-1088h-222zM13 1520q92 90 262 90q113 0 193 -41.5t123 -117t48 -176.5h-141q-9 101 -63.5 157.5t-159.5 56.5q-203 0 -221 -214h-141q8 155 100 245z" />
    <glyph glyph-name="uni020C" unicode="&#x20c;" horiz-adv-x="1696" 
d="M460.5 66q-164.5 85 -254 255t-89.5 419t90.5 419t254.5 255t386 85q224 0 388 -85t253.5 -255.5t89.5 -418.5t-90.5 -418t-254.5 -255.5t-386 -85.5q-223 0 -387.5 85zM1216 305.5q131 139.5 131 428.5q0 296 -131.5 438t-367.5 142q-235 0 -367 -139.5t-132 -428.5
q0 -298 131 -439t368 -141t368 139.5zM570 1604l-174 289h180l161 -289h-167zM959 1604l-174 289h180l161 -289h-167z" />
    <glyph glyph-name="uni020D" unicode="&#x20d;" horiz-adv-x="1305" 
d="M362.5 43q-123.5 63 -191 189t-67.5 312q0 184 66.5 309.5t189.5 188.5t293 63q260 0 404 -141.5t144 -419.5q0 -183 -68 -309.5t-191.5 -190.5t-288.5 -64q-167 0 -290.5 63zM979 543q0 201 -84 293.5t-242 92.5t-242.5 -92t-84.5 -292q0 -389 327 -389q326 0 326 387z
M375 1247l-188 369h180l175 -369h-167zM764 1247l-188 369h180l175 -369h-167z" />
    <glyph glyph-name="uni020E" unicode="&#x20e;" horiz-adv-x="1696" 
d="M460.5 66q-164.5 85 -254 255t-89.5 419t90.5 419t254.5 255t386 85q224 0 388 -85t253.5 -255.5t89.5 -418.5t-90.5 -418t-254.5 -255.5t-386 -85.5q-223 0 -387.5 85zM1216 305.5q131 139.5 131 428.5q0 296 -131.5 438t-367.5 142q-235 0 -367 -139.5t-132 -428.5
q0 -298 131 -439t368 -141t368 139.5zM574 1813q95 73 273 73t274 -73t112 -192h-143q-15 70 -72 109t-171 39t-170 -38.5t-71 -109.5h-143q16 119 111 192z" />
    <glyph glyph-name="uni020F" unicode="&#x20f;" horiz-adv-x="1305" 
d="M362.5 43q-123.5 63 -191 189t-67.5 312q0 184 66.5 309.5t189.5 188.5t293 63q260 0 404 -141.5t144 -419.5q0 -183 -68 -309.5t-191.5 -190.5t-288.5 -64q-167 0 -290.5 63zM979 543q0 201 -84 293.5t-242 92.5t-242.5 -92t-84.5 -292q0 -389 327 -389q326 0 326 387z
M390 1520q92 90 262 90q113 0 193 -41.5t123 -117t48 -176.5h-141q-9 101 -63.5 157.5t-159.5 56.5q-203 0 -221 -214h-141q8 155 100 245z" />
    <glyph glyph-name="uni0210" unicode="&#x210;" horiz-adv-x="1475" 
d="M1163 0l-471 590q-18 -1 -55 -1q-99 0 -232 10v-599h-222v1445q227 51 469 51q329 0 488 -107.5t159 -342.5q0 -170 -95.5 -278t-282.5 -151l497 -617h-255zM405 769q68 -7 119.5 -10t121.5 -3q230 0 335 69.5t105 217.5q0 105 -43.5 168t-135 91t-240.5 28
q-75 0 -135 -6t-127 -18v-537zM446 1604l-174 289h180l161 -289h-167zM835 1604l-174 289h180l161 -289h-167z" />
    <glyph glyph-name="uni0211" unicode="&#x211;" horiz-adv-x="849" 
d="M165 1088h183l17 -139h13q59 71 152.5 111t195.5 40q58 0 109 -10v-199q-49 9 -120 9q-88 0 -179 -34t-149 -101v-765h-222v1088zM222 1247l-188 369h180l175 -369h-167zM611 1247l-188 369h180l175 -369h-167z" />
    <glyph glyph-name="uni0212" unicode="&#x212;" horiz-adv-x="1475" 
d="M1163 0l-471 590q-18 -1 -55 -1q-99 0 -232 10v-599h-222v1445q227 51 469 51q329 0 488 -107.5t159 -342.5q0 -170 -95.5 -278t-282.5 -151l497 -617h-255zM405 769q68 -7 119.5 -10t121.5 -3q230 0 335 69.5t105 217.5q0 105 -43.5 168t-135 91t-240.5 28
q-75 0 -135 -6t-127 -18v-537zM450 1813q95 73 273 73t274 -73t112 -192h-143q-15 70 -72 109t-171 39t-170 -38.5t-71 -109.5h-143q16 119 111 192z" />
    <glyph glyph-name="uni0213" unicode="&#x213;" horiz-adv-x="849" 
d="M165 1088h183l17 -139h13q59 71 152.5 111t195.5 40q58 0 109 -10v-199q-49 9 -120 9q-88 0 -179 -34t-149 -101v-765h-222v1088zM237 1520q92 90 262 90q113 0 193 -41.5t123 -117t48 -176.5h-141q-9 101 -63.5 157.5t-159.5 56.5q-203 0 -221 -214h-141q8 155 100 245z
" />
    <glyph glyph-name="uni0214" unicode="&#x214;" horiz-adv-x="1628" 
d="M330.5 137.5q-155.5 156.5 -155.5 478.5v864h227v-885q0 -223 101 -325t313 -102t313 102t101 325v885h222v-864q0 -322 -154.5 -478.5t-481.5 -156.5q-330 0 -485.5 156.5zM538 1604l-174 289h180l161 -289h-167zM927 1604l-174 289h180l161 -289h-167z" />
    <glyph glyph-name="uni0215" unicode="&#x215;" horiz-adv-x="1319" 
d="M262 87.5q-111 105.5 -111 329.5v671h222v-659q0 -137 62.5 -197t178.5 -60q87 0 171.5 33.5t146.5 98.5v784h222v-1088h-184l-14 116h-11q-77 -65 -174 -99.5t-202 -34.5q-196 0 -307 105.5zM374 1247l-188 369h180l175 -369h-167zM763 1247l-188 369h180l175 -369h-167
z" />
    <glyph glyph-name="uni0216" unicode="&#x216;" horiz-adv-x="1628" 
d="M330.5 137.5q-155.5 156.5 -155.5 478.5v864h227v-885q0 -223 101 -325t313 -102t313 102t101 325v885h222v-864q0 -322 -154.5 -478.5t-481.5 -156.5q-330 0 -485.5 156.5zM542 1813q95 73 273 73t274 -73t112 -192h-143q-15 70 -72 109t-171 39t-170 -38.5t-71 -109.5
h-143q16 119 111 192z" />
    <glyph glyph-name="uni0217" unicode="&#x217;" horiz-adv-x="1319" 
d="M262 87.5q-111 105.5 -111 329.5v671h222v-659q0 -137 62.5 -197t178.5 -60q87 0 171.5 33.5t146.5 98.5v784h222v-1088h-184l-14 116h-11q-77 -65 -174 -99.5t-202 -34.5q-196 0 -307 105.5zM389 1520q92 90 262 90q113 0 193 -41.5t123 -117t48 -176.5h-141
q-9 101 -63.5 157.5t-159.5 56.5q-203 0 -221 -214h-141q8 155 100 245z" />
    <glyph glyph-name="Scommaaccent" unicode="&#x218;" horiz-adv-x="1241" 
d="M115 48v184q102 -34 219.5 -52t220.5 -18q193 0 283.5 61.5t90.5 181.5q0 67 -29.5 110.5t-94.5 72.5t-178 51l-100 20q-230 45 -335 145t-105 267q0 204 154.5 316t454.5 112q210 0 387 -51v-185q-87 26 -186 40.5t-198 14.5q-387 0 -387 -238q0 -66 26 -109.5t85 -72.5
t162 -50l100 -19q168 -33 271.5 -88t150.5 -135t47 -190q0 -137 -71 -235t-206.5 -149t-324.5 -51q-234 0 -437 67zM765 -275q0 -47 -17 -101.5t-47 -99.5h-136q37 79 46 142q-58 3 -86 26.5t-28 63.5q0 43 33 67t99 24q136 0 136 -122z" />
    <glyph glyph-name="scommaaccent" unicode="&#x219;" horiz-adv-x="1074" 
d="M125 28v161q179 -50 373 -50q150 0 216 40.5t66 118.5q0 42 -15 69.5t-51 46t-99 28.5l-193 30q-168 27 -242.5 102t-74.5 201q0 153 126.5 241.5t386.5 88.5q82 0 163.5 -10.5t150.5 -30.5v-160q-152 42 -313 42q-165 0 -233 -43t-68 -119q0 -57 35 -92.5t125 -51.5
l193 -30q167 -26 245 -96t78 -203q0 -103 -55.5 -177t-167 -114t-274.5 -40q-205 0 -372 48zM679 -275q0 -47 -17 -101.5t-47 -99.5h-136q37 79 46 142q-58 3 -86 26.5t-28 63.5q0 43 33 67t99 24q136 0 136 -122z" />
    <glyph glyph-name="uni021A" unicode="&#x21a;" horiz-adv-x="1356" 
d="M565 0v1297h-544v183h1314v-183h-544v-1297h-226zM812 -275q0 -47 -17 -101.5t-47 -99.5h-136q37 79 46 142q-58 3 -86 26.5t-28 63.5q0 43 33 67t99 24q136 0 136 -122z" />
    <glyph glyph-name="uni021B" unicode="&#x21b;" horiz-adv-x="885" 
d="M774 166q33 4 82 14v-176q-102 -24 -203 -24q-201 0 -306 98t-105 296v535h-217v179h217l38 392h184v-392h377v-179h-377v-494q0 -135 60 -194t185 -59q32 0 65 4zM683 -275q0 -47 -17 -101.5t-47 -99.5h-136q37 79 46 142q-58 3 -86 26.5t-28 63.5q0 43 33 67t99 24
q136 0 136 -122z" />
    <glyph glyph-name="uni022A" unicode="&#x22a;" horiz-adv-x="1696" 
d="M460.5 66q-164.5 85 -254 255t-89.5 419t90.5 419t254.5 255t386 85q224 0 388 -85t253.5 -255.5t89.5 -418.5t-90.5 -418t-254.5 -255.5t-386 -85.5q-223 0 -387.5 85zM1216 305.5q131 139.5 131 428.5q0 296 -131.5 438t-367.5 142q-235 0 -367 -139.5t-132 -428.5
q0 -298 131 -439t368 -141t368 139.5zM479.5 1671.5q-32.5 28.5 -32.5 79.5t32.5 80t94.5 29t94.5 -29t32.5 -80t-32.5 -79.5t-94.5 -28.5t-94.5 28.5zM1027.5 1671.5q-32.5 28.5 -32.5 79.5t32.5 80t94.5 29t94.5 -29t32.5 -80t-32.5 -79.5t-94.5 -28.5t-94.5 28.5z
M492 2001v134h712v-134h-712z" />
    <glyph glyph-name="uni022B" unicode="&#x22b;" horiz-adv-x="1305" 
d="M362.5 43q-123.5 63 -191 189t-67.5 312q0 184 66.5 309.5t189.5 188.5t293 63q260 0 404 -141.5t144 -419.5q0 -183 -68 -309.5t-191.5 -190.5t-288.5 -64q-167 0 -290.5 63zM979 543q0 201 -84 293.5t-242 92.5t-242.5 -92t-84.5 -292q0 -389 327 -389q326 0 326 387z
M299 1333q-33 31 -33 87t33 88t96 32t96 -32t33 -88t-33 -87t-96 -31t-96 31zM815 1333q-33 31 -33 87t33 88t96 32t96 -32t33 -88t-33 -87t-96 -31t-96 31zM298 1734v134h710v-134h-710z" />
    <glyph glyph-name="uni022C" unicode="&#x22c;" horiz-adv-x="1696" 
d="M460.5 66q-164.5 85 -254 255t-89.5 419t90.5 419t254.5 255t386 85q224 0 388 -85t253.5 -255.5t89.5 -418.5t-90.5 -418t-254.5 -255.5t-386 -85.5q-223 0 -387.5 85zM1216 305.5q131 139.5 131 428.5q0 296 -131.5 438t-367.5 142q-235 0 -367 -139.5t-132 -428.5
q0 -298 131 -439t368 -141t368 139.5zM933 1664q-42 10 -101 29q-53 18 -89 26.5t-74 8.5q-61 0 -107.5 -16.5t-91.5 -51.5v132q38 34 87 50t116 16q48 0 90 -10t101 -29q53 -18 89 -26.5t74 -8.5q61 0 107.5 16t91.5 52v-132q-38 -34 -86.5 -50t-116.5 -16q-48 0 -90 10z
M492 2001v134h712v-134h-712z" />
    <glyph glyph-name="uni022D" unicode="&#x22d;" horiz-adv-x="1305" 
d="M362.5 43q-123.5 63 -191 189t-67.5 312q0 184 66.5 309.5t189.5 188.5t293 63q260 0 404 -141.5t144 -419.5q0 -183 -68 -309.5t-191.5 -190.5t-288.5 -64q-167 0 -290.5 63zM979 543q0 201 -84 293.5t-242 92.5t-242.5 -92t-84.5 -292q0 -389 327 -389q326 0 326 387z
M732 1337.5q-39 11.5 -95 33.5q-50 20 -83.5 29.5t-66.5 9.5q-55 0 -100 -18.5t-89 -59.5v143q37 36 84.5 53t109.5 17q43 0 82 -11.5t95 -33.5q50 -20 83.5 -29.5t66.5 -9.5q55 0 100 18.5t89 59.5v-143q-37 -36 -84.5 -53t-109.5 -17q-43 0 -82 11.5zM298 1734v134h710
v-134h-710z" />
    <glyph glyph-name="uni0230" unicode="&#x230;" horiz-adv-x="1696" 
d="M460.5 66q-164.5 85 -254 255t-89.5 419t90.5 419t254.5 255t386 85q224 0 388 -85t253.5 -255.5t89.5 -418.5t-90.5 -418t-254.5 -255.5t-386 -85.5q-223 0 -387.5 85zM1216 305.5q131 139.5 131 428.5q0 296 -131.5 438t-367.5 142q-235 0 -367 -139.5t-132 -428.5
q0 -298 131 -439t368 -141t368 139.5zM742 1672q-36 29 -36 79q0 51 35.5 80t106.5 29t106.5 -29t35.5 -80q0 -50 -36 -79t-106 -29t-106 29zM492 2001v134h712v-134h-712z" />
    <glyph glyph-name="uni0231" unicode="&#x231;" horiz-adv-x="1305" 
d="M362.5 43q-123.5 63 -191 189t-67.5 312q0 184 66.5 309.5t189.5 188.5t293 63q260 0 404 -141.5t144 -419.5q0 -183 -68 -309.5t-191.5 -190.5t-288.5 -64q-167 0 -290.5 63zM979 543q0 201 -84 293.5t-242 92.5t-242.5 -92t-84.5 -292q0 -389 327 -389q326 0 326 387z
M545.5 1331q-36.5 31 -36.5 89q0 59 36.5 90.5t107.5 31.5t107.5 -31.5t36.5 -90.5q0 -58 -36.5 -89t-107.5 -31t-107.5 31zM298 1680v134h710v-134h-710z" />
    <glyph glyph-name="uni0232" unicode="&#x232;" horiz-adv-x="1356" 
d="M1376 1480l-583 -832v-648h-227v647l-599 833h249l468 -650l459 650h233zM321 1682v134h712v-134h-712z" />
    <glyph glyph-name="uni0233" unicode="&#x233;" horiz-adv-x="1246" 
d="M1009 1088h219l-659 -1528h-220l191 440h-54l-468 1088h236l374 -909zM269 1355v134h710v-134h-710z" />
    <glyph glyph-name="uni0237" unicode="&#x237;" horiz-adv-x="552" 
d="M-21 -370q98 119 142 247t44 294v917h222v-908q0 -189 -62.5 -342.5t-204.5 -303.5z" />
    <glyph glyph-name="uni0259" unicode="&#x259;" horiz-adv-x="1200" 
d="M944.5 970.5q151.5 -137.5 151.5 -424.5q0 -180 -61 -306t-176.5 -191.5t-278.5 -65.5q-240 0 -367 146.5t-127 422.5v58h789q-6 118 -51 190.5t-135 106.5t-231 34q-140 0 -310 -43v165q177 45 341 45q304 0 455.5 -137.5zM797 214.5q74 84.5 79 261.5h-581
q4 -177 76 -261.5t212 -84.5t214 84.5z" />
    <glyph glyph-name="uni02BB" unicode="&#x2bb;" horiz-adv-x="1200" 
d="M706 1456.5q28 -23.5 28 -63.5q0 -43 -33 -67t-99 -24q-136 0 -136 122q0 47 17 102t47 100h136q-39 -84 -46 -143q58 -3 86 -26.5z" />
    <glyph glyph-name="uni02BC" unicode="&#x2bc;" horiz-adv-x="1200" 
d="M869 1504q0 -47 -17.5 -101.5t-47.5 -100.5h-135q38 81 45 143q-58 3 -86 26.5t-28 63.5q0 42 33.5 66.5t98.5 24.5q137 0 137 -122z" />
    <glyph glyph-name="uni02BE" unicode="&#x2be;" horiz-adv-x="1200" 
d="M600 1328q49 0 79.5 30.5t30.5 81.5q0 52 -30.5 82.5t-79.5 30.5v85q57 0 103 -25.5t72 -70.5t26 -102q0 -56 -26 -101.5t-72 -71t-103 -25.5v86z" />
    <glyph glyph-name="uni02BF" unicode="&#x2bf;" horiz-adv-x="1200" 
d="M497 1267.5q-46 25.5 -72 71t-26 101.5q0 57 26 102t72 70.5t103 25.5v-85q-49 0 -79.5 -30.5t-30.5 -82.5q0 -51 30.5 -81.5t79.5 -30.5v-86q-57 0 -103 25.5z" />
    <glyph glyph-name="circumflex" unicode="&#x2c6;" horiz-adv-x="1200" 
d="M963 1247h-178l-185 258l-185 -258h-178l271 369h184z" />
    <glyph glyph-name="caron" unicode="&#x2c7;" horiz-adv-x="1200" 
d="M790 1616h177l-275 -369h-184l-275 369h177l190 -260z" />
    <glyph glyph-name="uni02C8" unicode="&#x2c8;" horiz-adv-x="1200" 
d="M547 1218v400h106v-400h-106z" />
    <glyph glyph-name="uni02C9" unicode="&#x2c9;" horiz-adv-x="1200" 
d="M245 1355v134h710v-134h-710z" />
    <glyph glyph-name="uni02CA" unicode="&#x2ca;" horiz-adv-x="1200" 
d="M489 1247l264 369h256l-298 -369h-222z" />
    <glyph glyph-name="uni02CB" unicode="&#x2cb;" horiz-adv-x="1200" 
d="M489 1247l-298 369h256l264 -369h-222z" />
    <glyph glyph-name="uni02CC" unicode="&#x2cc;" horiz-adv-x="1200" 
d="M547 -440v400h106v-400h-106z" />
    <glyph glyph-name="breve" unicode="&#x2d8;" horiz-adv-x="1200" 
d="M408 1297.5q-80 41.5 -123 117t-48 176.5h141q18 -215 223 -215q203 0 221 215h141q-8 -155 -101 -245t-261 -90q-113 0 -193 41.5z" />
    <glyph glyph-name="dotaccent" unicode="&#x2d9;" horiz-adv-x="1200" 
d="M492.5 1331q-36.5 31 -36.5 89q0 59 36.5 90.5t107.5 31.5t107.5 -31.5t36.5 -90.5q0 -58 -36.5 -89t-107.5 -31t-107.5 31z" />
    <glyph glyph-name="ring" unicode="&#x2da;" horiz-adv-x="1200" 
d="M497 1267.5q-46 25.5 -72 71t-26 101.5q0 57 26 102t72 70.5t103 25.5t103 -25.5t72 -70.5t26 -102q0 -56 -26 -101.5t-72 -71t-103 -25.5t-103 25.5zM679.5 1358.5q30.5 30.5 30.5 81.5q0 52 -30.5 82.5t-79.5 30.5t-79.5 -30.5t-30.5 -82.5q0 -51 30.5 -81.5
t79.5 -30.5t79.5 30.5z" />
    <glyph glyph-name="ogonek" unicode="&#x2db;" horiz-adv-x="1200" 
d="M290.5 -371.5q-63.5 51.5 -63.5 139.5q0 92 66.5 165t215.5 127l58 -60q-112 -51 -159 -102t-47 -115q0 -51 35.5 -80.5t99.5 -29.5q74 0 151 37v-96q-82 -37 -176 -37q-117 0 -180.5 51.5z" />
    <glyph glyph-name="tilde" unicode="&#x2dc;" horiz-adv-x="1200" 
d="M679 1337.5q-39 11.5 -95 33.5q-50 20 -83.5 29.5t-66.5 9.5q-55 0 -100 -18.5t-89 -59.5v143q37 36 84.5 53t109.5 17q43 0 82 -11.5t95 -33.5q50 -20 83.5 -29.5t66.5 -9.5q55 0 100 18.5t89 59.5v-143q-37 -36 -84.5 -53t-109.5 -17q-43 0 -82 11.5z" />
    <glyph glyph-name="hungarumlaut" unicode="&#x2dd;" horiz-adv-x="1200" 
d="M324 1247l175 369h178l-188 -369h-165zM711 1247l175 369h178l-188 -369h-165z" />
    <glyph glyph-name="gravecomb" unicode="&#x300;" horiz-adv-x="0" 
d="M-708 1247l-297 369h248l265 -369h-216z" />
    <glyph glyph-name="acutecomb" unicode="&#x301;" horiz-adv-x="0" 
d="M-708 1247l265 369h248l-297 -369h-216z" />
    <glyph glyph-name="uni0302" unicode="&#x302;" horiz-adv-x="0" 
d="M-237 1247h-178l-185 258l-185 -258h-178l271 369h184z" />
    <glyph glyph-name="tildecomb" unicode="&#x303;" horiz-adv-x="0" 
d="M-521 1337.5q-39 11.5 -95 33.5q-50 20 -83.5 29.5t-66.5 9.5q-55 0 -100 -18.5t-89 -59.5v143q37 36 84.5 53t109.5 17q43 0 82 -11.5t95 -33.5q50 -20 83.5 -29.5t66.5 -9.5q55 0 100 18.5t89 59.5v-143q-37 -36 -84.5 -53t-109.5 -17q-43 0 -82 11.5z" />
    <glyph glyph-name="uni0304" unicode="&#x304;" horiz-adv-x="0" 
d="M-955 1355v134h710v-134h-710z" />
    <glyph glyph-name="uni0306" unicode="&#x306;" horiz-adv-x="0" 
d="M-792 1297.5q-80 41.5 -123 117t-48 176.5h141q18 -215 223 -215q203 0 221 215h141q-8 -155 -101 -245t-261 -90q-113 0 -193 41.5z" />
    <glyph glyph-name="uni0307" unicode="&#x307;" horiz-adv-x="0" 
d="M-707.5 1331q-36.5 31 -36.5 89q0 59 36.5 90.5t107.5 31.5t107.5 -31.5t36.5 -90.5q0 -58 -36.5 -89t-107.5 -31t-107.5 31z" />
    <glyph glyph-name="uni0308" unicode="&#x308;" horiz-adv-x="0" 
d="M-954 1333q-33 31 -33 87t33 88t96 32t96 -32t33 -88t-33 -87t-96 -31t-96 31zM-438 1333q-33 31 -33 87t33 88t96 32t96 -32t33 -88t-33 -87t-96 -31t-96 31z" />
    <glyph glyph-name="hookabovecomb" unicode="&#x309;" horiz-adv-x="0" 
d="M-643 1314q16 28 37 45.5t53 37.5q34 21 49.5 36.5t15.5 38.5q0 32 -29.5 46.5t-95.5 14.5q-93 0 -175 -24v94q36 12 87 18.5t97 6.5q122 0 180.5 -36.5t58.5 -108.5q0 -47 -22.5 -74t-67.5 -56q-39 -26 -59.5 -48t-23.5 -58h-122q1 39 17 67z" />
    <glyph glyph-name="uni030A" unicode="&#x30a;" horiz-adv-x="0" 
d="M-703 1267.5q-46 25.5 -72 71t-26 101.5q0 57 26 102t72 70.5t103 25.5t103 -25.5t72 -70.5t26 -102q0 -56 -26 -101.5t-72 -71t-103 -25.5t-103 25.5zM-520.5 1358.5q30.5 30.5 30.5 81.5q0 52 -30.5 82.5t-79.5 30.5t-79.5 -30.5t-30.5 -82.5q0 -51 30.5 -81.5
t79.5 -30.5t79.5 30.5z" />
    <glyph glyph-name="uni030B" unicode="&#x30b;" horiz-adv-x="0" 
d="M-876 1247l175 369h178l-188 -369h-165zM-489 1247l175 369h178l-188 -369h-165z" />
    <glyph glyph-name="uni030C" unicode="&#x30c;" horiz-adv-x="0" 
d="M-410 1616h177l-275 -369h-184l-275 369h177l190 -260z" />
    <glyph glyph-name="uni030F" unicode="&#x30f;" horiz-adv-x="0" 
d="M-878 1247l-188 369h180l175 -369h-167zM-489 1247l-188 369h180l175 -369h-167z" />
    <glyph glyph-name="uni0311" unicode="&#x311;" horiz-adv-x="0" 
d="M-863 1520q92 90 262 90q113 0 193 -41.5t123 -117t48 -176.5h-141q-9 101 -63.5 157.5t-159.5 56.5q-203 0 -221 -214h-141q8 155 100 245z" />
    <glyph glyph-name="uni0312" unicode="&#x312;" horiz-adv-x="0" 
d="M-494 1456.5q28 -23.5 28 -63.5q0 -43 -33 -67t-99 -24q-136 0 -136 122q0 47 17 102t47 100h136q-39 -84 -46 -143q58 -3 86 -26.5z" />
    <glyph glyph-name="uni031B" unicode="&#x31b;" horiz-adv-x="0" 
d="M-678 1480h89q104 0 157.5 39t53.5 123q0 34 -5 66.5t-15 74.5h146q13 -39 18 -73t5 -74q0 -132 -82.5 -203.5t-232.5 -71.5h-134v119z" />
    <glyph glyph-name="dotbelowcomb" unicode="&#x323;" horiz-adv-x="0" 
d="M-696 -353.5q-33 30.5 -33 84.5t33.5 85t95.5 31t95.5 -31t33.5 -85t-33 -84.5t-96 -30.5t-96 30.5z" />
    <glyph glyph-name="uni0324" unicode="&#x324;" horiz-adv-x="0" 
d="M-954 -360.5q-33 31.5 -33 87.5t33 88t96 32t96 -32t33 -88t-33 -87.5t-96 -31.5t-96 31.5zM-438 -360.5q-33 31.5 -33 87.5t33 88t96 32t96 -32t33 -88t-33 -87.5t-96 -31.5t-96 31.5z" />
    <glyph glyph-name="uni0326" unicode="&#x326;" horiz-adv-x="0" 
d="M-466 -275q0 -47 -17 -101.5t-47 -99.5h-136q37 79 46 142q-58 3 -86 26.5t-28 63.5q0 43 33 67t99 24q136 0 136 -122z" />
    <glyph glyph-name="uni0327" unicode="&#x327;" horiz-adv-x="0" 
d="M-408 -148q44 -42 44 -112q0 -78 -60 -120.5t-170 -42.5q-52 0 -103 9.5t-89 27.5v94q42 -20 90.5 -29.5t93.5 -9.5q58 0 87 19t29 61q0 41 -29 60t-88 19h-47v192h113v-116q85 -10 129 -52z" />
    <glyph glyph-name="uni0328" unicode="&#x328;" horiz-adv-x="0" 
d="M-909.5 -371.5q-63.5 51.5 -63.5 139.5q0 92 66.5 165t215.5 127l58 -60q-112 -51 -159 -102t-47 -115q0 -51 35.5 -80.5t99.5 -29.5q74 0 151 37v-96q-82 -37 -176 -37q-117 0 -180.5 51.5z" />
    <glyph glyph-name="uni032E" unicode="&#x32e;" horiz-adv-x="0" 
d="M-795 -396.5q-81 35.5 -123.5 99t-44.5 146.5h141q5 -76 59.5 -117.5t163.5 -41.5q211 0 221 159h141q-2 -84 -43.5 -147.5t-122.5 -98.5t-196 -35t-196 35.5z" />
    <glyph glyph-name="uni0331" unicode="&#x331;" horiz-adv-x="0" 
d="M-933 -335v133h666v-133h-666z" />
    <glyph glyph-name="uni0394" unicode="&#x394;" horiz-adv-x="1566" 
d="M943 1480l587 -1480h-1494l587 1480h320zM782 1339l-456 -1163h911z" />
    <glyph glyph-name="uni03A9" unicode="&#x3a9;" horiz-adv-x="1696" 
d="M1252 173h327v-173h-604v142q187 121 279.5 276t92.5 359q0 256 -128.5 396.5t-370.5 140.5t-370.5 -140.5t-128.5 -396.5q0 -204 93 -359t280 -276v-142h-605v173h328q-328 218 -328 627q0 211 86.5 369t251.5 244t393 86t393 -86t251.5 -244t86.5 -369
q0 -408 -327 -627z" />
    <glyph glyph-name="uni03BC" unicode="&#x3bc;" horiz-adv-x="1319" 
d="M1154 1088v-1088h-184l-14 116h-11q-70 -65 -158.5 -99.5t-184.5 -34.5q-143 0 -229 70v-492h-222v1527h222v-658q0 -137 62.5 -197t178.5 -60q87 0 171.5 33.5t146.5 98.5v784h222z" />
    <glyph glyph-name="pi" unicode="&#x3c0;" horiz-adv-x="1513" 
d="M1484 177v-177q-96 -20 -172 -20q-173 0 -262.5 86.5t-90.5 268.5l-3 574h-492v-910h-222v910h-217v179h1372v-179h-216v-533q0 -80 19.5 -127t60.5 -67t107 -20q44 0 116 15z" />
    <glyph glyph-name="uni1E08" unicode="&#x1e08;" horiz-adv-x="1356" 
d="M1159 1893l-250 -289h-207l215 289h242zM501.5 1173q-146.5 -138 -146.5 -432q0 -302 144.5 -437t424.5 -135q98 0 187 13t184 43v-188q-179 -56 -384 -56q-31 0 -46 1v-78q94 -7 143.5 -49t49.5 -113q0 -80 -65 -122.5t-185 -42.5q-116 0 -212 37v94q102 -39 204 -39
q68 0 102.5 19t34.5 60q0 42 -34.5 61t-103.5 19h-47v162q-307 35 -471 218t-164 529q0 251 95 421.5t276 255.5t438 85q101 0 190 -11t179 -35v-187q-172 45 -355 45q-292 0 -438.5 -138z" />
    <glyph glyph-name="uni1E09" unicode="&#x1e09;" horiz-adv-x="1045" 
d="M1008 1616l-297 -369h-216l265 369h248zM259.5 963q155.5 142 454.5 142q149 0 274 -34v-177q-69 16 -129 24t-126 8q-205 0 -303.5 -92t-98.5 -289q0 -198 93.5 -292t277.5 -94q64 0 131 11.5t155 36.5v-177q-142 -50 -308 -50h-7v-76q85 -10 129 -52t44 -112
q0 -78 -60 -120.5t-170 -42.5q-52 0 -103 9.5t-89 27.5v94q42 -20 90.5 -29.5t93.5 -9.5q58 0 87 19t29 61q0 41 -29 60t-88 19h-47v159q-223 29 -339.5 169t-116.5 386q0 279 155.5 421z" />
    <glyph glyph-name="uni1E0C" unicode="&#x1e0c;" horiz-adv-x="1635" 
d="M183 15v1430q105 23 234.5 36t246.5 13q423 0 638.5 -188t215.5 -566q0 -385 -224 -568.5t-680 -183.5q-220 0 -431 27zM1134 311q152 138 152 431q0 290 -153 429.5t-464 139.5q-114 0 -260 -23v-1100q106 -15 256 -15q317 0 469 138zM634 -341q-36 29 -36 79t36 79.5
t106 29.5t106 -29.5t36 -79.5t-36 -79t-106 -29t-106 29z" />
    <glyph glyph-name="uni1E0D" unicode="&#x1e0d;" horiz-adv-x="1330" 
d="M343.5 39.5q-111.5 57.5 -175.5 178t-64 303.5q0 286 158.5 435.5t456.5 149.5q104 0 224 -19v529h222v-1616h-187l-13 122h-12q-65 -66 -155 -103t-197 -37q-146 0 -257.5 57.5zM813 194.5q75 30.5 130 96.5v618q-99 24 -213 24q-205 0 -304.5 -97t-99.5 -298
q0 -374 328 -374q84 0 159 30.5zM574 -353.5q-33 30.5 -33 84.5t33.5 85t95.5 31t95.5 -31t33.5 -85t-33 -84.5t-96 -30.5t-96 30.5z" />
    <glyph glyph-name="uni1E0E" unicode="&#x1e0e;" horiz-adv-x="1635" 
d="M183 15v1430q105 23 234.5 36t246.5 13q423 0 638.5 -188t215.5 -566q0 -385 -224 -568.5t-680 -183.5q-220 0 -431 27zM1134 311q152 138 152 431q0 290 -153 429.5t-464 139.5q-114 0 -260 -23v-1100q106 -15 256 -15q317 0 469 138zM384 -326v134h712v-134h-712z" />
    <glyph glyph-name="uni1E0F" unicode="&#x1e0f;" horiz-adv-x="1330" 
d="M343.5 39.5q-111.5 57.5 -175.5 178t-64 303.5q0 286 158.5 435.5t456.5 149.5q104 0 224 -19v529h222v-1616h-187l-13 122h-12q-65 -66 -155 -103t-197 -37q-146 0 -257.5 57.5zM813 194.5q75 30.5 130 96.5v618q-99 24 -213 24q-205 0 -304.5 -97t-99.5 -298
q0 -374 328 -374q84 0 159 30.5zM337 -335v133h666v-133h-666z" />
    <glyph glyph-name="uni1E14" unicode="&#x1e14;" horiz-adv-x="1367" 
d="M407 176h861v-176h-1085v1480h1075v-176h-851v-457h748v-177h-748v-494zM627 1924l-250 232h265l215 -232h-230zM386 1682v134h712v-134h-712z" />
    <glyph glyph-name="uni1E15" unicode="&#x1e15;" horiz-adv-x="1200" 
d="M1114 478h-789q6 -118 51 -190.5t135 -106.5t231 -34q140 0 310 43v-165q-177 -45 -341 -45q-304 0 -455.5 137.5t-151.5 424.5q0 180 61 306t176.5 191.5t278.5 65.5q240 0 367 -146.5t127 -422.5v-58zM403 873.5q-74 -84.5 -79 -261.5h581q-4 177 -76 261.5t-212 84.5
t-214 -84.5zM266 1355v134h710v-134h-710zM517 1663l-250 289h243l215 -289h-208z" />
    <glyph glyph-name="uni1E16" unicode="&#x1e16;" horiz-adv-x="1367" 
d="M407 176h861v-176h-1085v1480h1075v-176h-851v-457h748v-177h-748v-494zM627 1924l213 232h267l-248 -232h-232zM386 1682v134h712v-134h-712z" />
    <glyph glyph-name="uni1E17" unicode="&#x1e17;" horiz-adv-x="1200" 
d="M1114 478h-789q6 -118 51 -190.5t135 -106.5t231 -34q140 0 310 43v-165q-177 -45 -341 -45q-304 0 -455.5 137.5t-151.5 424.5q0 180 61 306t176.5 191.5t278.5 65.5q240 0 367 -146.5t127 -422.5v-58zM403 873.5q-74 -84.5 -79 -261.5h581q-4 177 -76 261.5t-212 84.5
t-214 -84.5zM266 1355v134h710v-134h-710zM516 1663l215 289h242l-250 -289h-207z" />
    <glyph glyph-name="uni1E1C" unicode="&#x1e1c;" horiz-adv-x="1367" 
d="M469 1685q-96 73 -112 191h143q15 -70 72 -108.5t171 -38.5t170 38.5t71 108.5h143q-16 -119 -110.5 -191.5t-273.5 -72.5q-178 0 -274 73zM790 0v-96q94 -7 143.5 -49t49.5 -113q0 -80 -65 -122.5t-185 -42.5q-116 0 -212 37v94q102 -39 204 -39q68 0 102.5 19t34.5 60
q0 42 -34.5 61t-103.5 19h-47v172h-494v1480h1075v-176h-851v-457h748v-177h-748v-494h861v-176h-478z" />
    <glyph glyph-name="uni1E1D" unicode="&#x1e1d;" horiz-adv-x="1200" 
d="M429 1297.5q-80 41.5 -123 117t-48 176.5h141q18 -215 223 -215q203 0 221 215h141q-8 -155 -101 -245t-261 -90q-113 0 -193 41.5zM1114 478h-789q6 -118 51 -190.5t135 -106.5t231 -34q140 0 310 43v-165q-177 -45 -341 -45h-27v-76q85 -10 129 -52t44 -112
q0 -78 -60 -120.5t-170 -42.5q-52 0 -103 9.5t-89 27.5v94q42 -20 90.5 -29.5t93.5 -9.5q58 0 87 19t29 61q0 41 -29 60t-88 19h-47v160q-234 29 -350.5 165.5t-116.5 388.5q0 180 61 306t176.5 191.5t278.5 65.5q240 0 367 -146.5t127 -422.5v-58zM403 873.5
q-74 -84.5 -79 -261.5h581q-4 177 -76 261.5t-212 84.5t-214 -84.5z" />
    <glyph glyph-name="uni1E20" unicode="&#x1e20;" horiz-adv-x="1567" 
d="M1390 720v-700q-112 -18 -205.5 -26t-194.5 -8q-434 0 -653 188.5t-220 561.5q0 251 102 421.5t292.5 256t455.5 85.5q183 0 376 -46v-187q-184 45 -359 45q-306 -1 -468.5 -140.5t-162.5 -432.5q0 -565 626 -565q107 0 197 9v538h214zM498 1682v134h712v-134h-712z" />
    <glyph glyph-name="uni1E21" unicode="&#x1e21;" horiz-adv-x="1330" 
d="M373.5 -446.5q-102.5 13.5 -194.5 41.5v177q201 -59 381 -59q137 0 220.5 33t123 104.5t39.5 190.5v82h-11q-65 -64 -154 -98t-197 -34q-136 0 -244 57.5t-170.5 176.5t-62.5 296q0 285 161 434.5t475 149.5q109 0 219.5 -15t205.5 -43v-966q0 -190 -64.5 -309.5
t-195 -175.5t-332.5 -56q-97 0 -199.5 13.5zM809.5 201.5q76.5 28.5 133.5 87.5v617q-101 26 -223 26q-196 0 -295 -97t-99 -295q0 -193 86.5 -280t237.5 -87q83 0 159.5 28.5zM333 1355v134h710v-134h-710z" />
    <glyph glyph-name="uni1E24" unicode="&#x1e24;" horiz-adv-x="1661" 
d="M183 0v1480h226v-623h843v623h226v-1480h-226v660h-843v-660h-226zM725 -341q-36 29 -36 79t36 79.5t106 29.5t106 -29.5t36 -79.5t-36 -79t-106 -29t-106 29z" />
    <glyph glyph-name="uni1E25" unicode="&#x1e25;" horiz-adv-x="1329" 
d="M165 1616h222v-644h11q75 65 171.5 99t202.5 34q188 0 297 -106.5t109 -329.5v-669h-222v658q0 138 -63.5 197t-184.5 59q-90 0 -174.5 -33.5t-146.5 -98.5v-782h-222v1616zM576 -353.5q-33 30.5 -33 84.5t33.5 85t95.5 31t95.5 -31t33.5 -85t-33 -84.5t-96 -30.5
t-96 30.5z" />
    <glyph glyph-name="uni1E2A" unicode="&#x1e2a;" horiz-adv-x="1661" 
d="M183 0v1480h226v-623h843v623h226v-1480h-226v660h-843v-660h-226zM624 -385q-84 35 -127.5 95.5t-50.5 138.5h143q20 -152 243 -152q118 0 174.5 40t66.5 112h143q-10 -121 -105.5 -195t-278.5 -74q-124 0 -208 35z" />
    <glyph glyph-name="uni1E2B" unicode="&#x1e2b;" horiz-adv-x="1329" 
d="M165 1616h222v-644h11q75 65 171.5 99t202.5 34q188 0 297 -106.5t109 -329.5v-669h-222v658q0 138 -63.5 197t-184.5 59q-90 0 -174.5 -33.5t-146.5 -98.5v-782h-222v1616zM477 -396.5q-81 35.5 -123.5 99t-44.5 146.5h141q5 -76 59.5 -117.5t163.5 -41.5q211 0 221 159
h141q-2 -84 -43.5 -147.5t-122.5 -98.5t-196 -35t-196 35.5z" />
    <glyph glyph-name="uni1E2E" unicode="&#x1e2e;" horiz-adv-x="592" 
d="M183 0v1480h226v-1480h-226zM181 1924l213 232h267l-248 -232h-232zM-72.5 1671.5q-32.5 28.5 -32.5 79.5t32.5 80t94.5 29t94.5 -29t32.5 -80t-32.5 -79.5t-94.5 -28.5t-94.5 28.5zM475.5 1671.5q-32.5 28.5 -32.5 79.5t32.5 80t94.5 29t94.5 -29t32.5 -80t-32.5 -79.5
t-94.5 -28.5t-94.5 28.5z" />
    <glyph glyph-name="uni1E2F" unicode="&#x1e2f;" horiz-adv-x="552" 
d="M165 0v1088h222v-1088h-222zM-78 1333q-33 31 -33 87t33 88t96 32t96 -32t33 -88t-33 -87t-96 -31t-96 31zM438 1333q-33 31 -33 87t33 88t96 32t96 -32t33 -88t-33 -87t-96 -31t-96 31zM171 1663l215 289h242l-250 -289h-207z" />
    <glyph glyph-name="uni1E36" unicode="&#x1e36;" horiz-adv-x="1241" 
d="M183 0v1480h226v-1297h814v-183h-1040zM597 -341q-36 29 -36 79t36 79.5t106 29.5t106 -29.5t36 -79.5t-36 -79t-106 -29t-106 29z" />
    <glyph glyph-name="uni1E37" unicode="&#x1e37;" horiz-adv-x="552" 
d="M165 0v1616h222v-1616h-222zM179 -353.5q-33 30.5 -33 84.5t33.5 85t95.5 31t95.5 -31t33.5 -85t-33 -84.5t-96 -30.5t-96 30.5z" />
    <glyph glyph-name="uni1E3A" unicode="&#x1e3a;" horiz-adv-x="1241" 
d="M183 0v1480h226v-1297h814v-183h-1040zM347 -326v134h712v-134h-712z" />
    <glyph glyph-name="uni1E3B" unicode="&#x1e3b;" horiz-adv-x="552" 
d="M165 0v1616h222v-1616h-222zM-58 -335v133h666v-133h-666z" />
    <glyph glyph-name="uni1E42" unicode="&#x1e42;" horiz-adv-x="1988" 
d="M1531 1480h270v-1480h-213v1183l-495 -975h-199l-494 956v-1164h-213v1480h270l541 -1060zM900 -341q-36 29 -36 79t36 79.5t106 29.5t106 -29.5t36 -79.5t-36 -79t-106 -29t-106 29z" />
    <glyph glyph-name="uni1E43" unicode="&#x1e43;" horiz-adv-x="1935" 
d="M1683 999q102 -106 102 -330v-669h-222v658q0 137 -56.5 197t-159.5 60q-75 0 -145 -29.5t-122 -92.5q9 -55 9 -122v-671h-218v658q0 138 -53.5 197.5t-155.5 59.5q-78 0 -150.5 -34t-124.5 -101v-780h-222v1088h184l14 -119h13q66 66 155 101t191 35q103 0 180.5 -38
t123.5 -117q83 81 180 118t195 37q180 0 282 -106zM885 -353.5q-33 30.5 -33 84.5t33.5 85t95.5 31t95.5 -31t33.5 -85t-33 -84.5t-96 -30.5t-96 30.5z" />
    <glyph glyph-name="uni1E44" unicode="&#x1e44;" horiz-adv-x="1683" 
d="M1286 1480h214v-1480h-230l-873 1168v-1168h-214v1480h230l873 -1168v1168zM736 1672q-36 29 -36 79q0 51 35.5 80t106.5 29t106.5 -29t35.5 -80q0 -50 -36 -79t-106 -29t-106 29z" />
    <glyph glyph-name="uni1E45" unicode="&#x1e45;" horiz-adv-x="1329" 
d="M165 1088h184l14 -119h13q77 65 177 100.5t209 35.5q195 0 305.5 -107t110.5 -334v-664h-222v655q0 139 -63 199.5t-185 60.5q-87 0 -172.5 -32.5t-148.5 -98.5v-784h-222v1088zM564.5 1331q-36.5 31 -36.5 89q0 59 36.5 90.5t107.5 31.5t107.5 -31.5t36.5 -90.5
q0 -58 -36.5 -89t-107.5 -31t-107.5 31z" />
    <glyph glyph-name="uni1E46" unicode="&#x1e46;" horiz-adv-x="1683" 
d="M1286 1480h214v-1480h-230l-873 1168v-1168h-214v1480h230l873 -1168v1168zM736 -341q-36 29 -36 79t36 79.5t106 29.5t106 -29.5t36 -79.5t-36 -79t-106 -29t-106 29z" />
    <glyph glyph-name="uni1E47" unicode="&#x1e47;" horiz-adv-x="1329" 
d="M165 1088h184l14 -119h13q77 65 177 100.5t209 35.5q195 0 305.5 -107t110.5 -334v-664h-222v655q0 139 -63 199.5t-185 60.5q-87 0 -172.5 -32.5t-148.5 -98.5v-784h-222v1088zM576 -353.5q-33 30.5 -33 84.5t33.5 85t95.5 31t95.5 -31t33.5 -85t-33 -84.5t-96 -30.5
t-96 30.5z" />
    <glyph glyph-name="uni1E48" unicode="&#x1e48;" horiz-adv-x="1683" 
d="M1286 1480h214v-1480h-230l-873 1168v-1168h-214v1480h230l873 -1168v1168zM486 -326v134h712v-134h-712z" />
    <glyph glyph-name="uni1E49" unicode="&#x1e49;" horiz-adv-x="1329" 
d="M165 1088h184l14 -119h13q77 65 177 100.5t209 35.5q195 0 305.5 -107t110.5 -334v-664h-222v655q0 139 -63 199.5t-185 60.5q-87 0 -172.5 -32.5t-148.5 -98.5v-784h-222v1088zM339 -335v133h666v-133h-666z" />
    <glyph glyph-name="uni1E4C" unicode="&#x1e4c;" horiz-adv-x="1696" 
d="M460.5 66q-164.5 85 -254 255t-89.5 419t90.5 419t254.5 255t386 85q224 0 388 -85t253.5 -255.5t89.5 -418.5t-90.5 -418t-254.5 -255.5t-386 -85.5q-223 0 -387.5 85zM1216 305.5q131 139.5 131 428.5q0 296 -131.5 438t-367.5 142q-235 0 -367 -139.5t-132 -428.5
q0 -298 131 -439t368 -141t368 139.5zM733 1924l213 232h267l-248 -232h-232zM933 1664q-42 10 -101 29q-53 18 -89 26.5t-74 8.5q-61 0 -107.5 -16.5t-91.5 -51.5v132q38 34 87 50t116 16q48 0 90 -10t101 -29q53 -18 89 -26.5t74 -8.5q61 0 107.5 16t91.5 52v-132
q-38 -34 -86.5 -50t-116.5 -16q-48 0 -90 10z" />
    <glyph glyph-name="uni1E4D" unicode="&#x1e4d;" horiz-adv-x="1305" 
d="M362.5 43q-123.5 63 -191 189t-67.5 312q0 184 66.5 309.5t189.5 188.5t293 63q260 0 404 -141.5t144 -419.5q0 -183 -68 -309.5t-191.5 -190.5t-288.5 -64q-167 0 -290.5 63zM979 543q0 201 -84 293.5t-242 92.5t-242.5 -92t-84.5 -292q0 -389 327 -389q326 0 326 387z
M732 1337.5q-39 11.5 -95 33.5q-50 20 -83.5 29.5t-66.5 9.5q-55 0 -100 -18.5t-89 -59.5v143q37 36 84.5 53t109.5 17q43 0 82 -11.5t95 -33.5q50 -20 83.5 -29.5t66.5 -9.5q55 0 100 18.5t89 59.5v-143q-37 -36 -84.5 -53t-109.5 -17q-43 0 -82 11.5zM548 1663l215 289
h242l-250 -289h-207z" />
    <glyph glyph-name="uni1E4E" unicode="&#x1e4e;" horiz-adv-x="1696" 
d="M460.5 66q-164.5 85 -254 255t-89.5 419t90.5 419t254.5 255t386 85q224 0 388 -85t253.5 -255.5t89.5 -418.5t-90.5 -418t-254.5 -255.5t-386 -85.5q-223 0 -387.5 85zM1216 305.5q131 139.5 131 428.5q0 296 -131.5 438t-367.5 142q-235 0 -367 -139.5t-132 -428.5
q0 -298 131 -439t368 -141t368 139.5zM933 1664q-42 10 -101 29q-53 18 -89 26.5t-74 8.5q-61 0 -107.5 -16.5t-91.5 -51.5v132q38 34 87 50t116 16q48 0 90 -10t101 -29q53 -18 89 -26.5t74 -8.5q61 0 107.5 16t91.5 52v-132q-38 -34 -86.5 -50t-116.5 -16q-48 0 -90 10z
M479.5 1990.5q-32.5 28.5 -32.5 79.5t32.5 80t94.5 29t94.5 -29t32.5 -80t-32.5 -79.5t-94.5 -28.5t-94.5 28.5zM1027.5 1990.5q-32.5 28.5 -32.5 79.5t32.5 80t94.5 29t94.5 -29t32.5 -80t-32.5 -79.5t-94.5 -28.5t-94.5 28.5z" />
    <glyph glyph-name="uni1E4F" unicode="&#x1e4f;" horiz-adv-x="1305" 
d="M362.5 43q-123.5 63 -191 189t-67.5 312q0 184 66.5 309.5t189.5 188.5t293 63q260 0 404 -141.5t144 -419.5q0 -183 -68 -309.5t-191.5 -190.5t-288.5 -64q-167 0 -290.5 63zM979 543q0 201 -84 293.5t-242 92.5t-242.5 -92t-84.5 -292q0 -389 327 -389q326 0 326 387z
M732 1337.5q-39 11.5 -95 33.5q-50 20 -83.5 29.5t-66.5 9.5q-55 0 -100 -18.5t-89 -59.5v143q37 36 84.5 53t109.5 17q43 0 82 -11.5t95 -33.5q50 -20 83.5 -29.5t66.5 -9.5q55 0 100 18.5t89 59.5v-143q-37 -36 -84.5 -53t-109.5 -17q-43 0 -82 11.5zM299 1712
q-33 31 -33 87t33 88t96 32t96 -32t33 -88t-33 -87t-96 -31t-96 31zM815 1712q-33 31 -33 87t33 88t96 32t96 -32t33 -88t-33 -87t-96 -31t-96 31z" />
    <glyph glyph-name="uni1E50" unicode="&#x1e50;" horiz-adv-x="1696" 
d="M460.5 66q-164.5 85 -254 255t-89.5 419t90.5 419t254.5 255t386 85q224 0 388 -85t253.5 -255.5t89.5 -418.5t-90.5 -418t-254.5 -255.5t-386 -85.5q-223 0 -387.5 85zM1216 305.5q131 139.5 131 428.5q0 296 -131.5 438t-367.5 142q-235 0 -367 -139.5t-132 -428.5
q0 -298 131 -439t368 -141t368 139.5zM733 1924l-250 232h265l215 -232h-230zM492 1682v134h712v-134h-712z" />
    <glyph glyph-name="uni1E51" unicode="&#x1e51;" horiz-adv-x="1305" 
d="M362.5 43q-123.5 63 -191 189t-67.5 312q0 184 66.5 309.5t189.5 188.5t293 63q260 0 404 -141.5t144 -419.5q0 -183 -68 -309.5t-191.5 -190.5t-288.5 -64q-167 0 -290.5 63zM979 543q0 201 -84 293.5t-242 92.5t-242.5 -92t-84.5 -292q0 -389 327 -389q326 0 326 387z
M298 1355v134h710v-134h-710zM549 1663l-250 289h243l215 -289h-208z" />
    <glyph glyph-name="uni1E52" unicode="&#x1e52;" horiz-adv-x="1696" 
d="M460.5 66q-164.5 85 -254 255t-89.5 419t90.5 419t254.5 255t386 85q224 0 388 -85t253.5 -255.5t89.5 -418.5t-90.5 -418t-254.5 -255.5t-386 -85.5q-223 0 -387.5 85zM1216 305.5q131 139.5 131 428.5q0 296 -131.5 438t-367.5 142q-235 0 -367 -139.5t-132 -428.5
q0 -298 131 -439t368 -141t368 139.5zM733 1924l213 232h267l-248 -232h-232zM492 1682v134h712v-134h-712z" />
    <glyph glyph-name="uni1E53" unicode="&#x1e53;" horiz-adv-x="1305" 
d="M362.5 43q-123.5 63 -191 189t-67.5 312q0 184 66.5 309.5t189.5 188.5t293 63q260 0 404 -141.5t144 -419.5q0 -183 -68 -309.5t-191.5 -190.5t-288.5 -64q-167 0 -290.5 63zM979 543q0 201 -84 293.5t-242 92.5t-242.5 -92t-84.5 -292q0 -389 327 -389q326 0 326 387z
M298 1355v134h710v-134h-710zM548 1663l215 289h242l-250 -289h-207z" />
    <glyph glyph-name="uni1E5A" unicode="&#x1e5a;" horiz-adv-x="1475" 
d="M1163 0l-471 590q-18 -1 -55 -1q-99 0 -232 10v-599h-222v1445q227 51 469 51q329 0 488 -107.5t159 -342.5q0 -170 -95.5 -278t-282.5 -151l497 -617h-255zM405 769q68 -7 119.5 -10t121.5 -3q230 0 335 69.5t105 217.5q0 105 -43.5 168t-135 91t-240.5 28
q-75 0 -135 -6t-127 -18v-537zM655 -341q-36 29 -36 79t36 79.5t106 29.5t106 -29.5t36 -79.5t-36 -79t-106 -29t-106 29z" />
    <glyph glyph-name="uni1E5B" unicode="&#x1e5b;" horiz-adv-x="849" 
d="M165 1088h183l17 -139h13q59 71 152.5 111t195.5 40q58 0 109 -10v-199q-49 9 -120 9q-88 0 -179 -34t-149 -101v-765h-222v1088zM180 -353.5q-33 30.5 -33 84.5t33.5 85t95.5 31t95.5 -31t33.5 -85t-33 -84.5t-96 -30.5t-96 30.5z" />
    <glyph glyph-name="uni1E5E" unicode="&#x1e5e;" horiz-adv-x="1475" 
d="M1163 0l-471 590q-18 -1 -55 -1q-99 0 -232 10v-599h-222v1445q227 51 469 51q329 0 488 -107.5t159 -342.5q0 -170 -95.5 -278t-282.5 -151l497 -617h-255zM405 769q68 -7 119.5 -10t121.5 -3q230 0 335 69.5t105 217.5q0 105 -43.5 168t-135 91t-240.5 28
q-75 0 -135 -6t-127 -18v-537zM405 -326v134h712v-134h-712z" />
    <glyph glyph-name="uni1E5F" unicode="&#x1e5f;" horiz-adv-x="849" 
d="M165 1088h183l17 -139h13q59 71 152.5 111t195.5 40q58 0 109 -10v-199q-49 9 -120 9q-88 0 -179 -34t-149 -101v-765h-222v1088zM-57 -335v133h666v-133h-666z" />
    <glyph glyph-name="uni1E60" unicode="&#x1e60;" horiz-adv-x="1241" 
d="M115 48v184q102 -34 219.5 -52t220.5 -18q193 0 283.5 61.5t90.5 181.5q0 67 -29.5 110.5t-94.5 72.5t-178 51l-100 20q-230 45 -335 145t-105 267q0 204 154.5 316t454.5 112q210 0 387 -51v-185q-87 26 -186 40.5t-198 14.5q-387 0 -387 -238q0 -66 26 -109.5t85 -72.5
t162 -50l100 -19q168 -33 271.5 -88t150.5 -135t47 -190q0 -137 -71 -235t-206.5 -149t-324.5 -51q-234 0 -437 67zM525 1672q-36 29 -36 79q0 51 35.5 80t106.5 29t106.5 -29t35.5 -80q0 -50 -36 -79t-106 -29t-106 29z" />
    <glyph glyph-name="uni1E61" unicode="&#x1e61;" horiz-adv-x="1074" 
d="M125 28v161q179 -50 373 -50q150 0 216 40.5t66 118.5q0 42 -15 69.5t-51 46t-99 28.5l-193 30q-168 27 -242.5 102t-74.5 201q0 153 126.5 241.5t386.5 88.5q82 0 163.5 -10.5t150.5 -30.5v-160q-152 42 -313 42q-165 0 -233 -43t-68 -119q0 -57 35 -92.5t125 -51.5
l193 -30q167 -26 245 -96t78 -203q0 -103 -55.5 -177t-167 -114t-274.5 -40q-205 0 -372 48zM437.5 1331q-36.5 31 -36.5 89q0 59 36.5 90.5t107.5 31.5t107.5 -31.5t36.5 -90.5q0 -58 -36.5 -89t-107.5 -31t-107.5 31z" />
    <glyph glyph-name="uni1E62" unicode="&#x1e62;" horiz-adv-x="1241" 
d="M115 48v184q102 -34 219.5 -52t220.5 -18q193 0 283.5 61.5t90.5 181.5q0 67 -29.5 110.5t-94.5 72.5t-178 51l-100 20q-230 45 -335 145t-105 267q0 204 154.5 316t454.5 112q210 0 387 -51v-185q-87 26 -186 40.5t-198 14.5q-387 0 -387 -238q0 -66 26 -109.5t85 -72.5
t162 -50l100 -19q168 -33 271.5 -88t150.5 -135t47 -190q0 -137 -71 -235t-206.5 -149t-324.5 -51q-234 0 -437 67zM525 -341q-36 29 -36 79t36 79.5t106 29.5t106 -29.5t36 -79.5t-36 -79t-106 -29t-106 29z" />
    <glyph glyph-name="uni1E63" unicode="&#x1e63;" horiz-adv-x="1074" 
d="M125 28v161q179 -50 373 -50q150 0 216 40.5t66 118.5q0 42 -15 69.5t-51 46t-99 28.5l-193 30q-168 27 -242.5 102t-74.5 201q0 153 126.5 241.5t386.5 88.5q82 0 163.5 -10.5t150.5 -30.5v-160q-152 42 -313 42q-165 0 -233 -43t-68 -119q0 -57 35 -92.5t125 -51.5
l193 -30q167 -26 245 -96t78 -203q0 -103 -55.5 -177t-167 -114t-274.5 -40q-205 0 -372 48zM449 -353.5q-33 30.5 -33 84.5t33.5 85t95.5 31t95.5 -31t33.5 -85t-33 -84.5t-96 -30.5t-96 30.5z" />
    <glyph glyph-name="uni1E64" unicode="&#x1e64;" horiz-adv-x="1241" 
d="M115 48v184q102 -34 219.5 -52t220.5 -18q193 0 283.5 61.5t90.5 181.5q0 67 -29.5 110.5t-94.5 72.5t-178 51l-100 20q-230 45 -335 145t-105 267q0 204 154.5 316t454.5 112q210 0 387 -51v-185q-87 26 -186 40.5t-198 14.5q-387 0 -387 -238q0 -66 26 -109.5t85 -72.5
t162 -50l100 -19q168 -33 271.5 -88t150.5 -135t47 -190q0 -137 -71 -235t-206.5 -149t-324.5 -51q-234 0 -437 67zM399.5 1878.5q-30.5 25.5 -30.5 68.5q0 44 30.5 69.5t90.5 25.5t90.5 -25.5t30.5 -69.5q0 -43 -30.5 -68.5t-90.5 -25.5t-90.5 25.5zM526 1604l215 289h242
l-250 -289h-207z" />
    <glyph glyph-name="uni1E65" unicode="&#x1e65;" horiz-adv-x="1074" 
d="M125 28v161q179 -50 373 -50q150 0 216 40.5t66 118.5q0 42 -15 69.5t-51 46t-99 28.5l-193 30q-168 27 -242.5 102t-74.5 201q0 153 126.5 241.5t386.5 88.5q82 0 163.5 -10.5t150.5 -30.5v-160q-152 42 -313 42q-165 0 -233 -43t-68 -119q0 -57 35 -92.5t125 -51.5
l193 -30q167 -26 245 -96t78 -203q0 -103 -55.5 -177t-167 -114t-274.5 -40q-205 0 -372 48zM336.5 1601.5q-30.5 25.5 -30.5 68.5q0 44 30.5 69.5t90.5 25.5t90.5 -25.5t30.5 -69.5q0 -43 -30.5 -68.5t-90.5 -25.5t-90.5 25.5zM437 1247l265 369h248l-297 -369h-216z" />
    <glyph glyph-name="uni1E66" unicode="&#x1e66;" horiz-adv-x="1241" 
d="M115 48v184q102 -34 219.5 -52t220.5 -18q193 0 283.5 61.5t90.5 181.5q0 67 -29.5 110.5t-94.5 72.5t-178 51l-100 20q-230 45 -335 145t-105 267q0 204 154.5 316t454.5 112q210 0 387 -51v-185q-87 26 -186 40.5t-198 14.5q-387 0 -387 -238q0 -66 26 -109.5t85 -72.5
t162 -50l100 -19q168 -33 271.5 -88t150.5 -135t47 -190q0 -137 -71 -235t-206.5 -149t-324.5 -51q-234 0 -437 67zM540.5 1934.5q-30.5 25.5 -30.5 68.5q0 44 30.5 69.5t90.5 25.5t90.5 -25.5t30.5 -69.5q0 -43 -30.5 -68.5t-90.5 -25.5t-90.5 25.5zM834 1893h198
l-303 -289h-196l-303 289h198l203 -198z" />
    <glyph glyph-name="uni1E67" unicode="&#x1e67;" horiz-adv-x="1074" 
d="M125 28v161q179 -50 373 -50q150 0 216 40.5t66 118.5q0 42 -15 69.5t-51 46t-99 28.5l-193 30q-168 27 -242.5 102t-74.5 201q0 153 126.5 241.5t386.5 88.5q82 0 163.5 -10.5t150.5 -30.5v-160q-152 42 -313 42q-165 0 -233 -43t-68 -119q0 -57 35 -92.5t125 -51.5
l193 -30q167 -26 245 -96t78 -203q0 -103 -55.5 -177t-167 -114t-274.5 -40q-205 0 -372 48zM454.5 1655.5q-30.5 25.5 -30.5 68.5q0 44 30.5 69.5t90.5 25.5t90.5 -25.5t30.5 -69.5q0 -43 -30.5 -68.5t-90.5 -25.5t-90.5 25.5zM735 1616h177l-275 -369h-184l-275 369h177
l190 -260z" />
    <glyph glyph-name="uni1E68" unicode="&#x1e68;" horiz-adv-x="1241" 
d="M115 48v184q102 -34 219.5 -52t220.5 -18q193 0 283.5 61.5t90.5 181.5q0 67 -29.5 110.5t-94.5 72.5t-178 51l-100 20q-230 45 -335 145t-105 267q0 204 154.5 316t454.5 112q210 0 387 -51v-185q-87 26 -186 40.5t-198 14.5q-387 0 -387 -238q0 -66 26 -109.5t85 -72.5
t162 -50l100 -19q168 -33 271.5 -88t150.5 -135t47 -190q0 -137 -71 -235t-206.5 -149t-324.5 -51q-234 0 -437 67zM525 -341q-36 29 -36 79t36 79.5t106 29.5t106 -29.5t36 -79.5t-36 -79t-106 -29t-106 29zM525 1672q-36 29 -36 79q0 51 35.5 80t106.5 29t106.5 -29
t35.5 -80q0 -50 -36 -79t-106 -29t-106 29z" />
    <glyph glyph-name="uni1E69" unicode="&#x1e69;" horiz-adv-x="1074" 
d="M125 28v161q179 -50 373 -50q150 0 216 40.5t66 118.5q0 42 -15 69.5t-51 46t-99 28.5l-193 30q-168 27 -242.5 102t-74.5 201q0 153 126.5 241.5t386.5 88.5q82 0 163.5 -10.5t150.5 -30.5v-160q-152 42 -313 42q-165 0 -233 -43t-68 -119q0 -57 35 -92.5t125 -51.5
l193 -30q167 -26 245 -96t78 -203q0 -103 -55.5 -177t-167 -114t-274.5 -40q-205 0 -372 48zM449 -353.5q-33 30.5 -33 84.5t33.5 85t95.5 31t95.5 -31t33.5 -85t-33 -84.5t-96 -30.5t-96 30.5zM437.5 1331q-36.5 31 -36.5 89q0 59 36.5 90.5t107.5 31.5t107.5 -31.5
t36.5 -90.5q0 -58 -36.5 -89t-107.5 -31t-107.5 31z" />
    <glyph glyph-name="uni1E6C" unicode="&#x1e6c;" horiz-adv-x="1356" 
d="M565 0v1297h-544v183h1314v-183h-544v-1297h-226zM572 -341q-36 29 -36 79t36 79.5t106 29.5t106 -29.5t36 -79.5t-36 -79t-106 -29t-106 29z" />
    <glyph glyph-name="uni1E6D" unicode="&#x1e6d;" horiz-adv-x="885" 
d="M774 166q33 4 82 14v-176q-102 -24 -203 -24q-201 0 -306 98t-105 296v535h-217v179h217l38 392h184v-392h377v-179h-377v-494q0 -135 60 -194t185 -59q32 0 65 4zM453 -353.5q-33 30.5 -33 84.5t33.5 85t95.5 31t95.5 -31t33.5 -85t-33 -84.5t-96 -30.5t-96 30.5z" />
    <glyph glyph-name="uni1E6E" unicode="&#x1e6e;" horiz-adv-x="1356" 
d="M565 0v1297h-544v183h1314v-183h-544v-1297h-226zM322 -326v134h712v-134h-712z" />
    <glyph glyph-name="uni1E6F" unicode="&#x1e6f;" horiz-adv-x="885" 
d="M774 166q33 4 82 14v-176q-102 -24 -203 -24q-201 0 -306 98t-105 296v535h-217v179h217l38 392h184v-392h377v-179h-377v-494q0 -135 60 -194t185 -59q32 0 65 4zM216 -335v133h666v-133h-666z" />
    <glyph glyph-name="uni1E78" unicode="&#x1e78;" horiz-adv-x="1628" 
d="M330.5 137.5q-155.5 156.5 -155.5 478.5v864h227v-885q0 -223 101 -325t313 -102t313 102t101 325v885h222v-864q0 -322 -154.5 -478.5t-481.5 -156.5q-330 0 -485.5 156.5zM701 1924l213 232h267l-248 -232h-232zM901 1664q-42 10 -101 29q-53 18 -89 26.5t-74 8.5
q-61 0 -107.5 -16.5t-91.5 -51.5v132q38 34 87 50t116 16q48 0 90 -10t101 -29q53 -18 89 -26.5t74 -8.5q61 0 107.5 16t91.5 52v-132q-38 -34 -86.5 -50t-116.5 -16q-48 0 -90 10z" />
    <glyph glyph-name="uni1E79" unicode="&#x1e79;" horiz-adv-x="1319" 
d="M262 87.5q-111 105.5 -111 329.5v671h222v-659q0 -137 62.5 -197t178.5 -60q87 0 171.5 33.5t146.5 98.5v784h222v-1088h-184l-14 116h-11q-77 -65 -174 -99.5t-202 -34.5q-196 0 -307 105.5zM731 1337.5q-39 11.5 -95 33.5q-50 20 -83.5 29.5t-66.5 9.5
q-55 0 -100 -18.5t-89 -59.5v143q37 36 84.5 53t109.5 17q43 0 82 -11.5t95 -33.5q50 -20 83.5 -29.5t66.5 -9.5q55 0 100 18.5t89 59.5v-143q-37 -36 -84.5 -53t-109.5 -17q-43 0 -82 11.5zM547 1663l215 289h242l-250 -289h-207z" />
    <glyph glyph-name="uni1E7A" unicode="&#x1e7a;" horiz-adv-x="1628" 
d="M330.5 137.5q-155.5 156.5 -155.5 478.5v864h227v-885q0 -223 101 -325t313 -102t313 102t101 325v885h222v-864q0 -322 -154.5 -478.5t-481.5 -156.5q-330 0 -485.5 156.5zM460 1682v134h712v-134h-712zM447.5 1990.5q-32.5 28.5 -32.5 79.5t32.5 80t94.5 29t94.5 -29
t32.5 -80t-32.5 -79.5t-94.5 -28.5t-94.5 28.5zM995.5 1990.5q-32.5 28.5 -32.5 79.5t32.5 80t94.5 29t94.5 -29t32.5 -80t-32.5 -79.5t-94.5 -28.5t-94.5 28.5z" />
    <glyph glyph-name="uni1E7B" unicode="&#x1e7b;" horiz-adv-x="1319" 
d="M262 87.5q-111 105.5 -111 329.5v671h222v-659q0 -137 62.5 -197t178.5 -60q87 0 171.5 33.5t146.5 98.5v784h222v-1088h-184l-14 116h-11q-77 -65 -174 -99.5t-202 -34.5q-196 0 -307 105.5zM297 1355v134h710v-134h-710zM298 1712q-33 31 -33 87t33 88t96 32t96 -32
t33 -88t-33 -87t-96 -31t-96 31zM814 1712q-33 31 -33 87t33 88t96 32t96 -32t33 -88t-33 -87t-96 -31t-96 31z" />
    <glyph glyph-name="Wgrave" unicode="&#x1e80;" horiz-adv-x="2456" 
d="M2177 1480h218l-469 -1480h-290l-406 1261l-410 -1261h-290l-471 1480h232l398 -1283l414 1283h259l412 -1291zM1125 1604l-250 289h243l215 -289h-208z" />
    <glyph glyph-name="wgrave" unicode="&#x1e81;" horiz-adv-x="1939" 
d="M1653 1088h208l-345 -1088h-258l-287 889l-289 -889h-257l-348 1088h218l271 -871l279 871h257l278 -865zM863 1247l-297 369h248l265 -369h-216z" />
    <glyph glyph-name="Wacute" unicode="&#x1e82;" horiz-adv-x="2456" 
d="M2177 1480h218l-469 -1480h-290l-406 1261l-410 -1261h-290l-471 1480h232l398 -1283l414 1283h259l412 -1291zM1124 1604l215 289h242l-250 -289h-207z" />
    <glyph glyph-name="wacute" unicode="&#x1e83;" horiz-adv-x="1939" 
d="M1653 1088h208l-345 -1088h-258l-287 889l-289 -889h-257l-348 1088h218l271 -871l279 871h257l278 -865zM863 1247l265 369h248l-297 -369h-216z" />
    <glyph glyph-name="Wdieresis" unicode="&#x1e84;" horiz-adv-x="2456" 
d="M2177 1480h218l-469 -1480h-290l-406 1261l-410 -1261h-290l-471 1480h232l398 -1283l414 1283h259l412 -1291zM860.5 1671.5q-32.5 28.5 -32.5 79.5t32.5 80t94.5 29t94.5 -29t32.5 -80t-32.5 -79.5t-94.5 -28.5t-94.5 28.5zM1408.5 1671.5q-32.5 28.5 -32.5 79.5
t32.5 80t94.5 29t94.5 -29t32.5 -80t-32.5 -79.5t-94.5 -28.5t-94.5 28.5z" />
    <glyph glyph-name="wdieresis" unicode="&#x1e85;" horiz-adv-x="1939" 
d="M1653 1088h208l-345 -1088h-258l-287 889l-289 -889h-257l-348 1088h218l271 -871l279 871h257l278 -865zM617 1333q-33 31 -33 87t33 88t96 32t96 -32t33 -88t-33 -87t-96 -31t-96 31zM1133 1333q-33 31 -33 87t33 88t96 32t96 -32t33 -88t-33 -87t-96 -31t-96 31z" />
    <glyph glyph-name="uni1E8E" unicode="&#x1e8e;" horiz-adv-x="1356" 
d="M1376 1480l-583 -832v-648h-227v647l-599 833h249l468 -650l459 650h233zM571 1672q-36 29 -36 79q0 51 35.5 80t106.5 29t106.5 -29t35.5 -80q0 -50 -36 -79t-106 -29t-106 29z" />
    <glyph glyph-name="uni1E8F" unicode="&#x1e8f;" horiz-adv-x="1246" 
d="M1009 1088h219l-659 -1528h-220l191 440h-54l-468 1088h236l374 -909zM516.5 1331q-36.5 31 -36.5 89q0 59 36.5 90.5t107.5 31.5t107.5 -31.5t36.5 -90.5q0 -58 -36.5 -89t-107.5 -31t-107.5 31z" />
    <glyph glyph-name="uni1E92" unicode="&#x1e92;" horiz-adv-x="1344" 
d="M374 182h894v-182h-1193v123l882 1175h-869v182h1168v-123zM566 -341q-36 29 -36 79t36 79.5t106 29.5t106 -29.5t36 -79.5t-36 -79t-106 -29t-106 29z" />
    <glyph glyph-name="uni1E93" unicode="&#x1e93;" horiz-adv-x="1099" 
d="M376 179h658v-179h-957v141l647 768h-634v179h931v-141zM460 -353.5q-33 30.5 -33 84.5t33.5 85t95.5 31t95.5 -31t33.5 -85t-33 -84.5t-96 -30.5t-96 30.5z" />
    <glyph glyph-name="uni1E97" unicode="&#x1e97;" horiz-adv-x="885" 
d="M774 166q33 4 82 14v-176q-102 -24 -203 -24q-201 0 -306 98t-105 296v535h-217v179h217l38 392h184v-392h377v-179h-377v-494q0 -135 60 -194t185 -59q32 0 65 4zM-1 1629q-33 31 -33 87t33 88t96 32t96 -32t33 -88t-33 -87t-96 -31t-96 31zM515 1629q-33 31 -33 87
t33 88t96 32t96 -32t33 -88t-33 -87t-96 -31t-96 31z" />
    <glyph glyph-name="uni1E9E" unicode="&#x1e9e;" horiz-adv-x="1963" 
d="M1681.5 740.5q101.5 -55.5 147.5 -135t46 -189.5q0 -137 -70 -235t-202.5 -149t-319.5 -51q-108 0 -216.5 16.5t-207.5 47.5v185q99 -33 213.5 -50.5t209.5 -17.5q192 0 281.5 61.5t89.5 181.5q0 67 -28.5 111t-92 73t-172.5 50l-97 20q-225 45 -328 145t-103 267
q0 141 72 237q-48 9 -104 9q-199 0 -295 -98t-96 -304v-915h-226v888q0 307 152 459t465 152q171 0 298 -51q138 51 333 51q205 0 375 -50v-184q-85 25 -181 39t-188 14q-383 0 -383 -238q0 -66 25 -110t83 -73t157 -49l96 -19q165 -33 266.5 -88.5z" />
    <glyph glyph-name="uni1EA0" unicode="&#x1ea0;" horiz-adv-x="1566" 
d="M1303 0l-176 453h-691l-176 -453h-224l587 1480h320l587 -1480h-227zM505 629h553l-276 710zM677 -341q-36 29 -36 79t36 79.5t106 29.5t106 -29.5t36 -79.5t-36 -79t-106 -29t-106 29z" />
    <glyph glyph-name="uni1EA1" unicode="&#x1ea1;" horiz-adv-x="1199" 
d="M832 1064.5q108 -40.5 162 -134.5t54 -256v-674h-186l-16 117h-12q-61 -64 -154 -99.5t-198 -35.5q-120 0 -205 37.5t-129 105.5t-44 160q0 145 108.5 224.5t345.5 100.5l272 27v52q0 96 -33 150t-99.5 76t-176.5 22q-76 0 -164.5 -13t-169.5 -39v166q80 26 177.5 40
t187.5 14q172 0 280 -40.5zM696 164.5q75 28.5 134 85.5v255l-255 -25q-133 -15 -190 -57.5t-57 -120.5q0 -79 53 -122.5t160 -43.5q80 0 155 28.5zM515 -353.5q-33 30.5 -33 84.5t33.5 85t95.5 31t95.5 -31t33.5 -85t-33 -84.5t-96 -30.5t-96 30.5z" />
    <glyph glyph-name="uni1EA2" unicode="&#x1ea2;" horiz-adv-x="1566" 
d="M1303 0l-176 453h-691l-176 -453h-224l587 1480h320l587 -1480h-227zM505 629h553l-276 710zM737.5 1653q16.5 20 38 31.5t56.5 26.5q37 16 54.5 27.5t17.5 29.5q0 22 -28.5 33t-95.5 11q-59 0 -106.5 -6.5t-105.5 -23.5v92q95 30 225 30q119 0 176.5 -32.5t57.5 -90.5
q0 -30 -15 -50.5t-35.5 -33.5t-54.5 -29q-37 -16 -56 -29.5t-21 -34.5h-125q1 29 17.5 49z" />
    <glyph glyph-name="uni1EA3" unicode="&#x1ea3;" horiz-adv-x="1199" 
d="M832 1064.5q108 -40.5 162 -134.5t54 -256v-674h-186l-16 117h-12q-61 -64 -154 -99.5t-198 -35.5q-120 0 -205 37.5t-129 105.5t-44 160q0 145 108.5 224.5t345.5 100.5l272 27v52q0 96 -33 150t-99.5 76t-176.5 22q-76 0 -164.5 -13t-169.5 -39v166q80 26 177.5 40
t187.5 14q172 0 280 -40.5zM696 164.5q75 28.5 134 85.5v255l-255 -25q-133 -15 -190 -57.5t-57 -120.5q0 -79 53 -122.5t160 -43.5q80 0 155 28.5zM553 1314q16 28 37 45.5t53 37.5q34 21 49.5 36.5t15.5 38.5q0 32 -29.5 46.5t-95.5 14.5q-93 0 -175 -24v94q36 12 87 18.5
t97 6.5q122 0 180.5 -36.5t58.5 -108.5q0 -47 -22.5 -74t-67.5 -56q-39 -26 -59.5 -48t-23.5 -58h-122q1 39 17 67z" />
    <glyph glyph-name="uni1EA4" unicode="&#x1ea4;" horiz-adv-x="1566" 
d="M1303 0l-176 453h-691l-176 -453h-224l587 1480h320l587 -1480h-227zM505 629h553l-276 710zM1225 2064h175l-207 -258h-145zM685 1876h196l303 -272h-198l-203 190l-203 -190h-198z" />
    <glyph glyph-name="uni1EA5" unicode="&#x1ea5;" horiz-adv-x="1199" 
d="M832 1064.5q108 -40.5 162 -134.5t54 -256v-674h-186l-16 117h-12q-61 -64 -154 -99.5t-198 -35.5q-120 0 -205 37.5t-129 105.5t-44 160q0 145 108.5 224.5t345.5 100.5l272 27v52q0 96 -33 150t-99.5 76t-176.5 22q-76 0 -164.5 -13t-169.5 -39v166q80 26 177.5 40
t187.5 14q172 0 280 -40.5zM696 164.5q75 28.5 134 85.5v255l-255 -25q-133 -15 -190 -57.5t-57 -120.5q0 -79 53 -122.5t160 -43.5q80 0 155 28.5zM1045 1868h204l-250 -271h-169zM504 1616h184l271 -369h-178l-185 258l-185 -258h-178z" />
    <glyph glyph-name="uni1EA6" unicode="&#x1ea6;" horiz-adv-x="1566" 
d="M1303 0l-176 453h-691l-176 -453h-224l587 1480h320l587 -1480h-227zM505 629h553l-276 710zM1221 1806h-145l-208 258h176zM685 1876h196l303 -272h-198l-203 190l-203 -190h-198z" />
    <glyph glyph-name="uni1EA7" unicode="&#x1ea7;" horiz-adv-x="1199" 
d="M832 1064.5q108 -40.5 162 -134.5t54 -256v-674h-186l-16 117h-12q-61 -64 -154 -99.5t-198 -35.5q-120 0 -205 37.5t-129 105.5t-44 160q0 145 108.5 224.5t345.5 100.5l272 27v52q0 96 -33 150t-99.5 76t-176.5 22q-76 0 -164.5 -13t-169.5 -39v166q80 26 177.5 40
t187.5 14q172 0 280 -40.5zM696 164.5q75 28.5 134 85.5v255l-255 -25q-133 -15 -190 -57.5t-57 -120.5q0 -79 53 -122.5t160 -43.5q80 0 155 28.5zM1030 1597h-168l-250 271h203zM504 1616h184l271 -369h-178l-185 258l-185 -258h-178z" />
    <glyph glyph-name="uni1EA8" unicode="&#x1ea8;" horiz-adv-x="1566" 
d="M1303 0l-176 453h-691l-176 -453h-224l587 1480h320l587 -1480h-227zM505 629h553l-276 710zM1297.5 2056.5q57.5 -30.5 57.5 -84.5q0 -40 -27 -62t-78 -43q-38 -17 -56.5 -29.5t-20.5 -31.5h-125q1 27 17 45.5t37.5 29.5t56.5 25q38 15 55.5 26t17.5 29q0 43 -124 43
q-57 0 -104.5 -6.5t-107.5 -22.5v83q97 29 225 29q119 0 176.5 -30.5zM685 1876h196l303 -272h-198l-203 190l-203 -190h-198z" />
    <glyph glyph-name="uni1EA9" unicode="&#x1ea9;" horiz-adv-x="1199" 
d="M832 1064.5q108 -40.5 162 -134.5t54 -256v-674h-186l-16 117h-12q-61 -64 -154 -99.5t-198 -35.5q-120 0 -205 37.5t-129 105.5t-44 160q0 145 108.5 224.5t345.5 100.5l272 27v52q0 96 -33 150t-99.5 76t-176.5 22q-76 0 -164.5 -13t-169.5 -39v166q80 26 177.5 40
t187.5 14q172 0 280 -40.5zM696 164.5q75 28.5 134 85.5v255l-255 -25q-133 -15 -190 -57.5t-57 -120.5q0 -79 53 -122.5t160 -43.5q80 0 155 28.5zM1121 1763q0 -36 -23.5 -55.5t-67.5 -38.5q-40 -19 -59.5 -33t-22.5 -39h-113q3 42 31 64t77 42q32 14 47 24t15 25
q0 22 -26.5 33t-89.5 11q-55 0 -102.5 -6.5t-97.5 -21.5v80q41 14 97.5 22t115.5 8q219 0 219 -115zM504 1616h184l271 -369h-178l-185 258l-185 -258h-178z" />
    <glyph glyph-name="uni1EAA" unicode="&#x1eaa;" horiz-adv-x="1566" 
d="M1303 0l-176 453h-691l-176 -453h-224l587 1480h320l587 -1480h-227zM505 629h553l-276 710zM1076.5 2036.5q50.5 15.5 107.5 52.5v-107q-49 -33 -101 -47t-118 -14q-50 0 -93.5 9t-109.5 27q-55 16 -91 23.5t-72 7.5q-58 0 -108.5 -16t-108.5 -53v108q50 33 102.5 47.5
t116.5 14.5q50 0 95 -9.5t108 -27.5q55 -16 91 -23.5t72 -7.5q59 0 109.5 15.5zM685 1876h196l303 -272h-198l-203 190l-203 -190h-198z" />
    <glyph glyph-name="uni1EAB" unicode="&#x1eab;" horiz-adv-x="1199" 
d="M832 1064.5q108 -40.5 162 -134.5t54 -256v-674h-186l-16 117h-12q-61 -64 -154 -99.5t-198 -35.5q-120 0 -205 37.5t-129 105.5t-44 160q0 145 108.5 224.5t345.5 100.5l272 27v52q0 96 -33 150t-99.5 76t-176.5 22q-76 0 -164.5 -13t-169.5 -39v166q80 26 177.5 40
t187.5 14q172 0 280 -40.5zM696 164.5q75 28.5 134 85.5v255l-255 -25q-133 -15 -190 -57.5t-57 -120.5q0 -79 53 -122.5t160 -43.5q80 0 155 28.5zM679 1654.5q-40 9.5 -99 27.5q-55 17 -88 24.5t-69 7.5q-57 0 -102.5 -15.5t-90.5 -48.5v119q74 62 197 62q46 0 86 -9.5
t99 -27.5q52 -17 86.5 -25t70.5 -8q57 0 102.5 15.5t90.5 48.5v-119q-74 -61 -197 -61q-46 0 -86 9.5zM982 1248h-189l-197 243l-197 -243h-189l288 338h196z" />
    <glyph glyph-name="uni1EAC" unicode="&#x1eac;" horiz-adv-x="1566" 
d="M1303 0l-176 453h-691l-176 -453h-224l587 1480h320l587 -1480h-227zM505 629h553l-276 710zM677 -341q-36 29 -36 79t36 79.5t106 29.5t106 -29.5t36 -79.5t-36 -79t-106 -29t-106 29zM1184 1604h-198l-203 199l-203 -199h-198l303 289h196z" />
    <glyph glyph-name="uni1EAD" unicode="&#x1ead;" horiz-adv-x="1199" 
d="M832 1064.5q108 -40.5 162 -134.5t54 -256v-674h-186l-16 117h-12q-61 -64 -154 -99.5t-198 -35.5q-120 0 -205 37.5t-129 105.5t-44 160q0 145 108.5 224.5t345.5 100.5l272 27v52q0 96 -33 150t-99.5 76t-176.5 22q-76 0 -164.5 -13t-169.5 -39v166q80 26 177.5 40
t187.5 14q172 0 280 -40.5zM696 164.5q75 28.5 134 85.5v255l-255 -25q-133 -15 -190 -57.5t-57 -120.5q0 -79 53 -122.5t160 -43.5q80 0 155 28.5zM515 -353.5q-33 30.5 -33 84.5t33.5 85t95.5 31t95.5 -31t33.5 -85t-33 -84.5t-96 -30.5t-96 30.5zM959 1247h-178l-185 258
l-185 -258h-178l271 369h184z" />
    <glyph glyph-name="uni1EAE" unicode="&#x1eae;" horiz-adv-x="1566" 
d="M1303 0l-176 453h-691l-176 -453h-224l587 1480h320l587 -1480h-227zM505 629h553l-276 710zM710 1838l177 246h176l-207 -246h-146zM526 1679.5q-90 67.5 -107 179.5h125q14 -71 68 -108t172 -37t171.5 37t70.5 108h121q-17 -113 -106 -180t-257 -67t-258 67.5z" />
    <glyph glyph-name="uni1EAF" unicode="&#x1eaf;" horiz-adv-x="1199" 
d="M832 1064.5q108 -40.5 162 -134.5t54 -256v-674h-186l-16 117h-12q-61 -64 -154 -99.5t-198 -35.5q-120 0 -205 37.5t-129 105.5t-44 160q0 145 108.5 224.5t345.5 100.5l272 27v52q0 96 -33 150t-99.5 76t-176.5 22q-76 0 -164.5 -13t-169.5 -39v166q80 26 177.5 40
t187.5 14q172 0 280 -40.5zM696 164.5q75 28.5 134 85.5v255l-255 -25q-133 -15 -190 -57.5t-57 -120.5q0 -79 53 -122.5t160 -43.5q80 0 155 28.5zM510 1597l215 271h204l-250 -271h-169zM330.5 1345q-94.5 86 -107.5 227h143q11 -91 67 -144t164 -53t163 52.5t66 144.5
h143q-13 -142 -106.5 -227.5t-265.5 -85.5t-266.5 86z" />
    <glyph glyph-name="uni1EB0" unicode="&#x1eb0;" horiz-adv-x="1566" 
d="M1303 0l-176 453h-691l-176 -453h-224l587 1480h320l587 -1480h-227zM505 629h553l-276 710zM710 1838l-207 246h176l177 -246h-146zM525 1679q-89 67 -106 180h121q17 -71 70.5 -108t171.5 -37t172 37t68 108h125q-17 -112 -107 -179.5t-258 -67.5t-257 67z" />
    <glyph glyph-name="uni1EB1" unicode="&#x1eb1;" horiz-adv-x="1199" 
d="M832 1064.5q108 -40.5 162 -134.5t54 -256v-674h-186l-16 117h-12q-61 -64 -154 -99.5t-198 -35.5q-120 0 -205 37.5t-129 105.5t-44 160q0 145 108.5 224.5t345.5 100.5l272 27v52q0 96 -33 150t-99.5 76t-176.5 22q-76 0 -164.5 -13t-169.5 -39v166q80 26 177.5 40
t187.5 14q172 0 280 -40.5zM696 164.5q75 28.5 134 85.5v255l-255 -25q-133 -15 -190 -57.5t-57 -120.5q0 -79 53 -122.5t160 -43.5q80 0 155 28.5zM513 1597l-250 271h204l215 -271h-169zM330.5 1345q-94.5 86 -107.5 227h143q11 -91 67 -144t164 -53t163 52.5t66 144.5
h143q-13 -142 -106.5 -227.5t-265.5 -85.5t-266.5 86z" />
    <glyph glyph-name="uni1EB2" unicode="&#x1eb2;" horiz-adv-x="1566" 
d="M1303 0l-176 453h-691l-176 -453h-224l587 1480h320l587 -1480h-227zM505 629h553l-276 710zM737 1883.5q16 18.5 37.5 29.5t56.5 25q38 15 55.5 26t17.5 29q0 43 -124 43q-57 0 -104.5 -6.5t-107.5 -22.5v82q100 30 225 30q119 0 176.5 -30.5t57.5 -85.5q0 -40 -27 -61
t-78 -43q-39 -17 -57 -29.5t-20 -31.5h-125q1 27 17 45.5zM525 1679q-89 67 -106 180h125q14 -71 67 -108t171 -37t172.5 37t71.5 108h121q-17 -112 -107 -179.5t-258 -67.5t-257 67z" />
    <glyph glyph-name="uni1EB3" unicode="&#x1eb3;" horiz-adv-x="1199" 
d="M832 1064.5q108 -40.5 162 -134.5t54 -256v-674h-186l-16 117h-12q-61 -64 -154 -99.5t-198 -35.5q-120 0 -205 37.5t-129 105.5t-44 160q0 145 108.5 224.5t345.5 100.5l272 27v52q0 96 -33 150t-99.5 76t-176.5 22q-76 0 -164.5 -13t-169.5 -39v166q80 26 177.5 40
t187.5 14q172 0 280 -40.5zM696 164.5q75 28.5 134 85.5v255l-255 -25q-133 -15 -190 -57.5t-57 -120.5q0 -79 53 -122.5t160 -43.5q80 0 155 28.5zM550 1642.5q16 18.5 37.5 29.5t56.5 25q38 15 55.5 26t17.5 29q0 43 -124 43q-57 0 -104.5 -6.5t-107.5 -22.5v82
q100 30 225 30q119 0 176.5 -30.5t57.5 -85.5q0 -40 -27 -61t-78 -43q-39 -17 -57 -29.5t-20 -31.5h-125q1 27 17 45.5zM330.5 1345q-94.5 86 -107.5 227h143q11 -91 67 -144t164 -53t163 52.5t66 144.5h143q-13 -142 -106.5 -227.5t-265.5 -85.5t-266.5 86z" />
    <glyph glyph-name="uni1EB4" unicode="&#x1eb4;" horiz-adv-x="1566" 
d="M1303 0l-176 453h-691l-176 -453h-224l587 1480h320l587 -1480h-227zM505 629h553l-276 710zM861.5 1930q-38.5 9 -98.5 27q-48 16 -79 23.5t-62 7.5q-53 0 -100 -16t-103 -53v108q49 33 97.5 47.5t106.5 14.5q43 0 83 -9.5t97 -27.5q48 -16 79 -23.5t62 -7.5
q53 0 100.5 15.5t102.5 52.5v-107q-48 -33 -96.5 -47t-107.5 -14q-43 0 -81.5 9zM525 1679q-89 67 -106 180h125q14 -71 67 -108t171 -37t172 37t68 108h125q-17 -112 -107 -179.5t-258 -67.5t-257 67z" />
    <glyph glyph-name="uni1EB5" unicode="&#x1eb5;" horiz-adv-x="1199" 
d="M832 1064.5q108 -40.5 162 -134.5t54 -256v-674h-186l-16 117h-12q-61 -64 -154 -99.5t-198 -35.5q-120 0 -205 37.5t-129 105.5t-44 160q0 145 108.5 224.5t345.5 100.5l272 27v52q0 96 -33 150t-99.5 76t-176.5 22q-76 0 -164.5 -13t-169.5 -39v166q80 26 177.5 40
t187.5 14q172 0 280 -40.5zM696 164.5q75 28.5 134 85.5v255l-255 -25q-133 -15 -190 -57.5t-57 -120.5q0 -79 53 -122.5t160 -43.5q80 0 155 28.5zM681.5 1654.5q-42.5 9.5 -102.5 27.5q-57 17 -91.5 24.5t-71.5 7.5q-60 0 -107.5 -15.5t-93.5 -48.5v119q39 32 89 47
t116 15q48 0 90.5 -9.5t102.5 -27.5q54 -17 90 -25t73 -8q60 0 107 15.5t94 49.5v-120q-39 -31 -89 -46t-116 -15q-48 0 -90.5 9.5zM330.5 1345q-94.5 86 -107.5 227h143q11 -91 67 -144t164 -53t163 52.5t66 144.5h143q-13 -142 -106.5 -227.5t-265.5 -85.5t-266.5 86z" />
    <glyph glyph-name="uni1EB6" unicode="&#x1eb6;" horiz-adv-x="1566" 
d="M1303 0l-176 453h-691l-176 -453h-224l587 1480h320l587 -1480h-227zM505 629h553l-276 710zM677 -341q-36 29 -36 79t36 79.5t106 29.5t106 -29.5t36 -79.5t-36 -79t-106 -29t-106 29zM510 1685q-96 73 -112 191h143q15 -70 72 -108.5t171 -38.5t170 38.5t71 108.5h143
q-16 -119 -110.5 -191.5t-273.5 -72.5q-178 0 -274 73z" />
    <glyph glyph-name="uni1EB7" unicode="&#x1eb7;" horiz-adv-x="1199" 
d="M832 1064.5q108 -40.5 162 -134.5t54 -256v-674h-186l-16 117h-12q-61 -64 -154 -99.5t-198 -35.5q-120 0 -205 37.5t-129 105.5t-44 160q0 145 108.5 224.5t345.5 100.5l272 27v52q0 96 -33 150t-99.5 76t-176.5 22q-76 0 -164.5 -13t-169.5 -39v166q80 26 177.5 40
t187.5 14q172 0 280 -40.5zM696 164.5q75 28.5 134 85.5v255l-255 -25q-133 -15 -190 -57.5t-57 -120.5q0 -79 53 -122.5t160 -43.5q80 0 155 28.5zM515 -353.5q-33 30.5 -33 84.5t33.5 85t95.5 31t95.5 -31t33.5 -85t-33 -84.5t-96 -30.5t-96 30.5zM404 1297.5
q-80 41.5 -123 117t-48 176.5h141q18 -215 223 -215q203 0 221 215h141q-8 -155 -101 -245t-261 -90q-113 0 -193 41.5z" />
    <glyph glyph-name="uni1EB8" unicode="&#x1eb8;" horiz-adv-x="1367" 
d="M407 176h861v-176h-1085v1480h1075v-176h-851v-457h748v-177h-748v-494zM638 -341q-36 29 -36 79t36 79.5t106 29.5t106 -29.5t36 -79.5t-36 -79t-106 -29t-106 29z" />
    <glyph glyph-name="uni1EB9" unicode="&#x1eb9;" horiz-adv-x="1200" 
d="M1114 478h-789q6 -118 51 -190.5t135 -106.5t231 -34q140 0 310 43v-165q-177 -45 -341 -45q-304 0 -455.5 137.5t-151.5 424.5q0 180 61 306t176.5 191.5t278.5 65.5q240 0 367 -146.5t127 -422.5v-58zM403 873.5q-74 -84.5 -79 -261.5h581q-4 177 -76 261.5t-212 84.5
t-214 -84.5zM525 -353.5q-33 30.5 -33 84.5t33.5 85t95.5 31t95.5 -31t33.5 -85t-33 -84.5t-96 -30.5t-96 30.5z" />
    <glyph glyph-name="uni1EBA" unicode="&#x1eba;" horiz-adv-x="1367" 
d="M407 176h861v-176h-1085v1480h1075v-176h-851v-457h748v-177h-748v-494zM696.5 1653q16.5 20 38 31.5t56.5 26.5q37 16 54.5 27.5t17.5 29.5q0 22 -28.5 33t-95.5 11q-59 0 -106.5 -6.5t-105.5 -23.5v92q95 30 225 30q119 0 176.5 -32.5t57.5 -90.5q0 -30 -15 -50.5
t-35.5 -33.5t-54.5 -29q-37 -16 -56 -29.5t-21 -34.5h-125q1 29 17.5 49z" />
    <glyph glyph-name="uni1EBB" unicode="&#x1ebb;" horiz-adv-x="1200" 
d="M1114 478h-789q6 -118 51 -190.5t135 -106.5t231 -34q140 0 310 43v-165q-177 -45 -341 -45q-304 0 -455.5 137.5t-151.5 424.5q0 180 61 306t176.5 191.5t278.5 65.5q240 0 367 -146.5t127 -422.5v-58zM403 873.5q-74 -84.5 -79 -261.5h581q-4 177 -76 261.5t-212 84.5
t-214 -84.5zM578 1314q16 28 37 45.5t53 37.5q34 21 49.5 36.5t15.5 38.5q0 32 -29.5 46.5t-95.5 14.5q-93 0 -175 -24v94q36 12 87 18.5t97 6.5q122 0 180.5 -36.5t58.5 -108.5q0 -47 -22.5 -74t-67.5 -56q-39 -26 -59.5 -48t-23.5 -58h-122q1 39 17 67z" />
    <glyph glyph-name="uni1EBC" unicode="&#x1ebc;" horiz-adv-x="1367" 
d="M407 176h861v-176h-1085v1480h1075v-176h-851v-457h748v-177h-748v-494zM827 1664q-42 10 -101 29q-53 18 -89 26.5t-74 8.5q-61 0 -107.5 -16.5t-91.5 -51.5v132q38 34 87 50t116 16q48 0 90 -10t101 -29q53 -18 89 -26.5t74 -8.5q61 0 107.5 16t91.5 52v-132
q-38 -34 -86.5 -50t-116.5 -16q-48 0 -90 10z" />
    <glyph glyph-name="uni1EBD" unicode="&#x1ebd;" horiz-adv-x="1200" 
d="M1114 478h-789q6 -118 51 -190.5t135 -106.5t231 -34q140 0 310 43v-165q-177 -45 -341 -45q-304 0 -455.5 137.5t-151.5 424.5q0 180 61 306t176.5 191.5t278.5 65.5q240 0 367 -146.5t127 -422.5v-58zM403 873.5q-74 -84.5 -79 -261.5h581q-4 177 -76 261.5t-212 84.5
t-214 -84.5zM700 1337.5q-39 11.5 -95 33.5q-50 20 -83.5 29.5t-66.5 9.5q-55 0 -100 -18.5t-89 -59.5v143q37 36 84.5 53t109.5 17q43 0 82 -11.5t95 -33.5q50 -20 83.5 -29.5t66.5 -9.5q55 0 100 18.5t89 59.5v-143q-37 -36 -84.5 -53t-109.5 -17q-43 0 -82 11.5z" />
    <glyph glyph-name="uni1EBE" unicode="&#x1ebe;" horiz-adv-x="1367" 
d="M407 176h861v-176h-1085v1480h1075v-176h-851v-457h748v-177h-748v-494zM1184 2064h175l-207 -258h-145zM644 1876h196l303 -272h-198l-203 190l-203 -190h-198z" />
    <glyph glyph-name="uni1EBF" unicode="&#x1ebf;" horiz-adv-x="1200" 
d="M1114 478h-789q6 -118 51 -190.5t135 -106.5t231 -34q140 0 310 43v-165q-177 -45 -341 -45q-304 0 -455.5 137.5t-151.5 424.5q0 180 61 306t176.5 191.5t278.5 65.5q240 0 367 -146.5t127 -422.5v-58zM403 873.5q-74 -84.5 -79 -261.5h581q-4 177 -76 261.5t-212 84.5
t-214 -84.5zM1070 1868h204l-250 -271h-169zM529 1616h184l271 -369h-178l-185 258l-185 -258h-178z" />
    <glyph glyph-name="uni1EC0" unicode="&#x1ec0;" horiz-adv-x="1367" 
d="M407 176h861v-176h-1085v1480h1075v-176h-851v-457h748v-177h-748v-494zM1180 1806h-145l-208 258h176zM644 1876h196l303 -272h-198l-203 190l-203 -190h-198z" />
    <glyph glyph-name="uni1EC1" unicode="&#x1ec1;" horiz-adv-x="1200" 
d="M1114 478h-789q6 -118 51 -190.5t135 -106.5t231 -34q140 0 310 43v-165q-177 -45 -341 -45q-304 0 -455.5 137.5t-151.5 424.5q0 180 61 306t176.5 191.5t278.5 65.5q240 0 367 -146.5t127 -422.5v-58zM403 873.5q-74 -84.5 -79 -261.5h581q-4 177 -76 261.5t-212 84.5
t-214 -84.5zM1055 1597h-168l-250 271h203zM529 1616h184l271 -369h-178l-185 258l-185 -258h-178z" />
    <glyph glyph-name="uni1EC2" unicode="&#x1ec2;" horiz-adv-x="1367" 
d="M407 176h861v-176h-1085v1480h1075v-176h-851v-457h748v-177h-748v-494zM1256.5 2056.5q57.5 -30.5 57.5 -84.5q0 -40 -27 -62t-78 -43q-38 -17 -56.5 -29.5t-20.5 -31.5h-125q1 27 17 45.5t37.5 29.5t56.5 25q38 15 55.5 26t17.5 29q0 43 -124 43q-57 0 -104.5 -6.5
t-107.5 -22.5v83q97 29 225 29q119 0 176.5 -30.5zM644 1876h196l303 -272h-198l-203 190l-203 -190h-198z" />
    <glyph glyph-name="uni1EC3" unicode="&#x1ec3;" horiz-adv-x="1200" 
d="M1114 478h-789q6 -118 51 -190.5t135 -106.5t231 -34q140 0 310 43v-165q-177 -45 -341 -45q-304 0 -455.5 137.5t-151.5 424.5q0 180 61 306t176.5 191.5t278.5 65.5q240 0 367 -146.5t127 -422.5v-58zM403 873.5q-74 -84.5 -79 -261.5h581q-4 177 -76 261.5t-212 84.5
t-214 -84.5zM1146 1763q0 -36 -23.5 -55.5t-67.5 -38.5q-40 -19 -59.5 -33t-22.5 -39h-113q3 42 31 64t77 42q32 14 47 24t15 25q0 22 -26.5 33t-89.5 11q-55 0 -102.5 -6.5t-97.5 -21.5v80q41 14 97.5 22t115.5 8q219 0 219 -115zM529 1616h184l271 -369h-178l-185 258
l-185 -258h-178z" />
    <glyph glyph-name="uni1EC4" unicode="&#x1ec4;" horiz-adv-x="1367" 
d="M407 176h861v-176h-1085v1480h1075v-176h-851v-457h748v-177h-748v-494zM1035.5 2036.5q50.5 15.5 107.5 52.5v-107q-49 -33 -101 -47t-118 -14q-50 0 -93.5 9t-109.5 27q-55 16 -91 23.5t-72 7.5q-58 0 -108.5 -16t-108.5 -53v108q50 33 102.5 47.5t116.5 14.5
q50 0 95 -9.5t108 -27.5q55 -16 91 -23.5t72 -7.5q59 0 109.5 15.5zM644 1876h196l303 -272h-198l-203 190l-203 -190h-198z" />
    <glyph glyph-name="uni1EC5" unicode="&#x1ec5;" horiz-adv-x="1200" 
d="M1114 478h-789q6 -118 51 -190.5t135 -106.5t231 -34q140 0 310 43v-165q-177 -45 -341 -45q-304 0 -455.5 137.5t-151.5 424.5q0 180 61 306t176.5 191.5t278.5 65.5q240 0 367 -146.5t127 -422.5v-58zM403 873.5q-74 -84.5 -79 -261.5h581q-4 177 -76 261.5t-212 84.5
t-214 -84.5zM704 1654.5q-40 9.5 -99 27.5q-55 17 -88 24.5t-69 7.5q-57 0 -102.5 -15.5t-90.5 -48.5v119q74 62 197 62q46 0 86 -9.5t99 -27.5q52 -17 86.5 -25t70.5 -8q57 0 102.5 15.5t90.5 48.5v-119q-74 -61 -197 -61q-46 0 -86 9.5zM1007 1248h-189l-197 243
l-197 -243h-189l288 338h196z" />
    <glyph glyph-name="uni1EC6" unicode="&#x1ec6;" horiz-adv-x="1367" 
d="M407 176h861v-176h-1085v1480h1075v-176h-851v-457h748v-177h-748v-494zM638 -341q-36 29 -36 79t36 79.5t106 29.5t106 -29.5t36 -79.5t-36 -79t-106 -29t-106 29zM1143 1604h-198l-203 199l-203 -199h-198l303 289h196z" />
    <glyph glyph-name="uni1EC7" unicode="&#x1ec7;" horiz-adv-x="1200" 
d="M1114 478h-789q6 -118 51 -190.5t135 -106.5t231 -34q140 0 310 43v-165q-177 -45 -341 -45q-304 0 -455.5 137.5t-151.5 424.5q0 180 61 306t176.5 191.5t278.5 65.5q240 0 367 -146.5t127 -422.5v-58zM403 873.5q-74 -84.5 -79 -261.5h581q-4 177 -76 261.5t-212 84.5
t-214 -84.5zM525 -353.5q-33 30.5 -33 84.5t33.5 85t95.5 31t95.5 -31t33.5 -85t-33 -84.5t-96 -30.5t-96 30.5zM984 1247h-178l-185 258l-185 -258h-178l271 369h184z" />
    <glyph glyph-name="uni1EC8" unicode="&#x1ec8;" horiz-adv-x="592" 
d="M183 0v1480h226v-1480h-226zM250.5 1653q16.5 20 38 31.5t56.5 26.5q37 16 54.5 27.5t17.5 29.5q0 22 -28.5 33t-95.5 11q-59 0 -106.5 -6.5t-105.5 -23.5v92q95 30 225 30q119 0 176.5 -32.5t57.5 -90.5q0 -30 -15 -50.5t-35.5 -33.5t-54.5 -29q-37 -16 -56 -29.5
t-21 -34.5h-125q1 29 17.5 49z" />
    <glyph glyph-name="uni1EC9" unicode="&#x1ec9;" horiz-adv-x="552" 
d="M165 0v1088h222v-1088h-222zM233 1314q16 28 37 45.5t53 37.5q34 21 49.5 36.5t15.5 38.5q0 32 -29.5 46.5t-95.5 14.5q-93 0 -175 -24v94q36 12 87 18.5t97 6.5q122 0 180.5 -36.5t58.5 -108.5q0 -47 -22.5 -74t-67.5 -56q-39 -26 -59.5 -48t-23.5 -58h-122q1 39 17 67z
" />
    <glyph glyph-name="uni1ECA" unicode="&#x1eca;" horiz-adv-x="592" 
d="M183 0v1480h226v-1480h-226zM189 -341q-36 29 -36 79t36 79.5t106 29.5t106 -29.5t36 -79.5t-36 -79t-106 -29t-106 29z" />
    <glyph glyph-name="uni1ECB" unicode="&#x1ecb;" horiz-adv-x="552" 
d="M165 0v1088h222v-1088h-222zM168.5 1331q-36.5 31 -36.5 89q0 59 36.5 90.5t107.5 31.5t107.5 -31.5t36.5 -90.5q0 -58 -36.5 -89t-107.5 -31t-107.5 31zM180 -353.5q-33 30.5 -33 84.5t33.5 85t95.5 31t95.5 -31t33.5 -85t-33 -84.5t-96 -30.5t-96 30.5z" />
    <glyph glyph-name="uni1ECC" unicode="&#x1ecc;" horiz-adv-x="1696" 
d="M460.5 66q-164.5 85 -254 255t-89.5 419t90.5 419t254.5 255t386 85q224 0 388 -85t253.5 -255.5t89.5 -418.5t-90.5 -418t-254.5 -255.5t-386 -85.5q-223 0 -387.5 85zM1216 305.5q131 139.5 131 428.5q0 296 -131.5 438t-367.5 142q-235 0 -367 -139.5t-132 -428.5
q0 -298 131 -439t368 -141t368 139.5zM742 -341q-36 29 -36 79t36 79.5t106 29.5t106 -29.5t36 -79.5t-36 -79t-106 -29t-106 29z" />
    <glyph glyph-name="uni1ECD" unicode="&#x1ecd;" horiz-adv-x="1305" 
d="M362.5 43q-123.5 63 -191 189t-67.5 312q0 184 66.5 309.5t189.5 188.5t293 63q260 0 404 -141.5t144 -419.5q0 -183 -68 -309.5t-191.5 -190.5t-288.5 -64q-167 0 -290.5 63zM979 543q0 201 -84 293.5t-242 92.5t-242.5 -92t-84.5 -292q0 -389 327 -389q326 0 326 387z
M557 -353.5q-33 30.5 -33 84.5t33.5 85t95.5 31t95.5 -31t33.5 -85t-33 -84.5t-96 -30.5t-96 30.5z" />
    <glyph glyph-name="uni1ECE" unicode="&#x1ece;" horiz-adv-x="1696" 
d="M460.5 66q-164.5 85 -254 255t-89.5 419t90.5 419t254.5 255t386 85q224 0 388 -85t253.5 -255.5t89.5 -418.5t-90.5 -418t-254.5 -255.5t-386 -85.5q-223 0 -387.5 85zM1216 305.5q131 139.5 131 428.5q0 296 -131.5 438t-367.5 142q-235 0 -367 -139.5t-132 -428.5
q0 -298 131 -439t368 -141t368 139.5zM802.5 1653q16.5 20 38 31.5t56.5 26.5q37 16 54.5 27.5t17.5 29.5q0 22 -28.5 33t-95.5 11q-59 0 -106.5 -6.5t-105.5 -23.5v92q95 30 225 30q119 0 176.5 -32.5t57.5 -90.5q0 -30 -15 -50.5t-35.5 -33.5t-54.5 -29q-37 -16 -56 -29.5
t-21 -34.5h-125q1 29 17.5 49z" />
    <glyph glyph-name="uni1ECF" unicode="&#x1ecf;" horiz-adv-x="1305" 
d="M362.5 43q-123.5 63 -191 189t-67.5 312q0 184 66.5 309.5t189.5 188.5t293 63q260 0 404 -141.5t144 -419.5q0 -183 -68 -309.5t-191.5 -190.5t-288.5 -64q-167 0 -290.5 63zM979 543q0 201 -84 293.5t-242 92.5t-242.5 -92t-84.5 -292q0 -389 327 -389q326 0 326 387z
M610 1314q16 28 37 45.5t53 37.5q34 21 49.5 36.5t15.5 38.5q0 32 -29.5 46.5t-95.5 14.5q-93 0 -175 -24v94q36 12 87 18.5t97 6.5q122 0 180.5 -36.5t58.5 -108.5q0 -47 -22.5 -74t-67.5 -56q-39 -26 -59.5 -48t-23.5 -58h-122q1 39 17 67z" />
    <glyph glyph-name="uni1ED0" unicode="&#x1ed0;" horiz-adv-x="1696" 
d="M460.5 66q-164.5 85 -254 255t-89.5 419t90.5 419t254.5 255t386 85q224 0 388 -85t253.5 -255.5t89.5 -418.5t-90.5 -418t-254.5 -255.5t-386 -85.5q-223 0 -387.5 85zM1216 305.5q131 139.5 131 428.5q0 296 -131.5 438t-367.5 142q-235 0 -367 -139.5t-132 -428.5
q0 -298 131 -439t368 -141t368 139.5zM1290 2064h175l-207 -258h-145zM750 1876h196l303 -272h-198l-203 190l-203 -190h-198z" />
    <glyph glyph-name="uni1ED1" unicode="&#x1ed1;" horiz-adv-x="1305" 
d="M362.5 43q-123.5 63 -191 189t-67.5 312q0 184 66.5 309.5t189.5 188.5t293 63q260 0 404 -141.5t144 -419.5q0 -183 -68 -309.5t-191.5 -190.5t-288.5 -64q-167 0 -290.5 63zM979 543q0 201 -84 293.5t-242 92.5t-242.5 -92t-84.5 -292q0 -389 327 -389q326 0 326 387z
M1102 1868h204l-250 -271h-169zM561 1616h184l271 -369h-178l-185 258l-185 -258h-178z" />
    <glyph glyph-name="uni1ED2" unicode="&#x1ed2;" horiz-adv-x="1696" 
d="M460.5 66q-164.5 85 -254 255t-89.5 419t90.5 419t254.5 255t386 85q224 0 388 -85t253.5 -255.5t89.5 -418.5t-90.5 -418t-254.5 -255.5t-386 -85.5q-223 0 -387.5 85zM1216 305.5q131 139.5 131 428.5q0 296 -131.5 438t-367.5 142q-235 0 -367 -139.5t-132 -428.5
q0 -298 131 -439t368 -141t368 139.5zM1286 1806h-145l-208 258h176zM750 1876h196l303 -272h-198l-203 190l-203 -190h-198z" />
    <glyph glyph-name="uni1ED3" unicode="&#x1ed3;" horiz-adv-x="1305" 
d="M362.5 43q-123.5 63 -191 189t-67.5 312q0 184 66.5 309.5t189.5 188.5t293 63q260 0 404 -141.5t144 -419.5q0 -183 -68 -309.5t-191.5 -190.5t-288.5 -64q-167 0 -290.5 63zM979 543q0 201 -84 293.5t-242 92.5t-242.5 -92t-84.5 -292q0 -389 327 -389q326 0 326 387z
M1087 1597h-168l-250 271h203zM561 1616h184l271 -369h-178l-185 258l-185 -258h-178z" />
    <glyph glyph-name="uni1ED4" unicode="&#x1ed4;" horiz-adv-x="1696" 
d="M460.5 66q-164.5 85 -254 255t-89.5 419t90.5 419t254.5 255t386 85q224 0 388 -85t253.5 -255.5t89.5 -418.5t-90.5 -418t-254.5 -255.5t-386 -85.5q-223 0 -387.5 85zM1216 305.5q131 139.5 131 428.5q0 296 -131.5 438t-367.5 142q-235 0 -367 -139.5t-132 -428.5
q0 -298 131 -439t368 -141t368 139.5zM1362.5 2056.5q57.5 -30.5 57.5 -84.5q0 -40 -27 -62t-78 -43q-38 -17 -56.5 -29.5t-20.5 -31.5h-125q1 27 17 45.5t37.5 29.5t56.5 25q38 15 55.5 26t17.5 29q0 43 -124 43q-57 0 -104.5 -6.5t-107.5 -22.5v83q97 29 225 29
q119 0 176.5 -30.5zM750 1876h196l303 -272h-198l-203 190l-203 -190h-198z" />
    <glyph glyph-name="uni1ED5" unicode="&#x1ed5;" horiz-adv-x="1305" 
d="M362.5 43q-123.5 63 -191 189t-67.5 312q0 184 66.5 309.5t189.5 188.5t293 63q260 0 404 -141.5t144 -419.5q0 -183 -68 -309.5t-191.5 -190.5t-288.5 -64q-167 0 -290.5 63zM979 543q0 201 -84 293.5t-242 92.5t-242.5 -92t-84.5 -292q0 -389 327 -389q326 0 326 387z
M1178 1763q0 -36 -23.5 -55.5t-67.5 -38.5q-40 -19 -59.5 -33t-22.5 -39h-113q3 42 31 64t77 42q32 14 47 24t15 25q0 22 -26.5 33t-89.5 11q-55 0 -102.5 -6.5t-97.5 -21.5v80q41 14 97.5 22t115.5 8q219 0 219 -115zM561 1616h184l271 -369h-178l-185 258l-185 -258h-178z
" />
    <glyph glyph-name="uni1ED6" unicode="&#x1ed6;" horiz-adv-x="1696" 
d="M460.5 66q-164.5 85 -254 255t-89.5 419t90.5 419t254.5 255t386 85q224 0 388 -85t253.5 -255.5t89.5 -418.5t-90.5 -418t-254.5 -255.5t-386 -85.5q-223 0 -387.5 85zM1216 305.5q131 139.5 131 428.5q0 296 -131.5 438t-367.5 142q-235 0 -367 -139.5t-132 -428.5
q0 -298 131 -439t368 -141t368 139.5zM1141.5 2036.5q50.5 15.5 107.5 52.5v-107q-49 -33 -101 -47t-118 -14q-50 0 -93.5 9t-109.5 27q-55 16 -91 23.5t-72 7.5q-58 0 -108.5 -16t-108.5 -53v108q50 33 102.5 47.5t116.5 14.5q50 0 95 -9.5t108 -27.5q55 -16 91 -23.5
t72 -7.5q59 0 109.5 15.5zM750 1876h196l303 -272h-198l-203 190l-203 -190h-198z" />
    <glyph glyph-name="uni1ED7" unicode="&#x1ed7;" horiz-adv-x="1305" 
d="M362.5 43q-123.5 63 -191 189t-67.5 312q0 184 66.5 309.5t189.5 188.5t293 63q260 0 404 -141.5t144 -419.5q0 -183 -68 -309.5t-191.5 -190.5t-288.5 -64q-167 0 -290.5 63zM979 543q0 201 -84 293.5t-242 92.5t-242.5 -92t-84.5 -292q0 -389 327 -389q326 0 326 387z
M736 1654.5q-40 9.5 -99 27.5q-55 17 -88 24.5t-69 7.5q-57 0 -102.5 -15.5t-90.5 -48.5v119q74 62 197 62q46 0 86 -9.5t99 -27.5q52 -17 86.5 -25t70.5 -8q57 0 102.5 15.5t90.5 48.5v-119q-74 -61 -197 -61q-46 0 -86 9.5zM1039 1248h-189l-197 243l-197 -243h-189
l288 338h196z" />
    <glyph glyph-name="uni1ED8" unicode="&#x1ed8;" horiz-adv-x="1696" 
d="M460.5 66q-164.5 85 -254 255t-89.5 419t90.5 419t254.5 255t386 85q224 0 388 -85t253.5 -255.5t89.5 -418.5t-90.5 -418t-254.5 -255.5t-386 -85.5q-223 0 -387.5 85zM1216 305.5q131 139.5 131 428.5q0 296 -131.5 438t-367.5 142q-235 0 -367 -139.5t-132 -428.5
q0 -298 131 -439t368 -141t368 139.5zM742 -341q-36 29 -36 79t36 79.5t106 29.5t106 -29.5t36 -79.5t-36 -79t-106 -29t-106 29zM1249 1604h-198l-203 199l-203 -199h-198l303 289h196z" />
    <glyph glyph-name="uni1ED9" unicode="&#x1ed9;" horiz-adv-x="1305" 
d="M362.5 43q-123.5 63 -191 189t-67.5 312q0 184 66.5 309.5t189.5 188.5t293 63q260 0 404 -141.5t144 -419.5q0 -183 -68 -309.5t-191.5 -190.5t-288.5 -64q-167 0 -290.5 63zM979 543q0 201 -84 293.5t-242 92.5t-242.5 -92t-84.5 -292q0 -389 327 -389q326 0 326 387z
M557 -353.5q-33 30.5 -33 84.5t33.5 85t95.5 31t95.5 -31t33.5 -85t-33 -84.5t-96 -30.5t-96 30.5zM1016 1247h-178l-185 258l-185 -258h-178l271 369h184z" />
    <glyph glyph-name="uni1EDA" unicode="&#x1eda;" horiz-adv-x="1696" 
d="M1513 1111.5q66 -155.5 66 -371.5q0 -252 -89.5 -421.5t-253.5 -253.5t-388 -84q-223 0 -387.5 85t-254 255t-89.5 419t90.5 419t254.5 255t386 85q49 0 103.5 -5t67.5 -6q113 -13 192 -13q110 0 164.5 38.5t54.5 121.5q0 34 -4.5 65.5t-15.5 75.5h153q13 -39 18 -73
t5 -74q0 -118 -67.5 -186.5t-195.5 -82.5q124 -93 190 -248.5zM1216 305.5q131 139.5 131 428.5q0 296 -131.5 438t-367.5 142q-235 0 -367 -139.5t-132 -428.5q0 -298 131 -439t368 -141t368 139.5zM743 1604l215 289h242l-250 -289h-207z" />
    <glyph glyph-name="uni1EDB" unicode="&#x1edb;" horiz-adv-x="1305" 
d="M1201 544q0 -183 -68 -309.5t-191.5 -190.5t-288.5 -64q-167 0 -290.5 63t-191 189t-67.5 312q0 184 67 309.5t191.5 188.5t297.5 63q47 0 138 -7q50 -5 81 -5q105 0 158 39t53 123q0 34 -4.5 65.5t-15.5 75.5h147q12 -40 17 -73.5t5 -73.5q0 -107 -53.5 -174t-153.5 -90
q169 -141 169 -441zM979 543q0 201 -84 293.5t-242 92.5t-242.5 -92t-84.5 -292q0 -389 327 -389q326 0 326 387zM541 1247l265 369h248l-297 -369h-216z" />
    <glyph glyph-name="uni1EDC" unicode="&#x1edc;" horiz-adv-x="1696" 
d="M1513 1111.5q66 -155.5 66 -371.5q0 -252 -89.5 -421.5t-253.5 -253.5t-388 -84q-223 0 -387.5 85t-254 255t-89.5 419t90.5 419t254.5 255t386 85q49 0 103.5 -5t67.5 -6q113 -13 192 -13q110 0 164.5 38.5t54.5 121.5q0 34 -4.5 65.5t-15.5 75.5h153q13 -39 18 -73
t5 -74q0 -118 -67.5 -186.5t-195.5 -82.5q124 -93 190 -248.5zM1216 305.5q131 139.5 131 428.5q0 296 -131.5 438t-367.5 142q-235 0 -367 -139.5t-132 -428.5q0 -298 131 -439t368 -141t368 139.5zM744 1604l-250 289h243l215 -289h-208z" />
    <glyph glyph-name="uni1EDD" unicode="&#x1edd;" horiz-adv-x="1305" 
d="M1201 544q0 -183 -68 -309.5t-191.5 -190.5t-288.5 -64q-167 0 -290.5 63t-191 189t-67.5 312q0 184 67 309.5t191.5 188.5t297.5 63q47 0 138 -7q50 -5 81 -5q105 0 158 39t53 123q0 34 -4.5 65.5t-15.5 75.5h147q12 -40 17 -73.5t5 -73.5q0 -107 -53.5 -174t-153.5 -90
q169 -141 169 -441zM979 543q0 201 -84 293.5t-242 92.5t-242.5 -92t-84.5 -292q0 -389 327 -389q326 0 326 387zM541 1247l-297 369h248l265 -369h-216z" />
    <glyph glyph-name="uni1EDE" unicode="&#x1ede;" horiz-adv-x="1696" 
d="M1513 1111.5q66 -155.5 66 -371.5q0 -252 -89.5 -421.5t-253.5 -253.5t-388 -84q-223 0 -387.5 85t-254 255t-89.5 419t90.5 419t254.5 255t386 85q49 0 103.5 -5t67.5 -6q113 -13 192 -13q110 0 164.5 38.5t54.5 121.5q0 34 -4.5 65.5t-15.5 75.5h153q13 -39 18 -73
t5 -74q0 -118 -67.5 -186.5t-195.5 -82.5q124 -93 190 -248.5zM1216 305.5q131 139.5 131 428.5q0 296 -131.5 438t-367.5 142q-235 0 -367 -139.5t-132 -428.5q0 -298 131 -439t368 -141t368 139.5zM802.5 1653q16.5 20 38 31.5t56.5 26.5q37 16 54.5 27.5t17.5 29.5
q0 22 -28.5 33t-95.5 11q-59 0 -106.5 -6.5t-105.5 -23.5v92q95 30 225 30q119 0 176.5 -32.5t57.5 -90.5q0 -30 -15 -50.5t-35.5 -33.5t-54.5 -29q-37 -16 -56 -29.5t-21 -34.5h-125q1 29 17.5 49z" />
    <glyph glyph-name="uni1EDF" unicode="&#x1edf;" horiz-adv-x="1305" 
d="M1201 544q0 -183 -68 -309.5t-191.5 -190.5t-288.5 -64q-167 0 -290.5 63t-191 189t-67.5 312q0 184 67 309.5t191.5 188.5t297.5 63q47 0 138 -7q50 -5 81 -5q105 0 158 39t53 123q0 34 -4.5 65.5t-15.5 75.5h147q12 -40 17 -73.5t5 -73.5q0 -107 -53.5 -174t-153.5 -90
q169 -141 169 -441zM979 543q0 201 -84 293.5t-242 92.5t-242.5 -92t-84.5 -292q0 -389 327 -389q326 0 326 387zM606 1314q16 28 37 45.5t53 37.5q34 21 49.5 36.5t15.5 38.5q0 32 -29.5 46.5t-95.5 14.5q-93 0 -175 -24v94q36 12 87 18.5t97 6.5q122 0 180.5 -36.5
t58.5 -108.5q0 -47 -22.5 -74t-67.5 -56q-39 -26 -59.5 -48t-23.5 -58h-122q1 39 17 67z" />
    <glyph glyph-name="uni1EE0" unicode="&#x1ee0;" horiz-adv-x="1696" 
d="M933 1664q-42 10 -101 29q-53 18 -89 26.5t-74 8.5q-61 0 -107.5 -16.5t-91.5 -51.5v132q38 33 87 49.5t116 16.5q48 0 89 -9.5t102 -29.5q52 -17 89 -26t75 -9q61 0 107 16t91 52v-132q-38 -34 -86.5 -50t-116.5 -16q-48 0 -90 10zM1513 1111.5q66 -155.5 66 -371.5
q0 -252 -89.5 -421.5t-253.5 -253.5t-388 -84q-223 0 -387.5 85t-254 255t-89.5 419t90.5 419t254.5 255t386 85q49 0 103.5 -5t67.5 -6q113 -13 192 -13q110 0 164.5 38.5t54.5 121.5q0 34 -4.5 65.5t-15.5 75.5h153q13 -39 18 -73t5 -74q0 -118 -67.5 -186.5t-195.5 -82.5
q124 -93 190 -248.5zM1216 305.5q131 139.5 131 428.5q0 296 -131.5 438t-367.5 142q-235 0 -367 -139.5t-132 -428.5q0 -298 131 -439t368 -141t368 139.5z" />
    <glyph glyph-name="uni1EE1" unicode="&#x1ee1;" horiz-adv-x="1305" 
d="M726 1337.5q-38 11.5 -93 33.5q-50 20 -81.5 29.5t-64.5 9.5q-54 0 -98 -18.5t-87 -59.5v143q37 36 83 53t106 17q43 0 81 -11.5t93 -33.5q47 -19 80 -29t66 -10q54 0 98 18.5t87 59.5v-143q-37 -36 -83 -53t-106 -17q-43 0 -81 11.5zM1201 544q0 -183 -68 -309.5
t-191.5 -190.5t-288.5 -64q-167 0 -290.5 63t-191 189t-67.5 312q0 184 67 309.5t191.5 188.5t297.5 63q47 0 138 -7q50 -5 81 -5q105 0 158 39t53 123q0 34 -4.5 65.5t-15.5 75.5h147q12 -40 17 -73.5t5 -73.5q0 -107 -53.5 -174t-153.5 -90q169 -141 169 -441zM979 543
q0 201 -84 293.5t-242 92.5t-242.5 -92t-84.5 -292q0 -389 327 -389q326 0 326 387z" />
    <glyph glyph-name="uni1EE2" unicode="&#x1ee2;" horiz-adv-x="1696" 
d="M1513 1111.5q66 -155.5 66 -371.5q0 -252 -89.5 -421.5t-253.5 -253.5t-388 -84q-223 0 -387.5 85t-254 255t-89.5 419t90.5 419t254.5 255t386 85q49 0 103.5 -5t67.5 -6q113 -13 192 -13q110 0 164.5 38.5t54.5 121.5q0 34 -4.5 65.5t-15.5 75.5h153q13 -39 18 -73
t5 -74q0 -118 -67.5 -186.5t-195.5 -82.5q124 -93 190 -248.5zM1216 305.5q131 139.5 131 428.5q0 296 -131.5 438t-367.5 142q-235 0 -367 -139.5t-132 -428.5q0 -298 131 -439t368 -141t368 139.5zM742 -341q-36 29 -36 79t36 79.5t106 29.5t106 -29.5t36 -79.5t-36 -79
t-106 -29t-106 29z" />
    <glyph glyph-name="uni1EE3" unicode="&#x1ee3;" horiz-adv-x="1305" 
d="M1201 544q0 -183 -68 -309.5t-191.5 -190.5t-288.5 -64q-167 0 -290.5 63t-191 189t-67.5 312q0 184 67 309.5t191.5 188.5t297.5 63q47 0 138 -7q50 -5 81 -5q105 0 158 39t53 123q0 34 -4.5 65.5t-15.5 75.5h147q12 -40 17 -73.5t5 -73.5q0 -107 -53.5 -174t-153.5 -90
q169 -141 169 -441zM979 543q0 201 -84 293.5t-242 92.5t-242.5 -92t-84.5 -292q0 -389 327 -389q326 0 326 387zM553 -353.5q-33 30.5 -33 84.5t33.5 85t95.5 31t95.5 -31t33.5 -85t-33 -84.5t-96 -30.5t-96 30.5z" />
    <glyph glyph-name="uni1EE4" unicode="&#x1ee4;" horiz-adv-x="1628" 
d="M330.5 137.5q-155.5 156.5 -155.5 478.5v864h227v-885q0 -223 101 -325t313 -102t313 102t101 325v885h222v-864q0 -322 -154.5 -478.5t-481.5 -156.5q-330 0 -485.5 156.5zM710 -341q-36 29 -36 79t36 79.5t106 29.5t106 -29.5t36 -79.5t-36 -79t-106 -29t-106 29z" />
    <glyph glyph-name="uni1EE5" unicode="&#x1ee5;" horiz-adv-x="1319" 
d="M262 87.5q-111 105.5 -111 329.5v671h222v-659q0 -137 62.5 -197t178.5 -60q87 0 171.5 33.5t146.5 98.5v784h222v-1088h-184l-14 116h-11q-77 -65 -174 -99.5t-202 -34.5q-196 0 -307 105.5zM556 -353.5q-33 30.5 -33 84.5t33.5 85t95.5 31t95.5 -31t33.5 -85t-33 -84.5
t-96 -30.5t-96 30.5z" />
    <glyph glyph-name="uni1EE6" unicode="&#x1ee6;" horiz-adv-x="1628" 
d="M330.5 137.5q-155.5 156.5 -155.5 478.5v864h227v-885q0 -223 101 -325t313 -102t313 102t101 325v885h222v-864q0 -322 -154.5 -478.5t-481.5 -156.5q-330 0 -485.5 156.5zM770.5 1653q16.5 20 38 31.5t56.5 26.5q37 16 54.5 27.5t17.5 29.5q0 22 -28.5 33t-95.5 11
q-59 0 -106.5 -6.5t-105.5 -23.5v92q95 30 225 30q119 0 176.5 -32.5t57.5 -90.5q0 -30 -15 -50.5t-35.5 -33.5t-54.5 -29q-37 -16 -56 -29.5t-21 -34.5h-125q1 29 17.5 49z" />
    <glyph glyph-name="uni1EE7" unicode="&#x1ee7;" horiz-adv-x="1319" 
d="M262 87.5q-111 105.5 -111 329.5v671h222v-659q0 -137 62.5 -197t178.5 -60q87 0 171.5 33.5t146.5 98.5v784h222v-1088h-184l-14 116h-11q-77 -65 -174 -99.5t-202 -34.5q-196 0 -307 105.5zM609 1314q16 28 37 45.5t53 37.5q34 21 49.5 36.5t15.5 38.5q0 32 -29.5 46.5
t-95.5 14.5q-93 0 -175 -24v94q36 12 87 18.5t97 6.5q122 0 180.5 -36.5t58.5 -108.5q0 -47 -22.5 -74t-67.5 -56q-39 -26 -59.5 -48t-23.5 -58h-122q1 39 17 67z" />
    <glyph glyph-name="uni1EE8" unicode="&#x1ee8;" horiz-adv-x="1628" 
d="M330.5 137.5q-155.5 156.5 -155.5 478.5v864h227v-885q0 -223 101 -325t313 -102t313 102t101 325v885h74q111 0 165 36.5t54 118.5q0 35 -5 66.5t-16 74.5h153q13 -38 18 -71.5t5 -75.5q0 -106 -58.5 -171t-167.5 -82v-760q0 -322 -154.5 -478.5t-481.5 -156.5
q-330 0 -485.5 156.5zM709 1604l215 289h242l-250 -289h-207z" />
    <glyph glyph-name="uni1EE9" unicode="&#x1ee9;" horiz-adv-x="1347" 
d="M1324.5 1064q-59.5 -69 -170.5 -88v-976h-184l-14 116h-11q-77 -65 -174 -99.5t-202 -34.5q-196 0 -307 105.5t-111 329.5v671h222v-659q0 -137 62.5 -197t178.5 -60q87 0 171.5 33.5t146.5 98.5v784h92q105 0 158.5 39t53.5 123q0 35 -5 66.5t-16 74.5h146
q13 -39 18 -73t5 -74q0 -111 -59.5 -180zM544 1247l265 369h248l-297 -369h-216z" />
    <glyph glyph-name="uni1EEA" unicode="&#x1eea;" horiz-adv-x="1628" 
d="M330.5 137.5q-155.5 156.5 -155.5 478.5v864h227v-885q0 -223 101 -325t313 -102t313 102t101 325v885h74q111 0 165 36.5t54 118.5q0 35 -5 66.5t-16 74.5h153q13 -38 18 -71.5t5 -75.5q0 -106 -58.5 -171t-167.5 -82v-760q0 -322 -154.5 -478.5t-481.5 -156.5
q-330 0 -485.5 156.5zM710 1604l-250 289h243l215 -289h-208z" />
    <glyph glyph-name="uni1EEB" unicode="&#x1eeb;" horiz-adv-x="1347" 
d="M1324.5 1064q-59.5 -69 -170.5 -88v-976h-184l-14 116h-11q-77 -65 -174 -99.5t-202 -34.5q-196 0 -307 105.5t-111 329.5v671h222v-659q0 -137 62.5 -197t178.5 -60q87 0 171.5 33.5t146.5 98.5v784h92q105 0 158.5 39t53.5 123q0 35 -5 66.5t-16 74.5h146
q13 -39 18 -73t5 -74q0 -111 -59.5 -180zM544 1247l-297 369h248l265 -369h-216z" />
    </font>
</defs>
</svg>
