<?xml version="1.0" standalone="no"?>
<!DOCTYPE svg PUBLIC "-//W3C//DTD SVG 1.1//EN" "http://www.w3.org/Graphics/SVG/1.1/DTD/svg11.dtd" >
<svg xmlns="http://www.w3.org/2000/svg" xmlns:xlink="http://www.w3.org/1999/xlink" version="1.1">
<metadata>
Created by FontForge 20170731 at Tue Jan 31 13:40:51 2017
 By Aleksey,,,
Copyright 2012 The Encode Project Authors (impallari@gmail.com), with Reserved Font Name "Encode Sans".
</metadata>
<defs>
<font id="EncodeSansExpanded-Light" horiz-adv-x="1234" >
  <font-face 
    font-family="Encode Sans Expanded Light"
    font-weight="300"
    font-stretch="expanded"
    units-per-em="2000"
    panose-1="0 0 4 5 0 0 0 0 0 0"
    ascent="1600"
    descent="-400"
    x-height="1083"
    cap-height="1480"
    bbox="-1018 -462 2828 2130"
    underline-thickness="50"
    underline-position="-150"
    unicode-range="U+000D-FB02"
  />
<missing-glyph horiz-adv-x="1028" 
d="M843 1616v-2056h-652v2056h652zM685 1478h-340v-68h134v-76h-136v-68h342v68h-136v76h136v68zM549 1213h-206v-214h342v70h-136v144zM479 1143v-74h-68v74h68zM685 944h-342v-68h136v-76h-136v-68h206v144h136v68zM685 820h-68v-135h-274v-70h342v205zM685 569h-206v-115
h70v48h68v-97h-206v164h-68v-232h342v232zM685 214h-342v-233h342v233zM617 146v-97h-206v97h206zM685 -66h-342v-68h144l-144 -96v-68h342v68h-210l144 96h66v68z" />
    <glyph glyph-name="fi" unicode="fi" horiz-adv-x="1294" 
d="M363.5 1530.5q106.5 105.5 314.5 105.5q76 0 163 -15v-107q-78 15 -155 15q-105 0 -172 -30t-100 -97t-33 -177v-142h419v-106h-419v-977h-124v977h-231v106h231v133q0 209 106.5 314.5zM1115.5 1483.5q24.5 -22.5 24.5 -62.5q0 -39 -24.5 -61t-67.5 -22t-67.5 22
t-24.5 61q0 40 24.5 62.5t67.5 22.5t67.5 -22.5zM986 0v1083h124v-1083h-124z" />
    <glyph glyph-name="fl" unicode="fl" horiz-adv-x="1294" 
d="M363.5 1530.5q106.5 105.5 314.5 105.5q76 0 163 -15v-107q-78 15 -155 15q-105 0 -172 -30t-100 -97t-33 -177v-142h419v-106h-419v-977h-124v977h-231v106h231v133q0 209 106.5 314.5zM986 1616h124v-1616h-124v1616z" />
    <glyph glyph-name="f_j" unicode="fj" horiz-adv-x="1294" 
d="M381 977v-977h-124v977h-231v106h231v133q0 209 106.5 314.5t314.5 105.5q76 0 163 -15v-107q-78 15 -155 15q-105 0 -172 -30t-100 -97t-33 -177v-142h419v-106h-419zM1113.5 1493.5q24.5 -22.5 24.5 -62.5q0 -39 -24.5 -61t-67.5 -22t-67.5 22t-24.5 61q0 40 24.5 62.5
t67.5 22.5t67.5 -22.5zM986 1083h124v-909q0 -187 -58.5 -338.5t-186.5 -297.5l-82 58q106 127 154.5 264.5t48.5 307.5v915z" />
    <glyph glyph-name=".notdef" horiz-adv-x="1028" 
d="M843 1616v-2056h-652v2056h652zM685 1478h-340v-68h134v-76h-136v-68h342v68h-136v76h136v68zM549 1213h-206v-214h342v70h-136v144zM479 1143v-74h-68v74h68zM685 944h-342v-68h136v-76h-136v-68h206v144h136v68zM685 820h-68v-135h-274v-70h342v205zM685 569h-206v-115
h70v48h68v-97h-206v164h-68v-232h342v232zM685 214h-342v-233h342v233zM617 146v-97h-206v97h206zM685 -66h-342v-68h144l-144 -96v-68h342v68h-210l144 96h66v68z" />
    <glyph glyph-name=".null" horiz-adv-x="0" 
 />
    <glyph glyph-name="nonmarkingreturn" unicode="&#xd;" horiz-adv-x="553" 
 />
    <glyph glyph-name="NULL" horiz-adv-x="0" 
 />
    <glyph glyph-name="NULL" horiz-adv-x="0" 
 />
    <glyph glyph-name="space" unicode=" " horiz-adv-x="553" 
 />
    <glyph glyph-name="exclam" unicode="!" horiz-adv-x="527" 
d="M223 347l-25 558v575h131v-575l-25 -558h-81zM195 12.5q-26 23.5 -26 62.5q0 40 25.5 64.5t68.5 24.5t68.5 -24.5t25.5 -64.5t-25.5 -63t-68.5 -23q-42 0 -68 23.5z" />
    <glyph glyph-name="quotedbl" unicode="&#x22;" horiz-adv-x="793" 
d="M188 932l-29 684h131l-28 -684h-74zM532 932l-29 684h131l-28 -684h-74z" />
    <glyph glyph-name="numbersign" unicode="#" 
d="M1124 905h-228l-42 -330h270v-106h-283l-58 -469h-107l58 469h-302l-58 -469h-107l58 469h-215v106h228l42 330h-270v106h283l58 469h107l-58 -469h302l58 469h107l-58 -469h215v-106zM747 575l42 330h-302l-42 -330h302z" />
    <glyph glyph-name="dollar" unicode="$" horiz-adv-x="1186" 
d="M976 117.5q-113 -104.5 -324 -128.5v-229h-117v222h-10q-101 0 -206 16t-201 48v110q102 -34 208 -50t200 -16q435 0 435 300q0 83 -36 137.5t-113 89.5t-207 61l-82 16q-221 42 -323.5 139t-102.5 259q0 169 111 273.5t327 126.5v228h117v-222q199 0 372 -52v-110
q-182 54 -372 54q-215 0 -321.5 -75t-106.5 -217q0 -83 32 -138t103 -91t193 -60l83 -16q162 -32 262 -84.5t146 -129t46 -183.5q0 -174 -113 -278.5z" />
    <glyph glyph-name="percent" unicode="%" horiz-adv-x="1946" 
d="M224.5 689.5q-95.5 113.5 -95.5 347.5q0 235 94.5 348t257.5 113t257.5 -113t94.5 -348q0 -234 -95 -347.5t-257 -113.5q-161 0 -256.5 113.5zM537 0l756 1480h117l-756 -1480h-117zM725 1035q0 194 -65 282t-179 88q-115 0 -179.5 -87t-64.5 -279q0 -193 64.5 -281
t179.5 -88q244 0 244 365zM1208.5 95.5q-95.5 113.5 -95.5 347.5q0 235 94.5 348t257.5 113t257.5 -113t94.5 -348q0 -234 -95 -347.5t-257 -113.5q-161 0 -256.5 113.5zM1709 441q0 194 -65 282t-179 88t-179 -87t-65 -279q0 -193 65 -281.5t179 -88.5q244 0 244 366z" />
    <glyph glyph-name="ampersand" unicode="&#x26;" horiz-adv-x="1652" 
d="M1596 -20l-301 206q-76 -100 -210.5 -152t-321.5 -52q-202 0 -336.5 53t-198.5 147t-64 219q0 138 73.5 242t210.5 165q-55 65 -79 130.5t-24 142.5q0 200 138 308.5t413 108.5q161 0 286 -33v-111q-124 36 -283 36q-223 0 -324.5 -80t-101.5 -232q0 -74 24.5 -132
t89.5 -121.5t189 -151.5l483 -331q25 69 25 162q0 66 -13.5 137.5t-37.5 139.5h111q47 -131 47 -278q0 -124 -41 -223l302 -207zM1037 123q110 41 171 123l-488 334q-133 91 -202 155q-115 -52 -170.5 -132t-55.5 -190q0 -153 115.5 -242t364.5 -89q155 0 265 41z" />
    <glyph glyph-name="quotesingle" unicode="'" horiz-adv-x="449" 
d="M188 932l-29 684h131l-28 -684h-74z" />
    <glyph glyph-name="parenleft" unicode="(" horiz-adv-x="724" 
d="M244.5 32.5q-94.5 260.5 -94.5 555.5t94.5 555.5t292.5 472.5h146q-213 -228 -309 -481.5t-96 -546.5t96 -546.5t309 -481.5h-146q-198 212 -292.5 472.5z" />
    <glyph glyph-name="parenright" unicode=")" horiz-adv-x="724" 
d="M350 41.5q96 253.5 96 546.5t-96 546.5t-309 481.5h146q198 -212 292.5 -472.5t94.5 -555.5t-94.5 -555.5t-292.5 -472.5h-146q213 228 309 481.5z" />
    <glyph glyph-name="asterisk" unicode="*" horiz-adv-x="937" 
d="M516 1188l132 -150l110 -149l-77 -56l-110 149l-102 176l-102 -176l-111 -149l-77 56l110 149l132 150l-193 44l-198 63l30 90l196 -64l185 -80l-20 200v175h95v-175l-19 -200l184 80l197 64l29 -90l-198 -63z" />
    <glyph glyph-name="plus" unicode="+" horiz-adv-x="1120" 
d="M506 363v345h-327v104h327v345h109v-345h326v-104h-326v-345h-109z" />
    <glyph glyph-name="comma" unicode="," horiz-adv-x="487" 
d="M312 139.5q25 -29.5 25 -89.5q0 -95 -23.5 -187t-64.5 -171h-74q31 85 47.5 156.5t19.5 140.5q-41 0 -67 25t-26 66q0 40 25 64.5t67 24.5q46 0 71 -29.5z" />
    <glyph glyph-name="hyphen" unicode="-" horiz-adv-x="953" 
d="M179 508v107h594v-107h-594z" />
    <glyph glyph-name="period" unicode="." horiz-adv-x="487" 
d="M175 13q-26 24 -26 65t25.5 66t68.5 25t68.5 -25t25.5 -66q0 -40 -25.5 -64.5t-68.5 -24.5q-42 0 -68 24z" />
    <glyph glyph-name="slash" unicode="/" horiz-adv-x="679" 
d="M0 -240l554 1856h125l-555 -1856h-124z" />
    <glyph glyph-name="zero" unicode="0" horiz-adv-x="1390" 
d="M285.5 163q-145.5 181 -145.5 577q0 397 144 577.5t411 180.5t411 -180.5t144 -577.5q0 -396 -145.5 -577t-409.5 -181t-409.5 181zM925 152q94 60 146 202.5t52 382.5q0 243 -52 386.5t-146 204t-230 60.5t-230 -60t-145.5 -202.5t-51.5 -382.5q0 -243 51.5 -386.5
t145.5 -204t230 -60.5t230 60z" />
    <glyph glyph-name="one" unicode="1" horiz-adv-x="833" 
d="M535 1484h84v-1484h-125v1321l-465 -328v130z" />
    <glyph glyph-name="two" unicode="2" horiz-adv-x="1098" 
d="M1022 107v-107h-945v69l482 555q131 152 184 257t53 208q0 155 -89 228t-274 73q-205 0 -374 -62v110q77 28 174.5 44t204.5 16q484 0 484 -398q0 -88 -25 -166.5t-83 -166t-160 -204.5l-398 -456h766z" />
    <glyph glyph-name="three" unicode="3" horiz-adv-x="1110" 
d="M945.5 647q85.5 -93 85.5 -240q0 -203 -141.5 -314t-431.5 -111q-100 0 -202.5 16t-192.5 46v105q98 -31 199 -47.5t195 -16.5q452 0 452 328q0 144 -99 219.5t-300 75.5h-218v104h102q461 0 461 305q0 132 -96.5 205t-276.5 73q-192 0 -369 -57v105q174 55 377 55
q156 0 265.5 -44.5t166.5 -128.5t57 -201q0 -129 -75 -220t-206 -132q162 -32 247.5 -125z" />
    <glyph glyph-name="four" unicode="4" horiz-adv-x="1295" 
d="M1247 472v-106h-234v-366h-119v366h-839v70l668 1044h131l-645 -1008h685l18 508h101v-508h234z" />
    <glyph glyph-name="five" unicode="5" horiz-adv-x="1127" 
d="M786 780.5q144 -50.5 208.5 -139t64.5 -222.5q0 -214 -145 -325.5t-429 -111.5q-98 0 -201 16.5t-194 46.5v105q96 -31 197 -47.5t198 -16.5q227 0 339.5 83t112.5 249q0 104 -53 170t-177 104t-338 50l-212 12l52 726h787v-102h-673l-38 -526l118 -7q239 -14 383 -64.5z
" />
    <glyph glyph-name="six" unicode="6" horiz-adv-x="1268" 
d="M1058.5 732q133.5 -109 133.5 -322q0 -137 -60 -233.5t-168.5 -145.5t-253.5 -49q-271 0 -417 172.5t-146 537.5q0 401 170 603.5t500 202.5q183 0 304 -47v-106q-63 25 -143 37t-155 12q-275 0 -412.5 -165t-138.5 -500q80 52 190 82t220 30q243 0 376.5 -109z
M975 164.5q97 81.5 97 242.5q0 167 -104 250t-303 83q-100 0 -207.5 -29t-184.5 -84q9 -287 119.5 -415.5t317.5 -128.5q168 0 265 81.5z" />
    <glyph glyph-name="seven" unicode="7" horiz-adv-x="1032" 
d="M15 1480h955v-69l-635 -1411h-133l624 1373h-811v107z" />
    <glyph glyph-name="eight" unicode="8" horiz-adv-x="1390" 
d="M1187 603q79 -88 79 -219q0 -123 -64 -213.5t-190.5 -139.5t-307.5 -49q-286 0 -433.5 101t-147.5 292q0 140 78 239.5t222 152.5q-128 57 -186 142.5t-58 204.5q0 118 60.5 204.5t176.5 133t279 46.5q162 0 277.5 -44.5t176 -128t60.5 -200.5q0 -132 -69.5 -227.5
t-206.5 -152.5q175 -54 254 -142zM345 965q42 -62 139.5 -105t265.5 -72l58 -11q149 58 217 138.5t68 199.5q0 138 -104.5 211t-296.5 73q-191 0 -290 -74t-99 -207q0 -91 42 -153zM1031.5 157q111.5 76 111.5 219q0 86 -43 144.5t-138 98.5t-257 69q-101 17 -173 40
q-141 -46 -213.5 -135t-72.5 -205q0 -151 117.5 -229t342.5 -78q214 0 325.5 76z" />
    <glyph glyph-name="nine" unicode="9" horiz-adv-x="1268" 
d="M975 1325.5q146 -172.5 146 -537.5q0 -401 -170 -603.5t-500 -202.5q-183 0 -304 47v106q63 -25 143 -37t155 -12q275 0 412.5 165t138.5 500q-80 -52 -190 -82t-220 -30q-243 0 -376.5 109t-133.5 322q0 137 60 233.5t168.5 145.5t253.5 49q271 0 417 -172.5zM300 823
q104 -83 303 -83q100 0 207.5 29t184.5 84q-9 287 -119.5 415.5t-317.5 128.5q-168 0 -265 -81.5t-97 -242.5q0 -167 104 -250z" />
    <glyph glyph-name="colon" unicode=":" horiz-adv-x="487" 
d="M175 13q-26 24 -26 65t25.5 66t68.5 25t68.5 -25t25.5 -66q0 -40 -25.5 -64.5t-68.5 -24.5q-42 0 -68 24zM175 938q-26 24 -26 65t25.5 66t68.5 25t68.5 -25t25.5 -66q0 -40 -25.5 -64.5t-68.5 -24.5q-42 0 -68 24z" />
    <glyph glyph-name="semicolon" unicode=";" horiz-adv-x="487" 
d="M312 139.5q25 -29.5 25 -89.5q0 -95 -23.5 -187t-64.5 -171h-74q31 85 47.5 156.5t19.5 140.5q-41 0 -67 25t-26 66q0 40 25 64.5t67 24.5q46 0 71 -29.5zM175 938q-26 24 -26 65t25.5 66t68.5 25t68.5 -25t25.5 -66q0 -40 -25.5 -64.5t-68.5 -24.5q-42 0 -68 24z" />
    <glyph glyph-name="less" unicode="&#x3c;" horiz-adv-x="1120" 
d="M941 1140v-110l-639 -270l639 -270v-110l-762 327v106z" />
    <glyph glyph-name="equal" unicode="=" horiz-adv-x="1120" 
d="M179 900v103h762v-103h-762zM179 517v103h762v-103h-762z" />
    <glyph glyph-name="greater" unicode="&#x3e;" horiz-adv-x="1120" 
d="M179 1140l762 -327v-106l-762 -327v110l640 270l-640 270v110z" />
    <glyph glyph-name="question" unicode="?" horiz-adv-x="980" 
d="M391 746q151 44 237.5 95.5t123.5 117.5t37 158q0 131 -96.5 203t-276.5 72q-191 0 -369 -56v107q176 55 378 55q155 0 264.5 -44.5t166.5 -129t57 -201.5q0 -112 -39.5 -193t-128 -143t-239.5 -114l-13 -340h-80zM385 13q-26 24 -26 62q0 40 25.5 64.5t68.5 24.5
t69 -24.5t26 -64.5q0 -39 -25.5 -62.5t-69.5 -23.5q-42 0 -68 24z" />
    <glyph glyph-name="at" unicode="@" horiz-adv-x="2133" 
d="M1581.5 1390q208.5 -108 315 -315.5t106.5 -505.5q0 -202 -48 -333t-131.5 -192t-193.5 -61q-96 0 -156.5 38.5t-85.5 108.5h-12q-60 -67 -160 -107t-211 -40q-112 0 -192 35t-122 100.5t-42 155.5q0 137 95 212t301 98l329 39v93q0 108 -36 168.5t-105 84.5t-179 24
q-75 0 -160 -13.5t-167 -42.5v104q72 27 161.5 41t176.5 14q144 0 238.5 -36t144 -119.5t49.5 -225.5v-455q0 -100 38 -142t116 -42q72 0 128.5 49.5t89.5 157.5t33 275q-1 418 -209.5 631t-619.5 213q-413 0 -624 -221t-211 -658q0 -448 218.5 -667.5t663.5 -219.5
q110 0 215.5 14t220.5 43v-97q-101 -27 -213 -41.5t-223 -14.5q-488 2 -739 249t-251 731q0 319 109.5 537.5t320.5 329.5t513 111q300 0 508.5 -108zM1214 119.5q91 37.5 160 110.5v305l-324 -39q-144 -18 -208.5 -68.5t-64.5 -143.5q0 -97 62.5 -149.5t186.5 -52.5
q97 0 188 37.5z" />
    <glyph glyph-name="A" unicode="A" horiz-adv-x="1487" 
d="M1313 0l-206 501h-729l-206 -501h-129l615 1480h171l614 -1480h-130zM422 607h641l-321 779z" />
    <glyph glyph-name="B" unicode="B" horiz-adv-x="1367" 
d="M1202.5 642.5q78.5 -93.5 78.5 -238.5q0 -138 -67 -229.5t-216 -138.5t-393 -47q-102 0 -195 6t-206 20v1436q111 23 215 33.5t229 10.5q307 0 448.5 -98t141.5 -296q0 -130 -67.5 -217.5t-207.5 -119.5q161 -28 239.5 -121.5zM328 1366v-554h383q207 0 306.5 68.5
t99.5 217.5q0 106 -46.5 170.5t-147 94.5t-266.5 30q-188 0 -329 -27zM945.5 126q116.5 35 165.5 104.5t49 179.5q0 155 -104.5 227t-326.5 72h-401v-599q69 -10 138 -14.5t159 -4.5q204 0 320.5 35z" />
    <glyph glyph-name="C" unicode="C" horiz-adv-x="1303" 
d="M322 162q-192 180 -192 576q0 383 195 571.5t548 188.5q102 0 191 -12.5t182 -38.5v-111q-184 52 -370 52q-300 0 -456.5 -155t-156.5 -491q0 -348 154.5 -499t444.5 -151q101 0 191 14.5t193 49.5v-112q-176 -62 -390 -62q-342 0 -534 180z" />
    <glyph glyph-name="D" unicode="D" horiz-adv-x="1568" 
d="M411 -5q-93 6 -207 21v1435q100 21 213.5 32t216.5 11q397 0 600.5 -189t203.5 -565q0 -379 -208 -565t-624 -186q-102 0 -195 6zM1139 255q169 157 169 486q0 327 -169 485.5t-508 158.5q-137 0 -301 -26v-1241q123 -20 296 -20q344 0 513 157z" />
    <glyph glyph-name="E" unicode="E" horiz-adv-x="1314" 
d="M329 106h880v-106h-1005v1480h995v-106h-870v-561h770v-106h-770v-601z" />
    <glyph glyph-name="F" unicode="F" horiz-adv-x="1271" 
d="M1191 1372h-861v-565h759v-108h-759v-699h-126v1480h987v-108z" />
    <glyph glyph-name="G" unicode="G" horiz-adv-x="1522" 
d="M1329 720v-700q-109 -17 -195.5 -24t-186.5 -7q-405 0 -611 189t-206 561q0 256 97.5 425.5t271.5 251.5t406 82q95 0 186.5 -12.5t194.5 -38.5v-111q-106 29 -195.5 40.5t-176.5 11.5q-304 0 -478 -157t-174 -487q0 -646 681 -646q151 0 265 18v604h121z" />
    <glyph glyph-name="H" unicode="H" horiz-adv-x="1607" 
d="M204 0v1480h126v-663h947v663h126v-1480h-126v703h-947v-703h-126z" />
    <glyph glyph-name="I" unicode="I" horiz-adv-x="533" 
d="M204 0v1480h126v-1480h-126z" />
    <glyph glyph-name="J" unicode="J" horiz-adv-x="533" 
d="M2 -284q105 127 153.5 264.5t48.5 307.5v1192h126v-1220q-9 -179 -64.5 -319.5t-181.5 -283.5z" />
    <glyph glyph-name="K" unicode="K" horiz-adv-x="1357" 
d="M1200 0l-583 703h-287v-703h-126v1480h126v-663h291l541 663h144l-587 -718l630 -762h-149z" />
    <glyph glyph-name="L" unicode="L" horiz-adv-x="1192" 
d="M204 0v1480h126v-1371h841v-109h-967z" />
    <glyph glyph-name="M" unicode="M" horiz-adv-x="1912" 
d="M1558 1480h146v-1480h-120v1290l-568 -1087h-121l-568 1080v-1283h-119v1480h145l605 -1160z" />
    <glyph glyph-name="N" unicode="N" horiz-adv-x="1634" 
d="M1310 1480h120v-1480h-131l-975 1303v-1303h-120v1480h131l975 -1303v1303z" />
    <glyph glyph-name="O" unicode="O" horiz-adv-x="1617" 
d="M450 64q-152 82 -236 251.5t-84 424.5t85 424.5t237.5 251.5t356.5 82q206 0 358 -82t236 -251.5t84 -424.5t-85 -424.5t-237 -251.5t-356 -82q-207 0 -359 82zM1211.5 248.5q145.5 156.5 145.5 486.5q0 337 -145.5 495t-402.5 158t-402.5 -156t-145.5 -487
q0 -338 145 -495.5t403 -157.5q257 0 402.5 156.5z" />
    <glyph glyph-name="P" unicode="P" horiz-adv-x="1344" 
d="M204 1453q109 22 206.5 32t208.5 10q308 0 465.5 -120.5t157.5 -373.5q0 -247 -160.5 -374t-500.5 -127q-130 0 -251 12v-512h-126v1453zM890 646q118 44 172 131.5t54 221.5q0 203 -121.5 298t-368.5 95q-160 0 -296 -25v-748q124 -17 251 -17q191 0 309 44z" />
    <glyph glyph-name="Q" unicode="Q" horiz-adv-x="1617" 
d="M1324 189q-163 -192 -474 -199q127 -35 285.5 -58.5t322.5 -35.5l-16 -106q-507 48 -791.5 159t-402.5 299.5t-118 488.5q0 256 85 426.5t237.5 252.5t356.5 82q205 0 356.5 -80t236.5 -249.5t85 -428.5q0 -359 -163 -551zM405.5 249.5q144.5 -157.5 403.5 -157.5
q257 0 402.5 156.5t145.5 486.5q0 337 -145.5 495t-402.5 158t-402.5 -156t-145.5 -487q0 -338 144.5 -495.5z" />
    <glyph glyph-name="R" unicode="R" horiz-adv-x="1434" 
d="M1204 0l-522 630q-54 -2 -84 -2q-70 0 -128.5 3t-141.5 9v-640h-124v1451q102 21 204.5 32.5t224.5 11.5q211 0 345.5 -44.5t200.5 -139t66 -246.5q0 -356 -428 -422l535 -643h-148zM464.5 734q54.5 -3 138.5 -3q184 0 299 36.5t168.5 109.5t53.5 185q0 123 -50 195
t-156 103.5t-281 31.5q-93 0 -161.5 -6.5t-147.5 -20.5v-621q82 -7 136.5 -10z" />
    <glyph glyph-name="S" unicode="S" horiz-adv-x="1186" 
d="M318.5 -1.5q-105.5 16.5 -200.5 48.5v110q102 -34 208 -50.5t203 -16.5q432 0 432 300q0 83 -36 137.5t-113 89.5t-207 61l-82 16q-221 42 -323.5 139t-102.5 259q0 126 62 217t185.5 140t305.5 49q203 0 374 -53v-110q-180 55 -375 55q-213 0 -319 -75t-106 -217
q0 -83 32 -138t103 -91t193 -60l83 -16q162 -32 262 -84.5t146 -129t46 -183.5q0 -132 -66 -225t-192 -141t-304 -48q-103 0 -208.5 16.5z" />
    <glyph glyph-name="T" unicode="T" horiz-adv-x="1285" 
d="M580 0v1371h-560v109h1244v-109h-559v-1371h-125z" />
    <glyph glyph-name="U" unicode="U" horiz-adv-x="1576" 
d="M455 46q-131 64 -195 196.5t-64 341.5v896h126v-910q0 -168 50.5 -273t153 -155t263.5 -50t264 50t153.5 155t50.5 273v910h123v-896q0 -209 -63.5 -341.5t-194 -196.5t-333.5 -64t-334 64z" />
    <glyph glyph-name="V" unicode="V" horiz-adv-x="1443" 
d="M1293 1480h128l-611 -1480h-178l-611 1480h137l568 -1381z" />
    <glyph glyph-name="W" unicode="W" horiz-adv-x="2338" 
d="M2138 1480h124l-480 -1480h-165l-448 1352l-448 -1352h-166l-481 1480h131l439 -1367l449 1367h155l449 -1370z" />
    <glyph glyph-name="X" unicode="X" horiz-adv-x="1400" 
d="M775 753l600 -753h-152l-526 661l-526 -661h-148l599 750l-584 730h152l510 -638l512 638h146z" />
    <glyph glyph-name="Y" unicode="Y" horiz-adv-x="1285" 
d="M1297 1480l-591 -813v-667h-126v667l-602 813h146l521 -706l514 706h138z" />
    <glyph glyph-name="Z" unicode="Z" horiz-adv-x="1288" 
d="M243 107h973v-107h-1144v70l959 1303h-946v107h1118v-70z" />
    <glyph glyph-name="bracketleft" unicode="[" horiz-adv-x="724" 
d="M224 -440v2056h538v-106h-414v-1844h411v-106h-535z" />
    <glyph glyph-name="backslash" unicode="\" horiz-adv-x="685" 
d="M558 -240l-558 1856h128l557 -1856h-127z" />
    <glyph glyph-name="bracketright" unicode="]" horiz-adv-x="724" 
d="M-35 -440v106h411v1844h-413v106h537v-2056h-535z" />
    <glyph glyph-name="asciicircum" unicode="^" 
d="M1131 740h-135l-379 641l-379 -641h-135l440 740h146z" />
    <glyph glyph-name="underscore" unicode="_" horiz-adv-x="1254" 
d="M99 -106v106h1056v-106h-1056z" />
    <glyph glyph-name="grave" unicode="`" horiz-adv-x="1200" 
d="M538 1258l-287 358h144l267 -358h-124z" />
    <glyph glyph-name="a" unicode="a" horiz-adv-x="1140" 
d="M777 1063q96 -36 145.5 -120t49.5 -228v-715h-106l-10 128h-9q-62 -66 -160.5 -105.5t-207.5 -39.5q-112 0 -192 35.5t-122 101t-42 154.5q0 138 97.5 213t315.5 99l313 36v97q0 108 -36.5 168.5t-106.5 84.5t-182 24q-78 0 -164 -13t-167 -42v104q73 26 163.5 40
t177.5 14q147 0 243 -36zM688.5 118.5q89.5 37.5 160.5 111.5v302l-308 -36q-156 -18 -222.5 -69t-66.5 -144q0 -97 61.5 -149.5t187.5 -52.5q98 0 187.5 37.5z" />
    <glyph glyph-name="b" unicode="b" horiz-adv-x="1265" 
d="M185 33v1583h124v-656h8q65 66 157 102.5t203 36.5q137 0 242.5 -55.5t166 -175.5t60.5 -305q0 -290 -148.5 -436t-441.5 -146q-193 0 -371 52zM906.5 200q112.5 114 112.5 351q0 232 -99 336t-270 104q-100 0 -188.5 -36t-152.5 -112v-722q117 -35 259 -35
q226 0 338.5 114z" />
    <glyph glyph-name="c" unicode="c" horiz-adv-x="985" 
d="M251.5 120.5q-132.5 139.5 -132.5 420.5t141.5 419.5t414.5 138.5q140 0 257 -35v-108q-127 36 -251 36q-219 0 -326 -107.5t-107 -340.5q0 -236 100 -346t298 -110q123 0 286 53v-107q-142 -53 -298 -53q-250 0 -382.5 139.5z" />
    <glyph glyph-name="d" unicode="d" horiz-adv-x="1265" 
d="M349 39.5q-108 57.5 -169 177.5t-61 302q0 289 150 435t442 146q118 0 245 -24v540h124v-1616h-106l-8 128h-10q-64 -69 -156 -107.5t-200 -38.5q-143 0 -251 57.5zM806.5 128.5q86.5 38.5 149.5 121.5v715q-52 14 -116 22t-128 8q-236 0 -351 -113.5t-115 -351.5
q0 -440 376 -440q98 0 184.5 38.5z" />
    <glyph glyph-name="e" unicode="e" horiz-adv-x="1149" 
d="M1050 498h-805q7 -215 117 -314.5t323 -99.5q135 0 310 51v-103q-173 -51 -324 -51q-270 0 -411 138t-141 422q0 182 56.5 307t162.5 188t254 63q221 0 339.5 -143t118.5 -417v-41zM245 589h685q-5 211 -90.5 313t-248.5 102q-336 0 -346 -415z" />
    <glyph glyph-name="f" unicode="f" horiz-adv-x="801" 
d="M514.5 1499q-67.5 -30 -100.5 -97t-33 -178v-141h419v-106h-419v-977h-124v977h-231v106h231v132q0 210 106.5 315.5t317.5 105.5q72 0 165 -14v-107q-81 14 -157 14q-107 0 -174.5 -30z" />
    <glyph glyph-name="g" unicode="g" horiz-adv-x="1265" 
d="M369.5 -445q-97.5 15 -178.5 42v107q189 -59 358 -59q143 0 232 37.5t132 121.5t43 225v96h-8q-66 -66 -157.5 -103t-202.5 -37q-137 0 -242 56t-166 175.5t-61 302.5q0 288 149 434t442 146q194 0 370 -51v-1001q0 -179 -58 -291t-174.5 -164t-295.5 -52
q-85 0 -182.5 15zM803 130q89 36 153 111v722q-115 31 -259 31q-226 0 -338.5 -113.5t-112.5 -349.5q0 -231 99 -334t271 -103q98 0 187 36z" />
    <glyph glyph-name="h" unicode="h" horiz-adv-x="1275" 
d="M185 1616h124v-658h8q79 69 181 105t215 36q185 0 289.5 -98t104.5 -307v-694h-124v688q0 159 -76.5 228.5t-217.5 69.5q-106 0 -206 -39.5t-174 -118.5v-828h-124v1616z" />
    <glyph glyph-name="i" unicode="i" horiz-adv-x="493" 
d="M185 0v1083h124v-1083h-124zM179.5 1360q-24.5 22 -24.5 61q0 40 24.5 62.5t67.5 22.5t67.5 -22.5t24.5 -62.5q0 -39 -24.5 -61t-67.5 -22t-67.5 22z" />
    <glyph glyph-name="j" unicode="j" horiz-adv-x="493" 
d="M-18 -404q106 127 154.5 264.5t48.5 307.5v915h124v-909q0 -187 -58.5 -338.5t-186.5 -297.5zM177.5 1370q-24.5 22 -24.5 61q0 40 24.5 62.5t67.5 22.5t67.5 -22.5t24.5 -62.5q0 -39 -24.5 -61t-67.5 -22t-67.5 22z" />
    <glyph glyph-name="k" unicode="k" horiz-adv-x="1135" 
d="M1000 0l-451 500h-240v-500h-124v1616h124v-1008h239l421 475h144l-462 -527l494 -556h-145z" />
    <glyph glyph-name="l" unicode="l" horiz-adv-x="493" 
d="M185 0v1616h124v-1616h-124z" />
    <glyph glyph-name="m" unicode="m" horiz-adv-x="1858" 
d="M1595.5 1001q94.5 -98 94.5 -307v-694h-124v688q0 159 -66.5 229.5t-187.5 70.5q-87 0 -173 -37.5t-149 -118.5q13 -59 13 -137v-695h-122v688q0 160 -64.5 230t-183.5 70q-90 0 -175 -40.5t-149 -122.5v-825h-124v1083h105l9 -129h9q68 71 158.5 108t191.5 37
q216 0 297 -163q84 85 182 124t196 39q168 0 262.5 -98z" />
    <glyph glyph-name="n" unicode="n" horiz-adv-x="1275" 
d="M185 1083h105l9 -129h9q81 71 184.5 108t216.5 37q188 0 293 -99.5t105 -312.5v-687h-124v685q0 160 -75.5 231.5t-218.5 71.5q-101 0 -203 -38.5t-177 -119.5v-830h-124v1083z" />
    <glyph glyph-name="o" unicode="o" horiz-adv-x="1241" 
d="M252.5 120q-133.5 139 -133.5 421q0 187 61.5 311.5t174 185.5t265.5 61q237 0 369.5 -137.5t132.5 -420.5q0 -186 -62.5 -311.5t-175 -187t-264.5 -61.5q-234 0 -367.5 139zM995 540q0 237 -97.5 345t-277.5 108q-374 0 -374 -450q0 -456 374 -456q375 0 375 453z" />
    <glyph glyph-name="p" unicode="p" horiz-adv-x="1265" 
d="M185 1083h106l10 -130h8q64 69 156 107.5t200 38.5q141 0 249 -55.5t170 -175t62 -306.5q0 -289 -149.5 -435t-442.5 -146q-107 0 -245 22v-443h-124v1523zM904 199.5q115 113.5 115 351.5q0 440 -376 440q-98 0 -184.5 -38.5t-149.5 -121.5v-715q52 -14 116 -22t128 -8
q236 0 351 113.5z" />
    <glyph glyph-name="q" unicode="q" horiz-adv-x="1265" 
d="M956 121h-8q-66 -66 -157.5 -103t-202.5 -37q-137 0 -242 56t-166 176t-61 305q0 290 149 435.5t442 145.5q194 0 370 -51v-1488h-124v561zM803 126q89 36 153 111v726q-115 31 -259 31q-226 0 -338.5 -114t-112.5 -351q0 -232 99 -335.5t271 -103.5q98 0 187 36z" />
    <glyph glyph-name="r" unicode="r" horiz-adv-x="805" 
d="M185 1083h104l11 -145h9q65 71 165.5 112.5t203.5 41.5q61 0 112 -9v-116q-49 8 -116 8q-96 0 -197.5 -40t-167.5 -120v-815h-124v1083z" />
    <glyph glyph-name="s" unicode="s" horiz-adv-x="1019" 
d="M138 27v102q91 -26 171.5 -37t170.5 -11q172 0 249 51.5t77 150.5q0 54 -19 90t-64.5 59.5t-124.5 37.5l-176 30q-158 28 -229 100t-71 191q0 141 112 224.5t343 83.5q152 0 290 -39v-101q-77 21 -145 30.5t-144 9.5q-178 0 -255 -54t-77 -150q0 -74 44 -121t155 -67
l176 -30q162 -28 235 -95.5t73 -189.5q0 -146 -113.5 -228.5t-339.5 -82.5q-186 0 -338 46z" />
    <glyph glyph-name="t" unicode="t" horiz-adv-x="828" 
d="M727 94.5q37 4.5 86 15.5v-107q-51 -12 -93.5 -17t-90.5 -5q-184 0 -282 92.5t-98 280.5v623h-231v106h231l20 397h104v-397h419v-106h-419v-601q0 -151 70 -218.5t209 -67.5q38 0 75 4.5z" />
    <glyph glyph-name="u" unicode="u" horiz-adv-x="1265" 
d="M272.5 80q-104.5 98 -104.5 307v696h124v-690q0 -159 75.5 -229.5t212.5 -70.5q102 0 202 40.5t174 119.5v830h124v-1083h-105l-9 123h-9q-80 -69 -181.5 -105t-213.5 -36q-185 0 -289.5 98z" />
    <glyph glyph-name="v" unicode="v" horiz-adv-x="1173" 
d="M1019 1083h124l-478 -1083h-157l-477 1083h134l427 -981z" />
    <glyph glyph-name="w" unicode="w" horiz-adv-x="1853" 
d="M1647 1083h122l-361 -1083h-154l-327 964l-326 -964h-154l-363 1083h126l319 -964l323 964h153l324 -961z" />
    <glyph glyph-name="x" unicode="x" horiz-adv-x="1133" 
d="M643 548l459 -548h-152l-384 461l-383 -461h-149l457 545l-447 538h151l374 -450l375 450h145z" />
    <glyph glyph-name="y" unicode="y" horiz-adv-x="1173" 
d="M1019 1083h124l-671 -1523h-126l194 440h-32l-477 1083h134l424 -986z" />
    <glyph glyph-name="z" unicode="z" horiz-adv-x="1028" 
d="M243 106h721v-106h-893v77l708 900h-694v106h865v-77z" />
    <glyph glyph-name="braceleft" unicode="{" horiz-adv-x="764" 
d="M352.5 707.5q-35.5 -60.5 -112.5 -83.5q77 -23 112.5 -84t35.5 -169v-454q0 -143 71 -206t218 -63h125v-97q-55 -11 -134 -11q-404 0 -404 377v469q0 97 -44.5 140.5t-138.5 43.5h-33v106h33q94 0 138.5 43.5t44.5 141.5v398q0 377 404 377q79 0 134 -11v-97h-125
q-147 0 -218 -63t-71 -206v-383q0 -108 -35.5 -168.5z" />
    <glyph glyph-name="bar" unicode="|" horiz-adv-x="525" 
d="M204 -440v2056h118v-2056h-118z" />
    <glyph glyph-name="braceright" unicode="}" horiz-adv-x="764" 
d="M716 676v-106h-32q-94 0 -139 -43.5t-45 -140.5v-469q0 -377 -404 -377q-80 0 -133 11v97h124q148 0 218.5 63t70.5 206v454q0 109 36 169.5t113 83.5q-77 23 -113 83t-36 169v383q0 143 -70.5 206t-218.5 63h-124v97q53 11 133 11q404 0 404 -377v-398q0 -98 45 -141.5
t139 -43.5h32z" />
    <glyph glyph-name="asciitilde" unicode="~" horiz-adv-x="1120" 
d="M645 662q-45 16 -105 47q-53 27 -88 40t-69 13q-59 0 -109 -26.5t-95 -81.5v118q36 45 88 68.5t115 23.5q48 0 91.5 -16t107.5 -47q54 -27 88 -40t68 -13q60 0 110 26.5t94 81.5v-119q-36 -45 -88 -68t-115 -23q-48 0 -93 16z" />
    <glyph glyph-name="uni00A0" unicode="&#xa0;" horiz-adv-x="553" 
 />
    <glyph glyph-name="exclamdown" unicode="&#xa1;" horiz-adv-x="527" 
d="M331.5 1069.5q25.5 -24.5 25.5 -64.5q0 -41 -25.5 -66t-68.5 -25t-68.5 25t-25.5 66t26 65t68 24q43 0 68.5 -24.5zM223 731h81l25 -556v-555h-131v555z" />
    <glyph glyph-name="cent" unicode="&#xa2;" horiz-adv-x="999" 
d="M353 885q-105 -107 -105 -341q0 -236 100 -346t298 -110q123 0 286 53v-107q-121 -44 -250 -52v-222h-112v223q-221 18 -336 156.5t-115 401.5q0 253 114 390.5t337 161.5v230h112v-224q126 -1 250 -35v-108q-66 18 -126 27t-126 9q-222 0 -327 -107z" />
    <glyph glyph-name="sterling" unicode="&#xa3;" horiz-adv-x="1423" 
d="M1318 104v-104h-1237v104h252v596h-252v100h252v223q0 243 141.5 359t423.5 116q199 0 372 -52v-110q-180 54 -372 54q-150 0 -247 -35t-146 -115t-49 -213v-227h609v-100h-609v-596h862z" />
    <glyph glyph-name="currency" unicode="&#xa4;" 
d="M983 447l105 -102l-76 -76l-102 105l-79 101q-86 -74 -214 -74q-129 0 -214 73l-79 -100l-102 -105l-77 76l106 102l103 81q-62 87 -62 212q0 124 62 211l-103 82l-107 102l76 76l102 -105l81 -102q42 35 96.5 54t117.5 19q128 0 213 -73l82 102l102 105l76 -76
l-107 -102l-103 -82q62 -89 62 -211q0 -123 -62 -212zM741.5 516q53.5 30 83 87t29.5 137q0 75 -27.5 132.5t-80.5 89.5t-127 32q-71 0 -125.5 -30.5t-84 -87.5t-29.5 -136t29.5 -136t83 -87.5t124.5 -30.5t124.5 30z" />
    <glyph glyph-name="yen" unicode="&#xa5;" horiz-adv-x="1325" 
d="M1321 1480l-540 -738h284v-90h-339v-256h339v-90h-339v-306h-126v306h-338v90h338v256h-338v90h284l-544 738h146l518 -706l517 706h138z" />
    <glyph glyph-name="brokenbar" unicode="&#xa6;" horiz-adv-x="525" 
d="M204 836v780h118v-780h-118zM204 -440v780h118v-780h-118z" />
    <glyph glyph-name="section" unicode="&#xa7;" horiz-adv-x="1141" 
d="M961 292q0 -147 -113.5 -229t-342.5 -82q-183 0 -332 45v99q90 -25 169 -35.5t167 -10.5q176 0 254 51.5t78 150.5q0 54 -19 90.5t-64.5 60t-124.5 37.5l-186 33q-152 27 -223.5 98.5t-71.5 189.5q0 127 102 209q-77 70 -77 190q0 141 111.5 224t346.5 83q148 0 284 -37
v-99q-77 21 -141.5 30t-137.5 9q-343 0 -343 -204q0 -74 44.5 -122t155.5 -68l189 -32q158 -28 230.5 -95.5t72.5 -185.5q0 -129 -105 -214q77 -67 77 -186zM658 568q86 -15 144 -40q75 56 75 151q0 82 -48.5 127.5t-167.5 67.5l-186 32q-84 16 -138 41q-73 -58 -73 -150
q0 -76 47 -126t161 -70z" />
    <glyph glyph-name="dieresis" unicode="&#xa8;" horiz-adv-x="1200" 
d="M290 1361q-23 22 -23 60q0 39 23 62t63 23t63.5 -23t23.5 -62q0 -38 -23 -60t-64 -22q-40 0 -63 22zM783 1361q-23 22 -23 60q0 39 23.5 62t63.5 23q39 0 62.5 -23t23.5 -62q0 -38 -23 -60t-63 -22q-41 0 -64 22z" />
    <glyph glyph-name="copyright" unicode="&#xa9;" horiz-adv-x="1750" 
d="M485 73q-169 95 -262 267.5t-93 399.5t93 399.5t262 267.5t390 95t390 -95t262 -267.5t93 -399.5t-93 -399.5t-262 -267.5t-390 -95t-390 95zM1220 149.5q148 83.5 229 236t81 354.5t-81 354.5t-229 236t-345 83.5q-196 0 -344.5 -83.5t-229.5 -236t-81 -354.5t81 -354.5
t229.5 -236t344.5 -83.5q197 0 345 83.5zM707 370.5q-88 46.5 -136.5 138.5t-48.5 225q0 196 108.5 303t307.5 107q102 0 192 -27v-92q-93 26 -186 26q-156 0 -237 -78t-81 -236q0 -160 78 -240t219 -80q102 0 207 39v-92q-93 -40 -216 -40q-119 0 -207 46.5z" />
    <glyph glyph-name="ordfeminine" unicode="&#xaa;" horiz-adv-x="966" 
d="M658.5 1463q82.5 -30 125 -99.5t42.5 -188.5v-565h-99l-9 101h-8q-53 -53 -137 -84.5t-174 -31.5q-144 0 -223 63.5t-79 174.5q0 112 82 172.5t264 77.5l267 28v74q0 82 -30 129t-90 66t-155 19q-143 0 -278 -44v95q63 22 139 32.5t152 10.5q128 0 210.5 -30zM578 713.5
q74 28.5 132 84.5v237l-255 -27q-129 -14 -184.5 -54t-55.5 -112q0 -75 51.5 -116t157.5 -41q80 0 154 28.5z" />
    <glyph glyph-name="guillemotleft" unicode="&#xab;" horiz-adv-x="1127" 
d="M456 139l-320 422l320 423h136l-320 -423l320 -422h-136zM895 139l-320 422l320 423h136l-320 -423l320 -422h-136z" />
    <glyph glyph-name="logicalnot" unicode="&#xac;" horiz-adv-x="1427" 
d="M1151 195v513h-972v104h1080v-617h-108z" />
    <glyph glyph-name="uni00AD" unicode="&#xad;" horiz-adv-x="953" 
d="M179 508v107h594v-107h-594z" />
    <glyph glyph-name="registered" unicode="&#xae;" horiz-adv-x="1569" 
d="M1102.5 1420q138.5 -78 215.5 -218t77 -320t-77 -319.5t-215.5 -217t-317.5 -77.5t-317.5 77.5t-215.5 217t-77 319.5t77 320t215.5 218t317.5 78t317.5 -78zM1062.5 413q119.5 66 185 187.5t65.5 281.5q0 161 -65.5 282.5t-185 188t-277.5 66.5t-278 -66.5t-185 -188
t-65 -282.5t65 -282t185 -187t278 -66t277.5 66zM885 834l158 -234h-90l-152 221q-9 -1 -29 -1h-116l-1 -220h-80v592h197q121 0 183.5 -48.5t62.5 -138.5q0 -134 -133 -171zM786 892q78 0 115.5 27.5t37.5 85.5q0 115 -153 115h-130v-228h130z" />
    <glyph glyph-name="macron" unicode="&#xaf;" horiz-adv-x="1200" 
d="M270 1380v87h660v-87h-660z" />
    <glyph glyph-name="degree" unicode="&#xb0;" horiz-adv-x="1051" 
d="M345 841.5q-80 45.5 -125 125.5t-45 180t45 180t125 125t181 45t181 -45t125 -125t45 -180t-45 -180t-125 -125.5t-181 -45.5t-181 45.5zM659 918q58 32 91 91t33 138q0 78 -33 137t-91 91t-133 32t-133 -32t-91 -91t-33 -137q0 -79 32.5 -138t91 -91t133.5 -32t133 32z
" />
    <glyph glyph-name="plusminus" unicode="&#xb1;" horiz-adv-x="1120" 
d="M506 329v338h-327v103h327v337h109v-337h326v-103h-326v-338h-109zM179 0v103h762v-103h-762z" />
    <glyph glyph-name="uni00B2" unicode="&#xb2;" horiz-adv-x="841" 
d="M769 -44v-92h-677v58l337 372q91 100 128.5 167.5t37.5 131.5q0 98 -62 145t-189 47q-143 0 -264 -42v93q54 19 124.5 29.5t148.5 10.5q350 0 350 -272q0 -85 -42 -163.5t-148 -193.5l-268 -291h524z" />
    <glyph glyph-name="uni00B3" unicode="&#xb3;" horiz-adv-x="841" 
d="M700 302q59 -63 59 -162q0 -138 -100.5 -213t-308.5 -75q-72 0 -145 10.5t-136 30.5v90q135 -45 280 -45q308 0 308 209q0 91 -67 139t-204 48h-161v86h84q310 0 310 193q0 84 -66 131t-191 47q-138 0 -260 -41v90q58 17 128 26.5t140 9.5q170 0 261.5 -67t91.5 -189
q0 -86 -51.5 -146t-140.5 -88q110 -21 169 -84z" />
    <glyph glyph-name="acute" unicode="&#xb4;" horiz-adv-x="1200" 
d="M538 1258l267 358h144l-287 -358h-124z" />
    <glyph glyph-name="uni00B5" unicode="&#xb5;" horiz-adv-x="1265" 
d="M1080 1083v-1083h-105l-9 123h-9q-78 -69 -176.5 -105t-206.5 -36q-193 0 -282 115v-537h-124v1523h124v-690q0 -159 75.5 -229.5t212.5 -70.5q102 0 202 40.5t174 119.5v830h124z" />
    <glyph glyph-name="paragraph" unicode="&#xb6;" horiz-adv-x="1344" 
d="M801 512q-80 -12 -185 -12q-265 0 -389.5 127t-124.5 374q0 253 122.5 373.5t361.5 120.5q161 0 318 -15v-1480h-103v512zM1037 0v1480h103v-1480h-103z" />
    <glyph glyph-name="periodcentered" unicode="&#xb7;" horiz-adv-x="487" 
d="M175 493q-26 24 -26 65t25.5 66t68.5 25t68.5 -25t25.5 -66q0 -40 -25.5 -64.5t-68.5 -24.5q-42 0 -68 24z" />
    <glyph glyph-name="cedilla" unicode="&#xb8;" horiz-adv-x="1200" 
d="M768.5 -150.5q44.5 -39.5 44.5 -106.5q0 -73 -53 -112t-149 -39q-50 0 -100.5 10t-85.5 28v70q88 -42 183 -42q63 0 94 21.5t31 66.5t-31 66t-95 21h-42v187h77v-126q82 -5 126.5 -44.5z" />
    <glyph glyph-name="uni00B9" unicode="&#xb9;" horiz-adv-x="841" 
d="M520 -44h254v-92h-629v92h268v782l-268 -188v106l302 212h73v-912z" />
    <glyph glyph-name="ordmasculine" unicode="&#xba;" horiz-adv-x="1069" 
d="M306.5 645q-96.5 50 -149.5 151.5t-53 250.5t53 248.5t149.5 148.5t227.5 49t227.5 -49t150 -149t53.5 -248q0 -149 -53.5 -250.5t-150 -151.5t-227.5 -50t-227.5 50zM764 780.5q82 85.5 82 266.5q0 180 -81.5 263.5t-230.5 83.5q-148 0 -229.5 -83.5t-81.5 -263.5
q0 -181 82 -266.5t229 -85.5q148 0 230 85.5z" />
    <glyph glyph-name="guillemotright" unicode="&#xbb;" horiz-adv-x="1127" 
d="M96 139l320 422l-320 423h136l320 -423l-320 -422h-136zM535 139l320 422l-320 423h136l320 -423l-320 -422h-136z" />
    <glyph glyph-name="onequarter" unicode="&#xbc;" horiz-adv-x="1980" 
d="M520 708h254v-92h-629v92h268v782l-268 -188v106l302 212h73v-912zM504 -136l861 1752h111l-861 -1752h-111zM1956 193v-90h-154v-239h-99v239h-534v61l412 700h105l-394 -671h411l17 333h82v-333h154z" />
    <glyph glyph-name="onehalf" unicode="&#xbd;" horiz-adv-x="1980" 
d="M520 708h254v-92h-629v92h268v782l-268 -188v106l302 212h73v-912zM504 -136l861 1752h111l-861 -1752h-111zM1908 -44v-92h-677v58l337 372q91 100 128.5 167.5t37.5 131.5q0 98 -62 145t-189 47q-143 0 -264 -42v93q54 19 124.5 29.5t148.5 10.5q350 0 350 -272
q0 -85 -42 -163.5t-148 -193.5l-268 -291h524z" />
    <glyph glyph-name="threequarters" unicode="&#xbe;" horiz-adv-x="1980" 
d="M700 1054q59 -63 59 -162q0 -138 -100.5 -213t-308.5 -75q-72 0 -145 10.5t-136 30.5v90q135 -45 280 -45q308 0 308 209q0 91 -67 139t-204 48h-161v86h84q310 0 310 193q0 84 -66 131t-191 47q-138 0 -260 -41v90q58 17 128 26.5t140 9.5q170 0 261.5 -67t91.5 -189
q0 -86 -51.5 -146t-140.5 -88q110 -21 169 -84zM504 -136l861 1752h111l-861 -1752h-111zM1956 193v-90h-154v-239h-99v239h-534v61l412 700h105l-394 -671h411l17 333h82v-333h154z" />
    <glyph glyph-name="questiondown" unicode="&#xbf;" horiz-adv-x="980" 
d="M595.5 1070q25.5 -24 25.5 -62q0 -40 -25.5 -64.5t-68.5 -24.5t-68.5 24.5t-25.5 64.5q0 39 25.5 62.5t68.5 23.5t68.5 -24zM589 337q-150 -44 -237 -95.5t-124 -115.5t-37 -153q0 -125 97 -196t276 -71q192 0 369 57v-108q-176 -55 -378 -55q-155 0 -264.5 44.5
t-166.5 127t-57 195.5q0 109 39.5 188.5t128.5 141t239 112.5l13 341h80z" />
    <glyph glyph-name="Agrave" unicode="&#xc0;" horiz-adv-x="1487" 
d="M1313 0l-206 501h-729l-206 -501h-129l615 1480h171l614 -1480h-130zM422 607h641l-321 779zM683 1612l-241 278h143l220 -278h-122z" />
    <glyph glyph-name="Aacute" unicode="&#xc1;" horiz-adv-x="1487" 
d="M1313 0l-206 501h-729l-206 -501h-129l615 1480h171l614 -1480h-130zM422 607h641l-321 779zM683 1612l219 278h143l-241 -278h-121z" />
    <glyph glyph-name="Acircumflex" unicode="&#xc2;" horiz-adv-x="1487" 
d="M1313 0l-206 501h-729l-206 -501h-129l615 1480h171l614 -1480h-130zM422 607h641l-321 779zM1095 1612h-131l-220 215l-220 -215h-131l291 278h120z" />
    <glyph glyph-name="Atilde" unicode="&#xc3;" horiz-adv-x="1487" 
d="M1313 0l-206 501h-729l-206 -501h-129l615 1480h171l614 -1480h-130zM422 607h641l-321 779zM825 1692q-40 10 -97 29q-50 18 -83 26.5t-68 8.5q-58 0 -101 -16.5t-83 -52.5v91q32 32 77.5 47t108.5 15q44 0 84 -10t97 -29q50 -18 83 -26.5t68 -8.5q58 0 101 16.5
t83 52.5v-91q-32 -32 -77.5 -47t-108.5 -15q-44 0 -84 10z" />
    <glyph glyph-name="Adieresis" unicode="&#xc4;" horiz-adv-x="1487" 
d="M1313 0l-206 501h-729l-206 -501h-129l615 1480h171l614 -1480h-130zM422 607h641l-321 779zM416 1694q-23 21 -23 58q0 36 23 58t63 22q39 0 62 -22t23 -58q0 -37 -22.5 -58t-62.5 -21t-63 21zM946.5 1694q-22.5 21 -22.5 58q0 36 23 58t62 22q40 0 63 -22t23 -58
q0 -37 -23 -58t-63 -21t-62.5 21z" />
    <glyph glyph-name="Aring" unicode="&#xc5;" horiz-adv-x="1487" 
d="M1313 0l-206 501h-729l-206 -501h-129l615 1480h171l614 -1480h-130zM422 607h641l-321 779zM646.5 1630.5q-43.5 24.5 -68 67.5t-24.5 97t24.5 97t68 67.5t97.5 24.5t97.5 -24.5t68 -67.5t24.5 -97t-24.5 -97t-68 -67.5t-97.5 -24.5t-97.5 24.5zM833 1704q34 34 34 91
q0 58 -34 91.5t-89 33.5t-89 -33.5t-34 -91.5q0 -57 34 -91t89 -34t89 34z" />
    <glyph glyph-name="AE" unicode="&#xc6;" horiz-adv-x="2023" 
d="M1150 106h768v-106h-886l-42 501h-609l-209 -501h-129l624 1480h1241v-106h-869l49 -561h719v-106h-710zM426 607h555l-65 767h-170z" />
    <glyph glyph-name="Ccedilla" unicode="&#xc7;" horiz-adv-x="1303" 
d="M419.5 1233q-156.5 -155 -156.5 -491q0 -348 154.5 -499t444.5 -151q101 0 191 14.5t193 49.5v-112q-176 -62 -390 -62h-27v-88q91 -4 141 -42.5t50 -108.5q0 -74 -58.5 -112.5t-163.5 -38.5q-54 0 -108 10t-98 28v70q106 -42 203 -42q145 0 145 87q0 46 -37 67t-110 21
h-41v153q-295 25 -458.5 206.5t-163.5 545.5q0 383 195 571.5t548 188.5q102 0 191 -12.5t182 -38.5v-111q-184 52 -370 52q-300 0 -456.5 -155z" />
    <glyph glyph-name="Egrave" unicode="&#xc8;" horiz-adv-x="1314" 
d="M329 106h880v-106h-1005v1480h995v-106h-870v-561h770v-106h-770v-601zM662 1612l-241 278h143l220 -278h-122z" />
    <glyph glyph-name="Eacute" unicode="&#xc9;" horiz-adv-x="1314" 
d="M329 106h880v-106h-1005v1480h995v-106h-870v-561h770v-106h-770v-601zM662 1612l219 278h143l-241 -278h-121z" />
    <glyph glyph-name="Ecircumflex" unicode="&#xca;" horiz-adv-x="1314" 
d="M329 106h880v-106h-1005v1480h995v-106h-870v-561h770v-106h-770v-601zM1074 1612h-131l-220 215l-220 -215h-131l291 278h120z" />
    <glyph glyph-name="Edieresis" unicode="&#xcb;" horiz-adv-x="1314" 
d="M329 106h880v-106h-1005v1480h995v-106h-870v-561h770v-106h-770v-601zM395 1694q-23 21 -23 58q0 36 23 58t63 22q39 0 62 -22t23 -58q0 -37 -22.5 -58t-62.5 -21t-63 21zM925.5 1694q-22.5 21 -22.5 58q0 36 23 58t62 22q40 0 63 -22t23 -58q0 -37 -23 -58t-63 -21
t-62.5 21z" />
    <glyph glyph-name="Igrave" unicode="&#xcc;" horiz-adv-x="533" 
d="M204 0v1480h126v-1480h-126zM206 1612l-241 278h143l220 -278h-122z" />
    <glyph glyph-name="Iacute" unicode="&#xcd;" horiz-adv-x="533" 
d="M204 0v1480h126v-1480h-126zM206 1612l219 278h143l-241 -278h-121z" />
    <glyph glyph-name="Icircumflex" unicode="&#xce;" horiz-adv-x="533" 
d="M204 0v1480h126v-1480h-126zM618 1612h-131l-220 215l-220 -215h-131l291 278h120z" />
    <glyph glyph-name="Idieresis" unicode="&#xcf;" horiz-adv-x="533" 
d="M204 0v1480h126v-1480h-126zM-61 1694q-23 21 -23 58q0 36 23 58t63 22q39 0 62 -22t23 -58q0 -37 -22.5 -58t-62.5 -21t-63 21zM469.5 1694q-22.5 21 -22.5 58q0 36 23 58t62 22q40 0 63 -22t23 -58q0 -37 -23 -58t-63 -21t-62.5 21z" />
    <glyph glyph-name="Eth" unicode="&#xd0;" horiz-adv-x="1568" 
d="M1234.5 1305q203.5 -189 203.5 -565q0 -379 -208 -565t-624 -186q-102 0 -195 6t-207 21v700h-196v91h196v644q100 21 213.5 32t216.5 11q397 0 600.5 -189zM1139 255q169 157 169 486q0 327 -169 485.5t-508 158.5q-137 0 -301 -26v-552h406v-91h-406v-598
q123 -20 296 -20q344 0 513 157z" />
    <glyph glyph-name="Ntilde" unicode="&#xd1;" horiz-adv-x="1634" 
d="M1310 1480h120v-1480h-131l-975 1303v-1303h-120v1480h131l975 -1303v1303zM899 1692q-40 10 -97 29q-50 18 -83 26.5t-68 8.5q-58 0 -101 -16.5t-83 -52.5v91q32 32 77.5 47t108.5 15q44 0 84 -10t97 -29q50 -18 83 -26.5t68 -8.5q58 0 101 16.5t83 52.5v-91
q-32 -32 -77.5 -47t-108.5 -15q-44 0 -84 10z" />
    <glyph glyph-name="Ograve" unicode="&#xd2;" horiz-adv-x="1617" 
d="M450 64q-152 82 -236 251.5t-84 424.5t85 424.5t237.5 251.5t356.5 82q206 0 358 -82t236 -251.5t84 -424.5t-85 -424.5t-237 -251.5t-356 -82q-207 0 -359 82zM1211.5 248.5q145.5 156.5 145.5 486.5q0 337 -145.5 495t-402.5 158t-402.5 -156t-145.5 -487
q0 -338 145 -495.5t403 -157.5q257 0 402.5 156.5zM748 1612l-241 278h143l220 -278h-122z" />
    <glyph glyph-name="Oacute" unicode="&#xd3;" horiz-adv-x="1617" 
d="M450 64q-152 82 -236 251.5t-84 424.5t85 424.5t237.5 251.5t356.5 82q206 0 358 -82t236 -251.5t84 -424.5t-85 -424.5t-237 -251.5t-356 -82q-207 0 -359 82zM1211.5 248.5q145.5 156.5 145.5 486.5q0 337 -145.5 495t-402.5 158t-402.5 -156t-145.5 -487
q0 -338 145 -495.5t403 -157.5q257 0 402.5 156.5zM748 1612l219 278h143l-241 -278h-121z" />
    <glyph glyph-name="Ocircumflex" unicode="&#xd4;" horiz-adv-x="1617" 
d="M450 64q-152 82 -236 251.5t-84 424.5t85 424.5t237.5 251.5t356.5 82q206 0 358 -82t236 -251.5t84 -424.5t-85 -424.5t-237 -251.5t-356 -82q-207 0 -359 82zM1211.5 248.5q145.5 156.5 145.5 486.5q0 337 -145.5 495t-402.5 158t-402.5 -156t-145.5 -487
q0 -338 145 -495.5t403 -157.5q257 0 402.5 156.5zM1160 1612h-131l-220 215l-220 -215h-131l291 278h120z" />
    <glyph glyph-name="Otilde" unicode="&#xd5;" horiz-adv-x="1617" 
d="M450 64q-152 82 -236 251.5t-84 424.5t85 424.5t237.5 251.5t356.5 82q206 0 358 -82t236 -251.5t84 -424.5t-85 -424.5t-237 -251.5t-356 -82q-207 0 -359 82zM1211.5 248.5q145.5 156.5 145.5 486.5q0 337 -145.5 495t-402.5 158t-402.5 -156t-145.5 -487
q0 -338 145 -495.5t403 -157.5q257 0 402.5 156.5zM890 1692q-40 10 -97 29q-50 18 -83 26.5t-68 8.5q-58 0 -101 -16.5t-83 -52.5v91q32 32 77.5 47t108.5 15q44 0 84 -10t97 -29q50 -18 83 -26.5t68 -8.5q58 0 101 16.5t83 52.5v-91q-32 -32 -77.5 -47t-108.5 -15
q-44 0 -84 10z" />
    <glyph glyph-name="Odieresis" unicode="&#xd6;" horiz-adv-x="1617" 
d="M450 64q-152 82 -236 251.5t-84 424.5t85 424.5t237.5 251.5t356.5 82q206 0 358 -82t236 -251.5t84 -424.5t-85 -424.5t-237 -251.5t-356 -82q-207 0 -359 82zM1211.5 248.5q145.5 156.5 145.5 486.5q0 337 -145.5 495t-402.5 158t-402.5 -156t-145.5 -487
q0 -338 145 -495.5t403 -157.5q257 0 402.5 156.5zM481 1694q-23 21 -23 58q0 36 23 58t63 22q39 0 62 -22t23 -58q0 -37 -22.5 -58t-62.5 -21t-63 21zM1011.5 1694q-22.5 21 -22.5 58q0 36 23 58t62 22q40 0 63 -22t23 -58q0 -37 -23 -58t-63 -21t-62.5 21z" />
    <glyph glyph-name="multiply" unicode="&#xd7;" horiz-adv-x="1022" 
d="M211 388l-72 72l300 300l-300 300l72 72l300 -300l300 300l71 -72l-300 -300l300 -300l-71 -72l-300 300z" />
    <glyph glyph-name="Oslash" unicode="&#xd8;" horiz-adv-x="1617" 
d="M1487 740q0 -255 -85 -424.5t-237 -251.5t-356 -82q-141 0 -257 38t-203 115l-136 -158l-65 57l140 164q-158 194 -158 542q0 255 85 424.5t237.5 251.5t356.5 82q140 0 256.5 -38.5t203.5 -115.5l136 159l65 -57l-141 -165q158 -192 158 -541zM371 295l819 957
q-137 136 -381 136q-257 0 -402.5 -156t-145.5 -487q0 -287 110 -450zM1211.5 248.5q145.5 156.5 145.5 486.5q0 286 -111 450l-819 -958q136 -135 382 -135q257 0 402.5 156.5z" />
    <glyph glyph-name="Ugrave" unicode="&#xd9;" horiz-adv-x="1576" 
d="M455 46q-131 64 -195 196.5t-64 341.5v896h126v-910q0 -168 50.5 -273t153 -155t263.5 -50t264 50t153.5 155t50.5 273v910h123v-896q0 -209 -63.5 -341.5t-194 -196.5t-333.5 -64t-334 64zM728 1612l-241 278h143l220 -278h-122z" />
    <glyph glyph-name="Uacute" unicode="&#xda;" horiz-adv-x="1576" 
d="M455 46q-131 64 -195 196.5t-64 341.5v896h126v-910q0 -168 50.5 -273t153 -155t263.5 -50t264 50t153.5 155t50.5 273v910h123v-896q0 -209 -63.5 -341.5t-194 -196.5t-333.5 -64t-334 64zM728 1612l219 278h143l-241 -278h-121z" />
    <glyph glyph-name="Ucircumflex" unicode="&#xdb;" horiz-adv-x="1576" 
d="M455 46q-131 64 -195 196.5t-64 341.5v896h126v-910q0 -168 50.5 -273t153 -155t263.5 -50t264 50t153.5 155t50.5 273v910h123v-896q0 -209 -63.5 -341.5t-194 -196.5t-333.5 -64t-334 64zM1140 1612h-131l-220 215l-220 -215h-131l291 278h120z" />
    <glyph glyph-name="Udieresis" unicode="&#xdc;" horiz-adv-x="1576" 
d="M455 46q-131 64 -195 196.5t-64 341.5v896h126v-910q0 -168 50.5 -273t153 -155t263.5 -50t264 50t153.5 155t50.5 273v910h123v-896q0 -209 -63.5 -341.5t-194 -196.5t-333.5 -64t-334 64zM461 1694q-23 21 -23 58q0 36 23 58t63 22q39 0 62 -22t23 -58q0 -37 -22.5 -58
t-62.5 -21t-63 21zM991.5 1694q-22.5 21 -22.5 58q0 36 23 58t62 22q40 0 63 -22t23 -58q0 -37 -23 -58t-63 -21t-62.5 21z" />
    <glyph glyph-name="Yacute" unicode="&#xdd;" horiz-adv-x="1285" 
d="M1297 1480l-591 -813v-667h-126v667l-602 813h146l521 -706l514 706h138zM581 1612l219 278h143l-241 -278h-121z" />
    <glyph glyph-name="Thorn" unicode="&#xde;" horiz-adv-x="1354" 
d="M204 1482h126v-249q139 25 291 25q307 0 464 -120.5t157 -374.5q0 -247 -160.5 -374t-500.5 -127q-120 0 -251 13v-275h-126v1482zM890 409q118 44 172 131.5t54 221.5q0 202 -121.5 297.5t-368.5 95.5q-160 0 -296 -25v-749q128 -16 251 -16q191 0 309 44z" />
    <glyph glyph-name="germandbls" unicode="&#xdf;" horiz-adv-x="1518" 
d="M1355.5 481.5q72.5 -67.5 72.5 -189.5q0 -146 -114.5 -228.5t-344.5 -82.5q-184 0 -332 45v101q88 -25 169 -35.5t167 -10.5q176 0 253.5 51.5t77.5 150.5q0 54 -19 90t-64.5 59.5t-124.5 37.5l-176 30q-158 28 -228.5 99t-70.5 189q0 142 111 225t337 83q50 0 93 -4
q8 58 8 101q0 180 -101 262t-276 82q-204 0 -308 -104.5t-104 -328.5v-1104h-124v974h-231v109h231v24q0 262 137 395.5t394 133.5q143 0 252 -48.5t170.5 -150t61.5 -255.5q0 -43 -7.5 -97.5t-19.5 -97.5q-89 12 -164 12q-181 0 -259 -54t-78 -150q0 -73 45 -120.5
t154 -67.5l176 -30q164 -28 236.5 -95.5z" />
    <glyph glyph-name="agrave" unicode="&#xe0;" horiz-adv-x="1140" 
d="M777 1063q96 -36 145.5 -120t49.5 -228v-715h-106l-10 128h-9q-62 -66 -160.5 -105.5t-207.5 -39.5q-112 0 -192 35.5t-122 101t-42 154.5q0 138 97.5 213t315.5 99l313 36v97q0 108 -36.5 168.5t-106.5 84.5t-182 24q-78 0 -164 -13t-167 -42v104q73 26 163.5 40
t177.5 14q147 0 243 -36zM688.5 118.5q89.5 37.5 160.5 111.5v302l-308 -36q-156 -18 -222.5 -69t-66.5 -144q0 -97 61.5 -149.5t187.5 -52.5q98 0 187.5 37.5zM505 1258l-287 358h144l267 -358h-124z" />
    <glyph glyph-name="aacute" unicode="&#xe1;" horiz-adv-x="1140" 
d="M777 1063q96 -36 145.5 -120t49.5 -228v-715h-106l-10 128h-9q-62 -66 -160.5 -105.5t-207.5 -39.5q-112 0 -192 35.5t-122 101t-42 154.5q0 138 97.5 213t315.5 99l313 36v97q0 108 -36.5 168.5t-106.5 84.5t-182 24q-78 0 -164 -13t-167 -42v104q73 26 163.5 40
t177.5 14q147 0 243 -36zM688.5 118.5q89.5 37.5 160.5 111.5v302l-308 -36q-156 -18 -222.5 -69t-66.5 -144q0 -97 61.5 -149.5t187.5 -52.5q98 0 187.5 37.5zM505 1258l267 358h144l-287 -358h-124z" />
    <glyph glyph-name="acircumflex" unicode="&#xe2;" horiz-adv-x="1140" 
d="M777 1063q96 -36 145.5 -120t49.5 -228v-715h-106l-10 128h-9q-62 -66 -160.5 -105.5t-207.5 -39.5q-112 0 -192 35.5t-122 101t-42 154.5q0 138 97.5 213t315.5 99l313 36v97q0 108 -36.5 168.5t-106.5 84.5t-182 24q-78 0 -164 -13t-167 -42v104q73 26 163.5 40
t177.5 14q147 0 243 -36zM688.5 118.5q89.5 37.5 160.5 111.5v302l-308 -36q-156 -18 -222.5 -69t-66.5 -144q0 -97 61.5 -149.5t187.5 -52.5q98 0 187.5 37.5zM888 1258h-114l-207 287l-207 -287h-114l263 358h116z" />
    <glyph glyph-name="atilde" unicode="&#xe3;" horiz-adv-x="1140" 
d="M777 1063q96 -36 145.5 -120t49.5 -228v-715h-106l-10 128h-9q-62 -66 -160.5 -105.5t-207.5 -39.5q-112 0 -192 35.5t-122 101t-42 154.5q0 138 97.5 213t315.5 99l313 36v97q0 108 -36.5 168.5t-106.5 84.5t-182 24q-78 0 -164 -13t-167 -42v104q73 26 163.5 40
t177.5 14q147 0 243 -36zM688.5 118.5q89.5 37.5 160.5 111.5v302l-308 -36q-156 -18 -222.5 -69t-66.5 -144q0 -97 61.5 -149.5t187.5 -52.5q98 0 187.5 37.5zM641.5 1370.5q-38.5 10.5 -90.5 31.5q-50 19 -80 27.5t-60 8.5q-51 0 -93 -17.5t-81 -55.5v95q65 64 176 64
q42 0 80 -10.5t90 -31.5q50 -19 80 -27.5t60 -8.5q51 0 93 17.5t81 55.5v-95q-65 -64 -176 -64q-41 0 -79.5 10.5z" />
    <glyph glyph-name="adieresis" unicode="&#xe4;" horiz-adv-x="1140" 
d="M777 1063q96 -36 145.5 -120t49.5 -228v-715h-106l-10 128h-9q-62 -66 -160.5 -105.5t-207.5 -39.5q-112 0 -192 35.5t-122 101t-42 154.5q0 138 97.5 213t315.5 99l313 36v97q0 108 -36.5 168.5t-106.5 84.5t-182 24q-78 0 -164 -13t-167 -42v104q73 26 163.5 40
t177.5 14q147 0 243 -36zM688.5 118.5q89.5 37.5 160.5 111.5v302l-308 -36q-156 -18 -222.5 -69t-66.5 -144q0 -97 61.5 -149.5t187.5 -52.5q98 0 187.5 37.5zM257 1361q-23 22 -23 60q0 39 23 62t63 23t63.5 -23t23.5 -62q0 -38 -23 -60t-64 -22q-40 0 -63 22zM750 1361
q-23 22 -23 60q0 39 23.5 62t63.5 23q39 0 62.5 -23t23.5 -62q0 -38 -23 -60t-63 -22q-41 0 -64 22z" />
    <glyph glyph-name="aring" unicode="&#xe5;" horiz-adv-x="1140" 
d="M777 1063q96 -36 145.5 -120t49.5 -228v-715h-106l-10 128h-9q-62 -66 -160.5 -105.5t-207.5 -39.5q-112 0 -192 35.5t-122 101t-42 154.5q0 138 97.5 213t315.5 99l313 36v97q0 108 -36.5 168.5t-106.5 84.5t-182 24q-78 0 -164 -13t-167 -42v104q73 26 163.5 40
t177.5 14q147 0 243 -36zM688.5 118.5q89.5 37.5 160.5 111.5v302l-308 -36q-156 -18 -222.5 -69t-66.5 -144q0 -97 61.5 -149.5t187.5 -52.5q98 0 187.5 37.5zM469.5 1277.5q-43.5 24.5 -68 68t-24.5 97.5t24.5 97t68 67.5t97.5 24.5t97.5 -24.5t68 -67.5t24.5 -97
t-24.5 -97.5t-68 -68t-97.5 -24.5t-97.5 24.5zM656 1351.5q34 33.5 34 91.5q0 57 -34 91t-89 34t-89 -34t-34 -91q0 -58 34 -91.5t89 -33.5t89 33.5z" />
    <glyph glyph-name="ae" unicode="&#xe6;" horiz-adv-x="1867" 
d="M1769 498h-797q7 -215 116.5 -314.5t318.5 -99.5q135 0 306 51v-103q-166 -51 -320 -51q-328 0 -458 205q-106 -111 -217 -157t-231 -46q-114 0 -196 35.5t-125 101.5t-43 156q0 145 107.5 229t335.5 84h283v130q0 108 -36.5 168.5t-106.5 84.5t-182 24q-78 0 -164 -13
t-167 -42v104q73 26 162 40t176 14q165 0 264.5 -48.5t138.5 -162.5q55 104 152.5 157.5t230.5 53.5q216 0 334 -143t118 -414v-44zM972 589h676q-10 415 -335 415q-331 0 -341 -415zM708.5 127q100.5 46 182.5 147q-37 97 -41 225h-285q-313 0 -313 -215q0 -97 63 -150
t188 -53q105 0 205.5 46z" />
    <glyph glyph-name="ccedilla" unicode="&#xe7;" horiz-adv-x="985" 
d="M355 884.5q-107 -107.5 -107 -340.5q0 -236 100 -346t298 -110q123 0 286 53v-107q-142 -53 -298 -53h-9v-87q82 -5 126.5 -44.5t44.5 -106.5q0 -73 -53 -112t-149 -39q-50 0 -100.5 10t-85.5 28v70q88 -42 183 -42q63 0 94 21.5t31 66.5t-31 66t-95 21h-42v152
q-209 23 -319 161.5t-110 394.5q0 281 141.5 419.5t414.5 138.5q140 0 257 -35v-108q-127 36 -251 36q-219 0 -326 -107.5z" />
    <glyph glyph-name="egrave" unicode="&#xe8;" horiz-adv-x="1149" 
d="M1050 498h-805q7 -215 117 -314.5t323 -99.5q135 0 310 51v-103q-173 -51 -324 -51q-270 0 -411 138t-141 422q0 182 56.5 307t162.5 188t254 63q221 0 339.5 -143t118.5 -417v-41zM245 589h685q-5 211 -90.5 313t-248.5 102q-336 0 -346 -415zM534 1258l-287 358h144
l267 -358h-124z" />
    <glyph glyph-name="eacute" unicode="&#xe9;" horiz-adv-x="1149" 
d="M1050 498h-805q7 -215 117 -314.5t323 -99.5q135 0 310 51v-103q-173 -51 -324 -51q-270 0 -411 138t-141 422q0 182 56.5 307t162.5 188t254 63q221 0 339.5 -143t118.5 -417v-41zM245 589h685q-5 211 -90.5 313t-248.5 102q-336 0 -346 -415zM534 1258l267 358h144
l-287 -358h-124z" />
    <glyph glyph-name="ecircumflex" unicode="&#xea;" horiz-adv-x="1149" 
d="M1050 498h-805q7 -215 117 -314.5t323 -99.5q135 0 310 51v-103q-173 -51 -324 -51q-270 0 -411 138t-141 422q0 182 56.5 307t162.5 188t254 63q221 0 339.5 -143t118.5 -417v-41zM245 589h685q-5 211 -90.5 313t-248.5 102q-336 0 -346 -415zM917 1258h-114l-207 287
l-207 -287h-114l263 358h116z" />
    <glyph glyph-name="edieresis" unicode="&#xeb;" horiz-adv-x="1149" 
d="M1050 498h-805q7 -215 117 -314.5t323 -99.5q135 0 310 51v-103q-173 -51 -324 -51q-270 0 -411 138t-141 422q0 182 56.5 307t162.5 188t254 63q221 0 339.5 -143t118.5 -417v-41zM245 589h685q-5 211 -90.5 313t-248.5 102q-336 0 -346 -415zM286 1361q-23 22 -23 60
q0 39 23 62t63 23t63.5 -23t23.5 -62q0 -38 -23 -60t-64 -22q-40 0 -63 22zM779 1361q-23 22 -23 60q0 39 23.5 62t63.5 23q39 0 62.5 -23t23.5 -62q0 -38 -23 -60t-63 -22q-41 0 -64 22z" />
    <glyph glyph-name="igrave" unicode="&#xec;" horiz-adv-x="493" 
d="M185 0v1083h124v-1083h-124zM185 1258l-287 358h144l267 -358h-124z" />
    <glyph glyph-name="iacute" unicode="&#xed;" horiz-adv-x="493" 
d="M185 0v1083h124v-1083h-124zM185 1258l267 358h144l-287 -358h-124z" />
    <glyph glyph-name="icircumflex" unicode="&#xee;" horiz-adv-x="493" 
d="M185 0v1083h124v-1083h-124zM568 1258h-114l-207 287l-207 -287h-114l263 358h116z" />
    <glyph glyph-name="idieresis" unicode="&#xef;" horiz-adv-x="493" 
d="M185 0v1083h124v-1083h-124zM-63 1361q-23 22 -23 60q0 39 23 62t63 23t63.5 -23t23.5 -62q0 -38 -23 -60t-64 -22q-40 0 -63 22zM430 1361q-23 22 -23 60q0 39 23.5 62t63.5 23q39 0 62.5 -23t23.5 -62q0 -38 -23 -60t-63 -22q-41 0 -64 22z" />
    <glyph glyph-name="eth" unicode="&#xf0;" horiz-adv-x="1241" 
d="M1050.5 960.5q70.5 -192.5 70.5 -383.5q0 -200 -62 -333t-173.5 -198t-263.5 -65q-236 0 -369.5 139.5t-133.5 420.5q0 186 61.5 310.5t172.5 185t260 60.5q89 0 162.5 -23.5t133.5 -77.5q-66 160 -179 303l-493 -77l-13 85l440 69q-121 129 -288 240h170
q135 -90 248 -220l289 45l13 -85l-240 -37q124 -166 194.5 -358.5zM897 198q98 111 98 342q0 237 -97 345.5t-278 108.5q-374 0 -374 -451q0 -456 376 -456q177 0 275 111z" />
    <glyph glyph-name="ntilde" unicode="&#xf1;" horiz-adv-x="1275" 
d="M185 1083h105l9 -129h9q81 71 184.5 108t216.5 37q188 0 293 -99.5t105 -312.5v-687h-124v685q0 160 -75.5 231.5t-218.5 71.5q-101 0 -203 -38.5t-177 -119.5v-830h-124v1083zM721.5 1370.5q-38.5 10.5 -90.5 31.5q-50 19 -80 27.5t-60 8.5q-51 0 -93 -17.5t-81 -55.5
v95q65 64 176 64q42 0 80 -10.5t90 -31.5q50 -19 80 -27.5t60 -8.5q51 0 93 17.5t81 55.5v-95q-65 -64 -176 -64q-41 0 -79.5 10.5z" />
    <glyph glyph-name="ograve" unicode="&#xf2;" horiz-adv-x="1241" 
d="M252.5 120q-133.5 139 -133.5 421q0 187 61.5 311.5t174 185.5t265.5 61q237 0 369.5 -137.5t132.5 -420.5q0 -186 -62.5 -311.5t-175 -187t-264.5 -61.5q-234 0 -367.5 139zM995 540q0 237 -97.5 345t-277.5 108q-374 0 -374 -450q0 -456 374 -456q375 0 375 453z
M558 1258l-287 358h144l267 -358h-124z" />
    <glyph glyph-name="oacute" unicode="&#xf3;" horiz-adv-x="1241" 
d="M252.5 120q-133.5 139 -133.5 421q0 187 61.5 311.5t174 185.5t265.5 61q237 0 369.5 -137.5t132.5 -420.5q0 -186 -62.5 -311.5t-175 -187t-264.5 -61.5q-234 0 -367.5 139zM995 540q0 237 -97.5 345t-277.5 108q-374 0 -374 -450q0 -456 374 -456q375 0 375 453z
M558 1258l267 358h144l-287 -358h-124z" />
    <glyph glyph-name="ocircumflex" unicode="&#xf4;" horiz-adv-x="1241" 
d="M252.5 120q-133.5 139 -133.5 421q0 187 61.5 311.5t174 185.5t265.5 61q237 0 369.5 -137.5t132.5 -420.5q0 -186 -62.5 -311.5t-175 -187t-264.5 -61.5q-234 0 -367.5 139zM995 540q0 237 -97.5 345t-277.5 108q-374 0 -374 -450q0 -456 374 -456q375 0 375 453z
M941 1258h-114l-207 287l-207 -287h-114l263 358h116z" />
    <glyph glyph-name="otilde" unicode="&#xf5;" horiz-adv-x="1241" 
d="M252.5 120q-133.5 139 -133.5 421q0 187 61.5 311.5t174 185.5t265.5 61q237 0 369.5 -137.5t132.5 -420.5q0 -186 -62.5 -311.5t-175 -187t-264.5 -61.5q-234 0 -367.5 139zM995 540q0 237 -97.5 345t-277.5 108q-374 0 -374 -450q0 -456 374 -456q375 0 375 453z
M694.5 1370.5q-38.5 10.5 -90.5 31.5q-50 19 -80 27.5t-60 8.5q-51 0 -93 -17.5t-81 -55.5v95q65 64 176 64q42 0 80 -10.5t90 -31.5q50 -19 80 -27.5t60 -8.5q51 0 93 17.5t81 55.5v-95q-65 -64 -176 -64q-41 0 -79.5 10.5z" />
    <glyph glyph-name="odieresis" unicode="&#xf6;" horiz-adv-x="1241" 
d="M252.5 120q-133.5 139 -133.5 421q0 187 61.5 311.5t174 185.5t265.5 61q237 0 369.5 -137.5t132.5 -420.5q0 -186 -62.5 -311.5t-175 -187t-264.5 -61.5q-234 0 -367.5 139zM995 540q0 237 -97.5 345t-277.5 108q-374 0 -374 -450q0 -456 374 -456q375 0 375 453z
M310 1361q-23 22 -23 60q0 39 23 62t63 23t63.5 -23t23.5 -62q0 -38 -23 -60t-64 -22q-40 0 -63 22zM803 1361q-23 22 -23 60q0 39 23.5 62t63.5 23q39 0 62.5 -23t23.5 -62q0 -38 -23 -60t-63 -22q-41 0 -64 22z" />
    <glyph glyph-name="divide" unicode="&#xf7;" horiz-adv-x="1120" 
d="M494 1044.5q-25 23.5 -25 63.5t25 64t66 24t66 -24t25 -64t-25 -63.5t-66 -23.5t-66 23.5zM179 708v104h762v-104h-762zM494 347.5q-25 23.5 -25 62.5q0 40 25 64.5t66 24.5t66 -24.5t25 -64.5t-25 -63t-66 -23t-66 23.5z" />
    <glyph glyph-name="oslash" unicode="&#xf8;" horiz-adv-x="1241" 
d="M1122 541q0 -186 -62.5 -311.5t-175 -187t-264.5 -61.5q-192 0 -315 92l-78 -99l-63 52l81 103q-126 143 -126 412q0 187 61.5 311.5t174 185.5t265.5 61q192 0 315 -89l79 99l64 -52l-82 -104q126 -142 126 -412zM245 543q0 -207 76 -319l545 694q-90 76 -246 76
q-375 0 -375 -451zM996 540q0 207 -77 319l-544 -695q92 -77 245 -77q376 0 376 453z" />
    <glyph glyph-name="ugrave" unicode="&#xf9;" horiz-adv-x="1265" 
d="M272.5 80q-104.5 98 -104.5 307v696h124v-690q0 -159 75.5 -229.5t212.5 -70.5q102 0 202 40.5t174 119.5v830h124v-1083h-105l-9 123h-9q-80 -69 -181.5 -105t-213.5 -36q-185 0 -289.5 98zM562 1258l-287 358h144l267 -358h-124z" />
    <glyph glyph-name="uacute" unicode="&#xfa;" horiz-adv-x="1265" 
d="M272.5 80q-104.5 98 -104.5 307v696h124v-690q0 -159 75.5 -229.5t212.5 -70.5q102 0 202 40.5t174 119.5v830h124v-1083h-105l-9 123h-9q-80 -69 -181.5 -105t-213.5 -36q-185 0 -289.5 98zM562 1258l267 358h144l-287 -358h-124z" />
    <glyph glyph-name="ucircumflex" unicode="&#xfb;" horiz-adv-x="1265" 
d="M272.5 80q-104.5 98 -104.5 307v696h124v-690q0 -159 75.5 -229.5t212.5 -70.5q102 0 202 40.5t174 119.5v830h124v-1083h-105l-9 123h-9q-80 -69 -181.5 -105t-213.5 -36q-185 0 -289.5 98zM945 1258h-114l-207 287l-207 -287h-114l263 358h116z" />
    <glyph glyph-name="udieresis" unicode="&#xfc;" horiz-adv-x="1265" 
d="M272.5 80q-104.5 98 -104.5 307v696h124v-690q0 -159 75.5 -229.5t212.5 -70.5q102 0 202 40.5t174 119.5v830h124v-1083h-105l-9 123h-9q-80 -69 -181.5 -105t-213.5 -36q-185 0 -289.5 98zM314 1361q-23 22 -23 60q0 39 23 62t63 23t63.5 -23t23.5 -62q0 -38 -23 -60
t-64 -22q-40 0 -63 22zM807 1361q-23 22 -23 60q0 39 23.5 62t63.5 23q39 0 62.5 -23t23.5 -62q0 -38 -23 -60t-63 -22q-41 0 -64 22z" />
    <glyph glyph-name="yacute" unicode="&#xfd;" horiz-adv-x="1173" 
d="M1019 1083h124l-671 -1523h-126l194 440h-32l-477 1083h134l424 -986zM526 1258l267 358h144l-287 -358h-124z" />
    <glyph glyph-name="thorn" unicode="&#xfe;" horiz-adv-x="1265" 
d="M185 1616h124v-660h8q65 69 156.5 106t200.5 37q138 0 243.5 -55.5t167 -176t61.5 -305.5q0 -289 -149.5 -435t-442.5 -146q-107 0 -245 22v-443h-124v2056zM904 199.5q115 113.5 115 351.5q0 233 -99.5 336.5t-273.5 103.5q-97 0 -185.5 -38t-151.5 -120v-717
q52 -14 116 -22t128 -8q236 0 351 113.5z" />
    <glyph glyph-name="ydieresis" unicode="&#xff;" horiz-adv-x="1173" 
d="M1019 1083h124l-671 -1523h-126l194 440h-32l-477 1083h134l424 -986zM278 1361q-23 22 -23 60q0 39 23 62t63 23t63.5 -23t23.5 -62q0 -38 -23 -60t-64 -22q-40 0 -63 22zM771 1361q-23 22 -23 60q0 39 23.5 62t63.5 23q39 0 62.5 -23t23.5 -62q0 -38 -23 -60t-63 -22
q-41 0 -64 22z" />
    <glyph glyph-name="Amacron" unicode="&#x100;" horiz-adv-x="1487" 
d="M1313 0l-206 501h-729l-206 -501h-129l615 1480h171l614 -1480h-130zM422 607h641l-321 779zM424 1708v86h640v-86h-640z" />
    <glyph glyph-name="amacron" unicode="&#x101;" horiz-adv-x="1140" 
d="M777 1063q96 -36 145.5 -120t49.5 -228v-715h-106l-10 128h-9q-62 -66 -160.5 -105.5t-207.5 -39.5q-112 0 -192 35.5t-122 101t-42 154.5q0 138 97.5 213t315.5 99l313 36v97q0 108 -36.5 168.5t-106.5 84.5t-182 24q-78 0 -164 -13t-167 -42v104q73 26 163.5 40
t177.5 14q147 0 243 -36zM688.5 118.5q89.5 37.5 160.5 111.5v302l-308 -36q-156 -18 -222.5 -69t-66.5 -144q0 -97 61.5 -149.5t187.5 -52.5q98 0 187.5 37.5zM237 1380v87h660v-87h-660z" />
    <glyph glyph-name="Abreve" unicode="&#x102;" horiz-adv-x="1487" 
d="M1313 0l-206 501h-729l-206 -501h-129l615 1480h171l614 -1480h-130zM422 607h641l-321 779zM498.5 1689.5q-86.5 67.5 -99.5 176.5h90q14 -78 73.5 -120.5t183.5 -42.5q123 0 181 42.5t72 120.5h90q-13 -110 -97.5 -177t-245.5 -67t-247.5 67.5z" />
    <glyph glyph-name="abreve" unicode="&#x103;" horiz-adv-x="1140" 
d="M777 1063q96 -36 145.5 -120t49.5 -228v-715h-106l-10 128h-9q-62 -66 -160.5 -105.5t-207.5 -39.5q-112 0 -192 35.5t-122 101t-42 154.5q0 138 97.5 213t315.5 99l313 36v97q0 108 -36.5 168.5t-106.5 84.5t-182 24q-78 0 -164 -13t-167 -42v104q73 26 163.5 40
t177.5 14q147 0 243 -36zM688.5 118.5q89.5 37.5 160.5 111.5v302l-308 -36q-156 -18 -222.5 -69t-66.5 -144q0 -97 61.5 -149.5t187.5 -52.5q98 0 187.5 37.5zM396 1309.5q-72 40.5 -110 112.5t-43 167h89q9 -113 66 -176.5t171 -63.5q214 0 233 240h89
q-7 -147 -89.5 -233.5t-232.5 -86.5q-101 0 -173 40.5z" />
    <glyph glyph-name="Aogonek" unicode="&#x104;" horiz-adv-x="1487" 
d="M1466 -331q41 9 100 30v-69q-93 -38 -190 -38q-114 0 -175 46.5t-61 130.5q0 69 39.5 127t131.5 110l-204 495h-729l-206 -501h-129l615 1480h171l614 -1480q-123 -55 -170.5 -107.5t-47.5 -115.5q0 -56 40.5 -86.5t117.5 -30.5q42 0 83 9zM422 607h641l-321 779z" />
    <glyph glyph-name="aogonek" unicode="&#x105;" horiz-adv-x="1140" 
d="M1076 -297v-71q-38 -19 -83 -29.5t-88 -10.5q-101 0 -158.5 47.5t-57.5 129.5q0 73 42.5 134t133.5 113l-9 112h-9q-62 -66 -160.5 -105.5t-207.5 -39.5q-112 0 -192 35.5t-122 101t-42 154.5q0 138 97.5 213t315.5 99l313 36v97q0 108 -36.5 168.5t-106.5 84.5t-182 24
q-78 0 -164 -13t-167 -42v104q73 26 163.5 40t177.5 14q147 0 243 -36t145.5 -120t49.5 -228v-715q-106 -54 -152 -106t-46 -118q0 -53 37 -84.5t101 -31.5q82 0 164 43zM688.5 118.5q89.5 37.5 160.5 111.5v302l-308 -36q-156 -18 -222.5 -69t-66.5 -144q0 -97 61.5 -149.5
t187.5 -52.5q98 0 187.5 37.5z" />
    <glyph glyph-name="Cacute" unicode="&#x106;" horiz-adv-x="1303" 
d="M322 162q-192 180 -192 576q0 383 195 571.5t548 188.5q102 0 191 -12.5t182 -38.5v-111q-184 52 -370 52q-300 0 -456.5 -155t-156.5 -491q0 -348 154.5 -499t444.5 -151q101 0 191 14.5t193 49.5v-112q-176 -62 -390 -62q-342 0 -534 180zM716 1612l219 278h143
l-241 -278h-121z" />
    <glyph glyph-name="cacute" unicode="&#x107;" horiz-adv-x="985" 
d="M251.5 120.5q-132.5 139.5 -132.5 420.5t141.5 419.5t414.5 138.5q140 0 257 -35v-108q-127 36 -251 36q-219 0 -326 -107.5t-107 -340.5q0 -236 100 -346t298 -110q123 0 286 53v-107q-142 -53 -298 -53q-250 0 -382.5 139.5zM522 1258l267 358h144l-287 -358h-124z" />
    <glyph glyph-name="Ccircumflex" unicode="&#x108;" horiz-adv-x="1303" 
d="M322 162q-192 180 -192 576q0 383 195 571.5t548 188.5q102 0 191 -12.5t182 -38.5v-111q-184 52 -370 52q-300 0 -456.5 -155t-156.5 -491q0 -348 154.5 -499t444.5 -151q101 0 191 14.5t193 49.5v-112q-176 -62 -390 -62q-342 0 -534 180zM1128 1612h-131l-220 215
l-220 -215h-131l291 278h120z" />
    <glyph glyph-name="ccircumflex" unicode="&#x109;" horiz-adv-x="985" 
d="M251.5 120.5q-132.5 139.5 -132.5 420.5t141.5 419.5t414.5 138.5q140 0 257 -35v-108q-127 36 -251 36q-219 0 -326 -107.5t-107 -340.5q0 -236 100 -346t298 -110q123 0 286 53v-107q-142 -53 -298 -53q-250 0 -382.5 139.5zM905 1258h-114l-207 287l-207 -287h-114
l263 358h116z" />
    <glyph glyph-name="Cdotaccent" unicode="&#x10a;" horiz-adv-x="1303" 
d="M322 162q-192 180 -192 576q0 383 195 571.5t548 188.5q102 0 191 -12.5t182 -38.5v-111q-184 52 -370 52q-300 0 -456.5 -155t-156.5 -491q0 -348 154.5 -499t444.5 -151q101 0 191 14.5t193 49.5v-112q-176 -62 -390 -62q-342 0 -534 180zM710 1694.5
q-24 21.5 -24 57.5t24 58t67 22t67 -22t24 -58t-24 -57.5t-67 -21.5t-67 21.5z" />
    <glyph glyph-name="cdotaccent" unicode="&#x10b;" horiz-adv-x="985" 
d="M251.5 120.5q-132.5 139.5 -132.5 420.5t141.5 419.5t414.5 138.5q140 0 257 -35v-108q-127 36 -251 36q-219 0 -326 -107.5t-107 -340.5q0 -236 100 -346t298 -110q123 0 286 53v-107q-142 -53 -298 -53q-250 0 -382.5 139.5zM516.5 1360q-24.5 22 -24.5 61
q0 40 24.5 62.5t67.5 22.5t67.5 -22.5t24.5 -62.5q0 -39 -24.5 -61t-67.5 -22t-67.5 22z" />
    <glyph glyph-name="Ccaron" unicode="&#x10c;" horiz-adv-x="1303" 
d="M322 162q-192 180 -192 576q0 383 195 571.5t548 188.5q102 0 191 -12.5t182 -38.5v-111q-184 52 -370 52q-300 0 -456.5 -155t-156.5 -491q0 -348 154.5 -499t444.5 -151q101 0 191 14.5t193 49.5v-112q-176 -62 -390 -62q-342 0 -534 180zM997 1890h131l-291 -278h-120
l-291 278h131l220 -216z" />
    <glyph glyph-name="ccaron" unicode="&#x10d;" horiz-adv-x="985" 
d="M251.5 120.5q-132.5 139.5 -132.5 420.5t141.5 419.5t414.5 138.5q140 0 257 -35v-108q-127 36 -251 36q-219 0 -326 -107.5t-107 -340.5q0 -236 100 -346t298 -110q123 0 286 53v-107q-142 -53 -298 -53q-250 0 -382.5 139.5zM798 1616h114l-270 -358h-116l-270 358h114
l214 -290z" />
    <glyph glyph-name="Dcaron" unicode="&#x10e;" horiz-adv-x="1568" 
d="M411 -5q-93 6 -207 21v1435q100 21 213.5 32t216.5 11q397 0 600.5 -189t203.5 -565q0 -379 -208 -565t-624 -186q-102 0 -195 6zM1139 255q169 157 169 486q0 327 -169 485.5t-508 158.5q-137 0 -301 -26v-1241q123 -20 296 -20q344 0 513 157zM936 1890h131l-291 -278
h-120l-291 278h131l220 -216z" />
    <glyph glyph-name="dcaron" unicode="&#x10f;" horiz-adv-x="1265" 
d="M349 39.5q-108 57.5 -169 177.5t-61 302q0 289 150 435t442 146q118 0 245 -24v540h124v-1616h-106l-8 128h-10q-64 -69 -156 -107.5t-200 -38.5q-143 0 -251 57.5zM806.5 128.5q86.5 38.5 149.5 121.5v715q-52 14 -116 22t-128 8q-236 0 -351 -113.5t-115 -351.5
q0 -440 376 -440q98 0 184.5 38.5zM1215 1616h97q0 -111 -10.5 -225t-33.5 -211h-74q21 166 21 436z" />
    <glyph glyph-name="Dcroat" unicode="&#x110;" horiz-adv-x="1568" 
d="M1234.5 1305q203.5 -189 203.5 -565q0 -379 -208 -565t-624 -186q-102 0 -195 6t-207 21v700h-196v91h196v644q100 21 213.5 32t216.5 11q397 0 600.5 -189zM1139 255q169 157 169 486q0 327 -169 485.5t-508 158.5q-137 0 -301 -26v-552h406v-91h-406v-598
q123 -20 296 -20q344 0 513 157z" />
    <glyph glyph-name="dcroat" unicode="&#x111;" horiz-adv-x="1265" 
d="M1251 1312h-171v-1312h-106l-8 128h-10q-64 -69 -156 -107.5t-200 -38.5q-143 0 -251 57.5t-169 177.5t-61 302q0 289 150 435t442 146q118 0 245 -24v236h-427v88h427v216h124v-216h171v-88zM956 965q-52 14 -116 22t-128 8q-236 0 -351 -113.5t-115 -351.5
q0 -440 376 -440q98 0 184.5 38.5t149.5 121.5v715z" />
    <glyph glyph-name="Emacron" unicode="&#x112;" horiz-adv-x="1314" 
d="M329 106h880v-106h-1005v1480h995v-106h-870v-561h770v-106h-770v-601zM403 1708v86h640v-86h-640z" />
    <glyph glyph-name="emacron" unicode="&#x113;" horiz-adv-x="1149" 
d="M1050 498h-805q7 -215 117 -314.5t323 -99.5q135 0 310 51v-103q-173 -51 -324 -51q-270 0 -411 138t-141 422q0 182 56.5 307t162.5 188t254 63q221 0 339.5 -143t118.5 -417v-41zM245 589h685q-5 211 -90.5 313t-248.5 102q-336 0 -346 -415zM266 1380v87h660v-87h-660
z" />
    <glyph glyph-name="Ebreve" unicode="&#x114;" horiz-adv-x="1314" 
d="M329 106h880v-106h-1005v1480h995v-106h-870v-561h770v-106h-770v-601zM477.5 1689.5q-86.5 67.5 -99.5 176.5h90q14 -78 73.5 -120.5t183.5 -42.5q123 0 181 42.5t72 120.5h90q-13 -110 -97.5 -177t-245.5 -67t-247.5 67.5z" />
    <glyph glyph-name="ebreve" unicode="&#x115;" horiz-adv-x="1149" 
d="M1050 498h-805q7 -215 117 -314.5t323 -99.5q135 0 310 51v-103q-173 -51 -324 -51q-270 0 -411 138t-141 422q0 182 56.5 307t162.5 188t254 63q221 0 339.5 -143t118.5 -417v-41zM245 589h685q-5 211 -90.5 313t-248.5 102q-336 0 -346 -415zM425 1309.5
q-72 40.5 -110 112.5t-43 167h89q9 -113 66 -176.5t171 -63.5q214 0 233 240h89q-7 -147 -89.5 -233.5t-232.5 -86.5q-101 0 -173 40.5z" />
    <glyph glyph-name="Edotaccent" unicode="&#x116;" horiz-adv-x="1314" 
d="M329 106h880v-106h-1005v1480h995v-106h-870v-561h770v-106h-770v-601zM656 1694.5q-24 21.5 -24 57.5t24 58t67 22t67 -22t24 -58t-24 -57.5t-67 -21.5t-67 21.5z" />
    <glyph glyph-name="edotaccent" unicode="&#x117;" horiz-adv-x="1149" 
d="M1050 498h-805q7 -215 117 -314.5t323 -99.5q135 0 310 51v-103q-173 -51 -324 -51q-270 0 -411 138t-141 422q0 182 56.5 307t162.5 188t254 63q221 0 339.5 -143t118.5 -417v-41zM245 589h685q-5 211 -90.5 313t-248.5 102q-336 0 -346 -415zM528.5 1360
q-24.5 22 -24.5 61q0 40 24.5 62.5t67.5 22.5t67.5 -22.5t24.5 -62.5q0 -39 -24.5 -61t-67.5 -22t-67.5 22z" />
    <glyph glyph-name="Eogonek" unicode="&#x118;" horiz-adv-x="1314" 
d="M1150 -331q41 9 100 30v-69q-93 -38 -190 -38q-114 0 -175 46.5t-61 130.5q0 67 37 124t123 107h-780v1480h995v-106h-870v-561h770v-106h-770v-601h880v-106h-82q-123 -55 -170.5 -107.5t-47.5 -115.5q0 -56 40.5 -86.5t117.5 -30.5q42 0 83 9z" />
    <glyph glyph-name="eogonek" unicode="&#x119;" horiz-adv-x="1149" 
d="M1050 498h-805q7 -215 117 -314.5t323 -99.5q135 0 310 51v-103q-303 -90 -303 -254q0 -55 37 -86.5t101 -31.5q82 0 165 43v-71q-38 -19 -83.5 -29.5t-87.5 -10.5q-101 0 -158.5 47.5t-57.5 129.5q0 64 33.5 119.5t95.5 94.5q-44 -2 -66 -2q-270 0 -411 138t-141 422
q0 182 56.5 307t162.5 188t254 63q221 0 339.5 -143t118.5 -417v-41zM245 588h685q-5 211 -90.5 313t-248.5 102q-334 0 -346 -415z" />
    <glyph glyph-name="Ecaron" unicode="&#x11a;" horiz-adv-x="1314" 
d="M329 106h880v-106h-1005v1480h995v-106h-870v-561h770v-106h-770v-601zM943 1890h131l-291 -278h-120l-291 278h131l220 -216z" />
    <glyph glyph-name="ecaron" unicode="&#x11b;" horiz-adv-x="1149" 
d="M1050 498h-805q7 -215 117 -314.5t323 -99.5q135 0 310 51v-103q-173 -51 -324 -51q-270 0 -411 138t-141 422q0 182 56.5 307t162.5 188t254 63q221 0 339.5 -143t118.5 -417v-41zM245 589h685q-5 211 -90.5 313t-248.5 102q-336 0 -346 -415zM810 1616h114l-270 -358
h-116l-270 358h114l214 -290z" />
    <glyph glyph-name="Gcircumflex" unicode="&#x11c;" horiz-adv-x="1522" 
d="M1329 720v-700q-109 -17 -195.5 -24t-186.5 -7q-405 0 -611 189t-206 561q0 256 97.5 425.5t271.5 251.5t406 82q95 0 186.5 -12.5t194.5 -38.5v-111q-106 29 -195.5 40.5t-176.5 11.5q-304 0 -478 -157t-174 -487q0 -646 681 -646q151 0 265 18v604h121zM1171 1612h-131
l-220 215l-220 -215h-131l291 278h120z" />
    <glyph glyph-name="gcircumflex" unicode="&#x11d;" horiz-adv-x="1265" 
d="M369.5 -445q-97.5 15 -178.5 42v107q189 -59 358 -59q143 0 232 37.5t132 121.5t43 225v96h-8q-66 -66 -157.5 -103t-202.5 -37q-137 0 -242 56t-166 175.5t-61 302.5q0 288 149 434t442 146q194 0 370 -51v-1001q0 -179 -58 -291t-174.5 -164t-295.5 -52
q-85 0 -182.5 15zM803 130q89 36 153 111v722q-115 31 -259 31q-226 0 -338.5 -113.5t-112.5 -349.5q0 -231 99 -334t271 -103q98 0 187 36zM972 1258h-114l-207 287l-207 -287h-114l263 358h116z" />
    <glyph glyph-name="Gbreve" unicode="&#x11e;" horiz-adv-x="1522" 
d="M1329 720v-700q-109 -17 -195.5 -24t-186.5 -7q-405 0 -611 189t-206 561q0 256 97.5 425.5t271.5 251.5t406 82q95 0 186.5 -12.5t194.5 -38.5v-111q-106 29 -195.5 40.5t-176.5 11.5q-304 0 -478 -157t-174 -487q0 -646 681 -646q151 0 265 18v604h121zM574.5 1689.5
q-86.5 67.5 -99.5 176.5h90q14 -78 73.5 -120.5t183.5 -42.5q123 0 181 42.5t72 120.5h90q-13 -110 -97.5 -177t-245.5 -67t-247.5 67.5z" />
    <glyph glyph-name="gbreve" unicode="&#x11f;" horiz-adv-x="1265" 
d="M369.5 -445q-97.5 15 -178.5 42v107q189 -59 358 -59q143 0 232 37.5t132 121.5t43 225v96h-8q-66 -66 -157.5 -103t-202.5 -37q-137 0 -242 56t-166 175.5t-61 302.5q0 288 149 434t442 146q194 0 370 -51v-1001q0 -179 -58 -291t-174.5 -164t-295.5 -52
q-85 0 -182.5 15zM803 130q89 36 153 111v722q-115 31 -259 31q-226 0 -338.5 -113.5t-112.5 -349.5q0 -231 99 -334t271 -103q98 0 187 36zM480 1309.5q-72 40.5 -110 112.5t-43 167h89q9 -113 66 -176.5t171 -63.5q214 0 233 240h89q-7 -147 -89.5 -233.5t-232.5 -86.5
q-101 0 -173 40.5z" />
    <glyph glyph-name="Gdotaccent" unicode="&#x120;" horiz-adv-x="1522" 
d="M1329 720v-700q-109 -17 -195.5 -24t-186.5 -7q-405 0 -611 189t-206 561q0 256 97.5 425.5t271.5 251.5t406 82q95 0 186.5 -12.5t194.5 -38.5v-111q-106 29 -195.5 40.5t-176.5 11.5q-304 0 -478 -157t-174 -487q0 -646 681 -646q151 0 265 18v604h121zM753 1694.5
q-24 21.5 -24 57.5t24 58t67 22t67 -22t24 -58t-24 -57.5t-67 -21.5t-67 21.5z" />
    <glyph glyph-name="gdotaccent" unicode="&#x121;" horiz-adv-x="1265" 
d="M369.5 -445q-97.5 15 -178.5 42v107q189 -59 358 -59q143 0 232 37.5t132 121.5t43 225v96h-8q-66 -66 -157.5 -103t-202.5 -37q-137 0 -242 56t-166 175.5t-61 302.5q0 288 149 434t442 146q194 0 370 -51v-1001q0 -179 -58 -291t-174.5 -164t-295.5 -52
q-85 0 -182.5 15zM803 130q89 36 153 111v722q-115 31 -259 31q-226 0 -338.5 -113.5t-112.5 -349.5q0 -231 99 -334t271 -103q98 0 187 36zM583.5 1360q-24.5 22 -24.5 61q0 40 24.5 62.5t67.5 22.5t67.5 -22.5t24.5 -62.5q0 -39 -24.5 -61t-67.5 -22t-67.5 22z" />
    <glyph glyph-name="Gcommaaccent" unicode="&#x122;" horiz-adv-x="1522" 
d="M1329 720v-700q-109 -17 -195.5 -24t-186.5 -7q-405 0 -611 189t-206 561q0 256 97.5 425.5t271.5 251.5t406 82q95 0 186.5 -12.5t194.5 -38.5v-111q-106 29 -195.5 40.5t-176.5 11.5q-304 0 -478 -157t-174 -487q0 -646 681 -646q151 0 265 18v604h121zM885 -198
q23 -25 23 -74q0 -41 -13 -91t-38 -95h-77q33 81 37 139q-40 1 -62.5 21t-22.5 53t22.5 52.5t62.5 19.5q45 0 68 -25z" />
    <glyph glyph-name="gcommaaccent" unicode="&#x123;" horiz-adv-x="1265" 
d="M369.5 -445q-97.5 15 -178.5 42v107q189 -59 358 -59q143 0 232 37.5t132 121.5t43 225v96h-8q-66 -66 -157.5 -103t-202.5 -37q-137 0 -242 56t-166 175.5t-61 302.5q0 288 149 434t442 146q194 0 370 -51v-1001q0 -179 -58 -291t-174.5 -164t-295.5 -52
q-85 0 -182.5 15zM803 130q89 36 153 111v722q-115 31 -259 31q-226 0 -338.5 -113.5t-112.5 -349.5q0 -231 99 -334t271 -103q98 0 187 36zM717 1464.5q22 -19.5 22 -52.5q0 -34 -22 -53.5t-63 -19.5q-45 0 -68 25t-23 74q0 42 13 92t38 95h77q-33 -82 -37 -140
q41 -1 63 -20.5z" />
    <glyph glyph-name="Hcircumflex" unicode="&#x124;" horiz-adv-x="1607" 
d="M204 0v1480h126v-663h947v663h126v-1480h-126v703h-947v-703h-126zM1155 1612h-131l-220 215l-220 -215h-131l291 278h120z" />
    <glyph glyph-name="hcircumflex" unicode="&#x125;" horiz-adv-x="1275" 
d="M185 1616h124v-658h8q79 69 181 105t215 36q185 0 289.5 -98t104.5 -307v-694h-124v688q0 159 -76.5 228.5t-217.5 69.5q-106 0 -206 -39.5t-174 -118.5v-828h-124v1616zM998 1708h-131l-220 215l-220 -215h-131l291 278h120z" />
    <glyph glyph-name="Hbar" unicode="&#x126;" horiz-adv-x="1607" 
d="M1599 1198v-92h-196v-1106h-126v703h-947v-703h-126v1106h-196v92h196v282h126v-282h947v282h126v-282h196zM1277 817v289h-947v-289h947z" />
    <glyph glyph-name="hbar" unicode="&#x127;" horiz-adv-x="1275" 
d="M1002.5 1001q104.5 -98 104.5 -307v-694h-124v688q0 159 -76.5 228.5t-217.5 69.5q-106 0 -206 -39.5t-174 -118.5v-828h-124v1311h-170v88h170v217h124v-217h427v-88h-427v-353h8q79 69 181 105t215 36q185 0 289.5 -98z" />
    <glyph glyph-name="Itilde" unicode="&#x128;" horiz-adv-x="533" 
d="M204 0v1480h126v-1480h-126zM348 1692q-40 10 -97 29q-50 18 -83 26.5t-68 8.5q-58 0 -101 -16.5t-83 -52.5v91q32 32 77.5 47t108.5 15q44 0 84 -10t97 -29q50 -18 83 -26.5t68 -8.5q58 0 101 16.5t83 52.5v-91q-32 -32 -77.5 -47t-108.5 -15q-44 0 -84 10z" />
    <glyph glyph-name="itilde" unicode="&#x129;" horiz-adv-x="493" 
d="M185 0v1083h124v-1083h-124zM321.5 1370.5q-38.5 10.5 -90.5 31.5q-50 19 -80 27.5t-60 8.5q-51 0 -93 -17.5t-81 -55.5v95q65 64 176 64q42 0 80 -10.5t90 -31.5q50 -19 80 -27.5t60 -8.5q51 0 93 17.5t81 55.5v-95q-65 -64 -176 -64q-41 0 -79.5 10.5z" />
    <glyph glyph-name="Imacron" unicode="&#x12a;" horiz-adv-x="533" 
d="M204 0v1480h126v-1480h-126zM-53 1708v86h640v-86h-640z" />
    <glyph glyph-name="imacron" unicode="&#x12b;" horiz-adv-x="493" 
d="M185 0v1083h124v-1083h-124zM-83 1380v87h660v-87h-660z" />
    <glyph glyph-name="Ibreve" unicode="&#x12c;" horiz-adv-x="533" 
d="M204 0v1480h126v-1480h-126zM21.5 1689.5q-86.5 67.5 -99.5 176.5h90q14 -78 73.5 -120.5t183.5 -42.5q123 0 181 42.5t72 120.5h90q-13 -110 -97.5 -177t-245.5 -67t-247.5 67.5z" />
    <glyph glyph-name="ibreve" unicode="&#x12d;" horiz-adv-x="493" 
d="M185 0v1083h124v-1083h-124zM76 1309.5q-72 40.5 -110 112.5t-43 167h89q9 -113 66 -176.5t171 -63.5q214 0 233 240h89q-7 -147 -89.5 -233.5t-232.5 -86.5q-101 0 -173 40.5z" />
    <glyph glyph-name="Iogonek" unicode="&#x12e;" horiz-adv-x="533" 
d="M353 -331q41 9 100 30v-69q-93 -38 -190 -38q-114 0 -175 46.5t-61 130.5q0 70 41 129.5t136 111.5v1470h126v-1480q-123 -55 -170.5 -107.5t-47.5 -115.5q0 -56 40.5 -86.5t117.5 -30.5q42 0 83 9z" />
    <glyph glyph-name="iogonek" unicode="&#x12f;" horiz-adv-x="493" 
d="M179.5 1360q-24.5 22 -24.5 61q0 40 24.5 62.5t67.5 22.5t67.5 -22.5t24.5 -62.5q0 -39 -24.5 -61t-67.5 -22t-67.5 22zM413 -297v-71q-38 -19 -83 -29.5t-88 -10.5q-101 0 -158.5 47.5t-57.5 129.5q0 70 38 128.5t121 108.5v1077h124v-1083q-106 -54 -152 -106t-46 -118
q0 -53 37 -84.5t101 -31.5q82 0 164 43z" />
    <glyph glyph-name="Idotaccent" unicode="&#x130;" horiz-adv-x="533" 
d="M204 0v1480h126v-1480h-126zM200 1694.5q-24 21.5 -24 57.5t24 58t67 22t67 -22t24 -58t-24 -57.5t-67 -21.5t-67 21.5z" />
    <glyph glyph-name="dotlessi" unicode="&#x131;" horiz-adv-x="493" 
d="M185 0v1083h124v-1083h-124z" />
    <glyph glyph-name="Jcircumflex" unicode="&#x134;" horiz-adv-x="533" 
d="M2 -284q105 127 153.5 264.5t48.5 307.5v1192h126v-1220q-9 -179 -64.5 -319.5t-181.5 -283.5zM618 1612h-131l-220 215l-220 -215h-131l291 278h120z" />
    <glyph glyph-name="jcircumflex" unicode="&#x135;" horiz-adv-x="493" 
d="M-18 -404q106 127 154.5 264.5t48.5 307.5v915h124v-909q0 -187 -58.5 -338.5t-186.5 -297.5zM566 1268h-114l-207 287l-207 -287h-114l263 358h116z" />
    <glyph glyph-name="Kcommaaccent" unicode="&#x136;" horiz-adv-x="1357" 
d="M1200 0l-583 703h-287v-703h-126v1480h126v-663h291l541 663h144l-587 -718l630 -762h-149zM761 -198q23 -25 23 -74q0 -41 -13 -91t-38 -95h-77q33 81 37 139q-40 1 -62.5 21t-22.5 53t22.5 52.5t62.5 19.5q45 0 68 -25z" />
    <glyph glyph-name="kcommaaccent" unicode="&#x137;" horiz-adv-x="1135" 
d="M1000 0l-451 500h-240v-500h-124v1616h124v-1008h239l421 475h144l-462 -527l494 -556h-145zM665 -198q23 -25 23 -74q0 -41 -13 -91t-38 -95h-77q33 81 37 139q-40 1 -62.5 21t-22.5 53t22.5 52.5t62.5 19.5q45 0 68 -25z" />
    <glyph glyph-name="kgreenlandic" unicode="&#x138;" horiz-adv-x="1135" 
d="M1000 0l-451 500h-240v-500h-124v1083h124v-475h239l421 475h144l-462 -527l494 -556h-145z" />
    <glyph glyph-name="Lacute" unicode="&#x139;" horiz-adv-x="1192" 
d="M204 0v1480h126v-1371h841v-109h-967zM206 1612l219 278h143l-241 -278h-121z" />
    <glyph glyph-name="lacute" unicode="&#x13a;" horiz-adv-x="493" 
d="M185 0v1616h124v-1616h-124zM186 1708l219 278h143l-241 -278h-121z" />
    <glyph glyph-name="Lcommaaccent" unicode="&#x13b;" horiz-adv-x="1192" 
d="M204 0v1480h126v-1371h841v-109h-967zM753 -198q23 -25 23 -74q0 -41 -13 -91t-38 -95h-77q33 81 37 139q-40 1 -62.5 21t-22.5 53t22.5 52.5t62.5 19.5q45 0 68 -25z" />
    <glyph glyph-name="lcommaaccent" unicode="&#x13c;" horiz-adv-x="493" 
d="M185 0v1616h124v-1616h-124zM311 -198q23 -25 23 -74q0 -41 -13 -91t-38 -95h-77q33 81 37 139q-40 1 -62.5 21t-22.5 53t22.5 52.5t62.5 19.5q45 0 68 -25z" />
    <glyph glyph-name="Lcaron" unicode="&#x13d;" horiz-adv-x="1192" 
d="M204 0v1480h126v-1371h841v-109h-967zM773 1353q4 115 4 263h97q0 -282 -44 -476h-73q12 98 16 213z" />
    <glyph glyph-name="lcaron" unicode="&#x13e;" horiz-adv-x="493" 
d="M185 0v1616h124v-1616h-124zM443 1616h97q0 -111 -10.5 -225t-33.5 -211h-74q21 166 21 436z" />
    <glyph glyph-name="Ldot" unicode="&#x13f;" horiz-adv-x="1192" 
d="M204 0v1480h126v-1371h841v-109h-967zM778.5 734q-24.5 22 -24.5 61t24.5 62t67.5 23t67.5 -23t24.5 -62t-24.5 -61t-67.5 -22t-67.5 22z" />
    <glyph glyph-name="ldot" unicode="&#x140;" horiz-adv-x="557" 
d="M185 0v1616h124v-1616h-124zM443.5 731q-24.5 22 -24.5 61t24.5 62t67.5 23t67.5 -23t24.5 -62t-24.5 -61t-67.5 -22t-67.5 22z" />
    <glyph glyph-name="Lslash" unicode="&#x141;" horiz-adv-x="1192" 
d="M330 109h841v-109h-967v678l-158 -113l-50 77l208 149v689h126v-599l313 224l50 -76l-363 -260v-660z" />
    <glyph glyph-name="lslash" unicode="&#x142;" horiz-adv-x="505" 
d="M498 832l-183 -129v-703h-124v615l-133 -94l-49 75l182 129v891h124v-804l134 95z" />
    <glyph glyph-name="Nacute" unicode="&#x143;" horiz-adv-x="1634" 
d="M1310 1480h120v-1480h-131l-975 1303v-1303h-120v1480h131l975 -1303v1303zM757 1612l219 278h143l-241 -278h-121z" />
    <glyph glyph-name="nacute" unicode="&#x144;" horiz-adv-x="1275" 
d="M185 1083h105l9 -129h9q81 71 184.5 108t216.5 37q188 0 293 -99.5t105 -312.5v-687h-124v685q0 160 -75.5 231.5t-218.5 71.5q-101 0 -203 -38.5t-177 -119.5v-830h-124v1083zM585 1258l267 358h144l-287 -358h-124z" />
    <glyph glyph-name="Ncommaaccent" unicode="&#x145;" horiz-adv-x="1634" 
d="M1310 1480h120v-1480h-131l-975 1303v-1303h-120v1480h131l975 -1303v1303zM883 -198q23 -25 23 -74q0 -41 -13 -91t-38 -95h-77q33 81 37 139q-40 1 -62.5 21t-22.5 53t22.5 52.5t62.5 19.5q45 0 68 -25z" />
    <glyph glyph-name="ncommaaccent" unicode="&#x146;" horiz-adv-x="1275" 
d="M185 1083h105l9 -129h9q81 71 184.5 108t216.5 37q188 0 293 -99.5t105 -312.5v-687h-124v685q0 160 -75.5 231.5t-218.5 71.5q-101 0 -203 -38.5t-177 -119.5v-830h-124v1083zM712 -198q23 -25 23 -74q0 -41 -13 -91t-38 -95h-77q33 81 37 139q-40 1 -62.5 21t-22.5 53
t22.5 52.5t62.5 19.5q45 0 68 -25z" />
    <glyph glyph-name="Ncaron" unicode="&#x147;" horiz-adv-x="1634" 
d="M1310 1480h120v-1480h-131l-975 1303v-1303h-120v1480h131l975 -1303v1303zM1038 1890h131l-291 -278h-120l-291 278h131l220 -216z" />
    <glyph glyph-name="ncaron" unicode="&#x148;" horiz-adv-x="1275" 
d="M185 1083h105l9 -129h9q81 71 184.5 108t216.5 37q188 0 293 -99.5t105 -312.5v-687h-124v685q0 160 -75.5 231.5t-218.5 71.5q-101 0 -203 -38.5t-177 -119.5v-830h-124v1083zM861 1616h114l-270 -358h-116l-270 358h114l214 -290z" />
    <glyph glyph-name="napostrophe" unicode="&#x149;" horiz-adv-x="1275" 
d="M185 1083h105l9 -129h9q81 71 184.5 108t216.5 37q188 0 293 -99.5t105 -312.5v-687h-124v685q0 160 -75.5 231.5t-218.5 71.5q-101 0 -203 -38.5t-177 -119.5v-830h-124v1083zM168.5 1599.5q23.5 -25.5 23.5 -73.5q0 -41 -13.5 -91.5t-38.5 -95.5h-77q32 75 37 139
q-40 1 -62.5 21t-22.5 53t22.5 53t62.5 20q45 0 68.5 -25.5z" />
    <glyph glyph-name="Eng" unicode="&#x14a;" horiz-adv-x="1634" 
d="M1430 1480v-1301q0 -191 -58 -343t-187 -298l-82 58q79 96 127 195.5t67 212.5l-973 1296v-1300h-120v1480h131l975 -1300v1300h120z" />
    <glyph glyph-name="eng" unicode="&#x14b;" horiz-adv-x="1275" 
d="M780 -404q106 127 154.5 264.5t48.5 307.5v520q0 160 -76.5 230t-217.5 70q-105 0 -205.5 -40t-174.5 -120v-828h-124v1083h105l9 -129h9q79 71 182.5 108t219.5 37q187 0 292 -98t105 -307v-555q-9 -179 -64.5 -319t-180.5 -282z" />
    <glyph glyph-name="Omacron" unicode="&#x14c;" horiz-adv-x="1617" 
d="M450 64q-152 82 -236 251.5t-84 424.5t85 424.5t237.5 251.5t356.5 82q206 0 358 -82t236 -251.5t84 -424.5t-85 -424.5t-237 -251.5t-356 -82q-207 0 -359 82zM1211.5 248.5q145.5 156.5 145.5 486.5q0 337 -145.5 495t-402.5 158t-402.5 -156t-145.5 -487
q0 -338 145 -495.5t403 -157.5q257 0 402.5 156.5zM489 1708v86h640v-86h-640z" />
    <glyph glyph-name="omacron" unicode="&#x14d;" horiz-adv-x="1241" 
d="M252.5 120q-133.5 139 -133.5 421q0 187 61.5 311.5t174 185.5t265.5 61q237 0 369.5 -137.5t132.5 -420.5q0 -186 -62.5 -311.5t-175 -187t-264.5 -61.5q-234 0 -367.5 139zM995 540q0 237 -97.5 345t-277.5 108q-374 0 -374 -450q0 -456 374 -456q375 0 375 453z
M290 1380v87h660v-87h-660z" />
    <glyph glyph-name="Obreve" unicode="&#x14e;" horiz-adv-x="1617" 
d="M450 64q-152 82 -236 251.5t-84 424.5t85 424.5t237.5 251.5t356.5 82q206 0 358 -82t236 -251.5t84 -424.5t-85 -424.5t-237 -251.5t-356 -82q-207 0 -359 82zM1211.5 248.5q145.5 156.5 145.5 486.5q0 337 -145.5 495t-402.5 158t-402.5 -156t-145.5 -487
q0 -338 145 -495.5t403 -157.5q257 0 402.5 156.5zM563.5 1689.5q-86.5 67.5 -99.5 176.5h90q14 -78 73.5 -120.5t183.5 -42.5q123 0 181 42.5t72 120.5h90q-13 -110 -97.5 -177t-245.5 -67t-247.5 67.5z" />
    <glyph glyph-name="obreve" unicode="&#x14f;" horiz-adv-x="1241" 
d="M252.5 120q-133.5 139 -133.5 421q0 187 61.5 311.5t174 185.5t265.5 61q237 0 369.5 -137.5t132.5 -420.5q0 -186 -62.5 -311.5t-175 -187t-264.5 -61.5q-234 0 -367.5 139zM995 540q0 237 -97.5 345t-277.5 108q-374 0 -374 -450q0 -456 374 -456q375 0 375 453z
M449 1309.5q-72 40.5 -110 112.5t-43 167h89q9 -113 66 -176.5t171 -63.5q214 0 233 240h89q-7 -147 -89.5 -233.5t-232.5 -86.5q-101 0 -173 40.5z" />
    <glyph glyph-name="Ohungarumlaut" unicode="&#x150;" horiz-adv-x="1617" 
d="M450 64q-152 82 -236 251.5t-84 424.5t85 424.5t237.5 251.5t356.5 82q206 0 358 -82t236 -251.5t84 -424.5t-85 -424.5t-237 -251.5t-356 -82q-207 0 -359 82zM1211.5 248.5q145.5 156.5 145.5 486.5q0 337 -145.5 495t-402.5 158t-402.5 -156t-145.5 -487
q0 -338 145 -495.5t403 -157.5q257 0 402.5 156.5zM579 1612l161 278h111l-168 -278h-104zM935 1612l160 278h111l-167 -278h-104z" />
    <glyph glyph-name="ohungarumlaut" unicode="&#x151;" horiz-adv-x="1241" 
d="M252.5 120q-133.5 139 -133.5 421q0 187 61.5 311.5t174 185.5t265.5 61q237 0 369.5 -137.5t132.5 -420.5q0 -186 -62.5 -311.5t-175 -187t-264.5 -61.5q-234 0 -367.5 139zM995 540q0 237 -97.5 345t-277.5 108q-374 0 -374 -450q0 -456 374 -456q375 0 375 453z
M394 1258l179 358h109l-188 -358h-100zM746 1258l179 358h109l-188 -358h-100z" />
    <glyph glyph-name="OE" unicode="&#x152;" horiz-adv-x="2272" 
d="M2168 106v-106h-851q-35 0 -92 -2t-87 -3q-136 -6 -195 -6q-405 0 -609 186t-204 565q0 376 204 565t599 189q72 0 184 -7q20 -1 79 -4t104 -3h858v-106h-831v-561h730v-106h-730v-601h841zM1202 1370q-136 15 -280 15q-329 0 -495.5 -159t-166.5 -487q0 -326 166 -483
t496 -157q193 0 280 11v1260z" />
    <glyph glyph-name="oe" unicode="&#x153;" horiz-adv-x="2010" 
d="M1911 498h-797q7 -215 116.5 -314.5t318.5 -99.5q136 0 307 51v-103q-166 -51 -321 -51q-373 0 -488 272q-54 -135 -165 -203.5t-268 -68.5q-150 0 -261 60.5t-172.5 185.5t-61.5 314q0 186 61.5 311t172.5 186t261 61q161 0 272 -67t164 -203q51 133 155.5 201.5
t254.5 68.5q216 0 333.5 -142.5t117.5 -414.5v-44zM1114 589h677q-10 415 -335 415q-332 0 -342 -415zM891 196q97 109 97 344q0 453 -371 453t-371 -450q0 -456 371 -456q177 0 274 109z" />
    <glyph glyph-name="Racute" unicode="&#x154;" horiz-adv-x="1434" 
d="M1204 0l-522 630q-54 -2 -84 -2q-70 0 -128.5 3t-141.5 9v-640h-124v1451q102 21 204.5 32.5t224.5 11.5q211 0 345.5 -44.5t200.5 -139t66 -246.5q0 -356 -428 -422l535 -643h-148zM464.5 734q54.5 -3 138.5 -3q184 0 299 36.5t168.5 109.5t53.5 185q0 123 -50 195
t-156 103.5t-281 31.5q-93 0 -161.5 -6.5t-147.5 -20.5v-621q82 -7 136.5 -10zM634 1612l219 278h143l-241 -278h-121z" />
    <glyph glyph-name="racute" unicode="&#x155;" horiz-adv-x="805" 
d="M185 1083h104l11 -145h9q65 71 165.5 112.5t203.5 41.5q61 0 112 -9v-116q-49 8 -116 8q-96 0 -197.5 -40t-167.5 -120v-815h-124v1083zM425 1258l267 358h144l-287 -358h-124z" />
    <glyph glyph-name="Rcommaaccent" unicode="&#x156;" horiz-adv-x="1434" 
d="M1204 0l-522 630q-54 -2 -84 -2q-70 0 -128.5 3t-141.5 9v-640h-124v1451q102 21 204.5 32.5t224.5 11.5q211 0 345.5 -44.5t200.5 -139t66 -246.5q0 -356 -428 -422l535 -643h-148zM464.5 734q54.5 -3 138.5 -3q184 0 299 36.5t168.5 109.5t53.5 185q0 123 -50 195
t-156 103.5t-281 31.5q-93 0 -161.5 -6.5t-147.5 -20.5v-621q82 -7 136.5 -10zM802 -198q23 -25 23 -74q0 -41 -13 -91t-38 -95h-77q33 81 37 139q-40 1 -62.5 21t-22.5 53t22.5 52.5t62.5 19.5q45 0 68 -25z" />
    <glyph glyph-name="rcommaaccent" unicode="&#x157;" horiz-adv-x="805" 
d="M185 1083h104l11 -145h9q65 71 165.5 112.5t203.5 41.5q61 0 112 -9v-116q-49 8 -116 8q-96 0 -197.5 -40t-167.5 -120v-815h-124v1083zM312 -198q23 -25 23 -74q0 -41 -13 -91t-38 -95h-77q33 81 37 139q-40 1 -62.5 21t-22.5 53t22.5 52.5t62.5 19.5q45 0 68 -25z" />
    <glyph glyph-name="Rcaron" unicode="&#x158;" horiz-adv-x="1434" 
d="M1204 0l-522 630q-54 -2 -84 -2q-70 0 -128.5 3t-141.5 9v-640h-124v1451q102 21 204.5 32.5t224.5 11.5q211 0 345.5 -44.5t200.5 -139t66 -246.5q0 -356 -428 -422l535 -643h-148zM464.5 734q54.5 -3 138.5 -3q184 0 299 36.5t168.5 109.5t53.5 185q0 123 -50 195
t-156 103.5t-281 31.5q-93 0 -161.5 -6.5t-147.5 -20.5v-621q82 -7 136.5 -10zM915 1890h131l-291 -278h-120l-291 278h131l220 -216z" />
    <glyph glyph-name="rcaron" unicode="&#x159;" horiz-adv-x="805" 
d="M185 1083h104l11 -145h9q65 71 165.5 112.5t203.5 41.5q61 0 112 -9v-116q-49 8 -116 8q-96 0 -197.5 -40t-167.5 -120v-815h-124v1083zM701 1616h114l-270 -358h-116l-270 358h114l214 -290z" />
    <glyph glyph-name="Sacute" unicode="&#x15a;" horiz-adv-x="1186" 
d="M318.5 -1.5q-105.5 16.5 -200.5 48.5v110q102 -34 208 -50.5t203 -16.5q432 0 432 300q0 83 -36 137.5t-113 89.5t-207 61l-82 16q-221 42 -323.5 139t-102.5 259q0 126 62 217t185.5 140t305.5 49q203 0 374 -53v-110q-180 55 -375 55q-213 0 -319 -75t-106 -217
q0 -83 32 -138t103 -91t193 -60l83 -16q162 -32 262 -84.5t146 -129t46 -183.5q0 -132 -66 -225t-192 -141t-304 -48q-103 0 -208.5 16.5zM540 1612l219 278h143l-241 -278h-121z" />
    <glyph glyph-name="sacute" unicode="&#x15b;" horiz-adv-x="1019" 
d="M138 27v102q91 -26 171.5 -37t170.5 -11q172 0 249 51.5t77 150.5q0 54 -19 90t-64.5 59.5t-124.5 37.5l-176 30q-158 28 -229 100t-71 191q0 141 112 224.5t343 83.5q152 0 290 -39v-101q-77 21 -145 30.5t-144 9.5q-178 0 -255 -54t-77 -150q0 -74 44 -121t155 -67
l176 -30q162 -28 235 -95.5t73 -189.5q0 -146 -113.5 -228.5t-339.5 -82.5q-186 0 -338 46zM453 1258l267 358h144l-287 -358h-124z" />
    <glyph glyph-name="Scircumflex" unicode="&#x15c;" horiz-adv-x="1186" 
d="M318.5 -1.5q-105.5 16.5 -200.5 48.5v110q102 -34 208 -50.5t203 -16.5q432 0 432 300q0 83 -36 137.5t-113 89.5t-207 61l-82 16q-221 42 -323.5 139t-102.5 259q0 126 62 217t185.5 140t305.5 49q203 0 374 -53v-110q-180 55 -375 55q-213 0 -319 -75t-106 -217
q0 -83 32 -138t103 -91t193 -60l83 -16q162 -32 262 -84.5t146 -129t46 -183.5q0 -132 -66 -225t-192 -141t-304 -48q-103 0 -208.5 16.5zM952 1612h-131l-220 215l-220 -215h-131l291 278h120z" />
    <glyph glyph-name="scircumflex" unicode="&#x15d;" horiz-adv-x="1019" 
d="M138 27v102q91 -26 171.5 -37t170.5 -11q172 0 249 51.5t77 150.5q0 54 -19 90t-64.5 59.5t-124.5 37.5l-176 30q-158 28 -229 100t-71 191q0 141 112 224.5t343 83.5q152 0 290 -39v-101q-77 21 -145 30.5t-144 9.5q-178 0 -255 -54t-77 -150q0 -74 44 -121t155 -67
l176 -30q162 -28 235 -95.5t73 -189.5q0 -146 -113.5 -228.5t-339.5 -82.5q-186 0 -338 46zM836 1258h-114l-207 287l-207 -287h-114l263 358h116z" />
    <glyph glyph-name="Scedilla" unicode="&#x15e;" horiz-adv-x="1186" 
d="M971.5 113q-117.5 -105 -335.5 -126v-93q91 -4 141 -42.5t50 -108.5q0 -74 -58.5 -112.5t-163.5 -38.5q-54 0 -108 10t-98 28v70q106 -42 203 -42q145 0 145 87q0 46 -37 67t-110 21h-41v149h-32q-103 0 -208.5 16.5t-200.5 48.5v110q102 -34 208 -50.5t203 -16.5
q432 0 432 300q0 83 -36 137.5t-113 89.5t-207 61l-82 16q-221 42 -323.5 139t-102.5 259q0 126 62 217t185.5 140t305.5 49q203 0 374 -53v-110q-180 55 -375 55q-213 0 -319 -75t-106 -217q0 -83 32 -138t103 -91t193 -60l83 -16q162 -32 262 -84.5t146 -129t46 -183.5
q0 -178 -117.5 -283z" />
    <glyph glyph-name="scedilla" unicode="&#x15f;" horiz-adv-x="1019" 
d="M836 79.5q-93 -80.5 -279 -95.5v-90q82 -5 126.5 -44.5t44.5 -106.5q0 -73 -53 -112t-149 -39q-50 0 -100.5 10t-85.5 28v70q88 -42 183 -42q63 0 94 21.5t31 66.5t-31 66t-95 21h-42v148h-4q-186 0 -338 46v102q91 -26 171.5 -37t170.5 -11q172 0 249 51.5t77 150.5
q0 54 -19 90t-64.5 59.5t-124.5 37.5l-176 30q-158 28 -229 100t-71 191q0 141 112 224.5t343 83.5q152 0 290 -39v-101q-77 21 -145 30.5t-144 9.5q-178 0 -255 -54t-77 -150q0 -74 44 -121t155 -67l176 -30q162 -28 235 -95.5t73 -189.5q0 -132 -93 -212.5z" />
    <glyph glyph-name="Scaron" unicode="&#x160;" horiz-adv-x="1186" 
d="M318.5 -1.5q-105.5 16.5 -200.5 48.5v110q102 -34 208 -50.5t203 -16.5q432 0 432 300q0 83 -36 137.5t-113 89.5t-207 61l-82 16q-221 42 -323.5 139t-102.5 259q0 126 62 217t185.5 140t305.5 49q203 0 374 -53v-110q-180 55 -375 55q-213 0 -319 -75t-106 -217
q0 -83 32 -138t103 -91t193 -60l83 -16q162 -32 262 -84.5t146 -129t46 -183.5q0 -132 -66 -225t-192 -141t-304 -48q-103 0 -208.5 16.5zM821 1890h131l-291 -278h-120l-291 278h131l220 -216z" />
    <glyph glyph-name="scaron" unicode="&#x161;" horiz-adv-x="1019" 
d="M138 27v102q91 -26 171.5 -37t170.5 -11q172 0 249 51.5t77 150.5q0 54 -19 90t-64.5 59.5t-124.5 37.5l-176 30q-158 28 -229 100t-71 191q0 141 112 224.5t343 83.5q152 0 290 -39v-101q-77 21 -145 30.5t-144 9.5q-178 0 -255 -54t-77 -150q0 -74 44 -121t155 -67
l176 -30q162 -28 235 -95.5t73 -189.5q0 -146 -113.5 -228.5t-339.5 -82.5q-186 0 -338 46zM729 1616h114l-270 -358h-116l-270 358h114l214 -290z" />
    <glyph glyph-name="uni0162" unicode="&#x162;" horiz-adv-x="1285" 
d="M677 0v-106q91 -4 141 -42.5t50 -108.5q0 -74 -58.5 -112.5t-163.5 -38.5q-54 0 -108 10t-98 28v70q106 -42 203 -42q145 0 145 87q0 46 -37 67t-110 21h-41v167h-20v1371h-560v109h1244v-109h-559v-1371h-28z" />
    <glyph glyph-name="uni0163" unicode="&#x163;" horiz-adv-x="828" 
d="M574 -17v-89q82 -5 126.5 -44.5t44.5 -106.5q0 -73 -53 -112t-149 -39q-50 0 -100.5 10t-85.5 28v70q88 -42 183 -42q63 0 94 21.5t31 66.5t-31 66t-95 21h-42v162q-121 30 -184.5 119t-63.5 240v623h-231v106h231l20 397h104v-397h419v-106h-419v-601q0 -151 70 -218.5
t209 -67.5q38 0 75 4.5t86 15.5v-107q-51 -12 -93.5 -17t-90.5 -5q-19 0 -55 2z" />
    <glyph glyph-name="Tcaron" unicode="&#x164;" horiz-adv-x="1285" 
d="M580 0v1371h-560v109h1244v-109h-559v-1371h-125zM862 1890h131l-291 -278h-120l-291 278h131l220 -216z" />
    <glyph glyph-name="tcaron" unicode="&#x165;" horiz-adv-x="828" 
d="M727 94.5q37 4.5 86 15.5v-107q-51 -12 -93.5 -17t-90.5 -5q-184 0 -282 92.5t-98 280.5v623h-231v106h231l20 397h104v-397h419v-106h-419v-601q0 -151 70 -218.5t209 -67.5q38 0 75 4.5zM562 1616h97q0 -111 -10.5 -225t-33.5 -211h-74q21 166 21 436z" />
    <glyph glyph-name="Tbar" unicode="&#x166;" horiz-adv-x="1285" 
d="M1264 1371h-559v-539h370v-92h-370v-740h-125v740h-372v92h372v539h-560v109h1244v-109z" />
    <glyph glyph-name="tbar" unicode="&#x167;" horiz-adv-x="828" 
d="M727 94.5q37 4.5 86 15.5v-107q-51 -12 -93.5 -17t-90.5 -5q-184 0 -282 92.5t-98 280.5v247h-170v86h170v290h-231v106h231l20 397h104v-397h419v-106h-419v-290h363v-86h-363v-225q0 -151 70 -218.5t209 -67.5q38 0 75 4.5z" />
    <glyph glyph-name="Utilde" unicode="&#x168;" horiz-adv-x="1576" 
d="M455 46q-131 64 -195 196.5t-64 341.5v896h126v-910q0 -168 50.5 -273t153 -155t263.5 -50t264 50t153.5 155t50.5 273v910h123v-896q0 -209 -63.5 -341.5t-194 -196.5t-333.5 -64t-334 64zM870 1692q-40 10 -97 29q-50 18 -83 26.5t-68 8.5q-58 0 -101 -16.5t-83 -52.5
v91q32 32 77.5 47t108.5 15q44 0 84 -10t97 -29q50 -18 83 -26.5t68 -8.5q58 0 101 16.5t83 52.5v-91q-32 -32 -77.5 -47t-108.5 -15q-44 0 -84 10z" />
    <glyph glyph-name="utilde" unicode="&#x169;" horiz-adv-x="1265" 
d="M272.5 80q-104.5 98 -104.5 307v696h124v-690q0 -159 75.5 -229.5t212.5 -70.5q102 0 202 40.5t174 119.5v830h124v-1083h-105l-9 123h-9q-80 -69 -181.5 -105t-213.5 -36q-185 0 -289.5 98zM698.5 1370.5q-38.5 10.5 -90.5 31.5q-50 19 -80 27.5t-60 8.5
q-51 0 -93 -17.5t-81 -55.5v95q65 64 176 64q42 0 80 -10.5t90 -31.5q50 -19 80 -27.5t60 -8.5q51 0 93 17.5t81 55.5v-95q-65 -64 -176 -64q-41 0 -79.5 10.5z" />
    <glyph glyph-name="Umacron" unicode="&#x16a;" horiz-adv-x="1576" 
d="M455 46q-131 64 -195 196.5t-64 341.5v896h126v-910q0 -168 50.5 -273t153 -155t263.5 -50t264 50t153.5 155t50.5 273v910h123v-896q0 -209 -63.5 -341.5t-194 -196.5t-333.5 -64t-334 64zM469 1708v86h640v-86h-640z" />
    <glyph glyph-name="umacron" unicode="&#x16b;" horiz-adv-x="1265" 
d="M272.5 80q-104.5 98 -104.5 307v696h124v-690q0 -159 75.5 -229.5t212.5 -70.5q102 0 202 40.5t174 119.5v830h124v-1083h-105l-9 123h-9q-80 -69 -181.5 -105t-213.5 -36q-185 0 -289.5 98zM294 1380v87h660v-87h-660z" />
    <glyph glyph-name="Ubreve" unicode="&#x16c;" horiz-adv-x="1576" 
d="M455 46q-131 64 -195 196.5t-64 341.5v896h126v-910q0 -168 50.5 -273t153 -155t263.5 -50t264 50t153.5 155t50.5 273v910h123v-896q0 -209 -63.5 -341.5t-194 -196.5t-333.5 -64t-334 64zM543.5 1689.5q-86.5 67.5 -99.5 176.5h90q14 -78 73.5 -120.5t183.5 -42.5
q123 0 181 42.5t72 120.5h90q-13 -110 -97.5 -177t-245.5 -67t-247.5 67.5z" />
    <glyph glyph-name="ubreve" unicode="&#x16d;" horiz-adv-x="1265" 
d="M272.5 80q-104.5 98 -104.5 307v696h124v-690q0 -159 75.5 -229.5t212.5 -70.5q102 0 202 40.5t174 119.5v830h124v-1083h-105l-9 123h-9q-80 -69 -181.5 -105t-213.5 -36q-185 0 -289.5 98zM453 1309.5q-72 40.5 -110 112.5t-43 167h89q9 -113 66 -176.5t171 -63.5
q214 0 233 240h89q-7 -147 -89.5 -233.5t-232.5 -86.5q-101 0 -173 40.5z" />
    <glyph glyph-name="Uring" unicode="&#x16e;" horiz-adv-x="1576" 
d="M455 46q-131 64 -195 196.5t-64 341.5v896h126v-910q0 -168 50.5 -273t153 -155t263.5 -50t264 50t153.5 155t50.5 273v910h123v-896q0 -209 -63.5 -341.5t-194 -196.5t-333.5 -64t-334 64zM691.5 1630.5q-43.5 24.5 -68 67.5t-24.5 97t24.5 97t68 67.5t97.5 24.5
t97.5 -24.5t68 -67.5t24.5 -97t-24.5 -97t-68 -67.5t-97.5 -24.5t-97.5 24.5zM878 1704q34 34 34 91q0 58 -34 91.5t-89 33.5t-89 -33.5t-34 -91.5q0 -57 34 -91t89 -34t89 34z" />
    <glyph glyph-name="uring" unicode="&#x16f;" horiz-adv-x="1265" 
d="M272.5 80q-104.5 98 -104.5 307v696h124v-690q0 -159 75.5 -229.5t212.5 -70.5q102 0 202 40.5t174 119.5v830h124v-1083h-105l-9 123h-9q-80 -69 -181.5 -105t-213.5 -36q-185 0 -289.5 98zM526.5 1277.5q-43.5 24.5 -68 68t-24.5 97.5t24.5 97t68 67.5t97.5 24.5
t97.5 -24.5t68 -67.5t24.5 -97t-24.5 -97.5t-68 -68t-97.5 -24.5t-97.5 24.5zM713 1351.5q34 33.5 34 91.5q0 57 -34 91t-89 34t-89 -34t-34 -91q0 -58 34 -91.5t89 -33.5t89 33.5z" />
    <glyph glyph-name="Uhungarumlaut" unicode="&#x170;" horiz-adv-x="1576" 
d="M455 46q-131 64 -195 196.5t-64 341.5v896h126v-910q0 -168 50.5 -273t153 -155t263.5 -50t264 50t153.5 155t50.5 273v910h123v-896q0 -209 -63.5 -341.5t-194 -196.5t-333.5 -64t-334 64zM559 1612l161 278h111l-168 -278h-104zM915 1612l160 278h111l-167 -278h-104z
" />
    <glyph glyph-name="uhungarumlaut" unicode="&#x171;" horiz-adv-x="1265" 
d="M272.5 80q-104.5 98 -104.5 307v696h124v-690q0 -159 75.5 -229.5t212.5 -70.5q102 0 202 40.5t174 119.5v830h124v-1083h-105l-9 123h-9q-80 -69 -181.5 -105t-213.5 -36q-185 0 -289.5 98zM398 1258l179 358h109l-188 -358h-100zM750 1258l179 358h109l-188 -358h-100z
" />
    <glyph glyph-name="Uogonek" unicode="&#x172;" horiz-adv-x="1576" 
d="M1380 1480v-896q0 -247 -89 -388t-276 -189q-145 -38 -211 -94t-66 -130q0 -58 40 -89t118 -31q42 0 83.5 9.5t100.5 30.5v-69q-97 -39 -191 -39q-116 0 -176 48t-60 137q0 58 33.5 111t105.5 91h-3q-203 0 -334 64t-195 196.5t-64 341.5v896h126v-910q0 -168 50.5 -273
t153 -155t263.5 -50t264 50t153.5 155t50.5 273v910h123z" />
    <glyph glyph-name="uogonek" unicode="&#x173;" horiz-adv-x="1265" 
d="M1184 -297v-71q-38 -19 -83 -29.5t-88 -10.5q-101 0 -158.5 47.5t-57.5 129.5q0 74 42.5 135t134.5 113l-8 106h-9q-80 -69 -181.5 -105t-213.5 -36q-185 0 -289.5 98t-104.5 307v696h124v-690q0 -159 75.5 -229.5t212.5 -70.5q102 0 202 40.5t174 119.5v830h124v-1083
q-106 -54 -152 -106t-46 -118q0 -53 37 -84.5t101 -31.5q82 0 164 43z" />
    <glyph glyph-name="Wcircumflex" unicode="&#x174;" horiz-adv-x="2338" 
d="M2138 1480h124l-480 -1480h-165l-448 1352l-448 -1352h-166l-481 1480h131l439 -1367l449 1367h155l449 -1370zM1521 1612h-131l-220 215l-220 -215h-131l291 278h120z" />
    <glyph glyph-name="wcircumflex" unicode="&#x175;" horiz-adv-x="1853" 
d="M1647 1083h122l-361 -1083h-154l-327 964l-326 -964h-154l-363 1083h126l319 -964l323 964h153l324 -961zM1249 1258h-114l-207 287l-207 -287h-114l263 358h116z" />
    <glyph glyph-name="Ycircumflex" unicode="&#x176;" horiz-adv-x="1285" 
d="M1297 1480l-591 -813v-667h-126v667l-602 813h146l521 -706l514 706h138zM993 1612h-131l-220 215l-220 -215h-131l291 278h120z" />
    <glyph glyph-name="ycircumflex" unicode="&#x177;" horiz-adv-x="1173" 
d="M1019 1083h124l-671 -1523h-126l194 440h-32l-477 1083h134l424 -986zM909 1258h-114l-207 287l-207 -287h-114l263 358h116z" />
    <glyph glyph-name="Ydieresis" unicode="&#x178;" horiz-adv-x="1285" 
d="M1297 1480l-591 -813v-667h-126v667l-602 813h146l521 -706l514 706h138zM314 1694q-23 21 -23 58q0 36 23 58t63 22q39 0 62 -22t23 -58q0 -37 -22.5 -58t-62.5 -21t-63 21zM844.5 1694q-22.5 21 -22.5 58q0 36 23 58t62 22q40 0 63 -22t23 -58q0 -37 -23 -58t-63 -21
t-62.5 21z" />
    <glyph glyph-name="Zacute" unicode="&#x179;" horiz-adv-x="1288" 
d="M243 107h973v-107h-1144v70l959 1303h-946v107h1118v-70zM583 1612l219 278h143l-241 -278h-121z" />
    <glyph glyph-name="zacute" unicode="&#x17a;" horiz-adv-x="1028" 
d="M243 106h721v-106h-893v77l708 900h-694v106h865v-77zM456 1258l267 358h144l-287 -358h-124z" />
    <glyph glyph-name="Zdotaccent" unicode="&#x17b;" horiz-adv-x="1288" 
d="M243 107h973v-107h-1144v70l959 1303h-946v107h1118v-70zM577 1694.5q-24 21.5 -24 57.5t24 58t67 22t67 -22t24 -58t-24 -57.5t-67 -21.5t-67 21.5z" />
    <glyph glyph-name="zdotaccent" unicode="&#x17c;" horiz-adv-x="1028" 
d="M243 106h721v-106h-893v77l708 900h-694v106h865v-77zM450.5 1360q-24.5 22 -24.5 61q0 40 24.5 62.5t67.5 22.5t67.5 -22.5t24.5 -62.5q0 -39 -24.5 -61t-67.5 -22t-67.5 22z" />
    <glyph glyph-name="Zcaron" unicode="&#x17d;" horiz-adv-x="1288" 
d="M243 107h973v-107h-1144v70l959 1303h-946v107h1118v-70zM864 1890h131l-291 -278h-120l-291 278h131l220 -216z" />
    <glyph glyph-name="zcaron" unicode="&#x17e;" horiz-adv-x="1028" 
d="M243 106h721v-106h-893v77l708 900h-694v106h865v-77zM732 1616h114l-270 -358h-116l-270 358h114l214 -290z" />
    <glyph glyph-name="uni018F" unicode="&#x18f;" horiz-adv-x="1614" 
d="M1267.5 1312q216.5 -186 216.5 -577q0 -257 -83 -425t-232.5 -248t-352.5 -80q-213 0 -369 79t-241.5 244.5t-85.5 417.5v70h1236q-17 312 -198.5 454.5t-512.5 142.5q-105 0 -221 -13.5t-219 -40.5v110q203 52 443 52q403 0 619.5 -186zM1205 233.5q142 144.5 151 457.5
h-1105q9 -313 155.5 -457.5t410.5 -144.5q246 0 388 144.5z" />
    <glyph glyph-name="florin" unicode="&#x192;" horiz-adv-x="801" 
d="M455.5 1463.5q-74.5 -65.5 -74.5 -212.5v-168h419v-108h-419v-1043q0 -195 -106.5 -293.5t-313.5 -98.5q-85 0 -168 14v107q88 -14 160 -14q156 0 230 65.5t74 212.5v1050h-231v108h231v161q0 195 107 293.5t314 98.5q85 0 168 -14v-107q-88 14 -160 14
q-156 0 -230.5 -65.5z" />
    <glyph glyph-name="Ohorn" unicode="&#x1a0;" horiz-adv-x="1617" 
d="M1416.5 1138.5q70.5 -161.5 70.5 -398.5q0 -259 -84 -428.5t-235.5 -249.5t-358.5 -80t-359 82t-236 251.5t-84 424.5t85 424.5t237.5 251.5t356.5 82q47 0 97.5 -5t63.5 -6q120 -14 201 -14q220 0 220 161q0 37 -6 69.5t-18 72.5h97q14 -37 19.5 -70t5.5 -75
q0 -108 -70 -171.5t-204 -71.5q131 -88 201.5 -249.5zM1211.5 248.5q145.5 156.5 145.5 486.5q0 337 -145.5 495t-402.5 158t-402.5 -156t-145.5 -487q0 -338 145 -495.5t403 -157.5q257 0 402.5 156.5z" />
    <glyph glyph-name="ohorn" unicode="&#x1a1;" horiz-adv-x="1241" 
d="M1122 541q0 -186 -62.5 -311.5t-175 -187t-264.5 -61.5q-234 0 -367.5 139t-133.5 421q0 187 62 311.5t175 185.5t267 61q42 0 131 -7q50 -5 80 -5q217 0 217 167q0 37 -6 69.5t-18 72.5h95q13 -38 19 -71t6 -74q0 -100 -54.5 -162.5t-157.5 -80.5q187 -138 187 -467z
M995 540q0 237 -97.5 345t-277.5 108q-374 0 -374 -450q0 -456 374 -456q375 0 375 453z" />
    <glyph glyph-name="Uhorn" unicode="&#x1af;" horiz-adv-x="1576" 
d="M455 46q-131 64 -195 196.5t-64 341.5v896h126v-910q0 -168 50.5 -273t153 -155t263.5 -50t264 50t153.5 155t50.5 273v910h48q110 0 165 37t55 117q0 37 -6 69.5t-18 72.5h98q13 -37 18.5 -70t5.5 -75q0 -101 -63 -161t-180 -69v-817q0 -209 -63.5 -341.5t-194 -196.5
t-333.5 -64t-334 64z" />
    <glyph glyph-name="uhorn" unicode="&#x1b0;" horiz-adv-x="1288" 
d="M1261 1075.5q-63 -64.5 -181 -76.5v-999h-105l-9 123h-9q-80 -69 -181.5 -105t-213.5 -36q-185 0 -289.5 98t-104.5 307v696h124v-690q0 -159 75.5 -229.5t212.5 -70.5q102 0 202 40.5t174 119.5v830h55q217 0 217 167q0 37 -6 69.5t-18 72.5h95q14 -37 19.5 -70t5.5 -75
q0 -107 -63 -171.5z" />
    <glyph glyph-name="uni01C4" unicode="&#x1c4;" horiz-adv-x="2798" 
d="M411 -5q-93 6 -207 21v1435q100 21 213.5 32t216.5 11q397 0 600.5 -189t203.5 -565q0 -379 -208 -565t-624 -186q-102 0 -195 6zM1139 255q169 157 169 486q0 327 -169 485.5t-508 158.5q-137 0 -301 -26v-1241q123 -20 296 -20q344 0 513 157zM1753 107h973v-107h-1144
v70l959 1303h-946v107h1118v-70zM2374 1890h131l-291 -278h-120l-291 278h131l220 -216z" />
    <glyph glyph-name="uni01C5" unicode="&#x1c5;" horiz-adv-x="2596" 
d="M411 -5q-93 6 -207 21v1435q100 21 213.5 32t216.5 11q397 0 600.5 -189t203.5 -565q0 -379 -208 -565t-624 -186q-102 0 -195 6zM1139 255q169 157 169 486q0 327 -169 485.5t-508 158.5q-137 0 -301 -26v-1241q123 -20 296 -20q344 0 513 157zM1811 106h721v-106h-893
v77l708 900h-694v106h865v-77zM2306 1570h131l-291 -278h-120l-291 278h131l220 -216z" />
    <glyph glyph-name="uni01C6" unicode="&#x1c6;" horiz-adv-x="2293" 
d="M349 39.5q-108 57.5 -169 177.5t-61 302q0 289 150 435t442 146q118 0 245 -24v540h124v-1616h-106l-8 128h-10q-64 -69 -156 -107.5t-200 -38.5q-143 0 -251 57.5zM806.5 128.5q86.5 38.5 149.5 121.5v715q-52 14 -116 22t-128 8q-236 0 -351 -113.5t-115 -351.5
q0 -440 376 -440q98 0 184.5 38.5zM1508 106h721v-106h-893v77l708 900h-694v106h865v-77zM1997 1616h114l-270 -358h-116l-270 358h114l214 -290z" />
    <glyph glyph-name="uni01C7" unicode="&#x1c7;" horiz-adv-x="1725" 
d="M204 0v1480h126v-1371h841v-109h-967zM1194 -284q105 127 153.5 264.5t48.5 307.5v1192h126v-1220q-9 -179 -64.5 -319.5t-181.5 -283.5z" />
    <glyph glyph-name="uni01C8" unicode="&#x1c8;" horiz-adv-x="1685" 
d="M204 0v1480h126v-1371h841v-109h-967zM1174 -404q106 127 154.5 264.5t48.5 307.5v915h124v-909q0 -187 -58.5 -338.5t-186.5 -297.5zM1369.5 1370q-24.5 22 -24.5 61q0 40 24.5 62.5t67.5 22.5t67.5 -22.5t24.5 -62.5q0 -39 -24.5 -61t-67.5 -22t-67.5 22z" />
    <glyph glyph-name="uni01C9" unicode="&#x1c9;" horiz-adv-x="986" 
d="M185 0v1616h124v-1616h-124zM475 -404q106 127 154.5 264.5t48.5 307.5v915h124v-909q0 -187 -58.5 -338.5t-186.5 -297.5zM670.5 1370q-24.5 22 -24.5 61q0 40 24.5 62.5t67.5 22.5t67.5 -22.5t24.5 -62.5q0 -39 -24.5 -61t-67.5 -22t-67.5 22z" />
    <glyph glyph-name="uni01CA" unicode="&#x1ca;" horiz-adv-x="2167" 
d="M1310 1480h120v-1480h-131l-975 1303v-1303h-120v1480h131l975 -1303v1303zM1636 -284q105 127 153.5 264.5t48.5 307.5v1192h126v-1220q-9 -179 -64.5 -319.5t-181.5 -283.5z" />
    <glyph glyph-name="uni01CB" unicode="&#x1cb;" horiz-adv-x="2127" 
d="M1310 1480h120v-1480h-131l-975 1303v-1303h-120v1480h131l975 -1303v1303zM1616 -404q106 127 154.5 264.5t48.5 307.5v915h124v-909q0 -187 -58.5 -338.5t-186.5 -297.5zM1811.5 1370q-24.5 22 -24.5 61q0 40 24.5 62.5t67.5 22.5t67.5 -22.5t24.5 -62.5
q0 -39 -24.5 -61t-67.5 -22t-67.5 22z" />
    <glyph glyph-name="uni01CC" unicode="&#x1cc;" horiz-adv-x="1768" 
d="M185 1083h105l9 -129h9q81 71 184.5 108t216.5 37q188 0 293 -99.5t105 -312.5v-687h-124v685q0 160 -75.5 231.5t-218.5 71.5q-101 0 -203 -38.5t-177 -119.5v-830h-124v1083zM1257 -404q106 127 154.5 264.5t48.5 307.5v915h124v-909q0 -187 -58.5 -338.5
t-186.5 -297.5zM1452.5 1370q-24.5 22 -24.5 61q0 40 24.5 62.5t67.5 22.5t67.5 -22.5t24.5 -62.5q0 -39 -24.5 -61t-67.5 -22t-67.5 22z" />
    <glyph glyph-name="Gcaron" unicode="&#x1e6;" horiz-adv-x="1522" 
d="M1329 720v-700q-109 -17 -195.5 -24t-186.5 -7q-405 0 -611 189t-206 561q0 256 97.5 425.5t271.5 251.5t406 82q95 0 186.5 -12.5t194.5 -38.5v-111q-106 29 -195.5 40.5t-176.5 11.5q-304 0 -478 -157t-174 -487q0 -646 681 -646q151 0 265 18v604h121zM1040 1890h131
l-291 -278h-120l-291 278h131l220 -216z" />
    <glyph glyph-name="gcaron" unicode="&#x1e7;" horiz-adv-x="1265" 
d="M369.5 -445q-97.5 15 -178.5 42v107q189 -59 358 -59q143 0 232 37.5t132 121.5t43 225v96h-8q-66 -66 -157.5 -103t-202.5 -37q-137 0 -242 56t-166 175.5t-61 302.5q0 288 149 434t442 146q194 0 370 -51v-1001q0 -179 -58 -291t-174.5 -164t-295.5 -52
q-85 0 -182.5 15zM803 130q89 36 153 111v722q-115 31 -259 31q-226 0 -338.5 -113.5t-112.5 -349.5q0 -231 99 -334t271 -103q98 0 187 36zM865 1616h114l-270 -358h-116l-270 358h114l214 -290z" />
    <glyph glyph-name="uni01EA" unicode="&#x1ea;" horiz-adv-x="1617" 
d="M837.5 -92.5q-61.5 -59.5 -61.5 -130.5q0 -56 40.5 -86.5t117.5 -30.5q42 0 83 9t101 30v-69q-94 -38 -191 -38q-114 0 -175.5 47t-61.5 130q0 65 32.5 118t107.5 95h-19q-209 1 -361.5 83t-236 251t-83.5 424t85 424.5t237.5 251.5t356.5 82q205 0 356.5 -80
t236.5 -249.5t85 -428.5q0 -306 -116.5 -483.5t-310.5 -238.5q-161 -51 -222.5 -110.5zM1211.5 248.5q145.5 156.5 145.5 486.5q0 337 -145.5 495t-402.5 158t-402.5 -156t-145.5 -487q0 -338 145 -495.5t403 -157.5q257 0 402.5 156.5z" />
    <glyph glyph-name="uni01EB" unicode="&#x1eb;" horiz-adv-x="1241" 
d="M534 -223q0 -55 37 -86t101 -31q75 0 147 34l17 -64q-38 -18 -83 -28t-88 -10q-100 0 -158 47.5t-58 129.5q0 132 133 213q-217 11 -340 150t-123 409q0 187 61.5 311.5t174 185.5t265.5 61q237 0 369.5 -137.5t132.5 -420.5q0 -225 -89.5 -360t-249.5 -178
q-249 -69 -249 -226zM620 87q375 0 375 453q0 237 -97.5 345t-277.5 108q-374 0 -374 -450q0 -456 374 -456z" />
    <glyph glyph-name="uni01F1" unicode="&#x1f1;" horiz-adv-x="2798" 
d="M411 -5q-93 6 -207 21v1435q100 21 213.5 32t216.5 11q397 0 600.5 -189t203.5 -565q0 -379 -208 -565t-624 -186q-102 0 -195 6zM1139 255q169 157 169 486q0 327 -169 485.5t-508 158.5q-137 0 -301 -26v-1241q123 -20 296 -20q344 0 513 157zM1753 107h973v-107h-1144
v70l959 1303h-946v107h1118v-70z" />
    <glyph glyph-name="uni01F2" unicode="&#x1f2;" horiz-adv-x="2596" 
d="M411 -5q-93 6 -207 21v1435q100 21 213.5 32t216.5 11q397 0 600.5 -189t203.5 -565q0 -379 -208 -565t-624 -186q-102 0 -195 6zM1139 255q169 157 169 486q0 327 -169 485.5t-508 158.5q-137 0 -301 -26v-1241q123 -20 296 -20q344 0 513 157zM1811 106h721v-106h-893
v77l708 900h-694v106h865v-77z" />
    <glyph glyph-name="uni01F3" unicode="&#x1f3;" horiz-adv-x="2293" 
d="M349 39.5q-108 57.5 -169 177.5t-61 302q0 289 150 435t442 146q118 0 245 -24v540h124v-1616h-106l-8 128h-10q-64 -69 -156 -107.5t-200 -38.5q-143 0 -251 57.5zM806.5 128.5q86.5 38.5 149.5 121.5v715q-52 14 -116 22t-128 8q-236 0 -351 -113.5t-115 -351.5
q0 -440 376 -440q98 0 184.5 38.5zM1508 106h721v-106h-893v77l708 900h-694v106h865v-77z" />
    <glyph glyph-name="uni01F4" unicode="&#x1f4;" horiz-adv-x="1522" 
d="M1329 720v-700q-109 -17 -195.5 -24t-186.5 -7q-405 0 -611 189t-206 561q0 256 97.5 425.5t271.5 251.5t406 82q95 0 186.5 -12.5t194.5 -38.5v-111q-106 29 -195.5 40.5t-176.5 11.5q-304 0 -478 -157t-174 -487q0 -646 681 -646q151 0 265 18v604h121zM759 1612
l219 278h143l-241 -278h-121z" />
    <glyph glyph-name="uni01F5" unicode="&#x1f5;" horiz-adv-x="1265" 
d="M369.5 -445q-97.5 15 -178.5 42v107q189 -59 358 -59q143 0 232 37.5t132 121.5t43 225v96h-8q-66 -66 -157.5 -103t-202.5 -37q-137 0 -242 56t-166 175.5t-61 302.5q0 288 149 434t442 146q194 0 370 -51v-1001q0 -179 -58 -291t-174.5 -164t-295.5 -52
q-85 0 -182.5 15zM803 130q89 36 153 111v722q-115 31 -259 31q-226 0 -338.5 -113.5t-112.5 -349.5q0 -231 99 -334t271 -103q98 0 187 36zM589 1258l267 358h144l-287 -358h-124z" />
    <glyph glyph-name="Aringacute" unicode="&#x1fa;" horiz-adv-x="1487" 
d="M1313 0l-206 501h-729l-206 -501h-129l615 1480h171l614 -1480h-130zM422 607h641l-321 779zM897 1912q37 -51 37 -117q0 -54 -24.5 -97t-68 -67.5t-97.5 -24.5t-97.5 24.5t-68 67.5t-24.5 97t24.5 97t68 67.5t97.5 24.5q52 0 95 -23l129 134h111zM833 1704q34 34 34 91
q0 58 -34 91.5t-89 33.5t-89 -33.5t-34 -91.5q0 -57 34 -91t89 -34t89 34z" />
    <glyph glyph-name="aringacute" unicode="&#x1fb;" horiz-adv-x="1140" 
d="M777 1063q96 -36 145.5 -120t49.5 -228v-715h-106l-10 128h-9q-62 -66 -160.5 -105.5t-207.5 -39.5q-112 0 -192 35.5t-122 101t-42 154.5q0 138 97.5 213t315.5 99l313 36v97q0 108 -36.5 168.5t-106.5 84.5t-182 24q-78 0 -164 -13t-167 -42v104q73 26 163.5 40
t177.5 14q147 0 243 -36zM688.5 118.5q89.5 37.5 160.5 111.5v302l-308 -36q-156 -18 -222.5 -69t-66.5 -144q0 -97 61.5 -149.5t187.5 -52.5q98 0 187.5 37.5zM719 1560q38 -51 38 -117q0 -54 -24.5 -97.5t-68 -68t-97.5 -24.5t-97.5 24.5t-68 68t-24.5 97.5t24.5 97
t68 67.5t97.5 24.5q53 0 94 -23l148 171h110zM656 1351.5q34 33.5 34 91.5q0 57 -34 91t-89 34t-89 -34t-34 -91q0 -58 34 -91.5t89 -33.5t89 33.5z" />
    <glyph glyph-name="AEacute" unicode="&#x1fc;" horiz-adv-x="2023" 
d="M1150 106h768v-106h-886l-42 501h-609l-209 -501h-129l624 1480h1241v-106h-869l49 -561h719v-106h-710zM426 607h555l-65 767h-170zM912 1612l219 278h143l-241 -278h-121z" />
    <glyph glyph-name="aeacute" unicode="&#x1fd;" horiz-adv-x="1867" 
d="M1769 498h-797q7 -215 116.5 -314.5t318.5 -99.5q135 0 306 51v-103q-166 -51 -320 -51q-328 0 -458 205q-106 -111 -217 -157t-231 -46q-114 0 -196 35.5t-125 101.5t-43 156q0 145 107.5 229t335.5 84h283v130q0 108 -36.5 168.5t-106.5 84.5t-182 24q-78 0 -164 -13
t-167 -42v104q73 26 162 40t176 14q165 0 264.5 -48.5t138.5 -162.5q55 104 152.5 157.5t230.5 53.5q216 0 334 -143t118 -414v-44zM972 589h676q-10 415 -335 415q-331 0 -341 -415zM708.5 127q100.5 46 182.5 147q-37 97 -41 225h-285q-313 0 -313 -215q0 -97 63 -150
t188 -53q105 0 205.5 46zM850 1258l267 358h144l-287 -358h-124z" />
    <glyph glyph-name="Oslashacute" unicode="&#x1fe;" horiz-adv-x="1617" 
d="M1487 740q0 -255 -85 -424.5t-237 -251.5t-356 -82q-141 0 -257 38t-203 115l-136 -158l-65 57l140 164q-158 194 -158 542q0 255 85 424.5t237.5 251.5t356.5 82q140 0 256.5 -38.5t203.5 -115.5l136 159l65 -57l-141 -165q158 -192 158 -541zM371 295l819 957
q-137 136 -381 136q-257 0 -402.5 -156t-145.5 -487q0 -287 110 -450zM1211.5 248.5q145.5 156.5 145.5 486.5q0 286 -111 450l-819 -958q136 -135 382 -135q257 0 402.5 156.5zM738 1612l219 278h143l-241 -278h-121z" />
    <glyph glyph-name="oslashacute" unicode="&#x1ff;" horiz-adv-x="1241" 
d="M1122 541q0 -186 -62.5 -311.5t-175 -187t-264.5 -61.5q-192 0 -315 92l-78 -99l-63 52l81 103q-126 143 -126 412q0 187 61.5 311.5t174 185.5t265.5 61q192 0 315 -89l79 99l64 -52l-82 -104q126 -142 126 -412zM245 543q0 -207 76 -319l545 694q-90 76 -246 76
q-375 0 -375 -451zM996 540q0 207 -77 319l-544 -695q92 -77 245 -77q376 0 376 453zM548 1258l267 358h144l-287 -358h-124z" />
    <glyph glyph-name="uni0200" unicode="&#x200;" horiz-adv-x="1487" 
d="M1313 0l-206 501h-729l-206 -501h-129l615 1480h171l614 -1480h-130zM422 607h641l-321 779zM514 1612l-167 278h111l160 -278h-104zM870 1612l-168 278h111l161 -278h-104z" />
    <glyph glyph-name="uni0201" unicode="&#x201;" horiz-adv-x="1140" 
d="M777 1063q96 -36 145.5 -120t49.5 -228v-715h-106l-10 128h-9q-62 -66 -160.5 -105.5t-207.5 -39.5q-112 0 -192 35.5t-122 101t-42 154.5q0 138 97.5 213t315.5 99l313 36v97q0 108 -36.5 168.5t-106.5 84.5t-182 24q-78 0 -164 -13t-167 -42v104q73 26 163.5 40
t177.5 14q147 0 243 -36zM688.5 118.5q89.5 37.5 160.5 111.5v302l-308 -36q-156 -18 -222.5 -69t-66.5 -144q0 -97 61.5 -149.5t187.5 -52.5q98 0 187.5 37.5zM337 1258l-188 358h113l179 -358h-104zM693 1258l-188 358h112l180 -358h-104z" />
    <glyph glyph-name="uni0202" unicode="&#x202;" horiz-adv-x="1487" 
d="M1313 0l-206 501h-729l-206 -501h-129l615 1480h171l614 -1480h-130zM422 607h641l-321 779zM496.5 1813q84.5 67 245.5 67t247.5 -67.5t99.5 -176.5h-90q-14 78 -73.5 120.5t-183.5 42.5q-123 0 -181 -42.5t-72 -120.5h-90q13 110 97.5 177z" />
    <glyph glyph-name="uni0203" unicode="&#x203;" horiz-adv-x="1140" 
d="M777 1063q96 -36 145.5 -120t49.5 -228v-715h-106l-10 128h-9q-62 -66 -160.5 -105.5t-207.5 -39.5q-112 0 -192 35.5t-122 101t-42 154.5q0 138 97.5 213t315.5 99l313 36v97q0 108 -36.5 168.5t-106.5 84.5t-182 24q-78 0 -164 -13t-167 -42v104q73 26 163.5 40
t177.5 14q147 0 243 -36zM688.5 118.5q89.5 37.5 160.5 111.5v302l-308 -36q-156 -18 -222.5 -69t-66.5 -144q0 -97 61.5 -149.5t187.5 -52.5q98 0 187.5 37.5zM332 1519.5q82 86.5 233 86.5q101 0 173 -40.5t110 -112.5t43 -167h-89q-9 112 -66.5 175t-170.5 63
q-112 0 -168 -63t-65 -175h-89q7 147 89 233.5z" />
    <glyph glyph-name="uni0204" unicode="&#x204;" horiz-adv-x="1314" 
d="M329 106h880v-106h-1005v1480h995v-106h-870v-561h770v-106h-770v-601zM493 1612l-167 278h111l160 -278h-104zM849 1612l-168 278h111l161 -278h-104z" />
    <glyph glyph-name="uni0205" unicode="&#x205;" horiz-adv-x="1149" 
d="M1050 498h-805q7 -215 117 -314.5t323 -99.5q135 0 310 51v-103q-173 -51 -324 -51q-270 0 -411 138t-141 422q0 182 56.5 307t162.5 188t254 63q221 0 339.5 -143t118.5 -417v-41zM245 589h685q-5 211 -90.5 313t-248.5 102q-336 0 -346 -415zM366 1258l-188 358h113
l179 -358h-104zM722 1258l-188 358h112l180 -358h-104z" />
    <glyph glyph-name="uni0206" unicode="&#x206;" horiz-adv-x="1314" 
d="M329 106h880v-106h-1005v1480h995v-106h-870v-561h770v-106h-770v-601zM475.5 1813q84.5 67 245.5 67t247.5 -67.5t99.5 -176.5h-90q-14 78 -73.5 120.5t-183.5 42.5q-123 0 -181 -42.5t-72 -120.5h-90q13 110 97.5 177z" />
    <glyph glyph-name="uni0207" unicode="&#x207;" horiz-adv-x="1149" 
d="M1050 498h-805q7 -215 117 -314.5t323 -99.5q135 0 310 51v-103q-173 -51 -324 -51q-270 0 -411 138t-141 422q0 182 56.5 307t162.5 188t254 63q221 0 339.5 -143t118.5 -417v-41zM245 589h685q-5 211 -90.5 313t-248.5 102q-336 0 -346 -415zM361 1519.5
q82 86.5 233 86.5q101 0 173 -40.5t110 -112.5t43 -167h-89q-9 112 -66.5 175t-170.5 63q-112 0 -168 -63t-65 -175h-89q7 147 89 233.5z" />
    <glyph glyph-name="uni0208" unicode="&#x208;" horiz-adv-x="533" 
d="M204 0v1480h126v-1480h-126zM37 1612l-167 278h111l160 -278h-104zM393 1612l-168 278h111l161 -278h-104z" />
    <glyph glyph-name="uni0209" unicode="&#x209;" horiz-adv-x="493" 
d="M185 0v1083h124v-1083h-124zM17 1258l-188 358h113l179 -358h-104zM373 1258l-188 358h112l180 -358h-104z" />
    <glyph glyph-name="uni020A" unicode="&#x20a;" horiz-adv-x="533" 
d="M204 0v1480h126v-1480h-126zM19.5 1813q84.5 67 245.5 67t247.5 -67.5t99.5 -176.5h-90q-14 78 -73.5 120.5t-183.5 42.5q-123 0 -181 -42.5t-72 -120.5h-90q13 110 97.5 177z" />
    <glyph glyph-name="uni020B" unicode="&#x20b;" horiz-adv-x="493" 
d="M185 0v1083h124v-1083h-124zM12 1519.5q82 86.5 233 86.5q101 0 173 -40.5t110 -112.5t43 -167h-89q-9 112 -66.5 175t-170.5 63q-112 0 -168 -63t-65 -175h-89q7 147 89 233.5z" />
    <glyph glyph-name="uni020C" unicode="&#x20c;" horiz-adv-x="1617" 
d="M450 64q-152 82 -236 251.5t-84 424.5t85 424.5t237.5 251.5t356.5 82q206 0 358 -82t236 -251.5t84 -424.5t-85 -424.5t-237 -251.5t-356 -82q-207 0 -359 82zM1211.5 248.5q145.5 156.5 145.5 486.5q0 337 -145.5 495t-402.5 158t-402.5 -156t-145.5 -487
q0 -338 145 -495.5t403 -157.5q257 0 402.5 156.5zM579 1612l-167 278h111l160 -278h-104zM935 1612l-168 278h111l161 -278h-104z" />
    <glyph glyph-name="uni020D" unicode="&#x20d;" horiz-adv-x="1241" 
d="M252.5 120q-133.5 139 -133.5 421q0 187 61.5 311.5t174 185.5t265.5 61q237 0 369.5 -137.5t132.5 -420.5q0 -186 -62.5 -311.5t-175 -187t-264.5 -61.5q-234 0 -367.5 139zM995 540q0 237 -97.5 345t-277.5 108q-374 0 -374 -450q0 -456 374 -456q375 0 375 453z
M390 1258l-188 358h113l179 -358h-104zM746 1258l-188 358h112l180 -358h-104z" />
    <glyph glyph-name="uni020E" unicode="&#x20e;" horiz-adv-x="1617" 
d="M450 64q-152 82 -236 251.5t-84 424.5t85 424.5t237.5 251.5t356.5 82q206 0 358 -82t236 -251.5t84 -424.5t-85 -424.5t-237 -251.5t-356 -82q-207 0 -359 82zM1211.5 248.5q145.5 156.5 145.5 486.5q0 337 -145.5 495t-402.5 158t-402.5 -156t-145.5 -487
q0 -338 145 -495.5t403 -157.5q257 0 402.5 156.5zM561.5 1813q84.5 67 245.5 67t247.5 -67.5t99.5 -176.5h-90q-14 78 -73.5 120.5t-183.5 42.5q-123 0 -181 -42.5t-72 -120.5h-90q13 110 97.5 177z" />
    <glyph glyph-name="uni020F" unicode="&#x20f;" horiz-adv-x="1241" 
d="M252.5 120q-133.5 139 -133.5 421q0 187 61.5 311.5t174 185.5t265.5 61q237 0 369.5 -137.5t132.5 -420.5q0 -186 -62.5 -311.5t-175 -187t-264.5 -61.5q-234 0 -367.5 139zM995 540q0 237 -97.5 345t-277.5 108q-374 0 -374 -450q0 -456 374 -456q375 0 375 453z
M385 1519.5q82 86.5 233 86.5q101 0 173 -40.5t110 -112.5t43 -167h-89q-9 112 -66.5 175t-170.5 63q-112 0 -168 -63t-65 -175h-89q7 147 89 233.5z" />
    <glyph glyph-name="uni0210" unicode="&#x210;" horiz-adv-x="1434" 
d="M1204 0l-522 630q-54 -2 -84 -2q-70 0 -128.5 3t-141.5 9v-640h-124v1451q102 21 204.5 32.5t224.5 11.5q211 0 345.5 -44.5t200.5 -139t66 -246.5q0 -356 -428 -422l535 -643h-148zM464.5 734q54.5 -3 138.5 -3q184 0 299 36.5t168.5 109.5t53.5 185q0 123 -50 195
t-156 103.5t-281 31.5q-93 0 -161.5 -6.5t-147.5 -20.5v-621q82 -7 136.5 -10zM465 1612l-167 278h111l160 -278h-104zM821 1612l-168 278h111l161 -278h-104z" />
    <glyph glyph-name="uni0211" unicode="&#x211;" horiz-adv-x="805" 
d="M185 1083h104l11 -145h9q65 71 165.5 112.5t203.5 41.5q61 0 112 -9v-116q-49 8 -116 8q-96 0 -197.5 -40t-167.5 -120v-815h-124v1083zM257 1258l-188 358h113l179 -358h-104zM613 1258l-188 358h112l180 -358h-104z" />
    <glyph glyph-name="uni0212" unicode="&#x212;" horiz-adv-x="1434" 
d="M1204 0l-522 630q-54 -2 -84 -2q-70 0 -128.5 3t-141.5 9v-640h-124v1451q102 21 204.5 32.5t224.5 11.5q211 0 345.5 -44.5t200.5 -139t66 -246.5q0 -356 -428 -422l535 -643h-148zM464.5 734q54.5 -3 138.5 -3q184 0 299 36.5t168.5 109.5t53.5 185q0 123 -50 195
t-156 103.5t-281 31.5q-93 0 -161.5 -6.5t-147.5 -20.5v-621q82 -7 136.5 -10zM447.5 1813q84.5 67 245.5 67t247.5 -67.5t99.5 -176.5h-90q-14 78 -73.5 120.5t-183.5 42.5q-123 0 -181 -42.5t-72 -120.5h-90q13 110 97.5 177z" />
    <glyph glyph-name="uni0213" unicode="&#x213;" horiz-adv-x="805" 
d="M185 1083h104l11 -145h9q65 71 165.5 112.5t203.5 41.5q61 0 112 -9v-116q-49 8 -116 8q-96 0 -197.5 -40t-167.5 -120v-815h-124v1083zM252 1519.5q82 86.5 233 86.5q101 0 173 -40.5t110 -112.5t43 -167h-89q-9 112 -66.5 175t-170.5 63q-112 0 -168 -63t-65 -175h-89
q7 147 89 233.5z" />
    <glyph glyph-name="uni0214" unicode="&#x214;" horiz-adv-x="1576" 
d="M455 46q-131 64 -195 196.5t-64 341.5v896h126v-910q0 -168 50.5 -273t153 -155t263.5 -50t264 50t153.5 155t50.5 273v910h123v-896q0 -209 -63.5 -341.5t-194 -196.5t-333.5 -64t-334 64zM559 1612l-167 278h111l160 -278h-104zM915 1612l-168 278h111l161 -278h-104z
" />
    <glyph glyph-name="uni0215" unicode="&#x215;" horiz-adv-x="1265" 
d="M272.5 80q-104.5 98 -104.5 307v696h124v-690q0 -159 75.5 -229.5t212.5 -70.5q102 0 202 40.5t174 119.5v830h124v-1083h-105l-9 123h-9q-80 -69 -181.5 -105t-213.5 -36q-185 0 -289.5 98zM394 1258l-188 358h113l179 -358h-104zM750 1258l-188 358h112l180 -358h-104z
" />
    <glyph glyph-name="uni0216" unicode="&#x216;" horiz-adv-x="1576" 
d="M455 46q-131 64 -195 196.5t-64 341.5v896h126v-910q0 -168 50.5 -273t153 -155t263.5 -50t264 50t153.5 155t50.5 273v910h123v-896q0 -209 -63.5 -341.5t-194 -196.5t-333.5 -64t-334 64zM541.5 1813q84.5 67 245.5 67t247.5 -67.5t99.5 -176.5h-90q-14 78 -73.5 120.5
t-183.5 42.5q-123 0 -181 -42.5t-72 -120.5h-90q13 110 97.5 177z" />
    <glyph glyph-name="uni0217" unicode="&#x217;" horiz-adv-x="1265" 
d="M272.5 80q-104.5 98 -104.5 307v696h124v-690q0 -159 75.5 -229.5t212.5 -70.5q102 0 202 40.5t174 119.5v830h124v-1083h-105l-9 123h-9q-80 -69 -181.5 -105t-213.5 -36q-185 0 -289.5 98zM389 1519.5q82 86.5 233 86.5q101 0 173 -40.5t110 -112.5t43 -167h-89
q-9 112 -66.5 175t-170.5 63q-112 0 -168 -63t-65 -175h-89q7 147 89 233.5z" />
    <glyph glyph-name="Scommaaccent" unicode="&#x218;" horiz-adv-x="1186" 
d="M318.5 -1.5q-105.5 16.5 -200.5 48.5v110q102 -34 208 -50.5t203 -16.5q432 0 432 300q0 83 -36 137.5t-113 89.5t-207 61l-82 16q-221 42 -323.5 139t-102.5 259q0 126 62 217t185.5 140t305.5 49q203 0 374 -53v-110q-180 55 -375 55q-213 0 -319 -75t-106 -217
q0 -83 32 -138t103 -91t193 -60l83 -16q162 -32 262 -84.5t146 -129t46 -183.5q0 -132 -66 -225t-192 -141t-304 -48q-103 0 -208.5 16.5zM666 -198q23 -25 23 -74q0 -41 -13 -91t-38 -95h-77q33 81 37 139q-40 1 -62.5 21t-22.5 53t22.5 52.5t62.5 19.5q45 0 68 -25z" />
    <glyph glyph-name="scommaaccent" unicode="&#x219;" horiz-adv-x="1019" 
d="M138 27v102q91 -26 171.5 -37t170.5 -11q172 0 249 51.5t77 150.5q0 54 -19 90t-64.5 59.5t-124.5 37.5l-176 30q-158 28 -229 100t-71 191q0 141 112 224.5t343 83.5q152 0 290 -39v-101q-77 21 -145 30.5t-144 9.5q-178 0 -255 -54t-77 -150q0 -74 44 -121t155 -67
l176 -30q162 -28 235 -95.5t73 -189.5q0 -146 -113.5 -228.5t-339.5 -82.5q-186 0 -338 46zM580 -198q23 -25 23 -74q0 -41 -13 -91t-38 -95h-77q33 81 37 139q-40 1 -62.5 21t-22.5 53t22.5 52.5t62.5 19.5q45 0 68 -25z" />
    <glyph glyph-name="uni021A" unicode="&#x21a;" horiz-adv-x="1285" 
d="M580 0v1371h-560v109h1244v-109h-559v-1371h-125zM707 -198q23 -25 23 -74q0 -41 -13 -91t-38 -95h-77q33 81 37 139q-40 1 -62.5 21t-22.5 53t22.5 52.5t62.5 19.5q45 0 68 -25z" />
    <glyph glyph-name="uni021B" unicode="&#x21b;" horiz-adv-x="828" 
d="M727 94.5q37 4.5 86 15.5v-107q-51 -12 -93.5 -17t-90.5 -5q-184 0 -282 92.5t-98 280.5v623h-231v106h231l20 397h104v-397h419v-106h-419v-601q0 -151 70 -218.5t209 -67.5q38 0 75 4.5zM597 -198q23 -25 23 -74q0 -41 -13 -91t-38 -95h-77q33 81 37 139
q-40 1 -62.5 21t-22.5 53t22.5 52.5t62.5 19.5q45 0 68 -25z" />
    <glyph glyph-name="uni022A" unicode="&#x22a;" horiz-adv-x="1617" 
d="M450 64q-152 82 -236 251.5t-84 424.5t85 424.5t237.5 251.5t356.5 82q206 0 358 -82t236 -251.5t84 -424.5t-85 -424.5t-237 -251.5t-356 -82q-207 0 -359 82zM1211.5 248.5q145.5 156.5 145.5 486.5q0 337 -145.5 495t-402.5 158t-402.5 -156t-145.5 -487
q0 -338 145 -495.5t403 -157.5q257 0 402.5 156.5zM481 1694q-23 21 -23 58q0 36 23 58t63 22q39 0 62 -22t23 -58q0 -37 -22.5 -58t-62.5 -21t-63 21zM1011.5 1694q-22.5 21 -22.5 58q0 36 23 58t62 22q40 0 63 -22t23 -58q0 -37 -23 -58t-63 -21t-62.5 21zM489 1995v86
h640v-86h-640z" />
    <glyph glyph-name="uni022B" unicode="&#x22b;" horiz-adv-x="1241" 
d="M252.5 120q-133.5 139 -133.5 421q0 187 61.5 311.5t174 185.5t265.5 61q237 0 369.5 -137.5t132.5 -420.5q0 -186 -62.5 -311.5t-175 -187t-264.5 -61.5q-234 0 -367.5 139zM995 540q0 237 -97.5 345t-277.5 108q-374 0 -374 -450q0 -456 374 -456q375 0 375 453z
M310 1361q-23 22 -23 60q0 39 23 62t63 23t63.5 -23t23.5 -62q0 -38 -23 -60t-64 -22q-40 0 -63 22zM803 1361q-23 22 -23 60q0 39 23.5 62t63.5 23q39 0 62.5 -23t23.5 -62q0 -38 -23 -60t-63 -22q-41 0 -64 22zM290 1744v87h660v-87h-660z" />
    <glyph glyph-name="uni022C" unicode="&#x22c;" horiz-adv-x="1617" 
d="M450 64q-152 82 -236 251.5t-84 424.5t85 424.5t237.5 251.5t356.5 82q206 0 358 -82t236 -251.5t84 -424.5t-85 -424.5t-237 -251.5t-356 -82q-207 0 -359 82zM1211.5 248.5q145.5 156.5 145.5 486.5q0 337 -145.5 495t-402.5 158t-402.5 -156t-145.5 -487
q0 -338 145 -495.5t403 -157.5q257 0 402.5 156.5zM890 1692q-40 10 -97 29q-50 18 -83 26.5t-68 8.5q-58 0 -101 -16.5t-83 -52.5v91q32 32 77.5 47t108.5 15q44 0 84 -10t97 -29q50 -18 83 -26.5t68 -8.5q58 0 101 16.5t83 52.5v-91q-32 -32 -77.5 -47t-108.5 -15
q-44 0 -84 10zM489 1995v86h640v-86h-640z" />
    <glyph glyph-name="uni022D" unicode="&#x22d;" horiz-adv-x="1241" 
d="M252.5 120q-133.5 139 -133.5 421q0 187 61.5 311.5t174 185.5t265.5 61q237 0 369.5 -137.5t132.5 -420.5q0 -186 -62.5 -311.5t-175 -187t-264.5 -61.5q-234 0 -367.5 139zM995 540q0 237 -97.5 345t-277.5 108q-374 0 -374 -450q0 -456 374 -456q375 0 375 453z
M694.5 1370.5q-38.5 10.5 -90.5 31.5q-50 19 -80 27.5t-60 8.5q-51 0 -93 -17.5t-81 -55.5v95q65 64 176 64q42 0 80 -10.5t90 -31.5q50 -19 80 -27.5t60 -8.5q51 0 93 17.5t81 55.5v-95q-65 -64 -176 -64q-41 0 -79.5 10.5zM290 1744v87h660v-87h-660z" />
    <glyph glyph-name="uni0230" unicode="&#x230;" horiz-adv-x="1617" 
d="M450 64q-152 82 -236 251.5t-84 424.5t85 424.5t237.5 251.5t356.5 82q206 0 358 -82t236 -251.5t84 -424.5t-85 -424.5t-237 -251.5t-356 -82q-207 0 -359 82zM1211.5 248.5q145.5 156.5 145.5 486.5q0 337 -145.5 495t-402.5 158t-402.5 -156t-145.5 -487
q0 -338 145 -495.5t403 -157.5q257 0 402.5 156.5zM742 1694.5q-24 21.5 -24 57.5t24 58t67 22t67 -22t24 -58t-24 -57.5t-67 -21.5t-67 21.5zM489 1995v86h640v-86h-640z" />
    <glyph glyph-name="uni0231" unicode="&#x231;" horiz-adv-x="1241" 
d="M252.5 120q-133.5 139 -133.5 421q0 187 61.5 311.5t174 185.5t265.5 61q237 0 369.5 -137.5t132.5 -420.5q0 -186 -62.5 -311.5t-175 -187t-264.5 -61.5q-234 0 -367.5 139zM995 540q0 237 -97.5 345t-277.5 108q-374 0 -374 -450q0 -456 374 -456q375 0 375 453z
M552.5 1360q-24.5 22 -24.5 61q0 40 24.5 62.5t67.5 22.5t67.5 -22.5t24.5 -62.5q0 -39 -24.5 -61t-67.5 -22t-67.5 22zM290 1666v87h660v-87h-660z" />
    <glyph glyph-name="uni0232" unicode="&#x232;" horiz-adv-x="1285" 
d="M1297 1480l-591 -813v-667h-126v667l-602 813h146l521 -706l514 706h138zM322 1708v86h640v-86h-640z" />
    <glyph glyph-name="uni0233" unicode="&#x233;" horiz-adv-x="1173" 
d="M1019 1083h124l-671 -1523h-126l194 440h-32l-477 1083h134l424 -986zM258 1380v87h660v-87h-660z" />
    <glyph glyph-name="uni0237" unicode="&#x237;" horiz-adv-x="493" 
d="M-18 -404q106 127 154.5 264.5t48.5 307.5v915h124v-909q0 -187 -58.5 -338.5t-186.5 -297.5z" />
    <glyph glyph-name="uni0259" unicode="&#x259;" horiz-adv-x="1149" 
d="M889 964q141 -138 141 -422q0 -182 -56.5 -307t-162.5 -188t-254 -63q-221 0 -339.5 143t-118.5 417v41h805q-7 215 -117 314.5t-323 99.5q-135 0 -310 -51v103q173 51 324 51q270 0 411 -138zM904 494h-685q5 -211 90.5 -313t248.5 -102q336 0 346 415z" />
    <glyph glyph-name="uni02BB" unicode="&#x2bb;" horiz-adv-x="1200" 
d="M666 1464.5q22 -19.5 22 -52.5q0 -34 -22 -53.5t-63 -19.5q-45 0 -68 25t-23 74q0 42 13 92t38 95h77q-33 -82 -37 -140q41 -1 63 -20.5z" />
    <glyph glyph-name="uni02BC" unicode="&#x2bc;" horiz-adv-x="1200" 
d="M753.5 1599.5q23.5 -25.5 23.5 -73.5q0 -41 -13.5 -91.5t-38.5 -95.5h-77q32 75 37 139q-40 1 -62.5 21t-22.5 53t22.5 53t62.5 20q45 0 68.5 -25.5z" />
    <glyph glyph-name="uni02BE" unicode="&#x2be;" horiz-adv-x="1200" 
d="M600 1318q55 0 89 33.5t34 91.5q0 57 -34 91t-89 34v64q54 0 97.5 -24.5t68 -67.5t24.5 -97t-24.5 -97.5t-68 -68t-97.5 -24.5v65z" />
    <glyph glyph-name="uni02BF" unicode="&#x2bf;" horiz-adv-x="1200" 
d="M502.5 1277.5q-43.5 24.5 -68 68t-24.5 97.5t24.5 97t68 67.5t97.5 24.5v-64q-55 0 -89 -34t-34 -91q0 -58 34 -91.5t89 -33.5v-65q-54 0 -97.5 24.5z" />
    <glyph glyph-name="circumflex" unicode="&#x2c6;" horiz-adv-x="1200" 
d="M921 1258h-114l-207 287l-207 -287h-114l263 358h116z" />
    <glyph glyph-name="caron" unicode="&#x2c7;" horiz-adv-x="1200" 
d="M814 1616h114l-270 -358h-116l-270 358h114l214 -290z" />
    <glyph glyph-name="uni02C8" unicode="&#x2c8;" horiz-adv-x="1200" 
d="M562 1218v400h76v-400h-76z" />
    <glyph glyph-name="uni02C9" unicode="&#x2c9;" horiz-adv-x="1200" 
d="M270 1380v87h660v-87h-660z" />
    <glyph glyph-name="uni02CA" unicode="&#x2ca;" horiz-adv-x="1200" 
d="M537 1258l266 358h147l-287 -358h-126z" />
    <glyph glyph-name="uni02CB" unicode="&#x2cb;" horiz-adv-x="1200" 
d="M537 1258l-287 358h147l266 -358h-126z" />
    <glyph glyph-name="uni02CC" unicode="&#x2cc;" horiz-adv-x="1200" 
d="M562 -440v400h76v-400h-76z" />
    <glyph glyph-name="breve" unicode="&#x2d8;" horiz-adv-x="1200" 
d="M429 1309.5q-72 40.5 -110 112.5t-43 167h89q9 -113 66 -176.5t171 -63.5q214 0 233 240h89q-7 -147 -89.5 -233.5t-232.5 -86.5q-101 0 -173 40.5z" />
    <glyph glyph-name="dotaccent" unicode="&#x2d9;" horiz-adv-x="1200" 
d="M532.5 1360q-24.5 22 -24.5 61q0 40 24.5 62.5t67.5 22.5t67.5 -22.5t24.5 -62.5q0 -39 -24.5 -61t-67.5 -22t-67.5 22z" />
    <glyph glyph-name="ring" unicode="&#x2da;" horiz-adv-x="1200" 
d="M502.5 1277.5q-43.5 24.5 -68 68t-24.5 97.5t24.5 97t68 67.5t97.5 24.5t97.5 -24.5t68 -67.5t24.5 -97t-24.5 -97.5t-68 -68t-97.5 -24.5t-97.5 24.5zM689 1351.5q34 33.5 34 91.5q0 57 -34 91t-89 34t-89 -34t-34 -91q0 -58 34 -91.5t89 -33.5t89 33.5z" />
    <glyph glyph-name="ogonek" unicode="&#x2db;" horiz-adv-x="1200" 
d="M362.5 -360.5q-57.5 47.5 -57.5 129.5q0 86 59 155.5t188 127.5l36 -52q-106 -54 -152 -106t-46 -118q0 -53 37 -84.5t101 -31.5q82 0 164 43v-71q-38 -19 -83 -29.5t-88 -10.5q-101 0 -158.5 47.5z" />
    <glyph glyph-name="tilde" unicode="&#x2dc;" horiz-adv-x="1200" 
d="M674.5 1370.5q-38.5 10.5 -90.5 31.5q-50 19 -80 27.5t-60 8.5q-51 0 -93 -17.5t-81 -55.5v95q65 64 176 64q42 0 80 -10.5t90 -31.5q50 -19 80 -27.5t60 -8.5q51 0 93 17.5t81 55.5v-95q-65 -64 -176 -64q-41 0 -79.5 10.5z" />
    <glyph glyph-name="hungarumlaut" unicode="&#x2dd;" horiz-adv-x="1200" 
d="M374 1258l179 358h109l-188 -358h-100zM726 1258l179 358h109l-188 -358h-100z" />
    <glyph glyph-name="gravecomb" unicode="&#x300;" horiz-adv-x="0" 
d="M-662 1258l-287 358h144l267 -358h-124z" />
    <glyph glyph-name="acutecomb" unicode="&#x301;" horiz-adv-x="0" 
d="M-662 1258l267 358h144l-287 -358h-124z" />
    <glyph glyph-name="uni0302" unicode="&#x302;" horiz-adv-x="0" 
d="M-279 1258h-114l-207 287l-207 -287h-114l263 358h116z" />
    <glyph glyph-name="tildecomb" unicode="&#x303;" horiz-adv-x="0" 
d="M-525.5 1370.5q-38.5 10.5 -90.5 31.5q-50 19 -80 27.5t-60 8.5q-51 0 -93 -17.5t-81 -55.5v95q65 64 176 64q42 0 80 -10.5t90 -31.5q50 -19 80 -27.5t60 -8.5q51 0 93 17.5t81 55.5v-95q-65 -64 -176 -64q-41 0 -79.5 10.5z" />
    <glyph glyph-name="uni0304" unicode="&#x304;" horiz-adv-x="0" 
d="M-930 1380v87h660v-87h-660z" />
    <glyph glyph-name="uni0306" unicode="&#x306;" horiz-adv-x="0" 
d="M-771 1309.5q-72 40.5 -110 112.5t-43 167h89q9 -113 66 -176.5t171 -63.5q214 0 233 240h89q-7 -147 -89.5 -233.5t-232.5 -86.5q-101 0 -173 40.5z" />
    <glyph glyph-name="uni0307" unicode="&#x307;" horiz-adv-x="0" 
d="M-667.5 1360q-24.5 22 -24.5 61q0 40 24.5 62.5t67.5 22.5t67.5 -22.5t24.5 -62.5q0 -39 -24.5 -61t-67.5 -22t-67.5 22z" />
    <glyph glyph-name="uni0308" unicode="&#x308;" horiz-adv-x="0" 
d="M-910 1361q-23 22 -23 60q0 39 23 62t63 23t63.5 -23t23.5 -62q0 -38 -23 -60t-64 -22q-40 0 -63 22zM-417 1361q-23 22 -23 60q0 39 23.5 62t63.5 23q39 0 62.5 -23t23.5 -62q0 -38 -23 -60t-63 -22q-41 0 -64 22z" />
    <glyph glyph-name="hookabovecomb" unicode="&#x309;" horiz-adv-x="0" 
d="M-624.5 1323.5q15.5 27.5 36.5 44.5t53 37q36 22 53 38.5t17 42.5q0 37 -33.5 54.5t-103.5 17.5q-42 0 -87.5 -6t-83.5 -18v70q34 11 80.5 17.5t89.5 6.5q219 0 219 -138q0 -45 -22.5 -71t-66.5 -53q-41 -27 -61.5 -48.5t-22.5 -59.5h-84q1 38 16.5 65.5z" />
    <glyph glyph-name="uni030A" unicode="&#x30a;" horiz-adv-x="0" 
d="M-697.5 1277.5q-43.5 24.5 -68 68t-24.5 97.5t24.5 97t68 67.5t97.5 24.5t97.5 -24.5t68 -67.5t24.5 -97t-24.5 -97.5t-68 -68t-97.5 -24.5t-97.5 24.5zM-511 1351.5q34 33.5 34 91.5q0 57 -34 91t-89 34t-89 -34t-34 -91q0 -58 34 -91.5t89 -33.5t89 33.5z" />
    <glyph glyph-name="uni030B" unicode="&#x30b;" horiz-adv-x="0" 
d="M-826 1258l179 358h109l-188 -358h-100zM-474 1258l179 358h109l-188 -358h-100z" />
    <glyph glyph-name="uni030C" unicode="&#x30c;" horiz-adv-x="0" 
d="M-386 1616h114l-270 -358h-116l-270 358h114l214 -290z" />
    <glyph glyph-name="uni030F" unicode="&#x30f;" horiz-adv-x="0" 
d="M-830 1258l-188 358h113l179 -358h-104zM-474 1258l-188 358h112l180 -358h-104z" />
    <glyph glyph-name="uni0311" unicode="&#x311;" horiz-adv-x="0" 
d="M-835 1519.5q82 86.5 233 86.5q101 0 173 -40.5t110 -112.5t43 -167h-89q-9 112 -66.5 175t-170.5 63q-112 0 -168 -63t-65 -175h-89q7 147 89 233.5z" />
    <glyph glyph-name="uni0312" unicode="&#x312;" horiz-adv-x="0" 
d="M-534 1464.5q22 -19.5 22 -52.5q0 -34 -22 -53.5t-63 -19.5q-45 0 -68 25t-23 74q0 42 13 92t38 95h77q-33 -82 -37 -140q41 -1 63 -20.5z" />
    <glyph glyph-name="uni031B" unicode="&#x31b;" horiz-adv-x="0" 
d="M-628 1480h54q216 0 216 167q0 38 -5.5 71t-18.5 71h96q13 -37 18.5 -70t5.5 -75q0 -119 -77.5 -184.5t-221.5 -65.5h-67v86z" />
    <glyph glyph-name="dotbelowcomb" unicode="&#x323;" horiz-adv-x="0" 
d="M-663 -315q-23 22 -23 59q0 38 23 60.5t63 22.5t63 -22.5t23 -60.5q0 -37 -23 -59t-63 -22t-63 22z" />
    <glyph glyph-name="uni0324" unicode="&#x324;" horiz-adv-x="0" 
d="M-910 -317.5q-23 22.5 -23 60.5t23 61t63 23t63.5 -23t23.5 -61t-23.5 -60.5t-63.5 -22.5t-63 22.5zM-416.5 -317.5q-23.5 22.5 -23.5 60.5t23.5 61t63.5 23t63 -23t23 -61t-23 -60.5t-63 -22.5t-63.5 22.5z" />
    <glyph glyph-name="uni0326" unicode="&#x326;" horiz-adv-x="0" 
d="M-535 -198q23 -25 23 -74q0 -41 -13 -91t-38 -95h-77q33 81 37 139q-40 1 -62.5 21t-22.5 53t22.5 52.5t62.5 19.5q45 0 68 -25z" />
    <glyph glyph-name="uni0327" unicode="&#x327;" horiz-adv-x="0" 
d="M-431.5 -150.5q44.5 -39.5 44.5 -106.5q0 -73 -53 -112t-149 -39q-50 0 -100.5 10t-85.5 28v70q88 -42 183 -42q63 0 94 21.5t31 66.5t-31 66t-95 21h-42v187h77v-126q82 -5 126.5 -44.5z" />
    <glyph glyph-name="uni0328" unicode="&#x328;" horiz-adv-x="0" 
d="M-837.5 -360.5q-57.5 47.5 -57.5 129.5q0 86 59 155.5t188 127.5l36 -52q-106 -54 -152 -106t-46 -118q0 -53 37 -84.5t101 -31.5q82 0 164 43v-71q-38 -19 -83 -29.5t-88 -10.5q-101 0 -158.5 47.5z" />
    <glyph glyph-name="uni032E" unicode="&#x32e;" horiz-adv-x="0" 
d="M-775 -378.5q-73 33.5 -110 91t-39 130.5h89q5 -81 62.5 -126.5t174.5 -45.5q223 0 233 172h89q-2 -74 -38 -131.5t-108 -90.5t-176 -33t-177 33.5z" />
    <glyph glyph-name="uni0331" unicode="&#x331;" horiz-adv-x="0" 
d="M-899 -300v87h598v-87h-598z" />
    <glyph glyph-name="uni0394" unicode="&#x394;" horiz-adv-x="1487" 
d="M829 1480l614 -1480h-1400l615 1480h171zM742 1386l-528 -1280h1057z" />
    <glyph glyph-name="uni03A9" unicode="&#x3a9;" horiz-adv-x="1617" 
d="M1391.5 396.5q-95.5 -173.5 -279.5 -291.5h375v-105h-548v92q210 127 314 297t104 400q0 188 -62.5 322.5t-185 205.5t-300.5 71t-300.5 -71t-185 -205.5t-62.5 -322.5q0 -231 103.5 -400.5t314.5 -296.5v-92h-549v105h375q-184 118 -279.5 291.5t-95.5 403.5
q0 214 79.5 371t232 242t367.5 85q214 0 366.5 -85t232 -242t79.5 -371q0 -230 -95.5 -403.5z" />
    <glyph glyph-name="uni03BC" unicode="&#x3bc;" horiz-adv-x="1265" 
d="M1080 1083v-1083h-105l-9 123h-9q-78 -69 -176.5 -105t-206.5 -36q-193 0 -282 115v-537h-124v1523h124v-690q0 -159 75.5 -229.5t212.5 -70.5q102 0 202 40.5t174 119.5v830h124z" />
    <glyph glyph-name="pi" unicode="&#x3c0;" horiz-adv-x="1430" 
d="M1414 105v-108q-80 -16 -139 -16q-145 0 -221.5 76.5t-77.5 241.5l-3 678h-600v-979h-124v979h-231v106h1314v-106h-232v-656q0 -86 21.5 -137t64.5 -72.5t112 -21.5q55 0 116 15z" />
    <glyph glyph-name="uni1E08" unicode="&#x1e08;" horiz-adv-x="1303" 
d="M1078 1890l-241 -278h-121l219 278h143zM419.5 1233q-156.5 -155 -156.5 -491q0 -348 154.5 -499t444.5 -151q101 0 191 14.5t193 49.5v-112q-176 -62 -390 -62h-27v-88q91 -4 141 -42.5t50 -108.5q0 -74 -58.5 -112.5t-163.5 -38.5q-54 0 -108 10t-98 28v70
q106 -42 203 -42q145 0 145 87q0 46 -37 67t-110 21h-41v153q-295 25 -458.5 206.5t-163.5 545.5q0 383 195 571.5t548 188.5q102 0 191 -12.5t182 -38.5v-111q-184 52 -370 52q-300 0 -456.5 -155z" />
    <glyph glyph-name="uni1E09" unicode="&#x1e09;" horiz-adv-x="985" 
d="M933 1616l-287 -358h-124l267 358h144zM260.5 960.5q141.5 138.5 414.5 138.5q140 0 257 -35v-108q-127 36 -251 36q-219 0 -326 -107.5t-107 -340.5q0 -236 100 -346t298 -110q123 0 286 53v-107q-142 -53 -298 -53h-9v-87q82 -5 126.5 -44.5t44.5 -106.5
q0 -73 -53 -112t-149 -39q-50 0 -100.5 10t-85.5 28v70q88 -42 183 -42q63 0 94 21.5t31 66.5t-31 66t-95 21h-42v152q-209 23 -319 161.5t-110 394.5q0 281 141.5 419.5z" />
    <glyph glyph-name="uni1E0C" unicode="&#x1e0c;" horiz-adv-x="1568" 
d="M411 -5q-93 6 -207 21v1435q100 21 213.5 32t216.5 11q397 0 600.5 -189t203.5 -565q0 -379 -208 -565t-624 -186q-102 0 -195 6zM1139 255q169 157 169 486q0 327 -169 485.5t-508 158.5q-137 0 -301 -26v-1241q123 -20 296 -20q344 0 513 157zM651 -310.5
q-24 21.5 -24 57.5q0 37 24 58.5t67 21.5t67 -21.5t24 -58.5q0 -36 -24 -57.5t-67 -21.5t-67 21.5z" />
    <glyph glyph-name="uni1E0D" unicode="&#x1e0d;" horiz-adv-x="1265" 
d="M349 39.5q-108 57.5 -169 177.5t-61 302q0 289 150 435t442 146q118 0 245 -24v540h124v-1616h-106l-8 128h-10q-64 -69 -156 -107.5t-200 -38.5q-143 0 -251 57.5zM806.5 128.5q86.5 38.5 149.5 121.5v715q-52 14 -116 22t-128 8q-236 0 -351 -113.5t-115 -351.5
q0 -440 376 -440q98 0 184.5 38.5zM570 -315q-23 22 -23 59q0 38 23 60.5t63 22.5t63 -22.5t23 -60.5q0 -37 -23 -59t-63 -22t-63 22z" />
    <glyph glyph-name="uni1E0E" unicode="&#x1e0e;" horiz-adv-x="1568" 
d="M411 -5q-93 6 -207 21v1435q100 21 213.5 32t216.5 11q397 0 600.5 -189t203.5 -565q0 -379 -208 -565t-624 -186q-102 0 -195 6zM1139 255q169 157 169 486q0 327 -169 485.5t-508 158.5q-137 0 -301 -26v-1241q123 -20 296 -20q344 0 513 157zM398 -297v87h640v-87
h-640z" />
    <glyph glyph-name="uni1E0F" unicode="&#x1e0f;" horiz-adv-x="1265" 
d="M349 39.5q-108 57.5 -169 177.5t-61 302q0 289 150 435t442 146q118 0 245 -24v540h124v-1616h-106l-8 128h-10q-64 -69 -156 -107.5t-200 -38.5q-143 0 -251 57.5zM806.5 128.5q86.5 38.5 149.5 121.5v715q-52 14 -116 22t-128 8q-236 0 -351 -113.5t-115 -351.5
q0 -440 376 -440q98 0 184.5 38.5zM334 -300v87h598v-87h-598z" />
    <glyph glyph-name="uni1E14" unicode="&#x1e14;" horiz-adv-x="1314" 
d="M329 106h880v-106h-1005v1480h995v-106h-870v-561h770v-106h-770v-601zM658 1898l-241 232h151l220 -232h-130zM403 1708v86h640v-86h-640z" />
    <glyph glyph-name="uni1E15" unicode="&#x1e15;" horiz-adv-x="1149" 
d="M1050 498h-805q7 -215 117 -314.5t323 -99.5q135 0 310 51v-103q-173 -51 -324 -51q-270 0 -411 138t-141 422q0 182 56.5 307t162.5 188t254 63q221 0 339.5 -143t118.5 -417v-41zM245 589h685q-5 211 -90.5 313t-248.5 102q-336 0 -346 -415zM266 1380v87h660v-87h-660
zM535 1656l-241 278h143l220 -278h-122z" />
    <glyph glyph-name="uni1E16" unicode="&#x1e16;" horiz-adv-x="1314" 
d="M329 106h880v-106h-1005v1480h995v-106h-870v-561h770v-106h-770v-601zM658 1898l218 232h153l-239 -232h-132zM403 1708v86h640v-86h-640z" />
    <glyph glyph-name="uni1E17" unicode="&#x1e17;" horiz-adv-x="1149" 
d="M1050 498h-805q7 -215 117 -314.5t323 -99.5q135 0 310 51v-103q-173 -51 -324 -51q-270 0 -411 138t-141 422q0 182 56.5 307t162.5 188t254 63q221 0 339.5 -143t118.5 -417v-41zM245 589h685q-5 211 -90.5 313t-248.5 102q-336 0 -346 -415zM266 1380v87h660v-87h-660
zM535 1656l219 278h143l-241 -278h-121z" />
    <glyph glyph-name="uni1E1C" unicode="&#x1e1c;" horiz-adv-x="1314" 
d="M477.5 1689.5q-86.5 67.5 -99.5 176.5h90q14 -78 73.5 -120.5t183.5 -42.5q123 0 181 42.5t72 120.5h90q-13 -110 -97.5 -177t-245.5 -67t-247.5 67.5zM761 0v-106q91 -4 141 -42.5t50 -108.5q0 -74 -58.5 -112.5t-163.5 -38.5q-54 0 -108 10t-98 28v70q106 -42 203 -42
q145 0 145 87q0 46 -37 67t-110 21h-41v167h-480v1480h995v-106h-870v-561h770v-106h-770v-601h880v-106h-448z" />
    <glyph glyph-name="uni1E1D" unicode="&#x1e1d;" horiz-adv-x="1149" 
d="M425 1309.5q-72 40.5 -110 112.5t-43 167h89q9 -113 66 -176.5t171 -63.5q214 0 233 240h89q-7 -147 -89.5 -233.5t-232.5 -86.5q-101 0 -173 40.5zM1050 498h-805q7 -215 117 -314.5t323 -99.5q135 0 310 51v-103q-173 -51 -324 -51q-22 0 -33 1v-88q82 -5 126.5 -44.5
t44.5 -106.5q0 -73 -53 -112t-149 -39q-50 0 -100.5 10t-85.5 28v70q88 -42 183 -42q63 0 94 21.5t31 66.5t-31 66t-95 21h-42v154q-217 27 -329.5 164t-112.5 390q0 182 56.5 307t162.5 188t254 63q221 0 339.5 -143t118.5 -417v-41zM245 589h685q-5 211 -90.5 313
t-248.5 102q-336 0 -346 -415z" />
    <glyph glyph-name="uni1E20" unicode="&#x1e20;" horiz-adv-x="1522" 
d="M1329 720v-700q-109 -17 -195.5 -24t-186.5 -7q-405 0 -611 189t-206 561q0 256 97.5 425.5t271.5 251.5t406 82q95 0 186.5 -12.5t194.5 -38.5v-111q-106 29 -195.5 40.5t-176.5 11.5q-304 0 -478 -157t-174 -487q0 -646 681 -646q151 0 265 18v604h121zM500 1708v86
h640v-86h-640z" />
    <glyph glyph-name="uni1E21" unicode="&#x1e21;" horiz-adv-x="1265" 
d="M369.5 -445q-97.5 15 -178.5 42v107q189 -59 358 -59q143 0 232 37.5t132 121.5t43 225v96h-8q-66 -66 -157.5 -103t-202.5 -37q-137 0 -242 56t-166 175.5t-61 302.5q0 288 149 434t442 146q194 0 370 -51v-1001q0 -179 -58 -291t-174.5 -164t-295.5 -52
q-85 0 -182.5 15zM803 130q89 36 153 111v722q-115 31 -259 31q-226 0 -338.5 -113.5t-112.5 -349.5q0 -231 99 -334t271 -103q98 0 187 36zM321 1380v87h660v-87h-660z" />
    <glyph glyph-name="uni1E24" unicode="&#x1e24;" horiz-adv-x="1607" 
d="M204 0v1480h126v-663h947v663h126v-1480h-126v703h-947v-703h-126zM737 -310.5q-24 21.5 -24 57.5q0 37 24 58.5t67 21.5t67 -21.5t24 -58.5q0 -36 -24 -57.5t-67 -21.5t-67 21.5z" />
    <glyph glyph-name="uni1E25" unicode="&#x1e25;" horiz-adv-x="1275" 
d="M185 1616h124v-658h8q79 69 181 105t215 36q185 0 289.5 -98t104.5 -307v-694h-124v688q0 159 -76.5 228.5t-217.5 69.5q-106 0 -206 -39.5t-174 -118.5v-828h-124v1616zM584 -315q-23 22 -23 59q0 38 23 60.5t63 22.5t63 -22.5t23 -60.5q0 -37 -23 -59t-63 -22t-63 22z
" />
    <glyph glyph-name="uni1E2A" unicode="&#x1e2a;" horiz-adv-x="1607" 
d="M204 0v1480h126v-663h947v663h126v-1480h-126v703h-947v-703h-126zM616 -374q-77 33 -115.5 89t-41.5 128h90q14 -169 257 -169q129 0 188 44.5t65 124.5h90q-5 -112 -90.5 -181t-252.5 -69q-113 0 -190 33z" />
    <glyph glyph-name="uni1E2B" unicode="&#x1e2b;" horiz-adv-x="1275" 
d="M185 1616h124v-658h8q79 69 181 105t215 36q185 0 289.5 -98t104.5 -307v-694h-124v688q0 159 -76.5 228.5t-217.5 69.5q-106 0 -206 -39.5t-174 -118.5v-828h-124v1616zM472 -378.5q-73 33.5 -110 91t-39 130.5h89q5 -81 62.5 -126.5t174.5 -45.5q223 0 233 172h89
q-2 -74 -38 -131.5t-108 -90.5t-176 -33t-177 33.5z" />
    <glyph glyph-name="uni1E2E" unicode="&#x1e2e;" horiz-adv-x="533" 
d="M204 0v1480h126v-1480h-126zM202 1898l218 232h153l-239 -232h-132zM-61 1694q-23 21 -23 58q0 36 23 58t63 22q39 0 62 -22t23 -58q0 -37 -22.5 -58t-62.5 -21t-63 21zM469.5 1694q-22.5 21 -22.5 58q0 36 23 58t62 22q40 0 63 -22t23 -58q0 -37 -23 -58t-63 -21
t-62.5 21z" />
    <glyph glyph-name="uni1E2F" unicode="&#x1e2f;" horiz-adv-x="493" 
d="M185 0v1083h124v-1083h-124zM-63 1361q-23 22 -23 60q0 39 23 62t63 23t63.5 -23t23.5 -62q0 -38 -23 -60t-64 -22q-40 0 -63 22zM430 1361q-23 22 -23 60q0 39 23.5 62t63.5 23q39 0 62.5 -23t23.5 -62q0 -38 -23 -60t-63 -22q-41 0 -64 22zM186 1656l219 278h143
l-241 -278h-121z" />
    <glyph glyph-name="uni1E36" unicode="&#x1e36;" horiz-adv-x="1192" 
d="M204 0v1480h126v-1371h841v-109h-967zM621 -310.5q-24 21.5 -24 57.5q0 37 24 58.5t67 21.5t67 -21.5t24 -58.5q0 -36 -24 -57.5t-67 -21.5t-67 21.5z" />
    <glyph glyph-name="uni1E37" unicode="&#x1e37;" horiz-adv-x="493" 
d="M185 0v1616h124v-1616h-124zM183 -315q-23 22 -23 59q0 38 23 60.5t63 22.5t63 -22.5t23 -60.5q0 -37 -23 -59t-63 -22t-63 22z" />
    <glyph glyph-name="uni1E3A" unicode="&#x1e3a;" horiz-adv-x="1192" 
d="M204 0v1480h126v-1371h841v-109h-967zM368 -297v87h640v-87h-640z" />
    <glyph glyph-name="uni1E3B" unicode="&#x1e3b;" horiz-adv-x="493" 
d="M185 0v1616h124v-1616h-124zM-53 -300v87h598v-87h-598z" />
    <glyph glyph-name="uni1E42" unicode="&#x1e42;" horiz-adv-x="1912" 
d="M1558 1480h146v-1480h-120v1290l-568 -1087h-121l-568 1080v-1283h-119v1480h145l605 -1160zM893 -310.5q-24 21.5 -24 57.5q0 37 24 58.5t67 21.5t67 -21.5t24 -58.5q0 -36 -24 -57.5t-67 -21.5t-67 21.5z" />
    <glyph glyph-name="uni1E43" unicode="&#x1e43;" horiz-adv-x="1858" 
d="M1595.5 1001q94.5 -98 94.5 -307v-694h-124v688q0 159 -66.5 229.5t-187.5 70.5q-87 0 -173 -37.5t-149 -118.5q13 -59 13 -137v-695h-122v688q0 160 -64.5 230t-183.5 70q-90 0 -175 -40.5t-149 -122.5v-825h-124v1083h105l9 -129h9q68 71 158.5 108t191.5 37
q216 0 297 -163q84 85 182 124t196 39q168 0 262.5 -98zM879 -315q-23 22 -23 59q0 38 23 60.5t63 22.5t63 -22.5t23 -60.5q0 -37 -23 -59t-63 -22t-63 22z" />
    <glyph glyph-name="uni1E44" unicode="&#x1e44;" horiz-adv-x="1634" 
d="M1310 1480h120v-1480h-131l-975 1303v-1303h-120v1480h131l975 -1303v1303zM751 1694.5q-24 21.5 -24 57.5t24 58t67 22t67 -22t24 -58t-24 -57.5t-67 -21.5t-67 21.5z" />
    <glyph glyph-name="uni1E45" unicode="&#x1e45;" horiz-adv-x="1275" 
d="M185 1083h105l9 -129h9q81 71 184.5 108t216.5 37q188 0 293 -99.5t105 -312.5v-687h-124v685q0 160 -75.5 231.5t-218.5 71.5q-101 0 -203 -38.5t-177 -119.5v-830h-124v1083zM579.5 1360q-24.5 22 -24.5 61q0 40 24.5 62.5t67.5 22.5t67.5 -22.5t24.5 -62.5
q0 -39 -24.5 -61t-67.5 -22t-67.5 22z" />
    <glyph glyph-name="uni1E46" unicode="&#x1e46;" horiz-adv-x="1634" 
d="M1310 1480h120v-1480h-131l-975 1303v-1303h-120v1480h131l975 -1303v1303zM751 -310.5q-24 21.5 -24 57.5q0 37 24 58.5t67 21.5t67 -21.5t24 -58.5q0 -36 -24 -57.5t-67 -21.5t-67 21.5z" />
    <glyph glyph-name="uni1E47" unicode="&#x1e47;" horiz-adv-x="1275" 
d="M185 1083h105l9 -129h9q81 71 184.5 108t216.5 37q188 0 293 -99.5t105 -312.5v-687h-124v685q0 160 -75.5 231.5t-218.5 71.5q-101 0 -203 -38.5t-177 -119.5v-830h-124v1083zM584 -315q-23 22 -23 59q0 38 23 60.5t63 22.5t63 -22.5t23 -60.5q0 -37 -23 -59t-63 -22
t-63 22z" />
    <glyph glyph-name="uni1E48" unicode="&#x1e48;" horiz-adv-x="1634" 
d="M1310 1480h120v-1480h-131l-975 1303v-1303h-120v1480h131l975 -1303v1303zM498 -297v87h640v-87h-640z" />
    <glyph glyph-name="uni1E49" unicode="&#x1e49;" horiz-adv-x="1275" 
d="M185 1083h105l9 -129h9q81 71 184.5 108t216.5 37q188 0 293 -99.5t105 -312.5v-687h-124v685q0 160 -75.5 231.5t-218.5 71.5q-101 0 -203 -38.5t-177 -119.5v-830h-124v1083zM348 -300v87h598v-87h-598z" />
    <glyph glyph-name="uni1E4C" unicode="&#x1e4c;" horiz-adv-x="1617" 
d="M450 64q-152 82 -236 251.5t-84 424.5t85 424.5t237.5 251.5t356.5 82q206 0 358 -82t236 -251.5t84 -424.5t-85 -424.5t-237 -251.5t-356 -82q-207 0 -359 82zM1211.5 248.5q145.5 156.5 145.5 486.5q0 337 -145.5 495t-402.5 158t-402.5 -156t-145.5 -487
q0 -338 145 -495.5t403 -157.5q257 0 402.5 156.5zM744 1898l218 232h153l-239 -232h-132zM890 1692q-40 10 -97 29q-50 18 -83 26.5t-68 8.5q-58 0 -101 -16.5t-83 -52.5v91q32 32 77.5 47t108.5 15q44 0 84 -10t97 -29q50 -18 83 -26.5t68 -8.5q58 0 101 16.5t83 52.5v-91
q-32 -32 -77.5 -47t-108.5 -15q-44 0 -84 10z" />
    <glyph glyph-name="uni1E4D" unicode="&#x1e4d;" horiz-adv-x="1241" 
d="M252.5 120q-133.5 139 -133.5 421q0 187 61.5 311.5t174 185.5t265.5 61q237 0 369.5 -137.5t132.5 -420.5q0 -186 -62.5 -311.5t-175 -187t-264.5 -61.5q-234 0 -367.5 139zM995 540q0 237 -97.5 345t-277.5 108q-374 0 -374 -450q0 -456 374 -456q375 0 375 453z
M694.5 1370.5q-38.5 10.5 -90.5 31.5q-50 19 -80 27.5t-60 8.5q-51 0 -93 -17.5t-81 -55.5v95q65 64 176 64q42 0 80 -10.5t90 -31.5q50 -19 80 -27.5t60 -8.5q51 0 93 17.5t81 55.5v-95q-65 -64 -176 -64q-41 0 -79.5 10.5zM559 1656l219 278h143l-241 -278h-121z" />
    <glyph glyph-name="uni1E4E" unicode="&#x1e4e;" horiz-adv-x="1617" 
d="M450 64q-152 82 -236 251.5t-84 424.5t85 424.5t237.5 251.5t356.5 82q206 0 358 -82t236 -251.5t84 -424.5t-85 -424.5t-237 -251.5t-356 -82q-207 0 -359 82zM1211.5 248.5q145.5 156.5 145.5 486.5q0 337 -145.5 495t-402.5 158t-402.5 -156t-145.5 -487
q0 -338 145 -495.5t403 -157.5q257 0 402.5 156.5zM890 1692q-40 10 -97 29q-50 18 -83 26.5t-68 8.5q-58 0 -101 -16.5t-83 -52.5v91q32 32 77.5 47t108.5 15q44 0 84 -10t97 -29q50 -18 83 -26.5t68 -8.5q58 0 101 16.5t83 52.5v-91q-32 -32 -77.5 -47t-108.5 -15
q-44 0 -84 10zM481 1981q-23 21 -23 58q0 36 23 58t63 22q39 0 62 -22t23 -58q0 -37 -22.5 -58t-62.5 -21t-63 21zM1011.5 1981q-22.5 21 -22.5 58q0 36 23 58t62 22q40 0 63 -22t23 -58q0 -37 -23 -58t-63 -21t-62.5 21z" />
    <glyph glyph-name="uni1E4F" unicode="&#x1e4f;" horiz-adv-x="1241" 
d="M252.5 120q-133.5 139 -133.5 421q0 187 61.5 311.5t174 185.5t265.5 61q237 0 369.5 -137.5t132.5 -420.5q0 -186 -62.5 -311.5t-175 -187t-264.5 -61.5q-234 0 -367.5 139zM995 540q0 237 -97.5 345t-277.5 108q-374 0 -374 -450q0 -456 374 -456q375 0 375 453z
M694.5 1370.5q-38.5 10.5 -90.5 31.5q-50 19 -80 27.5t-60 8.5q-51 0 -93 -17.5t-81 -55.5v95q65 64 176 64q42 0 80 -10.5t90 -31.5q50 -19 80 -27.5t60 -8.5q51 0 93 17.5t81 55.5v-95q-65 -64 -176 -64q-41 0 -79.5 10.5zM310 1725q-23 22 -23 60q0 39 23 62t63 23
t63.5 -23t23.5 -62q0 -38 -23 -60t-64 -22q-40 0 -63 22zM803 1725q-23 22 -23 60q0 39 23.5 62t63.5 23q39 0 62.5 -23t23.5 -62q0 -38 -23 -60t-63 -22q-41 0 -64 22z" />
    <glyph glyph-name="uni1E50" unicode="&#x1e50;" horiz-adv-x="1617" 
d="M450 64q-152 82 -236 251.5t-84 424.5t85 424.5t237.5 251.5t356.5 82q206 0 358 -82t236 -251.5t84 -424.5t-85 -424.5t-237 -251.5t-356 -82q-207 0 -359 82zM1211.5 248.5q145.5 156.5 145.5 486.5q0 337 -145.5 495t-402.5 158t-402.5 -156t-145.5 -487
q0 -338 145 -495.5t403 -157.5q257 0 402.5 156.5zM744 1898l-241 232h151l220 -232h-130zM489 1708v86h640v-86h-640z" />
    <glyph glyph-name="uni1E51" unicode="&#x1e51;" horiz-adv-x="1241" 
d="M252.5 120q-133.5 139 -133.5 421q0 187 61.5 311.5t174 185.5t265.5 61q237 0 369.5 -137.5t132.5 -420.5q0 -186 -62.5 -311.5t-175 -187t-264.5 -61.5q-234 0 -367.5 139zM995 540q0 237 -97.5 345t-277.5 108q-374 0 -374 -450q0 -456 374 -456q375 0 375 453z
M290 1380v87h660v-87h-660zM559 1656l-241 278h143l220 -278h-122z" />
    <glyph glyph-name="uni1E52" unicode="&#x1e52;" horiz-adv-x="1617" 
d="M450 64q-152 82 -236 251.5t-84 424.5t85 424.5t237.5 251.5t356.5 82q206 0 358 -82t236 -251.5t84 -424.5t-85 -424.5t-237 -251.5t-356 -82q-207 0 -359 82zM1211.5 248.5q145.5 156.5 145.5 486.5q0 337 -145.5 495t-402.5 158t-402.5 -156t-145.5 -487
q0 -338 145 -495.5t403 -157.5q257 0 402.5 156.5zM744 1898l218 232h153l-239 -232h-132zM489 1708v86h640v-86h-640z" />
    <glyph glyph-name="uni1E53" unicode="&#x1e53;" horiz-adv-x="1241" 
d="M252.5 120q-133.5 139 -133.5 421q0 187 61.5 311.5t174 185.5t265.5 61q237 0 369.5 -137.5t132.5 -420.5q0 -186 -62.5 -311.5t-175 -187t-264.5 -61.5q-234 0 -367.5 139zM995 540q0 237 -97.5 345t-277.5 108q-374 0 -374 -450q0 -456 374 -456q375 0 375 453z
M290 1380v87h660v-87h-660zM559 1656l219 278h143l-241 -278h-121z" />
    <glyph glyph-name="uni1E5A" unicode="&#x1e5a;" horiz-adv-x="1434" 
d="M1204 0l-522 630q-54 -2 -84 -2q-70 0 -128.5 3t-141.5 9v-640h-124v1451q102 21 204.5 32.5t224.5 11.5q211 0 345.5 -44.5t200.5 -139t66 -246.5q0 -356 -428 -422l535 -643h-148zM464.5 734q54.5 -3 138.5 -3q184 0 299 36.5t168.5 109.5t53.5 185q0 123 -50 195
t-156 103.5t-281 31.5q-93 0 -161.5 -6.5t-147.5 -20.5v-621q82 -7 136.5 -10zM670 -310.5q-24 21.5 -24 57.5q0 37 24 58.5t67 21.5t67 -21.5t24 -58.5q0 -36 -24 -57.5t-67 -21.5t-67 21.5z" />
    <glyph glyph-name="uni1E5B" unicode="&#x1e5b;" horiz-adv-x="805" 
d="M185 1083h104l11 -145h9q65 71 165.5 112.5t203.5 41.5q61 0 112 -9v-116q-49 8 -116 8q-96 0 -197.5 -40t-167.5 -120v-815h-124v1083zM184 -315q-23 22 -23 59q0 38 23 60.5t63 22.5t63 -22.5t23 -60.5q0 -37 -23 -59t-63 -22t-63 22z" />
    <glyph glyph-name="uni1E5E" unicode="&#x1e5e;" horiz-adv-x="1434" 
d="M1204 0l-522 630q-54 -2 -84 -2q-70 0 -128.5 3t-141.5 9v-640h-124v1451q102 21 204.5 32.5t224.5 11.5q211 0 345.5 -44.5t200.5 -139t66 -246.5q0 -356 -428 -422l535 -643h-148zM464.5 734q54.5 -3 138.5 -3q184 0 299 36.5t168.5 109.5t53.5 185q0 123 -50 195
t-156 103.5t-281 31.5q-93 0 -161.5 -6.5t-147.5 -20.5v-621q82 -7 136.5 -10zM417 -297v87h640v-87h-640z" />
    <glyph glyph-name="uni1E5F" unicode="&#x1e5f;" horiz-adv-x="805" 
d="M185 1083h104l11 -145h9q65 71 165.5 112.5t203.5 41.5q61 0 112 -9v-116q-49 8 -116 8q-96 0 -197.5 -40t-167.5 -120v-815h-124v1083zM-52 -300v87h598v-87h-598z" />
    <glyph glyph-name="uni1E60" unicode="&#x1e60;" horiz-adv-x="1186" 
d="M318.5 -1.5q-105.5 16.5 -200.5 48.5v110q102 -34 208 -50.5t203 -16.5q432 0 432 300q0 83 -36 137.5t-113 89.5t-207 61l-82 16q-221 42 -323.5 139t-102.5 259q0 126 62 217t185.5 140t305.5 49q203 0 374 -53v-110q-180 55 -375 55q-213 0 -319 -75t-106 -217
q0 -83 32 -138t103 -91t193 -60l83 -16q162 -32 262 -84.5t146 -129t46 -183.5q0 -132 -66 -225t-192 -141t-304 -48q-103 0 -208.5 16.5zM534 1694.5q-24 21.5 -24 57.5t24 58t67 22t67 -22t24 -58t-24 -57.5t-67 -21.5t-67 21.5z" />
    <glyph glyph-name="uni1E61" unicode="&#x1e61;" horiz-adv-x="1019" 
d="M138 27v102q91 -26 171.5 -37t170.5 -11q172 0 249 51.5t77 150.5q0 54 -19 90t-64.5 59.5t-124.5 37.5l-176 30q-158 28 -229 100t-71 191q0 141 112 224.5t343 83.5q152 0 290 -39v-101q-77 21 -145 30.5t-144 9.5q-178 0 -255 -54t-77 -150q0 -74 44 -121t155 -67
l176 -30q162 -28 235 -95.5t73 -189.5q0 -146 -113.5 -228.5t-339.5 -82.5q-186 0 -338 46zM447.5 1360q-24.5 22 -24.5 61q0 40 24.5 62.5t67.5 22.5t67.5 -22.5t24.5 -62.5q0 -39 -24.5 -61t-67.5 -22t-67.5 22z" />
    <glyph glyph-name="uni1E62" unicode="&#x1e62;" horiz-adv-x="1186" 
d="M318.5 -1.5q-105.5 16.5 -200.5 48.5v110q102 -34 208 -50.5t203 -16.5q432 0 432 300q0 83 -36 137.5t-113 89.5t-207 61l-82 16q-221 42 -323.5 139t-102.5 259q0 126 62 217t185.5 140t305.5 49q203 0 374 -53v-110q-180 55 -375 55q-213 0 -319 -75t-106 -217
q0 -83 32 -138t103 -91t193 -60l83 -16q162 -32 262 -84.5t146 -129t46 -183.5q0 -132 -66 -225t-192 -141t-304 -48q-103 0 -208.5 16.5zM534 -310.5q-24 21.5 -24 57.5q0 37 24 58.5t67 21.5t67 -21.5t24 -58.5q0 -36 -24 -57.5t-67 -21.5t-67 21.5z" />
    <glyph glyph-name="uni1E63" unicode="&#x1e63;" horiz-adv-x="1019" 
d="M138 27v102q91 -26 171.5 -37t170.5 -11q172 0 249 51.5t77 150.5q0 54 -19 90t-64.5 59.5t-124.5 37.5l-176 30q-158 28 -229 100t-71 191q0 141 112 224.5t343 83.5q152 0 290 -39v-101q-77 21 -145 30.5t-144 9.5q-178 0 -255 -54t-77 -150q0 -74 44 -121t155 -67
l176 -30q162 -28 235 -95.5t73 -189.5q0 -146 -113.5 -228.5t-339.5 -82.5q-186 0 -338 46zM452 -315q-23 22 -23 59q0 38 23 60.5t63 22.5t63 -22.5t23 -60.5q0 -37 -23 -59t-63 -22t-63 22z" />
    <glyph glyph-name="uni1E64" unicode="&#x1e64;" horiz-adv-x="1186" 
d="M318.5 -1.5q-105.5 16.5 -200.5 48.5v110q102 -34 208 -50.5t203 -16.5q432 0 432 300q0 83 -36 137.5t-113 89.5t-207 61l-82 16q-221 42 -323.5 139t-102.5 259q0 126 62 217t185.5 140t305.5 49q203 0 374 -53v-110q-180 55 -375 55q-213 0 -319 -75t-106 -217
q0 -83 32 -138t103 -91t193 -60l83 -16q162 -32 262 -84.5t146 -129t46 -183.5q0 -132 -66 -225t-192 -141t-304 -48q-103 0 -208.5 16.5zM463 1870q-22 20 -22 54t22.5 54.5t60.5 20.5q39 0 61.5 -20.5t22.5 -54.5t-22.5 -54t-61.5 -20t-61 20zM540 1612l219 278h143
l-241 -278h-121z" />
    <glyph glyph-name="uni1E65" unicode="&#x1e65;" horiz-adv-x="1019" 
d="M138 27v102q91 -26 171.5 -37t170.5 -11q172 0 249 51.5t77 150.5q0 54 -19 90t-64.5 59.5t-124.5 37.5l-176 30q-158 28 -229 100t-71 191q0 141 112 224.5t343 83.5q152 0 290 -39v-101q-77 21 -145 30.5t-144 9.5q-178 0 -255 -54t-77 -150q0 -74 44 -121t155 -67
l176 -30q162 -28 235 -95.5t73 -189.5q0 -146 -113.5 -228.5t-339.5 -82.5q-186 0 -338 46zM385.5 1596q-22.5 20 -22.5 54t22.5 54.5t61.5 20.5q38 0 60.5 -20.5t22.5 -54.5t-22 -54t-61 -20t-61.5 20zM453 1258l267 358h144l-287 -358h-124z" />
    <glyph glyph-name="uni1E66" unicode="&#x1e66;" horiz-adv-x="1186" 
d="M318.5 -1.5q-105.5 16.5 -200.5 48.5v110q102 -34 208 -50.5t203 -16.5q432 0 432 300q0 83 -36 137.5t-113 89.5t-207 61l-82 16q-221 42 -323.5 139t-102.5 259q0 126 62 217t185.5 140t305.5 49q203 0 374 -53v-110q-180 55 -375 55q-213 0 -319 -75t-106 -217
q0 -83 32 -138t103 -91t193 -60l83 -16q162 -32 262 -84.5t146 -129t46 -183.5q0 -132 -66 -225t-192 -141t-304 -48q-103 0 -208.5 16.5zM540 1916q-22 20 -22 53q0 34 22 55t61 21t61 -21t22 -55q0 -33 -22 -53t-61 -20t-61 20zM821 1890h131l-291 -278h-120l-291 278h131
l220 -216z" />
    <glyph glyph-name="uni1E67" unicode="&#x1e67;" horiz-adv-x="1019" 
d="M138 27v102q91 -26 171.5 -37t170.5 -11q172 0 249 51.5t77 150.5q0 54 -19 90t-64.5 59.5t-124.5 37.5l-176 30q-158 28 -229 100t-71 191q0 141 112 224.5t343 83.5q152 0 290 -39v-101q-77 21 -145 30.5t-144 9.5q-178 0 -255 -54t-77 -150q0 -74 44 -121t155 -67
l176 -30q162 -28 235 -95.5t73 -189.5q0 -146 -113.5 -228.5t-339.5 -82.5q-186 0 -338 46zM454 1640q-22 20 -22 54t22 54.5t61 20.5t61 -20.5t22 -54.5t-22 -54t-61 -20t-61 20zM729 1616h114l-270 -358h-116l-270 358h114l214 -290z" />
    <glyph glyph-name="uni1E68" unicode="&#x1e68;" horiz-adv-x="1186" 
d="M318.5 -1.5q-105.5 16.5 -200.5 48.5v110q102 -34 208 -50.5t203 -16.5q432 0 432 300q0 83 -36 137.5t-113 89.5t-207 61l-82 16q-221 42 -323.5 139t-102.5 259q0 126 62 217t185.5 140t305.5 49q203 0 374 -53v-110q-180 55 -375 55q-213 0 -319 -75t-106 -217
q0 -83 32 -138t103 -91t193 -60l83 -16q162 -32 262 -84.5t146 -129t46 -183.5q0 -132 -66 -225t-192 -141t-304 -48q-103 0 -208.5 16.5zM534 -310.5q-24 21.5 -24 57.5q0 37 24 58.5t67 21.5t67 -21.5t24 -58.5q0 -36 -24 -57.5t-67 -21.5t-67 21.5zM534 1694.5
q-24 21.5 -24 57.5t24 58t67 22t67 -22t24 -58t-24 -57.5t-67 -21.5t-67 21.5z" />
    <glyph glyph-name="uni1E69" unicode="&#x1e69;" horiz-adv-x="1019" 
d="M138 27v102q91 -26 171.5 -37t170.5 -11q172 0 249 51.5t77 150.5q0 54 -19 90t-64.5 59.5t-124.5 37.5l-176 30q-158 28 -229 100t-71 191q0 141 112 224.5t343 83.5q152 0 290 -39v-101q-77 21 -145 30.5t-144 9.5q-178 0 -255 -54t-77 -150q0 -74 44 -121t155 -67
l176 -30q162 -28 235 -95.5t73 -189.5q0 -146 -113.5 -228.5t-339.5 -82.5q-186 0 -338 46zM452 -315q-23 22 -23 59q0 38 23 60.5t63 22.5t63 -22.5t23 -60.5q0 -37 -23 -59t-63 -22t-63 22zM447.5 1360q-24.5 22 -24.5 61q0 40 24.5 62.5t67.5 22.5t67.5 -22.5t24.5 -62.5
q0 -39 -24.5 -61t-67.5 -22t-67.5 22z" />
    <glyph glyph-name="uni1E6C" unicode="&#x1e6c;" horiz-adv-x="1285" 
d="M580 0v1371h-560v109h1244v-109h-559v-1371h-125zM575 -310.5q-24 21.5 -24 57.5q0 37 24 58.5t67 21.5t67 -21.5t24 -58.5q0 -36 -24 -57.5t-67 -21.5t-67 21.5z" />
    <glyph glyph-name="uni1E6D" unicode="&#x1e6d;" horiz-adv-x="828" 
d="M727 94.5q37 4.5 86 15.5v-107q-51 -12 -93.5 -17t-90.5 -5q-184 0 -282 92.5t-98 280.5v623h-231v106h231l20 397h104v-397h419v-106h-419v-601q0 -151 70 -218.5t209 -67.5q38 0 75 4.5zM469 -315q-23 22 -23 59q0 38 23 60.5t63 22.5t63 -22.5t23 -60.5q0 -37 -23 -59
t-63 -22t-63 22z" />
    <glyph glyph-name="uni1E6E" unicode="&#x1e6e;" horiz-adv-x="1285" 
d="M580 0v1371h-560v109h1244v-109h-559v-1371h-125zM322 -297v87h640v-87h-640z" />
    <glyph glyph-name="uni1E6F" unicode="&#x1e6f;" horiz-adv-x="828" 
d="M727 94.5q37 4.5 86 15.5v-107q-51 -12 -93.5 -17t-90.5 -5q-184 0 -282 92.5t-98 280.5v623h-231v106h231l20 397h104v-397h419v-106h-419v-601q0 -151 70 -218.5t209 -67.5q38 0 75 4.5zM233 -300v87h598v-87h-598z" />
    <glyph glyph-name="uni1E78" unicode="&#x1e78;" horiz-adv-x="1576" 
d="M455 46q-131 64 -195 196.5t-64 341.5v896h126v-910q0 -168 50.5 -273t153 -155t263.5 -50t264 50t153.5 155t50.5 273v910h123v-896q0 -209 -63.5 -341.5t-194 -196.5t-333.5 -64t-334 64zM724 1898l218 232h153l-239 -232h-132zM870 1692q-40 10 -97 29
q-50 18 -83 26.5t-68 8.5q-58 0 -101 -16.5t-83 -52.5v91q32 32 77.5 47t108.5 15q44 0 84 -10t97 -29q50 -18 83 -26.5t68 -8.5q58 0 101 16.5t83 52.5v-91q-32 -32 -77.5 -47t-108.5 -15q-44 0 -84 10z" />
    <glyph glyph-name="uni1E79" unicode="&#x1e79;" horiz-adv-x="1265" 
d="M272.5 80q-104.5 98 -104.5 307v696h124v-690q0 -159 75.5 -229.5t212.5 -70.5q102 0 202 40.5t174 119.5v830h124v-1083h-105l-9 123h-9q-80 -69 -181.5 -105t-213.5 -36q-185 0 -289.5 98zM698.5 1370.5q-38.5 10.5 -90.5 31.5q-50 19 -80 27.5t-60 8.5
q-51 0 -93 -17.5t-81 -55.5v95q65 64 176 64q42 0 80 -10.5t90 -31.5q50 -19 80 -27.5t60 -8.5q51 0 93 17.5t81 55.5v-95q-65 -64 -176 -64q-41 0 -79.5 10.5zM563 1656l219 278h143l-241 -278h-121z" />
    <glyph glyph-name="uni1E7A" unicode="&#x1e7a;" horiz-adv-x="1576" 
d="M455 46q-131 64 -195 196.5t-64 341.5v896h126v-910q0 -168 50.5 -273t153 -155t263.5 -50t264 50t153.5 155t50.5 273v910h123v-896q0 -209 -63.5 -341.5t-194 -196.5t-333.5 -64t-334 64zM469 1708v86h640v-86h-640zM461 1981q-23 21 -23 58q0 36 23 58t63 22
q39 0 62 -22t23 -58q0 -37 -22.5 -58t-62.5 -21t-63 21zM991.5 1981q-22.5 21 -22.5 58q0 36 23 58t62 22q40 0 63 -22t23 -58q0 -37 -23 -58t-63 -21t-62.5 21z" />
    <glyph glyph-name="uni1E7B" unicode="&#x1e7b;" horiz-adv-x="1265" 
d="M272.5 80q-104.5 98 -104.5 307v696h124v-690q0 -159 75.5 -229.5t212.5 -70.5q102 0 202 40.5t174 119.5v830h124v-1083h-105l-9 123h-9q-80 -69 -181.5 -105t-213.5 -36q-185 0 -289.5 98zM294 1380v87h660v-87h-660zM314 1725q-23 22 -23 60q0 39 23 62t63 23
t63.5 -23t23.5 -62q0 -38 -23 -60t-64 -22q-40 0 -63 22zM807 1725q-23 22 -23 60q0 39 23.5 62t63.5 23q39 0 62.5 -23t23.5 -62q0 -38 -23 -60t-63 -22q-41 0 -64 22z" />
    <glyph glyph-name="Wgrave" unicode="&#x1e80;" horiz-adv-x="2338" 
d="M2138 1480h124l-480 -1480h-165l-448 1352l-448 -1352h-166l-481 1480h131l439 -1367l449 1367h155l449 -1370zM1109 1612l-241 278h143l220 -278h-122z" />
    <glyph glyph-name="wgrave" unicode="&#x1e81;" horiz-adv-x="1853" 
d="M1647 1083h122l-361 -1083h-154l-327 964l-326 -964h-154l-363 1083h126l319 -964l323 964h153l324 -961zM866 1258l-287 358h144l267 -358h-124z" />
    <glyph glyph-name="Wacute" unicode="&#x1e82;" horiz-adv-x="2338" 
d="M2138 1480h124l-480 -1480h-165l-448 1352l-448 -1352h-166l-481 1480h131l439 -1367l449 1367h155l449 -1370zM1109 1612l219 278h143l-241 -278h-121z" />
    <glyph glyph-name="wacute" unicode="&#x1e83;" horiz-adv-x="1853" 
d="M1647 1083h122l-361 -1083h-154l-327 964l-326 -964h-154l-363 1083h126l319 -964l323 964h153l324 -961zM866 1258l267 358h144l-287 -358h-124z" />
    <glyph glyph-name="Wdieresis" unicode="&#x1e84;" horiz-adv-x="2338" 
d="M2138 1480h124l-480 -1480h-165l-448 1352l-448 -1352h-166l-481 1480h131l439 -1367l449 1367h155l449 -1370zM842 1694q-23 21 -23 58q0 36 23 58t63 22q39 0 62 -22t23 -58q0 -37 -22.5 -58t-62.5 -21t-63 21zM1372.5 1694q-22.5 21 -22.5 58q0 36 23 58t62 22
q40 0 63 -22t23 -58q0 -37 -23 -58t-63 -21t-62.5 21z" />
    <glyph glyph-name="wdieresis" unicode="&#x1e85;" horiz-adv-x="1853" 
d="M1647 1083h122l-361 -1083h-154l-327 964l-326 -964h-154l-363 1083h126l319 -964l323 964h153l324 -961zM618 1361q-23 22 -23 60q0 39 23 62t63 23t63.5 -23t23.5 -62q0 -38 -23 -60t-64 -22q-40 0 -63 22zM1111 1361q-23 22 -23 60q0 39 23.5 62t63.5 23
q39 0 62.5 -23t23.5 -62q0 -38 -23 -60t-63 -22q-41 0 -64 22z" />
    <glyph glyph-name="uni1E8E" unicode="&#x1e8e;" horiz-adv-x="1285" 
d="M1297 1480l-591 -813v-667h-126v667l-602 813h146l521 -706l514 706h138zM575 1694.5q-24 21.5 -24 57.5t24 58t67 22t67 -22t24 -58t-24 -57.5t-67 -21.5t-67 21.5z" />
    <glyph glyph-name="uni1E8F" unicode="&#x1e8f;" horiz-adv-x="1173" 
d="M1019 1083h124l-671 -1523h-126l194 440h-32l-477 1083h134l424 -986zM520.5 1360q-24.5 22 -24.5 61q0 40 24.5 62.5t67.5 22.5t67.5 -22.5t24.5 -62.5q0 -39 -24.5 -61t-67.5 -22t-67.5 22z" />
    <glyph glyph-name="uni1E92" unicode="&#x1e92;" horiz-adv-x="1288" 
d="M243 107h973v-107h-1144v70l959 1303h-946v107h1118v-70zM577 -310.5q-24 21.5 -24 57.5q0 37 24 58.5t67 21.5t67 -21.5t24 -58.5q0 -36 -24 -57.5t-67 -21.5t-67 21.5z" />
    <glyph glyph-name="uni1E93" unicode="&#x1e93;" horiz-adv-x="1028" 
d="M243 106h721v-106h-893v77l708 900h-694v106h865v-77zM455 -315q-23 22 -23 59q0 38 23 60.5t63 22.5t63 -22.5t23 -60.5q0 -37 -23 -59t-63 -22t-63 22z" />
    <glyph glyph-name="uni1E97" unicode="&#x1e97;" horiz-adv-x="828" 
d="M727 94.5q37 4.5 86 15.5v-107q-51 -12 -93.5 -17t-90.5 -5q-184 0 -282 92.5t-98 280.5v623h-231v106h231l20 397h104v-397h419v-106h-419v-601q0 -151 70 -218.5t209 -67.5q38 0 75 4.5zM1 1647q-23 22 -23 60q0 39 23 62t63 23t63.5 -23t23.5 -62q0 -38 -23 -60
t-64 -22q-40 0 -63 22zM494 1647q-23 22 -23 60q0 39 23.5 62t63.5 23q39 0 62.5 -23t23.5 -62q0 -38 -23 -60t-63 -22q-41 0 -64 22z" />
    <glyph glyph-name="uni1E9E" unicode="&#x1e9e;" horiz-adv-x="1888" 
d="M1601 708.5q99 -52.5 145 -129t46 -183.5q0 -132 -65.5 -225t-191 -141t-302.5 -48q-100 0 -204.5 16t-199.5 48v110q102 -34 207 -50t198 -16q431 0 431 300q0 83 -35.5 137.5t-112 89.5t-205.5 61l-81 16q-219 43 -321 140t-102 258q0 181 123 286q-65 12 -142 12
q-236 0 -347.5 -112.5t-111.5 -356.5v-921h-126v904q0 307 143 450.5t442 143.5q164 0 277 -44q120 44 292 44q198 0 369 -52v-110q-180 54 -369 54q-212 0 -318 -75t-106 -217q0 -83 31.5 -138t102.5 -91t192 -60l81 -16q161 -32 260 -84.5z" />
    <glyph glyph-name="uni1EA0" unicode="&#x1ea0;" horiz-adv-x="1487" 
d="M1313 0l-206 501h-729l-206 -501h-129l615 1480h171l614 -1480h-130zM422 607h641l-321 779zM677 -310.5q-24 21.5 -24 57.5q0 37 24 58.5t67 21.5t67 -21.5t24 -58.5q0 -36 -24 -57.5t-67 -21.5t-67 21.5z" />
    <glyph glyph-name="uni1EA1" unicode="&#x1ea1;" horiz-adv-x="1140" 
d="M777 1063q96 -36 145.5 -120t49.5 -228v-715h-106l-10 128h-9q-62 -66 -160.5 -105.5t-207.5 -39.5q-112 0 -192 35.5t-122 101t-42 154.5q0 138 97.5 213t315.5 99l313 36v97q0 108 -36.5 168.5t-106.5 84.5t-182 24q-78 0 -164 -13t-167 -42v104q73 26 163.5 40
t177.5 14q147 0 243 -36zM688.5 118.5q89.5 37.5 160.5 111.5v302l-308 -36q-156 -18 -222.5 -69t-66.5 -144q0 -97 61.5 -149.5t187.5 -52.5q98 0 187.5 37.5zM524 -315q-23 22 -23 59q0 38 23 60.5t63 22.5t63 -22.5t23 -60.5q0 -37 -23 -59t-63 -22t-63 22z" />
    <glyph glyph-name="uni1EA2" unicode="&#x1ea2;" horiz-adv-x="1487" 
d="M1313 0l-206 501h-729l-206 -501h-129l615 1480h171l614 -1480h-130zM422 607h641l-321 779zM717 1660.5q16 19.5 36.5 30.5t55.5 25q40 16 57.5 27.5t17.5 32.5q0 24 -29 37t-99 13q-61 0 -108.5 -7.5t-106.5 -26.5v68q94 34 219 34q104 0 154.5 -30.5t50.5 -83.5
q0 -40 -25.5 -61t-73.5 -40q-39 -17 -57.5 -30.5t-21.5 -36.5h-87q1 29 17 48.5z" />
    <glyph glyph-name="uni1EA3" unicode="&#x1ea3;" horiz-adv-x="1140" 
d="M777 1063q96 -36 145.5 -120t49.5 -228v-715h-106l-10 128h-9q-62 -66 -160.5 -105.5t-207.5 -39.5q-112 0 -192 35.5t-122 101t-42 154.5q0 138 97.5 213t315.5 99l313 36v97q0 108 -36.5 168.5t-106.5 84.5t-182 24q-78 0 -164 -13t-167 -42v104q73 26 163.5 40
t177.5 14q147 0 243 -36zM688.5 118.5q89.5 37.5 160.5 111.5v302l-308 -36q-156 -18 -222.5 -69t-66.5 -144q0 -97 61.5 -149.5t187.5 -52.5q98 0 187.5 37.5zM542.5 1323.5q15.5 27.5 36.5 44.5t53 37q36 22 53 38.5t17 42.5q0 37 -33.5 54.5t-103.5 17.5q-42 0 -87.5 -6
t-83.5 -18v70q34 11 80.5 17.5t89.5 6.5q219 0 219 -138q0 -45 -22.5 -71t-66.5 -53q-41 -27 -61.5 -48.5t-22.5 -59.5h-84q1 38 16.5 65.5z" />
    <glyph glyph-name="uni1EA4" unicode="&#x1ea4;" horiz-adv-x="1487" 
d="M1313 0l-206 501h-729l-206 -501h-129l615 1480h171l614 -1480h-130zM422 607h641l-321 779zM1205 2064h118l-225 -267h-99zM684 1884h120l291 -272h-131l-220 213l-220 -213h-131z" />
    <glyph glyph-name="uni1EA5" unicode="&#x1ea5;" horiz-adv-x="1140" 
d="M777 1063q96 -36 145.5 -120t49.5 -228v-715h-106l-10 128h-9q-62 -66 -160.5 -105.5t-207.5 -39.5q-112 0 -192 35.5t-122 101t-42 154.5q0 138 97.5 213t315.5 99l313 36v97q0 108 -36.5 168.5t-106.5 84.5t-182 24q-78 0 -164 -13t-167 -42v104q73 26 163.5 40
t177.5 14q147 0 243 -36zM688.5 118.5q89.5 37.5 160.5 111.5v302l-308 -36q-156 -18 -222.5 -69t-66.5 -144q0 -97 61.5 -149.5t187.5 -52.5q98 0 187.5 37.5zM1014 1868h129l-241 -272h-107zM509 1616h116l263 -358h-114l-207 287l-207 -287h-114z" />
    <glyph glyph-name="uni1EA6" unicode="&#x1ea6;" horiz-adv-x="1487" 
d="M1313 0l-206 501h-729l-206 -501h-129l615 1480h171l614 -1480h-130zM422 607h641l-321 779zM1121 1797h-99l-225 267h118zM684 1884h120l291 -272h-131l-220 213l-220 -213h-131z" />
    <glyph glyph-name="uni1EA7" unicode="&#x1ea7;" horiz-adv-x="1140" 
d="M777 1063q96 -36 145.5 -120t49.5 -228v-715h-106l-10 128h-9q-62 -66 -160.5 -105.5t-207.5 -39.5q-112 0 -192 35.5t-122 101t-42 154.5q0 138 97.5 213t315.5 99l313 36v97q0 108 -36.5 168.5t-106.5 84.5t-182 24q-78 0 -164 -13t-167 -42v104q73 26 163.5 40
t177.5 14q147 0 243 -36zM688.5 118.5q89.5 37.5 160.5 111.5v302l-308 -36q-156 -18 -222.5 -69t-66.5 -144q0 -97 61.5 -149.5t187.5 -52.5q98 0 187.5 37.5zM930 1596h-107l-241 272h128zM509 1616h116l263 -358h-114l-207 287l-207 -287h-114z" />
    <glyph glyph-name="uni1EA8" unicode="&#x1ea8;" horiz-adv-x="1487" 
d="M1313 0l-206 501h-729l-206 -501h-129l615 1480h171l614 -1480h-130zM422 607h641l-321 779zM1216 2042.5q50 -29.5 50 -80.5q0 -39 -25 -59.5t-73 -39.5q-38 -15 -57.5 -29t-22.5 -37h-87q2 40 30 61t79 41q38 14 56.5 26.5t18.5 32.5q0 24 -29 37t-99 13
q-60 0 -107.5 -7.5t-107.5 -26.5v65q96 33 220 33q104 0 154 -29.5zM684 1884h120l291 -272h-131l-220 213l-220 -213h-131z" />
    <glyph glyph-name="uni1EA9" unicode="&#x1ea9;" horiz-adv-x="1140" 
d="M777 1063q96 -36 145.5 -120t49.5 -228v-715h-106l-10 128h-9q-62 -66 -160.5 -105.5t-207.5 -39.5q-112 0 -192 35.5t-122 101t-42 154.5q0 138 97.5 213t315.5 99l313 36v97q0 108 -36.5 168.5t-106.5 84.5t-182 24q-78 0 -164 -13t-167 -42v104q73 26 163.5 40
t177.5 14q147 0 243 -36zM688.5 118.5q89.5 37.5 160.5 111.5v302l-308 -36q-156 -18 -222.5 -69t-66.5 -144q0 -97 61.5 -149.5t187.5 -52.5q98 0 187.5 37.5zM1010.5 1842.5q48.5 -29.5 48.5 -81.5q0 -37 -23.5 -56.5t-69.5 -38.5q-38 -16 -58 -30.5t-23 -39.5h-83
q2 41 30 62.5t77 41.5q37 15 54 26.5t17 30.5q0 24 -28 37t-96 13q-60 0 -107 -7.5t-104 -25.5v64q91 34 215 34q102 0 150.5 -29.5zM509 1616h116l263 -358h-114l-207 287l-207 -287h-114z" />
    <glyph glyph-name="uni1EAA" unicode="&#x1eaa;" horiz-adv-x="1487" 
d="M1313 0l-206 501h-729l-206 -501h-129l615 1480h171l614 -1480h-130zM422 607h641l-321 779zM1005.5 2019q44.5 17 89.5 53v-83q-71 -60 -188 -60q-45 0 -85 10t-97 29q-51 17 -82.5 25t-62.5 8q-53 0 -97.5 -17t-89.5 -53v83q71 60 188 60q45 0 85 -10t97 -29
q51 -17 82.5 -25t62.5 -8q53 0 97.5 17zM684 1884h120l291 -272h-131l-220 213l-220 -213h-131z" />
    <glyph glyph-name="uni1EAB" unicode="&#x1eab;" horiz-adv-x="1140" 
d="M777 1063q96 -36 145.5 -120t49.5 -228v-715h-106l-10 128h-9q-62 -66 -160.5 -105.5t-207.5 -39.5q-112 0 -192 35.5t-122 101t-42 154.5q0 138 97.5 213t315.5 99l313 36v97q0 108 -36.5 168.5t-106.5 84.5t-182 24q-78 0 -164 -13t-167 -42v104q73 26 163.5 40
t177.5 14q147 0 243 -36zM688.5 118.5q89.5 37.5 160.5 111.5v302l-308 -36q-156 -18 -222.5 -69t-66.5 -144q0 -97 61.5 -149.5t187.5 -52.5q98 0 187.5 37.5zM819.5 1760.5q42.5 16.5 81.5 51.5v-87q-66 -60 -177 -60q-43 0 -81 10t-92 29q-48 17 -79.5 25t-62.5 8
q-52 0 -94.5 -16.5t-81.5 -51.5v87q66 60 177 60q43 0 81 -10t92 -29q48 -17 79.5 -25t62.5 -8q52 0 94.5 16.5zM507 1605h120l270 -347h-118l-212 281l-212 -281h-118z" />
    <glyph glyph-name="uni1EAC" unicode="&#x1eac;" horiz-adv-x="1487" 
d="M1313 0l-206 501h-729l-206 -501h-129l615 1480h171l614 -1480h-130zM422 607h641l-321 779zM677 -310.5q-24 21.5 -24 57.5q0 37 24 58.5t67 21.5t67 -21.5t24 -58.5q0 -36 -24 -57.5t-67 -21.5t-67 21.5zM1095 1612h-131l-220 215l-220 -215h-131l291 278h120z" />
    <glyph glyph-name="uni1EAD" unicode="&#x1ead;" horiz-adv-x="1140" 
d="M777 1063q96 -36 145.5 -120t49.5 -228v-715h-106l-10 128h-9q-62 -66 -160.5 -105.5t-207.5 -39.5q-112 0 -192 35.5t-122 101t-42 154.5q0 138 97.5 213t315.5 99l313 36v97q0 108 -36.5 168.5t-106.5 84.5t-182 24q-78 0 -164 -13t-167 -42v104q73 26 163.5 40
t177.5 14q147 0 243 -36zM688.5 118.5q89.5 37.5 160.5 111.5v302l-308 -36q-156 -18 -222.5 -69t-66.5 -144q0 -97 61.5 -149.5t187.5 -52.5q98 0 187.5 37.5zM524 -315q-23 22 -23 59q0 38 23 60.5t63 22.5t63 -22.5t23 -60.5q0 -37 -23 -59t-63 -22t-63 22zM888 1258
h-114l-207 287l-207 -287h-114l263 358h116z" />
    <glyph glyph-name="uni1EAE" unicode="&#x1eae;" horiz-adv-x="1487" 
d="M1313 0l-206 501h-729l-206 -501h-129l615 1480h171l614 -1480h-130zM422 607h641l-321 779zM695 1842l205 249h119l-226 -249h-98zM504 1687.5q-84 65.5 -97 172.5h83q14 -79 72.5 -120.5t183.5 -41.5t181.5 41.5t71.5 120.5h82q-13 -108 -95.5 -173t-239.5 -65
q-158 0 -242 65.5z" />
    <glyph glyph-name="uni1EAF" unicode="&#x1eaf;" horiz-adv-x="1140" 
d="M777 1063q96 -36 145.5 -120t49.5 -228v-715h-106l-10 128h-9q-62 -66 -160.5 -105.5t-207.5 -39.5q-112 0 -192 35.5t-122 101t-42 154.5q0 138 97.5 213t315.5 99l313 36v97q0 108 -36.5 168.5t-106.5 84.5t-182 24q-78 0 -164 -13t-167 -42v104q73 26 163.5 40
t177.5 14q147 0 243 -36zM688.5 118.5q89.5 37.5 160.5 111.5v302l-308 -36q-156 -18 -222.5 -69t-66.5 -144q0 -97 61.5 -149.5t187.5 -52.5q98 0 187.5 37.5zM513 1596l219 272h129l-241 -272h-107zM394.5 1310q-72.5 40 -111 110t-44.5 162h91q9 -108 66.5 -170.5
t172.5 -62.5q114 0 170 62t65 171h91q-9 -142 -92 -227t-234 -85q-102 0 -174.5 40z" />
    <glyph glyph-name="uni1EB0" unicode="&#x1eb0;" horiz-adv-x="1487" 
d="M1313 0l-206 501h-729l-206 -501h-129l615 1480h171l614 -1480h-130zM422 607h641l-321 779zM695 1842l-226 249h119l205 -249h-98zM502.5 1687q-82.5 65 -95.5 173h82q15 -79 71.5 -120.5t181.5 -41.5t183.5 41.5t72.5 120.5h83q-13 -107 -97 -172.5t-242 -65.5
q-157 0 -239.5 65z" />
    <glyph glyph-name="uni1EB1" unicode="&#x1eb1;" horiz-adv-x="1140" 
d="M777 1063q96 -36 145.5 -120t49.5 -228v-715h-106l-10 128h-9q-62 -66 -160.5 -105.5t-207.5 -39.5q-112 0 -192 35.5t-122 101t-42 154.5q0 138 97.5 213t315.5 99l313 36v97q0 108 -36.5 168.5t-106.5 84.5t-182 24q-78 0 -164 -13t-167 -42v104q73 26 163.5 40
t177.5 14q147 0 243 -36zM688.5 118.5q89.5 37.5 160.5 111.5v302l-308 -36q-156 -18 -222.5 -69t-66.5 -144q0 -97 61.5 -149.5t187.5 -52.5q98 0 187.5 37.5zM514 1596l-241 272h129l219 -272h-107zM394.5 1310q-72.5 40 -111 110t-44.5 162h91q9 -108 66.5 -170.5
t172.5 -62.5q114 0 170 62t65 171h91q-9 -142 -92 -227t-234 -85q-102 0 -174.5 40z" />
    <glyph glyph-name="uni1EB2" unicode="&#x1eb2;" horiz-adv-x="1487" 
d="M1313 0l-206 501h-729l-206 -501h-129l615 1480h171l614 -1480h-130zM422 607h641l-321 779zM730 1903q28 21 79 41q38 14 56.5 26.5t18.5 32.5q0 23 -29 36t-99 13q-60 0 -108 -7.5t-107 -25.5v64q94 34 219 34q104 0 154.5 -30t50.5 -81q0 -27 -13.5 -45.5t-33 -29
t-52.5 -24.5q-38 -16 -57 -29t-22 -36h-87q2 40 30 61zM502.5 1687q-82.5 65 -95.5 173h83q14 -79 70.5 -120.5t181.5 -41.5t183.5 41.5t73.5 120.5h82q-13 -107 -97 -172.5t-242 -65.5q-157 0 -239.5 65z" />
    <glyph glyph-name="uni1EB3" unicode="&#x1eb3;" horiz-adv-x="1140" 
d="M777 1063q96 -36 145.5 -120t49.5 -228v-715h-106l-10 128h-9q-62 -66 -160.5 -105.5t-207.5 -39.5q-112 0 -192 35.5t-122 101t-42 154.5q0 138 97.5 213t315.5 99l313 36v97q0 108 -36.5 168.5t-106.5 84.5t-182 24q-78 0 -164 -13t-167 -42v104q73 26 163.5 40
t177.5 14q147 0 243 -36zM688.5 118.5q89.5 37.5 160.5 111.5v302l-308 -36q-156 -18 -222.5 -69t-66.5 -144q0 -97 61.5 -149.5t187.5 -52.5q98 0 187.5 37.5zM553 1657q28 21 79 41q38 14 56.5 26.5t18.5 32.5q0 24 -29 37t-99 13q-61 0 -108.5 -7.5t-106.5 -26.5v65
q94 34 219 34q104 0 154.5 -30t50.5 -81q0 -39 -25 -59.5t-73 -39.5q-38 -15 -57.5 -29t-22.5 -37h-87q2 40 30 61zM394.5 1310q-72.5 40 -111 110t-44.5 162h91q9 -108 66.5 -170.5t172.5 -62.5q114 0 170 62t65 171h91q-9 -142 -92 -227t-234 -85q-102 0 -174.5 40z" />
    <glyph glyph-name="uni1EB4" unicode="&#x1eb4;" horiz-adv-x="1487" 
d="M1313 0l-206 501h-729l-206 -501h-129l615 1480h171l614 -1480h-130zM422 607h641l-321 779zM818 1939q-39 10 -92 29q-47 17 -77.5 25t-59.5 8q-52 0 -95.5 -17t-86.5 -53v83q70 60 182 60q42 0 81 -10t92 -29q47 -17 77.5 -25t59.5 -8q52 0 95.5 17t86.5 53v-83
q-70 -60 -182 -60q-42 0 -81 10zM502.5 1687q-82.5 65 -95.5 173h83q14 -79 70.5 -120.5t181.5 -41.5t183.5 41.5t72.5 120.5h83q-13 -107 -97 -172.5t-242 -65.5q-157 0 -239.5 65z" />
    <glyph glyph-name="uni1EB5" unicode="&#x1eb5;" horiz-adv-x="1140" 
d="M777 1063q96 -36 145.5 -120t49.5 -228v-715h-106l-10 128h-9q-62 -66 -160.5 -105.5t-207.5 -39.5q-112 0 -192 35.5t-122 101t-42 154.5q0 138 97.5 213t315.5 99l313 36v97q0 108 -36.5 168.5t-106.5 84.5t-182 24q-78 0 -164 -13t-167 -42v104q73 26 163.5 40
t177.5 14q147 0 243 -36zM688.5 118.5q89.5 37.5 160.5 111.5v302l-308 -36q-156 -18 -222.5 -69t-66.5 -144q0 -97 61.5 -149.5t187.5 -52.5q98 0 187.5 37.5zM644.5 1675q-38.5 10 -93.5 29q-49 17 -81 25t-64 8q-53 0 -96 -16.5t-83 -51.5v87q67 60 181 60q43 0 81.5 -10
t93.5 -29q49 -17 81 -25t64 -8q53 0 96 16.5t83 51.5v-87q-66 -60 -181 -60q-43 0 -81.5 10zM394.5 1310q-72.5 40 -111 110t-44.5 162h91q9 -108 66.5 -170.5t172.5 -62.5q114 0 170 62t65 171h91q-9 -142 -92 -227t-234 -85q-102 0 -174.5 40z" />
    <glyph glyph-name="uni1EB6" unicode="&#x1eb6;" horiz-adv-x="1487" 
d="M1313 0l-206 501h-729l-206 -501h-129l615 1480h171l614 -1480h-130zM422 607h641l-321 779zM677 -310.5q-24 21.5 -24 57.5q0 37 24 58.5t67 21.5t67 -21.5t24 -58.5q0 -36 -24 -57.5t-67 -21.5t-67 21.5zM498.5 1689.5q-86.5 67.5 -99.5 176.5h90q14 -78 73.5 -120.5
t183.5 -42.5q123 0 181 42.5t72 120.5h90q-13 -110 -97.5 -177t-245.5 -67t-247.5 67.5z" />
    <glyph glyph-name="uni1EB7" unicode="&#x1eb7;" horiz-adv-x="1140" 
d="M777 1063q96 -36 145.5 -120t49.5 -228v-715h-106l-10 128h-9q-62 -66 -160.5 -105.5t-207.5 -39.5q-112 0 -192 35.5t-122 101t-42 154.5q0 138 97.5 213t315.5 99l313 36v97q0 108 -36.5 168.5t-106.5 84.5t-182 24q-78 0 -164 -13t-167 -42v104q73 26 163.5 40
t177.5 14q147 0 243 -36zM688.5 118.5q89.5 37.5 160.5 111.5v302l-308 -36q-156 -18 -222.5 -69t-66.5 -144q0 -97 61.5 -149.5t187.5 -52.5q98 0 187.5 37.5zM524 -315q-23 22 -23 59q0 38 23 60.5t63 22.5t63 -22.5t23 -60.5q0 -37 -23 -59t-63 -22t-63 22zM396 1309.5
q-72 40.5 -110 112.5t-43 167h89q9 -113 66 -176.5t171 -63.5q214 0 233 240h89q-7 -147 -89.5 -233.5t-232.5 -86.5q-101 0 -173 40.5z" />
    <glyph glyph-name="uni1EB8" unicode="&#x1eb8;" horiz-adv-x="1314" 
d="M329 106h880v-106h-1005v1480h995v-106h-870v-561h770v-106h-770v-601zM659 -310.5q-24 21.5 -24 57.5q0 37 24 58.5t67 21.5t67 -21.5t24 -58.5q0 -36 -24 -57.5t-67 -21.5t-67 21.5z" />
    <glyph glyph-name="uni1EB9" unicode="&#x1eb9;" horiz-adv-x="1149" 
d="M1050 498h-805q7 -215 117 -314.5t323 -99.5q135 0 310 51v-103q-173 -51 -324 -51q-270 0 -411 138t-141 422q0 182 56.5 307t162.5 188t254 63q221 0 339.5 -143t118.5 -417v-41zM245 589h685q-5 211 -90.5 313t-248.5 102q-336 0 -346 -415zM533 -315q-23 22 -23 59
q0 38 23 60.5t63 22.5t63 -22.5t23 -60.5q0 -37 -23 -59t-63 -22t-63 22z" />
    <glyph glyph-name="uni1EBA" unicode="&#x1eba;" horiz-adv-x="1314" 
d="M329 106h880v-106h-1005v1480h995v-106h-870v-561h770v-106h-770v-601zM696 1660.5q16 19.5 36.5 30.5t55.5 25q40 16 57.5 27.5t17.5 32.5q0 24 -29 37t-99 13q-61 0 -108.5 -7.5t-106.5 -26.5v68q94 34 219 34q104 0 154.5 -30.5t50.5 -83.5q0 -40 -25.5 -61t-73.5 -40
q-39 -17 -57.5 -30.5t-21.5 -36.5h-87q1 29 17 48.5z" />
    <glyph glyph-name="uni1EBB" unicode="&#x1ebb;" horiz-adv-x="1149" 
d="M1050 498h-805q7 -215 117 -314.5t323 -99.5q135 0 310 51v-103q-173 -51 -324 -51q-270 0 -411 138t-141 422q0 182 56.5 307t162.5 188t254 63q221 0 339.5 -143t118.5 -417v-41zM245 589h685q-5 211 -90.5 313t-248.5 102q-336 0 -346 -415zM571.5 1323.5
q15.5 27.5 36.5 44.5t53 37q36 22 53 38.5t17 42.5q0 37 -33.5 54.5t-103.5 17.5q-42 0 -87.5 -6t-83.5 -18v70q34 11 80.5 17.5t89.5 6.5q219 0 219 -138q0 -45 -22.5 -71t-66.5 -53q-41 -27 -61.5 -48.5t-22.5 -59.5h-84q1 38 16.5 65.5z" />
    <glyph glyph-name="uni1EBC" unicode="&#x1ebc;" horiz-adv-x="1314" 
d="M329 106h880v-106h-1005v1480h995v-106h-870v-561h770v-106h-770v-601zM804 1692q-40 10 -97 29q-50 18 -83 26.5t-68 8.5q-58 0 -101 -16.5t-83 -52.5v91q32 32 77.5 47t108.5 15q44 0 84 -10t97 -29q50 -18 83 -26.5t68 -8.5q58 0 101 16.5t83 52.5v-91
q-32 -32 -77.5 -47t-108.5 -15q-44 0 -84 10z" />
    <glyph glyph-name="uni1EBD" unicode="&#x1ebd;" horiz-adv-x="1149" 
d="M1050 498h-805q7 -215 117 -314.5t323 -99.5q135 0 310 51v-103q-173 -51 -324 -51q-270 0 -411 138t-141 422q0 182 56.5 307t162.5 188t254 63q221 0 339.5 -143t118.5 -417v-41zM245 589h685q-5 211 -90.5 313t-248.5 102q-336 0 -346 -415zM670.5 1370.5
q-38.5 10.5 -90.5 31.5q-50 19 -80 27.5t-60 8.5q-51 0 -93 -17.5t-81 -55.5v95q65 64 176 64q42 0 80 -10.5t90 -31.5q50 -19 80 -27.5t60 -8.5q51 0 93 17.5t81 55.5v-95q-65 -64 -176 -64q-41 0 -79.5 10.5z" />
    <glyph glyph-name="uni1EBE" unicode="&#x1ebe;" horiz-adv-x="1314" 
d="M329 106h880v-106h-1005v1480h995v-106h-870v-561h770v-106h-770v-601zM1184 2064h118l-225 -267h-99zM663 1884h120l291 -272h-131l-220 213l-220 -213h-131z" />
    <glyph glyph-name="uni1EBF" unicode="&#x1ebf;" horiz-adv-x="1149" 
d="M1050 498h-805q7 -215 117 -314.5t323 -99.5q135 0 310 51v-103q-173 -51 -324 -51q-270 0 -411 138t-141 422q0 182 56.5 307t162.5 188t254 63q221 0 339.5 -143t118.5 -417v-41zM245 589h685q-5 211 -90.5 313t-248.5 102q-336 0 -346 -415zM1043 1868h129l-241 -272
h-107zM538 1616h116l263 -358h-114l-207 287l-207 -287h-114z" />
    <glyph glyph-name="uni1EC0" unicode="&#x1ec0;" horiz-adv-x="1314" 
d="M329 106h880v-106h-1005v1480h995v-106h-870v-561h770v-106h-770v-601zM1100 1797h-99l-225 267h118zM663 1884h120l291 -272h-131l-220 213l-220 -213h-131z" />
    <glyph glyph-name="uni1EC1" unicode="&#x1ec1;" horiz-adv-x="1149" 
d="M1050 498h-805q7 -215 117 -314.5t323 -99.5q135 0 310 51v-103q-173 -51 -324 -51q-270 0 -411 138t-141 422q0 182 56.5 307t162.5 188t254 63q221 0 339.5 -143t118.5 -417v-41zM245 589h685q-5 211 -90.5 313t-248.5 102q-336 0 -346 -415zM959 1596h-107l-241 272
h128zM538 1616h116l263 -358h-114l-207 287l-207 -287h-114z" />
    <glyph glyph-name="uni1EC2" unicode="&#x1ec2;" horiz-adv-x="1314" 
d="M329 106h880v-106h-1005v1480h995v-106h-870v-561h770v-106h-770v-601zM1195 2042.5q50 -29.5 50 -80.5q0 -39 -25 -59.5t-73 -39.5q-38 -15 -57.5 -29t-22.5 -37h-87q2 40 30 61t79 41q38 14 56.5 26.5t18.5 32.5q0 24 -29 37t-99 13q-60 0 -107.5 -7.5t-107.5 -26.5v65
q96 33 220 33q104 0 154 -29.5zM663 1884h120l291 -272h-131l-220 213l-220 -213h-131z" />
    <glyph glyph-name="uni1EC3" unicode="&#x1ec3;" horiz-adv-x="1149" 
d="M1050 498h-805q7 -215 117 -314.5t323 -99.5q135 0 310 51v-103q-173 -51 -324 -51q-270 0 -411 138t-141 422q0 182 56.5 307t162.5 188t254 63q221 0 339.5 -143t118.5 -417v-41zM245 589h685q-5 211 -90.5 313t-248.5 102q-336 0 -346 -415zM1039.5 1842.5
q48.5 -29.5 48.5 -81.5q0 -37 -23.5 -56.5t-69.5 -38.5q-38 -16 -58 -30.5t-23 -39.5h-83q2 41 30 62.5t77 41.5q37 15 54 26.5t17 30.5q0 24 -28 37t-96 13q-60 0 -107 -7.5t-104 -25.5v64q91 34 215 34q102 0 150.5 -29.5zM538 1616h116l263 -358h-114l-207 287l-207 -287
h-114z" />
    <glyph glyph-name="uni1EC4" unicode="&#x1ec4;" horiz-adv-x="1314" 
d="M329 106h880v-106h-1005v1480h995v-106h-870v-561h770v-106h-770v-601zM984.5 2019q44.5 17 89.5 53v-83q-71 -60 -188 -60q-45 0 -85 10t-97 29q-51 17 -82.5 25t-62.5 8q-53 0 -97.5 -17t-89.5 -53v83q71 60 188 60q45 0 85 -10t97 -29q51 -17 82.5 -25t62.5 -8
q53 0 97.5 17zM663 1884h120l291 -272h-131l-220 213l-220 -213h-131z" />
    <glyph glyph-name="uni1EC5" unicode="&#x1ec5;" horiz-adv-x="1149" 
d="M1050 498h-805q7 -215 117 -314.5t323 -99.5q135 0 310 51v-103q-173 -51 -324 -51q-270 0 -411 138t-141 422q0 182 56.5 307t162.5 188t254 63q221 0 339.5 -143t118.5 -417v-41zM245 589h685q-5 211 -90.5 313t-248.5 102q-336 0 -346 -415zM848.5 1760.5
q42.5 16.5 81.5 51.5v-87q-66 -60 -177 -60q-43 0 -81 10t-92 29q-48 17 -79.5 25t-62.5 8q-52 0 -94.5 -16.5t-81.5 -51.5v87q66 60 177 60q43 0 81 -10t92 -29q48 -17 79.5 -25t62.5 -8q52 0 94.5 16.5zM536 1605h120l270 -347h-118l-212 281l-212 -281h-118z" />
    <glyph glyph-name="uni1EC6" unicode="&#x1ec6;" horiz-adv-x="1314" 
d="M329 106h880v-106h-1005v1480h995v-106h-870v-561h770v-106h-770v-601zM659 -310.5q-24 21.5 -24 57.5q0 37 24 58.5t67 21.5t67 -21.5t24 -58.5q0 -36 -24 -57.5t-67 -21.5t-67 21.5zM1074 1612h-131l-220 215l-220 -215h-131l291 278h120z" />
    <glyph glyph-name="uni1EC7" unicode="&#x1ec7;" horiz-adv-x="1149" 
d="M1050 498h-805q7 -215 117 -314.5t323 -99.5q135 0 310 51v-103q-173 -51 -324 -51q-270 0 -411 138t-141 422q0 182 56.5 307t162.5 188t254 63q221 0 339.5 -143t118.5 -417v-41zM245 589h685q-5 211 -90.5 313t-248.5 102q-336 0 -346 -415zM533 -315q-23 22 -23 59
q0 38 23 60.5t63 22.5t63 -22.5t23 -60.5q0 -37 -23 -59t-63 -22t-63 22zM917 1258h-114l-207 287l-207 -287h-114l263 358h116z" />
    <glyph glyph-name="uni1EC8" unicode="&#x1ec8;" horiz-adv-x="533" 
d="M204 0v1480h126v-1480h-126zM240 1660.5q16 19.5 36.5 30.5t55.5 25q40 16 57.5 27.5t17.5 32.5q0 24 -29 37t-99 13q-61 0 -108.5 -7.5t-106.5 -26.5v68q94 34 219 34q104 0 154.5 -30.5t50.5 -83.5q0 -40 -25.5 -61t-73.5 -40q-39 -17 -57.5 -30.5t-21.5 -36.5h-87
q1 29 17 48.5z" />
    <glyph glyph-name="uni1EC9" unicode="&#x1ec9;" horiz-adv-x="493" 
d="M185 0v1083h124v-1083h-124zM222.5 1323.5q15.5 27.5 36.5 44.5t53 37q36 22 53 38.5t17 42.5q0 37 -33.5 54.5t-103.5 17.5q-42 0 -87.5 -6t-83.5 -18v70q34 11 80.5 17.5t89.5 6.5q219 0 219 -138q0 -45 -22.5 -71t-66.5 -53q-41 -27 -61.5 -48.5t-22.5 -59.5h-84
q1 38 16.5 65.5z" />
    <glyph glyph-name="uni1ECA" unicode="&#x1eca;" horiz-adv-x="533" 
d="M204 0v1480h126v-1480h-126zM199 -310.5q-24 21.5 -24 57.5q0 37 24 58.5t67 21.5t67 -21.5t24 -58.5q0 -36 -24 -57.5t-67 -21.5t-67 21.5z" />
    <glyph glyph-name="uni1ECB" unicode="&#x1ecb;" horiz-adv-x="493" 
d="M185 0v1083h124v-1083h-124zM179.5 1360q-24.5 22 -24.5 61q0 40 24.5 62.5t67.5 22.5t67.5 -22.5t24.5 -62.5q0 -39 -24.5 -61t-67.5 -22t-67.5 22zM184 -315q-23 22 -23 59q0 38 23 60.5t63 22.5t63 -22.5t23 -60.5q0 -37 -23 -59t-63 -22t-63 22z" />
    <glyph glyph-name="uni1ECC" unicode="&#x1ecc;" horiz-adv-x="1617" 
d="M450 64q-152 82 -236 251.5t-84 424.5t85 424.5t237.5 251.5t356.5 82q206 0 358 -82t236 -251.5t84 -424.5t-85 -424.5t-237 -251.5t-356 -82q-207 0 -359 82zM1211.5 248.5q145.5 156.5 145.5 486.5q0 337 -145.5 495t-402.5 158t-402.5 -156t-145.5 -487
q0 -338 145 -495.5t403 -157.5q257 0 402.5 156.5zM742 -310.5q-24 21.5 -24 57.5q0 37 24 58.5t67 21.5t67 -21.5t24 -58.5q0 -36 -24 -57.5t-67 -21.5t-67 21.5z" />
    <glyph glyph-name="uni1ECD" unicode="&#x1ecd;" horiz-adv-x="1241" 
d="M252.5 120q-133.5 139 -133.5 421q0 187 61.5 311.5t174 185.5t265.5 61q237 0 369.5 -137.5t132.5 -420.5q0 -186 -62.5 -311.5t-175 -187t-264.5 -61.5q-234 0 -367.5 139zM995 540q0 237 -97.5 345t-277.5 108q-374 0 -374 -450q0 -456 374 -456q375 0 375 453z
M557 -315q-23 22 -23 59q0 38 23 60.5t63 22.5t63 -22.5t23 -60.5q0 -37 -23 -59t-63 -22t-63 22z" />
    <glyph glyph-name="uni1ECE" unicode="&#x1ece;" horiz-adv-x="1617" 
d="M450 64q-152 82 -236 251.5t-84 424.5t85 424.5t237.5 251.5t356.5 82q206 0 358 -82t236 -251.5t84 -424.5t-85 -424.5t-237 -251.5t-356 -82q-207 0 -359 82zM1211.5 248.5q145.5 156.5 145.5 486.5q0 337 -145.5 495t-402.5 158t-402.5 -156t-145.5 -487
q0 -338 145 -495.5t403 -157.5q257 0 402.5 156.5zM782 1660.5q16 19.5 36.5 30.5t55.5 25q40 16 57.5 27.5t17.5 32.5q0 24 -29 37t-99 13q-61 0 -108.5 -7.5t-106.5 -26.5v68q94 34 219 34q104 0 154.5 -30.5t50.5 -83.5q0 -40 -25.5 -61t-73.5 -40q-39 -17 -57.5 -30.5
t-21.5 -36.5h-87q1 29 17 48.5z" />
    <glyph glyph-name="uni1ECF" unicode="&#x1ecf;" horiz-adv-x="1241" 
d="M252.5 120q-133.5 139 -133.5 421q0 187 61.5 311.5t174 185.5t265.5 61q237 0 369.5 -137.5t132.5 -420.5q0 -186 -62.5 -311.5t-175 -187t-264.5 -61.5q-234 0 -367.5 139zM995 540q0 237 -97.5 345t-277.5 108q-374 0 -374 -450q0 -456 374 -456q375 0 375 453z
M595.5 1323.5q15.5 27.5 36.5 44.5t53 37q36 22 53 38.5t17 42.5q0 37 -33.5 54.5t-103.5 17.5q-42 0 -87.5 -6t-83.5 -18v70q34 11 80.5 17.5t89.5 6.5q219 0 219 -138q0 -45 -22.5 -71t-66.5 -53q-41 -27 -61.5 -48.5t-22.5 -59.5h-84q1 38 16.5 65.5z" />
    <glyph glyph-name="uni1ED0" unicode="&#x1ed0;" horiz-adv-x="1617" 
d="M450 64q-152 82 -236 251.5t-84 424.5t85 424.5t237.5 251.5t356.5 82q206 0 358 -82t236 -251.5t84 -424.5t-85 -424.5t-237 -251.5t-356 -82q-207 0 -359 82zM1211.5 248.5q145.5 156.5 145.5 486.5q0 337 -145.5 495t-402.5 158t-402.5 -156t-145.5 -487
q0 -338 145 -495.5t403 -157.5q257 0 402.5 156.5zM1270 2064h118l-225 -267h-99zM749 1884h120l291 -272h-131l-220 213l-220 -213h-131z" />
    <glyph glyph-name="uni1ED1" unicode="&#x1ed1;" horiz-adv-x="1241" 
d="M252.5 120q-133.5 139 -133.5 421q0 187 61.5 311.5t174 185.5t265.5 61q237 0 369.5 -137.5t132.5 -420.5q0 -186 -62.5 -311.5t-175 -187t-264.5 -61.5q-234 0 -367.5 139zM995 540q0 237 -97.5 345t-277.5 108q-374 0 -374 -450q0 -456 374 -456q375 0 375 453z
M1067 1868h129l-241 -272h-107zM562 1616h116l263 -358h-114l-207 287l-207 -287h-114z" />
    <glyph glyph-name="uni1ED2" unicode="&#x1ed2;" horiz-adv-x="1617" 
d="M450 64q-152 82 -236 251.5t-84 424.5t85 424.5t237.5 251.5t356.5 82q206 0 358 -82t236 -251.5t84 -424.5t-85 -424.5t-237 -251.5t-356 -82q-207 0 -359 82zM1211.5 248.5q145.5 156.5 145.5 486.5q0 337 -145.5 495t-402.5 158t-402.5 -156t-145.5 -487
q0 -338 145 -495.5t403 -157.5q257 0 402.5 156.5zM1186 1797h-99l-225 267h118zM749 1884h120l291 -272h-131l-220 213l-220 -213h-131z" />
    <glyph glyph-name="uni1ED3" unicode="&#x1ed3;" horiz-adv-x="1241" 
d="M252.5 120q-133.5 139 -133.5 421q0 187 61.5 311.5t174 185.5t265.5 61q237 0 369.5 -137.5t132.5 -420.5q0 -186 -62.5 -311.5t-175 -187t-264.5 -61.5q-234 0 -367.5 139zM995 540q0 237 -97.5 345t-277.5 108q-374 0 -374 -450q0 -456 374 -456q375 0 375 453z
M983 1596h-107l-241 272h128zM562 1616h116l263 -358h-114l-207 287l-207 -287h-114z" />
    <glyph glyph-name="uni1ED4" unicode="&#x1ed4;" horiz-adv-x="1617" 
d="M450 64q-152 82 -236 251.5t-84 424.5t85 424.5t237.5 251.5t356.5 82q206 0 358 -82t236 -251.5t84 -424.5t-85 -424.5t-237 -251.5t-356 -82q-207 0 -359 82zM1211.5 248.5q145.5 156.5 145.5 486.5q0 337 -145.5 495t-402.5 158t-402.5 -156t-145.5 -487
q0 -338 145 -495.5t403 -157.5q257 0 402.5 156.5zM1281 2042.5q50 -29.5 50 -80.5q0 -39 -25 -59.5t-73 -39.5q-38 -15 -57.5 -29t-22.5 -37h-87q2 40 30 61t79 41q38 14 56.5 26.5t18.5 32.5q0 24 -29 37t-99 13q-60 0 -107.5 -7.5t-107.5 -26.5v65q96 33 220 33
q104 0 154 -29.5zM749 1884h120l291 -272h-131l-220 213l-220 -213h-131z" />
    <glyph glyph-name="uni1ED5" unicode="&#x1ed5;" horiz-adv-x="1241" 
d="M252.5 120q-133.5 139 -133.5 421q0 187 61.5 311.5t174 185.5t265.5 61q237 0 369.5 -137.5t132.5 -420.5q0 -186 -62.5 -311.5t-175 -187t-264.5 -61.5q-234 0 -367.5 139zM995 540q0 237 -97.5 345t-277.5 108q-374 0 -374 -450q0 -456 374 -456q375 0 375 453z
M1063.5 1842.5q48.5 -29.5 48.5 -81.5q0 -37 -23.5 -56.5t-69.5 -38.5q-38 -16 -58 -30.5t-23 -39.5h-83q2 41 30 62.5t77 41.5q37 15 54 26.5t17 30.5q0 24 -28 37t-96 13q-60 0 -107 -7.5t-104 -25.5v64q91 34 215 34q102 0 150.5 -29.5zM562 1616h116l263 -358h-114
l-207 287l-207 -287h-114z" />
    <glyph glyph-name="uni1ED6" unicode="&#x1ed6;" horiz-adv-x="1617" 
d="M450 64q-152 82 -236 251.5t-84 424.5t85 424.5t237.5 251.5t356.5 82q206 0 358 -82t236 -251.5t84 -424.5t-85 -424.5t-237 -251.5t-356 -82q-207 0 -359 82zM1211.5 248.5q145.5 156.5 145.5 486.5q0 337 -145.5 495t-402.5 158t-402.5 -156t-145.5 -487
q0 -338 145 -495.5t403 -157.5q257 0 402.5 156.5zM1070.5 2019q44.5 17 89.5 53v-83q-71 -60 -188 -60q-45 0 -85 10t-97 29q-51 17 -82.5 25t-62.5 8q-53 0 -97.5 -17t-89.5 -53v83q71 60 188 60q45 0 85 -10t97 -29q51 -17 82.5 -25t62.5 -8q53 0 97.5 17zM749 1884h120
l291 -272h-131l-220 213l-220 -213h-131z" />
    <glyph glyph-name="uni1ED7" unicode="&#x1ed7;" horiz-adv-x="1241" 
d="M252.5 120q-133.5 139 -133.5 421q0 187 61.5 311.5t174 185.5t265.5 61q237 0 369.5 -137.5t132.5 -420.5q0 -186 -62.5 -311.5t-175 -187t-264.5 -61.5q-234 0 -367.5 139zM995 540q0 237 -97.5 345t-277.5 108q-374 0 -374 -450q0 -456 374 -456q375 0 375 453z
M872.5 1760.5q42.5 16.5 81.5 51.5v-87q-66 -60 -177 -60q-43 0 -81 10t-92 29q-48 17 -79.5 25t-62.5 8q-52 0 -94.5 -16.5t-81.5 -51.5v87q66 60 177 60q43 0 81 -10t92 -29q48 -17 79.5 -25t62.5 -8q52 0 94.5 16.5zM560 1605h120l270 -347h-118l-212 281l-212 -281h-118
z" />
    <glyph glyph-name="uni1ED8" unicode="&#x1ed8;" horiz-adv-x="1617" 
d="M450 64q-152 82 -236 251.5t-84 424.5t85 424.5t237.5 251.5t356.5 82q206 0 358 -82t236 -251.5t84 -424.5t-85 -424.5t-237 -251.5t-356 -82q-207 0 -359 82zM1211.5 248.5q145.5 156.5 145.5 486.5q0 337 -145.5 495t-402.5 158t-402.5 -156t-145.5 -487
q0 -338 145 -495.5t403 -157.5q257 0 402.5 156.5zM742 -310.5q-24 21.5 -24 57.5q0 37 24 58.5t67 21.5t67 -21.5t24 -58.5q0 -36 -24 -57.5t-67 -21.5t-67 21.5zM1160 1612h-131l-220 215l-220 -215h-131l291 278h120z" />
    <glyph glyph-name="uni1ED9" unicode="&#x1ed9;" horiz-adv-x="1241" 
d="M252.5 120q-133.5 139 -133.5 421q0 187 61.5 311.5t174 185.5t265.5 61q237 0 369.5 -137.5t132.5 -420.5q0 -186 -62.5 -311.5t-175 -187t-264.5 -61.5q-234 0 -367.5 139zM995 540q0 237 -97.5 345t-277.5 108q-374 0 -374 -450q0 -456 374 -456q375 0 375 453z
M557 -315q-23 22 -23 59q0 38 23 60.5t63 22.5t63 -22.5t23 -60.5q0 -37 -23 -59t-63 -22t-63 22zM941 1258h-114l-207 287l-207 -287h-114l263 358h116z" />
    <glyph glyph-name="uni1EDA" unicode="&#x1eda;" horiz-adv-x="1617" 
d="M1416.5 1138.5q70.5 -161.5 70.5 -398.5q0 -259 -84 -428.5t-235.5 -249.5t-358.5 -80t-359 82t-236 251.5t-84 424.5t85 424.5t237.5 251.5t356.5 82q47 0 97.5 -5t63.5 -6q120 -14 201 -14q220 0 220 161q0 37 -6 69.5t-18 72.5h97q14 -37 19.5 -70t5.5 -75
q0 -108 -70 -171.5t-204 -71.5q131 -88 201.5 -249.5zM1211.5 248.5q145.5 156.5 145.5 486.5q0 337 -145.5 495t-402.5 158t-402.5 -156t-145.5 -487q0 -338 145 -495.5t403 -157.5q257 0 402.5 156.5zM748 1612l219 278h143l-241 -278h-121z" />
    <glyph glyph-name="uni1EDB" unicode="&#x1edb;" horiz-adv-x="1241" 
d="M1122 541q0 -186 -62.5 -311.5t-175 -187t-264.5 -61.5q-234 0 -367.5 139t-133.5 421q0 187 62 311.5t175 185.5t267 61q42 0 131 -7q50 -5 80 -5q217 0 217 167q0 37 -6 69.5t-18 72.5h95q13 -38 19 -71t6 -74q0 -100 -54.5 -162.5t-157.5 -80.5q187 -138 187 -467z
M995 540q0 237 -97.5 345t-277.5 108q-374 0 -374 -450q0 -456 374 -456q375 0 375 453zM553 1258l267 358h144l-287 -358h-124z" />
    <glyph glyph-name="uni1EDC" unicode="&#x1edc;" horiz-adv-x="1617" 
d="M1416.5 1138.5q70.5 -161.5 70.5 -398.5q0 -259 -84 -428.5t-235.5 -249.5t-358.5 -80t-359 82t-236 251.5t-84 424.5t85 424.5t237.5 251.5t356.5 82q47 0 97.5 -5t63.5 -6q120 -14 201 -14q220 0 220 161q0 37 -6 69.5t-18 72.5h97q14 -37 19.5 -70t5.5 -75
q0 -108 -70 -171.5t-204 -71.5q131 -88 201.5 -249.5zM1211.5 248.5q145.5 156.5 145.5 486.5q0 337 -145.5 495t-402.5 158t-402.5 -156t-145.5 -487q0 -338 145 -495.5t403 -157.5q257 0 402.5 156.5zM748 1612l-241 278h143l220 -278h-122z" />
    <glyph glyph-name="uni1EDD" unicode="&#x1edd;" horiz-adv-x="1241" 
d="M1122 541q0 -186 -62.5 -311.5t-175 -187t-264.5 -61.5q-234 0 -367.5 139t-133.5 421q0 187 62 311.5t175 185.5t267 61q42 0 131 -7q50 -5 80 -5q217 0 217 167q0 37 -6 69.5t-18 72.5h95q13 -38 19 -71t6 -74q0 -100 -54.5 -162.5t-157.5 -80.5q187 -138 187 -467z
M995 540q0 237 -97.5 345t-277.5 108q-374 0 -374 -450q0 -456 374 -456q375 0 375 453zM553 1258l-287 358h144l267 -358h-124z" />
    <glyph glyph-name="uni1EDE" unicode="&#x1ede;" horiz-adv-x="1617" 
d="M1416.5 1138.5q70.5 -161.5 70.5 -398.5q0 -259 -84 -428.5t-235.5 -249.5t-358.5 -80t-359 82t-236 251.5t-84 424.5t85 424.5t237.5 251.5t356.5 82q47 0 97.5 -5t63.5 -6q120 -14 201 -14q220 0 220 161q0 37 -6 69.5t-18 72.5h97q14 -37 19.5 -70t5.5 -75
q0 -108 -70 -171.5t-204 -71.5q131 -88 201.5 -249.5zM1211.5 248.5q145.5 156.5 145.5 486.5q0 337 -145.5 495t-402.5 158t-402.5 -156t-145.5 -487q0 -338 145 -495.5t403 -157.5q257 0 402.5 156.5zM782 1660.5q16 19.5 36.5 30.5t55.5 25q40 16 57.5 27.5t17.5 32.5
q0 24 -29 37t-99 13q-61 0 -108.5 -7.5t-106.5 -26.5v68q94 34 219 34q104 0 154.5 -30.5t50.5 -83.5q0 -40 -25.5 -61t-73.5 -40q-39 -17 -57.5 -30.5t-21.5 -36.5h-87q1 29 17 48.5z" />
    <glyph glyph-name="uni1EDF" unicode="&#x1edf;" horiz-adv-x="1241" 
d="M1122 541q0 -186 -62.5 -311.5t-175 -187t-264.5 -61.5q-234 0 -367.5 139t-133.5 421q0 187 62 311.5t175 185.5t267 61q42 0 131 -7q50 -5 80 -5q217 0 217 167q0 37 -6 69.5t-18 72.5h95q13 -38 19 -71t6 -74q0 -100 -54.5 -162.5t-157.5 -80.5q187 -138 187 -467z
M995 540q0 237 -97.5 345t-277.5 108q-374 0 -374 -450q0 -456 374 -456q375 0 375 453zM590.5 1323.5q15.5 27.5 36.5 44.5t53 37q36 22 53 38.5t17 42.5q0 37 -33.5 54.5t-103.5 17.5q-42 0 -87.5 -6t-83.5 -18v70q34 11 80.5 17.5t89.5 6.5q219 0 219 -138
q0 -45 -22.5 -71t-66.5 -53q-41 -27 -61.5 -48.5t-22.5 -59.5h-84q1 38 16.5 65.5z" />
    <glyph glyph-name="uni1EE0" unicode="&#x1ee0;" horiz-adv-x="1617" 
d="M888 1692q-41 10 -96 30q-51 17 -83.5 25.5t-66.5 8.5q-58 0 -101.5 -16.5t-83.5 -52.5v91q33 32 78 47t108 15q45 0 85 -10t97 -29q50 -18 83 -26.5t68 -8.5q58 0 101 16.5t83 52.5v-91q-33 -32 -78 -47t-108 -15q-45 0 -86 10zM1416.5 1138.5q70.5 -161.5 70.5 -398.5
q0 -259 -84 -428.5t-235.5 -249.5t-358.5 -80t-359 82t-236 251.5t-84 424.5t85 424.5t237.5 251.5t356.5 82q47 0 97.5 -5t63.5 -6q120 -14 201 -14q220 0 220 161q0 37 -6 69.5t-18 72.5h97q14 -37 19.5 -70t5.5 -75q0 -108 -70 -171.5t-204 -71.5q131 -88 201.5 -249.5z
M1211.5 248.5q145.5 156.5 145.5 486.5q0 337 -145.5 495t-402.5 158t-402.5 -156t-145.5 -487q0 -338 145 -495.5t403 -157.5q257 0 402.5 156.5z" />
    <glyph glyph-name="uni1EE1" unicode="&#x1ee1;" horiz-adv-x="1241" 
d="M689 1370.5q-38 10.5 -90 31.5q-49 19 -78 27.5t-60 8.5q-51 0 -92.5 -17.5t-80.5 -55.5v95q64 64 174 64q41 0 77 -10.5t93 -31.5q49 -19 78 -27.5t59 -8.5q51 0 93 17.5t81 55.5v-95q-65 -64 -175 -64q-41 0 -79 10.5zM1122 541q0 -186 -62.5 -311.5t-175 -187
t-264.5 -61.5q-234 0 -367.5 139t-133.5 421q0 187 62 311.5t175 185.5t267 61q42 0 131 -7q50 -5 80 -5q217 0 217 167q0 37 -6 69.5t-18 72.5h95q13 -38 19 -71t6 -74q0 -100 -54.5 -162.5t-157.5 -80.5q187 -138 187 -467zM995 540q0 237 -97.5 345t-277.5 108
q-374 0 -374 -450q0 -456 374 -456q375 0 375 453z" />
    <glyph glyph-name="uni1EE2" unicode="&#x1ee2;" horiz-adv-x="1617" 
d="M1416.5 1138.5q70.5 -161.5 70.5 -398.5q0 -259 -84 -428.5t-235.5 -249.5t-358.5 -80t-359 82t-236 251.5t-84 424.5t85 424.5t237.5 251.5t356.5 82q47 0 97.5 -5t63.5 -6q120 -14 201 -14q220 0 220 161q0 37 -6 69.5t-18 72.5h97q14 -37 19.5 -70t5.5 -75
q0 -108 -70 -171.5t-204 -71.5q131 -88 201.5 -249.5zM1211.5 248.5q145.5 156.5 145.5 486.5q0 337 -145.5 495t-402.5 158t-402.5 -156t-145.5 -487q0 -338 145 -495.5t403 -157.5q257 0 402.5 156.5zM742 -310.5q-24 21.5 -24 57.5q0 37 24 58.5t67 21.5t67 -21.5
t24 -58.5q0 -36 -24 -57.5t-67 -21.5t-67 21.5z" />
    <glyph glyph-name="uni1EE3" unicode="&#x1ee3;" horiz-adv-x="1241" 
d="M1122 541q0 -186 -62.5 -311.5t-175 -187t-264.5 -61.5q-234 0 -367.5 139t-133.5 421q0 187 62 311.5t175 185.5t267 61q42 0 131 -7q50 -5 80 -5q217 0 217 167q0 37 -6 69.5t-18 72.5h95q13 -38 19 -71t6 -74q0 -100 -54.5 -162.5t-157.5 -80.5q187 -138 187 -467z
M995 540q0 237 -97.5 345t-277.5 108q-374 0 -374 -450q0 -456 374 -456q375 0 375 453zM552 -315q-23 22 -23 59q0 38 23 60.5t63 22.5t63 -22.5t23 -60.5q0 -37 -23 -59t-63 -22t-63 22z" />
    <glyph glyph-name="uni1EE4" unicode="&#x1ee4;" horiz-adv-x="1576" 
d="M455 46q-131 64 -195 196.5t-64 341.5v896h126v-910q0 -168 50.5 -273t153 -155t263.5 -50t264 50t153.5 155t50.5 273v910h123v-896q0 -209 -63.5 -341.5t-194 -196.5t-333.5 -64t-334 64zM722 -310.5q-24 21.5 -24 57.5q0 37 24 58.5t67 21.5t67 -21.5t24 -58.5
q0 -36 -24 -57.5t-67 -21.5t-67 21.5z" />
    <glyph glyph-name="uni1EE5" unicode="&#x1ee5;" horiz-adv-x="1265" 
d="M272.5 80q-104.5 98 -104.5 307v696h124v-690q0 -159 75.5 -229.5t212.5 -70.5q102 0 202 40.5t174 119.5v830h124v-1083h-105l-9 123h-9q-80 -69 -181.5 -105t-213.5 -36q-185 0 -289.5 98zM561 -315q-23 22 -23 59q0 38 23 60.5t63 22.5t63 -22.5t23 -60.5
q0 -37 -23 -59t-63 -22t-63 22z" />
    <glyph glyph-name="uni1EE6" unicode="&#x1ee6;" horiz-adv-x="1576" 
d="M455 46q-131 64 -195 196.5t-64 341.5v896h126v-910q0 -168 50.5 -273t153 -155t263.5 -50t264 50t153.5 155t50.5 273v910h123v-896q0 -209 -63.5 -341.5t-194 -196.5t-333.5 -64t-334 64zM762 1660.5q16 19.5 36.5 30.5t55.5 25q40 16 57.5 27.5t17.5 32.5q0 24 -29 37
t-99 13q-61 0 -108.5 -7.5t-106.5 -26.5v68q94 34 219 34q104 0 154.5 -30.5t50.5 -83.5q0 -40 -25.5 -61t-73.5 -40q-39 -17 -57.5 -30.5t-21.5 -36.5h-87q1 29 17 48.5z" />
    <glyph glyph-name="uni1EE7" unicode="&#x1ee7;" horiz-adv-x="1265" 
d="M272.5 80q-104.5 98 -104.5 307v696h124v-690q0 -159 75.5 -229.5t212.5 -70.5q102 0 202 40.5t174 119.5v830h124v-1083h-105l-9 123h-9q-80 -69 -181.5 -105t-213.5 -36q-185 0 -289.5 98zM599.5 1323.5q15.5 27.5 36.5 44.5t53 37q36 22 53 38.5t17 42.5
q0 37 -33.5 54.5t-103.5 17.5q-42 0 -87.5 -6t-83.5 -18v70q34 11 80.5 17.5t89.5 6.5q219 0 219 -138q0 -45 -22.5 -71t-66.5 -53q-41 -27 -61.5 -48.5t-22.5 -59.5h-84q1 38 16.5 65.5z" />
    <glyph glyph-name="uni1EE8" unicode="&#x1ee8;" horiz-adv-x="1576" 
d="M455 46q-131 64 -195 196.5t-64 341.5v896h126v-910q0 -168 50.5 -273t153 -155t263.5 -50t264 50t153.5 155t50.5 273v910h48q110 0 165 37t55 117q0 37 -6 69.5t-18 72.5h98q13 -37 18.5 -70t5.5 -75q0 -101 -63 -161t-180 -69v-817q0 -209 -63.5 -341.5t-194 -196.5
t-333.5 -64t-334 64zM728 1612l219 278h143l-241 -278h-121z" />
    <glyph glyph-name="uni1EE9" unicode="&#x1ee9;" horiz-adv-x="1288" 
d="M1261 1075.5q-63 -64.5 -181 -76.5v-999h-105l-9 123h-9q-80 -69 -181.5 -105t-213.5 -36q-185 0 -289.5 98t-104.5 307v696h124v-690q0 -159 75.5 -229.5t212.5 -70.5q102 0 202 40.5t174 119.5v830h55q217 0 217 167q0 37 -6 69.5t-18 72.5h95q14 -37 19.5 -70t5.5 -75
q0 -107 -63 -171.5zM562 1258l267 358h144l-287 -358h-124z" />
    <glyph glyph-name="uni1EEA" unicode="&#x1eea;" horiz-adv-x="1576" 
d="M455 46q-131 64 -195 196.5t-64 341.5v896h126v-910q0 -168 50.5 -273t153 -155t263.5 -50t264 50t153.5 155t50.5 273v910h48q110 0 165 37t55 117q0 37 -6 69.5t-18 72.5h98q13 -37 18.5 -70t5.5 -75q0 -101 -63 -161t-180 -69v-817q0 -209 -63.5 -341.5t-194 -196.5
t-333.5 -64t-334 64zM728 1612l-241 278h143l220 -278h-122z" />
    <glyph glyph-name="uni1EEB" unicode="&#x1eeb;" horiz-adv-x="1288" 
d="M1261 1075.5q-63 -64.5 -181 -76.5v-999h-105l-9 123h-9q-80 -69 -181.5 -105t-213.5 -36q-185 0 -289.5 98t-104.5 307v696h124v-690q0 -159 75.5 -229.5t212.5 -70.5q102 0 202 40.5t174 119.5v830h55q217 0 217 167q0 37 -6 69.5t-18 72.5h95q14 -37 19.5 -70t5.5 -75
q0 -107 -63 -171.5zM562 1258l-287 358h144l267 -358h-124z" />
    </font>
</defs>
</svg>
