<?xml version="1.0" standalone="no"?>
<!DOCTYPE svg PUBLIC "-//W3C//DTD SVG 1.1//EN" "http://www.w3.org/Graphics/SVG/1.1/DTD/svg11.dtd" >
<svg xmlns="http://www.w3.org/2000/svg" xmlns:xlink="http://www.w3.org/1999/xlink" version="1.1">
<metadata>
Created by FontForge 20170731 at Tue Jan 31 13:40:54 2017
 By Aleksey,,,
Copyright 2012 The Encode Project Authors (impallari@gmail.com), with Reserved Font Name "Encode Sans".
</metadata>
<defs>
<font id="EncodeSansExpanded-ExtraBold" horiz-adv-x="1406" >
  <font-face 
    font-family="Encode Sans Expanded ExtraBold"
    font-weight="800"
    font-stretch="expanded"
    units-per-em="2000"
    panose-1="0 0 9 5 0 0 0 0 0 0"
    ascent="1600"
    descent="-400"
    x-height="1097"
    cap-height="1480"
    bbox="-1158 -510 3374 2295"
    underline-thickness="50"
    underline-position="-150"
    unicode-range="U+000D-FB02"
  />
<missing-glyph horiz-adv-x="1028" 
d="M843 1616v-2056h-652v2056h652zM685 1478h-340v-68h134v-76h-136v-68h342v68h-136v76h136v68zM549 1213h-206v-214h342v70h-136v144zM479 1143v-74h-68v74h68zM685 944h-342v-68h136v-76h-136v-68h206v144h136v68zM685 820h-68v-135h-274v-70h342v205zM685 569h-206v-115
h70v48h68v-97h-206v164h-68v-232h342v232zM685 214h-342v-233h342v233zM617 146v-97h-206v97h206zM685 -66h-342v-68h144l-144 -96v-68h342v68h-210l144 96h66v68z" />
    <glyph glyph-name="fi" unicode="fi" horiz-adv-x="1614" 
d="M302.5 1395.5q67.5 115.5 193 178t294.5 62.5q54 0 93.5 -3.5t83.5 -13.5v-309q-49 13 -109 13q-107 0 -161 -46.5t-54 -137.5v-42h299v-318h-299v-779h-408v779h-189v318h189v29q0 154 67.5 269.5zM1038 1419q0 191 244 191t244 -191t-244 -191t-244 191zM1078 0v1097
h408v-1097h-408z" />
    <glyph glyph-name="fl" unicode="fl" horiz-adv-x="1614" 
d="M302.5 1395.5q67.5 115.5 193 178t294.5 62.5q54 0 93.5 -3.5t83.5 -13.5v-309q-49 13 -109 13q-107 0 -161 -46.5t-54 -137.5v-42h299v-318h-299v-779h-408v779h-189v318h189v29q0 154 67.5 269.5zM1078 1616h408v-1616h-408v1616z" />
    <glyph glyph-name="f_j" unicode="fj" horiz-adv-x="1614" 
d="M643 779v-779h-408v779h-189v318h189v29q0 154 67.5 269.5t193 178t294.5 62.5q54 0 93.5 -3.5t83.5 -13.5v-309q-49 13 -109 13q-107 0 -161 -46.5t-54 -137.5v-42h299v-318h-299zM1030 1421q0 191 244 191t244 -191t-244 -191t-244 191zM1078 1097h408v-905
q0 -193 -71 -351t-238 -315l-254 170q85 102 120 212.5t35 269.5v919z" />
    <glyph glyph-name=".notdef" horiz-adv-x="1028" 
d="M843 1616v-2056h-652v2056h652zM685 1478h-340v-68h134v-76h-136v-68h342v68h-136v76h136v68zM549 1213h-206v-214h342v70h-136v144zM479 1143v-74h-68v74h68zM685 944h-342v-68h136v-76h-136v-68h206v144h136v68zM685 820h-68v-135h-274v-70h342v205zM685 569h-206v-115
h70v48h68v-97h-206v164h-68v-232h342v232zM685 214h-342v-233h342v233zM617 146v-97h-206v97h206zM685 -66h-342v-68h144l-144 -96v-68h342v68h-210l144 96h66v68z" />
    <glyph glyph-name=".null" horiz-adv-x="0" 
 />
    <glyph glyph-name="nonmarkingreturn" unicode="&#xd;" horiz-adv-x="579" 
 />
    <glyph glyph-name="NULL" horiz-adv-x="0" 
 />
    <glyph glyph-name="NULL" horiz-adv-x="0" 
 />
    <glyph glyph-name="space" unicode=" " horiz-adv-x="579" 
 />
    <glyph glyph-name="exclam" unicode="!" horiz-adv-x="701" 
d="M231 501l-95 480v499h429v-499l-89 -480h-245zM161.5 37.5q-68.5 56.5 -68.5 155.5t67.5 155t190.5 56q122 0 190 -57t68 -154q0 -63 -31 -111t-89.5 -74.5t-137.5 -26.5q-121 0 -189.5 56.5z" />
    <glyph glyph-name="quotedbl" unicode="&#x22;" horiz-adv-x="1075" 
d="M156 808l-71 808h389l-72 -808h-246zM672 808l-71 808h389l-72 -808h-246z" />
    <glyph glyph-name="numbersign" unicode="#" 
d="M1296 829h-182l-22 -178h204v-306h-242l-43 -345h-313l43 345h-174l-43 -345h-313l43 345h-144v306h182l22 178h-204v306h242l43 345h313l-43 -345h174l43 345h313l-43 -345h144v-306zM779 651l22 178h-174l-22 -178h174z" />
    <glyph glyph-name="dollar" unicode="$" horiz-adv-x="1346" 
d="M1170 171.5q-107 -115.5 -304 -162.5v-249h-387v223q-195 11 -371 61v326q100 -32 239 -51t241 -19q107 0 168.5 16t86 45t24.5 73q0 36 -17 59.5t-59.5 40.5t-121.5 32l-134 26q-166 32 -268.5 90.5t-150 144.5t-47.5 205q0 170 102.5 281.5t307.5 156.5v250h387v-221
q182 -7 328 -43v-326q-77 22 -182 36t-200 14q-184 0 -258 -34.5t-74 -99.5q0 -34 14.5 -56t50 -37.5t101.5 -29.5l133 -26q181 -34 290.5 -94.5t158.5 -146t49 -202.5q0 -167 -107 -282.5z" />
    <glyph glyph-name="percent" unicode="%" horiz-adv-x="2426" 
d="M317.5 622.5q-104.5 54.5 -162.5 159.5t-58 251t58 251.5t162.5 160.5t241.5 55t241.5 -55t162.5 -160.5t58 -251.5t-58 -251t-162.5 -159.5t-241.5 -54.5t-241.5 54.5zM681 0l728 1480h335l-728 -1480h-335zM670 864.5q41 54.5 41 168.5t-41.5 169t-110.5 55
q-70 0 -111 -54.5t-41 -169.5q0 -114 41 -168.5t111 -54.5t111 54.5zM1625.5 36.5q-104.5 54.5 -162.5 159.5t-58 251t58 251.5t162.5 160.5t241.5 55t241.5 -55t162.5 -160.5t58 -251.5t-58 -251t-162.5 -159.5t-241.5 -54.5t-241.5 54.5zM1978 279q41 54 41 168t-41.5 169
t-110.5 55t-110.5 -55t-41.5 -169t41 -168t111 -54t111 54z" />
    <glyph glyph-name="ampersand" unicode="&#x26;" horiz-adv-x="1814" 
d="M1654 -20l-301 170q-97 -83 -240.5 -125.5t-325.5 -42.5q-220 0 -370.5 52t-225.5 147t-75 224q0 124 68.5 218t181.5 144q-58 66 -81.5 131t-23.5 135q0 222 179 344.5t536 122.5q155 0 300 -23v-325q-61 12 -133.5 20t-139.5 8q-186 0 -259 -42.5t-73 -123.5
q0 -49 34 -89.5t121 -93.5l409 -232q1 12 1 37q0 113 -37 249h317q35 -129 35 -246q0 -114 -25 -205l288 -163zM1076 307l-410 233q-57 33 -87 52q-53 -61 -53 -145q0 -91 80 -141t230 -50q148 0 240 51z" />
    <glyph glyph-name="quotesingle" unicode="'" horiz-adv-x="559" 
d="M156 808l-71 808h389l-72 -808h-246z" />
    <glyph glyph-name="parenleft" unicode="(" horiz-adv-x="816" 
d="M112 588q0 670 413 1028h440q-160 -154 -257 -312.5t-140.5 -332.5t-43.5 -383t43.5 -383t140.5 -332.5t257 -312.5h-440q-413 358 -413 1028z" />
    <glyph glyph-name="parenright" unicode=")" horiz-adv-x="816" 
d="M108 -127.5q97 158.5 140.5 332.5t43.5 383t-43.5 383t-140.5 332.5t-257 312.5h440q413 -358 413 -1028t-413 -1028h-440q160 154 257 312.5z" />
    <glyph glyph-name="asterisk" unicode="*" horiz-adv-x="1087" 
d="M698 1120l132 -120l92 -129l-205 -148l-92 127l-82 186l-82 -186l-91 -127l-205 148l92 129l132 120l-171 18l-188 61l78 240l188 -60l159 -94l-38 182v149h253v-149l-39 -182l160 94l187 60l79 -240l-188 -61z" />
    <glyph glyph-name="plus" unicode="+" horiz-adv-x="1184" 
d="M434 285v325h-309v300h309v325h315v-325h310v-300h-310v-325h-315z" />
    <glyph glyph-name="comma" unicode="," horiz-adv-x="661" 
d="M519.5 364q65.5 -75 65.5 -222q0 -130 -50 -260.5t-138 -233.5h-228q52 101 80.5 180.5t37.5 154.5q-101 11 -157.5 71t-56.5 156q0 106 66.5 167.5t185.5 61.5q129 0 194.5 -75z" />
    <glyph glyph-name="hyphen" unicode="-" horiz-adv-x="1117" 
d="M125 404v329h868v-329h-868z" />
    <glyph glyph-name="period" unicode="." horiz-adv-x="661" 
d="M141.5 42.5q-68.5 61.5 -68.5 167.5q0 107 67.5 168t190.5 61q122 0 190 -62t68 -167q0 -69 -31 -120.5t-89.5 -80t-137.5 -28.5q-121 0 -189.5 61.5z" />
    <glyph glyph-name="slash" unicode="/" horiz-adv-x="995" 
d="M0 -240l586 1856h409l-585 -1856h-410z" />
    <glyph glyph-name="zero" unicode="0" horiz-adv-x="1544" 
d="M415 64.5q-150 84.5 -231.5 255t-81.5 420.5t81.5 420.5t231.5 255t356 84.5q207 0 357.5 -84.5t232 -255t81.5 -420.5t-81.5 -420.5t-232 -255t-357.5 -84.5q-206 0 -356 84.5zM968.5 410.5q66.5 96.5 66.5 328.5q0 233 -66.5 330t-195.5 97q-130 0 -197.5 -96.5
t-67.5 -328.5q0 -159 31 -253t89 -134t145 -40q129 0 195.5 96.5z" />
    <glyph glyph-name="one" unicode="1" horiz-adv-x="1033" 
d="M599 1486h282v-1486h-419v999l-415 -298v388z" />
    <glyph glyph-name="two" unicode="2" horiz-adv-x="1252" 
d="M1194 325v-325h-1141v213l478 503q99 103 138 169t39 126q0 87 -64 128t-217 41q-102 0 -207.5 -19t-184.5 -47v326q79 24 199.5 42t223.5 18q341 0 500.5 -108.5t159.5 -333.5q0 -120 -54.5 -229.5t-183.5 -239.5l-263 -264h577z" />
    <glyph glyph-name="three" unicode="3" horiz-adv-x="1260" 
d="M1110 649.5q79 -85.5 79 -228.5q0 -209 -163.5 -325t-507.5 -116q-242 0 -463 56v293q103 -26 218 -42t222 -16q162 0 235 44.5t73 129.5q0 84 -66 124.5t-227 40.5h-288v292h232q153 0 218 38t65 113q0 156 -263 156q-94 0 -198 -16.5t-191 -44.5v293q84 26 202 42.5
t225 16.5q311 0 467 -108t156 -308q0 -116 -66.5 -200.5t-181.5 -119.5q144 -29 223 -114.5z" />
    <glyph glyph-name="four" unicode="4" horiz-adv-x="1459" 
d="M1425 592v-318h-204v-274h-375v274h-809v220l546 986h401l-489 -888h351l36 388h339v-388h204z" />
    <glyph glyph-name="five" unicode="5" horiz-adv-x="1273" 
d="M930.5 845.5q149.5 -56.5 217 -153t67.5 -237.5q0 -230 -166 -352.5t-506 -122.5q-237 0 -463 63v293q102 -26 217 -42t222 -16q161 0 234.5 43.5t73.5 126.5q0 58 -36.5 94t-133 58.5t-276.5 31.5l-252 12l58 836h963v-298h-595l-19 -265q245 -15 394.5 -71.5z" />
    <glyph glyph-name="six" unicode="6" horiz-adv-x="1438" 
d="M1233 794q141 -113 141 -344q0 -141 -69 -247t-203 -164.5t-322 -58.5q-203 0 -353.5 79t-233 236.5t-82.5 388.5q0 261 91.5 443.5t273 277.5t445.5 95q109 0 198 -12.5t170 -42.5v-300q-75 28 -164 42.5t-174 14.5q-214 0 -322 -94.5t-116 -271.5q67 33 155 52t176 19
q248 0 389 -113zM942 307.5q58 46.5 58 133.5q0 93 -62 139t-179 46q-129 0 -245 -55q9 -168 76 -239t190 -71q104 0 162 46.5z" />
    <glyph glyph-name="seven" unicode="7" horiz-adv-x="1192" 
d="M13 1480h1121v-213l-507 -1267h-425l490 1155h-679v325z" />
    <glyph glyph-name="eight" unicode="8" horiz-adv-x="1544" 
d="M1385.5 639.5q64.5 -90.5 64.5 -215.5t-71.5 -225.5t-223 -159.5t-381.5 -59q-355 0 -520 103t-165 278q0 119 72.5 209t208.5 140q-125 66 -181 156.5t-56 205.5q0 127 72.5 223t223 150.5t376.5 54.5q193 0 328 -44t204.5 -127.5t69.5 -199.5q0 -229 -238 -334
q152 -65 216.5 -155.5zM587 1190.5q-64 -38.5 -64 -100.5q0 -50 28 -83.5t107.5 -64.5t236.5 -65q80 43 116 92.5t36 109.5q0 72 -63 111t-192 39q-141 0 -205 -38.5zM996 288.5q69 37.5 69 109.5q0 50 -31 85t-112 64.5t-231 58.5q-40 8 -59 13q-80 -38 -118 -90t-38 -109
q0 -169 300 -169q151 0 220 37.5z" />
    <glyph glyph-name="nine" unicode="9" horiz-adv-x="1438" 
d="M1011.5 1421q150.5 -79 233 -236.5t82.5 -388.5q0 -261 -91.5 -443.5t-273 -277.5t-445.5 -95q-109 0 -198 12.5t-170 42.5v300q75 -28 164 -42.5t174 -14.5q214 0 322 94.5t116 271.5q-67 -33 -155 -52t-176 -19q-248 0 -389 113t-141 344q0 141 69 247t203 164.5
t322 58.5q203 0 353.5 -79zM500 900q62 -46 179 -46q129 0 245 55q-9 168 -76 239t-190 71q-104 0 -162 -46.5t-58 -133.5q0 -93 62 -139z" />
    <glyph glyph-name="colon" unicode=":" horiz-adv-x="661" 
d="M141.5 42.5q-68.5 61.5 -68.5 167.5q0 107 67.5 168t190.5 61q122 0 190 -62t68 -167q0 -69 -31 -120.5t-89.5 -80t-137.5 -28.5q-121 0 -189.5 61.5zM141.5 719.5q-68.5 61.5 -68.5 167.5q0 107 67.5 168t190.5 61q122 0 190 -62t68 -167q0 -69 -31 -120.5t-89.5 -80
t-137.5 -28.5q-121 0 -189.5 61.5z" />
    <glyph glyph-name="semicolon" unicode=";" horiz-adv-x="661" 
d="M519.5 364q65.5 -75 65.5 -222q0 -130 -50 -260.5t-138 -233.5h-228q52 101 80.5 180.5t37.5 154.5q-101 11 -157.5 71t-56.5 156q0 106 66.5 167.5t185.5 61.5q129 0 194.5 -75zM141.5 719.5q-68.5 61.5 -68.5 167.5q0 107 67.5 168t190.5 61q122 0 190 -62t68 -167
q0 -69 -31 -120.5t-89.5 -80t-137.5 -28.5q-121 0 -189.5 61.5z" />
    <glyph glyph-name="less" unicode="&#x3c;" horiz-adv-x="1184" 
d="M1059 1274v-302l-641 -208l641 -216v-302l-934 327v374z" />
    <glyph glyph-name="equal" unicode="=" horiz-adv-x="1184" 
d="M125 850v301h934v-301h-934zM125 369v301h934v-301h-934z" />
    <glyph glyph-name="greater" unicode="&#x3e;" horiz-adv-x="1184" 
d="M125 1274l934 -327v-374l-934 -327v302l640 216l-640 208v302z" />
    <glyph glyph-name="question" unicode="?" horiz-adv-x="1154" 
d="M337 856q198 26 278 75t80 118q0 143 -267 143q-94 0 -196 -16.5t-189 -45.5v311q83 26 201 42.5t225 16.5q313 0 468.5 -109.5t155.5 -315.5q0 -309 -415 -414l-25 -162h-246zM341.5 37.5q-68.5 56.5 -68.5 155.5t67.5 155t190.5 56q122 0 189.5 -57t67.5 -154
q0 -63 -31 -111t-89 -74.5t-137 -26.5q-121 0 -189.5 56.5z" />
    <glyph glyph-name="at" unicode="@" horiz-adv-x="2383" 
d="M769 550.5q128 86.5 400 103.5l193 14q-13 76 -74 107.5t-190 31.5q-74 0 -165 -15t-168 -41v286q94 29 199 45t205 16q213 0 343 -48t191.5 -157t61.5 -296v-267q0 -112 102 -112q75 0 117 74t42 266q0 245 -88 397.5t-269.5 224.5t-469.5 72q-285 0 -465 -74.5
t-268 -235t-88 -421.5q0 -264 90 -425t279 -235.5t495 -74.5q270 0 536 55v-247q-261 -54 -536 -54q-1150 0 -1150 980q0 493 284 735.5t823 242.5q534 0 813 -231.5t279 -682.5q0 -318 -137.5 -461.5t-389.5 -143.5q-262 0 -368 153h-22q-35 -80 -119 -116.5t-196 -36.5
q-136 0 -230 41t-141 114.5t-47 171.5q0 158 128 244.5zM1204 452q-84 -6 -121.5 -31t-37.5 -79q0 -50 40 -74t105 -24q39 0 93 13.5t83 34.5v172z" />
    <glyph glyph-name="A" unicode="A" horiz-adv-x="1715" 
d="M1285 0l-124 361h-611l-124 -361h-405l535 1480h603l536 -1480h-410zM657 671h398l-199 580z" />
    <glyph glyph-name="B" unicode="B" horiz-adv-x="1497" 
d="M1363.5 651.5q73.5 -85.5 73.5 -225.5q0 -143 -77 -241t-257.5 -151t-483.5 -53q-102 0 -238 9t-239 23v1422q120 28 272 46t284 18q366 0 533 -107t167 -317q0 -114 -63.5 -198t-170.5 -114q126 -26 199.5 -111.5zM550 1196v-296h219q128 0 184 39t56 119q0 55 -25.5 89
t-83 51t-155.5 17q-97 0 -195 -19zM930.5 284.5q71.5 19.5 100.5 57t29 96.5q0 61 -24.5 99t-80 56t-150.5 18h-255v-337q75 -9 183 -9q126 0 197.5 19.5z" />
    <glyph glyph-name="C" unicode="C" horiz-adv-x="1457" 
d="M326 170q-234 190 -234 566q0 239 106.5 410.5t316 262.5t512.5 91q193 0 361 -35v-333q-154 32 -326 32q-276 0 -404.5 -105.5t-128.5 -318.5q0 -214 125.5 -319t387.5 -105q171 0 346 40v-332q-179 -44 -372 -44q-456 0 -690 190z" />
    <glyph glyph-name="D" unicode="D" horiz-adv-x="1762" 
d="M382.5 -6.5q-129.5 6.5 -240.5 20.5v1421q116 27 275.5 43t304.5 16q472 0 710 -185.5t238 -568.5q0 -267 -114 -432.5t-343.5 -243t-584.5 -77.5q-116 0 -245.5 6.5zM1027 358.5q111 44.5 164 139t53 245.5q0 220 -123 323t-380 103q-83 0 -181 -16v-833q65 -6 180 -6
q176 0 287 44.5z" />
    <glyph glyph-name="E" unicode="E" horiz-adv-x="1468" 
d="M555 310h824v-310h-1237v1480h1227v-310h-814v-259h708v-310h-708v-291z" />
    <glyph glyph-name="F" unicode="F" horiz-adv-x="1441" 
d="M1367 1162h-807v-289h697v-318h-697v-555h-418v1480h1225v-318z" />
    <glyph glyph-name="G" unicode="G" horiz-adv-x="1652" 
d="M1505 720v-700q-237 -39 -434 -39q-493 0 -736 190t-243 562q-1 241 110.5 413t334 263t548.5 91q88 0 183.5 -9t181.5 -26v-333q-156 32 -334 32q-208 -1 -338.5 -49t-191 -144t-60.5 -244q0 -201 128 -307t393 -106q46 0 69 1v405h389z" />
    <glyph glyph-name="H" unicode="H" horiz-adv-x="1763" 
d="M142 0v1480h418v-547h643v547h418v-1480h-418v579h-643v-579h-418z" />
    <glyph glyph-name="I" unicode="I" horiz-adv-x="703" 
d="M142 0v1480h418v-1480h-418z" />
    <glyph glyph-name="J" unicode="J" horiz-adv-x="703" 
d="M-10 -182q85 103 120.5 213t35.5 269v1180h414v-1172q-2 -193 -73 -350.5t-239 -312.5z" />
    <glyph glyph-name="K" unicode="K" horiz-adv-x="1515" 
d="M1102 0l-413 579h-129v-579h-418v1480h418v-547h128l380 547h440l-496 -714l545 -766h-455z" />
    <glyph glyph-name="L" unicode="L" horiz-adv-x="1334" 
d="M142 0v1480h418v-1155h761v-325h-1179z" />
    <glyph glyph-name="M" unicode="M" horiz-adv-x="2132" 
d="M1480 1480h506v-1480h-390v970l-356 -753h-347l-356 717v-934h-391v1480h507l419 -867z" />
    <glyph glyph-name="N" unicode="N" horiz-adv-x="1776" 
d="M1240 1480h394v-1480h-419l-679 912v-912h-394v1480h419l679 -912v912z" />
    <glyph glyph-name="O" unicode="O" horiz-adv-x="1847" 
d="M480.5 70.5q-187.5 90.5 -288 261.5t-100.5 408t100.5 408t287.5 261.5t443 90.5t443.5 -91t288 -262t100.5 -407q0 -235 -101 -406.5t-288.5 -262.5t-442.5 -91t-442.5 90.5zM1224.5 414.5q104.5 108.5 104.5 318.5q0 219 -105.5 330t-300.5 111q-194 0 -300 -107.5
t-106 -319.5q0 -222 104 -331.5t302 -109.5q197 0 301.5 108.5z" />
    <glyph glyph-name="P" unicode="P" horiz-adv-x="1498" 
d="M142 1451q266 48 525 48q379 0 564 -132t185 -414q0 -272 -179 -409.5t-532 -137.5q-31 0 -89 2q-38 2 -56 2v-410h-418v1451zM882 721.5q66 25.5 98 82t32 149.5q0 134 -73.5 195.5t-232.5 61.5q-81 0 -146 -11v-494q67 -9 149 -9q107 0 173 25.5z" />
    <glyph glyph-name="Q" unicode="Q" horiz-adv-x="1847" 
d="M1696 414.5q-59 -144.5 -179.5 -242.5t-300.5 -137q239 -56 528 -89l-62 -310q-607 84 -957.5 239.5t-491.5 364.5t-141 483q0 245 100.5 420t287.5 266t443 91t443.5 -90.5t288 -262t100.5 -407.5q0 -181 -59 -325.5zM923 306q197 0 301.5 108.5t104.5 318.5
q0 219 -105.5 330t-300.5 111q-194 0 -300 -107.5t-106 -319.5q0 -441 406 -441z" />
    <glyph glyph-name="R" unicode="R" horiz-adv-x="1554" 
d="M1084 0l-381 514q-47 0 -151 6v-520h-410v1435q117 28 267.5 46t277.5 18q355 0 534.5 -119t179.5 -371q0 -154 -75.5 -261.5t-217.5 -166.5l436 -581h-460zM552 816q91 -11 177 -11q146 0 215.5 48t69.5 155q0 106 -70.5 155t-218.5 49q-85 0 -173 -17v-379z" />
    <glyph glyph-name="S" unicode="S" horiz-adv-x="1346" 
d="M108 49v326q101 -35 241.5 -55t255.5 -20q145 0 203.5 33.5t58.5 100.5q0 36 -17 59.5t-59.5 40.5t-121.5 32l-134 26q-166 32 -268.5 90.5t-150 144.5t-47.5 205q0 226 180 347t535 121q224 0 410 -47v-326q-79 24 -186.5 38.5t-212.5 14.5q-173 0 -244 -35t-71 -99
q0 -34 14.5 -56t50 -37.5t101.5 -29.5l133 -26q181 -34 290.5 -94.5t158.5 -146t49 -202.5q0 -146 -81.5 -253t-234 -164t-360.5 -57q-263 0 -493 69z" />
    <glyph glyph-name="T" unicode="T" horiz-adv-x="1491" 
d="M536 0v1155h-514v325h1448v-325h-515v-1155h-419z" />
    <glyph glyph-name="U" unicode="U" horiz-adv-x="1726" 
d="M311.5 157q-175.5 177 -175.5 519v804h418v-838q0 -170 77 -250t236 -80q158 0 235 80t77 250v838h411v-804q0 -342 -174.5 -519t-548.5 -177q-380 0 -555.5 177z" />
    <glyph glyph-name="V" unicode="V" horiz-adv-x="1691" 
d="M1271 1480h412l-535 -1480h-604l-535 1480h441l406 -1167z" />
    <glyph glyph-name="W" unicode="W" horiz-adv-x="2680" 
d="M2250 1480h398l-448 -1480h-529l-326 1078l-336 -1078h-528l-449 1480h423l320 -1116l346 1116h459l338 -1135z" />
    <glyph glyph-name="X" unicode="X" horiz-adv-x="1560" 
d="M1023 777l592 -777h-466l-376 501l-374 -501h-452l585 770l-544 710h466l328 -434l326 434h450z" />
    <glyph glyph-name="Y" unicode="Y" horiz-adv-x="1491" 
d="M1527 1480l-569 -864v-616h-418v612l-594 868h444l366 -541l357 541h414z" />
    <glyph glyph-name="Z" unicode="Z" horiz-adv-x="1450" 
d="M623 325h745v-325h-1286v224l735 931h-724v325h1264v-224z" />
    <glyph glyph-name="bracketleft" unicode="[" horiz-adv-x="816" 
d="M162 -440v2056h678v-318h-270v-1420h253v-318h-661z" />
    <glyph glyph-name="backslash" unicode="\" horiz-adv-x="997" 
d="M586 -240l-586 1856h410l587 -1856h-411z" />
    <glyph glyph-name="bracketright" unicode="]" horiz-adv-x="816" 
d="M-7 -440v318h253v1420h-271v318h679v-2056h-661z" />
    <glyph glyph-name="asciicircum" unicode="^" 
d="M1361 740h-409l-249 409l-249 -409h-409l452 740h412z" />
    <glyph glyph-name="underscore" unicode="_" horiz-adv-x="1416" 
d="M91 -320v318h1234v-318h-1234z" />
    <glyph glyph-name="grave" unicode="`" horiz-adv-x="1200" 
d="M406 1226l-319 390h448l259 -390h-388z" />
    <glyph glyph-name="a" unicode="a" horiz-adv-x="1310" 
d="M936.5 1066.5q131.5 -48.5 193.5 -161.5t62 -308v-597h-338l-26 96h-19q-57 -59 -140 -88t-182 -29q-136 0 -230 42t-141 116t-47 169q0 159 129 247t402 103l191 12q-6 59 -35 92.5t-87 48.5t-155 15q-74 0 -167 -12.5t-172 -34.5v286q93 26 203 39t208 13
q219 0 350.5 -48.5zM710 252.5q46 11.5 83 35.5v169l-154 -9q-89 -7 -128 -34t-39 -75q0 -46 36.5 -72t108.5 -26q47 0 93 11.5z" />
    <glyph glyph-name="b" unicode="b" horiz-adv-x="1453" 
d="M379 -4.5q-136 16.5 -252 51.5v1569h408v-618h18q128 117 332 117q137 0 249 -60t178 -181.5t66 -296.5q0 -291 -183.5 -444.5t-540.5 -153.5q-139 0 -275 16.5zM905 346.5q70 66.5 70 202.5q0 244 -237 244q-55 0 -107.5 -14t-95.5 -42v-440q70 -17 157 -17
q143 0 213 66.5z" />
    <glyph glyph-name="c" unicode="c" horiz-adv-x="1159" 
d="M387.5 44.5q-154.5 65.5 -233.5 192.5t-79 308q0 182 81.5 309.5t241.5 194t391 66.5q174 0 305 -31v-308q-78 12 -138 18t-125 6q-177 0 -259 -63t-82 -191q0 -125 80 -188.5t238 -63.5q66 0 130 8.5t156 28.5v-309q-66 -20 -150.5 -31.5t-177.5 -11.5
q-224 0 -378.5 65.5z" />
    <glyph glyph-name="d" unicode="d" horiz-adv-x="1453" 
d="M333 39.5q-119 57.5 -188.5 179.5t-69.5 306q0 186 79.5 319.5t228 203.5t352.5 70q77 0 183 -10v508h408v-1616h-340l-22 110h-18q-64 -60 -151 -94t-193 -34q-150 0 -269 57.5zM825.5 320q53.5 16 92.5 50v431q-72 14 -154 14q-145 0 -215.5 -65.5t-70.5 -197.5
q0 -248 236 -248q58 0 111.5 16z" />
    <glyph glyph-name="e" unicode="e" horiz-adv-x="1297" 
d="M1234 440h-757q7 -65 42.5 -102t114 -54.5t217.5 -17.5q69 0 151 7.5t159 21.5v-283q-174 -33 -374 -33q-246 0 -403 60.5t-233 185.5t-76 320q0 176 69.5 304t204 197t325.5 69q182 0 307.5 -69.5t189 -200.5t63.5 -314v-91zM526 819.5q-47 -52.5 -51 -164.5h383
q-4 111 -50.5 164t-140.5 53t-141 -52.5z" />
    <glyph glyph-name="f" unicode="f" horiz-adv-x="951" 
d="M700 1276q-57 -47 -57 -144v-35h299v-318h-299v-779h-408v779h-189v318h189v22q0 158 68.5 274.5t198.5 179.5t309 63q90 0 185 -12v-309q-67 8 -117 8q-122 0 -179 -47z" />
    <glyph glyph-name="g" unicode="g" horiz-adv-x="1453" 
d="M155 -409v309q114 -29 225.5 -44t200.5 -15q123 0 197 24.5t107 73.5t33 126v54h-18q-127 -116 -332 -116q-136 0 -248.5 61t-178.5 179t-66 282q0 185 81.5 317t243.5 202.5t398 70.5q134 0 277 -18.5t251 -50.5v-901q0 -210 -76 -343.5t-233.5 -197.5t-404.5 -64
q-248 0 -457 51zM822 338.5q53 14.5 96 42.5v416q-70 17 -155 17q-140 0 -212.5 -65t-72.5 -192q0 -121 62 -177t174 -56q55 0 108 14.5z" />
    <glyph glyph-name="h" unicode="h" horiz-adv-x="1431" 
d="M127 1616h408v-618h18q65 57 150.5 87t179.5 30q126 0 223 -52t152 -162t55 -279v-622h-408v600q0 96 -39.5 136t-120.5 40q-60 0 -116 -21.5t-94 -58.5v-696h-408v1616z" />
    <glyph glyph-name="i" unicode="i" horiz-adv-x="663" 
d="M127 0v1097h408v-1097h-408zM87 1419q0 191 244 191t244 -191t-244 -191t-244 191z" />
    <glyph glyph-name="j" unicode="j" horiz-adv-x="663" 
d="M-28 -304q85 102 120 212.5t35 269.5v919h408v-905q0 -193 -71 -351t-238 -315zM79 1421q0 191 244 191t244 -191t-244 -191t-244 191z" />
    <glyph glyph-name="k" unicode="k" horiz-adv-x="1403" 
d="M992 0l-298 400h-159v-400h-408v1616h408v-888h157l271 369h436l-372 -523l410 -574h-445z" />
    <glyph glyph-name="l" unicode="l" horiz-adv-x="663" 
d="M127 0v1616h408v-1616h-408z" />
    <glyph glyph-name="m" unicode="m" horiz-adv-x="2082" 
d="M1848 994q116 -121 116 -372v-622h-406v600q0 95 -37 135.5t-107 40.5q-103 0 -165 -60q4 -37 4 -89v-627h-400v600q0 96 -33.5 136t-102.5 40q-56 0 -103 -21t-79 -60v-695h-408v1097h333l25 -101h19q62 57 148.5 88t189.5 31q101 0 181.5 -34.5t134.5 -105.5
q82 73 177 106.5t196 33.5q201 0 317 -121z" />
    <glyph glyph-name="n" unicode="n" horiz-adv-x="1431" 
d="M127 1097h333l25 -101h19q67 57 160.5 88t198.5 31q209 0 329.5 -121t120.5 -373v-621h-408v599q0 97 -39.5 137t-120.5 40q-60 0 -116 -21t-94 -59v-696h-408v1097z" />
    <glyph glyph-name="o" unicode="o" horiz-adv-x="1427" 
d="M377 46.5q-144 67.5 -223 196t-79 306.5q0 179 75.5 306t219 193.5t344.5 66.5t344.5 -66.5t218.5 -193.5t75 -306q0 -178 -79 -306.5t-223 -196t-336 -67.5q-193 0 -337 67.5zM889.5 350.5q59.5 63.5 59.5 197.5t-59.5 196.5t-175.5 62.5q-117 0 -176.5 -62t-59.5 -196
q0 -135 60 -198.5t176 -63.5t175.5 63.5z" />
    <glyph glyph-name="p" unicode="p" horiz-adv-x="1453" 
d="M127 1097h340l22 -110h18q64 60 151 94t193 34q150 0 268.5 -57.5t188.5 -179t70 -306.5q0 -186 -79.5 -319.5t-228 -203.5t-352.5 -70q-77 0 -183 10v-429h-408v1537zM904.5 347.5q70.5 65.5 70.5 197.5q0 248 -236 248q-58 0 -111.5 -16t-92.5 -50v-431q72 -14 154 -14
q145 0 215.5 65.5z" />
    <glyph glyph-name="q" unicode="q" horiz-adv-x="1453" 
d="M918 95h-18q-127 -116 -332 -116q-138 0 -249.5 60t-177.5 181t-66 296q0 292 183.5 445.5t539.5 153.5q134 0 277 -18.5t251 -50.5v-1486h-408v535zM822 314.5q53 14.5 96 42.5v440q-70 17 -157 17q-139 0 -211 -67t-72 -202q0 -245 236 -245q55 0 108 14.5z" />
    <glyph glyph-name="r" unicode="r" horiz-adv-x="933" 
d="M127 1097h332l31 -127h19q49 71 129 107.5t180 36.5q52 0 102 -9v-358q-49 10 -126 10q-74 0 -146 -22.5t-113 -63.5v-671h-408v1097z" />
    <glyph glyph-name="s" unicode="s" horiz-adv-x="1177" 
d="M304.5 -7.5q-113.5 13.5 -204.5 38.5v272q94 -26 207.5 -40t224.5 -14q110 0 155 19.5t45 58.5q0 28 -17.5 42t-66.5 21l-226 30q-187 25 -268.5 105t-81.5 220q0 175 154.5 272.5t468.5 97.5q95 0 193 -11.5t167 -31.5v-273q-72 21 -169 33.5t-188 12.5
q-140 0 -191 -22.5t-51 -59.5q0 -24 18.5 -38.5t66.5 -21.5l226 -30q117 -15 193.5 -51t116.5 -103t40 -173q0 -115 -67 -197t-196.5 -126t-315.5 -44q-120 0 -233.5 13.5z" />
    <glyph glyph-name="t" unicode="t" horiz-adv-x="992" 
d="M937 314v-309q-53 -11 -118 -18.5t-122 -7.5q-232 0 -351 108t-119 325v367h-189v318h189l74 383h334v-383h299v-318h-299v-289q0 -72 18.5 -113.5t57.5 -59t105 -17.5q45 0 121 14z" />
    <glyph glyph-name="u" unicode="u" horiz-adv-x="1421" 
d="M242 103q-124 121 -124 372v622h408v-600q0 -96 38.5 -136t115.5 -40q58 0 113 21.5t93 58.5v696h408v-1097h-333l-25 101h-15q-70 -57 -157.5 -88t-181.5 -31q-216 0 -340 121z" />
    <glyph glyph-name="v" unicode="v" horiz-adv-x="1383" 
d="M991 1097h398l-452 -1097h-493l-451 1097h430l284 -744z" />
    <glyph glyph-name="w" unicode="w" horiz-adv-x="2101" 
d="M1663 1097h374l-317 -1097h-454l-211 744l-218 -744h-454l-319 1097h392l179 -691l197 691h455l189 -679z" />
    <glyph glyph-name="x" unicode="x" horiz-adv-x="1319" 
d="M893 558l429 -558h-450l-216 291l-221 -291h-439l427 553l-419 544h451l210 -278l205 278h439z" />
    <glyph glyph-name="y" unicode="y" horiz-adv-x="1383" 
d="M991 1097h398l-635 -1537h-398l184 440h-96l-451 1097h430l283 -749z" />
    <glyph glyph-name="z" unicode="z" horiz-adv-x="1234" 
d="M635 318h531v-318h-1077v263l520 516h-510v318h1057v-263z" />
    <glyph glyph-name="braceleft" unicode="{" horiz-adv-x="856" 
d="M560.5 728.5q-49.5 -68.5 -154.5 -97.5q105 -29 154.5 -98t49.5 -178v-360q0 -71 35.5 -101t109.5 -30h125v-311q-106 -13 -200 -13q-236 0 -357 109t-121 316v377q0 61 -34.5 95.5t-94.5 34.5h-67v318h67q59 0 94 34.5t35 94.5v292q0 207 121 316t357 109q94 0 200 -13
v-311h-125q-74 0 -109.5 -30t-35.5 -101v-275q0 -109 -49.5 -177.5z" />
    <glyph glyph-name="bar" unicode="|" horiz-adv-x="655" 
d="M142 -440v2056h370v-2056h-370z" />
    <glyph glyph-name="braceright" unicode="}" horiz-adv-x="856" 
d="M850 790v-318h-68q-59 0 -93.5 -35t-34.5 -95v-377q0 -207 -121 -316t-357 -109q-93 0 -201 13v311h126q74 0 109.5 30t35.5 101v360q0 109 49 178t154 98q-105 29 -154 97.5t-49 177.5v275q0 71 -35.5 101t-109.5 30h-126v311q108 13 201 13q236 0 357 -109t121 -316
v-292q0 -60 34.5 -94.5t93.5 -34.5h68z" />
    <glyph glyph-name="asciitilde" unicode="~" horiz-adv-x="1184" 
d="M692 568q-52 16 -126 48q-62 27 -103.5 40.5t-83.5 13.5q-74 0 -133.5 -26t-120.5 -84v306q51 52 112.5 76t144.5 24q58 0 109.5 -16t125.5 -48q62 -27 104 -40.5t84 -13.5q73 0 132.5 26t121.5 84v-305q-51 -52 -112.5 -76.5t-144.5 -24.5q-58 0 -110 16z" />
    <glyph glyph-name="uni00A0" unicode="&#xa0;" horiz-adv-x="579" 
 />
    <glyph glyph-name="exclamdown" unicode="&#xa1;" horiz-adv-x="701" 
d="M488.5 1087.5q58.5 -28.5 89.5 -80t31 -120.5q0 -104 -68 -166.5t-190 -62.5q-123 0 -190.5 61t-67.5 168q0 106 68.5 167.5t189.5 61.5q79 0 137.5 -28.5zM231 561h245l89 -462v-479h-429v479z" />
    <glyph glyph-name="cent" unicode="&#xa2;" horiz-adv-x="1169" 
d="M571.5 737q-81.5 -63 -81.5 -191q0 -125 80 -188.5t238 -63.5q66 0 130 8.5t156 28.5v-309q-94 -27 -200 -37v-225h-352v239q-229 44 -348 183.5t-119 362.5q0 220 118.5 360t348.5 187v245h352v-225q101 -6 200 -28v-308q-79 12 -139 18t-125 6q-177 0 -258.5 -63z" />
    <glyph glyph-name="sterling" unicode="&#xa3;" horiz-adv-x="1557" 
d="M1482 310v-310h-1393v310h208v298h-208v284h208v67q0 268 181 404.5t544 136.5q111 0 214.5 -12t187.5 -32v-326q-78 22 -183 36t-199 14q-133 0 -208 -19.5t-106.5 -62t-31.5 -117.5v-89h493v-284h-493v-298h786z" />
    <glyph glyph-name="currency" unicode="&#xa4;" 
d="M1147 471l137 -134l-178 -178l-134 137l-91 106q-83 -39 -178 -39t-178 39l-91 -106l-134 -137l-177 178l136 134l105 90q-40 80 -40 179q0 100 40 178l-105 91l-137 134l178 178l134 -137l92 -107q84 38 177 38t177 -38l92 107l134 137l178 -178l-137 -134l-105 -91
q40 -78 40 -178q0 -99 -40 -179zM586 611.5q46 -47.5 117 -47.5t117 47.5t46 128.5q0 77 -44.5 126.5t-116.5 49.5q-73 0 -119 -47.5t-46 -128.5t46 -128.5z" />
    <glyph glyph-name="yen" unicode="&#xa5;" horiz-adv-x="1495" 
d="M1529 1480l-440 -668h202v-224h-331v-128h331v-224h-331v-236h-418v236h-332v224h332v128h-332v224h194l-456 668h444l365 -541l358 541h414z" />
    <glyph glyph-name="brokenbar" unicode="&#xa6;" horiz-adv-x="655" 
d="M142 836v780h370v-780h-370zM142 -440v780h370v-780h-370z" />
    <glyph glyph-name="section" unicode="&#xa7;" horiz-adv-x="1327" 
d="M1100 510q59 -68 59 -170q0 -172 -148.5 -266.5t-447.5 -94.5q-97 0 -206.5 11.5t-197.5 33.5v259q183 -46 398 -46q135 0 185.5 20.5t50.5 57.5q0 30 -19.5 46.5t-66.5 23.5l-286 45q-150 24 -234.5 101t-84.5 211t116 222q-67 69 -67 169q0 365 640 365
q82 0 169.5 -8.5t156.5 -22.5v-259q-143 31 -293 31q-177 0 -242 -23t-65 -59q0 -27 20.5 -43t67.5 -23l303 -44q317 -47 317 -307q0 -140 -125 -230zM840 628l13 -2q19 19 27.5 37t8.5 40q0 39 -25.5 63t-88.5 34l-286 48l-17 3q-34 -43 -34 -82q0 -35 26 -59t88 -35z" />
    <glyph glyph-name="dieresis" unicode="&#xa8;" horiz-adv-x="1200" 
d="M163 1280q-52 49 -52 139t52 138.5t158 48.5t157.5 -48.5t51.5 -138.5t-52 -139t-157 -49q-106 0 -158 49zM722 1280q-52 49 -52 139t51.5 138.5t157.5 48.5t158 -48.5t52 -138.5t-52 -139t-158 -49q-105 0 -157 49z" />
    <glyph glyph-name="copyright" unicode="&#xa9;" horiz-adv-x="1682" 
d="M448 73q-170 95 -263 267.5t-93 399.5t93 399.5t263 267.5t393 95t393 -95t263 -267.5t93 -399.5t-93 -399.5t-263 -267.5t-393 -95t-393 95zM1136.5 239q123.5 69 188.5 197.5t65 303.5t-65 303.5t-188.5 197.5t-295.5 69t-295.5 -69t-188.5 -197.5t-65 -303.5
t65 -303.5t188.5 -197.5t295.5 -69t295.5 69zM674 372q-99 48 -152.5 140t-53.5 220q0 129 55 222t156.5 141.5t240.5 48.5q105 0 192 -23v-224q-51 9 -89 13.5t-79 4.5q-208 0 -208 -182q0 -88 50.5 -134t144.5 -46q42 0 81.5 6t99.5 21v-224q-85 -32 -206 -32
q-133 0 -232 48z" />
    <glyph glyph-name="ordfeminine" unicode="&#xaa;" horiz-adv-x="1100" 
d="M795 1459.5q116 -41.5 170.5 -136t54.5 -256.5v-457h-317l-27 79h-16q-45 -47 -115 -71.5t-152 -24.5q-177 0 -264.5 71.5t-87.5 190.5q0 131 102 198.5t322 77.5l177 9q-2 37 -21.5 59t-67.5 33t-134 11q-67 0 -144 -10t-144 -28v253q83 21 177 32t178 11
q193 0 309 -41.5zM584.5 827.5q30.5 6.5 57.5 18.5v129l-113 -5q-61 -4 -87.5 -22.5t-26.5 -53.5q0 -34 27 -53.5t84 -19.5q28 0 58.5 6.5z" />
    <glyph glyph-name="guillemotleft" unicode="&#xab;" horiz-adv-x="1487" 
d="M384 131l-302 438l302 437h424l-302 -437l302 -438h-424zM1021 131l-302 438l302 437h424l-302 -437l302 -438h-424z" />
    <glyph glyph-name="logicalnot" unicode="&#xac;" horiz-adv-x="1425" 
d="M991 207v403h-866v300h1182v-703h-316z" />
    <glyph glyph-name="uni00AD" unicode="&#xad;" horiz-adv-x="1117" 
d="M125 404v329h868v-329h-868z" />
    <glyph glyph-name="registered" unicode="&#xae;" horiz-adv-x="1455" 
d="M1044.5 1420q138.5 -78 215.5 -218t77 -320t-77 -319.5t-215.5 -217t-317.5 -77.5t-317.5 77.5t-215.5 217t-77 319.5t77 320t215.5 218t317.5 78t317.5 -78zM967.5 469q103.5 58 159.5 164.5t56 248.5t-56 249t-159.5 165.5t-240.5 58.5t-240 -58.5t-159.5 -165.5
t-56.5 -249t56.5 -248.5t159.5 -164.5t240 -58t240.5 58zM864 813l147 -213h-168l-132 192h-47l-5 -192h-152v592h211q132 0 197 -50t65 -151q0 -135 -116 -178zM664 914h78q45 0 67 18.5t22 58.5q0 79 -89 79h-78v-156z" />
    <glyph glyph-name="macron" unicode="&#xaf;" horiz-adv-x="1200" 
d="M198 1308v223h804v-223h-804z" />
    <glyph glyph-name="degree" unicode="&#xb0;" horiz-adv-x="1029" 
d="M310.5 768.5q-90.5 50.5 -142 139.5t-51.5 201t51.5 201t142 139t203.5 50t203.5 -50t142 -139t51.5 -201t-51.5 -201t-142 -139.5t-203.5 -50.5t-203.5 50.5zM629.5 986q45.5 46 45.5 123q0 78 -45.5 123t-115.5 45t-115.5 -45t-45.5 -123q0 -51 21 -89.5t57.5 -59
t82.5 -20.5q70 0 115.5 46z" />
    <glyph glyph-name="plusminus" unicode="&#xb1;" horiz-adv-x="1184" 
d="M434 397v272h-309v301h309v273h315v-273h310v-301h-310v-272h-315zM125 0v301h934v-301h-934z" />
    <glyph glyph-name="uni00B2" unicode="&#xb2;" horiz-adv-x="957" 
d="M887 108v-244h-815v160l331 334q65 65 91.5 105.5t26.5 75.5q0 51 -42.5 75.5t-146.5 24.5q-69 0 -143 -13.5t-129 -32.5v245q62 19 145 29.5t170 10.5q238 0 351 -74.5t113 -227.5q0 -79 -39.5 -152.5t-126.5 -158.5l-162 -157h376z" />
    <glyph glyph-name="uni00B3" unicode="&#xb3;" horiz-adv-x="957" 
d="M816.5 303.5q52.5 -57.5 52.5 -153.5q0 -142 -115.5 -221t-361.5 -79q-173 0 -329 37v220q75 -19 157 -29t153 -10q104 0 150 26t46 75t-39.5 73t-135.5 24h-227v218h198q86 0 122 21.5t36 63.5q0 45 -41 68.5t-132 23.5q-63 0 -138 -11.5t-132 -31.5v220q55 17 140 28.5
t162 11.5q227 0 338 -73.5t111 -212.5q0 -77 -43.5 -133t-117.5 -78q94 -20 146.5 -77.5z" />
    <glyph glyph-name="acute" unicode="&#xb4;" horiz-adv-x="1200" 
d="M406 1226l259 390h448l-319 -390h-388z" />
    <glyph glyph-name="uni00B5" unicode="&#xb5;" horiz-adv-x="1421" 
d="M1294 1097v-1097h-333l-25 101h-15q-54 -57 -122.5 -88t-142.5 -31q-73 0 -130 22v-444h-408v1535h408v-598q0 -96 38.5 -136t115.5 -40q58 0 113 21.5t93 58.5v696h408z" />
    <glyph glyph-name="paragraph" unicode="&#xb6;" horiz-adv-x="1498" 
d="M643 410q-10 0 -32 -2q-36 -2 -57 -2q-235 0 -353.5 137.5t-118.5 409.5q0 283 125.5 414.5t388.5 131.5q175 0 330 -19v-1480h-283v410zM1073 0v1480h283v-1480h-283z" />
    <glyph glyph-name="periodcentered" unicode="&#xb7;" horiz-adv-x="661" 
d="M141.5 392.5q-68.5 61.5 -68.5 167.5q0 107 67.5 168t190.5 61q122 0 190 -62.5t68 -166.5q0 -69 -31 -120.5t-89.5 -80t-137.5 -28.5q-121 0 -189.5 61.5z" />
    <glyph glyph-name="cedilla" unicode="&#xb8;" horiz-adv-x="1200" 
d="M835 -142q44 -48 44 -123q0 -88 -72.5 -137.5t-209.5 -49.5q-113 0 -204 34v140q37 -15 89 -23.5t96 -8.5q51 0 76 15t25 49t-25 49.5t-75 15.5h-58v201h181v-99q89 -15 133 -63z" />
    <glyph glyph-name="uni00B9" unicode="&#xb9;" horiz-adv-x="957" 
d="M692 108h224v-244h-787v244h238v426l-238 -148v268l344 214h219v-760z" />
    <glyph glyph-name="ordmasculine" unicode="&#xba;" horiz-adv-x="1197" 
d="M299 649q-125 56 -190 158.5t-65 241.5t65 240.5t190 156.5t299 55t299 -55t190.5 -156.5t65.5 -240.5t-65.5 -241.5t-190.5 -158.5t-299 -56t-299 56zM731 917q47 46 47 132t-47 129.5t-133 43.5q-85 0 -132 -43.5t-47 -129.5t47.5 -132t131.5 -46q86 0 133 46z" />
    <glyph glyph-name="guillemotright" unicode="&#xbb;" horiz-adv-x="1487" 
d="M42 131l302 438l-302 437h424l302 -437l-302 -438h-424zM679 131l302 438l-302 437h424l302 -437l-302 -438h-424z" />
    <glyph glyph-name="onequarter" unicode="&#xbc;" horiz-adv-x="2394" 
d="M692 860h224v-244h-787v244h238v426l-238 -148v268l344 214h219v-760zM584 -136l889 1752h337l-889 -1752h-337zM2374 277v-238h-130v-175h-283v175h-502v165l308 660h293l-274 -587h175l45 249h238v-249h130z" />
    <glyph glyph-name="onehalf" unicode="&#xbd;" horiz-adv-x="2394" 
d="M692 860h224v-244h-787v244h238v426l-238 -148v268l344 214h219v-760zM584 -136l889 1752h337l-889 -1752h-337zM2324 108v-244h-815v160l331 334q65 65 91.5 105.5t26.5 75.5q0 51 -42.5 75.5t-146.5 24.5q-69 0 -143 -13.5t-129 -32.5v245q62 19 145 29.5t170 10.5
q238 0 351 -74.5t113 -227.5q0 -79 -39.5 -152.5t-126.5 -158.5l-162 -157h376z" />
    <glyph glyph-name="threequarters" unicode="&#xbe;" horiz-adv-x="2394" 
d="M816.5 1055.5q52.5 -57.5 52.5 -153.5q0 -142 -115.5 -221t-361.5 -79q-173 0 -329 37v220q75 -19 157 -29t153 -10q104 0 150 26t46 75t-39.5 73t-135.5 24h-227v218h198q86 0 122 21.5t36 63.5q0 45 -41 68.5t-132 23.5q-63 0 -138 -11.5t-132 -31.5v220
q55 17 140 28.5t162 11.5q227 0 338 -73.5t111 -212.5q0 -77 -43.5 -133t-117.5 -78q94 -20 146.5 -77.5zM584 -136l889 1752h337l-889 -1752h-337zM2374 277v-238h-130v-175h-283v175h-502v165l308 660h293l-274 -587h175l45 249h238v-249h130z" />
    <glyph glyph-name="questiondown" unicode="&#xbf;" horiz-adv-x="1154" 
d="M812 1059q69 -57 69 -155t-67.5 -154.5t-190.5 -56.5q-122 0 -190 57t-68 154q0 63 31 111t89 74.5t138 26.5q120 0 189 -57zM817 241q-198 -26 -278 -74.5t-80 -117.5q0 -141 267 -141q94 0 196 16t189 45v-310q-83 -26 -201.5 -42.5t-224.5 -16.5q-313 0 -468.5 108.5
t-155.5 314.5q0 160 107 261.5t308 152.5l25 161h246z" />
    <glyph glyph-name="Agrave" unicode="&#xc0;" horiz-adv-x="1715" 
d="M1285 0l-124 361h-611l-124 -361h-405l535 1480h603l536 -1480h-410zM657 671h398l-199 580zM671 1590l-267 310h431l206 -310h-370z" />
    <glyph glyph-name="Aacute" unicode="&#xc1;" horiz-adv-x="1715" 
d="M1285 0l-124 361h-611l-124 -361h-405l535 1480h603l536 -1480h-410zM657 671h398l-199 580zM667 1590l207 310h431l-267 -310h-371z" />
    <glyph glyph-name="Acircumflex" unicode="&#xc2;" horiz-adv-x="1715" 
d="M1285 0l-124 361h-611l-124 -361h-405l535 1480h603l536 -1480h-410zM657 671h398l-199 580zM1351 1590h-325l-170 166l-170 -166h-325l325 310h340z" />
    <glyph glyph-name="Atilde" unicode="&#xc3;" horiz-adv-x="1715" 
d="M1285 0l-124 361h-611l-124 -361h-405l535 1480h603l536 -1480h-410zM657 671h398l-199 580zM948.5 1611.5q-46.5 9.5 -109.5 28.5q-61 17 -101 25.5t-85 8.5q-67 0 -119 -15.5t-107 -49.5v209q48 38 103.5 56t132.5 18q53 0 98.5 -9.5t111.5 -29.5q58 -17 99.5 -26
t86.5 -9q67 0 119 15.5t107 49.5v-209q-48 -38 -103.5 -55t-132.5 -17q-54 0 -100.5 9.5z" />
    <glyph glyph-name="Adieresis" unicode="&#xc4;" horiz-adv-x="1715" 
d="M1285 0l-124 361h-611l-124 -361h-405l535 1480h603l536 -1480h-410zM657 671h398l-199 580zM411 1629.5q-50 42.5 -50 120.5q0 79 50 121.5t154 42.5t154.5 -42.5t50.5 -121.5q0 -78 -50.5 -120.5t-154.5 -42.5t-154 42.5zM992.5 1629.5q-50.5 42.5 -50.5 120.5
q0 79 50.5 121.5t154.5 42.5t154 -42.5t50 -121.5q0 -78 -50 -120.5t-154 -42.5t-154.5 42.5z" />
    <glyph glyph-name="Aring" unicode="&#xc5;" horiz-adv-x="1715" 
d="M1285 0l-124 361h-611l-124 -361h-405l535 1480h603l536 -1480h-410zM657 671h398l-199 580zM742 1603.5q-51 27.5 -79.5 76.5t-28.5 111t28.5 111t79.5 76.5t114 27.5t114 -27.5t79.5 -76.5t28.5 -111t-28.5 -111t-79.5 -76.5t-114 -27.5t-114 27.5zM917.5 1726
q23.5 24 23.5 65q0 40 -23.5 64.5t-61.5 24.5t-61.5 -24.5t-23.5 -64.5q0 -41 23.5 -65t61.5 -24t61.5 24z" />
    <glyph glyph-name="AE" unicode="&#xc6;" horiz-adv-x="2323" 
d="M1494 310h740v-310h-1132l-31 361h-520l-125 -361h-405l536 1480h1667v-310h-813l25 -259h683v-310h-653zM658 671h386l-42 499h-172z" />
    <glyph glyph-name="Ccedilla" unicode="&#xc7;" horiz-adv-x="1457" 
d="M657.5 1058.5q-128.5 -105.5 -128.5 -318.5q0 -214 125.5 -319t387.5 -105q171 0 346 40v-332q-179 -44 -372 -44q-29 0 -83 2v-60q100 -13 148.5 -59.5t48.5 -121.5q0 -91 -77 -142t-225 -51q-117 0 -224 34v140q96 -32 205 -32q61 0 91 14.5t30 48.5q0 35 -29.5 50.5
t-89.5 15.5h-59v180q-326 50 -493 235t-167 502q0 239 106.5 410.5t316 262.5t512.5 91q193 0 361 -35v-333q-154 32 -326 32q-276 0 -404.5 -105.5z" />
    <glyph glyph-name="Egrave" unicode="&#xc8;" horiz-adv-x="1468" 
d="M555 310h824v-310h-1237v1480h1227v-310h-814v-259h708v-310h-708v-291zM592 1590l-267 310h431l206 -310h-370z" />
    <glyph glyph-name="Eacute" unicode="&#xc9;" horiz-adv-x="1468" 
d="M555 310h824v-310h-1237v1480h1227v-310h-814v-259h708v-310h-708v-291zM588 1590l207 310h431l-267 -310h-371z" />
    <glyph glyph-name="Ecircumflex" unicode="&#xca;" horiz-adv-x="1468" 
d="M555 310h824v-310h-1237v1480h1227v-310h-814v-259h708v-310h-708v-291zM1272 1590h-325l-170 166l-170 -166h-325l325 310h340z" />
    <glyph glyph-name="Edieresis" unicode="&#xcb;" horiz-adv-x="1468" 
d="M555 310h824v-310h-1237v1480h1227v-310h-814v-259h708v-310h-708v-291zM332 1629.5q-50 42.5 -50 120.5q0 79 50 121.5t154 42.5t154.5 -42.5t50.5 -121.5q0 -78 -50.5 -120.5t-154.5 -42.5t-154 42.5zM913.5 1629.5q-50.5 42.5 -50.5 120.5q0 79 50.5 121.5t154.5 42.5
t154 -42.5t50 -121.5q0 -78 -50 -120.5t-154 -42.5t-154.5 42.5z" />
    <glyph glyph-name="Igrave" unicode="&#xcc;" horiz-adv-x="703" 
d="M142 0v1480h418v-1480h-418zM166 1590l-267 310h431l206 -310h-370z" />
    <glyph glyph-name="Iacute" unicode="&#xcd;" horiz-adv-x="703" 
d="M142 0v1480h418v-1480h-418zM162 1590l207 310h431l-267 -310h-371z" />
    <glyph glyph-name="Icircumflex" unicode="&#xce;" horiz-adv-x="703" 
d="M142 0v1480h418v-1480h-418zM846 1590h-325l-170 166l-170 -166h-325l325 310h340z" />
    <glyph glyph-name="Idieresis" unicode="&#xcf;" horiz-adv-x="703" 
d="M142 0v1480h418v-1480h-418zM-94 1629.5q-50 42.5 -50 120.5q0 79 50 121.5t154 42.5t154.5 -42.5t50.5 -121.5q0 -78 -50.5 -120.5t-154.5 -42.5t-154 42.5zM487.5 1629.5q-50.5 42.5 -50.5 120.5q0 79 50.5 121.5t154.5 42.5t154 -42.5t50 -121.5q0 -78 -50 -120.5
t-154 -42.5t-154.5 42.5z" />
    <glyph glyph-name="Eth" unicode="&#xd0;" horiz-adv-x="1762" 
d="M1432 1308.5q238 -185.5 238 -568.5q0 -267 -114 -432.5t-343.5 -243t-584.5 -77.5q-116 0 -245.5 6.5t-240.5 20.5v624h-134v249h134v548q116 27 275.5 43t304.5 16q472 0 710 -185.5zM1027 358.5q111 44.5 164 139t53 245.5q0 220 -123 323t-380 103q-83 0 -181 -16
v-266h296v-249h-296v-318q65 -6 180 -6q176 0 287 44.5z" />
    <glyph glyph-name="Ntilde" unicode="&#xd1;" horiz-adv-x="1776" 
d="M1240 1480h394v-1480h-419l-679 912v-912h-394v1480h419l679 -912v912zM980.5 1611.5q-46.5 9.5 -109.5 28.5q-61 17 -101 25.5t-85 8.5q-67 0 -119 -15.5t-107 -49.5v209q48 38 103.5 56t132.5 18q53 0 98.5 -9.5t111.5 -29.5q58 -17 99.5 -26t86.5 -9q67 0 119 15.5
t107 49.5v-209q-48 -38 -103.5 -55t-132.5 -17q-54 0 -100.5 9.5z" />
    <glyph glyph-name="Ograve" unicode="&#xd2;" horiz-adv-x="1847" 
d="M480.5 70.5q-187.5 90.5 -288 261.5t-100.5 408t100.5 408t287.5 261.5t443 90.5t443.5 -91t288 -262t100.5 -407q0 -235 -101 -406.5t-288.5 -262.5t-442.5 -91t-442.5 90.5zM1224.5 414.5q104.5 108.5 104.5 318.5q0 219 -105.5 330t-300.5 111q-194 0 -300 -107.5
t-106 -319.5q0 -222 104 -331.5t302 -109.5q197 0 301.5 108.5zM738 1590l-267 310h431l206 -310h-370z" />
    <glyph glyph-name="Oacute" unicode="&#xd3;" horiz-adv-x="1847" 
d="M480.5 70.5q-187.5 90.5 -288 261.5t-100.5 408t100.5 408t287.5 261.5t443 90.5t443.5 -91t288 -262t100.5 -407q0 -235 -101 -406.5t-288.5 -262.5t-442.5 -91t-442.5 90.5zM1224.5 414.5q104.5 108.5 104.5 318.5q0 219 -105.5 330t-300.5 111q-194 0 -300 -107.5
t-106 -319.5q0 -222 104 -331.5t302 -109.5q197 0 301.5 108.5zM734 1590l207 310h431l-267 -310h-371z" />
    <glyph glyph-name="Ocircumflex" unicode="&#xd4;" horiz-adv-x="1847" 
d="M480.5 70.5q-187.5 90.5 -288 261.5t-100.5 408t100.5 408t287.5 261.5t443 90.5t443.5 -91t288 -262t100.5 -407q0 -235 -101 -406.5t-288.5 -262.5t-442.5 -91t-442.5 90.5zM1224.5 414.5q104.5 108.5 104.5 318.5q0 219 -105.5 330t-300.5 111q-194 0 -300 -107.5
t-106 -319.5q0 -222 104 -331.5t302 -109.5q197 0 301.5 108.5zM1418 1590h-325l-170 166l-170 -166h-325l325 310h340z" />
    <glyph glyph-name="Otilde" unicode="&#xd5;" horiz-adv-x="1847" 
d="M480.5 70.5q-187.5 90.5 -288 261.5t-100.5 408t100.5 408t287.5 261.5t443 90.5t443.5 -91t288 -262t100.5 -407q0 -235 -101 -406.5t-288.5 -262.5t-442.5 -91t-442.5 90.5zM1224.5 414.5q104.5 108.5 104.5 318.5q0 219 -105.5 330t-300.5 111q-194 0 -300 -107.5
t-106 -319.5q0 -222 104 -331.5t302 -109.5q197 0 301.5 108.5zM1015.5 1611.5q-46.5 9.5 -109.5 28.5q-61 17 -101 25.5t-85 8.5q-67 0 -119 -15.5t-107 -49.5v209q48 38 103.5 56t132.5 18q53 0 98.5 -9.5t111.5 -29.5q58 -17 99.5 -26t86.5 -9q67 0 119 15.5t107 49.5
v-209q-48 -38 -103.5 -55t-132.5 -17q-54 0 -100.5 9.5z" />
    <glyph glyph-name="Odieresis" unicode="&#xd6;" horiz-adv-x="1847" 
d="M480.5 70.5q-187.5 90.5 -288 261.5t-100.5 408t100.5 408t287.5 261.5t443 90.5t443.5 -91t288 -262t100.5 -407q0 -235 -101 -406.5t-288.5 -262.5t-442.5 -91t-442.5 90.5zM1224.5 414.5q104.5 108.5 104.5 318.5q0 219 -105.5 330t-300.5 111q-194 0 -300 -107.5
t-106 -319.5q0 -222 104 -331.5t302 -109.5q197 0 301.5 108.5zM478 1629.5q-50 42.5 -50 120.5q0 79 50 121.5t154 42.5t154.5 -42.5t50.5 -121.5q0 -78 -50.5 -120.5t-154.5 -42.5t-154 42.5zM1059.5 1629.5q-50.5 42.5 -50.5 120.5q0 79 50.5 121.5t154.5 42.5t154 -42.5
t50 -121.5q0 -78 -50 -120.5t-154 -42.5t-154.5 42.5z" />
    <glyph glyph-name="multiply" unicode="&#xd7;" horiz-adv-x="1110" 
d="M297 290l-212 212l258 258l-258 258l212 212l258 -258l258 258l213 -212l-258 -258l258 -258l-213 -212l-258 258z" />
    <glyph glyph-name="Oslash" unicode="&#xd8;" horiz-adv-x="1847" 
d="M1704.5 1042q50.5 -135 50.5 -302q0 -235 -101 -406.5t-288.5 -262.5t-442.5 -91q-271 0 -468 103l-128 -138l-151 137l114 123q-97 98 -147.5 233t-50.5 302q0 237 100.5 408t287.5 261.5t443 90.5q273 0 468 -103l128 138l151 -137l-114 -123q98 -98 148.5 -233z
M564 501l577 625q-90 48 -218 48q-194 0 -300 -107.5t-106 -319.5q0 -147 47 -246zM1224.5 414.5q104.5 108.5 104.5 318.5q0 143 -48 244l-577 -624q88 -47 219 -47q197 0 301.5 108.5z" />
    <glyph glyph-name="Ugrave" unicode="&#xd9;" horiz-adv-x="1726" 
d="M311.5 157q-175.5 177 -175.5 519v804h418v-838q0 -170 77 -250t236 -80q158 0 235 80t77 250v838h411v-804q0 -342 -174.5 -519t-548.5 -177q-380 0 -555.5 177zM682 1590l-267 310h431l206 -310h-370z" />
    <glyph glyph-name="Uacute" unicode="&#xda;" horiz-adv-x="1726" 
d="M311.5 157q-175.5 177 -175.5 519v804h418v-838q0 -170 77 -250t236 -80q158 0 235 80t77 250v838h411v-804q0 -342 -174.5 -519t-548.5 -177q-380 0 -555.5 177zM678 1590l207 310h431l-267 -310h-371z" />
    <glyph glyph-name="Ucircumflex" unicode="&#xdb;" horiz-adv-x="1726" 
d="M311.5 157q-175.5 177 -175.5 519v804h418v-838q0 -170 77 -250t236 -80q158 0 235 80t77 250v838h411v-804q0 -342 -174.5 -519t-548.5 -177q-380 0 -555.5 177zM1362 1590h-325l-170 166l-170 -166h-325l325 310h340z" />
    <glyph glyph-name="Udieresis" unicode="&#xdc;" horiz-adv-x="1726" 
d="M311.5 157q-175.5 177 -175.5 519v804h418v-838q0 -170 77 -250t236 -80q158 0 235 80t77 250v838h411v-804q0 -342 -174.5 -519t-548.5 -177q-380 0 -555.5 177zM422 1629.5q-50 42.5 -50 120.5q0 79 50 121.5t154 42.5t154.5 -42.5t50.5 -121.5q0 -78 -50.5 -120.5
t-154.5 -42.5t-154 42.5zM1003.5 1629.5q-50.5 42.5 -50.5 120.5q0 79 50.5 121.5t154.5 42.5t154 -42.5t50 -121.5q0 -78 -50 -120.5t-154 -42.5t-154.5 42.5z" />
    <glyph glyph-name="Yacute" unicode="&#xdd;" horiz-adv-x="1491" 
d="M1527 1480l-569 -864v-616h-418v612l-594 868h444l366 -541l357 541h414zM555 1590l207 310h431l-267 -310h-371z" />
    <glyph glyph-name="Thorn" unicode="&#xde;" horiz-adv-x="1508" 
d="M142 1480h418v-179q85 5 115 5q375 0 558 -132t183 -413q0 -272 -178 -409.5t-529 -137.5q-36 0 -104 2l-45 1v-217h-418v1480zM882 528.5q66 25.5 98 82t32 149.5q0 135 -73.5 196t-232.5 61q-81 0 -146 -11v-495q69 -8 149 -8q107 0 173 25.5z" />
    <glyph glyph-name="germandbls" unicode="&#xdf;" horiz-adv-x="1870" 
d="M1654 621.5q76 -35.5 116 -102.5t40 -173q0 -175 -155.5 -271t-457.5 -96q-94 0 -205 11.5t-199 33.5v273q85 -20 197 -34t201 -14q133 0 184 19.5t51 58.5q0 28 -17.5 42t-66.5 21l-226 30q-187 25 -269 105t-82 219q0 113 65.5 194t195.5 123.5t319 42.5h11v6
q0 131 -89.5 197t-247.5 66q-190 0 -283 -95.5t-93 -287.5v-990h-408v768h-189v329h197q24 171 118.5 291.5t252 184t370.5 63.5q199 0 346 -65.5t227.5 -196.5t80.5 -322q0 -54 -7 -98t-24 -117q-88 8 -188 8q-158 0 -213.5 -22t-55.5 -60q0 -24 18.5 -38.5t66.5 -21.5
l226 -30q117 -16 193 -51.5z" />
    <glyph glyph-name="agrave" unicode="&#xe0;" horiz-adv-x="1310" 
d="M936.5 1066.5q131.5 -48.5 193.5 -161.5t62 -308v-597h-338l-26 96h-19q-57 -59 -140 -88t-182 -29q-136 0 -230 42t-141 116t-47 169q0 159 129 247t402 103l191 12q-6 59 -35 92.5t-87 48.5t-155 15q-74 0 -167 -12.5t-172 -34.5v286q93 26 203 39t208 13
q219 0 350.5 -48.5zM710 252.5q46 11.5 83 35.5v169l-154 -9q-89 -7 -128 -34t-39 -75q0 -46 36.5 -72t108.5 -26q47 0 93 11.5zM457 1226l-319 390h448l259 -390h-388z" />
    <glyph glyph-name="aacute" unicode="&#xe1;" horiz-adv-x="1310" 
d="M936.5 1066.5q131.5 -48.5 193.5 -161.5t62 -308v-597h-338l-26 96h-19q-57 -59 -140 -88t-182 -29q-136 0 -230 42t-141 116t-47 169q0 159 129 247t402 103l191 12q-6 59 -35 92.5t-87 48.5t-155 15q-74 0 -167 -12.5t-172 -34.5v286q93 26 203 39t208 13
q219 0 350.5 -48.5zM710 252.5q46 11.5 83 35.5v169l-154 -9q-89 -7 -128 -34t-39 -75q0 -46 36.5 -72t108.5 -26q47 0 93 11.5zM457 1226l259 390h448l-319 -390h-388z" />
    <glyph glyph-name="acircumflex" unicode="&#xe2;" horiz-adv-x="1310" 
d="M936.5 1066.5q131.5 -48.5 193.5 -161.5t62 -308v-597h-338l-26 96h-19q-57 -59 -140 -88t-182 -29q-136 0 -230 42t-141 116t-47 169q0 159 129 247t402 103l191 12q-6 59 -35 92.5t-87 48.5t-155 15q-74 0 -167 -12.5t-172 -34.5v286q93 26 203 39t208 13
q219 0 350.5 -48.5zM710 252.5q46 11.5 83 35.5v169l-154 -9q-89 -7 -128 -34t-39 -75q0 -46 36.5 -72t108.5 -26q47 0 93 11.5zM1092 1226h-298l-143 203l-143 -203h-298l283 390h316z" />
    <glyph glyph-name="atilde" unicode="&#xe3;" horiz-adv-x="1310" 
d="M936.5 1066.5q131.5 -48.5 193.5 -161.5t62 -308v-597h-338l-26 96h-19q-57 -59 -140 -88t-182 -29q-136 0 -230 42t-141 116t-47 169q0 159 129 247t402 103l191 12q-6 59 -35 92.5t-87 48.5t-155 15q-74 0 -167 -12.5t-172 -34.5v286q93 26 203 39t208 13
q219 0 350.5 -48.5zM710 252.5q46 11.5 83 35.5v169l-154 -9q-89 -7 -128 -34t-39 -75q0 -46 36.5 -72t108.5 -26q47 0 93 11.5zM735.5 1273q-42.5 13 -101.5 38q-56 24 -92 35.5t-75 11.5q-63 0 -113.5 -20.5t-104.5 -68.5v235q46 43 101 62.5t127 19.5q47 0 89.5 -13
t101.5 -38q56 -24 92 -35.5t75 -11.5q63 0 113.5 20.5t104.5 68.5v-235q-46 -43 -101 -62.5t-127 -19.5q-47 0 -89.5 13z" />
    <glyph glyph-name="adieresis" unicode="&#xe4;" horiz-adv-x="1310" 
d="M936.5 1066.5q131.5 -48.5 193.5 -161.5t62 -308v-597h-338l-26 96h-19q-57 -59 -140 -88t-182 -29q-136 0 -230 42t-141 116t-47 169q0 159 129 247t402 103l191 12q-6 59 -35 92.5t-87 48.5t-155 15q-74 0 -167 -12.5t-172 -34.5v286q93 26 203 39t208 13
q219 0 350.5 -48.5zM710 252.5q46 11.5 83 35.5v169l-154 -9q-89 -7 -128 -34t-39 -75q0 -46 36.5 -72t108.5 -26q47 0 93 11.5zM214 1280q-52 49 -52 139t52 138.5t158 48.5t157.5 -48.5t51.5 -138.5t-52 -139t-157 -49q-106 0 -158 49zM773 1280q-52 49 -52 139
t51.5 138.5t157.5 48.5t158 -48.5t52 -138.5t-52 -139t-158 -49q-105 0 -157 49z" />
    <glyph glyph-name="aring" unicode="&#xe5;" horiz-adv-x="1310" 
d="M936.5 1066.5q131.5 -48.5 193.5 -161.5t62 -308v-597h-338l-26 96h-19q-57 -59 -140 -88t-182 -29q-136 0 -230 42t-141 116t-47 169q0 159 129 247t402 103l191 12q-6 59 -35 92.5t-87 48.5t-155 15q-74 0 -167 -12.5t-172 -34.5v286q93 26 203 39t208 13
q219 0 350.5 -48.5zM710 252.5q46 11.5 83 35.5v169l-154 -9q-89 -7 -128 -34t-39 -75q0 -46 36.5 -72t108.5 -26q47 0 93 11.5zM537 1248.5q-51 27.5 -79.5 76.5t-28.5 110q0 62 28.5 111t79.5 76.5t114 27.5t114 -27.5t79.5 -76.5t28.5 -111q0 -61 -28.5 -110t-79.5 -76.5
t-114 -27.5t-114 27.5zM712.5 1370.5q23.5 24.5 23.5 64.5q0 41 -23.5 65t-61.5 24t-61.5 -24t-23.5 -65q0 -40 23.5 -64.5t61.5 -24.5t61.5 24.5z" />
    <glyph glyph-name="ae" unicode="&#xe6;" horiz-adv-x="2007" 
d="M1943 440h-749q7 -65 42 -102t112 -54.5t213 -17.5q69 0 151.5 7.5t158.5 21.5v-283q-174 -33 -374 -33q-191 0 -328 37.5t-223 114.5q-91 -77 -200 -114.5t-225 -37.5q-151 0 -252.5 42t-150.5 116t-49 171q0 165 131 256t404 91h188q-4 63 -32 99.5t-87 53t-159 16.5
q-74 0 -167 -12.5t-172 -34.5v286q94 26 196.5 39t197.5 13q162 0 272.5 -30.5t178.5 -99.5q73 63 171 96.5t214 33.5q172 0 293 -69.5t183 -200.5t62 -313v-92zM1242.5 819q-46.5 -53 -50.5 -164h376q-4 111 -50 164t-137 53q-92 0 -138.5 -53zM508.5 266
q36.5 -25 110.5 -25q59 0 108.5 16t100.5 54q-22 62 -29 132h-158q-169 0 -169 -105q0 -47 36.5 -72z" />
    <glyph glyph-name="ccedilla" unicode="&#xe7;" horiz-adv-x="1159" 
d="M572 737q-82 -63 -82 -191q0 -125 80 -188.5t238 -63.5q66 0 130 8.5t156 28.5v-309q-66 -20 -150.5 -31.5t-177.5 -11.5h-3v-58q89 -15 133 -63t44 -123q0 -88 -72.5 -137.5t-209.5 -49.5q-113 0 -204 34v140q37 -15 89 -23.5t96 -8.5q51 0 76 15t25 49t-25 49.5
t-75 15.5h-58v173q-248 37 -377.5 178.5t-129.5 374.5q0 182 81.5 309.5t241.5 194t391 66.5q174 0 305 -31v-308q-78 12 -138 18t-125 6q-177 0 -259 -63z" />
    <glyph glyph-name="egrave" unicode="&#xe8;" horiz-adv-x="1297" 
d="M1234 440h-757q7 -65 42.5 -102t114 -54.5t217.5 -17.5q69 0 151 7.5t159 21.5v-283q-174 -33 -374 -33q-246 0 -403 60.5t-233 185.5t-76 320q0 176 69.5 304t204 197t325.5 69q182 0 307.5 -69.5t189 -200.5t63.5 -314v-91zM526 819.5q-47 -52.5 -51 -164.5h383
q-4 111 -50.5 164t-140.5 53t-141 -52.5zM474 1226l-319 390h448l259 -390h-388z" />
    <glyph glyph-name="eacute" unicode="&#xe9;" horiz-adv-x="1297" 
d="M1234 440h-757q7 -65 42.5 -102t114 -54.5t217.5 -17.5q69 0 151 7.5t159 21.5v-283q-174 -33 -374 -33q-246 0 -403 60.5t-233 185.5t-76 320q0 176 69.5 304t204 197t325.5 69q182 0 307.5 -69.5t189 -200.5t63.5 -314v-91zM526 819.5q-47 -52.5 -51 -164.5h383
q-4 111 -50.5 164t-140.5 53t-141 -52.5zM474 1226l259 390h448l-319 -390h-388z" />
    <glyph glyph-name="ecircumflex" unicode="&#xea;" horiz-adv-x="1297" 
d="M1234 440h-757q7 -65 42.5 -102t114 -54.5t217.5 -17.5q69 0 151 7.5t159 21.5v-283q-174 -33 -374 -33q-246 0 -403 60.5t-233 185.5t-76 320q0 176 69.5 304t204 197t325.5 69q182 0 307.5 -69.5t189 -200.5t63.5 -314v-91zM526 819.5q-47 -52.5 -51 -164.5h383
q-4 111 -50.5 164t-140.5 53t-141 -52.5zM1109 1226h-298l-143 203l-143 -203h-298l283 390h316z" />
    <glyph glyph-name="edieresis" unicode="&#xeb;" horiz-adv-x="1297" 
d="M1234 440h-757q7 -65 42.5 -102t114 -54.5t217.5 -17.5q69 0 151 7.5t159 21.5v-283q-174 -33 -374 -33q-246 0 -403 60.5t-233 185.5t-76 320q0 176 69.5 304t204 197t325.5 69q182 0 307.5 -69.5t189 -200.5t63.5 -314v-91zM526 819.5q-47 -52.5 -51 -164.5h383
q-4 111 -50.5 164t-140.5 53t-141 -52.5zM231 1280q-52 49 -52 139t52 138.5t158 48.5t157.5 -48.5t51.5 -138.5t-52 -139t-157 -49q-106 0 -158 49zM790 1280q-52 49 -52 139t51.5 138.5t157.5 48.5t158 -48.5t52 -138.5t-52 -139t-158 -49q-105 0 -157 49z" />
    <glyph glyph-name="igrave" unicode="&#xec;" horiz-adv-x="663" 
d="M127 0v1097h408v-1097h-408zM137 1226l-319 390h448l259 -390h-388z" />
    <glyph glyph-name="iacute" unicode="&#xed;" horiz-adv-x="663" 
d="M127 0v1097h408v-1097h-408zM137 1226l259 390h448l-319 -390h-388z" />
    <glyph glyph-name="icircumflex" unicode="&#xee;" horiz-adv-x="663" 
d="M127 0v1097h408v-1097h-408zM772 1226h-298l-143 203l-143 -203h-298l283 390h316z" />
    <glyph glyph-name="idieresis" unicode="&#xef;" horiz-adv-x="663" 
d="M127 0v1097h408v-1097h-408zM-106 1280q-52 49 -52 139t52 138.5t158 48.5t157.5 -48.5t51.5 -138.5t-52 -139t-157 -49q-106 0 -158 49zM453 1280q-52 49 -52 139t51.5 138.5t157.5 48.5t158 -48.5t52 -138.5t-52 -139t-158 -49q-105 0 -157 49z" />
    <glyph glyph-name="eth" unicode="&#xf0;" horiz-adv-x="1427" 
d="M1290 964q67 -174 67 -339q0 -213 -76 -357.5t-220 -216.5t-347 -72q-195 0 -339 68t-222 196.5t-78 305.5t74 301.5t208 188.5t312 64q75 0 138 -16q-45 75 -102 146l-504 -79l-37 219l351 55q-118 103 -259 188h510q84 -57 157 -125l356 56l37 -219l-213 -33
q120 -157 187 -331zM949 548q0 133 -59 197.5t-176 64.5q-118 0 -177 -64t-59 -197q0 -134 59 -198t177 -64q235 0 235 261z" />
    <glyph glyph-name="ntilde" unicode="&#xf1;" horiz-adv-x="1431" 
d="M127 1097h333l25 -101h19q67 57 160.5 88t198.5 31q209 0 329.5 -121t120.5 -373v-621h-408v599q0 97 -39.5 137t-120.5 40q-60 0 -116 -21t-94 -59v-696h-408v1097zM805.5 1273q-42.5 13 -101.5 38q-56 24 -92 35.5t-75 11.5q-63 0 -113.5 -20.5t-104.5 -68.5v235
q46 43 101 62.5t127 19.5q47 0 89.5 -13t101.5 -38q56 -24 92 -35.5t75 -11.5q63 0 113.5 20.5t104.5 68.5v-235q-46 -43 -101 -62.5t-127 -19.5q-47 0 -89.5 13z" />
    <glyph glyph-name="ograve" unicode="&#xf2;" horiz-adv-x="1427" 
d="M377 46.5q-144 67.5 -223 196t-79 306.5q0 179 75.5 306t219 193.5t344.5 66.5t344.5 -66.5t218.5 -193.5t75 -306q0 -178 -79 -306.5t-223 -196t-336 -67.5q-193 0 -337 67.5zM889.5 350.5q59.5 63.5 59.5 197.5t-59.5 196.5t-175.5 62.5q-117 0 -176.5 -62t-59.5 -196
q0 -135 60 -198.5t176 -63.5t175.5 63.5zM520 1226l-319 390h448l259 -390h-388z" />
    <glyph glyph-name="oacute" unicode="&#xf3;" horiz-adv-x="1427" 
d="M377 46.5q-144 67.5 -223 196t-79 306.5q0 179 75.5 306t219 193.5t344.5 66.5t344.5 -66.5t218.5 -193.5t75 -306q0 -178 -79 -306.5t-223 -196t-336 -67.5q-193 0 -337 67.5zM889.5 350.5q59.5 63.5 59.5 197.5t-59.5 196.5t-175.5 62.5q-117 0 -176.5 -62t-59.5 -196
q0 -135 60 -198.5t176 -63.5t175.5 63.5zM520 1226l259 390h448l-319 -390h-388z" />
    <glyph glyph-name="ocircumflex" unicode="&#xf4;" horiz-adv-x="1427" 
d="M377 46.5q-144 67.5 -223 196t-79 306.5q0 179 75.5 306t219 193.5t344.5 66.5t344.5 -66.5t218.5 -193.5t75 -306q0 -178 -79 -306.5t-223 -196t-336 -67.5q-193 0 -337 67.5zM889.5 350.5q59.5 63.5 59.5 197.5t-59.5 196.5t-175.5 62.5q-117 0 -176.5 -62t-59.5 -196
q0 -135 60 -198.5t176 -63.5t175.5 63.5zM1155 1226h-298l-143 203l-143 -203h-298l283 390h316z" />
    <glyph glyph-name="otilde" unicode="&#xf5;" horiz-adv-x="1427" 
d="M377 46.5q-144 67.5 -223 196t-79 306.5q0 179 75.5 306t219 193.5t344.5 66.5t344.5 -66.5t218.5 -193.5t75 -306q0 -178 -79 -306.5t-223 -196t-336 -67.5q-193 0 -337 67.5zM889.5 350.5q59.5 63.5 59.5 197.5t-59.5 196.5t-175.5 62.5q-117 0 -176.5 -62t-59.5 -196
q0 -135 60 -198.5t176 -63.5t175.5 63.5zM798.5 1273q-42.5 13 -101.5 38q-56 24 -92 35.5t-75 11.5q-63 0 -113.5 -20.5t-104.5 -68.5v235q46 43 101 62.5t127 19.5q47 0 89.5 -13t101.5 -38q56 -24 92 -35.5t75 -11.5q63 0 113.5 20.5t104.5 68.5v-235q-46 -43 -101 -62.5
t-127 -19.5q-47 0 -89.5 13z" />
    <glyph glyph-name="odieresis" unicode="&#xf6;" horiz-adv-x="1427" 
d="M377 46.5q-144 67.5 -223 196t-79 306.5q0 179 75.5 306t219 193.5t344.5 66.5t344.5 -66.5t218.5 -193.5t75 -306q0 -178 -79 -306.5t-223 -196t-336 -67.5q-193 0 -337 67.5zM889.5 350.5q59.5 63.5 59.5 197.5t-59.5 196.5t-175.5 62.5q-117 0 -176.5 -62t-59.5 -196
q0 -135 60 -198.5t176 -63.5t175.5 63.5zM277 1280q-52 49 -52 139t52 138.5t158 48.5t157.5 -48.5t51.5 -138.5t-52 -139t-157 -49q-106 0 -158 49zM836 1280q-52 49 -52 139t51.5 138.5t157.5 48.5t158 -48.5t52 -138.5t-52 -139t-158 -49q-105 0 -157 49z" />
    <glyph glyph-name="divide" unicode="&#xf7;" horiz-adv-x="1184" 
d="M416.5 1055q-63.5 56 -63.5 155t62.5 155.5t176.5 56.5q113 0 176 -57.5t63 -154.5q0 -96 -64 -153.5t-175 -57.5q-112 0 -175.5 56zM125 610v300h934v-300h-934zM416.5 154.5q-63.5 56.5 -63.5 155.5t62.5 155t176.5 56q113 0 176 -57t63 -154q0 -63 -29 -111t-83 -74.5
t-127 -26.5q-112 0 -175.5 56.5z" />
    <glyph glyph-name="oslash" unicode="&#xf8;" horiz-adv-x="1427" 
d="M1306.5 796q45.5 -108 45.5 -247q0 -178 -79 -306.5t-223 -196t-336 -67.5q-163 0 -293 49l-86 -108l-143 118l66 83q-88 74 -135.5 182.5t-47.5 245.5q0 179 75.5 306t219 193.5t344.5 66.5q166 0 296 -46l86 108l142 -118l-65 -82q88 -73 133.5 -181zM535 747.5
q-60 -62.5 -60 -198.5q0 -87 24 -144l311 392q-40 13 -96 13q-119 0 -179 -62.5zM892 347.5q60 64.5 60 200.5q0 84 -23 141l-311 -393q40 -13 96 -13q118 0 178 64.5z" />
    <glyph glyph-name="ugrave" unicode="&#xf9;" horiz-adv-x="1421" 
d="M242 103q-124 121 -124 372v622h408v-600q0 -96 38.5 -136t115.5 -40q58 0 113 21.5t93 58.5v696h408v-1097h-333l-25 101h-15q-70 -57 -157.5 -88t-181.5 -31q-216 0 -340 121zM512 1226l-319 390h448l259 -390h-388z" />
    <glyph glyph-name="uacute" unicode="&#xfa;" horiz-adv-x="1421" 
d="M242 103q-124 121 -124 372v622h408v-600q0 -96 38.5 -136t115.5 -40q58 0 113 21.5t93 58.5v696h408v-1097h-333l-25 101h-15q-70 -57 -157.5 -88t-181.5 -31q-216 0 -340 121zM512 1226l259 390h448l-319 -390h-388z" />
    <glyph glyph-name="ucircumflex" unicode="&#xfb;" horiz-adv-x="1421" 
d="M242 103q-124 121 -124 372v622h408v-600q0 -96 38.5 -136t115.5 -40q58 0 113 21.5t93 58.5v696h408v-1097h-333l-25 101h-15q-70 -57 -157.5 -88t-181.5 -31q-216 0 -340 121zM1147 1226h-298l-143 203l-143 -203h-298l283 390h316z" />
    <glyph glyph-name="udieresis" unicode="&#xfc;" horiz-adv-x="1421" 
d="M242 103q-124 121 -124 372v622h408v-600q0 -96 38.5 -136t115.5 -40q58 0 113 21.5t93 58.5v696h408v-1097h-333l-25 101h-15q-70 -57 -157.5 -88t-181.5 -31q-216 0 -340 121zM269 1280q-52 49 -52 139t52 138.5t158 48.5t157.5 -48.5t51.5 -138.5t-52 -139t-157 -49
q-106 0 -158 49zM828 1280q-52 49 -52 139t51.5 138.5t157.5 48.5t158 -48.5t52 -138.5t-52 -139t-158 -49q-105 0 -157 49z" />
    <glyph glyph-name="yacute" unicode="&#xfd;" horiz-adv-x="1383" 
d="M991 1097h398l-635 -1537h-398l184 440h-96l-451 1097h430l283 -749zM498 1226l259 390h448l-319 -390h-388z" />
    <glyph glyph-name="thorn" unicode="&#xfe;" horiz-adv-x="1453" 
d="M127 1616h408v-618h18q128 117 331 117q138 0 250 -60.5t178 -182.5t66 -300q0 -186 -79.5 -319.5t-228 -203.5t-352.5 -70q-77 0 -183 10v-429h-408v2056zM904.5 347.5q70.5 65.5 70.5 197.5q0 248 -235 248q-58 0 -112 -16t-93 -50v-431q72 -14 154 -14
q145 0 215.5 65.5z" />
    <glyph glyph-name="ydieresis" unicode="&#xff;" horiz-adv-x="1383" 
d="M991 1097h398l-635 -1537h-398l184 440h-96l-451 1097h430l283 -749zM255 1280q-52 49 -52 139t52 138.5t158 48.5t157.5 -48.5t51.5 -138.5t-52 -139t-157 -49q-106 0 -158 49zM814 1280q-52 49 -52 139t51.5 138.5t157.5 48.5t158 -48.5t52 -138.5t-52 -139t-158 -49
q-105 0 -157 49z" />
    <glyph glyph-name="Amacron" unicode="&#x100;" horiz-adv-x="1715" 
d="M1285 0l-124 361h-611l-124 -361h-405l535 1480h603l536 -1480h-410zM657 671h398l-199 580zM432 1634v224h848v-224h-848z" />
    <glyph glyph-name="amacron" unicode="&#x101;" horiz-adv-x="1310" 
d="M936.5 1066.5q131.5 -48.5 193.5 -161.5t62 -308v-597h-338l-26 96h-19q-57 -59 -140 -88t-182 -29q-136 0 -230 42t-141 116t-47 169q0 159 129 247t402 103l191 12q-6 59 -35 92.5t-87 48.5t-155 15q-74 0 -167 -12.5t-172 -34.5v286q93 26 203 39t208 13
q219 0 350.5 -48.5zM710 252.5q46 11.5 83 35.5v169l-154 -9q-89 -7 -128 -34t-39 -75q0 -46 36.5 -72t108.5 -26q47 0 93 11.5zM249 1308v223h804v-223h-804z" />
    <glyph glyph-name="Abreve" unicode="&#x102;" horiz-adv-x="1715" 
d="M1285 0l-124 361h-611l-124 -361h-405l535 1480h603l536 -1480h-410zM657 671h398l-199 580zM531.5 1675.5q-113.5 83.5 -136.5 220.5h244q15 -54 68 -85.5t149 -31.5q184 0 217 117h244q-23 -137 -136.5 -220.5t-324.5 -83.5t-324.5 83.5z" />
    <glyph glyph-name="abreve" unicode="&#x103;" horiz-adv-x="1310" 
d="M936.5 1066.5q131.5 -48.5 193.5 -161.5t62 -308v-597h-338l-26 96h-19q-57 -59 -140 -88t-182 -29q-136 0 -230 42t-141 116t-47 169q0 159 129 247t402 103l191 12q-6 59 -35 92.5t-87 48.5t-155 15q-74 0 -167 -12.5t-172 -34.5v286q93 26 203 39t208 13
q219 0 350.5 -48.5zM710 252.5q46 11.5 83 35.5v169l-154 -9q-89 -7 -128 -34t-39 -75q0 -46 36.5 -72t108.5 -26q47 0 93 11.5zM335.5 1327.5q-112.5 96.5 -122.5 267.5h241q18 -168 197 -168q94 0 141 43t56 125h241q-10 -171 -122.5 -267.5t-315.5 -96.5t-315.5 96.5z
" />
    <glyph glyph-name="Aogonek" unicode="&#x104;" horiz-adv-x="1715" 
d="M1744 -275v-145q-99 -32 -202 -32q-156 0 -236 58.5t-80 160.5q0 146 163 233h-104l-124 361h-611l-124 -361h-405l535 1480h603l536 -1480q-132 -46 -187 -94t-55 -107q0 -48 37 -74.5t113 -26.5q60 0 141 27zM657 671h398l-199 580z" />
    <glyph glyph-name="aogonek" unicode="&#x105;" horiz-adv-x="1310" 
d="M1226 -275v-145q-45 -16 -88.5 -24t-98.5 -8q-145 0 -220.5 58.5t-75.5 160.5q0 70 35.5 128.5t116.5 104.5h-41l-26 96h-19q-57 -59 -140 -88t-182 -29q-136 0 -230 42t-141 116t-47 169q0 159 129 247t402 103l191 12q-6 59 -35 92.5t-87 48.5t-155 15
q-74 0 -167 -12.5t-172 -34.5v286q93 26 203 39t208 13q219 0 350.5 -48.5t193.5 -161.5t62 -308v-597q-122 -45 -172 -93.5t-50 -110.5q0 -45 33.5 -71.5t96.5 -26.5t126 27zM710 252.5q46 11.5 83 35.5v169l-154 -9q-89 -7 -128 -34t-39 -75q0 -46 36.5 -72t108.5 -26
q47 0 93 11.5z" />
    <glyph glyph-name="Cacute" unicode="&#x106;" horiz-adv-x="1457" 
d="M326 170q-234 190 -234 566q0 239 106.5 410.5t316 262.5t512.5 91q193 0 361 -35v-333q-154 32 -326 32q-276 0 -404.5 -105.5t-128.5 -318.5q0 -214 125.5 -319t387.5 -105q171 0 346 40v-332q-179 -44 -372 -44q-456 0 -690 190zM674 1590l207 310h431l-267 -310h-371
z" />
    <glyph glyph-name="cacute" unicode="&#x107;" horiz-adv-x="1159" 
d="M387.5 44.5q-154.5 65.5 -233.5 192.5t-79 308q0 182 81.5 309.5t241.5 194t391 66.5q174 0 305 -31v-308q-78 12 -138 18t-125 6q-177 0 -259 -63t-82 -191q0 -125 80 -188.5t238 -63.5q66 0 130 8.5t156 28.5v-309q-66 -20 -150.5 -31.5t-177.5 -11.5
q-224 0 -378.5 65.5zM444 1226l259 390h448l-319 -390h-388z" />
    <glyph glyph-name="Ccircumflex" unicode="&#x108;" horiz-adv-x="1457" 
d="M326 170q-234 190 -234 566q0 239 106.5 410.5t316 262.5t512.5 91q193 0 361 -35v-333q-154 32 -326 32q-276 0 -404.5 -105.5t-128.5 -318.5q0 -214 125.5 -319t387.5 -105q171 0 346 40v-332q-179 -44 -372 -44q-456 0 -690 190zM1358 1590h-325l-170 166l-170 -166
h-325l325 310h340z" />
    <glyph glyph-name="ccircumflex" unicode="&#x109;" horiz-adv-x="1159" 
d="M387.5 44.5q-154.5 65.5 -233.5 192.5t-79 308q0 182 81.5 309.5t241.5 194t391 66.5q174 0 305 -31v-308q-78 12 -138 18t-125 6q-177 0 -259 -63t-82 -191q0 -125 80 -188.5t238 -63.5q66 0 130 8.5t156 28.5v-309q-66 -20 -150.5 -31.5t-177.5 -11.5
q-224 0 -378.5 65.5zM1079 1226h-298l-143 203l-143 -203h-298l283 390h316z" />
    <glyph glyph-name="Cdotaccent" unicode="&#x10a;" horiz-adv-x="1457" 
d="M326 170q-234 190 -234 566q0 239 106.5 410.5t316 262.5t512.5 91q193 0 361 -35v-333q-154 32 -326 32q-276 0 -404.5 -105.5t-128.5 -318.5q0 -214 125.5 -319t387.5 -105q171 0 346 40v-332q-179 -44 -372 -44q-456 0 -690 190zM682.5 1630.5q-58.5 43.5 -58.5 119.5
q0 77 58.5 120.5t180.5 43.5t180.5 -43.5t58.5 -120.5q0 -76 -58.5 -119.5t-180.5 -43.5t-180.5 43.5z" />
    <glyph glyph-name="cdotaccent" unicode="&#x10b;" horiz-adv-x="1159" 
d="M387.5 44.5q-154.5 65.5 -233.5 192.5t-79 308q0 182 81.5 309.5t241.5 194t391 66.5q174 0 305 -31v-308q-78 12 -138 18t-125 6q-177 0 -259 -63t-82 -191q0 -125 80 -188.5t238 -63.5q66 0 130 8.5t156 28.5v-309q-66 -20 -150.5 -31.5t-177.5 -11.5
q-224 0 -378.5 65.5zM394 1419q0 191 244 191t244 -191t-244 -191t-244 191z" />
    <glyph glyph-name="Ccaron" unicode="&#x10c;" horiz-adv-x="1457" 
d="M326 170q-234 190 -234 566q0 239 106.5 410.5t316 262.5t512.5 91q193 0 361 -35v-333q-154 32 -326 32q-276 0 -404.5 -105.5t-128.5 -318.5q0 -214 125.5 -319t387.5 -105q171 0 346 40v-332q-179 -44 -372 -44q-456 0 -690 190zM1033 1900h325l-325 -310h-340
l-325 310h325l170 -165z" />
    <glyph glyph-name="ccaron" unicode="&#x10d;" horiz-adv-x="1159" 
d="M387.5 44.5q-154.5 65.5 -233.5 192.5t-79 308q0 182 81.5 309.5t241.5 194t391 66.5q174 0 305 -31v-308q-78 12 -138 18t-125 6q-177 0 -259 -63t-82 -191q0 -125 80 -188.5t238 -63.5q66 0 130 8.5t156 28.5v-309q-66 -20 -150.5 -31.5t-177.5 -11.5
q-224 0 -378.5 65.5zM782 1616h298l-284 -390h-316l-284 390h298l144 -204z" />
    <glyph glyph-name="Dcaron" unicode="&#x10e;" horiz-adv-x="1762" 
d="M382.5 -6.5q-129.5 6.5 -240.5 20.5v1421q116 27 275.5 43t304.5 16q472 0 710 -185.5t238 -568.5q0 -267 -114 -432.5t-343.5 -243t-584.5 -77.5q-116 0 -245.5 6.5zM1027 358.5q111 44.5 164 139t53 245.5q0 220 -123 323t-380 103q-83 0 -181 -16v-833q65 -6 180 -6
q176 0 287 44.5zM934 1900h325l-325 -310h-340l-325 310h325l170 -165z" />
    <glyph glyph-name="dcaron" unicode="&#x10f;" horiz-adv-x="1453" 
d="M333 39.5q-119 57.5 -188.5 179.5t-69.5 306q0 186 79.5 319.5t228 203.5t352.5 70q77 0 183 -10v508h408v-1616h-340l-22 110h-18q-64 -60 -151 -94t-193 -34q-150 0 -269 57.5zM825.5 320q53.5 16 92.5 50v431q-72 14 -154 14q-145 0 -215.5 -65.5t-70.5 -197.5
q0 -248 236 -248q58 0 111.5 16zM1423.5 1394.5q7.5 101.5 7.5 221.5h261q0 -121 -22 -234.5t-60 -201.5h-212q18 113 25.5 214.5z" />
    <glyph glyph-name="Dcroat" unicode="&#x110;" horiz-adv-x="1762" 
d="M1432 1308.5q238 -185.5 238 -568.5q0 -267 -114 -432.5t-343.5 -243t-584.5 -77.5q-116 0 -245.5 6.5t-240.5 20.5v624h-134v249h134v548q116 27 275.5 43t304.5 16q472 0 710 -185.5zM1027 358.5q111 44.5 164 139t53 245.5q0 220 -123 323t-380 103q-83 0 -181 -16
v-266h296v-249h-296v-318q65 -6 180 -6q176 0 287 44.5z" />
    <glyph glyph-name="dcroat" unicode="&#x111;" horiz-adv-x="1453" 
d="M1449 1240h-123v-1240h-340l-22 110h-18q-64 -60 -151 -94t-193 -34q-150 0 -269 57.5t-188.5 179.5t-69.5 306q0 186 79.5 319.5t228 203.5t352.5 70q77 0 183 -10v132h-423v232h423v144h408v-144h123v-232zM918 801q-72 14 -154 14q-145 0 -215.5 -65.5t-70.5 -197.5
q0 -248 236 -248q58 0 111.5 16t92.5 50v431z" />
    <glyph glyph-name="Emacron" unicode="&#x112;" horiz-adv-x="1468" 
d="M555 310h824v-310h-1237v1480h1227v-310h-814v-259h708v-310h-708v-291zM353 1634v224h848v-224h-848z" />
    <glyph glyph-name="emacron" unicode="&#x113;" horiz-adv-x="1297" 
d="M1234 440h-757q7 -65 42.5 -102t114 -54.5t217.5 -17.5q69 0 151 7.5t159 21.5v-283q-174 -33 -374 -33q-246 0 -403 60.5t-233 185.5t-76 320q0 176 69.5 304t204 197t325.5 69q182 0 307.5 -69.5t189 -200.5t63.5 -314v-91zM526 819.5q-47 -52.5 -51 -164.5h383
q-4 111 -50.5 164t-140.5 53t-141 -52.5zM266 1308v223h804v-223h-804z" />
    <glyph glyph-name="Ebreve" unicode="&#x114;" horiz-adv-x="1468" 
d="M555 310h824v-310h-1237v1480h1227v-310h-814v-259h708v-310h-708v-291zM452.5 1675.5q-113.5 83.5 -136.5 220.5h244q15 -54 68 -85.5t149 -31.5q184 0 217 117h244q-23 -137 -136.5 -220.5t-324.5 -83.5t-324.5 83.5z" />
    <glyph glyph-name="ebreve" unicode="&#x115;" horiz-adv-x="1297" 
d="M1234 440h-757q7 -65 42.5 -102t114 -54.5t217.5 -17.5q69 0 151 7.5t159 21.5v-283q-174 -33 -374 -33q-246 0 -403 60.5t-233 185.5t-76 320q0 176 69.5 304t204 197t325.5 69q182 0 307.5 -69.5t189 -200.5t63.5 -314v-91zM526 819.5q-47 -52.5 -51 -164.5h383
q-4 111 -50.5 164t-140.5 53t-141 -52.5zM352.5 1327.5q-112.5 96.5 -122.5 267.5h241q18 -168 197 -168q94 0 141 43t56 125h241q-10 -171 -122.5 -267.5t-315.5 -96.5t-315.5 96.5z" />
    <glyph glyph-name="Edotaccent" unicode="&#x116;" horiz-adv-x="1468" 
d="M555 310h824v-310h-1237v1480h1227v-310h-814v-259h708v-310h-708v-291zM596.5 1630.5q-58.5 43.5 -58.5 119.5q0 77 58.5 120.5t180.5 43.5t180.5 -43.5t58.5 -120.5q0 -76 -58.5 -119.5t-180.5 -43.5t-180.5 43.5z" />
    <glyph glyph-name="edotaccent" unicode="&#x117;" horiz-adv-x="1297" 
d="M1234 440h-757q7 -65 42.5 -102t114 -54.5t217.5 -17.5q69 0 151 7.5t159 21.5v-283q-174 -33 -374 -33q-246 0 -403 60.5t-233 185.5t-76 320q0 176 69.5 304t204 197t325.5 69q182 0 307.5 -69.5t189 -200.5t63.5 -314v-91zM526 819.5q-47 -52.5 -51 -164.5h383
q-4 111 -50.5 164t-140.5 53t-141 -52.5zM424 1419q0 191 244 191t244 -191t-244 -191t-244 191z" />
    <glyph glyph-name="Eogonek" unicode="&#x118;" horiz-adv-x="1468" 
d="M1094 -94q-55 -48 -55 -107q0 -48 37 -74.5t113 -26.5q60 0 141 27v-145q-99 -32 -202 -32q-156 0 -236 58.5t-80 160.5q0 146 163 233h-833v1480h1227v-310h-814v-259h708v-310h-708v-291h824v-310h-98q-132 -46 -187 -94z" />
    <glyph glyph-name="eogonek" unicode="&#x119;" horiz-adv-x="1297" 
d="M1234 440h-757q7 -65 42.5 -102t114 -54.5t217.5 -17.5q69 0 151 7.5t159 21.5v-283q-139 -42 -197 -96.5t-58 -119.5q0 -45 33.5 -71.5t96.5 -26.5t125 27v-145q-44 -16 -87.5 -24t-99.5 -8q-145 0 -220.5 58.5t-75.5 160.5q0 130 120 212h-11q-246 0 -403 60.5
t-233 185.5t-76 320q0 176 69.5 304t204 197t325.5 69q182 0 307.5 -69.5t189 -200.5t63.5 -314v-91zM526 810.5q-47 -52.5 -51 -164.5h383q-4 111 -50.5 164t-140.5 53t-141 -52.5z" />
    <glyph glyph-name="Ecaron" unicode="&#x11a;" horiz-adv-x="1468" 
d="M555 310h824v-310h-1237v1480h1227v-310h-814v-259h708v-310h-708v-291zM947 1900h325l-325 -310h-340l-325 310h325l170 -165z" />
    <glyph glyph-name="ecaron" unicode="&#x11b;" horiz-adv-x="1297" 
d="M1234 440h-757q7 -65 42.5 -102t114 -54.5t217.5 -17.5q69 0 151 7.5t159 21.5v-283q-174 -33 -374 -33q-246 0 -403 60.5t-233 185.5t-76 320q0 176 69.5 304t204 197t325.5 69q182 0 307.5 -69.5t189 -200.5t63.5 -314v-91zM526 819.5q-47 -52.5 -51 -164.5h383
q-4 111 -50.5 164t-140.5 53t-141 -52.5zM812 1616h298l-284 -390h-316l-284 390h298l144 -204z" />
    <glyph glyph-name="Gcircumflex" unicode="&#x11c;" horiz-adv-x="1652" 
d="M1505 720v-700q-237 -39 -434 -39q-493 0 -736 190t-243 562q-1 241 110.5 413t334 263t548.5 91q88 0 183.5 -9t181.5 -26v-333q-156 32 -334 32q-208 -1 -338.5 -49t-191 -144t-60.5 -244q0 -201 128 -307t393 -106q46 0 69 1v405h389zM1415 1590h-325l-170 166
l-170 -166h-325l325 310h340z" />
    <glyph glyph-name="gcircumflex" unicode="&#x11d;" horiz-adv-x="1453" 
d="M155 -409v309q114 -29 225.5 -44t200.5 -15q123 0 197 24.5t107 73.5t33 126v54h-18q-127 -116 -332 -116q-136 0 -248.5 61t-178.5 179t-66 282q0 185 81.5 317t243.5 202.5t398 70.5q134 0 277 -18.5t251 -50.5v-901q0 -210 -76 -343.5t-233.5 -197.5t-404.5 -64
q-248 0 -457 51zM822 338.5q53 14.5 96 42.5v416q-70 17 -155 17q-140 0 -212.5 -65t-72.5 -192q0 -121 62 -177t174 -56q55 0 108 14.5zM1200 1226h-298l-143 203l-143 -203h-298l283 390h316z" />
    <glyph glyph-name="Gbreve" unicode="&#x11e;" horiz-adv-x="1652" 
d="M1505 720v-700q-237 -39 -434 -39q-493 0 -736 190t-243 562q-1 241 110.5 413t334 263t548.5 91q88 0 183.5 -9t181.5 -26v-333q-156 32 -334 32q-208 -1 -338.5 -49t-191 -144t-60.5 -244q0 -201 128 -307t393 -106q46 0 69 1v405h389zM595.5 1675.5
q-113.5 83.5 -136.5 220.5h244q15 -54 68 -85.5t149 -31.5q184 0 217 117h244q-23 -137 -136.5 -220.5t-324.5 -83.5t-324.5 83.5z" />
    <glyph glyph-name="gbreve" unicode="&#x11f;" horiz-adv-x="1453" 
d="M155 -409v309q114 -29 225.5 -44t200.5 -15q123 0 197 24.5t107 73.5t33 126v54h-18q-127 -116 -332 -116q-136 0 -248.5 61t-178.5 179t-66 282q0 185 81.5 317t243.5 202.5t398 70.5q134 0 277 -18.5t251 -50.5v-901q0 -210 -76 -343.5t-233.5 -197.5t-404.5 -64
q-248 0 -457 51zM822 338.5q53 14.5 96 42.5v416q-70 17 -155 17q-140 0 -212.5 -65t-72.5 -192q0 -121 62 -177t174 -56q55 0 108 14.5zM443.5 1327.5q-112.5 96.5 -122.5 267.5h241q18 -168 197 -168q94 0 141 43t56 125h241q-10 -171 -122.5 -267.5t-315.5 -96.5
t-315.5 96.5z" />
    <glyph glyph-name="Gdotaccent" unicode="&#x120;" horiz-adv-x="1652" 
d="M1505 720v-700q-237 -39 -434 -39q-493 0 -736 190t-243 562q-1 241 110.5 413t334 263t548.5 91q88 0 183.5 -9t181.5 -26v-333q-156 32 -334 32q-208 -1 -338.5 -49t-191 -144t-60.5 -244q0 -201 128 -307t393 -106q46 0 69 1v405h389zM739.5 1630.5
q-58.5 43.5 -58.5 119.5q0 77 58.5 120.5t180.5 43.5t180.5 -43.5t58.5 -120.5q0 -76 -58.5 -119.5t-180.5 -43.5t-180.5 43.5z" />
    <glyph glyph-name="gdotaccent" unicode="&#x121;" horiz-adv-x="1453" 
d="M155 -409v309q114 -29 225.5 -44t200.5 -15q123 0 197 24.5t107 73.5t33 126v54h-18q-127 -116 -332 -116q-136 0 -248.5 61t-178.5 179t-66 282q0 185 81.5 317t243.5 202.5t398 70.5q134 0 277 -18.5t251 -50.5v-901q0 -210 -76 -343.5t-233.5 -197.5t-404.5 -64
q-248 0 -457 51zM822 338.5q53 14.5 96 42.5v416q-70 17 -155 17q-140 0 -212.5 -65t-72.5 -192q0 -121 62 -177t174 -56q55 0 108 14.5zM515 1419q0 191 244 191t244 -191t-244 -191t-244 191z" />
    <glyph glyph-name="Gcommaaccent" unicode="&#x122;" horiz-adv-x="1652" 
d="M1505 720v-700q-237 -39 -434 -39q-493 0 -736 190t-243 562q-1 241 110.5 413t334 263t548.5 91q88 0 183.5 -9t181.5 -26v-333q-156 32 -334 32q-208 -1 -338.5 -49t-191 -144t-60.5 -244q0 -201 128 -307t393 -106q46 0 69 1v405h389zM1142 -280q0 -58 -24.5 -121.5
t-64.5 -108.5h-247q26 46 40 81t20 66q-89 7 -128.5 38t-39.5 84q0 126 221 126q223 0 223 -165z" />
    <glyph glyph-name="gcommaaccent" unicode="&#x123;" horiz-adv-x="1453" 
d="M155 -409v309q114 -29 225.5 -44t200.5 -15q123 0 197 24.5t107 73.5t33 126v54h-18q-127 -116 -332 -116q-136 0 -248.5 61t-178.5 179t-66 282q0 185 81.5 317t243.5 202.5t398 70.5q134 0 277 -18.5t251 -50.5v-901q0 -210 -76 -343.5t-233.5 -197.5t-404.5 -64
q-248 0 -457 51zM822 338.5q53 14.5 96 42.5v416q-70 17 -155 17q-140 0 -212.5 -65t-72.5 -192q0 -121 62 -177t174 -56q55 0 108 14.5zM941.5 1442.5q39.5 -31.5 39.5 -84.5q0 -125 -221 -125q-223 0 -223 165q0 58 24.5 121t64.5 108h247q-49 -88 -60 -146
q89 -7 128.5 -38.5z" />
    <glyph glyph-name="Hcircumflex" unicode="&#x124;" horiz-adv-x="1763" 
d="M142 0v1480h418v-547h643v547h418v-1480h-418v579h-643v-579h-418zM1377 1590h-325l-170 166l-170 -166h-325l325 310h340z" />
    <glyph glyph-name="hcircumflex" unicode="&#x125;" horiz-adv-x="1431" 
d="M127 1616h408v-618h18q65 57 150.5 87t179.5 30q126 0 223 -52t152 -162t55 -279v-622h-408v600q0 96 -39.5 136t-120.5 40q-60 0 -116 -21.5t-94 -58.5v-696h-408v1616zM1216 1686h-325l-170 166l-170 -166h-325l325 310h340z" />
    <glyph glyph-name="Hbar" unicode="&#x126;" horiz-adv-x="1763" 
d="M1755 1334v-248h-134v-1086h-418v579h-643v-579h-418v1086h-134v248h134v146h418v-146h643v146h418v-146h134zM1203 933v153h-643v-153h643z" />
    <glyph glyph-name="hbar" unicode="&#x127;" horiz-adv-x="1431" 
d="M1106 1063q97 -52 152 -162t55 -279v-622h-408v600q0 96 -39.5 136t-120.5 40q-60 0 -116 -21.5t-94 -58.5v-696h-408v1235h-124v232h124v149h408v-149h423v-232h-423v-237h18q65 57 150.5 87t179.5 30q126 0 223 -52z" />
    <glyph glyph-name="Itilde" unicode="&#x128;" horiz-adv-x="703" 
d="M142 0v1480h418v-1480h-418zM443.5 1611.5q-46.5 9.5 -109.5 28.5q-61 17 -101 25.5t-85 8.5q-67 0 -119 -15.5t-107 -49.5v209q48 38 103.5 56t132.5 18q53 0 98.5 -9.5t111.5 -29.5q58 -17 99.5 -26t86.5 -9q67 0 119 15.5t107 49.5v-209q-48 -38 -103.5 -55
t-132.5 -17q-54 0 -100.5 9.5z" />
    <glyph glyph-name="itilde" unicode="&#x129;" horiz-adv-x="663" 
d="M127 0v1097h408v-1097h-408zM415.5 1273q-42.5 13 -101.5 38q-56 24 -92 35.5t-75 11.5q-63 0 -113.5 -20.5t-104.5 -68.5v235q46 43 101 62.5t127 19.5q47 0 89.5 -13t101.5 -38q56 -24 92 -35.5t75 -11.5q63 0 113.5 20.5t104.5 68.5v-235q-46 -43 -101 -62.5
t-127 -19.5q-47 0 -89.5 13z" />
    <glyph glyph-name="Imacron" unicode="&#x12a;" horiz-adv-x="703" 
d="M142 0v1480h418v-1480h-418zM-73 1634v224h848v-224h-848z" />
    <glyph glyph-name="imacron" unicode="&#x12b;" horiz-adv-x="663" 
d="M127 0v1097h408v-1097h-408zM-71 1308v223h804v-223h-804z" />
    <glyph glyph-name="Ibreve" unicode="&#x12c;" horiz-adv-x="703" 
d="M142 0v1480h418v-1480h-418zM26.5 1675.5q-113.5 83.5 -136.5 220.5h244q15 -54 68 -85.5t149 -31.5q184 0 217 117h244q-23 -137 -136.5 -220.5t-324.5 -83.5t-324.5 83.5z" />
    <glyph glyph-name="ibreve" unicode="&#x12d;" horiz-adv-x="663" 
d="M127 0v1097h408v-1097h-408zM15.5 1327.5q-112.5 96.5 -122.5 267.5h241q18 -168 197 -168q94 0 141 43t56 125h241q-10 -171 -122.5 -267.5t-315.5 -96.5t-315.5 96.5z" />
    <glyph glyph-name="Iogonek" unicode="&#x12e;" horiz-adv-x="703" 
d="M609 -275v-145q-99 -32 -202 -32q-156 0 -236 58.5t-80 160.5q0 146 163 233h-112v1480h418v-1480q-132 -46 -187 -94t-55 -107q0 -48 37 -74.5t113 -26.5q60 0 141 27z" />
    <glyph glyph-name="iogonek" unicode="&#x12f;" horiz-adv-x="663" 
d="M87 1419q0 191 244 191t244 -191t-244 -191t-244 191zM346.5 -275.5q33.5 -26.5 96.5 -26.5t126 27v-145q-45 -16 -88.5 -24t-98.5 -8q-145 0 -220.5 58.5t-75.5 160.5q0 70 35.5 128.5t116.5 104.5h-111v1097h408v-1097q-122 -45 -172 -93.5t-50 -110.5
q0 -45 33.5 -71.5z" />
    <glyph glyph-name="Idotaccent" unicode="&#x130;" horiz-adv-x="703" 
d="M142 0v1480h418v-1480h-418zM170.5 1630.5q-58.5 43.5 -58.5 119.5q0 77 58.5 120.5t180.5 43.5t180.5 -43.5t58.5 -120.5q0 -76 -58.5 -119.5t-180.5 -43.5t-180.5 43.5z" />
    <glyph glyph-name="dotlessi" unicode="&#x131;" horiz-adv-x="663" 
d="M127 0v1097h408v-1097h-408z" />
    <glyph glyph-name="Jcircumflex" unicode="&#x134;" horiz-adv-x="703" 
d="M-10 -182q85 103 120.5 213t35.5 269v1180h414v-1172q-2 -193 -73 -350.5t-239 -312.5zM848 1590h-325l-170 166l-170 -166h-325l325 310h340z" />
    <glyph glyph-name="jcircumflex" unicode="&#x135;" horiz-adv-x="663" 
d="M-28 -304q85 102 120 212.5t35 269.5v919h408v-905q0 -193 -71 -351t-238 -315zM764 1228h-298l-143 203l-143 -203h-298l283 390h316z" />
    <glyph glyph-name="Kcommaaccent" unicode="&#x136;" horiz-adv-x="1515" 
d="M1102 0l-413 579h-129v-579h-418v1480h418v-547h128l380 547h440l-496 -714l545 -766h-455zM1018 -280q0 -58 -24.5 -121.5t-64.5 -108.5h-247q26 46 40 81t20 66q-89 7 -128.5 38t-39.5 84q0 126 221 126q223 0 223 -165z" />
    <glyph glyph-name="kcommaaccent" unicode="&#x137;" horiz-adv-x="1403" 
d="M992 0l-298 400h-159v-400h-408v1616h408v-888h157l271 369h436l-372 -523l410 -574h-445zM946 -280q0 -58 -24.5 -121.5t-64.5 -108.5h-247q26 46 40 81t20 66q-89 7 -128.5 38t-39.5 84q0 126 221 126q223 0 223 -165z" />
    <glyph glyph-name="kgreenlandic" unicode="&#x138;" horiz-adv-x="1403" 
d="M992 0l-298 400h-159v-400h-408v1097h408v-369h157l271 369h436l-372 -523l410 -574h-445z" />
    <glyph glyph-name="Lacute" unicode="&#x139;" horiz-adv-x="1334" 
d="M142 0v1480h418v-1155h761v-325h-1179zM162 1590l207 310h431l-267 -310h-371z" />
    <glyph glyph-name="lacute" unicode="&#x13a;" horiz-adv-x="663" 
d="M127 0v1616h408v-1616h-408zM142 1686l207 310h431l-267 -310h-371z" />
    <glyph glyph-name="Lcommaaccent" unicode="&#x13b;" horiz-adv-x="1334" 
d="M142 0v1480h418v-1155h761v-325h-1179zM954 -280q0 -58 -24.5 -121.5t-64.5 -108.5h-247q26 46 40 81t20 66q-89 7 -128.5 38t-39.5 84q0 126 221 126q223 0 223 -165z" />
    <glyph glyph-name="lcommaaccent" unicode="&#x13c;" horiz-adv-x="663" 
d="M127 0v1616h408v-1616h-408zM552 -280q0 -58 -24.5 -121.5t-64.5 -108.5h-247q26 46 40 81t20 66q-89 7 -128.5 38t-39.5 84q0 126 221 126q223 0 223 -165z" />
    <glyph glyph-name="Lcaron" unicode="&#x13d;" horiz-adv-x="1334" 
d="M142 0v1480h418v-1155h761v-325h-1179zM886.5 1358q6.5 106 6.5 258h261q0 -277 -78 -476h-213q17 112 23.5 218z" />
    <glyph glyph-name="lcaron" unicode="&#x13e;" horiz-adv-x="663" 
d="M127 0v1616h408v-1616h-408zM633.5 1394.5q7.5 101.5 7.5 221.5h261q0 -121 -22 -234.5t-60 -201.5h-212q18 113 25.5 214.5z" />
    <glyph glyph-name="Ldot" unicode="&#x13f;" horiz-adv-x="1334" 
d="M142 0v1480h418v-1155h761v-325h-1179zM821.5 764q-59.5 48 -59.5 143t59.5 143t184.5 48q244 0 244 -191t-244 -191q-125 0 -184.5 48z" />
    <glyph glyph-name="ldot" unicode="&#x140;" horiz-adv-x="1047" 
d="M127 0v1616h408v-1616h-408zM607 794q0 191 244 191t244 -191t-244 -191t-244 191z" />
    <glyph glyph-name="Lslash" unicode="&#x141;" horiz-adv-x="1334" 
d="M560 325h761v-325h-1179v598l-86 -43l-110 221l196 99v605h418v-393l297 150l110 -222l-407 -206v-484z" />
    <glyph glyph-name="lslash" unicode="&#x142;" horiz-adv-x="731" 
d="M766 780l-197 -99v-681h-408v477l-87 -44l-107 215l194 97v871h408v-666l90 45z" />
    <glyph glyph-name="Nacute" unicode="&#x143;" horiz-adv-x="1776" 
d="M1240 1480h394v-1480h-419l-679 912v-912h-394v1480h419l679 -912v912zM699 1590l207 310h431l-267 -310h-371z" />
    <glyph glyph-name="nacute" unicode="&#x144;" horiz-adv-x="1431" 
d="M127 1097h333l25 -101h19q67 57 160.5 88t198.5 31q209 0 329.5 -121t120.5 -373v-621h-408v599q0 97 -39.5 137t-120.5 40q-60 0 -116 -21t-94 -59v-696h-408v1097zM527 1226l259 390h448l-319 -390h-388z" />
    <glyph glyph-name="Ncommaaccent" unicode="&#x145;" horiz-adv-x="1776" 
d="M1240 1480h394v-1480h-419l-679 912v-912h-394v1480h419l679 -912v912zM1110 -280q0 -58 -24.5 -121.5t-64.5 -108.5h-247q26 46 40 81t20 66q-89 7 -128.5 38t-39.5 84q0 126 221 126q223 0 223 -165z" />
    <glyph glyph-name="ncommaaccent" unicode="&#x146;" horiz-adv-x="1431" 
d="M127 1097h333l25 -101h19q67 57 160.5 88t198.5 31q209 0 329.5 -121t120.5 -373v-621h-408v599q0 97 -39.5 137t-120.5 40q-60 0 -116 -21t-94 -59v-696h-408v1097zM943 -280q0 -58 -24.5 -121.5t-64.5 -108.5h-247q26 46 40 81t20 66q-89 7 -128.5 38t-39.5 84
q0 126 221 126q223 0 223 -165z" />
    <glyph glyph-name="Ncaron" unicode="&#x147;" horiz-adv-x="1776" 
d="M1240 1480h394v-1480h-419l-679 912v-912h-394v1480h419l679 -912v912zM1058 1900h325l-325 -310h-340l-325 310h325l170 -165z" />
    <glyph glyph-name="ncaron" unicode="&#x148;" horiz-adv-x="1431" 
d="M127 1097h333l25 -101h19q67 57 160.5 88t198.5 31q209 0 329.5 -121t120.5 -373v-621h-408v599q0 97 -39.5 137t-120.5 40q-60 0 -116 -21t-94 -59v-696h-408v1097zM865 1616h298l-284 -390h-316l-284 390h298l144 -204z" />
    <glyph glyph-name="napostrophe" unicode="&#x149;" horiz-adv-x="1431" 
d="M127 1097h333l25 -101h19q67 57 160.5 88t198.5 31q209 0 329.5 -121t120.5 -373v-621h-408v599q0 97 -39.5 137t-120.5 40q-60 0 -116 -21t-94 -59v-696h-408v1097zM402.5 1585q53.5 -42 53.5 -123q0 -58 -24 -121t-64 -108h-247q47 86 60 147q-89 7 -128.5 38t-39.5 84
q0 125 221 125q115 0 168.5 -42z" />
    <glyph glyph-name="Eng" unicode="&#x14a;" horiz-adv-x="1776" 
d="M1634 1480v-1253q0 -145 -30 -262.5t-97.5 -224.5t-181.5 -214l-254 170q60 72 96.5 143.5t54.5 153.5l-686 919v-912h-394v1480h419l679 -911v911h394z" />
    <glyph glyph-name="eng" unicode="&#x14b;" horiz-adv-x="1431" 
d="M750 -304q85 102 120 212.5t35 269.5v422q0 96 -39.5 136t-120.5 40q-60 0 -116 -21.5t-94 -58.5v-696h-408v1097h333l25 -101h19q67 57 160 88t200 31q208 0 328.5 -121t120.5 -372v-435q-2 -192 -72 -348t-237 -313z" />
    <glyph glyph-name="Omacron" unicode="&#x14c;" horiz-adv-x="1847" 
d="M480.5 70.5q-187.5 90.5 -288 261.5t-100.5 408t100.5 408t287.5 261.5t443 90.5t443.5 -91t288 -262t100.5 -407q0 -235 -101 -406.5t-288.5 -262.5t-442.5 -91t-442.5 90.5zM1224.5 414.5q104.5 108.5 104.5 318.5q0 219 -105.5 330t-300.5 111q-194 0 -300 -107.5
t-106 -319.5q0 -222 104 -331.5t302 -109.5q197 0 301.5 108.5zM499 1634v224h848v-224h-848z" />
    <glyph glyph-name="omacron" unicode="&#x14d;" horiz-adv-x="1427" 
d="M377 46.5q-144 67.5 -223 196t-79 306.5q0 179 75.5 306t219 193.5t344.5 66.5t344.5 -66.5t218.5 -193.5t75 -306q0 -178 -79 -306.5t-223 -196t-336 -67.5q-193 0 -337 67.5zM889.5 350.5q59.5 63.5 59.5 197.5t-59.5 196.5t-175.5 62.5q-117 0 -176.5 -62t-59.5 -196
q0 -135 60 -198.5t176 -63.5t175.5 63.5zM312 1308v223h804v-223h-804z" />
    <glyph glyph-name="Obreve" unicode="&#x14e;" horiz-adv-x="1847" 
d="M480.5 70.5q-187.5 90.5 -288 261.5t-100.5 408t100.5 408t287.5 261.5t443 90.5t443.5 -91t288 -262t100.5 -407q0 -235 -101 -406.5t-288.5 -262.5t-442.5 -91t-442.5 90.5zM1224.5 414.5q104.5 108.5 104.5 318.5q0 219 -105.5 330t-300.5 111q-194 0 -300 -107.5
t-106 -319.5q0 -222 104 -331.5t302 -109.5q197 0 301.5 108.5zM598.5 1675.5q-113.5 83.5 -136.5 220.5h244q15 -54 68 -85.5t149 -31.5q184 0 217 117h244q-23 -137 -136.5 -220.5t-324.5 -83.5t-324.5 83.5z" />
    <glyph glyph-name="obreve" unicode="&#x14f;" horiz-adv-x="1427" 
d="M377 46.5q-144 67.5 -223 196t-79 306.5q0 179 75.5 306t219 193.5t344.5 66.5t344.5 -66.5t218.5 -193.5t75 -306q0 -178 -79 -306.5t-223 -196t-336 -67.5q-193 0 -337 67.5zM889.5 350.5q59.5 63.5 59.5 197.5t-59.5 196.5t-175.5 62.5q-117 0 -176.5 -62t-59.5 -196
q0 -135 60 -198.5t176 -63.5t175.5 63.5zM398.5 1327.5q-112.5 96.5 -122.5 267.5h241q18 -168 197 -168q94 0 141 43t56 125h241q-10 -171 -122.5 -267.5t-315.5 -96.5t-315.5 96.5z" />
    <glyph glyph-name="Ohungarumlaut" unicode="&#x150;" horiz-adv-x="1847" 
d="M480.5 70.5q-187.5 90.5 -288 261.5t-100.5 408t100.5 408t287.5 261.5t443 90.5t443.5 -91t288 -262t100.5 -407q0 -235 -101 -406.5t-288.5 -262.5t-442.5 -91t-442.5 90.5zM1224.5 414.5q104.5 108.5 104.5 318.5q0 219 -105.5 330t-300.5 111q-194 0 -300 -107.5
t-106 -319.5q0 -222 104 -331.5t302 -109.5q197 0 301.5 108.5zM553 1590l163 310h309l-184 -310h-288zM1005 1590l164 310h309l-185 -310h-288z" />
    <glyph glyph-name="ohungarumlaut" unicode="&#x151;" horiz-adv-x="1427" 
d="M377 46.5q-144 67.5 -223 196t-79 306.5q0 179 75.5 306t219 193.5t344.5 66.5t344.5 -66.5t218.5 -193.5t75 -306q0 -178 -79 -306.5t-223 -196t-336 -67.5q-193 0 -337 67.5zM889.5 350.5q59.5 63.5 59.5 197.5t-59.5 196.5t-175.5 62.5q-117 0 -176.5 -62t-59.5 -196
q0 -135 60 -198.5t176 -63.5t175.5 63.5zM344 1226l167 390h309l-188 -390h-288zM796 1226l167 390h309l-188 -390h-288z" />
    <glyph glyph-name="OE" unicode="&#x152;" horiz-adv-x="2468" 
d="M2378 310v-310h-901q-52 0 -114.5 -3t-81.5 -4q-118 -6 -164 -6q-355 0 -580.5 77t-335 242.5t-109.5 433.5q0 386 251 570t756 184q70 0 178 -7q18 -1 81 -4t116 -3h894v-310h-773v-259h668v-310h-668v-291h783zM1182 1160q-69 5 -176 5q-252 0 -371 -102.5t-119 -325.5
q0 -219 119.5 -320.5t370.5 -101.5q112 0 176 5v840z" />
    <glyph glyph-name="oe" unicode="&#x153;" horiz-adv-x="2164" 
d="M2101 440h-749q7 -65 42 -102t112 -54.5t213 -17.5q69 0 151 7.5t158 21.5v-283q-174 -33 -373 -33q-185 0 -315 38.5t-211 114.5q-75 -75 -183.5 -114t-249.5 -39q-184 0 -324.5 67.5t-218.5 196t-78 306.5t74.5 305.5t214 194t332.5 66.5q303 0 453 -163
q74 78 179.5 120.5t233.5 42.5q172 0 293 -69.5t183.5 -200.5t62.5 -313v-92zM1400 819.5q-46 -52.5 -50 -164.5h375q-4 111 -50 164t-137 53q-92 0 -138 -52.5zM888.5 350.5q59.5 63.5 59.5 197.5t-59.5 196.5t-175.5 62.5t-175.5 -62t-59.5 -196q0 -135 59.5 -198.5
t175.5 -63.5t175.5 63.5z" />
    <glyph glyph-name="Racute" unicode="&#x154;" horiz-adv-x="1554" 
d="M1084 0l-381 514q-47 0 -151 6v-520h-410v1435q117 28 267.5 46t277.5 18q355 0 534.5 -119t179.5 -371q0 -154 -75.5 -261.5t-217.5 -166.5l436 -581h-460zM552 816q91 -11 177 -11q146 0 215.5 48t69.5 155q0 106 -70.5 155t-218.5 49q-85 0 -173 -17v-379zM590 1590
l207 310h431l-267 -310h-371z" />
    <glyph glyph-name="racute" unicode="&#x155;" horiz-adv-x="933" 
d="M127 1097h332l31 -127h19q49 71 129 107.5t180 36.5q52 0 102 -9v-358q-49 10 -126 10q-74 0 -146 -22.5t-113 -63.5v-671h-408v1097zM331 1226l259 390h448l-319 -390h-388z" />
    <glyph glyph-name="Rcommaaccent" unicode="&#x156;" horiz-adv-x="1554" 
d="M1084 0l-381 514q-47 0 -151 6v-520h-410v1435q117 28 267.5 46t277.5 18q355 0 534.5 -119t179.5 -371q0 -154 -75.5 -261.5t-217.5 -166.5l436 -581h-460zM552 816q91 -11 177 -11q146 0 215.5 48t69.5 155q0 106 -70.5 155t-218.5 49q-85 0 -173 -17v-379zM1027 -280
q0 -58 -24.5 -121.5t-64.5 -108.5h-247q26 46 40 81t20 66q-89 7 -128.5 38t-39.5 84q0 126 221 126q223 0 223 -165z" />
    <glyph glyph-name="rcommaaccent" unicode="&#x157;" horiz-adv-x="933" 
d="M127 1097h332l31 -127h19q49 71 129 107.5t180 36.5q52 0 102 -9v-358q-49 10 -126 10q-74 0 -146 -22.5t-113 -63.5v-671h-408v1097zM553 -280q0 -58 -24.5 -121.5t-64.5 -108.5h-247q26 46 40 81t20 66q-89 7 -128.5 38t-39.5 84q0 126 221 126q223 0 223 -165z" />
    <glyph glyph-name="Rcaron" unicode="&#x158;" horiz-adv-x="1554" 
d="M1084 0l-381 514q-47 0 -151 6v-520h-410v1435q117 28 267.5 46t277.5 18q355 0 534.5 -119t179.5 -371q0 -154 -75.5 -261.5t-217.5 -166.5l436 -581h-460zM552 816q91 -11 177 -11q146 0 215.5 48t69.5 155q0 106 -70.5 155t-218.5 49q-85 0 -173 -17v-379zM949 1900
h325l-325 -310h-340l-325 310h325l170 -165z" />
    <glyph glyph-name="rcaron" unicode="&#x159;" horiz-adv-x="933" 
d="M127 1097h332l31 -127h19q49 71 129 107.5t180 36.5q52 0 102 -9v-358q-49 10 -126 10q-74 0 -146 -22.5t-113 -63.5v-671h-408v1097zM669 1616h298l-284 -390h-316l-284 390h298l144 -204z" />
    <glyph glyph-name="Sacute" unicode="&#x15a;" horiz-adv-x="1346" 
d="M108 49v326q101 -35 241.5 -55t255.5 -20q145 0 203.5 33.5t58.5 100.5q0 36 -17 59.5t-59.5 40.5t-121.5 32l-134 26q-166 32 -268.5 90.5t-150 144.5t-47.5 205q0 226 180 347t535 121q224 0 410 -47v-326q-79 24 -186.5 38.5t-212.5 14.5q-173 0 -244 -35t-71 -99
q0 -34 14.5 -56t50 -37.5t101.5 -29.5l133 -26q181 -34 290.5 -94.5t158.5 -146t49 -202.5q0 -146 -81.5 -253t-234 -164t-360.5 -57q-263 0 -493 69zM498 1590l207 310h431l-267 -310h-371z" />
    <glyph glyph-name="sacute" unicode="&#x15b;" horiz-adv-x="1177" 
d="M304.5 -7.5q-113.5 13.5 -204.5 38.5v272q94 -26 207.5 -40t224.5 -14q110 0 155 19.5t45 58.5q0 28 -17.5 42t-66.5 21l-226 30q-187 25 -268.5 105t-81.5 220q0 175 154.5 272.5t468.5 97.5q95 0 193 -11.5t167 -31.5v-273q-72 21 -169 33.5t-188 12.5
q-140 0 -191 -22.5t-51 -59.5q0 -24 18.5 -38.5t66.5 -21.5l226 -30q117 -15 193.5 -51t116.5 -103t40 -173q0 -115 -67 -197t-196.5 -126t-315.5 -44q-120 0 -233.5 13.5zM407 1226l259 390h448l-319 -390h-388z" />
    <glyph glyph-name="Scircumflex" unicode="&#x15c;" horiz-adv-x="1346" 
d="M108 49v326q101 -35 241.5 -55t255.5 -20q145 0 203.5 33.5t58.5 100.5q0 36 -17 59.5t-59.5 40.5t-121.5 32l-134 26q-166 32 -268.5 90.5t-150 144.5t-47.5 205q0 226 180 347t535 121q224 0 410 -47v-326q-79 24 -186.5 38.5t-212.5 14.5q-173 0 -244 -35t-71 -99
q0 -34 14.5 -56t50 -37.5t101.5 -29.5l133 -26q181 -34 290.5 -94.5t158.5 -146t49 -202.5q0 -146 -81.5 -253t-234 -164t-360.5 -57q-263 0 -493 69zM1182 1590h-325l-170 166l-170 -166h-325l325 310h340z" />
    <glyph glyph-name="scircumflex" unicode="&#x15d;" horiz-adv-x="1177" 
d="M304.5 -7.5q-113.5 13.5 -204.5 38.5v272q94 -26 207.5 -40t224.5 -14q110 0 155 19.5t45 58.5q0 28 -17.5 42t-66.5 21l-226 30q-187 25 -268.5 105t-81.5 220q0 175 154.5 272.5t468.5 97.5q95 0 193 -11.5t167 -31.5v-273q-72 21 -169 33.5t-188 12.5
q-140 0 -191 -22.5t-51 -59.5q0 -24 18.5 -38.5t66.5 -21.5l226 -30q117 -15 193.5 -51t116.5 -103t40 -173q0 -115 -67 -197t-196.5 -126t-315.5 -44q-120 0 -233.5 13.5zM1042 1226h-298l-143 203l-143 -203h-298l283 390h316z" />
    <glyph glyph-name="Scedilla" unicode="&#x15e;" horiz-adv-x="1346" 
d="M1215 229q-62 -98 -180 -159.5t-281 -80.5v-67q100 -13 148.5 -59.5t48.5 -121.5q0 -91 -77 -142t-225 -51q-117 0 -224 34v140q96 -32 205 -32q61 0 91 14.5t30 48.5q0 35 -29.5 50.5t-89.5 15.5h-59v161q-250 4 -465 69v326q101 -35 241.5 -55t255.5 -20
q145 0 203.5 33.5t58.5 100.5q0 36 -17 59.5t-59.5 40.5t-121.5 32l-134 26q-166 32 -268.5 90.5t-150 144.5t-47.5 205q0 226 180 347t535 121q224 0 410 -47v-326q-79 24 -186.5 38.5t-212.5 14.5q-173 0 -244 -35t-71 -99q0 -34 14.5 -56t50 -37.5t101.5 -29.5l133 -26
q181 -34 290.5 -94.5t158.5 -146t49 -202.5q0 -127 -62 -225z" />
    <glyph glyph-name="scedilla" unicode="&#x15f;" horiz-adv-x="1177" 
d="M1010.5 108.5q-106.5 -92.5 -307.5 -119.5v-68q89 -15 133 -63t44 -123q0 -88 -72.5 -137.5t-209.5 -49.5q-113 0 -204 34v140q37 -15 89 -23.5t96 -8.5q51 0 76 15t25 49t-25 49.5t-75 15.5h-58v160q-116 1 -225 14t-197 38v272q94 -26 207.5 -40t224.5 -14
q110 0 155 19.5t45 58.5q0 28 -17.5 42t-66.5 21l-226 30q-187 25 -268.5 105t-81.5 220q0 175 154.5 272.5t468.5 97.5q95 0 193 -11.5t167 -31.5v-273q-72 21 -169 33.5t-188 12.5q-140 0 -191 -22.5t-51 -59.5q0 -24 18.5 -38.5t66.5 -21.5l226 -30q117 -15 193.5 -51
t116.5 -103t40 -173q0 -145 -106.5 -237.5z" />
    <glyph glyph-name="Scaron" unicode="&#x160;" horiz-adv-x="1346" 
d="M108 49v326q101 -35 241.5 -55t255.5 -20q145 0 203.5 33.5t58.5 100.5q0 36 -17 59.5t-59.5 40.5t-121.5 32l-134 26q-166 32 -268.5 90.5t-150 144.5t-47.5 205q0 226 180 347t535 121q224 0 410 -47v-326q-79 24 -186.5 38.5t-212.5 14.5q-173 0 -244 -35t-71 -99
q0 -34 14.5 -56t50 -37.5t101.5 -29.5l133 -26q181 -34 290.5 -94.5t158.5 -146t49 -202.5q0 -146 -81.5 -253t-234 -164t-360.5 -57q-263 0 -493 69zM857 1900h325l-325 -310h-340l-325 310h325l170 -165z" />
    <glyph glyph-name="scaron" unicode="&#x161;" horiz-adv-x="1177" 
d="M304.5 -7.5q-113.5 13.5 -204.5 38.5v272q94 -26 207.5 -40t224.5 -14q110 0 155 19.5t45 58.5q0 28 -17.5 42t-66.5 21l-226 30q-187 25 -268.5 105t-81.5 220q0 175 154.5 272.5t468.5 97.5q95 0 193 -11.5t167 -31.5v-273q-72 21 -169 33.5t-188 12.5
q-140 0 -191 -22.5t-51 -59.5q0 -24 18.5 -38.5t66.5 -21.5l226 -30q117 -15 193.5 -51t116.5 -103t40 -173q0 -115 -67 -197t-196.5 -126t-315.5 -44q-120 0 -233.5 13.5zM745 1616h298l-284 -390h-316l-284 390h298l144 -204z" />
    <glyph glyph-name="uni0162" unicode="&#x162;" horiz-adv-x="1491" 
d="M813 0v-78q100 -13 148.5 -59.5t48.5 -121.5q0 -91 -77 -142t-225 -51q-117 0 -224 34v140q96 -32 205 -32q61 0 91 14.5t30 48.5q0 35 -29.5 50.5t-89.5 15.5h-59v181h-96v1155h-514v325h1448v-325h-515v-1155h-142z" />
    <glyph glyph-name="uni0163" unicode="&#x163;" horiz-adv-x="992" 
d="M684 -21v-58q89 -15 133 -63t44 -123q0 -88 -72.5 -137.5t-209.5 -49.5q-113 0 -204 34v140q37 -15 89 -23.5t96 -8.5q51 0 76 15t25 49t-25 49.5t-75 15.5h-58v184q-276 79 -276 409v367h-189v318h189l74 383h334v-383h299v-318h-299v-289q0 -72 18.5 -113.5t57.5 -59
t105 -17.5q45 0 121 14v-309q-53 -11 -118 -18.5t-122 -7.5h-13z" />
    <glyph glyph-name="Tcaron" unicode="&#x164;" horiz-adv-x="1491" 
d="M536 0v1155h-514v325h1448v-325h-515v-1155h-419zM916 1900h325l-325 -310h-340l-325 310h325l170 -165z" />
    <glyph glyph-name="tcaron" unicode="&#x165;" horiz-adv-x="992" 
d="M937 314v-309q-53 -11 -118 -18.5t-122 -7.5q-232 0 -351 108t-119 325v367h-189v318h189l74 383h334v-383h299v-318h-299v-289q0 -72 18.5 -113.5t57.5 -59t105 -17.5q45 0 121 14zM744.5 1394.5q7.5 101.5 7.5 221.5h261q0 -121 -22 -234.5t-60 -201.5h-212
q18 113 25.5 214.5z" />
    <glyph glyph-name="Tbar" unicode="&#x166;" horiz-adv-x="1491" 
d="M1470 1155h-515v-317h334v-248h-334v-590h-419v590h-332v248h332v317h-514v325h1448v-325z" />
    <glyph glyph-name="tbar" unicode="&#x167;" horiz-adv-x="992" 
d="M937 314v-309q-53 -11 -118 -18.5t-122 -7.5q-232 0 -351 108t-119 325v47h-124v214h124v106h-189v318h189l74 383h334v-383h299v-318h-299v-106h235v-214h-234q5 -89 47 -124t133 -35q45 0 121 14z" />
    <glyph glyph-name="Utilde" unicode="&#x168;" horiz-adv-x="1726" 
d="M311.5 157q-175.5 177 -175.5 519v804h418v-838q0 -170 77 -250t236 -80q158 0 235 80t77 250v838h411v-804q0 -342 -174.5 -519t-548.5 -177q-380 0 -555.5 177zM959.5 1611.5q-46.5 9.5 -109.5 28.5q-61 17 -101 25.5t-85 8.5q-67 0 -119 -15.5t-107 -49.5v209
q48 38 103.5 56t132.5 18q53 0 98.5 -9.5t111.5 -29.5q58 -17 99.5 -26t86.5 -9q67 0 119 15.5t107 49.5v-209q-48 -38 -103.5 -55t-132.5 -17q-54 0 -100.5 9.5z" />
    <glyph glyph-name="utilde" unicode="&#x169;" horiz-adv-x="1421" 
d="M242 103q-124 121 -124 372v622h408v-600q0 -96 38.5 -136t115.5 -40q58 0 113 21.5t93 58.5v696h408v-1097h-333l-25 101h-15q-70 -57 -157.5 -88t-181.5 -31q-216 0 -340 121zM790.5 1273q-42.5 13 -101.5 38q-56 24 -92 35.5t-75 11.5q-63 0 -113.5 -20.5
t-104.5 -68.5v235q46 43 101 62.5t127 19.5q47 0 89.5 -13t101.5 -38q56 -24 92 -35.5t75 -11.5q63 0 113.5 20.5t104.5 68.5v-235q-46 -43 -101 -62.5t-127 -19.5q-47 0 -89.5 13z" />
    <glyph glyph-name="Umacron" unicode="&#x16a;" horiz-adv-x="1726" 
d="M311.5 157q-175.5 177 -175.5 519v804h418v-838q0 -170 77 -250t236 -80q158 0 235 80t77 250v838h411v-804q0 -342 -174.5 -519t-548.5 -177q-380 0 -555.5 177zM443 1634v224h848v-224h-848z" />
    <glyph glyph-name="umacron" unicode="&#x16b;" horiz-adv-x="1421" 
d="M242 103q-124 121 -124 372v622h408v-600q0 -96 38.5 -136t115.5 -40q58 0 113 21.5t93 58.5v696h408v-1097h-333l-25 101h-15q-70 -57 -157.5 -88t-181.5 -31q-216 0 -340 121zM304 1308v223h804v-223h-804z" />
    <glyph glyph-name="Ubreve" unicode="&#x16c;" horiz-adv-x="1726" 
d="M311.5 157q-175.5 177 -175.5 519v804h418v-838q0 -170 77 -250t236 -80q158 0 235 80t77 250v838h411v-804q0 -342 -174.5 -519t-548.5 -177q-380 0 -555.5 177zM542.5 1675.5q-113.5 83.5 -136.5 220.5h244q15 -54 68 -85.5t149 -31.5q184 0 217 117h244
q-23 -137 -136.5 -220.5t-324.5 -83.5t-324.5 83.5z" />
    <glyph glyph-name="ubreve" unicode="&#x16d;" horiz-adv-x="1421" 
d="M242 103q-124 121 -124 372v622h408v-600q0 -96 38.5 -136t115.5 -40q58 0 113 21.5t93 58.5v696h408v-1097h-333l-25 101h-15q-70 -57 -157.5 -88t-181.5 -31q-216 0 -340 121zM390.5 1327.5q-112.5 96.5 -122.5 267.5h241q18 -168 197 -168q94 0 141 43t56 125h241
q-10 -171 -122.5 -267.5t-315.5 -96.5t-315.5 96.5z" />
    <glyph glyph-name="Uring" unicode="&#x16e;" horiz-adv-x="1726" 
d="M311.5 157q-175.5 177 -175.5 519v804h418v-838q0 -170 77 -250t236 -80q158 0 235 80t77 250v838h411v-804q0 -342 -174.5 -519t-548.5 -177q-380 0 -555.5 177zM753 1603.5q-51 27.5 -79.5 76.5t-28.5 111t28.5 111t79.5 76.5t114 27.5t114 -27.5t79.5 -76.5t28.5 -111
t-28.5 -111t-79.5 -76.5t-114 -27.5t-114 27.5zM928.5 1726q23.5 24 23.5 65q0 40 -23.5 64.5t-61.5 24.5t-61.5 -24.5t-23.5 -64.5q0 -41 23.5 -65t61.5 -24t61.5 24z" />
    <glyph glyph-name="uring" unicode="&#x16f;" horiz-adv-x="1421" 
d="M242 103q-124 121 -124 372v622h408v-600q0 -96 38.5 -136t115.5 -40q58 0 113 21.5t93 58.5v696h408v-1097h-333l-25 101h-15q-70 -57 -157.5 -88t-181.5 -31q-216 0 -340 121zM592 1248.5q-51 27.5 -79.5 76.5t-28.5 110q0 62 28.5 111t79.5 76.5t114 27.5t114 -27.5
t79.5 -76.5t28.5 -111q0 -61 -28.5 -110t-79.5 -76.5t-114 -27.5t-114 27.5zM767.5 1370.5q23.5 24.5 23.5 64.5q0 41 -23.5 65t-61.5 24t-61.5 -24t-23.5 -65q0 -40 23.5 -64.5t61.5 -24.5t61.5 24.5z" />
    <glyph glyph-name="Uhungarumlaut" unicode="&#x170;" horiz-adv-x="1726" 
d="M311.5 157q-175.5 177 -175.5 519v804h418v-838q0 -170 77 -250t236 -80q158 0 235 80t77 250v838h411v-804q0 -342 -174.5 -519t-548.5 -177q-380 0 -555.5 177zM497 1590l163 310h309l-184 -310h-288zM949 1590l164 310h309l-185 -310h-288z" />
    <glyph glyph-name="uhungarumlaut" unicode="&#x171;" horiz-adv-x="1421" 
d="M242 103q-124 121 -124 372v622h408v-600q0 -96 38.5 -136t115.5 -40q58 0 113 21.5t93 58.5v696h408v-1097h-333l-25 101h-15q-70 -57 -157.5 -88t-181.5 -31q-216 0 -340 121zM336 1226l167 390h309l-188 -390h-288zM788 1226l167 390h309l-188 -390h-288z" />
    <glyph glyph-name="Uogonek" unicode="&#x172;" horiz-adv-x="1726" 
d="M1590 1480v-804q0 -262 -101.5 -427t-315.5 -230q-117 -35 -184 -69.5t-94 -70.5t-27 -78q0 -49 37 -75.5t113 -26.5q59 0 140 26v-145q-95 -31 -201 -31q-157 0 -236.5 58t-79.5 161q0 132 132 215q-330 21 -483.5 197t-153.5 496v804h418v-838q0 -170 77 -250t236 -80
q158 0 235 80t77 250v838h411z" />
    <glyph glyph-name="uogonek" unicode="&#x173;" horiz-adv-x="1421" 
d="M1328 -275v-145q-45 -16 -88.5 -24t-98.5 -8q-145 0 -220.5 58.5t-75.5 160.5q0 70 35.5 128.5t116.5 104.5h-36l-25 101h-15q-70 -57 -157.5 -88t-181.5 -31q-216 0 -340 121t-124 372v622h408v-600q0 -96 38.5 -136t115.5 -40q58 0 113 21.5t93 58.5v696h408v-1097
q-122 -45 -172 -93.5t-50 -110.5q0 -45 33.5 -71.5t96.5 -26.5t126 27z" />
    <glyph glyph-name="Wcircumflex" unicode="&#x174;" horiz-adv-x="2680" 
d="M2250 1480h398l-448 -1480h-529l-326 1078l-336 -1078h-528l-449 1480h423l320 -1116l346 1116h459l338 -1135zM1835 1590h-325l-170 166l-170 -166h-325l325 310h340z" />
    <glyph glyph-name="wcircumflex" unicode="&#x175;" horiz-adv-x="2101" 
d="M1663 1097h374l-317 -1097h-454l-211 744l-218 -744h-454l-319 1097h392l179 -691l197 691h455l189 -679zM1493 1226h-298l-143 203l-143 -203h-298l283 390h316z" />
    <glyph glyph-name="Ycircumflex" unicode="&#x176;" horiz-adv-x="1491" 
d="M1527 1480l-569 -864v-616h-418v612l-594 868h444l366 -541l357 541h414zM1239 1590h-325l-170 166l-170 -166h-325l325 310h340z" />
    <glyph glyph-name="ycircumflex" unicode="&#x177;" horiz-adv-x="1383" 
d="M991 1097h398l-635 -1537h-398l184 440h-96l-451 1097h430l283 -749zM1133 1226h-298l-143 203l-143 -203h-298l283 390h316z" />
    <glyph glyph-name="Ydieresis" unicode="&#x178;" horiz-adv-x="1491" 
d="M1527 1480l-569 -864v-616h-418v612l-594 868h444l366 -541l357 541h414zM299 1629.5q-50 42.5 -50 120.5q0 79 50 121.5t154 42.5t154.5 -42.5t50.5 -121.5q0 -78 -50.5 -120.5t-154.5 -42.5t-154 42.5zM880.5 1629.5q-50.5 42.5 -50.5 120.5q0 79 50.5 121.5
t154.5 42.5t154 -42.5t50 -121.5q0 -78 -50 -120.5t-154 -42.5t-154.5 42.5z" />
    <glyph glyph-name="Zacute" unicode="&#x179;" horiz-adv-x="1450" 
d="M623 325h745v-325h-1286v224l735 931h-724v325h1264v-224zM537 1590l207 310h431l-267 -310h-371z" />
    <glyph glyph-name="zacute" unicode="&#x17a;" horiz-adv-x="1234" 
d="M635 318h531v-318h-1077v263l520 516h-510v318h1057v-263zM434 1226l259 390h448l-319 -390h-388z" />
    <glyph glyph-name="Zdotaccent" unicode="&#x17b;" horiz-adv-x="1450" 
d="M623 325h745v-325h-1286v224l735 931h-724v325h1264v-224zM545.5 1630.5q-58.5 43.5 -58.5 119.5q0 77 58.5 120.5t180.5 43.5t180.5 -43.5t58.5 -120.5q0 -76 -58.5 -119.5t-180.5 -43.5t-180.5 43.5z" />
    <glyph glyph-name="zdotaccent" unicode="&#x17c;" horiz-adv-x="1234" 
d="M635 318h531v-318h-1077v263l520 516h-510v318h1057v-263zM384 1419q0 191 244 191t244 -191t-244 -191t-244 191z" />
    <glyph glyph-name="Zcaron" unicode="&#x17d;" horiz-adv-x="1450" 
d="M623 325h745v-325h-1286v224l735 931h-724v325h1264v-224zM896 1900h325l-325 -310h-340l-325 310h325l170 -165z" />
    <glyph glyph-name="zcaron" unicode="&#x17e;" horiz-adv-x="1234" 
d="M635 318h531v-318h-1077v263l520 516h-510v318h1057v-263zM772 1616h298l-284 -390h-316l-284 390h298l144 -204z" />
    <glyph glyph-name="uni018F" unicode="&#x18f;" horiz-adv-x="1818" 
d="M1470 1309q256 -191 256 -586q0 -229 -96 -396.5t-278 -257t-434 -89.5q-258 0 -446.5 90t-289 260.5t-100.5 406.5v122h1220q-44 169 -201.5 243t-433.5 74q-113 0 -238 -12t-232 -34v326q235 44 499 44q518 0 774 -191zM1185 352.5q95 67.5 123 220.5h-792
q28 -151 127.5 -219.5t279.5 -68.5q167 0 262 67.5z" />
    <glyph glyph-name="florin" unicode="&#x192;" horiz-adv-x="951" 
d="M700 1277q-57 -46 -57 -140v-40h299v-318h-299v-727q0 -156 -69 -271.5t-198.5 -178t-308.5 -62.5q-53 0 -93.5 3t-92.5 9v309q72 -8 118 -8q122 0 179 46.5t57 139.5v740h-189v318h189v27q0 156 68.5 271.5t198.5 178t308 62.5q53 0 93.5 -3t92.5 -9v-309q-72 8 -118 8
q-121 0 -178 -46z" />
    <glyph glyph-name="Ohorn" unicode="&#x1a0;" horiz-adv-x="1847" 
d="M1695 1067q60 -144 60 -327q0 -236 -101 -407.5t-288.5 -262t-442.5 -90.5t-442.5 90.5t-288 261.5t-100.5 408t100.5 408t287.5 261.5t443 90.5q52 0 115.5 -5t76.5 -6q124 -10 172 -10q113 0 165.5 35.5t52.5 121.5q0 60 -14 140h259q19 -72 19 -151q0 -133 -65 -213.5
t-183 -103.5q114 -97 174 -241zM1224.5 414.5q104.5 108.5 104.5 318.5q0 219 -105.5 330t-300.5 111q-194 0 -300 -107.5t-106 -319.5q0 -222 104 -331.5t302 -109.5q197 0 301.5 108.5z" />
    <glyph glyph-name="ohorn" unicode="&#x1a1;" horiz-adv-x="1427" 
d="M1360 1049.5q-53 -76.5 -151 -107.5q71 -71 107 -170.5t36 -222.5q0 -178 -79 -306.5t-223 -196t-336 -67.5q-193 0 -337 67.5t-223 196t-79 306.5q0 179 76.5 306t223.5 193.5t356 66.5q57 0 150 -7q52 -5 83 -5q101 0 151 35.5t50 117.5q0 60 -14 140h245
q10 -42 13.5 -76.5t3.5 -74.5q0 -119 -53 -195.5zM889.5 350.5q59.5 63.5 59.5 197.5t-59.5 196.5t-175.5 62.5q-117 0 -176.5 -62t-59.5 -196q0 -135 60 -198.5t176 -63.5t175.5 63.5z" />
    <glyph glyph-name="Uhorn" unicode="&#x1af;" horiz-adv-x="1726" 
d="M311.5 157q-175.5 177 -175.5 519v804h418v-838q0 -170 77 -250t236 -80q158 0 235 80t77 250v838h122q114 0 166 35t52 121q0 60 -14 140h258q12 -42 16 -77t4 -74q0 -115 -50 -190.5t-143 -107.5v-651q0 -342 -174.5 -519t-548.5 -177q-380 0 -555.5 177z" />
    <glyph glyph-name="uhorn" unicode="&#x1b0;" horiz-adv-x="1458" 
d="M1445 1044q-53 -76 -151 -107v-937h-333l-25 101h-15q-70 -57 -157.5 -88t-181.5 -31q-216 0 -340 121t-124 372v622h408v-600q0 -96 38.5 -136t115.5 -40q58 0 113 21.5t93 58.5v696h163q101 0 151 35.5t50 117.5q0 60 -14 140h243q19 -72 19 -151q0 -119 -53 -195z" />
    <glyph glyph-name="uni01C4" unicode="&#x1c4;" horiz-adv-x="3154" 
d="M382.5 -6.5q-129.5 6.5 -240.5 20.5v1421q116 27 275.5 43t304.5 16q472 0 710 -185.5t238 -568.5q0 -267 -114 -432.5t-343.5 -243t-584.5 -77.5q-116 0 -245.5 6.5zM1027 358.5q111 44.5 164 139t53 245.5q0 220 -123 323t-380 103q-83 0 -181 -16v-833q65 -6 180 -6
q176 0 287 44.5zM2327 325h745v-325h-1286v224l735 931h-724v325h1264v-224zM2600 1900h325l-325 -310h-340l-325 310h325l170 -165z" />
    <glyph glyph-name="uni01C5" unicode="&#x1c5;" horiz-adv-x="2996" 
d="M382.5 -6.5q-129.5 6.5 -240.5 20.5v1421q116 27 275.5 43t304.5 16q472 0 710 -185.5t238 -568.5q0 -267 -114 -432.5t-343.5 -243t-584.5 -77.5q-116 0 -245.5 6.5zM1027 358.5q111 44.5 164 139t53 245.5q0 220 -123 323t-380 103q-83 0 -181 -16v-833q65 -6 180 -6
q176 0 287 44.5zM2397 318h531v-318h-1077v263l520 516h-510v318h1057v-263zM2560 1580h325l-325 -310h-340l-325 310h325l170 -165z" />
    <glyph glyph-name="uni01C6" unicode="&#x1c6;" horiz-adv-x="2687" 
d="M333 39.5q-119 57.5 -188.5 179.5t-69.5 306q0 186 79.5 319.5t228 203.5t352.5 70q77 0 183 -10v508h408v-1616h-340l-22 110h-18q-64 -60 -151 -94t-193 -34q-150 0 -269 57.5zM825.5 320q53.5 16 92.5 50v431q-72 14 -154 14q-145 0 -215.5 -65.5t-70.5 -197.5
q0 -248 236 -248q58 0 111.5 16zM2088 318h531v-318h-1077v263l520 516h-510v318h1057v-263zM2225 1616h298l-284 -390h-316l-284 390h298l144 -204z" />
    <glyph glyph-name="uni01C7" unicode="&#x1c7;" horiz-adv-x="2037" 
d="M142 0v1480h418v-1155h761v-325h-1179zM1324 -182q85 103 120.5 213t35.5 269v1180h414v-1172q-2 -193 -73 -350.5t-239 -312.5z" />
    <glyph glyph-name="uni01C8" unicode="&#x1c8;" horiz-adv-x="1997" 
d="M142 0v1480h418v-1155h761v-325h-1179zM1306 -304q85 102 120 212.5t35 269.5v919h408v-905q0 -193 -71 -351t-238 -315zM1413 1421q0 191 244 191t244 -191t-244 -191t-244 191z" />
    <glyph glyph-name="uni01C9" unicode="&#x1c9;" horiz-adv-x="1326" 
d="M127 0v1616h408v-1616h-408zM635 -304q85 102 120 212.5t35 269.5v919h408v-905q0 -193 -71 -351t-238 -315zM742 1421q0 191 244 191t244 -191t-244 -191t-244 191z" />
    <glyph glyph-name="uni01CA" unicode="&#x1ca;" horiz-adv-x="2479" 
d="M1240 1480h394v-1480h-419l-679 912v-912h-394v1480h419l679 -912v912zM1766 -182q85 103 120.5 213t35.5 269v1180h414v-1172q-2 -193 -73 -350.5t-239 -312.5z" />
    <glyph glyph-name="uni01CB" unicode="&#x1cb;" horiz-adv-x="2439" 
d="M1240 1480h394v-1480h-419l-679 912v-912h-394v1480h419l679 -912v912zM1748 -304q85 102 120 212.5t35 269.5v919h408v-905q0 -193 -71 -351t-238 -315zM1855 1421q0 191 244 191t244 -191t-244 -191t-244 191z" />
    <glyph glyph-name="uni01CC" unicode="&#x1cc;" horiz-adv-x="2094" 
d="M127 1097h333l25 -101h19q67 57 160.5 88t198.5 31q209 0 329.5 -121t120.5 -373v-621h-408v599q0 97 -39.5 137t-120.5 40q-60 0 -116 -21t-94 -59v-696h-408v1097zM1403 -304q85 102 120 212.5t35 269.5v919h408v-905q0 -193 -71 -351t-238 -315zM1510 1421
q0 191 244 191t244 -191t-244 -191t-244 191z" />
    <glyph glyph-name="Gcaron" unicode="&#x1e6;" horiz-adv-x="1652" 
d="M1505 720v-700q-237 -39 -434 -39q-493 0 -736 190t-243 562q-1 241 110.5 413t334 263t548.5 91q88 0 183.5 -9t181.5 -26v-333q-156 32 -334 32q-208 -1 -338.5 -49t-191 -144t-60.5 -244q0 -201 128 -307t393 -106q46 0 69 1v405h389zM1090 1900h325l-325 -310h-340
l-325 310h325l170 -165z" />
    <glyph glyph-name="gcaron" unicode="&#x1e7;" horiz-adv-x="1453" 
d="M155 -409v309q114 -29 225.5 -44t200.5 -15q123 0 197 24.5t107 73.5t33 126v54h-18q-127 -116 -332 -116q-136 0 -248.5 61t-178.5 179t-66 282q0 185 81.5 317t243.5 202.5t398 70.5q134 0 277 -18.5t251 -50.5v-901q0 -210 -76 -343.5t-233.5 -197.5t-404.5 -64
q-248 0 -457 51zM822 338.5q53 14.5 96 42.5v416q-70 17 -155 17q-140 0 -212.5 -65t-72.5 -192q0 -121 62 -177t174 -56q55 0 108 14.5zM903 1616h298l-284 -390h-316l-284 390h298l144 -204z" />
    <glyph glyph-name="uni01EA" unicode="&#x1ea;" horiz-adv-x="1847" 
d="M896 -201q0 -48 37 -74.5t113 -26.5q60 0 140 27v-145q-98 -32 -201 -32q-156 0 -236.5 58.5t-80.5 160.5q0 136 136 218q-221 20 -381 115.5t-245.5 258.5t-85.5 381q0 237 100.5 408t287.5 261.5t443 90.5t443.5 -90.5t288 -262t100.5 -407.5q0 -207 -76 -359
t-204.5 -244t-290.5 -129q-288 -67 -288 -209zM621 415.5q104 -109.5 302 -109.5q197 0 301.5 108.5t104.5 318.5q0 219 -105.5 330t-300.5 111q-194 0 -300 -107.5t-106 -319.5q0 -222 104 -331.5z" />
    <glyph glyph-name="uni01EB" unicode="&#x1eb;" horiz-adv-x="1427" 
d="M1058.5 1048.5q143.5 -66.5 218.5 -193.5t75 -306q0 -201 -100.5 -339t-278.5 -195q-154 -49 -211.5 -100.5t-57.5 -113.5q0 -49 33 -76t97 -27q61 0 123 26l3 -144q-45 -16 -88.5 -24t-98.5 -8q-144 0 -220 58.5t-76 160.5q0 67 31 121t97 97q-163 18 -282 89.5
t-183.5 192.5t-64.5 282q0 179 75.5 306t219 193.5t344.5 66.5t344.5 -66.5zM889.5 350.5q59.5 63.5 59.5 197.5t-59.5 196.5t-175.5 62.5q-117 0 -176.5 -62t-59.5 -196q0 -135 60 -198.5t176 -63.5t175.5 63.5z" />
    <glyph glyph-name="uni01F1" unicode="&#x1f1;" horiz-adv-x="3154" 
d="M382.5 -6.5q-129.5 6.5 -240.5 20.5v1421q116 27 275.5 43t304.5 16q472 0 710 -185.5t238 -568.5q0 -267 -114 -432.5t-343.5 -243t-584.5 -77.5q-116 0 -245.5 6.5zM1027 358.5q111 44.5 164 139t53 245.5q0 220 -123 323t-380 103q-83 0 -181 -16v-833q65 -6 180 -6
q176 0 287 44.5zM2327 325h745v-325h-1286v224l735 931h-724v325h1264v-224z" />
    <glyph glyph-name="uni01F2" unicode="&#x1f2;" horiz-adv-x="2996" 
d="M382.5 -6.5q-129.5 6.5 -240.5 20.5v1421q116 27 275.5 43t304.5 16q472 0 710 -185.5t238 -568.5q0 -267 -114 -432.5t-343.5 -243t-584.5 -77.5q-116 0 -245.5 6.5zM1027 358.5q111 44.5 164 139t53 245.5q0 220 -123 323t-380 103q-83 0 -181 -16v-833q65 -6 180 -6
q176 0 287 44.5zM2397 318h531v-318h-1077v263l520 516h-510v318h1057v-263z" />
    <glyph glyph-name="uni01F3" unicode="&#x1f3;" horiz-adv-x="2687" 
d="M333 39.5q-119 57.5 -188.5 179.5t-69.5 306q0 186 79.5 319.5t228 203.5t352.5 70q77 0 183 -10v508h408v-1616h-340l-22 110h-18q-64 -60 -151 -94t-193 -34q-150 0 -269 57.5zM825.5 320q53.5 16 92.5 50v431q-72 14 -154 14q-145 0 -215.5 -65.5t-70.5 -197.5
q0 -248 236 -248q58 0 111.5 16zM2088 318h531v-318h-1077v263l520 516h-510v318h1057v-263z" />
    <glyph glyph-name="uni01F4" unicode="&#x1f4;" horiz-adv-x="1652" 
d="M1505 720v-700q-237 -39 -434 -39q-493 0 -736 190t-243 562q-1 241 110.5 413t334 263t548.5 91q88 0 183.5 -9t181.5 -26v-333q-156 32 -334 32q-208 -1 -338.5 -49t-191 -144t-60.5 -244q0 -201 128 -307t393 -106q46 0 69 1v405h389zM731 1590l207 310h431l-267 -310
h-371z" />
    <glyph glyph-name="uni01F5" unicode="&#x1f5;" horiz-adv-x="1453" 
d="M155 -409v309q114 -29 225.5 -44t200.5 -15q123 0 197 24.5t107 73.5t33 126v54h-18q-127 -116 -332 -116q-136 0 -248.5 61t-178.5 179t-66 282q0 185 81.5 317t243.5 202.5t398 70.5q134 0 277 -18.5t251 -50.5v-901q0 -210 -76 -343.5t-233.5 -197.5t-404.5 -64
q-248 0 -457 51zM822 338.5q53 14.5 96 42.5v416q-70 17 -155 17q-140 0 -212.5 -65t-72.5 -192q0 -121 62 -177t174 -56q55 0 108 14.5zM565 1226l259 390h448l-319 -390h-388z" />
    <glyph glyph-name="Aringacute" unicode="&#x1fa;" horiz-adv-x="1715" 
d="M1285 0l-124 361h-611l-124 -361h-405l535 1480h603l536 -1480h-410zM657 671h398l-199 580zM1052 1896q26 -46 26 -105q0 -62 -28.5 -111t-79.5 -76.5t-114 -27.5t-114 27.5t-79.5 76.5t-28.5 111t28.5 111t79.5 76.5t114 27.5q12 0 36 -2l100 125h265zM917.5 1726
q23.5 24 23.5 65q0 40 -23.5 64.5t-61.5 24.5t-61.5 -24.5t-23.5 -64.5q0 -41 23.5 -65t61.5 -24t61.5 24z" />
    <glyph glyph-name="aringacute" unicode="&#x1fb;" horiz-adv-x="1310" 
d="M936.5 1066.5q131.5 -48.5 193.5 -161.5t62 -308v-597h-338l-26 96h-19q-57 -59 -140 -88t-182 -29q-136 0 -230 42t-141 116t-47 169q0 159 129 247t402 103l191 12q-6 59 -35 92.5t-87 48.5t-155 15q-74 0 -167 -12.5t-172 -34.5v286q93 26 203 39t208 13
q219 0 350.5 -48.5zM710 252.5q46 11.5 83 35.5v169l-154 -9q-89 -7 -128 -34t-39 -75q0 -46 36.5 -72t108.5 -26q47 0 93 11.5zM847 1541q26 -47 26 -106q0 -61 -28.5 -110t-79.5 -76.5t-114 -27.5t-114 27.5t-79.5 76.5t-28.5 110q0 62 28.5 111t79.5 76.5t114 27.5
q13 0 35 -2l103 132h266zM712.5 1370.5q23.5 24.5 23.5 64.5q0 41 -23.5 65t-61.5 24t-61.5 -24t-23.5 -65q0 -40 23.5 -64.5t61.5 -24.5t61.5 24.5z" />
    <glyph glyph-name="AEacute" unicode="&#x1fc;" horiz-adv-x="2323" 
d="M1494 310h740v-310h-1132l-31 361h-520l-125 -361h-405l536 1480h1667v-310h-813l25 -259h683v-310h-653zM658 671h386l-42 499h-172zM1004 1590l207 310h431l-267 -310h-371z" />
    <glyph glyph-name="aeacute" unicode="&#x1fd;" horiz-adv-x="2007" 
d="M1943 440h-749q7 -65 42 -102t112 -54.5t213 -17.5q69 0 151.5 7.5t158.5 21.5v-283q-174 -33 -374 -33q-191 0 -328 37.5t-223 114.5q-91 -77 -200 -114.5t-225 -37.5q-151 0 -252.5 42t-150.5 116t-49 171q0 165 131 256t404 91h188q-4 63 -32 99.5t-87 53t-159 16.5
q-74 0 -167 -12.5t-172 -34.5v286q94 26 196.5 39t197.5 13q162 0 272.5 -30.5t178.5 -99.5q73 63 171 96.5t214 33.5q172 0 293 -69.5t183 -200.5t62 -313v-92zM1242.5 819q-46.5 -53 -50.5 -164h376q-4 111 -50 164t-137 53q-92 0 -138.5 -53zM508.5 266
q36.5 -25 110.5 -25q59 0 108.5 16t100.5 54q-22 62 -29 132h-158q-169 0 -169 -105q0 -47 36.5 -72zM810 1226l259 390h448l-319 -390h-388z" />
    <glyph glyph-name="Oslashacute" unicode="&#x1fe;" horiz-adv-x="1847" 
d="M1704.5 1042q50.5 -135 50.5 -302q0 -235 -101 -406.5t-288.5 -262.5t-442.5 -91q-271 0 -468 103l-128 -138l-151 137l114 123q-97 98 -147.5 233t-50.5 302q0 237 100.5 408t287.5 261.5t443 90.5q273 0 468 -103l128 138l151 -137l-114 -123q98 -98 148.5 -233z
M564 501l577 625q-90 48 -218 48q-194 0 -300 -107.5t-106 -319.5q0 -147 47 -246zM1224.5 414.5q104.5 108.5 104.5 318.5q0 143 -48 244l-577 -624q88 -47 219 -47q197 0 301.5 108.5zM730 1590l207 310h431l-267 -310h-371z" />
    <glyph glyph-name="oslashacute" unicode="&#x1ff;" horiz-adv-x="1427" 
d="M1306.5 796q45.5 -108 45.5 -247q0 -178 -79 -306.5t-223 -196t-336 -67.5q-163 0 -293 49l-86 -108l-143 118l66 83q-88 74 -135.5 182.5t-47.5 245.5q0 179 75.5 306t219 193.5t344.5 66.5q166 0 296 -46l86 108l142 -118l-65 -82q88 -73 133.5 -181zM535 747.5
q-60 -62.5 -60 -198.5q0 -87 24 -144l311 392q-40 13 -96 13q-119 0 -179 -62.5zM892 347.5q60 64.5 60 200.5q0 84 -23 141l-311 -393q40 -13 96 -13q118 0 178 64.5zM514 1226l259 390h448l-319 -390h-388z" />
    <glyph glyph-name="uni0200" unicode="&#x200;" horiz-adv-x="1715" 
d="M1285 0l-124 361h-611l-124 -361h-405l535 1480h603l536 -1480h-410zM657 671h398l-199 580zM486 1590l-185 310h309l164 -310h-288zM938 1590l-184 310h309l163 -310h-288z" />
    <glyph glyph-name="uni0201" unicode="&#x201;" horiz-adv-x="1310" 
d="M936.5 1066.5q131.5 -48.5 193.5 -161.5t62 -308v-597h-338l-26 96h-19q-57 -59 -140 -88t-182 -29q-136 0 -230 42t-141 116t-47 169q0 159 129 247t402 103l191 12q-6 59 -35 92.5t-87 48.5t-155 15q-74 0 -167 -12.5t-172 -34.5v286q93 26 203 39t208 13
q219 0 350.5 -48.5zM710 252.5q46 11.5 83 35.5v169l-154 -9q-89 -7 -128 -34t-39 -75q0 -46 36.5 -72t108.5 -26q47 0 93 11.5zM281 1226l-188 390h309l167 -390h-288zM733 1226l-188 390h310l166 -390h-288z" />
    <glyph glyph-name="uni0202" unicode="&#x202;" horiz-adv-x="1715" 
d="M1285 0l-124 361h-611l-124 -361h-405l535 1480h603l536 -1480h-410zM657 671h398l-199 580zM531 1814.5q113 83.5 325 83.5q211 0 324.5 -83.5t136.5 -220.5h-244q-15 54 -68 85.5t-149 31.5q-184 0 -217 -117h-244q23 137 136 220.5z" />
    <glyph glyph-name="uni0203" unicode="&#x203;" horiz-adv-x="1310" 
d="M936.5 1066.5q131.5 -48.5 193.5 -161.5t62 -308v-597h-338l-26 96h-19q-57 -59 -140 -88t-182 -29q-136 0 -230 42t-141 116t-47 169q0 159 129 247t402 103l191 12q-6 59 -35 92.5t-87 48.5t-155 15q-74 0 -167 -12.5t-172 -34.5v286q93 26 203 39t208 13
q219 0 350.5 -48.5zM710 252.5q46 11.5 83 35.5v169l-154 -9q-89 -7 -128 -34t-39 -75q0 -46 36.5 -72t108.5 -26q47 0 93 11.5zM335 1521.5q112 96.5 316 96.5q203 0 315.5 -96.5t122.5 -267.5h-241q-18 168 -197 168t-197 -168h-241q10 171 122 267.5z" />
    <glyph glyph-name="uni0204" unicode="&#x204;" horiz-adv-x="1468" 
d="M555 310h824v-310h-1237v1480h1227v-310h-814v-259h708v-310h-708v-291zM407 1590l-185 310h309l164 -310h-288zM859 1590l-184 310h309l163 -310h-288z" />
    <glyph glyph-name="uni0205" unicode="&#x205;" horiz-adv-x="1297" 
d="M1234 440h-757q7 -65 42.5 -102t114 -54.5t217.5 -17.5q69 0 151 7.5t159 21.5v-283q-174 -33 -374 -33q-246 0 -403 60.5t-233 185.5t-76 320q0 176 69.5 304t204 197t325.5 69q182 0 307.5 -69.5t189 -200.5t63.5 -314v-91zM526 819.5q-47 -52.5 -51 -164.5h383
q-4 111 -50.5 164t-140.5 53t-141 -52.5zM298 1226l-188 390h309l167 -390h-288zM750 1226l-188 390h310l166 -390h-288z" />
    <glyph glyph-name="uni0206" unicode="&#x206;" horiz-adv-x="1468" 
d="M555 310h824v-310h-1237v1480h1227v-310h-814v-259h708v-310h-708v-291zM452 1814.5q113 83.5 325 83.5q211 0 324.5 -83.5t136.5 -220.5h-244q-15 54 -68 85.5t-149 31.5q-184 0 -217 -117h-244q23 137 136 220.5z" />
    <glyph glyph-name="uni0207" unicode="&#x207;" horiz-adv-x="1297" 
d="M1234 440h-757q7 -65 42.5 -102t114 -54.5t217.5 -17.5q69 0 151 7.5t159 21.5v-283q-174 -33 -374 -33q-246 0 -403 60.5t-233 185.5t-76 320q0 176 69.5 304t204 197t325.5 69q182 0 307.5 -69.5t189 -200.5t63.5 -314v-91zM526 819.5q-47 -52.5 -51 -164.5h383
q-4 111 -50.5 164t-140.5 53t-141 -52.5zM352 1521.5q112 96.5 316 96.5q203 0 315.5 -96.5t122.5 -267.5h-241q-18 168 -197 168t-197 -168h-241q10 171 122 267.5z" />
    <glyph glyph-name="uni0208" unicode="&#x208;" horiz-adv-x="703" 
d="M142 0v1480h418v-1480h-418zM-19 1590l-185 310h309l164 -310h-288zM433 1590l-184 310h309l163 -310h-288z" />
    <glyph glyph-name="uni0209" unicode="&#x209;" horiz-adv-x="663" 
d="M127 0v1097h408v-1097h-408zM-39 1226l-188 390h309l167 -390h-288zM413 1226l-188 390h310l166 -390h-288z" />
    <glyph glyph-name="uni020A" unicode="&#x20a;" horiz-adv-x="703" 
d="M142 0v1480h418v-1480h-418zM26 1814.5q113 83.5 325 83.5q211 0 324.5 -83.5t136.5 -220.5h-244q-15 54 -68 85.5t-149 31.5q-184 0 -217 -117h-244q23 137 136 220.5z" />
    <glyph glyph-name="uni020B" unicode="&#x20b;" horiz-adv-x="663" 
d="M127 0v1097h408v-1097h-408zM15 1521.5q112 96.5 316 96.5q203 0 315.5 -96.5t122.5 -267.5h-241q-18 168 -197 168t-197 -168h-241q10 171 122 267.5z" />
    <glyph glyph-name="uni020C" unicode="&#x20c;" horiz-adv-x="1847" 
d="M480.5 70.5q-187.5 90.5 -288 261.5t-100.5 408t100.5 408t287.5 261.5t443 90.5t443.5 -91t288 -262t100.5 -407q0 -235 -101 -406.5t-288.5 -262.5t-442.5 -91t-442.5 90.5zM1224.5 414.5q104.5 108.5 104.5 318.5q0 219 -105.5 330t-300.5 111q-194 0 -300 -107.5
t-106 -319.5q0 -222 104 -331.5t302 -109.5q197 0 301.5 108.5zM553 1590l-185 310h309l164 -310h-288zM1005 1590l-184 310h309l163 -310h-288z" />
    <glyph glyph-name="uni020D" unicode="&#x20d;" horiz-adv-x="1427" 
d="M377 46.5q-144 67.5 -223 196t-79 306.5q0 179 75.5 306t219 193.5t344.5 66.5t344.5 -66.5t218.5 -193.5t75 -306q0 -178 -79 -306.5t-223 -196t-336 -67.5q-193 0 -337 67.5zM889.5 350.5q59.5 63.5 59.5 197.5t-59.5 196.5t-175.5 62.5q-117 0 -176.5 -62t-59.5 -196
q0 -135 60 -198.5t176 -63.5t175.5 63.5zM344 1226l-188 390h309l167 -390h-288zM796 1226l-188 390h310l166 -390h-288z" />
    <glyph glyph-name="uni020E" unicode="&#x20e;" horiz-adv-x="1847" 
d="M480.5 70.5q-187.5 90.5 -288 261.5t-100.5 408t100.5 408t287.5 261.5t443 90.5t443.5 -91t288 -262t100.5 -407q0 -235 -101 -406.5t-288.5 -262.5t-442.5 -91t-442.5 90.5zM1224.5 414.5q104.5 108.5 104.5 318.5q0 219 -105.5 330t-300.5 111q-194 0 -300 -107.5
t-106 -319.5q0 -222 104 -331.5t302 -109.5q197 0 301.5 108.5zM598 1814.5q113 83.5 325 83.5q211 0 324.5 -83.5t136.5 -220.5h-244q-15 54 -68 85.5t-149 31.5q-184 0 -217 -117h-244q23 137 136 220.5z" />
    <glyph glyph-name="uni020F" unicode="&#x20f;" horiz-adv-x="1427" 
d="M377 46.5q-144 67.5 -223 196t-79 306.5q0 179 75.5 306t219 193.5t344.5 66.5t344.5 -66.5t218.5 -193.5t75 -306q0 -178 -79 -306.5t-223 -196t-336 -67.5q-193 0 -337 67.5zM889.5 350.5q59.5 63.5 59.5 197.5t-59.5 196.5t-175.5 62.5q-117 0 -176.5 -62t-59.5 -196
q0 -135 60 -198.5t176 -63.5t175.5 63.5zM398 1521.5q112 96.5 316 96.5q203 0 315.5 -96.5t122.5 -267.5h-241q-18 168 -197 168t-197 -168h-241q10 171 122 267.5z" />
    <glyph glyph-name="uni0210" unicode="&#x210;" horiz-adv-x="1554" 
d="M1084 0l-381 514q-47 0 -151 6v-520h-410v1435q117 28 267.5 46t277.5 18q355 0 534.5 -119t179.5 -371q0 -154 -75.5 -261.5t-217.5 -166.5l436 -581h-460zM552 816q91 -11 177 -11q146 0 215.5 48t69.5 155q0 106 -70.5 155t-218.5 49q-85 0 -173 -17v-379zM409 1590
l-185 310h309l164 -310h-288zM861 1590l-184 310h309l163 -310h-288z" />
    <glyph glyph-name="uni0211" unicode="&#x211;" horiz-adv-x="933" 
d="M127 1097h332l31 -127h19q49 71 129 107.5t180 36.5q52 0 102 -9v-358q-49 10 -126 10q-74 0 -146 -22.5t-113 -63.5v-671h-408v1097zM155 1226l-188 390h309l167 -390h-288zM607 1226l-188 390h310l166 -390h-288z" />
    <glyph glyph-name="uni0212" unicode="&#x212;" horiz-adv-x="1554" 
d="M1084 0l-381 514q-47 0 -151 6v-520h-410v1435q117 28 267.5 46t277.5 18q355 0 534.5 -119t179.5 -371q0 -154 -75.5 -261.5t-217.5 -166.5l436 -581h-460zM552 816q91 -11 177 -11q146 0 215.5 48t69.5 155q0 106 -70.5 155t-218.5 49q-85 0 -173 -17v-379zM454 1814.5
q113 83.5 325 83.5q211 0 324.5 -83.5t136.5 -220.5h-244q-15 54 -68 85.5t-149 31.5q-184 0 -217 -117h-244q23 137 136 220.5z" />
    <glyph glyph-name="uni0213" unicode="&#x213;" horiz-adv-x="933" 
d="M127 1097h332l31 -127h19q49 71 129 107.5t180 36.5q52 0 102 -9v-358q-49 10 -126 10q-74 0 -146 -22.5t-113 -63.5v-671h-408v1097zM209 1521.5q112 96.5 316 96.5q203 0 315.5 -96.5t122.5 -267.5h-241q-18 168 -197 168t-197 -168h-241q10 171 122 267.5z" />
    <glyph glyph-name="uni0214" unicode="&#x214;" horiz-adv-x="1726" 
d="M311.5 157q-175.5 177 -175.5 519v804h418v-838q0 -170 77 -250t236 -80q158 0 235 80t77 250v838h411v-804q0 -342 -174.5 -519t-548.5 -177q-380 0 -555.5 177zM497 1590l-185 310h309l164 -310h-288zM949 1590l-184 310h309l163 -310h-288z" />
    <glyph glyph-name="uni0215" unicode="&#x215;" horiz-adv-x="1421" 
d="M242 103q-124 121 -124 372v622h408v-600q0 -96 38.5 -136t115.5 -40q58 0 113 21.5t93 58.5v696h408v-1097h-333l-25 101h-15q-70 -57 -157.5 -88t-181.5 -31q-216 0 -340 121zM336 1226l-188 390h309l167 -390h-288zM788 1226l-188 390h310l166 -390h-288z" />
    <glyph glyph-name="uni0216" unicode="&#x216;" horiz-adv-x="1726" 
d="M311.5 157q-175.5 177 -175.5 519v804h418v-838q0 -170 77 -250t236 -80q158 0 235 80t77 250v838h411v-804q0 -342 -174.5 -519t-548.5 -177q-380 0 -555.5 177zM542 1814.5q113 83.5 325 83.5q211 0 324.5 -83.5t136.5 -220.5h-244q-15 54 -68 85.5t-149 31.5
q-184 0 -217 -117h-244q23 137 136 220.5z" />
    <glyph glyph-name="uni0217" unicode="&#x217;" horiz-adv-x="1421" 
d="M242 103q-124 121 -124 372v622h408v-600q0 -96 38.5 -136t115.5 -40q58 0 113 21.5t93 58.5v696h408v-1097h-333l-25 101h-15q-70 -57 -157.5 -88t-181.5 -31q-216 0 -340 121zM390 1521.5q112 96.5 316 96.5q203 0 315.5 -96.5t122.5 -267.5h-241q-18 168 -197 168
t-197 -168h-241q10 171 122 267.5z" />
    <glyph glyph-name="Scommaaccent" unicode="&#x218;" horiz-adv-x="1346" 
d="M108 49v326q101 -35 241.5 -55t255.5 -20q145 0 203.5 33.5t58.5 100.5q0 36 -17 59.5t-59.5 40.5t-121.5 32l-134 26q-166 32 -268.5 90.5t-150 144.5t-47.5 205q0 226 180 347t535 121q224 0 410 -47v-326q-79 24 -186.5 38.5t-212.5 14.5q-173 0 -244 -35t-71 -99
q0 -34 14.5 -56t50 -37.5t101.5 -29.5l133 -26q181 -34 290.5 -94.5t158.5 -146t49 -202.5q0 -146 -81.5 -253t-234 -164t-360.5 -57q-263 0 -493 69zM909 -280q0 -58 -24.5 -121.5t-64.5 -108.5h-247q26 46 40 81t20 66q-89 7 -128.5 38t-39.5 84q0 126 221 126
q223 0 223 -165z" />
    <glyph glyph-name="scommaaccent" unicode="&#x219;" horiz-adv-x="1177" 
d="M304.5 -7.5q-113.5 13.5 -204.5 38.5v272q94 -26 207.5 -40t224.5 -14q110 0 155 19.5t45 58.5q0 28 -17.5 42t-66.5 21l-226 30q-187 25 -268.5 105t-81.5 220q0 175 154.5 272.5t468.5 97.5q95 0 193 -11.5t167 -31.5v-273q-72 21 -169 33.5t-188 12.5
q-140 0 -191 -22.5t-51 -59.5q0 -24 18.5 -38.5t66.5 -21.5l226 -30q117 -15 193.5 -51t116.5 -103t40 -173q0 -115 -67 -197t-196.5 -126t-315.5 -44q-120 0 -233.5 13.5zM823 -280q0 -58 -24.5 -121.5t-64.5 -108.5h-247q26 46 40 81t20 66q-89 7 -128.5 38t-39.5 84
q0 126 221 126q223 0 223 -165z" />
    <glyph glyph-name="uni021A" unicode="&#x21a;" horiz-adv-x="1491" 
d="M536 0v1155h-514v325h1448v-325h-515v-1155h-419zM968 -280q0 -58 -24.5 -121.5t-64.5 -108.5h-247q26 46 40 81t20 66q-89 7 -128.5 38t-39.5 84q0 126 221 126q223 0 223 -165z" />
    <glyph glyph-name="uni021B" unicode="&#x21b;" horiz-adv-x="992" 
d="M937 314v-309q-53 -11 -118 -18.5t-122 -7.5q-232 0 -351 108t-119 325v367h-189v318h189l74 383h334v-383h299v-318h-299v-289q0 -72 18.5 -113.5t57.5 -59t105 -17.5q45 0 121 14zM804 -280q0 -58 -24.5 -121.5t-64.5 -108.5h-247q26 46 40 81t20 66q-89 7 -128.5 38
t-39.5 84q0 126 221 126q223 0 223 -165z" />
    <glyph glyph-name="uni022A" unicode="&#x22a;" horiz-adv-x="1847" 
d="M480.5 70.5q-187.5 90.5 -288 261.5t-100.5 408t100.5 408t287.5 261.5t443 90.5t443.5 -91t288 -262t100.5 -407q0 -235 -101 -406.5t-288.5 -262.5t-442.5 -91t-442.5 90.5zM1224.5 414.5q104.5 108.5 104.5 318.5q0 219 -105.5 330t-300.5 111q-194 0 -300 -107.5
t-106 -319.5q0 -222 104 -331.5t302 -109.5q197 0 301.5 108.5zM478 1629.5q-50 42.5 -50 120.5q0 79 50 121.5t154 42.5t154.5 -42.5t50.5 -121.5q0 -78 -50.5 -120.5t-154.5 -42.5t-154 42.5zM1059.5 1629.5q-50.5 42.5 -50.5 120.5q0 79 50.5 121.5t154.5 42.5t154 -42.5
t50 -121.5q0 -78 -50 -120.5t-154 -42.5t-154.5 42.5zM499 2015v224h848v-224h-848z" />
    <glyph glyph-name="uni022B" unicode="&#x22b;" horiz-adv-x="1427" 
d="M377 46.5q-144 67.5 -223 196t-79 306.5q0 179 75.5 306t219 193.5t344.5 66.5t344.5 -66.5t218.5 -193.5t75 -306q0 -178 -79 -306.5t-223 -196t-336 -67.5q-193 0 -337 67.5zM889.5 350.5q59.5 63.5 59.5 197.5t-59.5 196.5t-175.5 62.5q-117 0 -176.5 -62t-59.5 -196
q0 -135 60 -198.5t176 -63.5t175.5 63.5zM277 1280q-52 49 -52 139t52 138.5t158 48.5t157.5 -48.5t51.5 -138.5t-52 -139t-157 -49q-106 0 -158 49zM836 1280q-52 49 -52 139t51.5 138.5t157.5 48.5t158 -48.5t52 -138.5t-52 -139t-158 -49q-105 0 -157 49zM312 1716v223
h804v-223h-804z" />
    <glyph glyph-name="uni022C" unicode="&#x22c;" horiz-adv-x="1847" 
d="M480.5 70.5q-187.5 90.5 -288 261.5t-100.5 408t100.5 408t287.5 261.5t443 90.5t443.5 -91t288 -262t100.5 -407q0 -235 -101 -406.5t-288.5 -262.5t-442.5 -91t-442.5 90.5zM1224.5 414.5q104.5 108.5 104.5 318.5q0 219 -105.5 330t-300.5 111q-194 0 -300 -107.5
t-106 -319.5q0 -222 104 -331.5t302 -109.5q197 0 301.5 108.5zM1015.5 1611.5q-46.5 9.5 -109.5 28.5q-61 17 -101 25.5t-85 8.5q-67 0 -119 -15.5t-107 -49.5v209q48 38 103.5 56t132.5 18q53 0 98.5 -9.5t111.5 -29.5q58 -17 99.5 -26t86.5 -9q67 0 119 15.5t107 49.5
v-209q-48 -38 -103.5 -55t-132.5 -17q-54 0 -100.5 9.5zM499 2015v224h848v-224h-848z" />
    <glyph glyph-name="uni022D" unicode="&#x22d;" horiz-adv-x="1427" 
d="M377 46.5q-144 67.5 -223 196t-79 306.5q0 179 75.5 306t219 193.5t344.5 66.5t344.5 -66.5t218.5 -193.5t75 -306q0 -178 -79 -306.5t-223 -196t-336 -67.5q-193 0 -337 67.5zM889.5 350.5q59.5 63.5 59.5 197.5t-59.5 196.5t-175.5 62.5q-117 0 -176.5 -62t-59.5 -196
q0 -135 60 -198.5t176 -63.5t175.5 63.5zM798.5 1273q-42.5 13 -101.5 38q-56 24 -92 35.5t-75 11.5q-63 0 -113.5 -20.5t-104.5 -68.5v235q46 43 101 62.5t127 19.5q47 0 89.5 -13t101.5 -38q56 -24 92 -35.5t75 -11.5q63 0 113.5 20.5t104.5 68.5v-235q-46 -43 -101 -62.5
t-127 -19.5q-47 0 -89.5 13zM312 1716v223h804v-223h-804z" />
    <glyph glyph-name="uni0230" unicode="&#x230;" horiz-adv-x="1847" 
d="M480.5 70.5q-187.5 90.5 -288 261.5t-100.5 408t100.5 408t287.5 261.5t443 90.5t443.5 -91t288 -262t100.5 -407q0 -235 -101 -406.5t-288.5 -262.5t-442.5 -91t-442.5 90.5zM1224.5 414.5q104.5 108.5 104.5 318.5q0 219 -105.5 330t-300.5 111q-194 0 -300 -107.5
t-106 -319.5q0 -222 104 -331.5t302 -109.5q197 0 301.5 108.5zM742.5 1630.5q-58.5 43.5 -58.5 119.5q0 77 58.5 120.5t180.5 43.5t180.5 -43.5t58.5 -120.5q0 -76 -58.5 -119.5t-180.5 -43.5t-180.5 43.5zM499 2015v224h848v-224h-848z" />
    <glyph glyph-name="uni0231" unicode="&#x231;" horiz-adv-x="1427" 
d="M377 46.5q-144 67.5 -223 196t-79 306.5q0 179 75.5 306t219 193.5t344.5 66.5t344.5 -66.5t218.5 -193.5t75 -306q0 -178 -79 -306.5t-223 -196t-336 -67.5q-193 0 -337 67.5zM889.5 350.5q59.5 63.5 59.5 197.5t-59.5 196.5t-175.5 62.5q-117 0 -176.5 -62t-59.5 -196
q0 -135 60 -198.5t176 -63.5t175.5 63.5zM470 1419q0 191 244 191t244 -191t-244 -191t-244 191zM312 1706v223h804v-223h-804z" />
    <glyph glyph-name="uni0232" unicode="&#x232;" horiz-adv-x="1491" 
d="M1527 1480l-569 -864v-616h-418v612l-594 868h444l366 -541l357 541h414zM320 1634v224h848v-224h-848z" />
    <glyph glyph-name="uni0233" unicode="&#x233;" horiz-adv-x="1383" 
d="M991 1097h398l-635 -1537h-398l184 440h-96l-451 1097h430l283 -749zM290 1308v223h804v-223h-804z" />
    <glyph glyph-name="uni0237" unicode="&#x237;" horiz-adv-x="663" 
d="M-28 -304q85 102 120 212.5t35 269.5v919h408v-905q0 -193 -71 -351t-238 -315z" />
    <glyph glyph-name="uni0259" unicode="&#x259;" horiz-adv-x="1297" 
d="M913 1057.5q157 -60.5 233 -185.5t76 -320q0 -176 -69.5 -304t-204 -197t-325.5 -69q-182 0 -307.5 69.5t-189 200.5t-63.5 314v91h757q-7 65 -42.5 102t-114 54.5t-217.5 17.5q-69 0 -151 -7.5t-159 -21.5v283q174 33 374 33q246 0 403 -60.5zM771 277.5
q47 52.5 51 164.5h-383q4 -111 50.5 -164t140.5 -53t141 52.5z" />
    <glyph glyph-name="uni02BB" unicode="&#x2bb;" horiz-adv-x="1200" 
d="M782.5 1442.5q39.5 -31.5 39.5 -84.5q0 -125 -221 -125q-223 0 -223 165q0 58 24.5 121t64.5 108h247q-49 -88 -60 -146q89 -7 128.5 -38.5z" />
    <glyph glyph-name="uni02BC" unicode="&#x2bc;" horiz-adv-x="1200" 
d="M989.5 1585q53.5 -42 53.5 -123q0 -58 -24 -121t-64 -108h-247q47 86 60 147q-89 7 -128.5 38t-39.5 84q0 125 221 125q115 0 168.5 -42z" />
    <glyph glyph-name="uni02BE" unicode="&#x2be;" horiz-adv-x="1200" 
d="M600 1346q38 0 61.5 24.5t23.5 64.5q0 41 -23.5 65t-61.5 24v126q63 0 114 -27.5t79.5 -76.5t28.5 -111q0 -61 -28.5 -110t-79.5 -76.5t-114 -27.5v125z" />
    <glyph glyph-name="uni02BF" unicode="&#x2bf;" horiz-adv-x="1200" 
d="M486 1248.5q-51 27.5 -79.5 76.5t-28.5 110q0 62 28.5 111t79.5 76.5t114 27.5v-126q-38 0 -61.5 -24t-23.5 -65q0 -40 23.5 -64.5t61.5 -24.5v-125q-63 0 -114 27.5z" />
    <glyph glyph-name="circumflex" unicode="&#x2c6;" horiz-adv-x="1200" 
d="M1041 1226h-298l-143 203l-143 -203h-298l283 390h316z" />
    <glyph glyph-name="caron" unicode="&#x2c7;" horiz-adv-x="1200" 
d="M744 1616h298l-284 -390h-316l-284 390h298l144 -204z" />
    <glyph glyph-name="uni02C8" unicode="&#x2c8;" horiz-adv-x="1200" 
d="M518 1218v400h164v-400h-164z" />
    <glyph glyph-name="uni02C9" unicode="&#x2c9;" horiz-adv-x="1200" 
d="M198 1308v223h804v-223h-804z" />
    <glyph glyph-name="uni02CA" unicode="&#x2ca;" horiz-adv-x="1200" 
d="M397 1226l260 390h465l-319 -390h-406z" />
    <glyph glyph-name="uni02CB" unicode="&#x2cb;" horiz-adv-x="1200" 
d="M397 1226l-319 390h465l260 -390h-406z" />
    <glyph glyph-name="uni02CC" unicode="&#x2cc;" horiz-adv-x="1200" 
d="M518 -440v400h164v-400h-164z" />
    <glyph glyph-name="breve" unicode="&#x2d8;" horiz-adv-x="1200" 
d="M284.5 1327.5q-112.5 96.5 -122.5 267.5h241q18 -168 197 -168q94 0 141 43t56 125h241q-10 -171 -122.5 -267.5t-315.5 -96.5t-315.5 96.5z" />
    <glyph glyph-name="dotaccent" unicode="&#x2d9;" horiz-adv-x="1200" 
d="M356 1419q0 191 244 191t244 -191t-244 -191t-244 191z" />
    <glyph glyph-name="ring" unicode="&#x2da;" horiz-adv-x="1200" 
d="M486 1248.5q-51 27.5 -79.5 76.5t-28.5 110q0 62 28.5 111t79.5 76.5t114 27.5t114 -27.5t79.5 -76.5t28.5 -111q0 -61 -28.5 -110t-79.5 -76.5t-114 -27.5t-114 27.5zM661.5 1370.5q23.5 24.5 23.5 64.5q0 41 -23.5 65t-61.5 24t-61.5 -24t-23.5 -65q0 -40 23.5 -64.5
t61.5 -24.5t61.5 24.5z" />
    <glyph glyph-name="ogonek" unicode="&#x2db;" horiz-adv-x="1200" 
d="M154.5 -393.5q-75.5 58.5 -75.5 160.5q0 104 80 182t269 125l100 -74q-122 -45 -172 -93.5t-50 -110.5q0 -45 33.5 -71.5t96.5 -26.5t126 27v-145q-45 -16 -88.5 -24t-98.5 -8q-145 0 -220.5 58.5z" />
    <glyph glyph-name="tilde" unicode="&#x2dc;" horiz-adv-x="1200" 
d="M684.5 1273q-42.5 13 -101.5 38q-56 24 -92 35.5t-75 11.5q-63 0 -113.5 -20.5t-104.5 -68.5v235q46 43 101 62.5t127 19.5q47 0 89.5 -13t101.5 -38q56 -24 92 -35.5t75 -11.5q63 0 113.5 20.5t104.5 68.5v-235q-46 -43 -101 -62.5t-127 -19.5q-47 0 -89.5 13z" />
    <glyph glyph-name="hungarumlaut" unicode="&#x2dd;" horiz-adv-x="1200" 
d="M230 1226l167 390h309l-188 -390h-288zM682 1226l167 390h309l-188 -390h-288z" />
    <glyph glyph-name="gravecomb" unicode="&#x300;" horiz-adv-x="0" 
d="M-794 1226l-319 390h448l259 -390h-388z" />
    <glyph glyph-name="acutecomb" unicode="&#x301;" horiz-adv-x="0" 
d="M-794 1226l259 390h448l-319 -390h-388z" />
    <glyph glyph-name="uni0302" unicode="&#x302;" horiz-adv-x="0" 
d="M-159 1226h-298l-143 203l-143 -203h-298l283 390h316z" />
    <glyph glyph-name="tildecomb" unicode="&#x303;" horiz-adv-x="0" 
d="M-515.5 1273q-42.5 13 -101.5 38q-56 24 -92 35.5t-75 11.5q-63 0 -113.5 -20.5t-104.5 -68.5v235q46 43 101 62.5t127 19.5q47 0 89.5 -13t101.5 -38q56 -24 92 -35.5t75 -11.5q63 0 113.5 20.5t104.5 68.5v-235q-46 -43 -101 -62.5t-127 -19.5q-47 0 -89.5 13z" />
    <glyph glyph-name="uni0304" unicode="&#x304;" horiz-adv-x="0" 
d="M-1002 1308v223h804v-223h-804z" />
    <glyph glyph-name="uni0306" unicode="&#x306;" horiz-adv-x="0" 
d="M-915.5 1327.5q-112.5 96.5 -122.5 267.5h241q18 -168 197 -168q94 0 141 43t56 125h241q-10 -171 -122.5 -267.5t-315.5 -96.5t-315.5 96.5z" />
    <glyph glyph-name="uni0307" unicode="&#x307;" horiz-adv-x="0" 
d="M-844 1419q0 191 244 191t244 -191t-244 -191t-244 191z" />
    <glyph glyph-name="uni0308" unicode="&#x308;" horiz-adv-x="0" 
d="M-1037 1280q-52 49 -52 139t52 138.5t158 48.5t157.5 -48.5t51.5 -138.5t-52 -139t-157 -49q-106 0 -158 49zM-478 1280q-52 49 -52 139t51.5 138.5t157.5 48.5t158 -48.5t52 -138.5t-52 -139t-158 -49q-105 0 -157 49z" />
    <glyph glyph-name="hookabovecomb" unicode="&#x309;" horiz-adv-x="0" 
d="M-678.5 1296.5q16.5 29.5 38 48t53.5 39.5q29 19 42.5 32t13.5 30q0 22 -22.5 31t-80.5 9q-90 0 -183 -24v140q40 13 100 19.5t112 6.5q142 0 208.5 -38.5t66.5 -119.5q0 -36 -12.5 -61.5t-31 -42t-48.5 -37.5q-38 -27 -57.5 -48.5t-23.5 -54.5h-194q2 41 18.5 70.5z" />
    <glyph glyph-name="uni030A" unicode="&#x30a;" horiz-adv-x="0" 
d="M-714 1248.5q-51 27.5 -79.5 76.5t-28.5 110q0 62 28.5 111t79.5 76.5t114 27.5t114 -27.5t79.5 -76.5t28.5 -111q0 -61 -28.5 -110t-79.5 -76.5t-114 -27.5t-114 27.5zM-538.5 1370.5q23.5 24.5 23.5 64.5q0 41 -23.5 65t-61.5 24t-61.5 -24t-23.5 -65q0 -40 23.5 -64.5
t61.5 -24.5t61.5 24.5z" />
    <glyph glyph-name="uni030B" unicode="&#x30b;" horiz-adv-x="0" 
d="M-970 1226l167 390h309l-188 -390h-288zM-518 1226l167 390h309l-188 -390h-288z" />
    <glyph glyph-name="uni030C" unicode="&#x30c;" horiz-adv-x="0" 
d="M-456 1616h298l-284 -390h-316l-284 390h298l144 -204z" />
    <glyph glyph-name="uni030F" unicode="&#x30f;" horiz-adv-x="0" 
d="M-970 1226l-188 390h309l167 -390h-288zM-518 1226l-188 390h310l166 -390h-288z" />
    <glyph glyph-name="uni0311" unicode="&#x311;" horiz-adv-x="0" 
d="M-916 1521.5q112 96.5 316 96.5q203 0 315.5 -96.5t122.5 -267.5h-241q-18 168 -197 168t-197 -168h-241q10 171 122 267.5z" />
    <glyph glyph-name="uni0312" unicode="&#x312;" horiz-adv-x="0" 
d="M-417.5 1442.5q39.5 -31.5 39.5 -84.5q0 -125 -221 -125q-223 0 -223 165q0 58 24.5 121t64.5 108h247q-49 -88 -60 -146q89 -7 128.5 -38.5z" />
    <glyph glyph-name="uni031B" unicode="&#x31b;" horiz-adv-x="0" 
d="M-772 1480h154q101 0 151.5 35.5t50.5 117.5q0 52 -14 140h242q12 -42 16 -77t4 -74q0 -157 -91.5 -239.5t-253.5 -82.5h-259v180z" />
    <glyph glyph-name="dotbelowcomb" unicode="&#x323;" horiz-adv-x="0" 
d="M-757.5 -425.5q-52.5 47.5 -52.5 131.5t52.5 131.5t157.5 47.5t157.5 -47.5t52.5 -131.5t-52.5 -131.5t-157.5 -47.5t-157.5 47.5z" />
    <glyph glyph-name="uni0324" unicode="&#x324;" horiz-adv-x="0" 
d="M-1037 -441.5q-52 48.5 -52 138.5t52 139t158 49q105 0 157 -49t52 -139t-51.5 -138.5t-157.5 -48.5t-158 48.5zM-478.5 -441.5q-51.5 48.5 -51.5 138.5t52 139t157 49q106 0 158 -49t52 -139t-52 -138.5t-158 -48.5t-157.5 48.5z" />
    <glyph glyph-name="uni0326" unicode="&#x326;" horiz-adv-x="0" 
d="M-378 -280q0 -58 -24.5 -121.5t-64.5 -108.5h-247q26 46 40 81t20 66q-89 7 -128.5 38t-39.5 84q0 126 221 126q223 0 223 -165z" />
    <glyph glyph-name="uni0327" unicode="&#x327;" horiz-adv-x="0" 
d="M-365 -142q44 -48 44 -123q0 -88 -72.5 -137.5t-209.5 -49.5q-113 0 -204 34v140q37 -15 89 -23.5t96 -8.5q51 0 76 15t25 49t-25 49.5t-75 15.5h-58v201h181v-99q89 -15 133 -63z" />
    <glyph glyph-name="uni0328" unicode="&#x328;" horiz-adv-x="0" 
d="M-1045.5 -393.5q-75.5 58.5 -75.5 160.5q0 104 80 182t269 125l100 -74q-122 -45 -172 -93.5t-50 -110.5q0 -45 33.5 -71.5t96.5 -26.5t126 27v-145q-45 -16 -88.5 -24t-98.5 -8q-145 0 -220.5 58.5z" />
    <glyph glyph-name="uni032E" unicode="&#x32e;" horiz-adv-x="0" 
d="M-833.5 -430.5q-97.5 39.5 -149 113.5t-55.5 176h241q9 -134 197 -134t197 134h241q-4 -102 -55.5 -176t-149 -113.5t-233.5 -39.5t-233.5 39.5z" />
    <glyph glyph-name="uni0331" unicode="&#x331;" horiz-adv-x="0" 
d="M-997 -402v221h794v-221h-794z" />
    <glyph glyph-name="uni0394" unicode="&#x394;" horiz-adv-x="1715" 
d="M1159 1480l536 -1480h-1674l535 1480h603zM856 1251l-324 -941h647z" />
    <glyph glyph-name="uni03A9" unicode="&#x3a9;" horiz-adv-x="1847" 
d="M1533 303h222v-303h-712v236q143 110 214.5 236.5t71.5 282.5q0 202 -104.5 310.5t-301.5 108.5t-301.5 -108.5t-104.5 -310.5q0 -155 72 -282t214 -237v-236h-711v303h222q-222 182 -222 497q0 207 100.5 365.5t288.5 246.5t442 88q255 0 443 -88t288.5 -246.5
t100.5 -365.5q0 -315 -222 -497z" />
    <glyph glyph-name="uni03BC" unicode="&#x3bc;" horiz-adv-x="1421" 
d="M1294 1097v-1097h-333l-25 101h-15q-54 -57 -122.5 -88t-142.5 -31q-73 0 -130 22v-444h-408v1535h408v-598q0 -96 38.5 -136t115.5 -40q58 0 113 21.5t93 58.5v696h408z" />
    <glyph glyph-name="pi" unicode="&#x3c0;" horiz-adv-x="1670" 
d="M1616 313v-308q-49 -11 -113.5 -18.5t-119.5 -7.5q-225 0 -341 105.5t-116 318.5l-1 376h-290v-779h-408v779h-189v318h1484v-318h-188v-298q0 -70 16.5 -109t53 -55.5t98.5 -16.5q41 0 114 13z" />
    <glyph glyph-name="uni1E08" unicode="&#x1e08;" horiz-adv-x="1457" 
d="M1312 1900l-267 -310h-371l207 310h431zM657.5 1058.5q-128.5 -105.5 -128.5 -318.5q0 -214 125.5 -319t387.5 -105q171 0 346 40v-332q-179 -44 -372 -44q-29 0 -83 2v-60q100 -13 148.5 -59.5t48.5 -121.5q0 -91 -77 -142t-225 -51q-117 0 -224 34v140q96 -32 205 -32
q61 0 91 14.5t30 48.5q0 35 -29.5 50.5t-89.5 15.5h-59v180q-326 50 -493 235t-167 502q0 239 106.5 410.5t316 262.5t512.5 91q193 0 361 -35v-333q-154 32 -326 32q-276 0 -404.5 -105.5z" />
    <glyph glyph-name="uni1E09" unicode="&#x1e09;" horiz-adv-x="1159" 
d="M1151 1616l-319 -390h-388l259 390h448zM156.5 854.5q81.5 127.5 241.5 194t391 66.5q174 0 305 -31v-308q-78 12 -138 18t-125 6q-177 0 -259 -63t-82 -191q0 -125 80 -188.5t238 -63.5q66 0 130 8.5t156 28.5v-309q-66 -20 -150.5 -31.5t-177.5 -11.5h-3v-58
q89 -15 133 -63t44 -123q0 -88 -72.5 -137.5t-209.5 -49.5q-113 0 -204 34v140q37 -15 89 -23.5t96 -8.5q51 0 76 15t25 49t-25 49.5t-75 15.5h-58v173q-248 37 -377.5 178.5t-129.5 374.5q0 182 81.5 309.5z" />
    <glyph glyph-name="uni1E0C" unicode="&#x1e0c;" horiz-adv-x="1762" 
d="M382.5 -6.5q-129.5 6.5 -240.5 20.5v1421q116 27 275.5 43t304.5 16q472 0 710 -185.5t238 -568.5q0 -267 -114 -432.5t-343.5 -243t-584.5 -77.5q-116 0 -245.5 6.5zM1027 358.5q111 44.5 164 139t53 245.5q0 220 -123 323t-380 103q-83 0 -181 -16v-833q65 -6 180 -6
q176 0 287 44.5zM601.5 -398.5q-58.5 43.5 -58.5 119.5t58.5 120t180.5 44t180.5 -44t58.5 -120t-58.5 -119.5t-180.5 -43.5t-180.5 43.5z" />
    <glyph glyph-name="uni1E0D" unicode="&#x1e0d;" horiz-adv-x="1453" 
d="M333 39.5q-119 57.5 -188.5 179.5t-69.5 306q0 186 79.5 319.5t228 203.5t352.5 70q77 0 183 -10v508h408v-1616h-340l-22 110h-18q-64 -60 -151 -94t-193 -34q-150 0 -269 57.5zM825.5 320q53.5 16 92.5 50v431q-72 14 -154 14q-145 0 -215.5 -65.5t-70.5 -197.5
q0 -248 236 -248q58 0 111.5 16zM581.5 -425.5q-52.5 47.5 -52.5 131.5t52.5 131.5t157.5 47.5t157.5 -47.5t52.5 -131.5t-52.5 -131.5t-157.5 -47.5t-157.5 47.5z" />
    <glyph glyph-name="uni1E0E" unicode="&#x1e0e;" horiz-adv-x="1762" 
d="M382.5 -6.5q-129.5 6.5 -240.5 20.5v1421q116 27 275.5 43t304.5 16q472 0 710 -185.5t238 -568.5q0 -267 -114 -432.5t-343.5 -243t-584.5 -77.5q-116 0 -245.5 6.5zM1027 358.5q111 44.5 164 139t53 245.5q0 220 -123 323t-380 103q-83 0 -181 -16v-833q65 -6 180 -6
q176 0 287 44.5zM358 -381v223h848v-223h-848z" />
    <glyph glyph-name="uni1E0F" unicode="&#x1e0f;" horiz-adv-x="1453" 
d="M333 39.5q-119 57.5 -188.5 179.5t-69.5 306q0 186 79.5 319.5t228 203.5t352.5 70q77 0 183 -10v508h408v-1616h-340l-22 110h-18q-64 -60 -151 -94t-193 -34q-150 0 -269 57.5zM825.5 320q53.5 16 92.5 50v431q-72 14 -154 14q-145 0 -215.5 -65.5t-70.5 -197.5
q0 -248 236 -248q58 0 111.5 16zM342 -402v221h794v-221h-794z" />
    <glyph glyph-name="uni1E14" unicode="&#x1e14;" horiz-adv-x="1468" 
d="M555 310h824v-310h-1237v1480h1227v-310h-814v-259h708v-310h-708v-291zM566 1972l-267 232h483l206 -232h-422zM353 1634v224h848v-224h-848z" />
    <glyph glyph-name="uni1E15" unicode="&#x1e15;" horiz-adv-x="1297" 
d="M1234 440h-757q7 -65 42.5 -102t114 -54.5t217.5 -17.5q69 0 151 7.5t159 21.5v-283q-174 -33 -374 -33q-246 0 -403 60.5t-233 185.5t-76 320q0 176 69.5 304t204 197t325.5 69q182 0 307.5 -69.5t189 -200.5t63.5 -314v-91zM526 819.5q-47 -52.5 -51 -164.5h383
q-4 111 -50.5 164t-140.5 53t-141 -52.5zM266 1308v223h804v-223h-804zM483 1678l-267 310h431l206 -310h-370z" />
    <glyph glyph-name="uni1E16" unicode="&#x1e16;" horiz-adv-x="1468" 
d="M555 310h824v-310h-1237v1480h1227v-310h-814v-259h708v-310h-708v-291zM566 1972l206 232h483l-267 -232h-422zM353 1634v224h848v-224h-848z" />
    <glyph glyph-name="uni1E17" unicode="&#x1e17;" horiz-adv-x="1297" 
d="M1234 440h-757q7 -65 42.5 -102t114 -54.5t217.5 -17.5q69 0 151 7.5t159 21.5v-283q-174 -33 -374 -33q-246 0 -403 60.5t-233 185.5t-76 320q0 176 69.5 304t204 197t325.5 69q182 0 307.5 -69.5t189 -200.5t63.5 -314v-91zM526 819.5q-47 -52.5 -51 -164.5h383
q-4 111 -50.5 164t-140.5 53t-141 -52.5zM266 1308v223h804v-223h-804zM479 1678l207 310h431l-267 -310h-371z" />
    <glyph glyph-name="uni1E1C" unicode="&#x1e1c;" horiz-adv-x="1468" 
d="M452.5 1675.5q-113.5 83.5 -136.5 220.5h244q15 -54 68 -85.5t149 -31.5q184 0 217 117h244q-23 -137 -136.5 -220.5t-324.5 -83.5t-324.5 83.5zM845 0v-78q100 -13 148.5 -59.5t48.5 -121.5q0 -91 -77 -142t-225 -51q-117 0 -224 34v140q96 -32 205 -32q61 0 91 14.5
t30 48.5q0 35 -29.5 50.5t-89.5 15.5h-59v181h-522v1480h1227v-310h-814v-259h708v-310h-708v-291h824v-310h-534z" />
    <glyph glyph-name="uni1E1D" unicode="&#x1e1d;" horiz-adv-x="1297" 
d="M352.5 1327.5q-112.5 96.5 -122.5 267.5h241q18 -168 197 -168q94 0 141 43t56 125h241q-10 -171 -122.5 -267.5t-315.5 -96.5t-315.5 96.5zM1234 440h-757q7 -65 42.5 -102t114 -54.5t217.5 -17.5q69 0 151 7.5t159 21.5v-283q-174 -33 -374 -33h-17v-58q89 -15 133 -63
t44 -123q0 -88 -72.5 -137.5t-209.5 -49.5q-113 0 -204 34v140q37 -15 89 -23.5t96 -8.5q51 0 76 15t25 49t-25 49.5t-75 15.5h-58v171q-264 34 -389 169.5t-125 385.5q0 176 69.5 304t204 197t325.5 69q182 0 307.5 -69.5t189 -200.5t63.5 -314v-91zM526 819.5
q-47 -52.5 -51 -164.5h383q-4 111 -50.5 164t-140.5 53t-141 -52.5z" />
    <glyph glyph-name="uni1E20" unicode="&#x1e20;" horiz-adv-x="1652" 
d="M1505 720v-700q-237 -39 -434 -39q-493 0 -736 190t-243 562q-1 241 110.5 413t334 263t548.5 91q88 0 183.5 -9t181.5 -26v-333q-156 32 -334 32q-208 -1 -338.5 -49t-191 -144t-60.5 -244q0 -201 128 -307t393 -106q46 0 69 1v405h389zM496 1634v224h848v-224h-848z
" />
    <glyph glyph-name="uni1E21" unicode="&#x1e21;" horiz-adv-x="1453" 
d="M155 -409v309q114 -29 225.5 -44t200.5 -15q123 0 197 24.5t107 73.5t33 126v54h-18q-127 -116 -332 -116q-136 0 -248.5 61t-178.5 179t-66 282q0 185 81.5 317t243.5 202.5t398 70.5q134 0 277 -18.5t251 -50.5v-901q0 -210 -76 -343.5t-233.5 -197.5t-404.5 -64
q-248 0 -457 51zM822 338.5q53 14.5 96 42.5v416q-70 17 -155 17q-140 0 -212.5 -65t-72.5 -192q0 -121 62 -177t174 -56q55 0 108 14.5zM357 1308v223h804v-223h-804z" />
    <glyph glyph-name="uni1E24" unicode="&#x1e24;" horiz-adv-x="1763" 
d="M142 0v1480h418v-547h643v547h418v-1480h-418v579h-643v-579h-418zM701.5 -398.5q-58.5 43.5 -58.5 119.5t58.5 120t180.5 44t180.5 -44t58.5 -120t-58.5 -119.5t-180.5 -43.5t-180.5 43.5z" />
    <glyph glyph-name="uni1E25" unicode="&#x1e25;" horiz-adv-x="1431" 
d="M127 1616h408v-618h18q65 57 150.5 87t179.5 30q126 0 223 -52t152 -162t55 -279v-622h-408v600q0 96 -39.5 136t-120.5 40q-60 0 -116 -21.5t-94 -58.5v-696h-408v1616zM563.5 -425.5q-52.5 47.5 -52.5 131.5t52.5 131.5t157.5 47.5t157.5 -47.5t52.5 -131.5
t-52.5 -131.5t-157.5 -47.5t-157.5 47.5z" />
    <glyph glyph-name="uni1E2A" unicode="&#x1e2a;" horiz-adv-x="1763" 
d="M142 0v1480h418v-547h643v547h418v-1480h-418v579h-643v-579h-418zM556 -360.5q-114 84.5 -135 221.5h244q14 -55 67 -87t150 -32q98 0 150.5 32t66.5 87h244q-21 -138 -134.5 -222t-326.5 -84q-212 0 -326 84.5z" />
    <glyph glyph-name="uni1E2B" unicode="&#x1e2b;" horiz-adv-x="1431" 
d="M127 1616h408v-618h18q65 57 150.5 87t179.5 30q126 0 223 -52t152 -162t55 -279v-622h-408v600q0 96 -39.5 136t-120.5 40q-60 0 -116 -21.5t-94 -58.5v-696h-408v1616zM487.5 -430.5q-97.5 39.5 -149 113.5t-55.5 176h241q9 -134 197 -134t197 134h241
q-4 -102 -55.5 -176t-149 -113.5t-233.5 -39.5t-233.5 39.5z" />
    <glyph glyph-name="uni1E2E" unicode="&#x1e2e;" horiz-adv-x="703" 
d="M142 0v1480h418v-1480h-418zM140 1972l206 232h483l-267 -232h-422zM-94 1629.5q-50 42.5 -50 120.5q0 79 50 121.5t154 42.5t154.5 -42.5t50.5 -121.5q0 -78 -50.5 -120.5t-154.5 -42.5t-154 42.5zM487.5 1629.5q-50.5 42.5 -50.5 120.5q0 79 50.5 121.5t154.5 42.5
t154 -42.5t50 -121.5q0 -78 -50 -120.5t-154 -42.5t-154.5 42.5z" />
    <glyph glyph-name="uni1E2F" unicode="&#x1e2f;" horiz-adv-x="663" 
d="M127 0v1097h408v-1097h-408zM-106 1280q-52 49 -52 139t52 138.5t158 48.5t157.5 -48.5t51.5 -138.5t-52 -139t-157 -49q-106 0 -158 49zM453 1280q-52 49 -52 139t51.5 138.5t157.5 48.5t158 -48.5t52 -138.5t-52 -139t-158 -49q-105 0 -157 49zM142 1678l207 310h431
l-267 -310h-371z" />
    <glyph glyph-name="uni1E36" unicode="&#x1e36;" horiz-adv-x="1334" 
d="M142 0v1480h418v-1155h761v-325h-1179zM551.5 -398.5q-58.5 43.5 -58.5 119.5t58.5 120t180.5 44t180.5 -44t58.5 -120t-58.5 -119.5t-180.5 -43.5t-180.5 43.5z" />
    <glyph glyph-name="uni1E37" unicode="&#x1e37;" horiz-adv-x="663" 
d="M127 0v1616h408v-1616h-408zM172.5 -425.5q-52.5 47.5 -52.5 131.5t52.5 131.5t157.5 47.5t157.5 -47.5t52.5 -131.5t-52.5 -131.5t-157.5 -47.5t-157.5 47.5z" />
    <glyph glyph-name="uni1E3A" unicode="&#x1e3a;" horiz-adv-x="1334" 
d="M142 0v1480h418v-1155h761v-325h-1179zM308 -381v223h848v-223h-848z" />
    <glyph glyph-name="uni1E3B" unicode="&#x1e3b;" horiz-adv-x="663" 
d="M127 0v1616h408v-1616h-408zM-67 -402v221h794v-221h-794z" />
    <glyph glyph-name="uni1E42" unicode="&#x1e42;" horiz-adv-x="2132" 
d="M1480 1480h506v-1480h-390v970l-356 -753h-347l-356 717v-934h-391v1480h507l419 -867zM913.5 -398.5q-58.5 43.5 -58.5 119.5t58.5 120t180.5 44t180.5 -44t58.5 -120t-58.5 -119.5t-180.5 -43.5t-180.5 43.5z" />
    <glyph glyph-name="uni1E43" unicode="&#x1e43;" horiz-adv-x="2082" 
d="M1848 994q116 -121 116 -372v-622h-406v600q0 95 -37 135.5t-107 40.5q-103 0 -165 -60q4 -37 4 -89v-627h-400v600q0 96 -33.5 136t-102.5 40q-56 0 -103 -21t-79 -60v-695h-408v1097h333l25 -101h19q62 57 148.5 88t189.5 31q101 0 181.5 -34.5t134.5 -105.5
q82 73 177 106.5t196 33.5q201 0 317 -121zM896.5 -425.5q-52.5 47.5 -52.5 131.5t52.5 131.5t157.5 47.5t157.5 -47.5t52.5 -131.5t-52.5 -131.5t-157.5 -47.5t-157.5 47.5z" />
    <glyph glyph-name="uni1E44" unicode="&#x1e44;" horiz-adv-x="1776" 
d="M1240 1480h394v-1480h-419l-679 912v-912h-394v1480h419l679 -912v912zM707.5 1630.5q-58.5 43.5 -58.5 119.5q0 77 58.5 120.5t180.5 43.5t180.5 -43.5t58.5 -120.5q0 -76 -58.5 -119.5t-180.5 -43.5t-180.5 43.5z" />
    <glyph glyph-name="uni1E45" unicode="&#x1e45;" horiz-adv-x="1431" 
d="M127 1097h333l25 -101h19q67 57 160.5 88t198.5 31q209 0 329.5 -121t120.5 -373v-621h-408v599q0 97 -39.5 137t-120.5 40q-60 0 -116 -21t-94 -59v-696h-408v1097zM477 1419q0 191 244 191t244 -191t-244 -191t-244 191z" />
    <glyph glyph-name="uni1E46" unicode="&#x1e46;" horiz-adv-x="1776" 
d="M1240 1480h394v-1480h-419l-679 912v-912h-394v1480h419l679 -912v912zM707.5 -398.5q-58.5 43.5 -58.5 119.5t58.5 120t180.5 44t180.5 -44t58.5 -120t-58.5 -119.5t-180.5 -43.5t-180.5 43.5z" />
    <glyph glyph-name="uni1E47" unicode="&#x1e47;" horiz-adv-x="1431" 
d="M127 1097h333l25 -101h19q67 57 160.5 88t198.5 31q209 0 329.5 -121t120.5 -373v-621h-408v599q0 97 -39.5 137t-120.5 40q-60 0 -116 -21t-94 -59v-696h-408v1097zM563.5 -425.5q-52.5 47.5 -52.5 131.5t52.5 131.5t157.5 47.5t157.5 -47.5t52.5 -131.5t-52.5 -131.5
t-157.5 -47.5t-157.5 47.5z" />
    <glyph glyph-name="uni1E48" unicode="&#x1e48;" horiz-adv-x="1776" 
d="M1240 1480h394v-1480h-419l-679 912v-912h-394v1480h419l679 -912v912zM464 -381v223h848v-223h-848z" />
    <glyph glyph-name="uni1E49" unicode="&#x1e49;" horiz-adv-x="1431" 
d="M127 1097h333l25 -101h19q67 57 160.5 88t198.5 31q209 0 329.5 -121t120.5 -373v-621h-408v599q0 97 -39.5 137t-120.5 40q-60 0 -116 -21t-94 -59v-696h-408v1097zM324 -402v221h794v-221h-794z" />
    <glyph glyph-name="uni1E4C" unicode="&#x1e4c;" horiz-adv-x="1847" 
d="M480.5 70.5q-187.5 90.5 -288 261.5t-100.5 408t100.5 408t287.5 261.5t443 90.5t443.5 -91t288 -262t100.5 -407q0 -235 -101 -406.5t-288.5 -262.5t-442.5 -91t-442.5 90.5zM1224.5 414.5q104.5 108.5 104.5 318.5q0 219 -105.5 330t-300.5 111q-194 0 -300 -107.5
t-106 -319.5q0 -222 104 -331.5t302 -109.5q197 0 301.5 108.5zM712 1972l206 232h483l-267 -232h-422zM1015.5 1611.5q-46.5 9.5 -109.5 28.5q-61 17 -101 25.5t-85 8.5q-67 0 -119 -15.5t-107 -49.5v209q48 38 103.5 56t132.5 18q53 0 98.5 -9.5t111.5 -29.5
q58 -17 99.5 -26t86.5 -9q67 0 119 15.5t107 49.5v-209q-48 -38 -103.5 -55t-132.5 -17q-54 0 -100.5 9.5z" />
    <glyph glyph-name="uni1E4D" unicode="&#x1e4d;" horiz-adv-x="1427" 
d="M377 46.5q-144 67.5 -223 196t-79 306.5q0 179 75.5 306t219 193.5t344.5 66.5t344.5 -66.5t218.5 -193.5t75 -306q0 -178 -79 -306.5t-223 -196t-336 -67.5q-193 0 -337 67.5zM889.5 350.5q59.5 63.5 59.5 197.5t-59.5 196.5t-175.5 62.5q-117 0 -176.5 -62t-59.5 -196
q0 -135 60 -198.5t176 -63.5t175.5 63.5zM798.5 1273q-42.5 13 -101.5 38q-56 24 -92 35.5t-75 11.5q-63 0 -113.5 -20.5t-104.5 -68.5v235q46 43 101 62.5t127 19.5q47 0 89.5 -13t101.5 -38q56 -24 92 -35.5t75 -11.5q63 0 113.5 20.5t104.5 68.5v-235q-46 -43 -101 -62.5
t-127 -19.5q-47 0 -89.5 13zM525 1678l207 310h431l-267 -310h-371z" />
    <glyph glyph-name="uni1E4E" unicode="&#x1e4e;" horiz-adv-x="1847" 
d="M480.5 70.5q-187.5 90.5 -288 261.5t-100.5 408t100.5 408t287.5 261.5t443 90.5t443.5 -91t288 -262t100.5 -407q0 -235 -101 -406.5t-288.5 -262.5t-442.5 -91t-442.5 90.5zM1224.5 414.5q104.5 108.5 104.5 318.5q0 219 -105.5 330t-300.5 111q-194 0 -300 -107.5
t-106 -319.5q0 -222 104 -331.5t302 -109.5q197 0 301.5 108.5zM1015.5 1611.5q-46.5 9.5 -109.5 28.5q-61 17 -101 25.5t-85 8.5q-67 0 -119 -15.5t-107 -49.5v209q48 38 103.5 56t132.5 18q53 0 98.5 -9.5t111.5 -29.5q58 -17 99.5 -26t86.5 -9q67 0 119 15.5t107 49.5
v-209q-48 -38 -103.5 -55t-132.5 -17q-54 0 -100.5 9.5zM478 2010.5q-50 42.5 -50 120.5q0 79 50 121.5t154 42.5t154.5 -42.5t50.5 -121.5q0 -78 -50.5 -120.5t-154.5 -42.5t-154 42.5zM1059.5 2010.5q-50.5 42.5 -50.5 120.5q0 79 50.5 121.5t154.5 42.5t154 -42.5
t50 -121.5q0 -78 -50 -120.5t-154 -42.5t-154.5 42.5z" />
    <glyph glyph-name="uni1E4F" unicode="&#x1e4f;" horiz-adv-x="1427" 
d="M377 46.5q-144 67.5 -223 196t-79 306.5q0 179 75.5 306t219 193.5t344.5 66.5t344.5 -66.5t218.5 -193.5t75 -306q0 -178 -79 -306.5t-223 -196t-336 -67.5q-193 0 -337 67.5zM889.5 350.5q59.5 63.5 59.5 197.5t-59.5 196.5t-175.5 62.5q-117 0 -176.5 -62t-59.5 -196
q0 -135 60 -198.5t176 -63.5t175.5 63.5zM798.5 1273q-42.5 13 -101.5 38q-56 24 -92 35.5t-75 11.5q-63 0 -113.5 -20.5t-104.5 -68.5v235q46 43 101 62.5t127 19.5q47 0 89.5 -13t101.5 -38q56 -24 92 -35.5t75 -11.5q63 0 113.5 20.5t104.5 68.5v-235q-46 -43 -101 -62.5
t-127 -19.5q-47 0 -89.5 13zM277 1688q-52 49 -52 139t52 138.5t158 48.5t157.5 -48.5t51.5 -138.5t-52 -139t-157 -49q-106 0 -158 49zM836 1688q-52 49 -52 139t51.5 138.5t157.5 48.5t158 -48.5t52 -138.5t-52 -139t-158 -49q-105 0 -157 49z" />
    <glyph glyph-name="uni1E50" unicode="&#x1e50;" horiz-adv-x="1847" 
d="M480.5 70.5q-187.5 90.5 -288 261.5t-100.5 408t100.5 408t287.5 261.5t443 90.5t443.5 -91t288 -262t100.5 -407q0 -235 -101 -406.5t-288.5 -262.5t-442.5 -91t-442.5 90.5zM1224.5 414.5q104.5 108.5 104.5 318.5q0 219 -105.5 330t-300.5 111q-194 0 -300 -107.5
t-106 -319.5q0 -222 104 -331.5t302 -109.5q197 0 301.5 108.5zM712 1972l-267 232h483l206 -232h-422zM499 1634v224h848v-224h-848z" />
    <glyph glyph-name="uni1E51" unicode="&#x1e51;" horiz-adv-x="1427" 
d="M377 46.5q-144 67.5 -223 196t-79 306.5q0 179 75.5 306t219 193.5t344.5 66.5t344.5 -66.5t218.5 -193.5t75 -306q0 -178 -79 -306.5t-223 -196t-336 -67.5q-193 0 -337 67.5zM889.5 350.5q59.5 63.5 59.5 197.5t-59.5 196.5t-175.5 62.5q-117 0 -176.5 -62t-59.5 -196
q0 -135 60 -198.5t176 -63.5t175.5 63.5zM312 1308v223h804v-223h-804zM529 1678l-267 310h431l206 -310h-370z" />
    <glyph glyph-name="uni1E52" unicode="&#x1e52;" horiz-adv-x="1847" 
d="M480.5 70.5q-187.5 90.5 -288 261.5t-100.5 408t100.5 408t287.5 261.5t443 90.5t443.5 -91t288 -262t100.5 -407q0 -235 -101 -406.5t-288.5 -262.5t-442.5 -91t-442.5 90.5zM1224.5 414.5q104.5 108.5 104.5 318.5q0 219 -105.5 330t-300.5 111q-194 0 -300 -107.5
t-106 -319.5q0 -222 104 -331.5t302 -109.5q197 0 301.5 108.5zM712 1972l206 232h483l-267 -232h-422zM499 1634v224h848v-224h-848z" />
    <glyph glyph-name="uni1E53" unicode="&#x1e53;" horiz-adv-x="1427" 
d="M377 46.5q-144 67.5 -223 196t-79 306.5q0 179 75.5 306t219 193.5t344.5 66.5t344.5 -66.5t218.5 -193.5t75 -306q0 -178 -79 -306.5t-223 -196t-336 -67.5q-193 0 -337 67.5zM889.5 350.5q59.5 63.5 59.5 197.5t-59.5 196.5t-175.5 62.5q-117 0 -176.5 -62t-59.5 -196
q0 -135 60 -198.5t176 -63.5t175.5 63.5zM312 1308v223h804v-223h-804zM525 1678l207 310h431l-267 -310h-371z" />
    <glyph glyph-name="uni1E5A" unicode="&#x1e5a;" horiz-adv-x="1554" 
d="M1084 0l-381 514q-47 0 -151 6v-520h-410v1435q117 28 267.5 46t277.5 18q355 0 534.5 -119t179.5 -371q0 -154 -75.5 -261.5t-217.5 -166.5l436 -581h-460zM552 816q91 -11 177 -11q146 0 215.5 48t69.5 155q0 106 -70.5 155t-218.5 49q-85 0 -173 -17v-379z
M624.5 -398.5q-58.5 43.5 -58.5 119.5t58.5 120t180.5 44t180.5 -44t58.5 -120t-58.5 -119.5t-180.5 -43.5t-180.5 43.5z" />
    <glyph glyph-name="uni1E5B" unicode="&#x1e5b;" horiz-adv-x="933" 
d="M127 1097h332l31 -127h19q49 71 129 107.5t180 36.5q52 0 102 -9v-358q-49 10 -126 10q-74 0 -146 -22.5t-113 -63.5v-671h-408v1097zM173.5 -425.5q-52.5 47.5 -52.5 131.5t52.5 131.5t157.5 47.5t157.5 -47.5t52.5 -131.5t-52.5 -131.5t-157.5 -47.5t-157.5 47.5z" />
    <glyph glyph-name="uni1E5E" unicode="&#x1e5e;" horiz-adv-x="1554" 
d="M1084 0l-381 514q-47 0 -151 6v-520h-410v1435q117 28 267.5 46t277.5 18q355 0 534.5 -119t179.5 -371q0 -154 -75.5 -261.5t-217.5 -166.5l436 -581h-460zM552 816q91 -11 177 -11q146 0 215.5 48t69.5 155q0 106 -70.5 155t-218.5 49q-85 0 -173 -17v-379zM381 -381
v223h848v-223h-848z" />
    <glyph glyph-name="uni1E5F" unicode="&#x1e5f;" horiz-adv-x="933" 
d="M127 1097h332l31 -127h19q49 71 129 107.5t180 36.5q52 0 102 -9v-358q-49 10 -126 10q-74 0 -146 -22.5t-113 -63.5v-671h-408v1097zM-66 -402v221h794v-221h-794z" />
    <glyph glyph-name="uni1E60" unicode="&#x1e60;" horiz-adv-x="1346" 
d="M108 49v326q101 -35 241.5 -55t255.5 -20q145 0 203.5 33.5t58.5 100.5q0 36 -17 59.5t-59.5 40.5t-121.5 32l-134 26q-166 32 -268.5 90.5t-150 144.5t-47.5 205q0 226 180 347t535 121q224 0 410 -47v-326q-79 24 -186.5 38.5t-212.5 14.5q-173 0 -244 -35t-71 -99
q0 -34 14.5 -56t50 -37.5t101.5 -29.5l133 -26q181 -34 290.5 -94.5t158.5 -146t49 -202.5q0 -146 -81.5 -253t-234 -164t-360.5 -57q-263 0 -493 69zM506.5 1630.5q-58.5 43.5 -58.5 119.5q0 77 58.5 120.5t180.5 43.5t180.5 -43.5t58.5 -120.5q0 -76 -58.5 -119.5
t-180.5 -43.5t-180.5 43.5z" />
    <glyph glyph-name="uni1E61" unicode="&#x1e61;" horiz-adv-x="1177" 
d="M304.5 -7.5q-113.5 13.5 -204.5 38.5v272q94 -26 207.5 -40t224.5 -14q110 0 155 19.5t45 58.5q0 28 -17.5 42t-66.5 21l-226 30q-187 25 -268.5 105t-81.5 220q0 175 154.5 272.5t468.5 97.5q95 0 193 -11.5t167 -31.5v-273q-72 21 -169 33.5t-188 12.5
q-140 0 -191 -22.5t-51 -59.5q0 -24 18.5 -38.5t66.5 -21.5l226 -30q117 -15 193.5 -51t116.5 -103t40 -173q0 -115 -67 -197t-196.5 -126t-315.5 -44q-120 0 -233.5 13.5zM357 1419q0 191 244 191t244 -191t-244 -191t-244 191z" />
    <glyph glyph-name="uni1E62" unicode="&#x1e62;" horiz-adv-x="1346" 
d="M108 49v326q101 -35 241.5 -55t255.5 -20q145 0 203.5 33.5t58.5 100.5q0 36 -17 59.5t-59.5 40.5t-121.5 32l-134 26q-166 32 -268.5 90.5t-150 144.5t-47.5 205q0 226 180 347t535 121q224 0 410 -47v-326q-79 24 -186.5 38.5t-212.5 14.5q-173 0 -244 -35t-71 -99
q0 -34 14.5 -56t50 -37.5t101.5 -29.5l133 -26q181 -34 290.5 -94.5t158.5 -146t49 -202.5q0 -146 -81.5 -253t-234 -164t-360.5 -57q-263 0 -493 69zM506.5 -398.5q-58.5 43.5 -58.5 119.5t58.5 120t180.5 44t180.5 -44t58.5 -120t-58.5 -119.5t-180.5 -43.5t-180.5 43.5z
" />
    <glyph glyph-name="uni1E63" unicode="&#x1e63;" horiz-adv-x="1177" 
d="M304.5 -7.5q-113.5 13.5 -204.5 38.5v272q94 -26 207.5 -40t224.5 -14q110 0 155 19.5t45 58.5q0 28 -17.5 42t-66.5 21l-226 30q-187 25 -268.5 105t-81.5 220q0 175 154.5 272.5t468.5 97.5q95 0 193 -11.5t167 -31.5v-273q-72 21 -169 33.5t-188 12.5
q-140 0 -191 -22.5t-51 -59.5q0 -24 18.5 -38.5t66.5 -21.5l226 -30q117 -15 193.5 -51t116.5 -103t40 -173q0 -115 -67 -197t-196.5 -126t-315.5 -44q-120 0 -233.5 13.5zM443.5 -425.5q-52.5 47.5 -52.5 131.5t52.5 131.5t157.5 47.5t157.5 -47.5t52.5 -131.5
t-52.5 -131.5t-157.5 -47.5t-157.5 47.5z" />
    <glyph glyph-name="uni1E64" unicode="&#x1e64;" horiz-adv-x="1346" 
d="M108 49v326q101 -35 241.5 -55t255.5 -20q145 0 203.5 33.5t58.5 100.5q0 36 -17 59.5t-59.5 40.5t-121.5 32l-134 26q-166 32 -268.5 90.5t-150 144.5t-47.5 205q0 226 180 347t535 121q224 0 410 -47v-326q-79 24 -186.5 38.5t-212.5 14.5q-173 0 -244 -35t-71 -99
q0 -34 14.5 -56t50 -37.5t101.5 -29.5l133 -26q181 -34 290.5 -94.5t158.5 -146t49 -202.5q0 -146 -81.5 -253t-234 -164t-360.5 -57q-263 0 -493 69zM278 1895.5q-47 35.5 -47 96.5q0 62 47 97.5t146 35.5q98 0 145 -35.5t47 -97.5q0 -61 -47 -96.5t-145 -35.5
q-99 0 -146 35.5zM498 1590l207 310h431l-267 -310h-371z" />
    <glyph glyph-name="uni1E65" unicode="&#x1e65;" horiz-adv-x="1177" 
d="M304.5 -7.5q-113.5 13.5 -204.5 38.5v272q94 -26 207.5 -40t224.5 -14q110 0 155 19.5t45 58.5q0 28 -17.5 42t-66.5 21l-226 30q-187 25 -268.5 105t-81.5 220q0 175 154.5 272.5t468.5 97.5q95 0 193 -11.5t167 -31.5v-273q-72 21 -169 33.5t-188 12.5
q-140 0 -191 -22.5t-51 -59.5q0 -24 18.5 -38.5t66.5 -21.5l226 -30q117 -15 193.5 -51t116.5 -103t40 -173q0 -115 -67 -197t-196.5 -126t-315.5 -44q-120 0 -233.5 13.5zM244 1611.5q-47 35.5 -47 96.5q0 62 47 97.5t145 35.5q99 0 146 -35.5t47 -97.5q0 -61 -47 -96.5
t-146 -35.5q-98 0 -145 35.5zM407 1226l259 390h448l-319 -390h-388z" />
    <glyph glyph-name="uni1E66" unicode="&#x1e66;" horiz-adv-x="1346" 
d="M108 49v326q101 -35 241.5 -55t255.5 -20q145 0 203.5 33.5t58.5 100.5q0 36 -17 59.5t-59.5 40.5t-121.5 32l-134 26q-166 32 -268.5 90.5t-150 144.5t-47.5 205q0 226 180 347t535 121q224 0 410 -47v-326q-79 24 -186.5 38.5t-212.5 14.5q-173 0 -244 -35t-71 -99
q0 -34 14.5 -56t50 -37.5t101.5 -29.5l133 -26q181 -34 290.5 -94.5t158.5 -146t49 -202.5q0 -146 -81.5 -253t-234 -164t-360.5 -57q-263 0 -493 69zM541 1969.5q-47 35.5 -47 97.5q0 61 47.5 96.5t145.5 35.5t145.5 -35.5t47.5 -96.5q0 -62 -47 -97.5t-146 -35.5
t-146 35.5zM857 1900h325l-325 -310h-340l-325 310h325l170 -165z" />
    <glyph glyph-name="uni1E67" unicode="&#x1e67;" horiz-adv-x="1177" 
d="M304.5 -7.5q-113.5 13.5 -204.5 38.5v272q94 -26 207.5 -40t224.5 -14q110 0 155 19.5t45 58.5q0 28 -17.5 42t-66.5 21l-226 30q-187 25 -268.5 105t-81.5 220q0 175 154.5 272.5t468.5 97.5q95 0 193 -11.5t167 -31.5v-273q-72 21 -169 33.5t-188 12.5
q-140 0 -191 -22.5t-51 -59.5q0 -24 18.5 -38.5t66.5 -21.5l226 -30q117 -15 193.5 -51t116.5 -103t40 -173q0 -115 -67 -197t-196.5 -126t-315.5 -44q-120 0 -233.5 13.5zM455.5 1685.5q-47.5 35.5 -47.5 96.5q0 62 47 97.5t146 35.5t146 -35.5t47 -97.5q0 -61 -47.5 -96.5
t-145.5 -35.5t-145.5 35.5zM745 1616h298l-284 -390h-316l-284 390h298l144 -204z" />
    <glyph glyph-name="uni1E68" unicode="&#x1e68;" horiz-adv-x="1346" 
d="M108 49v326q101 -35 241.5 -55t255.5 -20q145 0 203.5 33.5t58.5 100.5q0 36 -17 59.5t-59.5 40.5t-121.5 32l-134 26q-166 32 -268.5 90.5t-150 144.5t-47.5 205q0 226 180 347t535 121q224 0 410 -47v-326q-79 24 -186.5 38.5t-212.5 14.5q-173 0 -244 -35t-71 -99
q0 -34 14.5 -56t50 -37.5t101.5 -29.5l133 -26q181 -34 290.5 -94.5t158.5 -146t49 -202.5q0 -146 -81.5 -253t-234 -164t-360.5 -57q-263 0 -493 69zM506.5 -398.5q-58.5 43.5 -58.5 119.5t58.5 120t180.5 44t180.5 -44t58.5 -120t-58.5 -119.5t-180.5 -43.5t-180.5 43.5z
M506.5 1630.5q-58.5 43.5 -58.5 119.5q0 77 58.5 120.5t180.5 43.5t180.5 -43.5t58.5 -120.5q0 -76 -58.5 -119.5t-180.5 -43.5t-180.5 43.5z" />
    <glyph glyph-name="uni1E69" unicode="&#x1e69;" horiz-adv-x="1177" 
d="M304.5 -7.5q-113.5 13.5 -204.5 38.5v272q94 -26 207.5 -40t224.5 -14q110 0 155 19.5t45 58.5q0 28 -17.5 42t-66.5 21l-226 30q-187 25 -268.5 105t-81.5 220q0 175 154.5 272.5t468.5 97.5q95 0 193 -11.5t167 -31.5v-273q-72 21 -169 33.5t-188 12.5
q-140 0 -191 -22.5t-51 -59.5q0 -24 18.5 -38.5t66.5 -21.5l226 -30q117 -15 193.5 -51t116.5 -103t40 -173q0 -115 -67 -197t-196.5 -126t-315.5 -44q-120 0 -233.5 13.5zM443.5 -425.5q-52.5 47.5 -52.5 131.5t52.5 131.5t157.5 47.5t157.5 -47.5t52.5 -131.5
t-52.5 -131.5t-157.5 -47.5t-157.5 47.5zM357 1419q0 191 244 191t244 -191t-244 -191t-244 191z" />
    <glyph glyph-name="uni1E6C" unicode="&#x1e6c;" horiz-adv-x="1491" 
d="M536 0v1155h-514v325h1448v-325h-515v-1155h-419zM565.5 -398.5q-58.5 43.5 -58.5 119.5t58.5 120t180.5 44t180.5 -44t58.5 -120t-58.5 -119.5t-180.5 -43.5t-180.5 43.5z" />
    <glyph glyph-name="uni1E6D" unicode="&#x1e6d;" horiz-adv-x="992" 
d="M937 314v-309q-53 -11 -118 -18.5t-122 -7.5q-232 0 -351 108t-119 325v367h-189v318h189l74 383h334v-383h299v-318h-299v-289q0 -72 18.5 -113.5t57.5 -59t105 -17.5q45 0 121 14zM424.5 -425.5q-52.5 47.5 -52.5 131.5t52.5 131.5t157.5 47.5t157.5 -47.5t52.5 -131.5
t-52.5 -131.5t-157.5 -47.5t-157.5 47.5z" />
    <glyph glyph-name="uni1E6E" unicode="&#x1e6e;" horiz-adv-x="1491" 
d="M536 0v1155h-514v325h1448v-325h-515v-1155h-419zM322 -381v223h848v-223h-848z" />
    <glyph glyph-name="uni1E6F" unicode="&#x1e6f;" horiz-adv-x="992" 
d="M937 314v-309q-53 -11 -118 -18.5t-122 -7.5q-232 0 -351 108t-119 325v367h-189v318h189l74 383h334v-383h299v-318h-299v-289q0 -72 18.5 -113.5t57.5 -59t105 -17.5q45 0 121 14zM185 -402v221h794v-221h-794z" />
    <glyph glyph-name="uni1E78" unicode="&#x1e78;" horiz-adv-x="1726" 
d="M311.5 157q-175.5 177 -175.5 519v804h418v-838q0 -170 77 -250t236 -80q158 0 235 80t77 250v838h411v-804q0 -342 -174.5 -519t-548.5 -177q-380 0 -555.5 177zM656 1972l206 232h483l-267 -232h-422zM959.5 1611.5q-46.5 9.5 -109.5 28.5q-61 17 -101 25.5t-85 8.5
q-67 0 -119 -15.5t-107 -49.5v209q48 38 103.5 56t132.5 18q53 0 98.5 -9.5t111.5 -29.5q58 -17 99.5 -26t86.5 -9q67 0 119 15.5t107 49.5v-209q-48 -38 -103.5 -55t-132.5 -17q-54 0 -100.5 9.5z" />
    <glyph glyph-name="uni1E79" unicode="&#x1e79;" horiz-adv-x="1421" 
d="M242 103q-124 121 -124 372v622h408v-600q0 -96 38.5 -136t115.5 -40q58 0 113 21.5t93 58.5v696h408v-1097h-333l-25 101h-15q-70 -57 -157.5 -88t-181.5 -31q-216 0 -340 121zM790.5 1273q-42.5 13 -101.5 38q-56 24 -92 35.5t-75 11.5q-63 0 -113.5 -20.5
t-104.5 -68.5v235q46 43 101 62.5t127 19.5q47 0 89.5 -13t101.5 -38q56 -24 92 -35.5t75 -11.5q63 0 113.5 20.5t104.5 68.5v-235q-46 -43 -101 -62.5t-127 -19.5q-47 0 -89.5 13zM517 1678l207 310h431l-267 -310h-371z" />
    <glyph glyph-name="uni1E7A" unicode="&#x1e7a;" horiz-adv-x="1726" 
d="M311.5 157q-175.5 177 -175.5 519v804h418v-838q0 -170 77 -250t236 -80q158 0 235 80t77 250v838h411v-804q0 -342 -174.5 -519t-548.5 -177q-380 0 -555.5 177zM443 1634v224h848v-224h-848zM422 2010.5q-50 42.5 -50 120.5q0 79 50 121.5t154 42.5t154.5 -42.5
t50.5 -121.5q0 -78 -50.5 -120.5t-154.5 -42.5t-154 42.5zM1003.5 2010.5q-50.5 42.5 -50.5 120.5q0 79 50.5 121.5t154.5 42.5t154 -42.5t50 -121.5q0 -78 -50 -120.5t-154 -42.5t-154.5 42.5z" />
    <glyph glyph-name="uni1E7B" unicode="&#x1e7b;" horiz-adv-x="1421" 
d="M242 103q-124 121 -124 372v622h408v-600q0 -96 38.5 -136t115.5 -40q58 0 113 21.5t93 58.5v696h408v-1097h-333l-25 101h-15q-70 -57 -157.5 -88t-181.5 -31q-216 0 -340 121zM304 1308v223h804v-223h-804zM269 1688q-52 49 -52 139t52 138.5t158 48.5t157.5 -48.5
t51.5 -138.5t-52 -139t-157 -49q-106 0 -158 49zM828 1688q-52 49 -52 139t51.5 138.5t157.5 48.5t158 -48.5t52 -138.5t-52 -139t-158 -49q-105 0 -157 49z" />
    <glyph glyph-name="Wgrave" unicode="&#x1e80;" horiz-adv-x="2680" 
d="M2250 1480h398l-448 -1480h-529l-326 1078l-336 -1078h-528l-449 1480h423l320 -1116l346 1116h459l338 -1135zM1155 1590l-267 310h431l206 -310h-370z" />
    <glyph glyph-name="wgrave" unicode="&#x1e81;" horiz-adv-x="2101" 
d="M1663 1097h374l-317 -1097h-454l-211 744l-218 -744h-454l-319 1097h392l179 -691l197 691h455l189 -679zM858 1226l-319 390h448l259 -390h-388z" />
    <glyph glyph-name="Wacute" unicode="&#x1e82;" horiz-adv-x="2680" 
d="M2250 1480h398l-448 -1480h-529l-326 1078l-336 -1078h-528l-449 1480h423l320 -1116l346 1116h459l338 -1135zM1151 1590l207 310h431l-267 -310h-371z" />
    <glyph glyph-name="wacute" unicode="&#x1e83;" horiz-adv-x="2101" 
d="M1663 1097h374l-317 -1097h-454l-211 744l-218 -744h-454l-319 1097h392l179 -691l197 691h455l189 -679zM858 1226l259 390h448l-319 -390h-388z" />
    <glyph glyph-name="Wdieresis" unicode="&#x1e84;" horiz-adv-x="2680" 
d="M2250 1480h398l-448 -1480h-529l-326 1078l-336 -1078h-528l-449 1480h423l320 -1116l346 1116h459l338 -1135zM895 1629.5q-50 42.5 -50 120.5q0 79 50 121.5t154 42.5t154.5 -42.5t50.5 -121.5q0 -78 -50.5 -120.5t-154.5 -42.5t-154 42.5zM1476.5 1629.5
q-50.5 42.5 -50.5 120.5q0 79 50.5 121.5t154.5 42.5t154 -42.5t50 -121.5q0 -78 -50 -120.5t-154 -42.5t-154.5 42.5z" />
    <glyph glyph-name="wdieresis" unicode="&#x1e85;" horiz-adv-x="2101" 
d="M1663 1097h374l-317 -1097h-454l-211 744l-218 -744h-454l-319 1097h392l179 -691l197 691h455l189 -679zM615 1280q-52 49 -52 139t52 138.5t158 48.5t157.5 -48.5t51.5 -138.5t-52 -139t-157 -49q-106 0 -158 49zM1174 1280q-52 49 -52 139t51.5 138.5t157.5 48.5
t158 -48.5t52 -138.5t-52 -139t-158 -49q-105 0 -157 49z" />
    <glyph glyph-name="uni1E8E" unicode="&#x1e8e;" horiz-adv-x="1491" 
d="M1527 1480l-569 -864v-616h-418v612l-594 868h444l366 -541l357 541h414zM563.5 1630.5q-58.5 43.5 -58.5 119.5q0 77 58.5 120.5t180.5 43.5t180.5 -43.5t58.5 -120.5q0 -76 -58.5 -119.5t-180.5 -43.5t-180.5 43.5z" />
    <glyph glyph-name="uni1E8F" unicode="&#x1e8f;" horiz-adv-x="1383" 
d="M991 1097h398l-635 -1537h-398l184 440h-96l-451 1097h430l283 -749zM448 1419q0 191 244 191t244 -191t-244 -191t-244 191z" />
    <glyph glyph-name="uni1E92" unicode="&#x1e92;" horiz-adv-x="1450" 
d="M623 325h745v-325h-1286v224l735 931h-724v325h1264v-224zM545.5 -398.5q-58.5 43.5 -58.5 119.5t58.5 120t180.5 44t180.5 -44t58.5 -120t-58.5 -119.5t-180.5 -43.5t-180.5 43.5z" />
    <glyph glyph-name="uni1E93" unicode="&#x1e93;" horiz-adv-x="1234" 
d="M635 318h531v-318h-1077v263l520 516h-510v318h1057v-263zM470.5 -425.5q-52.5 47.5 -52.5 131.5t52.5 131.5t157.5 47.5t157.5 -47.5t52.5 -131.5t-52.5 -131.5t-157.5 -47.5t-157.5 47.5z" />
    <glyph glyph-name="uni1E97" unicode="&#x1e97;" horiz-adv-x="992" 
d="M937 314v-309q-53 -11 -118 -18.5t-122 -7.5q-232 0 -351 108t-119 325v367h-189v318h189l74 383h334v-383h299v-318h-299v-289q0 -72 18.5 -113.5t57.5 -59t105 -17.5q45 0 121 14zM-6 1594q-52 49 -52 139t52 138.5t158 48.5t157.5 -48.5t51.5 -138.5t-52 -139
t-157 -49q-106 0 -158 49zM553 1594q-52 49 -52 139t51.5 138.5t157.5 48.5t158 -48.5t52 -138.5t-52 -139t-158 -49q-105 0 -157 49z" />
    <glyph glyph-name="uni1E9E" unicode="&#x1e9e;" horiz-adv-x="2104" 
d="M1835 801q105 -60 152 -145t47 -202q0 -146 -78.5 -253t-226.5 -164t-352 -57q-240 0 -462 64v326q96 -32 229 -51t230 -19q143 0 200 33.5t57 100.5q0 36 -16 60t-54.5 41t-108.5 31l-127 26q-159 33 -257.5 91t-144 144t-45.5 205q0 77 19 138q-38 8 -76 8
q-130 0 -195.5 -70t-65.5 -203v-905h-418v856q0 309 168.5 476.5t510.5 167.5q187 0 339 -64q162 64 410 64q106 0 205.5 -12t179.5 -32v-326q-75 23 -175.5 36.5t-191.5 13.5q-169 0 -237.5 -34.5t-68.5 -99.5q0 -50 32 -78t116 -45l127 -26q173 -36 278 -96z" />
    <glyph glyph-name="uni1EA0" unicode="&#x1ea0;" horiz-adv-x="1715" 
d="M1285 0l-124 361h-611l-124 -361h-405l535 1480h603l536 -1480h-410zM657 671h398l-199 580zM677.5 -398.5q-58.5 43.5 -58.5 119.5t58.5 120t180.5 44t180.5 -44t58.5 -120t-58.5 -119.5t-180.5 -43.5t-180.5 43.5z" />
    <glyph glyph-name="uni1EA1" unicode="&#x1ea1;" horiz-adv-x="1310" 
d="M936.5 1066.5q131.5 -48.5 193.5 -161.5t62 -308v-597h-338l-26 96h-19q-57 -59 -140 -88t-182 -29q-136 0 -230 42t-141 116t-47 169q0 159 129 247t402 103l191 12q-6 59 -35 92.5t-87 48.5t-155 15q-74 0 -167 -12.5t-172 -34.5v286q93 26 203 39t208 13
q219 0 350.5 -48.5zM710 252.5q46 11.5 83 35.5v169l-154 -9q-89 -7 -128 -34t-39 -75q0 -46 36.5 -72t108.5 -26q47 0 93 11.5zM497.5 -425.5q-52.5 47.5 -52.5 131.5t52.5 131.5t157.5 47.5t157.5 -47.5t52.5 -131.5t-52.5 -131.5t-157.5 -47.5t-157.5 47.5z" />
    <glyph glyph-name="uni1EA2" unicode="&#x1ea2;" horiz-adv-x="1715" 
d="M1285 0l-124 361h-611l-124 -361h-405l535 1480h603l536 -1480h-410zM657 671h398l-199 580zM790.5 1654q30.5 24 83.5 47q36 16 52 27t16 26q0 16 -29 24t-89 8q-101 0 -207 -22v136q49 11 113.5 17.5t123.5 6.5q147 0 218 -36.5t71 -105.5q0 -48 -32 -77t-89 -58
q-35 -19 -51 -30.5t-18 -26.5h-195q2 40 32.5 64z" />
    <glyph glyph-name="uni1EA3" unicode="&#x1ea3;" horiz-adv-x="1310" 
d="M936.5 1066.5q131.5 -48.5 193.5 -161.5t62 -308v-597h-338l-26 96h-19q-57 -59 -140 -88t-182 -29q-136 0 -230 42t-141 116t-47 169q0 159 129 247t402 103l191 12q-6 59 -35 92.5t-87 48.5t-155 15q-74 0 -167 -12.5t-172 -34.5v286q93 26 203 39t208 13
q219 0 350.5 -48.5zM710 252.5q46 11.5 83 35.5v169l-154 -9q-89 -7 -128 -34t-39 -75q0 -46 36.5 -72t108.5 -26q47 0 93 11.5zM572.5 1296.5q16.5 29.5 38 48t53.5 39.5q29 19 42.5 32t13.5 30q0 22 -22.5 31t-80.5 9q-90 0 -183 -24v140q40 13 100 19.5t112 6.5
q142 0 208.5 -38.5t66.5 -119.5q0 -36 -12.5 -61.5t-31 -42t-48.5 -37.5q-38 -27 -57.5 -48.5t-23.5 -54.5h-194q2 41 18.5 70.5z" />
    <glyph glyph-name="uni1EA4" unicode="&#x1ea4;" horiz-adv-x="1715" 
d="M1285 0l-124 361h-611l-124 -361h-405l535 1480h603l536 -1480h-410zM657 671h398l-199 580zM1261 2064h284l-173 -241h-233zM686 1862h340l325 -272h-325l-170 147l-170 -147h-325z" />
    <glyph glyph-name="uni1EA5" unicode="&#x1ea5;" horiz-adv-x="1310" 
d="M936.5 1066.5q131.5 -48.5 193.5 -161.5t62 -308v-597h-338l-26 96h-19q-57 -59 -140 -88t-182 -29q-136 0 -230 42t-141 116t-47 169q0 159 129 247t402 103l191 12q-6 59 -35 92.5t-87 48.5t-155 15q-74 0 -167 -12.5t-172 -34.5v286q93 26 203 39t208 13
q219 0 350.5 -48.5zM710 252.5q46 11.5 83 35.5v169l-154 -9q-89 -7 -128 -34t-39 -75q0 -46 36.5 -72t108.5 -26q47 0 93 11.5zM1104 1868h345l-267 -270h-285zM493 1616h316l283 -390h-298l-143 203l-143 -203h-298z" />
    <glyph glyph-name="uni1EA6" unicode="&#x1ea6;" horiz-adv-x="1715" 
d="M1285 0l-124 361h-611l-124 -361h-405l535 1480h603l536 -1480h-410zM657 671h398l-199 580zM1409 1823h-233l-173 241h284zM686 1862h340l325 -272h-325l-170 147l-170 -147h-325z" />
    <glyph glyph-name="uni1EA7" unicode="&#x1ea7;" horiz-adv-x="1310" 
d="M936.5 1066.5q131.5 -48.5 193.5 -161.5t62 -308v-597h-338l-26 96h-19q-57 -59 -140 -88t-182 -29q-136 0 -230 42t-141 116t-47 169q0 159 129 247t402 103l191 12q-6 59 -35 92.5t-87 48.5t-155 15q-74 0 -167 -12.5t-172 -34.5v286q93 26 203 39t208 13
q219 0 350.5 -48.5zM710 252.5q46 11.5 83 35.5v169l-154 -9q-89 -7 -128 -34t-39 -75q0 -46 36.5 -72t108.5 -26q47 0 93 11.5zM1220 1598h-285l-267 270h346zM493 1616h316l283 -390h-298l-143 203l-143 -203h-298z" />
    <glyph glyph-name="uni1EA8" unicode="&#x1ea8;" horiz-adv-x="1715" 
d="M1285 0l-124 361h-611l-124 -361h-405l535 1480h603l536 -1480h-410zM657 671h398l-199 580zM1522 1990q0 -42 -31.5 -67t-88.5 -50q-36 -17 -52 -27t-18 -23h-195q2 36 31.5 56.5t83.5 41.5q35 13 52 23.5t17 23.5q0 28 -118 28q-99 0 -207 -20v117q49 10 114 16.5
t122 6.5q290 0 290 -126zM686 1862h340l325 -272h-325l-170 147l-170 -147h-325z" />
    <glyph glyph-name="uni1EA9" unicode="&#x1ea9;" horiz-adv-x="1310" 
d="M936.5 1066.5q131.5 -48.5 193.5 -161.5t62 -308v-597h-338l-26 96h-19q-57 -59 -140 -88t-182 -29q-136 0 -230 42t-141 116t-47 169q0 159 129 247t402 103l191 12q-6 59 -35 92.5t-87 48.5t-155 15q-74 0 -167 -12.5t-172 -34.5v286q93 26 203 39t208 13
q219 0 350.5 -48.5zM710 252.5q46 11.5 83 35.5v169l-154 -9q-89 -7 -128 -34t-39 -75q0 -46 36.5 -72t108.5 -26q47 0 93 11.5zM1176 1860.5q61 -29.5 61 -93.5q0 -33 -21.5 -52t-64.5 -41q-38 -19 -58 -35t-24 -41h-171q3 44 31.5 67.5t76.5 44.5q24 10 35 17t11 16
q0 17 -24 24.5t-76 7.5q-94 0 -181 -19v112q38 10 99 16t112 6q133 0 194 -29.5zM493 1616h316l283 -390h-298l-143 203l-143 -203h-298z" />
    <glyph glyph-name="uni1EAA" unicode="&#x1eaa;" horiz-adv-x="1715" 
d="M1285 0l-124 361h-611l-124 -361h-405l535 1480h603l536 -1480h-410zM657 671h398l-199 580zM1208 2070.5q61 14.5 143 51.5v-155q-70 -37 -132.5 -49.5t-143.5 -12.5q-61 0 -114 7.5t-131 23.5q-65 14 -108.5 20.5t-87.5 6.5q-69 0 -130 -14.5t-143 -51.5v155
q71 37 134 50.5t142 13.5q60 0 111 -7.5t134 -24.5q62 -14 106.5 -21t89.5 -7q69 0 130 14.5zM686 1862h340l325 -272h-325l-170 147l-170 -147h-325z" />
    <glyph glyph-name="uni1EAB" unicode="&#x1eab;" horiz-adv-x="1310" 
d="M936.5 1066.5q131.5 -48.5 193.5 -161.5t62 -308v-597h-338l-26 96h-19q-57 -59 -140 -88t-182 -29q-136 0 -230 42t-141 116t-47 169q0 159 129 247t402 103l191 12q-6 59 -35 92.5t-87 48.5t-155 15q-74 0 -167 -12.5t-172 -34.5v286q93 26 203 39t208 13
q219 0 350.5 -48.5zM710 252.5q46 11.5 83 35.5v169l-154 -9q-89 -7 -128 -34t-39 -75q0 -46 36.5 -72t108.5 -26q47 0 93 11.5zM745.5 1615q-44.5 8 -111.5 25q-58 15 -99 23t-86 8q-66 0 -117 -13.5t-107 -43.5v180q47 34 103 50t132 16q53 0 99 -8.5t109 -25.5
q61 -16 101 -24t84 -8q66 0 117 13.5t107 43.5v-180q-46 -34 -102 -49t-133 -15q-52 0 -96.5 8zM1143 1228h-324l-168 175l-168 -175h-324l322 321h340z" />
    <glyph glyph-name="uni1EAC" unicode="&#x1eac;" horiz-adv-x="1715" 
d="M1285 0l-124 361h-611l-124 -361h-405l535 1480h603l536 -1480h-410zM657 671h398l-199 580zM677.5 -398.5q-58.5 43.5 -58.5 119.5t58.5 120t180.5 44t180.5 -44t58.5 -120t-58.5 -119.5t-180.5 -43.5t-180.5 43.5zM1351 1590h-325l-170 166l-170 -166h-325l325 310h340
z" />
    <glyph glyph-name="uni1EAD" unicode="&#x1ead;" horiz-adv-x="1310" 
d="M936.5 1066.5q131.5 -48.5 193.5 -161.5t62 -308v-597h-338l-26 96h-19q-57 -59 -140 -88t-182 -29q-136 0 -230 42t-141 116t-47 169q0 159 129 247t402 103l191 12q-6 59 -35 92.5t-87 48.5t-155 15q-74 0 -167 -12.5t-172 -34.5v286q93 26 203 39t208 13
q219 0 350.5 -48.5zM710 252.5q46 11.5 83 35.5v169l-154 -9q-89 -7 -128 -34t-39 -75q0 -46 36.5 -72t108.5 -26q47 0 93 11.5zM497.5 -425.5q-52.5 47.5 -52.5 131.5t52.5 131.5t157.5 47.5t157.5 -47.5t52.5 -131.5t-52.5 -131.5t-157.5 -47.5t-157.5 47.5zM1092 1226
h-298l-143 203l-143 -203h-298l283 390h316z" />
    <glyph glyph-name="uni1EAE" unicode="&#x1eae;" horiz-adv-x="1715" 
d="M1285 0l-124 361h-611l-124 -361h-405l535 1480h603l536 -1480h-410zM657 671h398l-199 580zM739 1830l123 239h283l-172 -239h-234zM566.5 1663q-101.5 71 -125.5 195h203q10 -37 31.5 -61t64.5 -37.5t116 -13.5q72 0 116 13.5t66.5 37.5t38.5 61h194
q-24 -124 -125 -195t-290 -71q-188 0 -289.5 71z" />
    <glyph glyph-name="uni1EAF" unicode="&#x1eaf;" horiz-adv-x="1310" 
d="M936.5 1066.5q131.5 -48.5 193.5 -161.5t62 -308v-597h-338l-26 96h-19q-57 -59 -140 -88t-182 -29q-136 0 -230 42t-141 116t-47 169q0 159 129 247t402 103l191 12q-6 59 -35 92.5t-87 48.5t-155 15q-74 0 -167 -12.5t-172 -34.5v286q93 26 203 39t208 13
q219 0 350.5 -48.5zM710 252.5q46 11.5 83 35.5v169l-154 -9q-89 -7 -128 -34t-39 -75q0 -46 36.5 -72t108.5 -26q47 0 93 11.5zM505 1598l207 270h345l-267 -270h-285zM328 1324.5q-113 86.5 -135 229.5h243q15 -60 67.5 -94.5t147.5 -34.5q96 0 148 34.5t67 94.5h243
q-22 -143 -135 -229.5t-323 -86.5t-323 86.5z" />
    <glyph glyph-name="uni1EB0" unicode="&#x1eb0;" horiz-adv-x="1715" 
d="M1285 0l-124 361h-611l-124 -361h-405l535 1480h603l536 -1480h-410zM657 671h398l-199 580zM739 1830l-172 239h283l123 -239h-234zM566 1663q-101 71 -125 195h194q16 -37 38.5 -61t66.5 -37.5t116 -13.5q73 0 116 13.5t64.5 37.5t31.5 61h203q-24 -124 -125.5 -195
t-289.5 -71q-189 0 -290 71z" />
    <glyph glyph-name="uni1EB1" unicode="&#x1eb1;" horiz-adv-x="1310" 
d="M936.5 1066.5q131.5 -48.5 193.5 -161.5t62 -308v-597h-338l-26 96h-19q-57 -59 -140 -88t-182 -29q-136 0 -230 42t-141 116t-47 169q0 159 129 247t402 103l191 12q-6 59 -35 92.5t-87 48.5t-155 15q-74 0 -167 -12.5t-172 -34.5v286q93 26 203 39t208 13
q219 0 350.5 -48.5zM710 252.5q46 11.5 83 35.5v169l-154 -9q-89 -7 -128 -34t-39 -75q0 -46 36.5 -72t108.5 -26q47 0 93 11.5zM512 1598l-267 270h345l207 -270h-285zM328 1324.5q-113 86.5 -135 229.5h243q15 -60 67.5 -94.5t147.5 -34.5q96 0 148 34.5t67 94.5h243
q-22 -143 -135 -229.5t-323 -86.5t-323 86.5z" />
    <glyph glyph-name="uni1EB2" unicode="&#x1eb2;" horiz-adv-x="1715" 
d="M1285 0l-124 361h-611l-124 -361h-405l535 1480h603l536 -1480h-410zM657 671h398l-199 580zM789.5 1886.5q29.5 20.5 83.5 41.5q35 13 52 23.5t17 23.5q0 29 -118 29q-99 0 -207 -21v118q50 10 115 16t122 6q289 0 289 -125q0 -29 -17.5 -50.5t-41 -35.5t-61.5 -32
q-34 -15 -51 -26t-19 -24h-195q2 36 31.5 56.5zM566 1663q-101 71 -125 195h203q10 -37 31.5 -61t64.5 -37.5t116 -13.5q72 0 116 13.5t66.5 37.5t38.5 61h194q-24 -124 -125.5 -195t-289.5 -71q-189 0 -290 71z" />
    <glyph glyph-name="uni1EB3" unicode="&#x1eb3;" horiz-adv-x="1310" 
d="M936.5 1066.5q131.5 -48.5 193.5 -161.5t62 -308v-597h-338l-26 96h-19q-57 -59 -140 -88t-182 -29q-136 0 -230 42t-141 116t-47 169q0 159 129 247t402 103l191 12q-6 59 -35 92.5t-87 48.5t-155 15q-74 0 -167 -12.5t-172 -34.5v286q93 26 203 39t208 13
q219 0 350.5 -48.5zM710 252.5q46 11.5 83 35.5v169l-154 -9q-89 -7 -128 -34t-39 -75q0 -46 36.5 -72t108.5 -26q47 0 93 11.5zM584.5 1654.5q29.5 20.5 83.5 41.5q35 13 52 23.5t17 23.5q0 28 -118 28q-98 0 -207 -20v117q50 10 115 16t122 6q289 0 289 -125
q0 -42 -31.5 -67t-88.5 -50q-36 -17 -52 -27t-18 -23h-195q2 36 31.5 56.5zM328 1324.5q-113 86.5 -135 229.5h243q15 -60 67.5 -94.5t147.5 -34.5q96 0 148 34.5t67 94.5h243q-22 -143 -135 -229.5t-323 -86.5t-323 86.5z" />
    <glyph glyph-name="uni1EB4" unicode="&#x1eb4;" horiz-adv-x="1715" 
d="M1285 0l-124 361h-611l-124 -361h-405l535 1480h603l536 -1480h-410zM657 671h398l-199 580zM935 1913.5q-44 8.5 -101 23.5q-54 13 -86 19.5t-65 6.5q-56 0 -109 -14.5t-133 -51.5v155q69 37 124.5 50.5t121.5 13.5q46 0 88.5 -8.5t102.5 -24.5q50 -13 84 -20t67 -7
q56 0 109 14.5t133 51.5v-155q-68 -37 -123.5 -49.5t-122.5 -12.5q-46 0 -90 8.5zM566 1663q-101 71 -125 195h203q10 -37 31.5 -61t64.5 -37.5t116 -13.5t116 13.5t64.5 37.5t31.5 61h203q-24 -124 -125.5 -195t-289.5 -71q-189 0 -290 71z" />
    <glyph glyph-name="uni1EB5" unicode="&#x1eb5;" horiz-adv-x="1310" 
d="M936.5 1066.5q131.5 -48.5 193.5 -161.5t62 -308v-597h-338l-26 96h-19q-57 -59 -140 -88t-182 -29q-136 0 -230 42t-141 116t-47 169q0 159 129 247t402 103l191 12q-6 59 -35 92.5t-87 48.5t-155 15q-74 0 -167 -12.5t-172 -34.5v286q93 26 203 39t208 13
q219 0 350.5 -48.5zM710 252.5q46 11.5 83 35.5v169l-154 -9q-89 -7 -128 -34t-39 -75q0 -46 36.5 -72t108.5 -26q47 0 93 11.5zM753 1615q-48 8 -120 25q-63 15 -107 23t-92 8q-72 0 -127.5 -14t-115.5 -44v181q50 35 110 50.5t143 15.5q57 0 105 -8.5t120 -26.5
q72 -17 112 -24t87 -7q72 0 127.5 14t115.5 44v-181q-50 -34 -110 -49t-143 -15q-57 0 -105 8zM328 1324.5q-113 86.5 -135 229.5h243q15 -60 67.5 -94.5t147.5 -34.5q96 0 148 34.5t67 94.5h243q-22 -143 -135 -229.5t-323 -86.5t-323 86.5z" />
    <glyph glyph-name="uni1EB6" unicode="&#x1eb6;" horiz-adv-x="1715" 
d="M1285 0l-124 361h-611l-124 -361h-405l535 1480h603l536 -1480h-410zM657 671h398l-199 580zM677.5 -398.5q-58.5 43.5 -58.5 119.5t58.5 120t180.5 44t180.5 -44t58.5 -120t-58.5 -119.5t-180.5 -43.5t-180.5 43.5zM531.5 1675.5q-113.5 83.5 -136.5 220.5h244
q15 -54 68 -85.5t149 -31.5q184 0 217 117h244q-23 -137 -136.5 -220.5t-324.5 -83.5t-324.5 83.5z" />
    <glyph glyph-name="uni1EB7" unicode="&#x1eb7;" horiz-adv-x="1310" 
d="M936.5 1066.5q131.5 -48.5 193.5 -161.5t62 -308v-597h-338l-26 96h-19q-57 -59 -140 -88t-182 -29q-136 0 -230 42t-141 116t-47 169q0 159 129 247t402 103l191 12q-6 59 -35 92.5t-87 48.5t-155 15q-74 0 -167 -12.5t-172 -34.5v286q93 26 203 39t208 13
q219 0 350.5 -48.5zM710 252.5q46 11.5 83 35.5v169l-154 -9q-89 -7 -128 -34t-39 -75q0 -46 36.5 -72t108.5 -26q47 0 93 11.5zM497.5 -425.5q-52.5 47.5 -52.5 131.5t52.5 131.5t157.5 47.5t157.5 -47.5t52.5 -131.5t-52.5 -131.5t-157.5 -47.5t-157.5 47.5zM335.5 1327.5
q-112.5 96.5 -122.5 267.5h241q18 -168 197 -168q94 0 141 43t56 125h241q-10 -171 -122.5 -267.5t-315.5 -96.5t-315.5 96.5z" />
    <glyph glyph-name="uni1EB8" unicode="&#x1eb8;" horiz-adv-x="1468" 
d="M555 310h824v-310h-1237v1480h1227v-310h-814v-259h708v-310h-708v-291zM597.5 -398.5q-58.5 43.5 -58.5 119.5t58.5 120t180.5 44t180.5 -44t58.5 -120t-58.5 -119.5t-180.5 -43.5t-180.5 43.5z" />
    <glyph glyph-name="uni1EB9" unicode="&#x1eb9;" horiz-adv-x="1297" 
d="M1234 440h-757q7 -65 42.5 -102t114 -54.5t217.5 -17.5q69 0 151 7.5t159 21.5v-283q-174 -33 -374 -33q-246 0 -403 60.5t-233 185.5t-76 320q0 176 69.5 304t204 197t325.5 69q182 0 307.5 -69.5t189 -200.5t63.5 -314v-91zM526 819.5q-47 -52.5 -51 -164.5h383
q-4 111 -50.5 164t-140.5 53t-141 -52.5zM510.5 -425.5q-52.5 47.5 -52.5 131.5t52.5 131.5t157.5 47.5t157.5 -47.5t52.5 -131.5t-52.5 -131.5t-157.5 -47.5t-157.5 47.5z" />
    <glyph glyph-name="uni1EBA" unicode="&#x1eba;" horiz-adv-x="1468" 
d="M555 310h824v-310h-1237v1480h1227v-310h-814v-259h708v-310h-708v-291zM711.5 1654q30.5 24 83.5 47q36 16 52 27t16 26q0 16 -29 24t-89 8q-101 0 -207 -22v136q49 11 113.5 17.5t123.5 6.5q147 0 218 -36.5t71 -105.5q0 -48 -32 -77t-89 -58q-35 -19 -51 -30.5
t-18 -26.5h-195q2 40 32.5 64z" />
    <glyph glyph-name="uni1EBB" unicode="&#x1ebb;" horiz-adv-x="1297" 
d="M1234 440h-757q7 -65 42.5 -102t114 -54.5t217.5 -17.5q69 0 151 7.5t159 21.5v-283q-174 -33 -374 -33q-246 0 -403 60.5t-233 185.5t-76 320q0 176 69.5 304t204 197t325.5 69q182 0 307.5 -69.5t189 -200.5t63.5 -314v-91zM526 819.5q-47 -52.5 -51 -164.5h383
q-4 111 -50.5 164t-140.5 53t-141 -52.5zM589.5 1296.5q16.5 29.5 38 48t53.5 39.5q29 19 42.5 32t13.5 30q0 22 -22.5 31t-80.5 9q-90 0 -183 -24v140q40 13 100 19.5t112 6.5q142 0 208.5 -38.5t66.5 -119.5q0 -36 -12.5 -61.5t-31 -42t-48.5 -37.5q-38 -27 -57.5 -48.5
t-23.5 -54.5h-194q2 41 18.5 70.5z" />
    <glyph glyph-name="uni1EBC" unicode="&#x1ebc;" horiz-adv-x="1468" 
d="M555 310h824v-310h-1237v1480h1227v-310h-814v-259h708v-310h-708v-291zM869.5 1611.5q-46.5 9.5 -109.5 28.5q-61 17 -101 25.5t-85 8.5q-67 0 -119 -15.5t-107 -49.5v209q48 38 103.5 56t132.5 18q53 0 98.5 -9.5t111.5 -29.5q58 -17 99.5 -26t86.5 -9q67 0 119 15.5
t107 49.5v-209q-48 -38 -103.5 -55t-132.5 -17q-54 0 -100.5 9.5z" />
    <glyph glyph-name="uni1EBD" unicode="&#x1ebd;" horiz-adv-x="1297" 
d="M1234 440h-757q7 -65 42.5 -102t114 -54.5t217.5 -17.5q69 0 151 7.5t159 21.5v-283q-174 -33 -374 -33q-246 0 -403 60.5t-233 185.5t-76 320q0 176 69.5 304t204 197t325.5 69q182 0 307.5 -69.5t189 -200.5t63.5 -314v-91zM526 819.5q-47 -52.5 -51 -164.5h383
q-4 111 -50.5 164t-140.5 53t-141 -52.5zM752.5 1273q-42.5 13 -101.5 38q-56 24 -92 35.5t-75 11.5q-63 0 -113.5 -20.5t-104.5 -68.5v235q46 43 101 62.5t127 19.5q47 0 89.5 -13t101.5 -38q56 -24 92 -35.5t75 -11.5q63 0 113.5 20.5t104.5 68.5v-235q-46 -43 -101 -62.5
t-127 -19.5q-47 0 -89.5 13z" />
    <glyph glyph-name="uni1EBE" unicode="&#x1ebe;" horiz-adv-x="1468" 
d="M555 310h824v-310h-1237v1480h1227v-310h-814v-259h708v-310h-708v-291zM1182 2064h284l-173 -241h-233zM607 1862h340l325 -272h-325l-170 147l-170 -147h-325z" />
    <glyph glyph-name="uni1EBF" unicode="&#x1ebf;" horiz-adv-x="1297" 
d="M1234 440h-757q7 -65 42.5 -102t114 -54.5t217.5 -17.5q69 0 151 7.5t159 21.5v-283q-174 -33 -374 -33q-246 0 -403 60.5t-233 185.5t-76 320q0 176 69.5 304t204 197t325.5 69q182 0 307.5 -69.5t189 -200.5t63.5 -314v-91zM526 819.5q-47 -52.5 -51 -164.5h383
q-4 111 -50.5 164t-140.5 53t-141 -52.5zM1121 1868h345l-267 -270h-285zM510 1616h316l283 -390h-298l-143 203l-143 -203h-298z" />
    <glyph glyph-name="uni1EC0" unicode="&#x1ec0;" horiz-adv-x="1468" 
d="M555 310h824v-310h-1237v1480h1227v-310h-814v-259h708v-310h-708v-291zM1330 1823h-233l-173 241h284zM607 1862h340l325 -272h-325l-170 147l-170 -147h-325z" />
    <glyph glyph-name="uni1EC1" unicode="&#x1ec1;" horiz-adv-x="1297" 
d="M1234 440h-757q7 -65 42.5 -102t114 -54.5t217.5 -17.5q69 0 151 7.5t159 21.5v-283q-174 -33 -374 -33q-246 0 -403 60.5t-233 185.5t-76 320q0 176 69.5 304t204 197t325.5 69q182 0 307.5 -69.5t189 -200.5t63.5 -314v-91zM526 819.5q-47 -52.5 -51 -164.5h383
q-4 111 -50.5 164t-140.5 53t-141 -52.5zM1237 1598h-285l-267 270h346zM510 1616h316l283 -390h-298l-143 203l-143 -203h-298z" />
    <glyph glyph-name="uni1EC2" unicode="&#x1ec2;" horiz-adv-x="1468" 
d="M555 310h824v-310h-1237v1480h1227v-310h-814v-259h708v-310h-708v-291zM1443 1990q0 -42 -31.5 -67t-88.5 -50q-36 -17 -52 -27t-18 -23h-195q2 36 31.5 56.5t83.5 41.5q35 13 52 23.5t17 23.5q0 28 -118 28q-99 0 -207 -20v117q49 10 114 16.5t122 6.5q290 0 290 -126z
M607 1862h340l325 -272h-325l-170 147l-170 -147h-325z" />
    <glyph glyph-name="uni1EC3" unicode="&#x1ec3;" horiz-adv-x="1297" 
d="M1234 440h-757q7 -65 42.5 -102t114 -54.5t217.5 -17.5q69 0 151 7.5t159 21.5v-283q-174 -33 -374 -33q-246 0 -403 60.5t-233 185.5t-76 320q0 176 69.5 304t204 197t325.5 69q182 0 307.5 -69.5t189 -200.5t63.5 -314v-91zM526 819.5q-47 -52.5 -51 -164.5h383
q-4 111 -50.5 164t-140.5 53t-141 -52.5zM1193 1860.5q61 -29.5 61 -93.5q0 -33 -21.5 -52t-64.5 -41q-38 -19 -58 -35t-24 -41h-171q3 44 31.5 67.5t76.5 44.5q24 10 35 17t11 16q0 17 -24 24.5t-76 7.5q-94 0 -181 -19v112q38 10 99 16t112 6q133 0 194 -29.5zM510 1616
h316l283 -390h-298l-143 203l-143 -203h-298z" />
    <glyph glyph-name="uni1EC4" unicode="&#x1ec4;" horiz-adv-x="1468" 
d="M555 310h824v-310h-1237v1480h1227v-310h-814v-259h708v-310h-708v-291zM1129 2070.5q61 14.5 143 51.5v-155q-70 -37 -132.5 -49.5t-143.5 -12.5q-61 0 -114 7.5t-131 23.5q-65 14 -108.5 20.5t-87.5 6.5q-69 0 -130 -14.5t-143 -51.5v155q71 37 134 50.5t142 13.5
q60 0 111 -7.5t134 -24.5q62 -14 106.5 -21t89.5 -7q69 0 130 14.5zM607 1862h340l325 -272h-325l-170 147l-170 -147h-325z" />
    <glyph glyph-name="uni1EC5" unicode="&#x1ec5;" horiz-adv-x="1297" 
d="M1234 440h-757q7 -65 42.5 -102t114 -54.5t217.5 -17.5q69 0 151 7.5t159 21.5v-283q-174 -33 -374 -33q-246 0 -403 60.5t-233 185.5t-76 320q0 176 69.5 304t204 197t325.5 69q182 0 307.5 -69.5t189 -200.5t63.5 -314v-91zM526 819.5q-47 -52.5 -51 -164.5h383
q-4 111 -50.5 164t-140.5 53t-141 -52.5zM762.5 1615q-44.5 8 -111.5 25q-58 15 -99 23t-86 8q-66 0 -117 -13.5t-107 -43.5v180q47 34 103 50t132 16q53 0 99 -8.5t109 -25.5q61 -16 101 -24t84 -8q66 0 117 13.5t107 43.5v-180q-46 -34 -102 -49t-133 -15q-52 0 -96.5 8z
M1160 1228h-324l-168 175l-168 -175h-324l322 321h340z" />
    <glyph glyph-name="uni1EC6" unicode="&#x1ec6;" horiz-adv-x="1468" 
d="M555 310h824v-310h-1237v1480h1227v-310h-814v-259h708v-310h-708v-291zM597.5 -398.5q-58.5 43.5 -58.5 119.5t58.5 120t180.5 44t180.5 -44t58.5 -120t-58.5 -119.5t-180.5 -43.5t-180.5 43.5zM1272 1590h-325l-170 166l-170 -166h-325l325 310h340z" />
    <glyph glyph-name="uni1EC7" unicode="&#x1ec7;" horiz-adv-x="1297" 
d="M1234 440h-757q7 -65 42.5 -102t114 -54.5t217.5 -17.5q69 0 151 7.5t159 21.5v-283q-174 -33 -374 -33q-246 0 -403 60.5t-233 185.5t-76 320q0 176 69.5 304t204 197t325.5 69q182 0 307.5 -69.5t189 -200.5t63.5 -314v-91zM526 819.5q-47 -52.5 -51 -164.5h383
q-4 111 -50.5 164t-140.5 53t-141 -52.5zM510.5 -425.5q-52.5 47.5 -52.5 131.5t52.5 131.5t157.5 47.5t157.5 -47.5t52.5 -131.5t-52.5 -131.5t-157.5 -47.5t-157.5 47.5zM1109 1226h-298l-143 203l-143 -203h-298l283 390h316z" />
    <glyph glyph-name="uni1EC8" unicode="&#x1ec8;" horiz-adv-x="703" 
d="M142 0v1480h418v-1480h-418zM285.5 1654q30.5 24 83.5 47q36 16 52 27t16 26q0 16 -29 24t-89 8q-101 0 -207 -22v136q49 11 113.5 17.5t123.5 6.5q147 0 218 -36.5t71 -105.5q0 -48 -32 -77t-89 -58q-35 -19 -51 -30.5t-18 -26.5h-195q2 40 32.5 64z" />
    <glyph glyph-name="uni1EC9" unicode="&#x1ec9;" horiz-adv-x="663" 
d="M127 0v1097h408v-1097h-408zM252.5 1296.5q16.5 29.5 38 48t53.5 39.5q29 19 42.5 32t13.5 30q0 22 -22.5 31t-80.5 9q-90 0 -183 -24v140q40 13 100 19.5t112 6.5q142 0 208.5 -38.5t66.5 -119.5q0 -36 -12.5 -61.5t-31 -42t-48.5 -37.5q-38 -27 -57.5 -48.5
t-23.5 -54.5h-194q2 41 18.5 70.5z" />
    <glyph glyph-name="uni1ECA" unicode="&#x1eca;" horiz-adv-x="703" 
d="M142 0v1480h418v-1480h-418zM169.5 -398.5q-58.5 43.5 -58.5 119.5t58.5 120t180.5 44t180.5 -44t58.5 -120t-58.5 -119.5t-180.5 -43.5t-180.5 43.5z" />
    <glyph glyph-name="uni1ECB" unicode="&#x1ecb;" horiz-adv-x="663" 
d="M127 0v1097h408v-1097h-408zM87 1419q0 191 244 191t244 -191t-244 -191t-244 191zM173.5 -425.5q-52.5 47.5 -52.5 131.5t52.5 131.5t157.5 47.5t157.5 -47.5t52.5 -131.5t-52.5 -131.5t-157.5 -47.5t-157.5 47.5z" />
    <glyph glyph-name="uni1ECC" unicode="&#x1ecc;" horiz-adv-x="1847" 
d="M480.5 70.5q-187.5 90.5 -288 261.5t-100.5 408t100.5 408t287.5 261.5t443 90.5t443.5 -91t288 -262t100.5 -407q0 -235 -101 -406.5t-288.5 -262.5t-442.5 -91t-442.5 90.5zM1224.5 414.5q104.5 108.5 104.5 318.5q0 219 -105.5 330t-300.5 111q-194 0 -300 -107.5
t-106 -319.5q0 -222 104 -331.5t302 -109.5q197 0 301.5 108.5zM742.5 -398.5q-58.5 43.5 -58.5 119.5t58.5 120t180.5 44t180.5 -44t58.5 -120t-58.5 -119.5t-180.5 -43.5t-180.5 43.5z" />
    <glyph glyph-name="uni1ECD" unicode="&#x1ecd;" horiz-adv-x="1427" 
d="M377 46.5q-144 67.5 -223 196t-79 306.5q0 179 75.5 306t219 193.5t344.5 66.5t344.5 -66.5t218.5 -193.5t75 -306q0 -178 -79 -306.5t-223 -196t-336 -67.5q-193 0 -337 67.5zM889.5 350.5q59.5 63.5 59.5 197.5t-59.5 196.5t-175.5 62.5q-117 0 -176.5 -62t-59.5 -196
q0 -135 60 -198.5t176 -63.5t175.5 63.5zM556.5 -425.5q-52.5 47.5 -52.5 131.5t52.5 131.5t157.5 47.5t157.5 -47.5t52.5 -131.5t-52.5 -131.5t-157.5 -47.5t-157.5 47.5z" />
    <glyph glyph-name="uni1ECE" unicode="&#x1ece;" horiz-adv-x="1847" 
d="M480.5 70.5q-187.5 90.5 -288 261.5t-100.5 408t100.5 408t287.5 261.5t443 90.5t443.5 -91t288 -262t100.5 -407q0 -235 -101 -406.5t-288.5 -262.5t-442.5 -91t-442.5 90.5zM1224.5 414.5q104.5 108.5 104.5 318.5q0 219 -105.5 330t-300.5 111q-194 0 -300 -107.5
t-106 -319.5q0 -222 104 -331.5t302 -109.5q197 0 301.5 108.5zM857.5 1654q30.5 24 83.5 47q36 16 52 27t16 26q0 16 -29 24t-89 8q-101 0 -207 -22v136q49 11 113.5 17.5t123.5 6.5q147 0 218 -36.5t71 -105.5q0 -48 -32 -77t-89 -58q-35 -19 -51 -30.5t-18 -26.5h-195
q2 40 32.5 64z" />
    <glyph glyph-name="uni1ECF" unicode="&#x1ecf;" horiz-adv-x="1427" 
d="M377 46.5q-144 67.5 -223 196t-79 306.5q0 179 75.5 306t219 193.5t344.5 66.5t344.5 -66.5t218.5 -193.5t75 -306q0 -178 -79 -306.5t-223 -196t-336 -67.5q-193 0 -337 67.5zM889.5 350.5q59.5 63.5 59.5 197.5t-59.5 196.5t-175.5 62.5q-117 0 -176.5 -62t-59.5 -196
q0 -135 60 -198.5t176 -63.5t175.5 63.5zM635.5 1296.5q16.5 29.5 38 48t53.5 39.5q29 19 42.5 32t13.5 30q0 22 -22.5 31t-80.5 9q-90 0 -183 -24v140q40 13 100 19.5t112 6.5q142 0 208.5 -38.5t66.5 -119.5q0 -36 -12.5 -61.5t-31 -42t-48.5 -37.5q-38 -27 -57.5 -48.5
t-23.5 -54.5h-194q2 41 18.5 70.5z" />
    <glyph glyph-name="uni1ED0" unicode="&#x1ed0;" horiz-adv-x="1847" 
d="M480.5 70.5q-187.5 90.5 -288 261.5t-100.5 408t100.5 408t287.5 261.5t443 90.5t443.5 -91t288 -262t100.5 -407q0 -235 -101 -406.5t-288.5 -262.5t-442.5 -91t-442.5 90.5zM1224.5 414.5q104.5 108.5 104.5 318.5q0 219 -105.5 330t-300.5 111q-194 0 -300 -107.5
t-106 -319.5q0 -222 104 -331.5t302 -109.5q197 0 301.5 108.5zM1328 2064h284l-173 -241h-233zM753 1862h340l325 -272h-325l-170 147l-170 -147h-325z" />
    <glyph glyph-name="uni1ED1" unicode="&#x1ed1;" horiz-adv-x="1427" 
d="M377 46.5q-144 67.5 -223 196t-79 306.5q0 179 75.5 306t219 193.5t344.5 66.5t344.5 -66.5t218.5 -193.5t75 -306q0 -178 -79 -306.5t-223 -196t-336 -67.5q-193 0 -337 67.5zM889.5 350.5q59.5 63.5 59.5 197.5t-59.5 196.5t-175.5 62.5q-117 0 -176.5 -62t-59.5 -196
q0 -135 60 -198.5t176 -63.5t175.5 63.5zM1167 1868h345l-267 -270h-285zM556 1616h316l283 -390h-298l-143 203l-143 -203h-298z" />
    <glyph glyph-name="uni1ED2" unicode="&#x1ed2;" horiz-adv-x="1847" 
d="M480.5 70.5q-187.5 90.5 -288 261.5t-100.5 408t100.5 408t287.5 261.5t443 90.5t443.5 -91t288 -262t100.5 -407q0 -235 -101 -406.5t-288.5 -262.5t-442.5 -91t-442.5 90.5zM1224.5 414.5q104.5 108.5 104.5 318.5q0 219 -105.5 330t-300.5 111q-194 0 -300 -107.5
t-106 -319.5q0 -222 104 -331.5t302 -109.5q197 0 301.5 108.5zM1476 1823h-233l-173 241h284zM753 1862h340l325 -272h-325l-170 147l-170 -147h-325z" />
    <glyph glyph-name="uni1ED3" unicode="&#x1ed3;" horiz-adv-x="1427" 
d="M377 46.5q-144 67.5 -223 196t-79 306.5q0 179 75.5 306t219 193.5t344.5 66.5t344.5 -66.5t218.5 -193.5t75 -306q0 -178 -79 -306.5t-223 -196t-336 -67.5q-193 0 -337 67.5zM889.5 350.5q59.5 63.5 59.5 197.5t-59.5 196.5t-175.5 62.5q-117 0 -176.5 -62t-59.5 -196
q0 -135 60 -198.5t176 -63.5t175.5 63.5zM1283 1598h-285l-267 270h346zM556 1616h316l283 -390h-298l-143 203l-143 -203h-298z" />
    <glyph glyph-name="uni1ED4" unicode="&#x1ed4;" horiz-adv-x="1847" 
d="M480.5 70.5q-187.5 90.5 -288 261.5t-100.5 408t100.5 408t287.5 261.5t443 90.5t443.5 -91t288 -262t100.5 -407q0 -235 -101 -406.5t-288.5 -262.5t-442.5 -91t-442.5 90.5zM1224.5 414.5q104.5 108.5 104.5 318.5q0 219 -105.5 330t-300.5 111q-194 0 -300 -107.5
t-106 -319.5q0 -222 104 -331.5t302 -109.5q197 0 301.5 108.5zM1589 1990q0 -42 -31.5 -67t-88.5 -50q-36 -17 -52 -27t-18 -23h-195q2 36 31.5 56.5t83.5 41.5q35 13 52 23.5t17 23.5q0 28 -118 28q-99 0 -207 -20v117q49 10 114 16.5t122 6.5q290 0 290 -126zM753 1862
h340l325 -272h-325l-170 147l-170 -147h-325z" />
    <glyph glyph-name="uni1ED5" unicode="&#x1ed5;" horiz-adv-x="1427" 
d="M377 46.5q-144 67.5 -223 196t-79 306.5q0 179 75.5 306t219 193.5t344.5 66.5t344.5 -66.5t218.5 -193.5t75 -306q0 -178 -79 -306.5t-223 -196t-336 -67.5q-193 0 -337 67.5zM889.5 350.5q59.5 63.5 59.5 197.5t-59.5 196.5t-175.5 62.5q-117 0 -176.5 -62t-59.5 -196
q0 -135 60 -198.5t176 -63.5t175.5 63.5zM1239 1860.5q61 -29.5 61 -93.5q0 -33 -21.5 -52t-64.5 -41q-38 -19 -58 -35t-24 -41h-171q3 44 31.5 67.5t76.5 44.5q24 10 35 17t11 16q0 17 -24 24.5t-76 7.5q-94 0 -181 -19v112q38 10 99 16t112 6q133 0 194 -29.5zM556 1616
h316l283 -390h-298l-143 203l-143 -203h-298z" />
    <glyph glyph-name="uni1ED6" unicode="&#x1ed6;" horiz-adv-x="1847" 
d="M480.5 70.5q-187.5 90.5 -288 261.5t-100.5 408t100.5 408t287.5 261.5t443 90.5t443.5 -91t288 -262t100.5 -407q0 -235 -101 -406.5t-288.5 -262.5t-442.5 -91t-442.5 90.5zM1224.5 414.5q104.5 108.5 104.5 318.5q0 219 -105.5 330t-300.5 111q-194 0 -300 -107.5
t-106 -319.5q0 -222 104 -331.5t302 -109.5q197 0 301.5 108.5zM1275 2070.5q61 14.5 143 51.5v-155q-70 -37 -132.5 -49.5t-143.5 -12.5q-61 0 -114 7.5t-131 23.5q-65 14 -108.5 20.5t-87.5 6.5q-69 0 -130 -14.5t-143 -51.5v155q71 37 134 50.5t142 13.5q60 0 111 -7.5
t134 -24.5q62 -14 106.5 -21t89.5 -7q69 0 130 14.5zM753 1862h340l325 -272h-325l-170 147l-170 -147h-325z" />
    <glyph glyph-name="uni1ED7" unicode="&#x1ed7;" horiz-adv-x="1427" 
d="M377 46.5q-144 67.5 -223 196t-79 306.5q0 179 75.5 306t219 193.5t344.5 66.5t344.5 -66.5t218.5 -193.5t75 -306q0 -178 -79 -306.5t-223 -196t-336 -67.5q-193 0 -337 67.5zM889.5 350.5q59.5 63.5 59.5 197.5t-59.5 196.5t-175.5 62.5q-117 0 -176.5 -62t-59.5 -196
q0 -135 60 -198.5t176 -63.5t175.5 63.5zM808.5 1615q-44.5 8 -111.5 25q-58 15 -99 23t-86 8q-66 0 -117 -13.5t-107 -43.5v180q47 34 103 50t132 16q53 0 99 -8.5t109 -25.5q61 -16 101 -24t84 -8q66 0 117 13.5t107 43.5v-180q-46 -34 -102 -49t-133 -15q-52 0 -96.5 8z
M1206 1228h-324l-168 175l-168 -175h-324l322 321h340z" />
    <glyph glyph-name="uni1ED8" unicode="&#x1ed8;" horiz-adv-x="1847" 
d="M480.5 70.5q-187.5 90.5 -288 261.5t-100.5 408t100.5 408t287.5 261.5t443 90.5t443.5 -91t288 -262t100.5 -407q0 -235 -101 -406.5t-288.5 -262.5t-442.5 -91t-442.5 90.5zM1224.5 414.5q104.5 108.5 104.5 318.5q0 219 -105.5 330t-300.5 111q-194 0 -300 -107.5
t-106 -319.5q0 -222 104 -331.5t302 -109.5q197 0 301.5 108.5zM742.5 -398.5q-58.5 43.5 -58.5 119.5t58.5 120t180.5 44t180.5 -44t58.5 -120t-58.5 -119.5t-180.5 -43.5t-180.5 43.5zM1418 1590h-325l-170 166l-170 -166h-325l325 310h340z" />
    <glyph glyph-name="uni1ED9" unicode="&#x1ed9;" horiz-adv-x="1427" 
d="M377 46.5q-144 67.5 -223 196t-79 306.5q0 179 75.5 306t219 193.5t344.5 66.5t344.5 -66.5t218.5 -193.5t75 -306q0 -178 -79 -306.5t-223 -196t-336 -67.5q-193 0 -337 67.5zM889.5 350.5q59.5 63.5 59.5 197.5t-59.5 196.5t-175.5 62.5q-117 0 -176.5 -62t-59.5 -196
q0 -135 60 -198.5t176 -63.5t175.5 63.5zM556.5 -425.5q-52.5 47.5 -52.5 131.5t52.5 131.5t157.5 47.5t157.5 -47.5t52.5 -131.5t-52.5 -131.5t-157.5 -47.5t-157.5 47.5zM1155 1226h-298l-143 203l-143 -203h-298l283 390h316z" />
    <glyph glyph-name="uni1EDA" unicode="&#x1eda;" horiz-adv-x="1847" 
d="M1695 1067q60 -144 60 -327q0 -236 -101 -407.5t-288.5 -262t-442.5 -90.5t-442.5 90.5t-288 261.5t-100.5 408t100.5 408t287.5 261.5t443 90.5q52 0 115.5 -5t76.5 -6q124 -10 172 -10q113 0 165.5 35.5t52.5 121.5q0 60 -14 140h259q19 -72 19 -151q0 -133 -65 -213.5
t-183 -103.5q114 -97 174 -241zM1224.5 414.5q104.5 108.5 104.5 318.5q0 219 -105.5 330t-300.5 111q-194 0 -300 -107.5t-106 -319.5q0 -222 104 -331.5t302 -109.5q197 0 301.5 108.5zM734 1590l207 310h431l-267 -310h-371z" />
    <glyph glyph-name="uni1EDB" unicode="&#x1edb;" horiz-adv-x="1427" 
d="M1360 1049.5q-53 -76.5 -151 -107.5q71 -71 107 -170.5t36 -222.5q0 -178 -79 -306.5t-223 -196t-336 -67.5q-193 0 -337 67.5t-223 196t-79 306.5q0 179 76.5 306t223.5 193.5t356 66.5q57 0 150 -7q52 -5 83 -5q101 0 151 35.5t50 117.5q0 60 -14 140h245
q10 -42 13.5 -76.5t3.5 -74.5q0 -119 -53 -195.5zM889.5 350.5q59.5 63.5 59.5 197.5t-59.5 196.5t-175.5 62.5q-117 0 -176.5 -62t-59.5 -196q0 -135 60 -198.5t176 -63.5t175.5 63.5zM519 1226l259 390h448l-319 -390h-388z" />
    <glyph glyph-name="uni1EDC" unicode="&#x1edc;" horiz-adv-x="1847" 
d="M1695 1067q60 -144 60 -327q0 -236 -101 -407.5t-288.5 -262t-442.5 -90.5t-442.5 90.5t-288 261.5t-100.5 408t100.5 408t287.5 261.5t443 90.5q52 0 115.5 -5t76.5 -6q124 -10 172 -10q113 0 165.5 35.5t52.5 121.5q0 60 -14 140h259q19 -72 19 -151q0 -133 -65 -213.5
t-183 -103.5q114 -97 174 -241zM1224.5 414.5q104.5 108.5 104.5 318.5q0 219 -105.5 330t-300.5 111q-194 0 -300 -107.5t-106 -319.5q0 -222 104 -331.5t302 -109.5q197 0 301.5 108.5zM738 1590l-267 310h431l206 -310h-370z" />
    <glyph glyph-name="uni1EDD" unicode="&#x1edd;" horiz-adv-x="1427" 
d="M1360 1049.5q-53 -76.5 -151 -107.5q71 -71 107 -170.5t36 -222.5q0 -178 -79 -306.5t-223 -196t-336 -67.5q-193 0 -337 67.5t-223 196t-79 306.5q0 179 76.5 306t223.5 193.5t356 66.5q57 0 150 -7q52 -5 83 -5q101 0 151 35.5t50 117.5q0 60 -14 140h245
q10 -42 13.5 -76.5t3.5 -74.5q0 -119 -53 -195.5zM889.5 350.5q59.5 63.5 59.5 197.5t-59.5 196.5t-175.5 62.5q-117 0 -176.5 -62t-59.5 -196q0 -135 60 -198.5t176 -63.5t175.5 63.5zM519 1226l-319 390h448l259 -390h-388z" />
    <glyph glyph-name="uni1EDE" unicode="&#x1ede;" horiz-adv-x="1847" 
d="M1695 1067q60 -144 60 -327q0 -236 -101 -407.5t-288.5 -262t-442.5 -90.5t-442.5 90.5t-288 261.5t-100.5 408t100.5 408t287.5 261.5t443 90.5q52 0 115.5 -5t76.5 -6q124 -10 172 -10q113 0 165.5 35.5t52.5 121.5q0 60 -14 140h259q19 -72 19 -151q0 -133 -65 -213.5
t-183 -103.5q114 -97 174 -241zM1224.5 414.5q104.5 108.5 104.5 318.5q0 219 -105.5 330t-300.5 111q-194 0 -300 -107.5t-106 -319.5q0 -222 104 -331.5t302 -109.5q197 0 301.5 108.5zM857.5 1654q30.5 24 83.5 47q36 16 52 27t16 26q0 16 -29 24t-89 8q-101 0 -207 -22
v136q49 11 113.5 17.5t123.5 6.5q147 0 218 -36.5t71 -105.5q0 -48 -32 -77t-89 -58q-35 -19 -51 -30.5t-18 -26.5h-195q2 40 32.5 64z" />
    <glyph glyph-name="uni1EDF" unicode="&#x1edf;" horiz-adv-x="1427" 
d="M1360 1049.5q-53 -76.5 -151 -107.5q71 -71 107 -170.5t36 -222.5q0 -178 -79 -306.5t-223 -196t-336 -67.5q-193 0 -337 67.5t-223 196t-79 306.5q0 179 76.5 306t223.5 193.5t356 66.5q57 0 150 -7q52 -5 83 -5q101 0 151 35.5t50 117.5q0 60 -14 140h245
q10 -42 13.5 -76.5t3.5 -74.5q0 -119 -53 -195.5zM889.5 350.5q59.5 63.5 59.5 197.5t-59.5 196.5t-175.5 62.5q-117 0 -176.5 -62t-59.5 -196q0 -135 60 -198.5t176 -63.5t175.5 63.5zM634.5 1296.5q16.5 29.5 38 48t53.5 39.5q29 19 42.5 32t13.5 30q0 22 -22.5 31
t-80.5 9q-90 0 -183 -24v140q40 13 100 19.5t112 6.5q142 0 208.5 -38.5t66.5 -119.5q0 -36 -12.5 -61.5t-31 -42t-48.5 -37.5q-38 -27 -57.5 -48.5t-23.5 -54.5h-194q2 41 18.5 70.5z" />
    <glyph glyph-name="uni1EE0" unicode="&#x1ee0;" horiz-adv-x="1847" 
d="M1018.5 1611q-44.5 9 -111.5 28q-60 18 -101 26.5t-86 8.5q-67 0 -118.5 -15t-106.5 -50v209q47 38 103 56t133 18q53 0 98 -9.5t111 -29.5q58 -17 99.5 -26t86.5 -9q68 0 119.5 15t106.5 50v-209q-47 -38 -102.5 -55t-133.5 -17q-53 0 -97.5 9zM1695 1067
q60 -144 60 -327q0 -236 -101 -407.5t-288.5 -262t-442.5 -90.5t-442.5 90.5t-288 261.5t-100.5 408t100.5 408t287.5 261.5t443 90.5q52 0 115.5 -5t76.5 -6q124 -10 172 -10q113 0 165.5 35.5t52.5 121.5q0 60 -14 140h259q19 -72 19 -151q0 -133 -65 -213.5t-183 -103.5
q114 -97 174 -241zM1224.5 414.5q104.5 108.5 104.5 318.5q0 219 -105.5 330t-300.5 111q-194 0 -300 -107.5t-106 -319.5q0 -222 104 -331.5t302 -109.5q197 0 301.5 108.5z" />
    <glyph glyph-name="uni1EE1" unicode="&#x1ee1;" horiz-adv-x="1427" 
d="M793.5 1273.5q-41.5 13.5 -97.5 38.5q-55 24 -88.5 35t-70.5 11q-60 0 -108 -20.5t-101 -68.5v235q46 43 98 62.5t120 19.5q45 0 85 -12.5t98 -38.5q52 -24 87.5 -35.5t72.5 -11.5q60 0 108.5 20.5t99.5 68.5v-235q-45 -43 -97 -62.5t-120 -19.5q-45 0 -86.5 13.5z
M1360 1049.5q-53 -76.5 -151 -107.5q71 -71 107 -170.5t36 -222.5q0 -178 -79 -306.5t-223 -196t-336 -67.5q-193 0 -337 67.5t-223 196t-79 306.5q0 179 76.5 306t223.5 193.5t356 66.5q57 0 150 -7q52 -5 83 -5q101 0 151 35.5t50 117.5q0 60 -14 140h245
q10 -42 13.5 -76.5t3.5 -74.5q0 -119 -53 -195.5zM889.5 350.5q59.5 63.5 59.5 197.5t-59.5 196.5t-175.5 62.5q-117 0 -176.5 -62t-59.5 -196q0 -135 60 -198.5t176 -63.5t175.5 63.5z" />
    </font>
</defs>
</svg>
